<?xml version="1.0" encoding="UTF-8" standalone="no"?>
<!DOCTYPE svg PUBLIC "-//W3C//DTD SVG 1.1//EN"
 "http://www.w3.org/Graphics/SVG/1.1/DTD/svg11.dtd">
<!-- Generated by graphviz version 7.1.0 (20230121.1956)
 -->
<!-- Title: myst_progression Pages: 1 -->
<svg width="2119pt" height="1596pt"
 viewBox="0.00 0.00 2119.25 1596.00" xmlns="http://www.w3.org/2000/svg" xmlns:xlink="http://www.w3.org/1999/xlink">
<g id="graph0" class="graph" transform="scale(1 1) rotate(0) translate(4 1592)">
<title>myst_progression</title>
<polygon fill="#1f1f1f" stroke="none" points="-4,4 -4,-1592 2115.25,-1592 2115.25,4 -4,4"/>
<g id="clust5" class="cluster">
<title>cluster_selenetic</title>
<polygon fill="#1f1f1f" stroke="red" points="626,-449 626,-994 1000,-994 1000,-449 626,-449"/>
<text text-anchor="middle" x="813" y="-970.8" font-family="Helvetica,sans-Serif" font-weight="bold" font-size="24.00" fill="red">Selenetic Age</text>
</g>
<g id="clust6" class="cluster">
<title>cluster_mechanical</title>
<polygon fill="#1f1f1f" stroke="red" points="8,-449 8,-994 618,-994 618,-449 8,-449"/>
<text text-anchor="middle" x="313" y="-970.8" font-family="Helvetica,sans-Serif" font-weight="bold" font-size="24.00" fill="red">Mechanical Age</text>
</g>
<g id="clust7" class="cluster">
<title>cluster_stoneship</title>
<polygon fill="#1f1f1f" stroke="red" points="1555,-358 1555,-994 2076,-994 2076,-358 1555,-358"/>
<text text-anchor="middle" x="1815.5" y="-970.8" font-family="Helvetica,sans-Serif" font-weight="bold" font-size="24.00" fill="red">Stoneship Age</text>
</g>
<g id="clust8" class="cluster">
<title>cluster_channelwood</title>
<polygon fill="#1f1f1f" stroke="red" points="1008,-358 1008,-994 1546,-994 1546,-358 1008,-358"/>
<text text-anchor="middle" x="1277" y="-970.8" font-family="Helvetica,sans-Serif" font-weight="bold" font-size="24.00" fill="red">Channelwood</text>
</g>
<!-- start -->
<g id="node1" class="node">
<title>start</title>
<path fill="#005000" stroke="#d9d9d9" d="M1279,-1588C1279,-1588 1249,-1588 1249,-1588 1243,-1588 1237,-1582 1237,-1576 1237,-1576 1237,-1564 1237,-1564 1237,-1558 1243,-1552 1249,-1552 1249,-1552 1279,-1552 1279,-1552 1285,-1552 1291,-1558 1291,-1564 1291,-1564 1291,-1576 1291,-1576 1291,-1582 1285,-1588 1279,-1588"/>
<text text-anchor="middle" x="1264" y="-1566.3" font-family="Helvetica,sans-Serif" font-size="14.00" fill="#e5e5e5">Start</text>
</g>
<!-- tower_rotation -->
<g id="node9" class="node">
<title>tower_rotation</title>
<path fill="none" stroke="#d9d9d9" d="M1154,-1497C1154,-1497 966,-1497 966,-1497 960,-1497 954,-1491 954,-1485 954,-1485 954,-1473 954,-1473 954,-1467 960,-1461 966,-1461 966,-1461 1154,-1461 1154,-1461 1160,-1461 1166,-1467 1166,-1473 1166,-1473 1166,-1485 1166,-1485 1166,-1491 1160,-1497 1154,-1497"/>
<text text-anchor="middle" x="1060" y="-1475.3" font-family="Helvetica,sans-Serif" font-size="14.00" fill="#e5e5e5">A button that rotates the tower</text>
</g>
<!-- start&#45;&gt;tower_rotation -->
<g id="edge5" class="edge">
<title>start&#45;&gt;tower_rotation</title>
<path fill="none" stroke="#d9d9d9" d="M1236.91,-1557.18C1204.67,-1543.12 1150.19,-1519.35 1110.19,-1501.9"/>
<polygon fill="#d9d9d9" stroke="#d9d9d9" points="1111.79,-1498.78 1101.22,-1497.98 1108.99,-1505.19 1111.79,-1498.78"/>
</g>
<!-- read_books -->
<g id="node10" class="node">
<title>read_books</title>
<path fill="#280060" stroke="#d9d9d9" d="M1645.5,-1316C1645.5,-1316 1514.5,-1316 1514.5,-1316 1508.5,-1316 1502.5,-1310 1502.5,-1304 1502.5,-1304 1502.5,-1290 1502.5,-1290 1502.5,-1284 1508.5,-1278 1514.5,-1278 1514.5,-1278 1645.5,-1278 1645.5,-1278 1651.5,-1278 1657.5,-1284 1657.5,-1290 1657.5,-1290 1657.5,-1304 1657.5,-1304 1657.5,-1310 1651.5,-1316 1645.5,-1316"/>
<text text-anchor="middle" x="1580" y="-1300.8" font-family="Helvetica,sans-Serif" font-size="14.00" fill="#e5e5e5">Library books bestow</text>
<text text-anchor="middle" x="1580" y="-1285.8" font-family="Helvetica,sans-Serif" font-size="14.00" fill="#e5e5e5">knowledge upon you</text>
</g>
<!-- start&#45;&gt;read_books -->
<g id="edge6" class="edge">
<title>start:e&#45;&gt;read_books</title>
<path fill="none" stroke="#d9d9d9" d="M1292,-1570C1360.56,-1570 1549.55,-1551.84 1592,-1498 1630.95,-1448.6 1608.88,-1369.19 1592.57,-1326.82"/>
<polygon fill="#d9d9d9" stroke="#d9d9d9" points="1595.92,-1325.78 1588.94,-1317.8 1589.42,-1328.39 1595.92,-1325.78"/>
</g>
<!-- basic_marker_switches -->
<g id="node11" class="node">
<title>basic_marker_switches</title>
<path fill="none" stroke="#d9d9d9" d="M1567.5,-1497C1567.5,-1497 1374.5,-1497 1374.5,-1497 1368.5,-1497 1362.5,-1491 1362.5,-1485 1362.5,-1485 1362.5,-1473 1362.5,-1473 1362.5,-1467 1368.5,-1461 1374.5,-1461 1374.5,-1461 1567.5,-1461 1567.5,-1461 1573.5,-1461 1579.5,-1467 1579.5,-1473 1579.5,-1473 1579.5,-1485 1579.5,-1485 1579.5,-1491 1573.5,-1497 1567.5,-1497"/>
<text text-anchor="start" x="1396.5" y="-1482.8" font-family="Helvetica,sans-Serif" font-size="14.00" fill="#e5e5e5">All the marker switches</text>
<text text-anchor="start" x="1370.5" y="-1468.8" font-family="Helvetica,sans-Serif" font-size="14.00" fill="#e5e5e5">enabled </text>
<text text-anchor="start" x="1425.5" y="-1468.8" font-family="Helvetica,sans-Serif" font-style="italic" font-size="14.00" fill="#e5e5e5">except </text>
<text text-anchor="start" x="1473.5" y="-1468.8" font-family="Helvetica,sans-Serif" font-size="14.00" fill="#e5e5e5">the clock tower</text>
</g>
<!-- start&#45;&gt;basic_marker_switches -->
<g id="edge7" class="edge">
<title>start&#45;&gt;basic_marker_switches</title>
<path fill="none" stroke="#d9d9d9" d="M1291.49,-1557.18C1324.2,-1543.12 1379.48,-1519.35 1420.07,-1501.9"/>
<polygon fill="#d9d9d9" stroke="#d9d9d9" points="1421.38,-1505.14 1429.19,-1497.98 1418.62,-1498.71 1421.38,-1505.14"/>
</g>
<!-- breaker_switches -->
<g id="node12" class="node">
<title>breaker_switches</title>
<path fill="none" stroke="#d9d9d9" d="M916.5,-1498C916.5,-1498 753.5,-1498 753.5,-1498 747.5,-1498 741.5,-1492 741.5,-1486 741.5,-1486 741.5,-1472 741.5,-1472 741.5,-1466 747.5,-1460 753.5,-1460 753.5,-1460 916.5,-1460 916.5,-1460 922.5,-1460 928.5,-1466 928.5,-1472 928.5,-1472 928.5,-1486 928.5,-1486 928.5,-1492 922.5,-1498 916.5,-1498"/>
<text text-anchor="middle" x="835" y="-1482.8" font-family="Helvetica,sans-Serif" font-size="14.00" fill="#e5e5e5">Switches on the electrical</text>
<text text-anchor="middle" x="835" y="-1467.8" font-family="Helvetica,sans-Serif" font-size="14.00" fill="#e5e5e5">towers reset the generator</text>
</g>
<!-- start&#45;&gt;breaker_switches -->
<g id="edge8" class="edge">
<title>start:w&#45;&gt;breaker_switches</title>
<path fill="none" stroke="#d9d9d9" d="M1236,-1570C1112.32,-1570 972.27,-1528.73 894.73,-1502.09"/>
<polygon fill="#d9d9d9" stroke="#d9d9d9" points="896.24,-1498.91 885.64,-1498.93 893.94,-1505.52 896.24,-1498.91"/>
</g>
<!-- tower_access -->
<g id="node13" class="node">
<title>tower_access</title>
<path fill="none" stroke="#d9d9d9" d="M1325,-1498C1325,-1498 1203,-1498 1203,-1498 1197,-1498 1191,-1492 1191,-1486 1191,-1486 1191,-1472 1191,-1472 1191,-1466 1197,-1460 1203,-1460 1203,-1460 1325,-1460 1325,-1460 1331,-1460 1337,-1466 1337,-1472 1337,-1472 1337,-1486 1337,-1486 1337,-1492 1331,-1498 1325,-1498"/>
<text text-anchor="middle" x="1264" y="-1482.8" font-family="Helvetica,sans-Serif" font-size="14.00" fill="#e5e5e5">Library painting</text>
<text text-anchor="middle" x="1264" y="-1467.8" font-family="Helvetica,sans-Serif" font-size="14.00" fill="#e5e5e5">grants tower access</text>
</g>
<!-- start&#45;&gt;tower_access -->
<g id="edge4" class="edge">
<title>start&#45;&gt;tower_access</title>
<path fill="none" stroke="#d9d9d9" d="M1264,-1551.84C1264,-1539.84 1264,-1523.52 1264,-1509.46"/>
<polygon fill="#d9d9d9" stroke="#d9d9d9" points="1267.5,-1509.85 1264,-1499.85 1260.5,-1509.85 1267.5,-1509.85"/>
</g>
<!-- ending_trapped_atrus -->
<g id="node2" class="node">
<title>ending_trapped_atrus</title>
<path fill="#500000" stroke="#d9d9d9" d="M1397,-37C1397,-37 1281,-37 1281,-37 1275,-37 1269,-31 1269,-25 1269,-25 1269,-13 1269,-13 1269,-7 1275,-1 1281,-1 1281,-1 1397,-1 1397,-1 1403,-1 1409,-7 1409,-13 1409,-13 1409,-25 1409,-25 1409,-31 1403,-37 1397,-37"/>
<text text-anchor="middle" x="1339" y="-15.3" font-family="Helvetica,sans-Serif" font-size="14.00" fill="#e5e5e5">Trapped with Atrus</text>
</g>
<!-- ending_free_brother -->
<g id="node3" class="node">
<title>ending_free_brother</title>
<path fill="#500000" stroke="#d9d9d9" d="M1567.5,-38C1567.5,-38 1446.5,-38 1446.5,-38 1440.5,-38 1434.5,-32 1434.5,-26 1434.5,-26 1434.5,-12 1434.5,-12 1434.5,-6 1440.5,0 1446.5,0 1446.5,0 1567.5,0 1567.5,0 1573.5,0 1579.5,-6 1579.5,-12 1579.5,-12 1579.5,-26 1579.5,-26 1579.5,-32 1573.5,-38 1567.5,-38"/>
<text text-anchor="middle" x="1507" y="-22.8" font-family="Helvetica,sans-Serif" font-size="14.00" fill="#e5e5e5">You freed a brother,</text>
<text text-anchor="middle" x="1507" y="-7.8" font-family="Helvetica,sans-Serif" font-size="14.00" fill="#e5e5e5">but at what cost?</text>
</g>
<!-- ending_good -->
<g id="node4" class="node">
<title>ending_good</title>
<path fill="#500000" stroke="#d9d9d9" d="M1712.5,-37C1712.5,-37 1635.5,-37 1635.5,-37 1629.5,-37 1623.5,-31 1623.5,-25 1623.5,-25 1623.5,-13 1623.5,-13 1623.5,-7 1629.5,-1 1635.5,-1 1635.5,-1 1712.5,-1 1712.5,-1 1718.5,-1 1724.5,-7 1724.5,-13 1724.5,-13 1724.5,-25 1724.5,-25 1724.5,-31 1718.5,-37 1712.5,-37"/>
<text text-anchor="middle" x="1674" y="-15.3" font-family="Helvetica,sans-Serif" font-size="14.00" fill="#e5e5e5">Good Ending</text>
</g>
<!-- stoneship_access -->
<g id="node5" class="node">
<title>stoneship_access</title>
<path fill="none" stroke="#d9d9d9" d="M1832,-1042C1832,-1042 1746,-1042 1746,-1042 1740,-1042 1734,-1036 1734,-1030 1734,-1030 1734,-1018 1734,-1018 1734,-1012 1740,-1006 1746,-1006 1746,-1006 1832,-1006 1832,-1006 1838,-1006 1844,-1012 1844,-1018 1844,-1018 1844,-1030 1844,-1030 1844,-1036 1838,-1042 1832,-1042"/>
<text text-anchor="middle" x="1789" y="-1020.3" font-family="Helvetica,sans-Serif" font-size="14.00" fill="#e5e5e5">Boat is unsunk</text>
</g>
<!-- stoneship_entered -->
<g id="node44" class="node">
<title>stoneship_entered</title>
<path fill="none" stroke="#d9d9d9" d="M1951.5,-952C1951.5,-952 1804.5,-952 1804.5,-952 1798.5,-952 1792.5,-946 1792.5,-940 1792.5,-940 1792.5,-928 1792.5,-928 1792.5,-922 1798.5,-916 1804.5,-916 1804.5,-916 1951.5,-916 1951.5,-916 1957.5,-916 1963.5,-922 1963.5,-928 1963.5,-928 1963.5,-940 1963.5,-940 1963.5,-946 1957.5,-952 1951.5,-952"/>
<text text-anchor="middle" x="1878" y="-930.3" font-family="Helvetica,sans-Serif" font-size="14.00" fill="#e5e5e5">Enter the Stoneship age</text>
</g>
<!-- stoneship_access&#45;&gt;stoneship_entered -->
<g id="edge21" class="edge">
<title>stoneship_access&#45;&gt;stoneship_entered</title>
<path fill="none" stroke="#d9d9d9" d="M1806.58,-1005.61C1819.63,-992.72 1837.61,-974.93 1852.27,-960.44"/>
<polygon fill="#d9d9d9" stroke="#d9d9d9" points="1854.73,-962.93 1859.38,-953.41 1849.8,-957.96 1854.73,-962.93"/>
</g>
<!-- mechanical_access -->
<g id="node6" class="node">
<title>mechanical_access</title>
<path fill="#280060" stroke="#d9d9d9" d="M564.5,-1042C564.5,-1042 457.5,-1042 457.5,-1042 451.5,-1042 445.5,-1036 445.5,-1030 445.5,-1030 445.5,-1018 445.5,-1018 445.5,-1012 451.5,-1006 457.5,-1006 457.5,-1006 564.5,-1006 564.5,-1006 570.5,-1006 576.5,-1012 576.5,-1018 576.5,-1018 576.5,-1030 576.5,-1030 576.5,-1036 570.5,-1042 564.5,-1042"/>
<text text-anchor="middle" x="511" y="-1020.3" font-family="Helvetica,sans-Serif" font-size="14.00" fill="#e5e5e5">Open the big gear</text>
</g>
<!-- mechanical_entered -->
<g id="node35" class="node">
<title>mechanical_entered</title>
<path fill="none" stroke="#d9d9d9" d="M494,-952C494,-952 336,-952 336,-952 330,-952 324,-946 324,-940 324,-940 324,-928 324,-928 324,-922 330,-916 336,-916 336,-916 494,-916 494,-916 500,-916 506,-922 506,-928 506,-928 506,-940 506,-940 506,-946 500,-952 494,-952"/>
<text text-anchor="middle" x="415" y="-930.3" font-family="Helvetica,sans-Serif" font-size="14.00" fill="#e5e5e5">Enter the Mechanical Age</text>
</g>
<!-- mechanical_access&#45;&gt;mechanical_entered -->
<g id="edge34" class="edge">
<title>mechanical_access&#45;&gt;mechanical_entered</title>
<path fill="none" stroke="#d9d9d9" d="M492.03,-1005.61C477.83,-992.6 458.2,-974.6 442.31,-960.04"/>
<polygon fill="#d9d9d9" stroke="#d9d9d9" points="444.78,-957.55 435.04,-953.37 440.05,-962.71 444.78,-957.55"/>
</g>
<!-- selenetic_access -->
<g id="node7" class="node">
<title>selenetic_access</title>
<path fill="none" stroke="#d9d9d9" d="M1019,-1042C1019,-1042 801,-1042 801,-1042 795,-1042 789,-1036 789,-1030 789,-1030 789,-1018 789,-1018 789,-1012 795,-1006 801,-1006 801,-1006 1019,-1006 1019,-1006 1025,-1006 1031,-1012 1031,-1018 1031,-1018 1031,-1030 1031,-1030 1031,-1036 1025,-1042 1019,-1042"/>
<text text-anchor="middle" x="910" y="-1020.3" font-family="Helvetica,sans-Serif" font-size="14.00" fill="#e5e5e5">Book appears on spaceship screen</text>
</g>
<!-- selenetic_entered -->
<g id="node28" class="node">
<title>selenetic_entered</title>
<path fill="none" stroke="#d9d9d9" d="M979.5,-952C979.5,-952 836.5,-952 836.5,-952 830.5,-952 824.5,-946 824.5,-940 824.5,-940 824.5,-928 824.5,-928 824.5,-922 830.5,-916 836.5,-916 836.5,-916 979.5,-916 979.5,-916 985.5,-916 991.5,-922 991.5,-928 991.5,-928 991.5,-940 991.5,-940 991.5,-946 985.5,-952 979.5,-952"/>
<text text-anchor="middle" x="908" y="-930.3" font-family="Helvetica,sans-Serif" font-size="14.00" fill="#e5e5e5">Enter the Selenetic age</text>
</g>
<!-- selenetic_access&#45;&gt;selenetic_entered -->
<g id="edge48" class="edge">
<title>selenetic_access&#45;&gt;selenetic_entered</title>
<path fill="none" stroke="#d9d9d9" d="M909.6,-1005.61C909.33,-993.68 908.97,-977.57 908.65,-963.74"/>
<polygon fill="#d9d9d9" stroke="#d9d9d9" points="912.16,-963.78 908.43,-953.86 905.16,-963.94 912.16,-963.78"/>
</g>
<!-- channelwood_access -->
<g id="node8" class="node">
<title>channelwood_access</title>
<path fill="#280060" stroke="#d9d9d9" d="M1319.5,-1042C1319.5,-1042 1102.5,-1042 1102.5,-1042 1096.5,-1042 1090.5,-1036 1090.5,-1030 1090.5,-1030 1090.5,-1018 1090.5,-1018 1090.5,-1012 1096.5,-1006 1102.5,-1006 1102.5,-1006 1319.5,-1006 1319.5,-1006 1325.5,-1006 1331.5,-1012 1331.5,-1018 1331.5,-1018 1331.5,-1030 1331.5,-1030 1331.5,-1036 1325.5,-1042 1319.5,-1042"/>
<text text-anchor="middle" x="1211" y="-1020.3" font-family="Helvetica,sans-Serif" font-size="14.00" fill="#e5e5e5">Find secret room under the big tree</text>
</g>
<!-- channelwood_entered -->
<g id="node54" class="node">
<title>channelwood_entered</title>
<path fill="none" stroke="#d9d9d9" d="M1270.5,-952C1270.5,-952 1151.5,-952 1151.5,-952 1145.5,-952 1139.5,-946 1139.5,-940 1139.5,-940 1139.5,-928 1139.5,-928 1139.5,-922 1145.5,-916 1151.5,-916 1151.5,-916 1270.5,-916 1270.5,-916 1276.5,-916 1282.5,-922 1282.5,-928 1282.5,-928 1282.5,-940 1282.5,-940 1282.5,-946 1276.5,-952 1270.5,-952"/>
<text text-anchor="middle" x="1211" y="-930.3" font-family="Helvetica,sans-Serif" font-size="14.00" fill="#e5e5e5">Enter Channelwood</text>
</g>
<!-- channelwood_access&#45;&gt;channelwood_entered -->
<g id="edge56" class="edge">
<title>channelwood_access&#45;&gt;channelwood_entered</title>
<path fill="none" stroke="#d9d9d9" d="M1211,-1005.61C1211,-993.68 1211,-977.57 1211,-963.74"/>
<polygon fill="#d9d9d9" stroke="#d9d9d9" points="1214.5,-963.86 1211,-953.86 1207.5,-963.86 1214.5,-963.86"/>
</g>
<!-- tower_aligned -->
<g id="node14" class="node">
<title>tower_aligned</title>
<path fill="#280060" stroke="#d9d9d9" d="M1361.5,-1406C1361.5,-1406 1166.5,-1406 1166.5,-1406 1160.5,-1406 1154.5,-1400 1154.5,-1394 1154.5,-1394 1154.5,-1382 1154.5,-1382 1154.5,-1376 1160.5,-1370 1166.5,-1370 1166.5,-1370 1361.5,-1370 1361.5,-1370 1367.5,-1370 1373.5,-1376 1373.5,-1382 1373.5,-1382 1373.5,-1394 1373.5,-1394 1373.5,-1400 1367.5,-1406 1361.5,-1406"/>
<text text-anchor="middle" x="1264" y="-1384.3" font-family="Helvetica,sans-Serif" font-size="14.00" fill="#e5e5e5">Align the tower to receive clues</text>
</g>
<!-- tower_rotation&#45;&gt;tower_aligned -->
<g id="edge10" class="edge">
<title>tower_rotation&#45;&gt;tower_aligned</title>
<path fill="none" stroke="#d9d9d9" d="M1099.82,-1460.63C1132.29,-1446.46 1178.35,-1426.37 1213.43,-1411.06"/>
<polygon fill="#d9d9d9" stroke="#d9d9d9" points="1214.78,-1414.29 1222.55,-1407.08 1211.98,-1407.88 1214.78,-1414.29"/>
</g>
<!-- tones_matched -->
<g id="node21" class="node">
<title>tones_matched</title>
<path fill="#280060" stroke="#d9d9d9" d="M1026.5,-1132C1026.5,-1132 829.5,-1132 829.5,-1132 823.5,-1132 817.5,-1126 817.5,-1120 817.5,-1120 817.5,-1108 817.5,-1108 817.5,-1102 823.5,-1096 829.5,-1096 829.5,-1096 1026.5,-1096 1026.5,-1096 1032.5,-1096 1038.5,-1102 1038.5,-1108 1038.5,-1108 1038.5,-1120 1038.5,-1120 1038.5,-1126 1032.5,-1132 1026.5,-1132"/>
<text text-anchor="middle" x="928" y="-1110.3" font-family="Helvetica,sans-Serif" font-size="14.00" fill="#e5e5e5">Perform an incredible piano solo</text>
</g>
<!-- read_books&#45;&gt;tones_matched -->
<g id="edge46" class="edge">
<title>read_books&#45;&gt;tones_matched</title>
<path fill="none" stroke="#d9d9d9" d="M1502.33,-1288.2C1418.85,-1278.48 1282.94,-1258.75 1170,-1224 1097.12,-1201.57 1017.34,-1162.59 970.03,-1137.83"/>
<polygon fill="#d9d9d9" stroke="#d9d9d9" points="971.69,-1134.75 961.21,-1133.18 968.42,-1140.94 971.69,-1134.75"/>
</g>
<!-- star_constellation_mapping -->
<g id="node25" class="node">
<title>star_constellation_mapping</title>
<path fill="none" stroke="#d9d9d9" d="M1650,-1224C1650,-1224 1510,-1224 1510,-1224 1504,-1224 1498,-1218 1498,-1212 1498,-1212 1498,-1198 1498,-1198 1498,-1192 1504,-1186 1510,-1186 1510,-1186 1650,-1186 1650,-1186 1656,-1186 1662,-1192 1662,-1198 1662,-1198 1662,-1212 1662,-1212 1662,-1218 1656,-1224 1650,-1224"/>
<text text-anchor="middle" x="1580" y="-1208.8" font-family="Helvetica,sans-Serif" font-size="14.00" fill="#e5e5e5">Learn star/constellation</text>
<text text-anchor="middle" x="1580" y="-1193.8" font-family="Helvetica,sans-Serif" font-size="14.00" fill="#e5e5e5">mapping from book</text>
</g>
<!-- read_books&#45;&gt;star_constellation_mapping -->
<g id="edge17" class="edge">
<title>read_books&#45;&gt;star_constellation_mapping</title>
<path fill="none" stroke="#d9d9d9" d="M1580,-1277.79C1580,-1265.79 1580,-1249.8 1580,-1235.95"/>
<polygon fill="#d9d9d9" stroke="#d9d9d9" points="1583.5,-1236.01 1580,-1226.01 1576.5,-1236.01 1583.5,-1236.01"/>
</g>
<!-- channelwood_door_opened -->
<g id="node59" class="node">
<title>channelwood_door_opened</title>
<path fill="#280060" stroke="#d9d9d9" d="M1526,-678C1526,-678 1366,-678 1366,-678 1360,-678 1354,-672 1354,-666 1354,-666 1354,-652 1354,-652 1354,-646 1360,-640 1366,-640 1366,-640 1526,-640 1526,-640 1532,-640 1538,-646 1538,-652 1538,-652 1538,-666 1538,-666 1538,-672 1532,-678 1526,-678"/>
<text text-anchor="middle" x="1446" y="-662.8" font-family="Helvetica,sans-Serif" font-size="14.00" fill="#e5e5e5">Pull the well&#45;hidden lever</text>
<text text-anchor="middle" x="1446" y="-647.8" font-family="Helvetica,sans-Serif" font-size="14.00" fill="#e5e5e5">to open the staircase door</text>
</g>
<!-- read_books&#45;&gt;channelwood_door_opened -->
<g id="edge3" class="edge">
<title>read_books&#45;&gt;channelwood_door_opened</title>
<g id="a_edge3"><a xlink:title="You can find the lever via dumb luck">
<path fill="none" stroke="#d9d9d9" stroke-dasharray="5,2" d="M1554.65,-1277.76C1508.11,-1243.62 1412.4,-1170.07 1397,-1132 1391,-1117.17 1394.85,-1111.86 1397,-1096 1417.18,-947.05 1466.82,-918.95 1487,-770 1489.27,-753.26 1491.32,-748.33 1487,-732 1482.87,-716.42 1474.51,-700.68 1466.4,-687.92"/>
<polygon fill="#d9d9d9" stroke="#d9d9d9" points="1469.34,-686.01 1460.88,-679.63 1463.51,-689.89 1469.34,-686.01"/>
</a>
</g>
</g>
<!-- basic_marker_switches&#45;&gt;tower_aligned -->
<g id="edge11" class="edge">
<title>basic_marker_switches&#45;&gt;tower_aligned</title>
<path fill="none" stroke="#d9d9d9" d="M1430.6,-1460.63C1397.51,-1446.4 1350.5,-1426.19 1314.85,-1410.87"/>
<polygon fill="#d9d9d9" stroke="#d9d9d9" points="1316.61,-1407.81 1306.04,-1407.08 1313.85,-1414.24 1316.61,-1407.81"/>
</g>
<!-- all_marker_switches -->
<g id="node19" class="node">
<title>all_marker_switches</title>
<path fill="none" stroke="#d9d9d9" d="M2053,-1042C2053,-1042 1881,-1042 1881,-1042 1875,-1042 1869,-1036 1869,-1030 1869,-1030 1869,-1018 1869,-1018 1869,-1012 1875,-1006 1881,-1006 1881,-1006 2053,-1006 2053,-1006 2059,-1006 2065,-1012 2065,-1018 2065,-1018 2065,-1030 2065,-1030 2065,-1036 2059,-1042 2053,-1042"/>
<text text-anchor="middle" x="1967" y="-1020.3" font-family="Helvetica,sans-Serif" font-size="14.00" fill="#e5e5e5">All marker switches enabled</text>
</g>
<!-- basic_marker_switches&#45;&gt;all_marker_switches -->
<g id="edge88" class="edge">
<title>basic_marker_switches&#45;&gt;all_marker_switches</title>
<path fill="none" stroke="#d9d9d9" d="M1579.89,-1460.65C1724.8,-1434.43 1963,-1379.01 1963,-1298 1963,-1298 1963,-1298 1963,-1204 1963,-1150.89 1964.78,-1088.94 1965.97,-1053.61"/>
<polygon fill="#d9d9d9" stroke="#d9d9d9" points="1969.46,-1053.9 1966.31,-1043.79 1962.46,-1053.66 1969.46,-1053.9"/>
</g>
<!-- voltage_set -->
<g id="node20" class="node">
<title>voltage_set</title>
<path fill="#280060" stroke="#d9d9d9" d="M1021.5,-1224C1021.5,-1224 872.5,-1224 872.5,-1224 866.5,-1224 860.5,-1218 860.5,-1212 860.5,-1212 860.5,-1198 860.5,-1198 860.5,-1192 866.5,-1186 872.5,-1186 872.5,-1186 1021.5,-1186 1021.5,-1186 1027.5,-1186 1033.5,-1192 1033.5,-1198 1033.5,-1198 1033.5,-1212 1033.5,-1212 1033.5,-1218 1027.5,-1224 1021.5,-1224"/>
<text text-anchor="middle" x="947" y="-1208.8" font-family="Helvetica,sans-Serif" font-size="14.00" fill="#e5e5e5">Perform math to achieve</text>
<text text-anchor="middle" x="947" y="-1193.8" font-family="Helvetica,sans-Serif" font-size="14.00" fill="#e5e5e5">the perfect voltage</text>
</g>
<!-- breaker_switches&#45;&gt;voltage_set -->
<g id="edge1" class="edge">
<title>breaker_switches&#45;&gt;voltage_set</title>
<g id="a_edge1"><a xlink:title="If you never fail you don&#39;t need to reset">
<path fill="none" stroke="#d9d9d9" stroke-dasharray="5,2" d="M842.52,-1459.73C861.61,-1413.37 912.05,-1290.89 935.14,-1234.79"/>
<polygon fill="#d9d9d9" stroke="#d9d9d9" points="938.36,-1236.17 938.93,-1225.59 931.89,-1233.5 938.36,-1236.17"/>
</a>
</g>
</g>
<!-- tower_access&#45;&gt;tower_aligned -->
<g id="edge9" class="edge">
<title>tower_access&#45;&gt;tower_aligned</title>
<path fill="none" stroke="#d9d9d9" d="M1264,-1459.56C1264,-1447.43 1264,-1431.31 1264,-1417.55"/>
<polygon fill="#d9d9d9" stroke="#d9d9d9" points="1267.5,-1417.72 1264,-1407.72 1260.5,-1417.72 1267.5,-1417.72"/>
</g>
<!-- stoneship_clue -->
<g id="node15" class="node">
<title>stoneship_clue</title>
<path fill="none" stroke="#d9d9d9" d="M1813.5,-1315C1813.5,-1315 1726.5,-1315 1726.5,-1315 1720.5,-1315 1714.5,-1309 1714.5,-1303 1714.5,-1303 1714.5,-1291 1714.5,-1291 1714.5,-1285 1720.5,-1279 1726.5,-1279 1726.5,-1279 1813.5,-1279 1813.5,-1279 1819.5,-1279 1825.5,-1285 1825.5,-1291 1825.5,-1291 1825.5,-1303 1825.5,-1303 1825.5,-1309 1819.5,-1315 1813.5,-1315"/>
<text text-anchor="middle" x="1770" y="-1293.3" font-family="Helvetica,sans-Serif" font-size="14.00" fill="#e5e5e5">Stoneship clue</text>
</g>
<!-- tower_aligned&#45;&gt;stoneship_clue -->
<g id="edge12" class="edge">
<title>tower_aligned&#45;&gt;stoneship_clue</title>
<path fill="none" stroke="#d9d9d9" d="M1364.55,-1369.56C1446.73,-1355.27 1565.9,-1334.47 1670,-1316 1680.64,-1314.11 1691.9,-1312.1 1702.89,-1310.13"/>
<polygon fill="#d9d9d9" stroke="#d9d9d9" points="1703.5,-1313.57 1712.72,-1308.36 1702.26,-1306.68 1703.5,-1313.57"/>
</g>
<!-- mechanical_clue -->
<g id="node16" class="node">
<title>mechanical_clue</title>
<path fill="none" stroke="#d9d9d9" d="M1348.5,-1315C1348.5,-1315 1253.5,-1315 1253.5,-1315 1247.5,-1315 1241.5,-1309 1241.5,-1303 1241.5,-1303 1241.5,-1291 1241.5,-1291 1241.5,-1285 1247.5,-1279 1253.5,-1279 1253.5,-1279 1348.5,-1279 1348.5,-1279 1354.5,-1279 1360.5,-1285 1360.5,-1291 1360.5,-1291 1360.5,-1303 1360.5,-1303 1360.5,-1309 1354.5,-1315 1348.5,-1315"/>
<text text-anchor="middle" x="1301" y="-1293.3" font-family="Helvetica,sans-Serif" font-size="14.00" fill="#e5e5e5">Mechanical clue</text>
</g>
<!-- tower_aligned&#45;&gt;mechanical_clue -->
<g id="edge13" class="edge">
<title>tower_aligned&#45;&gt;mechanical_clue</title>
<path fill="none" stroke="#d9d9d9" d="M1271.13,-1369.84C1276.32,-1357.36 1283.46,-1340.2 1289.45,-1325.78"/>
<polygon fill="#d9d9d9" stroke="#d9d9d9" points="1292.57,-1327.39 1293.18,-1316.81 1286.11,-1324.7 1292.57,-1327.39"/>
</g>
<!-- selenetic_clue -->
<g id="node17" class="node">
<title>selenetic_clue</title>
<path fill="none" stroke="#d9d9d9" d="M1031.5,-1315C1031.5,-1315 948.5,-1315 948.5,-1315 942.5,-1315 936.5,-1309 936.5,-1303 936.5,-1303 936.5,-1291 936.5,-1291 936.5,-1285 942.5,-1279 948.5,-1279 948.5,-1279 1031.5,-1279 1031.5,-1279 1037.5,-1279 1043.5,-1285 1043.5,-1291 1043.5,-1291 1043.5,-1303 1043.5,-1303 1043.5,-1309 1037.5,-1315 1031.5,-1315"/>
<text text-anchor="middle" x="990" y="-1293.3" font-family="Helvetica,sans-Serif" font-size="14.00" fill="#e5e5e5">Selenetic clue</text>
</g>
<!-- tower_aligned&#45;&gt;selenetic_clue -->
<g id="edge14" class="edge">
<title>tower_aligned&#45;&gt;selenetic_clue</title>
<path fill="none" stroke="#d9d9d9" d="M1210.19,-1369.52C1165.52,-1355.01 1101.84,-1334.33 1054.45,-1318.93"/>
<polygon fill="#d9d9d9" stroke="#d9d9d9" points="1055.72,-1315.67 1045.12,-1315.9 1053.55,-1322.32 1055.72,-1315.67"/>
</g>
<!-- channelwood_clue -->
<g id="node18" class="node">
<title>channelwood_clue</title>
<path fill="none" stroke="#d9d9d9" d="M1201,-1315C1201,-1315 1091,-1315 1091,-1315 1085,-1315 1079,-1309 1079,-1303 1079,-1303 1079,-1291 1079,-1291 1079,-1285 1085,-1279 1091,-1279 1091,-1279 1201,-1279 1201,-1279 1207,-1279 1213,-1285 1213,-1291 1213,-1291 1213,-1303 1213,-1303 1213,-1309 1207,-1315 1201,-1315"/>
<text text-anchor="middle" x="1146" y="-1293.3" font-family="Helvetica,sans-Serif" font-size="14.00" fill="#e5e5e5">Channelwood clue</text>
</g>
<!-- tower_aligned&#45;&gt;channelwood_clue -->
<g id="edge15" class="edge">
<title>tower_aligned&#45;&gt;channelwood_clue</title>
<path fill="none" stroke="#d9d9d9" d="M1240.97,-1369.63C1223.02,-1356.09 1197.89,-1337.14 1177.99,-1322.13"/>
<polygon fill="#d9d9d9" stroke="#d9d9d9" points="1180.27,-1319.47 1170.18,-1316.24 1176.06,-1325.05 1180.27,-1319.47"/>
</g>
<!-- date_star_mapping -->
<g id="node24" class="node">
<title>date_star_mapping</title>
<path fill="none" stroke="#d9d9d9" d="M1904.5,-1223C1904.5,-1223 1699.5,-1223 1699.5,-1223 1693.5,-1223 1687.5,-1217 1687.5,-1211 1687.5,-1211 1687.5,-1199 1687.5,-1199 1687.5,-1193 1693.5,-1187 1699.5,-1187 1699.5,-1187 1904.5,-1187 1904.5,-1187 1910.5,-1187 1916.5,-1193 1916.5,-1199 1916.5,-1199 1916.5,-1211 1916.5,-1211 1916.5,-1217 1910.5,-1223 1904.5,-1223"/>
<text text-anchor="middle" x="1802" y="-1201.3" font-family="Helvetica,sans-Serif" font-size="14.00" fill="#e5e5e5">Use the spooky chair to get stars</text>
</g>
<!-- stoneship_clue&#45;&gt;date_star_mapping -->
<g id="edge16" class="edge">
<title>stoneship_clue&#45;&gt;date_star_mapping</title>
<path fill="none" stroke="#d9d9d9" d="M1776.17,-1278.65C1780.69,-1265.95 1786.91,-1248.45 1792.11,-1233.81"/>
<polygon fill="#d9d9d9" stroke="#d9d9d9" points="1795.29,-1235.32 1795.34,-1224.73 1788.69,-1232.98 1795.29,-1235.32"/>
</g>
<!-- clocktower_bridge_raised -->
<g id="node22" class="node">
<title>clocktower_bridge_raised</title>
<path fill="#280060" stroke="#d9d9d9" d="M1409.5,-1223C1409.5,-1223 1194.5,-1223 1194.5,-1223 1188.5,-1223 1182.5,-1217 1182.5,-1211 1182.5,-1211 1182.5,-1199 1182.5,-1199 1182.5,-1193 1188.5,-1187 1194.5,-1187 1194.5,-1187 1409.5,-1187 1409.5,-1187 1415.5,-1187 1421.5,-1193 1421.5,-1199 1421.5,-1199 1421.5,-1211 1421.5,-1211 1421.5,-1217 1415.5,-1223 1409.5,-1223"/>
<text text-anchor="middle" x="1302" y="-1201.3" font-family="Helvetica,sans-Serif" font-size="14.00" fill="#e5e5e5">Raise the bridge to the clock tower</text>
</g>
<!-- mechanical_clue&#45;&gt;clocktower_bridge_raised -->
<g id="edge31" class="edge">
<title>mechanical_clue&#45;&gt;clocktower_bridge_raised</title>
<path fill="none" stroke="#d9d9d9" d="M1301.19,-1278.65C1301.33,-1266.2 1301.52,-1249.14 1301.68,-1234.68"/>
<polygon fill="#d9d9d9" stroke="#d9d9d9" points="1305.18,-1234.85 1301.79,-1224.81 1298.18,-1234.77 1305.18,-1234.85"/>
</g>
<!-- selenetic_clue&#45;&gt;voltage_set -->
<g id="edge44" class="edge">
<title>selenetic_clue&#45;&gt;voltage_set</title>
<path fill="none" stroke="#d9d9d9" d="M981.71,-1278.65C975.7,-1266.07 967.44,-1248.79 960.49,-1234.23"/>
<polygon fill="#d9d9d9" stroke="#d9d9d9" points="963.83,-1233.11 956.36,-1225.59 957.51,-1236.12 963.83,-1233.11"/>
</g>
<!-- furnace_manipulation -->
<g id="node27" class="node">
<title>furnace_manipulation</title>
<path fill="none" stroke="#d9d9d9" d="M1295,-1132C1295,-1132 1127,-1132 1127,-1132 1121,-1132 1115,-1126 1115,-1120 1115,-1120 1115,-1108 1115,-1108 1115,-1102 1121,-1096 1127,-1096 1127,-1096 1295,-1096 1295,-1096 1301,-1096 1307,-1102 1307,-1108 1307,-1108 1307,-1120 1307,-1120 1307,-1126 1301,-1132 1295,-1132"/>
<text text-anchor="middle" x="1211" y="-1110.3" font-family="Helvetica,sans-Serif" font-size="14.00" fill="#e5e5e5">Get matches. Light furnace.</text>
</g>
<!-- channelwood_clue&#45;&gt;furnace_manipulation -->
<g id="edge54" class="edge">
<title>channelwood_clue&#45;&gt;furnace_manipulation</title>
<path fill="none" stroke="#d9d9d9" d="M1148.08,-1278.75C1151.13,-1256.68 1157.8,-1217.54 1170,-1186 1175.92,-1170.71 1184.81,-1154.8 1192.81,-1141.93"/>
<polygon fill="#d9d9d9" stroke="#d9d9d9" points="1195.69,-1143.91 1198.13,-1133.6 1189.8,-1140.14 1195.69,-1143.91"/>
</g>
<!-- white_page_obtained -->
<g id="node67" class="node">
<title>white_page_obtained</title>
<path fill="none" stroke="#d9d9d9" d="M1740.5,-128C1740.5,-128 1607.5,-128 1607.5,-128 1601.5,-128 1595.5,-122 1595.5,-116 1595.5,-116 1595.5,-104 1595.5,-104 1595.5,-98 1601.5,-92 1607.5,-92 1607.5,-92 1740.5,-92 1740.5,-92 1746.5,-92 1752.5,-98 1752.5,-104 1752.5,-104 1752.5,-116 1752.5,-116 1752.5,-122 1746.5,-128 1740.5,-128"/>
<text text-anchor="middle" x="1674" y="-106.3" font-family="Helvetica,sans-Serif" font-size="14.00" fill="#e5e5e5">Obtain the white page</text>
</g>
<!-- all_marker_switches&#45;&gt;white_page_obtained -->
<g id="edge89" class="edge">
<title>all_marker_switches&#45;&gt;white_page_obtained</title>
<path fill="none" stroke="#d9d9d9" d="M2060.25,-1005.52C2070.14,-1002.17 2078.04,-998.33 2082,-994 2127.58,-944.2 2106,-911.51 2106,-844 2106,-844 2106,-844 2106,-292 2106,-218.54 1890.83,-158.62 1764.2,-129.71"/>
<polygon fill="#d9d9d9" stroke="#d9d9d9" points="1764.99,-126.3 1754.46,-127.51 1763.44,-133.13 1764.99,-126.3"/>
</g>
<!-- voltage_set&#45;&gt;tones_matched -->
<g id="edge45" class="edge">
<title>voltage_set&#45;&gt;tones_matched</title>
<path fill="none" stroke="#d9d9d9" d="M943.06,-1185.56C940.45,-1173.31 936.96,-1156.99 934,-1143.13"/>
<polygon fill="#d9d9d9" stroke="#d9d9d9" points="937.5,-1142.74 931.99,-1133.69 930.65,-1144.2 937.5,-1142.74"/>
</g>
<!-- tones_matched&#45;&gt;selenetic_access -->
<g id="edge47" class="edge">
<title>tones_matched&#45;&gt;selenetic_access</title>
<path fill="none" stroke="#d9d9d9" d="M924.44,-1095.61C921.98,-1083.56 918.64,-1067.24 915.79,-1053.33"/>
<polygon fill="#d9d9d9" stroke="#d9d9d9" points="919.29,-1052.93 913.85,-1043.83 912.43,-1054.33 919.29,-1052.93"/>
</g>
<!-- clocktower_bridge_raised&#45;&gt;mechanical_access -->
<g id="edge33" class="edge">
<title>clocktower_bridge_raised&#45;&gt;mechanical_access</title>
<path fill="none" stroke="#d9d9d9" d="M1241.53,-1186.61C1201.18,-1173.94 1147.57,-1155 1103,-1132 1078.02,-1119.11 1077.23,-1106.12 1051,-1096 968.15,-1064.04 716.17,-1040.76 587.85,-1030.62"/>
<polygon fill="#d9d9d9" stroke="#d9d9d9" points="588.33,-1027.15 578.09,-1029.86 587.79,-1034.13 588.33,-1027.15"/>
</g>
<!-- clocktower_marker_switch -->
<g id="node23" class="node">
<title>clocktower_marker_switch</title>
<path fill="none" stroke="#d9d9d9" d="M1651,-1132C1651,-1132 1421,-1132 1421,-1132 1415,-1132 1409,-1126 1409,-1120 1409,-1120 1409,-1108 1409,-1108 1409,-1102 1415,-1096 1421,-1096 1421,-1096 1651,-1096 1651,-1096 1657,-1096 1663,-1102 1663,-1108 1663,-1108 1663,-1120 1663,-1120 1663,-1126 1657,-1132 1651,-1132"/>
<text text-anchor="middle" x="1536" y="-1110.3" font-family="Helvetica,sans-Serif" font-size="14.00" fill="#e5e5e5">Enable the clock tower marker switch</text>
</g>
<!-- clocktower_bridge_raised&#45;&gt;clocktower_marker_switch -->
<g id="edge32" class="edge">
<title>clocktower_bridge_raised&#45;&gt;clocktower_marker_switch</title>
<path fill="none" stroke="#d9d9d9" d="M1347.95,-1186.52C1385.63,-1172.19 1439.12,-1151.85 1479.42,-1136.52"/>
<polygon fill="#d9d9d9" stroke="#d9d9d9" points="1480.64,-1139.8 1488.74,-1132.98 1478.15,-1133.26 1480.64,-1139.8"/>
</g>
<!-- clocktower_marker_switch&#45;&gt;all_marker_switches -->
<g id="edge87" class="edge">
<title>clocktower_marker_switch&#45;&gt;all_marker_switches</title>
<path fill="none" stroke="#d9d9d9" d="M1621.67,-1095.51C1693.35,-1080.87 1795.6,-1060 1870.23,-1044.76"/>
<polygon fill="#d9d9d9" stroke="#d9d9d9" points="1870.91,-1048.19 1880.01,-1042.76 1869.51,-1041.33 1870.91,-1048.19"/>
</g>
<!-- constellation_known -->
<g id="node26" class="node">
<title>constellation_known</title>
<path fill="#280060" stroke="#d9d9d9" d="M1874,-1132C1874,-1132 1704,-1132 1704,-1132 1698,-1132 1692,-1126 1692,-1120 1692,-1120 1692,-1108 1692,-1108 1692,-1102 1698,-1096 1704,-1096 1704,-1096 1874,-1096 1874,-1096 1880,-1096 1886,-1102 1886,-1108 1886,-1108 1886,-1120 1886,-1120 1886,-1126 1880,-1132 1874,-1132"/>
<text text-anchor="middle" x="1789" y="-1110.3" font-family="Helvetica,sans-Serif" font-size="14.00" fill="#e5e5e5">Double mapping code entry</text>
</g>
<!-- date_star_mapping&#45;&gt;constellation_known -->
<g id="edge19" class="edge">
<title>date_star_mapping&#45;&gt;constellation_known</title>
<path fill="none" stroke="#d9d9d9" d="M1799.49,-1186.84C1797.71,-1174.61 1795.26,-1157.87 1793.18,-1143.63"/>
<polygon fill="#d9d9d9" stroke="#d9d9d9" points="1796.67,-1143.3 1791.76,-1133.91 1789.74,-1144.31 1796.67,-1143.3"/>
</g>
<!-- star_constellation_mapping&#45;&gt;constellation_known -->
<g id="edge18" class="edge">
<title>star_constellation_mapping&#45;&gt;constellation_known</title>
<path fill="none" stroke="#d9d9d9" d="M1623.3,-1185.56C1656.57,-1171.39 1702.61,-1151.79 1737.72,-1136.84"/>
<polygon fill="#d9d9d9" stroke="#d9d9d9" points="1739.01,-1140.09 1746.84,-1132.95 1736.27,-1133.65 1739.01,-1140.09"/>
</g>
<!-- constellation_known&#45;&gt;stoneship_access -->
<g id="edge20" class="edge">
<title>constellation_known&#45;&gt;stoneship_access</title>
<path fill="none" stroke="#d9d9d9" d="M1789,-1095.61C1789,-1083.68 1789,-1067.57 1789,-1053.74"/>
<polygon fill="#d9d9d9" stroke="#d9d9d9" points="1792.5,-1053.86 1789,-1043.86 1785.5,-1053.86 1792.5,-1053.86"/>
</g>
<!-- furnace_manipulation&#45;&gt;channelwood_access -->
<g id="edge55" class="edge">
<title>furnace_manipulation&#45;&gt;channelwood_access</title>
<path fill="none" stroke="#d9d9d9" d="M1211,-1095.61C1211,-1083.68 1211,-1067.57 1211,-1053.74"/>
<polygon fill="#d9d9d9" stroke="#d9d9d9" points="1214.5,-1053.86 1211,-1043.86 1207.5,-1053.86 1214.5,-1053.86"/>
</g>
<!-- selenetic_page_found -->
<g id="node29" class="node">
<title>selenetic_page_found</title>
<path fill="none" stroke="#d9d9d9" d="M979.5,-586C979.5,-586 852.5,-586 852.5,-586 846.5,-586 840.5,-580 840.5,-574 840.5,-574 840.5,-560 840.5,-560 840.5,-554 846.5,-548 852.5,-548 852.5,-548 979.5,-548 979.5,-548 985.5,-548 991.5,-554 991.5,-560 991.5,-560 991.5,-574 991.5,-574 991.5,-580 985.5,-586 979.5,-586"/>
<text text-anchor="middle" x="916" y="-570.8" font-family="Helvetica,sans-Serif" font-size="14.00" fill="#e5e5e5">Find a page just lying</text>
<text text-anchor="middle" x="916" y="-555.8" font-family="Helvetica,sans-Serif" font-size="14.00" fill="#e5e5e5">around the outdoors</text>
</g>
<!-- selenetic_entered&#45;&gt;selenetic_page_found -->
<g id="edge49" class="edge">
<title>selenetic_entered&#45;&gt;selenetic_page_found</title>
<path fill="none" stroke="#d9d9d9" d="M908.38,-915.88C909.64,-858.21 913.75,-670.5 915.35,-597.46"/>
<polygon fill="#d9d9d9" stroke="#d9d9d9" points="918.84,-597.95 915.56,-587.88 911.85,-597.8 918.84,-597.95"/>
</g>
<!-- activate_microphones -->
<g id="node30" class="node">
<title>activate_microphones</title>
<path fill="#280060" stroke="#d9d9d9" d="M855,-862C855,-862 753,-862 753,-862 747,-862 741,-856 741,-850 741,-850 741,-836 741,-836 741,-830 747,-824 753,-824 753,-824 855,-824 855,-824 861,-824 867,-830 867,-836 867,-836 867,-850 867,-850 867,-856 861,-862 855,-862"/>
<text text-anchor="middle" x="804" y="-846.8" font-family="Helvetica,sans-Serif" font-size="14.00" fill="#e5e5e5">Find and activate</text>
<text text-anchor="middle" x="804" y="-831.8" font-family="Helvetica,sans-Serif" font-size="14.00" fill="#e5e5e5">five microphones</text>
</g>
<!-- selenetic_entered&#45;&gt;activate_microphones -->
<g id="edge50" class="edge">
<title>selenetic_entered&#45;&gt;activate_microphones</title>
<path fill="none" stroke="#d9d9d9" d="M887.95,-915.84C872.67,-902.76 851.38,-884.54 834.06,-869.73"/>
<polygon fill="#d9d9d9" stroke="#d9d9d9" points="836.45,-867.16 826.57,-863.32 831.89,-872.48 836.45,-867.16"/>
</g>
<!-- selenetic_complete -->
<g id="node34" class="node">
<title>selenetic_complete</title>
<path fill="none" stroke="#d9d9d9" d="M980,-493C980,-493 828,-493 828,-493 822,-493 816,-487 816,-481 816,-481 816,-469 816,-469 816,-463 822,-457 828,-457 828,-457 980,-457 980,-457 986,-457 992,-463 992,-469 992,-469 992,-481 992,-481 992,-487 986,-493 980,-493"/>
<text text-anchor="middle" x="904" y="-471.3" font-family="Helvetica,sans-Serif" font-size="14.00" fill="#e5e5e5">Selenetic age completed</text>
</g>
<!-- selenetic_page_found&#45;&gt;selenetic_complete -->
<g id="edge71" class="edge">
<title>selenetic_page_found&#45;&gt;selenetic_complete</title>
<path fill="none" stroke="#d9d9d9" d="M913.57,-547.79C911.91,-535.35 909.68,-518.61 907.79,-504.43"/>
<polygon fill="#d9d9d9" stroke="#d9d9d9" points="911.29,-504.22 906.5,-494.77 904.36,-505.14 911.29,-504.22"/>
</g>
<!-- align_microphones -->
<g id="node31" class="node">
<title>align_microphones</title>
<path fill="none" stroke="#d9d9d9" d="M860.5,-769C860.5,-769 683.5,-769 683.5,-769 677.5,-769 671.5,-763 671.5,-757 671.5,-757 671.5,-745 671.5,-745 671.5,-739 677.5,-733 683.5,-733 683.5,-733 860.5,-733 860.5,-733 866.5,-733 872.5,-739 872.5,-745 872.5,-745 872.5,-757 872.5,-757 872.5,-763 866.5,-769 860.5,-769"/>
<text text-anchor="middle" x="772" y="-747.3" font-family="Helvetica,sans-Serif" font-size="14.00" fill="#e5e5e5">Find the microphone controls</text>
</g>
<!-- activate_microphones&#45;&gt;align_microphones -->
<g id="edge51" class="edge">
<title>activate_microphones&#45;&gt;align_microphones</title>
<path fill="none" stroke="#d9d9d9" d="M797.52,-823.79C793.06,-811.22 787.03,-794.28 781.96,-780.01"/>
<polygon fill="#d9d9d9" stroke="#d9d9d9" points="785.3,-778.95 778.65,-770.7 778.7,-781.29 785.3,-778.95"/>
</g>
<!-- door_code -->
<g id="node32" class="node">
<title>door_code</title>
<path fill="#280060" stroke="#d9d9d9" d="M829,-677C829,-677 707,-677 707,-677 701,-677 695,-671 695,-665 695,-665 695,-653 695,-653 695,-647 701,-641 707,-641 707,-641 829,-641 829,-641 835,-641 841,-647 841,-653 841,-653 841,-665 841,-665 841,-671 835,-677 829,-677"/>
<text text-anchor="middle" x="768" y="-655.3" font-family="Helvetica,sans-Serif" font-size="14.00" fill="#e5e5e5">Learn the door code</text>
</g>
<!-- align_microphones&#45;&gt;door_code -->
<g id="edge52" class="edge">
<title>align_microphones&#45;&gt;door_code</title>
<path fill="none" stroke="#d9d9d9" d="M771.23,-732.65C770.68,-720.2 769.92,-703.14 769.27,-688.68"/>
<polygon fill="#d9d9d9" stroke="#d9d9d9" points="772.78,-688.65 768.84,-678.81 765.78,-688.96 772.78,-688.65"/>
</g>
<!-- selenetic_exit_unlocked -->
<g id="node33" class="node">
<title>selenetic_exit_unlocked</title>
<path fill="#280060" stroke="#d9d9d9" d="M803.5,-585C803.5,-585 646.5,-585 646.5,-585 640.5,-585 634.5,-579 634.5,-573 634.5,-573 634.5,-561 634.5,-561 634.5,-555 640.5,-549 646.5,-549 646.5,-549 803.5,-549 803.5,-549 809.5,-549 815.5,-555 815.5,-561 815.5,-561 815.5,-573 815.5,-573 815.5,-579 809.5,-585 803.5,-585"/>
<text text-anchor="middle" x="725" y="-563.3" font-family="Helvetica,sans-Serif" font-size="14.00" fill="#e5e5e5">Navigate the Fucko Maze</text>
</g>
<!-- door_code&#45;&gt;selenetic_exit_unlocked -->
<g id="edge53" class="edge">
<title>door_code&#45;&gt;selenetic_exit_unlocked</title>
<path fill="none" stroke="#d9d9d9" d="M759.71,-640.65C753.58,-627.82 745.12,-610.11 738.08,-595.38"/>
<polygon fill="#d9d9d9" stroke="#d9d9d9" points="741.39,-594.18 733.92,-586.67 735.07,-597.2 741.39,-594.18"/>
</g>
<!-- selenetic_exit_unlocked&#45;&gt;selenetic_complete -->
<g id="edge72" class="edge">
<title>selenetic_exit_unlocked&#45;&gt;selenetic_complete</title>
<path fill="none" stroke="#d9d9d9" d="M759.51,-548.65C787.9,-534.37 828.33,-514.04 859.21,-498.52"/>
<polygon fill="#d9d9d9" stroke="#d9d9d9" points="860.57,-501.75 867.94,-494.13 857.43,-495.5 860.57,-501.75"/>
</g>
<!-- learn_fireplace_page_number -->
<g id="node65" class="node">
<title>learn_fireplace_page_number</title>
<path fill="none" stroke="#d9d9d9" d="M1230.5,-312C1230.5,-312 1027.5,-312 1027.5,-312 1021.5,-312 1015.5,-306 1015.5,-300 1015.5,-300 1015.5,-286 1015.5,-286 1015.5,-280 1021.5,-274 1027.5,-274 1027.5,-274 1230.5,-274 1230.5,-274 1236.5,-274 1242.5,-280 1242.5,-286 1242.5,-286 1242.5,-300 1242.5,-300 1242.5,-306 1236.5,-312 1230.5,-312"/>
<text text-anchor="middle" x="1129" y="-296.8" font-family="Helvetica,sans-Serif" font-size="14.00" fill="#e5e5e5">Given five pages, a brother</text>
<text text-anchor="middle" x="1129" y="-281.8" font-family="Helvetica,sans-Serif" font-size="14.00" fill="#e5e5e5">tells you how to use the fireplace</text>
</g>
<!-- selenetic_complete&#45;&gt;learn_fireplace_page_number -->
<g id="edge77" class="edge">
<title>selenetic_complete&#45;&gt;learn_fireplace_page_number</title>
<path fill="none" stroke="#d9d9d9" d="M915.21,-456.76C931.8,-432.3 964.95,-387.23 1002,-358 1022.84,-341.55 1048.58,-327.63 1071.43,-317.02"/>
<polygon fill="#d9d9d9" stroke="#d9d9d9" points="1072.65,-320.31 1080.32,-313 1069.76,-313.93 1072.65,-320.31"/>
</g>
<!-- mechanical_page_found -->
<g id="node36" class="node">
<title>mechanical_page_found</title>
<path fill="#280060" stroke="#d9d9d9" d="M201.5,-861C201.5,-861 28.5,-861 28.5,-861 22.5,-861 16.5,-855 16.5,-849 16.5,-849 16.5,-837 16.5,-837 16.5,-831 22.5,-825 28.5,-825 28.5,-825 201.5,-825 201.5,-825 207.5,-825 213.5,-831 213.5,-837 213.5,-837 213.5,-849 213.5,-849 213.5,-855 207.5,-861 201.5,-861"/>
<text text-anchor="middle" x="115" y="-839.3" font-family="Helvetica,sans-Serif" font-size="14.00" fill="#e5e5e5">Find a page in a secret room</text>
</g>
<!-- mechanical_entered&#45;&gt;mechanical_page_found -->
<g id="edge35" class="edge">
<title>mechanical_entered&#45;&gt;mechanical_page_found</title>
<path fill="none" stroke="#d9d9d9" d="M356.09,-915.52C306.86,-900.92 236.57,-880.07 184.58,-864.64"/>
<polygon fill="#d9d9d9" stroke="#d9d9d9" points="185.81,-861.36 175.23,-861.87 183.82,-868.07 185.81,-861.36"/>
</g>
<!-- cardinal_sounds_learned -->
<g id="node37" class="node">
<title>cardinal_sounds_learned</title>
<path fill="#280060" stroke="#d9d9d9" d="M597.5,-862C597.5,-862 440.5,-862 440.5,-862 434.5,-862 428.5,-856 428.5,-850 428.5,-850 428.5,-836 428.5,-836 428.5,-830 434.5,-824 440.5,-824 440.5,-824 597.5,-824 597.5,-824 603.5,-824 609.5,-830 609.5,-836 609.5,-836 609.5,-850 609.5,-850 609.5,-856 603.5,-862 597.5,-862"/>
<text text-anchor="middle" x="519" y="-846.8" font-family="Helvetica,sans-Serif" font-size="14.00" fill="#e5e5e5">Learn cardinal direction</text>
<text text-anchor="middle" x="519" y="-831.8" font-family="Helvetica,sans-Serif" font-size="14.00" fill="#e5e5e5">sounds from the simulator</text>
</g>
<!-- mechanical_entered&#45;&gt;cardinal_sounds_learned -->
<g id="edge36" class="edge">
<title>mechanical_entered&#45;&gt;cardinal_sounds_learned</title>
<path fill="none" stroke="#d9d9d9" d="M435.05,-915.84C450.33,-902.76 471.62,-884.54 488.94,-869.73"/>
<polygon fill="#d9d9d9" stroke="#d9d9d9" points="491.11,-872.48 496.43,-863.32 486.55,-867.16 491.11,-872.48"/>
</g>
<!-- mechanical_controls_found -->
<g id="node38" class="node">
<title>mechanical_controls_found</title>
<path fill="#280060" stroke="#d9d9d9" d="M391,-862C391,-862 251,-862 251,-862 245,-862 239,-856 239,-850 239,-850 239,-836 239,-836 239,-830 245,-824 251,-824 251,-824 391,-824 391,-824 397,-824 403,-830 403,-836 403,-836 403,-850 403,-850 403,-856 397,-862 391,-862"/>
<text text-anchor="middle" x="321" y="-846.8" font-family="Helvetica,sans-Serif" font-size="14.00" fill="#e5e5e5">Find your way upstairs,</text>
<text text-anchor="middle" x="321" y="-831.8" font-family="Helvetica,sans-Serif" font-size="14.00" fill="#e5e5e5">and juke the elevator</text>
</g>
<!-- mechanical_entered&#45;&gt;mechanical_controls_found -->
<g id="edge37" class="edge">
<title>mechanical_entered&#45;&gt;mechanical_controls_found</title>
<path fill="none" stroke="#d9d9d9" d="M396.88,-915.84C383.19,-902.88 364.18,-884.88 348.6,-870.14"/>
<polygon fill="#d9d9d9" stroke="#d9d9d9" points="351.13,-867.71 341.46,-863.37 346.32,-872.79 351.13,-867.71"/>
</g>
<!-- mechanical_complete -->
<g id="node43" class="node">
<title>mechanical_complete</title>
<path fill="none" stroke="#d9d9d9" d="M453,-493C453,-493 289,-493 289,-493 283,-493 277,-487 277,-481 277,-481 277,-469 277,-469 277,-463 283,-457 289,-457 289,-457 453,-457 453,-457 459,-457 465,-463 465,-469 465,-469 465,-481 465,-481 465,-487 459,-493 453,-493"/>
<text text-anchor="middle" x="371" y="-471.3" font-family="Helvetica,sans-Serif" font-size="14.00" fill="#e5e5e5">Mechanical age completed</text>
</g>
<!-- mechanical_page_found&#45;&gt;mechanical_complete -->
<g id="edge69" class="edge">
<title>mechanical_page_found&#45;&gt;mechanical_complete</title>
<path fill="none" stroke="#d9d9d9" d="M112.94,-824.76C109.41,-788.19 105.52,-701.19 139,-640 177.26,-570.08 259.65,-523.09 315.22,-497.94"/>
<polygon fill="#d9d9d9" stroke="#d9d9d9" points="316.49,-501.2 324.23,-493.96 313.66,-494.8 316.49,-501.2"/>
</g>
<!-- cardinal_sounds_learned&#45;&gt;selenetic_exit_unlocked -->
<g id="edge2" class="edge">
<title>cardinal_sounds_learned&#45;&gt;selenetic_exit_unlocked</title>
<g id="a_edge2"><a xlink:title="You can skip this via brute force or big brain">
<path fill="none" stroke="#d9d9d9" stroke-dasharray="5,2" d="M532.84,-823.6C568.49,-776.17 663.62,-649.64 705.15,-594.4"/>
<polygon fill="#d9d9d9" stroke="#d9d9d9" points="707.9,-596.57 711.11,-586.47 702.31,-592.36 707.9,-596.57"/>
</a>
</g>
</g>
<!-- fortress_rotation -->
<g id="node39" class="node">
<title>fortress_rotation</title>
<path fill="#280060" stroke="#d9d9d9" d="M400.5,-769C400.5,-769 287.5,-769 287.5,-769 281.5,-769 275.5,-763 275.5,-757 275.5,-757 275.5,-745 275.5,-745 275.5,-739 281.5,-733 287.5,-733 287.5,-733 400.5,-733 400.5,-733 406.5,-733 412.5,-739 412.5,-745 412.5,-745 412.5,-757 412.5,-757 412.5,-763 406.5,-769 400.5,-769"/>
<text text-anchor="middle" x="344" y="-747.3" font-family="Helvetica,sans-Serif" font-size="14.00" fill="#e5e5e5">Rotate the fortress</text>
</g>
<!-- cardinal_sounds_learned&#45;&gt;fortress_rotation -->
<g id="edge39" class="edge">
<title>cardinal_sounds_learned&#45;&gt;fortress_rotation</title>
<path fill="none" stroke="#d9d9d9" d="M483.16,-823.57C455.61,-809.4 417.42,-789.76 388.01,-774.63"/>
<polygon fill="#d9d9d9" stroke="#d9d9d9" points="389.84,-771.64 379.35,-770.18 386.64,-777.87 389.84,-771.64"/>
</g>
<!-- mechanical_controls_found&#45;&gt;fortress_rotation -->
<g id="edge38" class="edge">
<title>mechanical_controls_found&#45;&gt;fortress_rotation</title>
<path fill="none" stroke="#d9d9d9" d="M325.65,-823.79C328.87,-811.22 333.2,-794.28 336.84,-780.01"/>
<polygon fill="#d9d9d9" stroke="#d9d9d9" points="340.13,-781.29 339.21,-770.74 333.34,-779.56 340.13,-781.29"/>
</g>
<!-- mechanical_code_2 -->
<g id="node40" class="node">
<title>mechanical_code_2</title>
<path fill="none" stroke="#d9d9d9" d="M577,-677C577,-677 393,-677 393,-677 387,-677 381,-671 381,-665 381,-665 381,-653 381,-653 381,-647 387,-641 393,-641 393,-641 577,-641 577,-641 583,-641 589,-647 589,-653 589,-653 589,-665 589,-665 589,-671 583,-677 577,-677"/>
<text text-anchor="middle" x="485" y="-655.3" font-family="Helvetica,sans-Serif" font-size="14.00" fill="#e5e5e5">Learn 2nd half of the exit code</text>
</g>
<!-- fortress_rotation&#45;&gt;mechanical_code_2 -->
<g id="edge41" class="edge">
<title>fortress_rotation&#45;&gt;mechanical_code_2</title>
<path fill="none" stroke="#d9d9d9" d="M371.19,-732.65C393.13,-718.64 424.22,-698.8 448.36,-683.39"/>
<polygon fill="#d9d9d9" stroke="#d9d9d9" points="450.08,-686.44 456.62,-678.11 446.31,-680.54 450.08,-686.44"/>
</g>
<!-- mechanical_code_1 -->
<g id="node41" class="node">
<title>mechanical_code_1</title>
<path fill="none" stroke="#d9d9d9" d="M344,-677C344,-677 164,-677 164,-677 158,-677 152,-671 152,-665 152,-665 152,-653 152,-653 152,-647 158,-641 164,-641 164,-641 344,-641 344,-641 350,-641 356,-647 356,-653 356,-653 356,-665 356,-665 356,-671 350,-677 344,-677"/>
<text text-anchor="middle" x="254" y="-655.3" font-family="Helvetica,sans-Serif" font-size="14.00" fill="#e5e5e5">Learn 1st half of the exit code</text>
</g>
<!-- fortress_rotation&#45;&gt;mechanical_code_1 -->
<g id="edge40" class="edge">
<title>fortress_rotation&#45;&gt;mechanical_code_1</title>
<path fill="none" stroke="#d9d9d9" d="M326.65,-732.65C313.2,-719.2 294.38,-700.38 279.26,-685.26"/>
<polygon fill="#d9d9d9" stroke="#d9d9d9" points="281.92,-682.97 272.37,-678.37 276.97,-687.92 281.92,-682.97"/>
</g>
<!-- mechanical_exit_unlocked -->
<g id="node42" class="node">
<title>mechanical_exit_unlocked</title>
<path fill="#280060" stroke="#d9d9d9" d="M466.5,-585C466.5,-585 275.5,-585 275.5,-585 269.5,-585 263.5,-579 263.5,-573 263.5,-573 263.5,-561 263.5,-561 263.5,-555 269.5,-549 275.5,-549 275.5,-549 466.5,-549 466.5,-549 472.5,-549 478.5,-555 478.5,-561 478.5,-561 478.5,-573 478.5,-573 478.5,-579 472.5,-585 466.5,-585"/>
<text text-anchor="middle" x="371" y="-563.3" font-family="Helvetica,sans-Serif" font-size="14.00" fill="#e5e5e5">Unlock the mechanical age exit</text>
</g>
<!-- mechanical_code_2&#45;&gt;mechanical_exit_unlocked -->
<g id="edge43" class="edge">
<title>mechanical_code_2&#45;&gt;mechanical_exit_unlocked</title>
<path fill="none" stroke="#d9d9d9" d="M463.02,-640.65C445.67,-626.95 421.26,-607.68 401.94,-592.42"/>
<polygon fill="#d9d9d9" stroke="#d9d9d9" points="404.12,-589.69 394.1,-586.24 399.78,-595.18 404.12,-589.69"/>
</g>
<!-- mechanical_code_1&#45;&gt;mechanical_exit_unlocked -->
<g id="edge42" class="edge">
<title>mechanical_code_1&#45;&gt;mechanical_exit_unlocked</title>
<path fill="none" stroke="#d9d9d9" d="M276.56,-640.65C294.44,-626.89 319.65,-607.5 339.52,-592.22"/>
<polygon fill="#d9d9d9" stroke="#d9d9d9" points="341.52,-595.09 347.31,-586.22 337.25,-589.55 341.52,-595.09"/>
</g>
<!-- mechanical_exit_unlocked&#45;&gt;mechanical_complete -->
<g id="edge70" class="edge">
<title>mechanical_exit_unlocked&#45;&gt;mechanical_complete</title>
<path fill="none" stroke="#d9d9d9" d="M371,-548.65C371,-536.2 371,-519.14 371,-504.68"/>
<polygon fill="#d9d9d9" stroke="#d9d9d9" points="374.5,-504.81 371,-494.81 367.5,-504.81 374.5,-504.81"/>
</g>
<!-- mechanical_complete&#45;&gt;learn_fireplace_page_number -->
<g id="edge76" class="edge">
<title>mechanical_complete&#45;&gt;learn_fireplace_page_number</title>
<path fill="none" stroke="#d9d9d9" d="M444.37,-456.58C584.37,-423.33 889.14,-350.96 1040.31,-315.06"/>
<polygon fill="#d9d9d9" stroke="#d9d9d9" points="1040.97,-318.5 1049.89,-312.79 1039.35,-311.69 1040.97,-318.5"/>
</g>
<!-- understand_pump -->
<g id="node45" class="node">
<title>understand_pump</title>
<path fill="#280060" stroke="#d9d9d9" d="M1979.5,-862C1979.5,-862 1848.5,-862 1848.5,-862 1842.5,-862 1836.5,-856 1836.5,-850 1836.5,-850 1836.5,-836 1836.5,-836 1836.5,-830 1842.5,-824 1848.5,-824 1848.5,-824 1979.5,-824 1979.5,-824 1985.5,-824 1991.5,-830 1991.5,-836 1991.5,-836 1991.5,-850 1991.5,-850 1991.5,-856 1985.5,-862 1979.5,-862"/>
<text text-anchor="middle" x="1914" y="-846.8" font-family="Helvetica,sans-Serif" font-size="14.00" fill="#e5e5e5">The three buttons</text>
<text text-anchor="middle" x="1914" y="-831.8" font-family="Helvetica,sans-Serif" font-size="14.00" fill="#e5e5e5">are for pumping water</text>
</g>
<!-- stoneship_entered&#45;&gt;understand_pump -->
<g id="edge22" class="edge">
<title>stoneship_entered&#45;&gt;understand_pump</title>
<path fill="none" stroke="#d9d9d9" d="M1884.94,-915.84C1889.89,-903.6 1896.66,-886.86 1902.42,-872.62"/>
<polygon fill="#d9d9d9" stroke="#d9d9d9" points="1905.51,-874.32 1906.02,-863.74 1899.02,-871.69 1905.51,-874.32"/>
</g>
<!-- stoneship_page_found -->
<g id="node46" class="node">
<title>stoneship_page_found</title>
<path fill="none" stroke="#d9d9d9" d="M1784.5,-769C1784.5,-769 1575.5,-769 1575.5,-769 1569.5,-769 1563.5,-763 1563.5,-757 1563.5,-757 1563.5,-745 1563.5,-745 1563.5,-739 1569.5,-733 1575.5,-733 1575.5,-733 1784.5,-733 1784.5,-733 1790.5,-733 1796.5,-739 1796.5,-745 1796.5,-745 1796.5,-757 1796.5,-757 1796.5,-763 1790.5,-769 1784.5,-769"/>
<text text-anchor="middle" x="1680" y="-747.3" font-family="Helvetica,sans-Serif" font-size="14.00" fill="#e5e5e5">Find a page in the brothers&#39; rooms</text>
</g>
<!-- understand_pump&#45;&gt;stoneship_page_found -->
<g id="edge23" class="edge">
<title>understand_pump&#45;&gt;stoneship_page_found</title>
<path fill="none" stroke="#d9d9d9" d="M1866.08,-823.57C1828.36,-809.06 1775.71,-788.81 1736.03,-773.55"/>
<polygon fill="#d9d9d9" stroke="#d9d9d9" points="1737.47,-770.35 1726.88,-770.03 1734.96,-776.89 1737.47,-770.35"/>
</g>
<!-- torn_paper_stoneship -->
<g id="node47" class="node">
<title>torn_paper_stoneship</title>
<path fill="none" stroke="#d9d9d9" d="M2002.5,-494C2002.5,-494 1865.5,-494 1865.5,-494 1859.5,-494 1853.5,-488 1853.5,-482 1853.5,-482 1853.5,-468 1853.5,-468 1853.5,-462 1859.5,-456 1865.5,-456 1865.5,-456 2002.5,-456 2002.5,-456 2008.5,-456 2014.5,-462 2014.5,-468 2014.5,-468 2014.5,-482 2014.5,-482 2014.5,-488 2008.5,-494 2002.5,-494"/>
<text text-anchor="middle" x="1934" y="-478.8" font-family="Helvetica,sans-Serif" font-size="14.00" fill="#e5e5e5">Find half of a torn page</text>
<text text-anchor="middle" x="1934" y="-463.8" font-family="Helvetica,sans-Serif" font-size="14.00" fill="#e5e5e5">in Acenar&#39;s room</text>
</g>
<!-- understand_pump&#45;&gt;torn_paper_stoneship -->
<g id="edge24" class="edge">
<title>understand_pump&#45;&gt;torn_paper_stoneship</title>
<path fill="none" stroke="#d9d9d9" d="M1959.5,-823.54C1982.81,-811.71 2009.49,-794.03 2025,-770 2069.86,-700.5 2046.76,-668.48 2053,-586 2054.27,-569.16 2061.29,-562.71 2053,-548 2040.87,-526.48 2019.43,-510.66 1998.06,-499.43"/>
<polygon fill="#d9d9d9" stroke="#d9d9d9" points="1999.82,-496.39 1989.31,-495.1 1996.72,-502.67 1999.82,-496.39"/>
</g>
<!-- manipulate_chest -->
<g id="node48" class="node">
<title>manipulate_chest</title>
<path fill="#280060" stroke="#d9d9d9" d="M2000,-770C2000,-770 1834,-770 1834,-770 1828,-770 1822,-764 1822,-758 1822,-758 1822,-744 1822,-744 1822,-738 1828,-732 1834,-732 1834,-732 2000,-732 2000,-732 2006,-732 2012,-738 2012,-744 2012,-744 2012,-758 2012,-758 2012,-764 2006,-770 2000,-770"/>
<text text-anchor="middle" x="1917" y="-754.8" font-family="Helvetica,sans-Serif" font-size="14.00" fill="#e5e5e5">Solve the lighthouse chest,</text>
<text text-anchor="middle" x="1917" y="-739.8" font-family="Helvetica,sans-Serif" font-size="14.00" fill="#e5e5e5">unlocking the top floor</text>
</g>
<!-- understand_pump&#45;&gt;manipulate_chest -->
<g id="edge25" class="edge">
<title>understand_pump&#45;&gt;manipulate_chest</title>
<path fill="none" stroke="#d9d9d9" d="M1914.61,-823.79C1915.01,-811.79 1915.54,-795.8 1916,-781.95"/>
<polygon fill="#d9d9d9" stroke="#d9d9d9" points="1919.5,-782.12 1916.33,-772.01 1912.5,-781.89 1919.5,-782.12"/>
</g>
<!-- stoneship_complete -->
<g id="node53" class="node">
<title>stoneship_complete</title>
<path fill="none" stroke="#d9d9d9" d="M1732.5,-402C1732.5,-402 1575.5,-402 1575.5,-402 1569.5,-402 1563.5,-396 1563.5,-390 1563.5,-390 1563.5,-378 1563.5,-378 1563.5,-372 1569.5,-366 1575.5,-366 1575.5,-366 1732.5,-366 1732.5,-366 1738.5,-366 1744.5,-372 1744.5,-378 1744.5,-378 1744.5,-390 1744.5,-390 1744.5,-396 1738.5,-402 1732.5,-402"/>
<text text-anchor="middle" x="1654" y="-380.3" font-family="Helvetica,sans-Serif" font-size="14.00" fill="#e5e5e5">Stoneship age completed</text>
</g>
<!-- stoneship_page_found&#45;&gt;stoneship_complete -->
<g id="edge67" class="edge">
<title>stoneship_page_found&#45;&gt;stoneship_complete</title>
<path fill="none" stroke="#d9d9d9" d="M1664.75,-732.92C1640.72,-704.73 1595.04,-645.65 1578,-586 1568.33,-552.14 1585.12,-461.04 1591,-449 1598.26,-434.12 1610.35,-420.57 1622,-409.8"/>
<polygon fill="#d9d9d9" stroke="#d9d9d9" points="1623.99,-412.71 1629.19,-403.48 1619.37,-407.45 1623.99,-412.71"/>
</g>
<!-- learn_marker_switch_secret -->
<g id="node69" class="node">
<title>learn_marker_switch_secret</title>
<path fill="#280060" stroke="#d9d9d9" d="M1796.5,-311C1796.5,-311 1551.5,-311 1551.5,-311 1545.5,-311 1539.5,-305 1539.5,-299 1539.5,-299 1539.5,-287 1539.5,-287 1539.5,-281 1545.5,-275 1551.5,-275 1551.5,-275 1796.5,-275 1796.5,-275 1802.5,-275 1808.5,-281 1808.5,-287 1808.5,-287 1808.5,-299 1808.5,-299 1808.5,-305 1802.5,-311 1796.5,-311"/>
<text text-anchor="middle" x="1674" y="-289.3" font-family="Helvetica,sans-Serif" font-size="14.00" fill="#e5e5e5">Learn the secret of the marker switches</text>
</g>
<!-- torn_paper_stoneship&#45;&gt;learn_marker_switch_secret -->
<g id="edge85" class="edge">
<title>torn_paper_stoneship&#45;&gt;learn_marker_switch_secret</title>
<path fill="none" stroke="#d9d9d9" d="M1907.64,-455.75C1860.24,-422.94 1760.68,-354.01 1708.14,-317.63"/>
<polygon fill="#d9d9d9" stroke="#d9d9d9" points="1710.36,-314.91 1700.14,-312.1 1706.37,-320.67 1710.36,-314.91"/>
</g>
<!-- power_lighthouse -->
<g id="node49" class="node">
<title>power_lighthouse</title>
<path fill="none" stroke="#d9d9d9" d="M1973.5,-677C1973.5,-677 1860.5,-677 1860.5,-677 1854.5,-677 1848.5,-671 1848.5,-665 1848.5,-665 1848.5,-653 1848.5,-653 1848.5,-647 1854.5,-641 1860.5,-641 1860.5,-641 1973.5,-641 1973.5,-641 1979.5,-641 1985.5,-647 1985.5,-653 1985.5,-653 1985.5,-665 1985.5,-665 1985.5,-671 1979.5,-677 1973.5,-677"/>
<text text-anchor="middle" x="1917" y="-655.3" font-family="Helvetica,sans-Serif" font-size="14.00" fill="#e5e5e5">Charge the battery</text>
</g>
<!-- manipulate_chest&#45;&gt;power_lighthouse -->
<g id="edge26" class="edge">
<title>manipulate_chest&#45;&gt;power_lighthouse</title>
<path fill="none" stroke="#d9d9d9" d="M1917,-731.79C1917,-719.35 1917,-702.61 1917,-688.43"/>
<polygon fill="#d9d9d9" stroke="#d9d9d9" points="1920.5,-688.78 1917,-678.78 1913.5,-688.78 1920.5,-688.78"/>
</g>
<!-- find_secret_compass_room -->
<g id="node50" class="node">
<title>find_secret_compass_room</title>
<path fill="#280060" stroke="#d9d9d9" d="M1776,-585C1776,-585 1602,-585 1602,-585 1596,-585 1590,-579 1590,-573 1590,-573 1590,-561 1590,-561 1590,-555 1596,-549 1602,-549 1602,-549 1776,-549 1776,-549 1782,-549 1788,-555 1788,-561 1788,-561 1788,-573 1788,-573 1788,-579 1782,-585 1776,-585"/>
<text text-anchor="middle" x="1689" y="-563.3" font-family="Helvetica,sans-Serif" font-size="14.00" fill="#e5e5e5">Find a secret compass room</text>
</g>
<!-- power_lighthouse&#45;&gt;find_secret_compass_room -->
<g id="edge27" class="edge">
<title>power_lighthouse&#45;&gt;find_secret_compass_room</title>
<path fill="none" stroke="#d9d9d9" d="M1872.77,-640.54C1835.88,-625.98 1783.15,-605.16 1743.62,-589.56"/>
<polygon fill="#d9d9d9" stroke="#d9d9d9" points="1745.1,-586.38 1734.52,-585.97 1742.53,-592.89 1745.1,-586.38"/>
</g>
<!-- observe_lighthouse_bearing -->
<g id="node51" class="node">
<title>observe_lighthouse_bearing</title>
<path fill="#280060" stroke="#d9d9d9" d="M2028.5,-585C2028.5,-585 1825.5,-585 1825.5,-585 1819.5,-585 1813.5,-579 1813.5,-573 1813.5,-573 1813.5,-561 1813.5,-561 1813.5,-555 1819.5,-549 1825.5,-549 1825.5,-549 2028.5,-549 2028.5,-549 2034.5,-549 2040.5,-555 2040.5,-561 2040.5,-561 2040.5,-573 2040.5,-573 2040.5,-579 2034.5,-585 2028.5,-585"/>
<text text-anchor="middle" x="1927" y="-563.3" font-family="Helvetica,sans-Serif" font-size="14.00" fill="#e5e5e5">Observe the lighthouse&#39;s bearing</text>
</g>
<!-- power_lighthouse&#45;&gt;observe_lighthouse_bearing -->
<g id="edge28" class="edge">
<title>power_lighthouse&#45;&gt;observe_lighthouse_bearing</title>
<path fill="none" stroke="#d9d9d9" d="M1918.93,-640.65C1920.31,-628.2 1922.21,-611.14 1923.81,-596.68"/>
<polygon fill="#d9d9d9" stroke="#d9d9d9" points="1927.28,-597.13 1924.91,-586.8 1920.33,-596.36 1927.28,-597.13"/>
</g>
<!-- stoneship_exit_unlocked -->
<g id="node52" class="node">
<title>stoneship_exit_unlocked</title>
<path fill="#280060" stroke="#d9d9d9" d="M1763,-494C1763,-494 1615,-494 1615,-494 1609,-494 1603,-488 1603,-482 1603,-482 1603,-468 1603,-468 1603,-462 1609,-456 1615,-456 1615,-456 1763,-456 1763,-456 1769,-456 1775,-462 1775,-468 1775,-468 1775,-482 1775,-482 1775,-488 1769,-494 1763,-494"/>
<text text-anchor="middle" x="1689" y="-478.8" font-family="Helvetica,sans-Serif" font-size="14.00" fill="#e5e5e5">Illuminate the dark room,</text>
<text text-anchor="middle" x="1689" y="-463.8" font-family="Helvetica,sans-Serif" font-size="14.00" fill="#e5e5e5">and find your way out</text>
</g>
<!-- find_secret_compass_room&#45;&gt;stoneship_exit_unlocked -->
<g id="edge29" class="edge">
<title>find_secret_compass_room&#45;&gt;stoneship_exit_unlocked</title>
<path fill="none" stroke="#d9d9d9" d="M1689,-548.65C1689,-536.44 1689,-519.79 1689,-505.51"/>
<polygon fill="#d9d9d9" stroke="#d9d9d9" points="1692.5,-505.74 1689,-495.74 1685.5,-505.74 1692.5,-505.74"/>
</g>
<!-- observe_lighthouse_bearing&#45;&gt;stoneship_exit_unlocked -->
<g id="edge30" class="edge">
<title>observe_lighthouse_bearing&#45;&gt;stoneship_exit_unlocked</title>
<path fill="none" stroke="#d9d9d9" d="M1880.83,-548.54C1843.11,-534.28 1789.52,-514.01 1748.56,-498.52"/>
<polygon fill="#d9d9d9" stroke="#d9d9d9" points="1749.92,-495.29 1739.32,-495.03 1747.44,-501.84 1749.92,-495.29"/>
</g>
<!-- stoneship_exit_unlocked&#45;&gt;stoneship_complete -->
<g id="edge68" class="edge">
<title>stoneship_exit_unlocked&#45;&gt;stoneship_complete</title>
<path fill="none" stroke="#d9d9d9" d="M1681.75,-455.56C1676.88,-443.19 1670.38,-426.66 1664.9,-412.71"/>
<polygon fill="#d9d9d9" stroke="#d9d9d9" points="1668.24,-411.64 1661.32,-403.62 1661.72,-414.21 1668.24,-411.64"/>
</g>
<!-- stoneship_complete&#45;&gt;learn_fireplace_page_number -->
<g id="edge75" class="edge">
<title>stoneship_complete&#45;&gt;learn_fireplace_page_number</title>
<path fill="none" stroke="#d9d9d9" d="M1586.43,-365.53C1574.98,-362.83 1563.18,-360.21 1552,-358 1452.28,-338.28 1338.29,-321.35 1253.79,-309.87"/>
<polygon fill="#d9d9d9" stroke="#d9d9d9" points="1254.47,-306.43 1244.09,-308.56 1253.53,-313.37 1254.47,-306.43"/>
</g>
<!-- windmill_manipulated -->
<g id="node55" class="node">
<title>windmill_manipulated</title>
<path fill="#280060" stroke="#d9d9d9" d="M1319,-861C1319,-861 1103,-861 1103,-861 1097,-861 1091,-855 1091,-849 1091,-849 1091,-837 1091,-837 1091,-831 1097,-825 1103,-825 1103,-825 1319,-825 1319,-825 1325,-825 1331,-831 1331,-837 1331,-837 1331,-849 1331,-849 1331,-855 1325,-861 1319,-861"/>
<text text-anchor="middle" x="1211" y="-839.3" font-family="Helvetica,sans-Serif" font-size="14.00" fill="#e5e5e5">Get water flowing from the windmill</text>
</g>
<!-- channelwood_entered&#45;&gt;windmill_manipulated -->
<g id="edge57" class="edge">
<title>channelwood_entered&#45;&gt;windmill_manipulated</title>
<path fill="none" stroke="#d9d9d9" d="M1211,-915.84C1211,-903.61 1211,-886.87 1211,-872.63"/>
<polygon fill="#d9d9d9" stroke="#d9d9d9" points="1214.5,-872.92 1211,-862.92 1207.5,-872.92 1214.5,-872.92"/>
</g>
<!-- channelwood_bridge_raised -->
<g id="node56" class="node">
<title>channelwood_bridge_raised</title>
<path fill="#280060" stroke="#d9d9d9" d="M1172,-769C1172,-769 1028,-769 1028,-769 1022,-769 1016,-763 1016,-757 1016,-757 1016,-745 1016,-745 1016,-739 1022,-733 1028,-733 1028,-733 1172,-733 1172,-733 1178,-733 1184,-739 1184,-745 1184,-745 1184,-757 1184,-757 1184,-763 1178,-769 1172,-769"/>
<text text-anchor="middle" x="1100" y="-747.3" font-family="Helvetica,sans-Serif" font-size="14.00" fill="#e5e5e5">Raise the hidden bridge</text>
</g>
<!-- windmill_manipulated&#45;&gt;channelwood_bridge_raised -->
<g id="edge58" class="edge">
<title>windmill_manipulated&#45;&gt;channelwood_bridge_raised</title>
<path fill="none" stroke="#d9d9d9" d="M1189.6,-824.65C1172.71,-810.95 1148.94,-791.68 1130.12,-776.42"/>
<polygon fill="#d9d9d9" stroke="#d9d9d9" points="1132.48,-773.83 1122.51,-770.25 1128.08,-779.27 1132.48,-773.83"/>
</g>
<!-- channelwood_second_level -->
<g id="node58" class="node">
<title>channelwood_second_level</title>
<path fill="#280060" stroke="#d9d9d9" d="M1462.5,-769C1462.5,-769 1221.5,-769 1221.5,-769 1215.5,-769 1209.5,-763 1209.5,-757 1209.5,-757 1209.5,-745 1209.5,-745 1209.5,-739 1215.5,-733 1221.5,-733 1221.5,-733 1462.5,-733 1462.5,-733 1468.5,-733 1474.5,-739 1474.5,-745 1474.5,-745 1474.5,-757 1474.5,-757 1474.5,-763 1468.5,-769 1462.5,-769"/>
<text text-anchor="middle" x="1342" y="-747.3" font-family="Helvetica,sans-Serif" font-size="14.00" fill="#e5e5e5">Power the elevator to the second level</text>
</g>
<!-- windmill_manipulated&#45;&gt;channelwood_second_level -->
<g id="edge60" class="edge">
<title>windmill_manipulated&#45;&gt;channelwood_second_level</title>
<path fill="none" stroke="#d9d9d9" d="M1236.26,-824.65C1256.46,-810.76 1285.01,-791.15 1307.36,-775.8"/>
<polygon fill="#d9d9d9" stroke="#d9d9d9" points="1309.31,-778.7 1315.57,-770.16 1305.35,-772.93 1309.31,-778.7"/>
</g>
<!-- channelwood_exit_unlocked -->
<g id="node57" class="node">
<title>channelwood_exit_unlocked</title>
<path fill="#280060" stroke="#d9d9d9" d="M1291,-585C1291,-585 1029,-585 1029,-585 1023,-585 1017,-579 1017,-573 1017,-573 1017,-561 1017,-561 1017,-555 1023,-549 1029,-549 1029,-549 1291,-549 1291,-549 1297,-549 1303,-555 1303,-561 1303,-561 1303,-573 1303,-573 1303,-579 1297,-585 1291,-585"/>
<text text-anchor="middle" x="1160" y="-563.3" font-family="Helvetica,sans-Serif" font-size="14.00" fill="#e5e5e5">Extend the pipe to power the exit elevator</text>
</g>
<!-- channelwood_bridge_raised&#45;&gt;channelwood_exit_unlocked -->
<g id="edge59" class="edge">
<title>channelwood_bridge_raised&#45;&gt;channelwood_exit_unlocked</title>
<path fill="none" stroke="#d9d9d9" d="M1075.78,-732.67C1048.83,-711.16 1011.48,-673.24 1031,-640 1044.35,-617.26 1067.77,-601.18 1091.03,-590.07"/>
<polygon fill="#d9d9d9" stroke="#d9d9d9" points="1092.24,-593.36 1099.93,-586.08 1089.38,-586.98 1092.24,-593.36"/>
</g>
<!-- channelwood_complete -->
<g id="node64" class="node">
<title>channelwood_complete</title>
<path fill="none" stroke="#d9d9d9" d="M1219,-402C1219,-402 1039,-402 1039,-402 1033,-402 1027,-396 1027,-390 1027,-390 1027,-378 1027,-378 1027,-372 1033,-366 1039,-366 1039,-366 1219,-366 1219,-366 1225,-366 1231,-372 1231,-378 1231,-378 1231,-390 1231,-390 1231,-396 1225,-402 1219,-402"/>
<text text-anchor="middle" x="1129" y="-380.3" font-family="Helvetica,sans-Serif" font-size="14.00" fill="#e5e5e5">Channelwood age completed</text>
</g>
<!-- channelwood_exit_unlocked&#45;&gt;channelwood_complete -->
<g id="edge74" class="edge">
<title>channelwood_exit_unlocked&#45;&gt;channelwood_complete</title>
<path fill="none" stroke="#d9d9d9" d="M1141.85,-548.69C1129.09,-535.18 1113.07,-515.2 1106,-494 1097,-467 1105.94,-435.03 1115.18,-412.72"/>
<polygon fill="#d9d9d9" stroke="#d9d9d9" points="1118.33,-414.26 1119.18,-403.7 1111.93,-411.42 1118.33,-414.26"/>
</g>
<!-- channelwood_second_level&#45;&gt;channelwood_door_opened -->
<g id="edge61" class="edge">
<title>channelwood_second_level&#45;&gt;channelwood_door_opened</title>
<path fill="none" stroke="#d9d9d9" d="M1362.05,-732.65C1377.43,-719.34 1398.9,-700.76 1416.28,-685.72"/>
<polygon fill="#d9d9d9" stroke="#d9d9d9" points="1418.52,-688.41 1423.79,-679.22 1413.94,-683.11 1418.52,-688.41"/>
</g>
<!-- channelwood_door_found -->
<g id="node60" class="node">
<title>channelwood_door_found</title>
<path fill="none" stroke="#d9d9d9" d="M1317,-677C1317,-677 1055,-677 1055,-677 1049,-677 1043,-671 1043,-665 1043,-665 1043,-653 1043,-653 1043,-647 1049,-641 1055,-641 1055,-641 1317,-641 1317,-641 1323,-641 1329,-647 1329,-653 1329,-653 1329,-665 1329,-665 1329,-671 1323,-677 1317,-677"/>
<text text-anchor="middle" x="1186" y="-655.3" font-family="Helvetica,sans-Serif" font-size="14.00" fill="#e5e5e5">Use staircase door to bypass the elevator</text>
</g>
<!-- channelwood_second_level&#45;&gt;channelwood_door_found -->
<g id="edge62" class="edge">
<title>channelwood_second_level&#45;&gt;channelwood_door_found</title>
<path fill="none" stroke="#d9d9d9" d="M1311.92,-732.65C1287.51,-718.56 1252.86,-698.57 1226.09,-683.13"/>
<polygon fill="#d9d9d9" stroke="#d9d9d9" points="1227.97,-680.17 1217.56,-678.21 1224.48,-686.24 1227.97,-680.17"/>
</g>
<!-- channelwood_third_level -->
<g id="node61" class="node">
<title>channelwood_third_level</title>
<path fill="none" stroke="#d9d9d9" d="M1519.5,-585C1519.5,-585 1346.5,-585 1346.5,-585 1340.5,-585 1334.5,-579 1334.5,-573 1334.5,-573 1334.5,-561 1334.5,-561 1334.5,-555 1340.5,-549 1346.5,-549 1346.5,-549 1519.5,-549 1519.5,-549 1525.5,-549 1531.5,-555 1531.5,-561 1531.5,-561 1531.5,-573 1531.5,-573 1531.5,-579 1525.5,-585 1519.5,-585"/>
<text text-anchor="middle" x="1433" y="-563.3" font-family="Helvetica,sans-Serif" font-size="14.00" fill="#e5e5e5">Power elevator to third level</text>
</g>
<!-- channelwood_door_opened&#45;&gt;channelwood_third_level -->
<g id="edge63" class="edge">
<title>channelwood_door_opened&#45;&gt;channelwood_third_level</title>
<path fill="none" stroke="#d9d9d9" d="M1443.37,-639.79C1441.57,-627.35 1439.16,-610.61 1437.11,-596.43"/>
<polygon fill="#d9d9d9" stroke="#d9d9d9" points="1440.6,-596.16 1435.71,-586.77 1433.68,-597.17 1440.6,-596.16"/>
</g>
<!-- channelwood_door_found&#45;&gt;channelwood_third_level -->
<g id="edge64" class="edge">
<title>channelwood_door_found&#45;&gt;channelwood_third_level</title>
<path fill="none" stroke="#d9d9d9" d="M1233.92,-640.54C1274.14,-625.88 1331.74,-604.9 1374.64,-589.26"/>
<polygon fill="#d9d9d9" stroke="#d9d9d9" points="1375.6,-592.64 1383.79,-585.93 1373.2,-586.06 1375.6,-592.64"/>
</g>
<!-- torn_paper_channelwood -->
<g id="node62" class="node">
<title>torn_paper_channelwood</title>
<path fill="none" stroke="#d9d9d9" d="M1525.5,-494C1525.5,-494 1388.5,-494 1388.5,-494 1382.5,-494 1376.5,-488 1376.5,-482 1376.5,-482 1376.5,-468 1376.5,-468 1376.5,-462 1382.5,-456 1388.5,-456 1388.5,-456 1525.5,-456 1525.5,-456 1531.5,-456 1537.5,-462 1537.5,-468 1537.5,-468 1537.5,-482 1537.5,-482 1537.5,-488 1531.5,-494 1525.5,-494"/>
<text text-anchor="middle" x="1457" y="-478.8" font-family="Helvetica,sans-Serif" font-size="14.00" fill="#e5e5e5">Find half of a torn page</text>
<text text-anchor="middle" x="1457" y="-463.8" font-family="Helvetica,sans-Serif" font-size="14.00" fill="#e5e5e5">in Sirrus&#39;s room</text>
</g>
<!-- channelwood_third_level&#45;&gt;torn_paper_channelwood -->
<g id="edge65" class="edge">
<title>channelwood_third_level&#45;&gt;torn_paper_channelwood</title>
<path fill="none" stroke="#d9d9d9" d="M1437.63,-548.65C1440.92,-536.31 1445.41,-519.46 1449.24,-505.09"/>
<polygon fill="#d9d9d9" stroke="#d9d9d9" points="1452.55,-506.25 1451.75,-495.69 1445.79,-504.45 1452.55,-506.25"/>
</g>
<!-- channelwood_page_found -->
<g id="node63" class="node">
<title>channelwood_page_found</title>
<path fill="none" stroke="#d9d9d9" d="M1339.5,-493C1339.5,-493 1130.5,-493 1130.5,-493 1124.5,-493 1118.5,-487 1118.5,-481 1118.5,-481 1118.5,-469 1118.5,-469 1118.5,-463 1124.5,-457 1130.5,-457 1130.5,-457 1339.5,-457 1339.5,-457 1345.5,-457 1351.5,-463 1351.5,-469 1351.5,-469 1351.5,-481 1351.5,-481 1351.5,-487 1345.5,-493 1339.5,-493"/>
<text text-anchor="middle" x="1235" y="-471.3" font-family="Helvetica,sans-Serif" font-size="14.00" fill="#e5e5e5">Find a page in the brothers&#39; rooms</text>
</g>
<!-- channelwood_third_level&#45;&gt;channelwood_page_found -->
<g id="edge66" class="edge">
<title>channelwood_third_level&#45;&gt;channelwood_page_found</title>
<path fill="none" stroke="#d9d9d9" d="M1394.82,-548.65C1363.15,-534.25 1317.92,-513.69 1283.65,-498.11"/>
<polygon fill="#d9d9d9" stroke="#d9d9d9" points="1285.33,-495.03 1274.77,-494.08 1282.43,-501.4 1285.33,-495.03"/>
</g>
<!-- torn_paper_channelwood&#45;&gt;learn_marker_switch_secret -->
<g id="edge84" class="edge">
<title>torn_paper_channelwood&#45;&gt;learn_marker_switch_secret</title>
<path fill="none" stroke="#d9d9d9" d="M1467.82,-455.92C1483.31,-431.26 1513.82,-386.85 1549,-358 1569.76,-340.98 1595.8,-326.75 1618.72,-316.08"/>
<polygon fill="#d9d9d9" stroke="#d9d9d9" points="1619.96,-319.36 1627.63,-312.04 1617.08,-312.98 1619.96,-319.36"/>
</g>
<!-- channelwood_page_found&#45;&gt;channelwood_complete -->
<g id="edge73" class="edge">
<title>channelwood_page_found&#45;&gt;channelwood_complete</title>
<path fill="none" stroke="#d9d9d9" d="M1214.31,-456.63C1198.26,-443.15 1175.82,-424.31 1157.98,-409.33"/>
<polygon fill="#d9d9d9" stroke="#d9d9d9" points="1160.71,-407.05 1150.8,-403.3 1156.2,-412.41 1160.71,-407.05"/>
</g>
<!-- channelwood_complete&#45;&gt;learn_fireplace_page_number -->
<g id="edge78" class="edge">
<title>channelwood_complete&#45;&gt;learn_fireplace_page_number</title>
<path fill="none" stroke="#d9d9d9" d="M1129,-365.84C1129,-353.84 1129,-337.52 1129,-323.46"/>
<polygon fill="#d9d9d9" stroke="#d9d9d9" points="1132.5,-323.85 1129,-313.85 1125.5,-323.85 1132.5,-323.85"/>
</g>
<!-- fireplace_entered -->
<g id="node66" class="node">
<title>fireplace_entered</title>
<path fill="none" stroke="#d9d9d9" d="M1482,-220C1482,-220 1324,-220 1324,-220 1318,-220 1312,-214 1312,-208 1312,-208 1312,-194 1312,-194 1312,-188 1318,-182 1324,-182 1324,-182 1482,-182 1482,-182 1488,-182 1494,-188 1494,-194 1494,-194 1494,-208 1494,-208 1494,-214 1488,-220 1482,-220"/>
<text text-anchor="middle" x="1403" y="-204.8" font-family="Helvetica,sans-Serif" font-size="14.00" fill="#e5e5e5">Pass through the fireplace</text>
<text text-anchor="middle" x="1403" y="-189.8" font-family="Helvetica,sans-Serif" font-size="14.00" fill="#e5e5e5">by using the code</text>
</g>
<!-- learn_fireplace_page_number&#45;&gt;fireplace_entered -->
<g id="edge79" class="edge">
<title>learn_fireplace_page_number&#45;&gt;fireplace_entered</title>
<path fill="none" stroke="#d9d9d9" d="M1185.11,-273.57C1228.88,-259.19 1289.82,-239.18 1336.13,-223.97"/>
<polygon fill="#d9d9d9" stroke="#d9d9d9" points="1337.12,-227.32 1345.53,-220.88 1334.94,-220.67 1337.12,-227.32"/>
</g>
<!-- fireplace_entered&#45;&gt;ending_trapped_atrus -->
<g id="edge81" class="edge">
<title>fireplace_entered&#45;&gt;ending_trapped_atrus</title>
<path fill="none" stroke="#d9d9d9" d="M1396.51,-181.75C1385.28,-150.16 1362.15,-85.11 1348.9,-47.84"/>
<polygon fill="#d9d9d9" stroke="#d9d9d9" points="1352.28,-46.91 1345.64,-38.66 1345.69,-49.26 1352.28,-46.91"/>
</g>
<!-- fireplace_entered&#45;&gt;white_page_obtained -->
<g id="edge80" class="edge">
<title>fireplace_entered&#45;&gt;white_page_obtained</title>
<path fill="none" stroke="#d9d9d9" d="M1459.15,-181.56C1503.21,-167.09 1564.56,-146.94 1610.43,-131.88"/>
<polygon fill="#d9d9d9" stroke="#d9d9d9" points="1611.3,-135.28 1619.7,-128.83 1609.11,-128.63 1611.3,-135.28"/>
</g>
<!-- sixth_page_found -->
<g id="node68" class="node">
<title>sixth_page_found</title>
<path fill="none" stroke="#d9d9d9" d="M1545.5,-128C1545.5,-128 1402.5,-128 1402.5,-128 1396.5,-128 1390.5,-122 1390.5,-116 1390.5,-116 1390.5,-104 1390.5,-104 1390.5,-98 1396.5,-92 1402.5,-92 1402.5,-92 1545.5,-92 1545.5,-92 1551.5,-92 1557.5,-98 1557.5,-104 1557.5,-104 1557.5,-116 1557.5,-116 1557.5,-122 1551.5,-128 1545.5,-128"/>
<text text-anchor="middle" x="1474" y="-106.3" font-family="Helvetica,sans-Serif" font-size="14.00" fill="#e5e5e5">The sixth red/blue page</text>
</g>
<!-- fireplace_entered&#45;&gt;sixth_page_found -->
<g id="edge82" class="edge">
<title>fireplace_entered&#45;&gt;sixth_page_found</title>
<path fill="none" stroke="#d9d9d9" d="M1417.71,-181.56C1427.97,-168.7 1441.81,-151.35 1453.2,-137.07"/>
<polygon fill="#d9d9d9" stroke="#d9d9d9" points="1455.83,-139.39 1459.33,-129.39 1450.35,-135.03 1455.83,-139.39"/>
</g>
<!-- white_page_obtained&#45;&gt;ending_good -->
<g id="edge90" class="edge">
<title>white_page_obtained&#45;&gt;ending_good</title>
<path fill="none" stroke="#d9d9d9" d="M1674,-91.84C1674,-79.61 1674,-62.87 1674,-48.63"/>
<polygon fill="#d9d9d9" stroke="#d9d9d9" points="1677.5,-48.92 1674,-38.92 1670.5,-48.92 1677.5,-48.92"/>
</g>
<!-- sixth_page_found&#45;&gt;ending_free_brother -->
<g id="edge83" class="edge">
<title>sixth_page_found&#45;&gt;ending_free_brother</title>
<path fill="none" stroke="#d9d9d9" d="M1480.36,-91.84C1484.86,-79.72 1490.99,-63.19 1496.23,-49.04"/>
<polygon fill="#d9d9d9" stroke="#d9d9d9" points="1499.48,-50.35 1499.68,-39.75 1492.92,-47.91 1499.48,-50.35"/>
</g>
<!-- learn_marker_switch_secret&#45;&gt;white_page_obtained -->
<g id="edge86" class="edge">
<title>learn_marker_switch_secret&#45;&gt;white_page_obtained</title>
<path fill="none" stroke="#d9d9d9" d="M1674,-274.64C1674,-243.43 1674,-177.53 1674,-139.57"/>
<polygon fill="#d9d9d9" stroke="#d9d9d9" points="1677.5,-139.82 1674,-129.82 1670.5,-139.82 1677.5,-139.82"/>
</g>
</g>
</svg>
