<?xml version="1.0" encoding="UTF-8" standalone="no"?>
<!DOCTYPE svg PUBLIC "-//W3C//DTD SVG 1.1//EN"
 "http://www.w3.org/Graphics/SVG/1.1/DTD/svg11.dtd">
<!-- Generated by graphviz version 10.0.1 (20240210.2158)
 -->
<!-- Title: myst_progression Pages: 1 -->
<svg width="2084pt" height="1629pt"
 viewBox="0.00 0.00 2083.87 1629.00" xmlns="http://www.w3.org/2000/svg" xmlns:xlink="http://www.w3.org/1999/xlink">
<g id="graph0" class="graph" transform="scale(1 1) rotate(0) translate(4 1625)">
<title>myst_progression</title>
<polygon fill="#1f1f1f" stroke="none" points="-4,4 -4,-1625 2079.87,-1625 2079.87,4 -4,4"/>
<g id="clust5" class="cluster">
<title>cluster_selenetic</title>
<polygon fill="#1f1f1f" stroke="red" points="617,-459.5 617,-1019.75 981,-1019.75 981,-459.5 617,-459.5"/>
<text text-anchor="middle" x="799" y="-992.95" font-family="Helvetica,sans-Serif" font-weight="bold" font-size="24.00" fill="red">Selenetic Age</text>
</g>
<g id="clust6" class="cluster">
<title>cluster_mechanical</title>
<polygon fill="#1f1f1f" stroke="red" points="8,-459.5 8,-1019.75 609,-1019.75 609,-459.5 8,-459.5"/>
<text text-anchor="middle" x="308.5" y="-992.95" font-family="Helvetica,sans-Serif" font-weight="bold" font-size="24.00" fill="red">Mechanical Age</text>
</g>
<g id="clust7" class="cluster">
<title>cluster_stoneship</title>
<polygon fill="#1f1f1f" stroke="red" points="1524,-367 1524,-1019.75 2041,-1019.75 2041,-367 1524,-367"/>
<text text-anchor="middle" x="1782.5" y="-992.95" font-family="Helvetica,sans-Serif" font-weight="bold" font-size="24.00" fill="red">Stoneship Age</text>
</g>
<g id="clust8" class="cluster">
<title>cluster_channelwood</title>
<polygon fill="#1f1f1f" stroke="red" points="989,-367 989,-1019.75 1516,-1019.75 1516,-367 989,-367"/>
<text text-anchor="middle" x="1252.5" y="-992.95" font-family="Helvetica,sans-Serif" font-weight="bold" font-size="24.00" fill="red">Channelwood</text>
</g>
<!-- start -->
<g id="node1" class="node">
<title>start</title>
<path fill="#005000" stroke="#d9d9d9" d="M1294,-1621C1294,-1621 1264,-1621 1264,-1621 1258,-1621 1252,-1615 1252,-1609 1252,-1609 1252,-1597 1252,-1597 1252,-1591 1258,-1585 1264,-1585 1264,-1585 1294,-1585 1294,-1585 1300,-1585 1306,-1591 1306,-1597 1306,-1597 1306,-1609 1306,-1609 1306,-1615 1300,-1621 1294,-1621"/>
<text text-anchor="middle" x="1279" y="-1597.95" font-family="Helvetica,sans-Serif" font-size="14.00" fill="#e5e5e5">Start</text>
</g>
<!-- tower_rotation -->
<g id="node9" class="node">
<title>tower_rotation</title>
<path fill="none" stroke="#d9d9d9" d="M1170.75,-1528.5C1170.75,-1528.5 991.25,-1528.5 991.25,-1528.5 985.25,-1528.5 979.25,-1522.5 979.25,-1516.5 979.25,-1516.5 979.25,-1504.5 979.25,-1504.5 979.25,-1498.5 985.25,-1492.5 991.25,-1492.5 991.25,-1492.5 1170.75,-1492.5 1170.75,-1492.5 1176.75,-1492.5 1182.75,-1498.5 1182.75,-1504.5 1182.75,-1504.5 1182.75,-1516.5 1182.75,-1516.5 1182.75,-1522.5 1176.75,-1528.5 1170.75,-1528.5"/>
<text text-anchor="middle" x="1081" y="-1505.45" font-family="Helvetica,sans-Serif" font-size="14.00" fill="#e5e5e5">A button that rotates the tower</text>
</g>
<!-- start&#45;&gt;tower_rotation -->
<g id="edge5" class="edge">
<title>start&#45;&gt;tower_rotation</title>
<path fill="none" stroke="#d9d9d9" d="M1251.88,-1589.61C1220.42,-1575.23 1167.94,-1551.24 1129.42,-1533.63"/>
<polygon fill="#d9d9d9" stroke="#d9d9d9" points="1130.89,-1530.45 1120.34,-1529.48 1127.98,-1536.82 1130.89,-1530.45"/>
</g>
<!-- read_books -->
<g id="node10" class="node">
<title>read_books</title>
<path fill="#280060" stroke="#d9d9d9" d="M1654.5,-1346C1654.5,-1346 1527.5,-1346 1527.5,-1346 1521.5,-1346 1515.5,-1340 1515.5,-1334 1515.5,-1334 1515.5,-1317 1515.5,-1317 1515.5,-1311 1521.5,-1305 1527.5,-1305 1527.5,-1305 1654.5,-1305 1654.5,-1305 1660.5,-1305 1666.5,-1311 1666.5,-1317 1666.5,-1317 1666.5,-1334 1666.5,-1334 1666.5,-1340 1660.5,-1346 1654.5,-1346"/>
<text text-anchor="middle" x="1591" y="-1328.7" font-family="Helvetica,sans-Serif" font-size="14.00" fill="#e5e5e5">Library books bestow</text>
<text text-anchor="middle" x="1591" y="-1312.2" font-family="Helvetica,sans-Serif" font-size="14.00" fill="#e5e5e5">knowledge upon you</text>
</g>
<!-- start&#45;&gt;read_books -->
<g id="edge6" class="edge">
<title>start:e&#45;&gt;read_books</title>
<path fill="none" stroke="#d9d9d9" d="M1307,-1603C1374.26,-1603 1559.48,-1583.92 1601,-1531 1640.38,-1480.81 1619.63,-1400.49 1603.71,-1356.95"/>
<polygon fill="#d9d9d9" stroke="#d9d9d9" points="1606.98,-1355.71 1600.14,-1347.62 1600.44,-1358.21 1606.98,-1355.71"/>
</g>
<!-- basic_marker_switches -->
<g id="node11" class="node">
<title>basic_marker_switches</title>
<path fill="none" stroke="#d9d9d9" d="M1576.25,-1528.5C1576.25,-1528.5 1387.75,-1528.5 1387.75,-1528.5 1381.75,-1528.5 1375.75,-1522.5 1375.75,-1516.5 1375.75,-1516.5 1375.75,-1504.5 1375.75,-1504.5 1375.75,-1498.5 1381.75,-1492.5 1387.75,-1492.5 1387.75,-1492.5 1576.25,-1492.5 1576.25,-1492.5 1582.25,-1492.5 1588.25,-1498.5 1588.25,-1504.5 1588.25,-1504.5 1588.25,-1516.5 1588.25,-1516.5 1588.25,-1522.5 1582.25,-1528.5 1576.25,-1528.5"/>
<text text-anchor="start" x="1409.62" y="-1512.2" font-family="Helvetica,sans-Serif" font-size="14.00" fill="#e5e5e5">All the marker switches</text>
<text text-anchor="start" x="1383.75" y="-1498.2" font-family="Helvetica,sans-Serif" font-size="14.00" fill="#e5e5e5">enabled </text>
<text text-anchor="start" x="1438.5" y="-1498.2" font-family="Helvetica,sans-Serif" font-style="italic" font-size="14.00" fill="#e5e5e5">except </text>
<text text-anchor="start" x="1485.75" y="-1498.2" font-family="Helvetica,sans-Serif" font-size="14.00" fill="#e5e5e5">the clock tower</text>
</g>
<!-- start&#45;&gt;basic_marker_switches -->
<g id="edge7" class="edge">
<title>start&#45;&gt;basic_marker_switches</title>
<path fill="none" stroke="#d9d9d9" d="M1306.38,-1589.79C1338.66,-1575.4 1392.95,-1551.2 1432.64,-1533.5"/>
<polygon fill="#d9d9d9" stroke="#d9d9d9" points="1433.82,-1536.81 1441.52,-1529.54 1430.97,-1530.42 1433.82,-1536.81"/>
</g>
<!-- breaker_switches -->
<g id="node12" class="node">
<title>breaker_switches</title>
<path fill="none" stroke="#d9d9d9" d="M941.88,-1531C941.88,-1531 784.12,-1531 784.12,-1531 778.12,-1531 772.12,-1525 772.12,-1519 772.12,-1519 772.12,-1502 772.12,-1502 772.12,-1496 778.12,-1490 784.12,-1490 784.12,-1490 941.88,-1490 941.88,-1490 947.88,-1490 953.88,-1496 953.88,-1502 953.88,-1502 953.88,-1519 953.88,-1519 953.88,-1525 947.88,-1531 941.88,-1531"/>
<text text-anchor="middle" x="863" y="-1513.7" font-family="Helvetica,sans-Serif" font-size="14.00" fill="#e5e5e5">Switches on the electrical</text>
<text text-anchor="middle" x="863" y="-1497.2" font-family="Helvetica,sans-Serif" font-size="14.00" fill="#e5e5e5">towers reset the generator</text>
</g>
<!-- start&#45;&gt;breaker_switches -->
<g id="edge8" class="edge">
<title>start:w&#45;&gt;breaker_switches</title>
<path fill="none" stroke="#d9d9d9" d="M1251,-1603C1133.09,-1603 1000.27,-1562.47 924.61,-1535.36"/>
<polygon fill="#d9d9d9" stroke="#d9d9d9" points="925.89,-1532.1 915.3,-1531.98 923.5,-1538.68 925.89,-1532.1"/>
</g>
<!-- tower_access -->
<g id="node13" class="node">
<title>tower_access</title>
<path fill="none" stroke="#d9d9d9" d="M1338.38,-1531C1338.38,-1531 1219.62,-1531 1219.62,-1531 1213.62,-1531 1207.62,-1525 1207.62,-1519 1207.62,-1519 1207.62,-1502 1207.62,-1502 1207.62,-1496 1213.62,-1490 1219.62,-1490 1219.62,-1490 1338.38,-1490 1338.38,-1490 1344.38,-1490 1350.38,-1496 1350.38,-1502 1350.38,-1502 1350.38,-1519 1350.38,-1519 1350.38,-1525 1344.38,-1531 1338.38,-1531"/>
<text text-anchor="middle" x="1279" y="-1513.7" font-family="Helvetica,sans-Serif" font-size="14.00" fill="#e5e5e5">Library painting</text>
<text text-anchor="middle" x="1279" y="-1497.2" font-family="Helvetica,sans-Serif" font-size="14.00" fill="#e5e5e5">grants tower access</text>
</g>
<!-- start&#45;&gt;tower_access -->
<g id="edge4" class="edge">
<title>start&#45;&gt;tower_access</title>
<path fill="none" stroke="#d9d9d9" d="M1279,-1584.55C1279,-1572.67 1279,-1556.62 1279,-1542.59"/>
<polygon fill="#d9d9d9" stroke="#d9d9d9" points="1282.5,-1542.93 1279,-1532.93 1275.5,-1542.93 1282.5,-1542.93"/>
</g>
<!-- ending_trapped_atrus -->
<g id="node2" class="node">
<title>ending_trapped_atrus</title>
<path fill="#500000" stroke="#d9d9d9" d="M1149.25,-38.5C1149.25,-38.5 1038.75,-38.5 1038.75,-38.5 1032.75,-38.5 1026.75,-32.5 1026.75,-26.5 1026.75,-26.5 1026.75,-14.5 1026.75,-14.5 1026.75,-8.5 1032.75,-2.5 1038.75,-2.5 1038.75,-2.5 1149.25,-2.5 1149.25,-2.5 1155.25,-2.5 1161.25,-8.5 1161.25,-14.5 1161.25,-14.5 1161.25,-26.5 1161.25,-26.5 1161.25,-32.5 1155.25,-38.5 1149.25,-38.5"/>
<text text-anchor="middle" x="1094" y="-15.45" font-family="Helvetica,sans-Serif" font-size="14.00" fill="#e5e5e5">Trapped with Atrus</text>
</g>
<!-- ending_free_brother -->
<g id="node3" class="node">
<title>ending_free_brother</title>
<path fill="#500000" stroke="#d9d9d9" d="M1316,-41C1316,-41 1198,-41 1198,-41 1192,-41 1186,-35 1186,-29 1186,-29 1186,-12 1186,-12 1186,-6 1192,0 1198,0 1198,0 1316,0 1316,0 1322,0 1328,-6 1328,-12 1328,-12 1328,-29 1328,-29 1328,-35 1322,-41 1316,-41"/>
<text text-anchor="middle" x="1257" y="-23.7" font-family="Helvetica,sans-Serif" font-size="14.00" fill="#e5e5e5">You freed a brother,</text>
<text text-anchor="middle" x="1257" y="-7.2" font-family="Helvetica,sans-Serif" font-size="14.00" fill="#e5e5e5">but at what cost?</text>
</g>
<!-- ending_good -->
<g id="node4" class="node">
<title>ending_good</title>
<path fill="#500000" stroke="#d9d9d9" d="M1485,-38.5C1485,-38.5 1409,-38.5 1409,-38.5 1403,-38.5 1397,-32.5 1397,-26.5 1397,-26.5 1397,-14.5 1397,-14.5 1397,-8.5 1403,-2.5 1409,-2.5 1409,-2.5 1485,-2.5 1485,-2.5 1491,-2.5 1497,-8.5 1497,-14.5 1497,-14.5 1497,-26.5 1497,-26.5 1497,-32.5 1491,-38.5 1485,-38.5"/>
<text text-anchor="middle" x="1447" y="-15.45" font-family="Helvetica,sans-Serif" font-size="14.00" fill="#e5e5e5">Good Ending</text>
</g>
<!-- stoneship_access -->
<g id="node5" class="node">
<title>stoneship_access</title>
<path fill="none" stroke="#d9d9d9" d="M1841.75,-1066C1841.75,-1066 1758.25,-1066 1758.25,-1066 1752.25,-1066 1746.25,-1060 1746.25,-1054 1746.25,-1054 1746.25,-1042 1746.25,-1042 1746.25,-1036 1752.25,-1030 1758.25,-1030 1758.25,-1030 1841.75,-1030 1841.75,-1030 1847.75,-1030 1853.75,-1036 1853.75,-1042 1853.75,-1042 1853.75,-1054 1853.75,-1054 1853.75,-1060 1847.75,-1066 1841.75,-1066"/>
<text text-anchor="middle" x="1800" y="-1042.95" font-family="Helvetica,sans-Serif" font-size="14.00" fill="#e5e5e5">Boat is unsunk</text>
</g>
<!-- stoneship_entered -->
<g id="node44" class="node">
<title>stoneship_entered</title>
<path fill="none" stroke="#d9d9d9" d="M1895.12,-976C1895.12,-976 1750.88,-976 1750.88,-976 1744.88,-976 1738.88,-970 1738.88,-964 1738.88,-964 1738.88,-952 1738.88,-952 1738.88,-946 1744.88,-940 1750.88,-940 1750.88,-940 1895.12,-940 1895.12,-940 1901.12,-940 1907.12,-946 1907.12,-952 1907.12,-952 1907.12,-964 1907.12,-964 1907.12,-970 1901.12,-976 1895.12,-976"/>
<text text-anchor="middle" x="1823" y="-952.95" font-family="Helvetica,sans-Serif" font-size="14.00" fill="#e5e5e5">Enter the Stoneship age</text>
</g>
<!-- stoneship_access&#45;&gt;stoneship_entered -->
<g id="edge21" class="edge">
<title>stoneship_access&#45;&gt;stoneship_entered</title>
<path fill="none" stroke="#d9d9d9" d="M1804.54,-1029.61C1807.69,-1017.56 1811.96,-1001.24 1815.6,-987.33"/>
<polygon fill="#d9d9d9" stroke="#d9d9d9" points="1818.94,-988.37 1818.08,-977.81 1812.17,-986.6 1818.94,-988.37"/>
</g>
<!-- mechanical_access -->
<g id="node6" class="node">
<title>mechanical_access</title>
<path fill="#280060" stroke="#d9d9d9" d="M564,-1066C564,-1066 458,-1066 458,-1066 452,-1066 446,-1060 446,-1054 446,-1054 446,-1042 446,-1042 446,-1036 452,-1030 458,-1030 458,-1030 564,-1030 564,-1030 570,-1030 576,-1036 576,-1042 576,-1042 576,-1054 576,-1054 576,-1060 570,-1066 564,-1066"/>
<text text-anchor="middle" x="511" y="-1042.95" font-family="Helvetica,sans-Serif" font-size="14.00" fill="#e5e5e5">Open the big gear</text>
</g>
<!-- mechanical_entered -->
<g id="node35" class="node">
<title>mechanical_entered</title>
<path fill="none" stroke="#d9d9d9" d="M484.62,-976C484.62,-976 331.38,-976 331.38,-976 325.38,-976 319.38,-970 319.38,-964 319.38,-964 319.38,-952 319.38,-952 319.38,-946 325.38,-940 331.38,-940 331.38,-940 484.62,-940 484.62,-940 490.62,-940 496.62,-946 496.62,-952 496.62,-952 496.62,-964 496.62,-964 496.62,-970 490.62,-976 484.62,-976"/>
<text text-anchor="middle" x="408" y="-952.95" font-family="Helvetica,sans-Serif" font-size="14.00" fill="#e5e5e5">Enter the Mechanical Age</text>
</g>
<!-- mechanical_access&#45;&gt;mechanical_entered -->
<g id="edge34" class="edge">
<title>mechanical_access&#45;&gt;mechanical_entered</title>
<path fill="none" stroke="#d9d9d9" d="M490.65,-1029.61C475.27,-1016.48 453.96,-998.27 436.83,-983.63"/>
<polygon fill="#d9d9d9" stroke="#d9d9d9" points="439.33,-981.17 429.46,-977.33 434.79,-986.49 439.33,-981.17"/>
</g>
<!-- selenetic_access -->
<g id="node7" class="node">
<title>selenetic_access</title>
<path fill="none" stroke="#d9d9d9" d="M1011.12,-1066C1011.12,-1066 794.88,-1066 794.88,-1066 788.88,-1066 782.88,-1060 782.88,-1054 782.88,-1054 782.88,-1042 782.88,-1042 782.88,-1036 788.88,-1030 794.88,-1030 794.88,-1030 1011.12,-1030 1011.12,-1030 1017.12,-1030 1023.12,-1036 1023.12,-1042 1023.12,-1042 1023.12,-1054 1023.12,-1054 1023.12,-1060 1017.12,-1066 1011.12,-1066"/>
<text text-anchor="middle" x="903" y="-1042.95" font-family="Helvetica,sans-Serif" font-size="14.00" fill="#e5e5e5">Book appears on spaceship screen</text>
</g>
<!-- selenetic_entered -->
<g id="node28" class="node">
<title>selenetic_entered</title>
<path fill="none" stroke="#d9d9d9" d="M960.88,-976C960.88,-976 821.12,-976 821.12,-976 815.12,-976 809.12,-970 809.12,-964 809.12,-964 809.12,-952 809.12,-952 809.12,-946 815.12,-940 821.12,-940 821.12,-940 960.88,-940 960.88,-940 966.88,-940 972.88,-946 972.88,-952 972.88,-952 972.88,-964 972.88,-964 972.88,-970 966.88,-976 960.88,-976"/>
<text text-anchor="middle" x="891" y="-952.95" font-family="Helvetica,sans-Serif" font-size="14.00" fill="#e5e5e5">Enter the Selenetic age</text>
</g>
<!-- selenetic_access&#45;&gt;selenetic_entered -->
<g id="edge48" class="edge">
<title>selenetic_access&#45;&gt;selenetic_entered</title>
<path fill="none" stroke="#d9d9d9" d="M900.63,-1029.61C899,-1017.68 896.8,-1001.57 894.92,-987.74"/>
<polygon fill="#d9d9d9" stroke="#d9d9d9" points="898.39,-987.28 893.57,-977.85 891.45,-988.23 898.39,-987.28"/>
</g>
<!-- channelwood_access -->
<g id="node8" class="node">
<title>channelwood_access</title>
<path fill="#280060" stroke="#d9d9d9" d="M1332.38,-1066C1332.38,-1066 1117.62,-1066 1117.62,-1066 1111.62,-1066 1105.62,-1060 1105.62,-1054 1105.62,-1054 1105.62,-1042 1105.62,-1042 1105.62,-1036 1111.62,-1030 1117.62,-1030 1117.62,-1030 1332.38,-1030 1332.38,-1030 1338.38,-1030 1344.38,-1036 1344.38,-1042 1344.38,-1042 1344.38,-1054 1344.38,-1054 1344.38,-1060 1338.38,-1066 1332.38,-1066"/>
<text text-anchor="middle" x="1225" y="-1042.95" font-family="Helvetica,sans-Serif" font-size="14.00" fill="#e5e5e5">Find secret room under the big tree</text>
</g>
<!-- channelwood_entered -->
<g id="node54" class="node">
<title>channelwood_entered</title>
<path fill="none" stroke="#d9d9d9" d="M1282.88,-976C1282.88,-976 1167.12,-976 1167.12,-976 1161.12,-976 1155.12,-970 1155.12,-964 1155.12,-964 1155.12,-952 1155.12,-952 1155.12,-946 1161.12,-940 1167.12,-940 1167.12,-940 1282.88,-940 1282.88,-940 1288.88,-940 1294.88,-946 1294.88,-952 1294.88,-952 1294.88,-964 1294.88,-964 1294.88,-970 1288.88,-976 1282.88,-976"/>
<text text-anchor="middle" x="1225" y="-952.95" font-family="Helvetica,sans-Serif" font-size="14.00" fill="#e5e5e5">Enter Channelwood</text>
</g>
<!-- channelwood_access&#45;&gt;channelwood_entered -->
<g id="edge56" class="edge">
<title>channelwood_access&#45;&gt;channelwood_entered</title>
<path fill="none" stroke="#d9d9d9" d="M1225,-1029.61C1225,-1017.68 1225,-1001.57 1225,-987.74"/>
<polygon fill="#d9d9d9" stroke="#d9d9d9" points="1228.5,-987.86 1225,-977.86 1221.5,-987.86 1228.5,-987.86"/>
</g>
<!-- tower_aligned -->
<g id="node14" class="node">
<title>tower_aligned</title>
<path fill="#280060" stroke="#d9d9d9" d="M1373.25,-1436C1373.25,-1436 1184.75,-1436 1184.75,-1436 1178.75,-1436 1172.75,-1430 1172.75,-1424 1172.75,-1424 1172.75,-1412 1172.75,-1412 1172.75,-1406 1178.75,-1400 1184.75,-1400 1184.75,-1400 1373.25,-1400 1373.25,-1400 1379.25,-1400 1385.25,-1406 1385.25,-1412 1385.25,-1412 1385.25,-1424 1385.25,-1424 1385.25,-1430 1379.25,-1436 1373.25,-1436"/>
<text text-anchor="middle" x="1279" y="-1412.95" font-family="Helvetica,sans-Serif" font-size="14.00" fill="#e5e5e5">Align the tower to receive clues</text>
</g>
<!-- tower_rotation&#45;&gt;tower_aligned -->
<g id="edge10" class="edge">
<title>tower_rotation&#45;&gt;tower_aligned</title>
<path fill="none" stroke="#d9d9d9" d="M1119.18,-1492.05C1150.95,-1477.53 1196.37,-1456.77 1230.68,-1441.09"/>
<polygon fill="#d9d9d9" stroke="#d9d9d9" points="1231.92,-1444.37 1239.56,-1437.02 1229.01,-1438 1231.92,-1444.37"/>
</g>
<!-- tones_matched -->
<g id="node21" class="node">
<title>tones_matched</title>
<path fill="#280060" stroke="#d9d9d9" d="M1042.38,-1156C1042.38,-1156 845.62,-1156 845.62,-1156 839.62,-1156 833.62,-1150 833.62,-1144 833.62,-1144 833.62,-1132 833.62,-1132 833.62,-1126 839.62,-1120 845.62,-1120 845.62,-1120 1042.38,-1120 1042.38,-1120 1048.38,-1120 1054.38,-1126 1054.38,-1132 1054.38,-1132 1054.38,-1144 1054.38,-1144 1054.38,-1150 1048.38,-1156 1042.38,-1156"/>
<text text-anchor="middle" x="944" y="-1132.95" font-family="Helvetica,sans-Serif" font-size="14.00" fill="#e5e5e5">Perform an incredible piano solo</text>
</g>
<!-- read_books&#45;&gt;tones_matched -->
<g id="edge46" class="edge">
<title>read_books&#45;&gt;tones_matched</title>
<path fill="none" stroke="#d9d9d9" d="M1515.17,-1316.49C1432.93,-1306.47 1298.49,-1286.21 1187,-1251 1112.92,-1227.6 1031.93,-1186.98 984.67,-1161.62"/>
<polygon fill="#d9d9d9" stroke="#d9d9d9" points="986.62,-1158.7 976.16,-1157.02 983.29,-1164.85 986.62,-1158.7"/>
</g>
<!-- star_constellation_mapping -->
<g id="node25" class="node">
<title>star_constellation_mapping</title>
<path fill="none" stroke="#d9d9d9" d="M1659.75,-1251C1659.75,-1251 1522.25,-1251 1522.25,-1251 1516.25,-1251 1510.25,-1245 1510.25,-1239 1510.25,-1239 1510.25,-1222 1510.25,-1222 1510.25,-1216 1516.25,-1210 1522.25,-1210 1522.25,-1210 1659.75,-1210 1659.75,-1210 1665.75,-1210 1671.75,-1216 1671.75,-1222 1671.75,-1222 1671.75,-1239 1671.75,-1239 1671.75,-1245 1665.75,-1251 1659.75,-1251"/>
<text text-anchor="middle" x="1591" y="-1233.7" font-family="Helvetica,sans-Serif" font-size="14.00" fill="#e5e5e5">Learn star/constellation</text>
<text text-anchor="middle" x="1591" y="-1217.2" font-family="Helvetica,sans-Serif" font-size="14.00" fill="#e5e5e5">mapping from book</text>
</g>
<!-- read_books&#45;&gt;star_constellation_mapping -->
<g id="edge17" class="edge">
<title>read_books&#45;&gt;star_constellation_mapping</title>
<path fill="none" stroke="#d9d9d9" d="M1591,-1304.78C1591,-1292.45 1591,-1276.31 1591,-1262.31"/>
<polygon fill="#d9d9d9" stroke="#d9d9d9" points="1594.5,-1262.71 1591,-1252.71 1587.5,-1262.71 1594.5,-1262.71"/>
</g>
<!-- channelwood_door_opened -->
<g id="node59" class="node">
<title>channelwood_door_opened</title>
<path fill="#280060" stroke="#d9d9d9" d="M1495.5,-696C1495.5,-696 1338.5,-696 1338.5,-696 1332.5,-696 1326.5,-690 1326.5,-684 1326.5,-684 1326.5,-667 1326.5,-667 1326.5,-661 1332.5,-655 1338.5,-655 1338.5,-655 1495.5,-655 1495.5,-655 1501.5,-655 1507.5,-661 1507.5,-667 1507.5,-667 1507.5,-684 1507.5,-684 1507.5,-690 1501.5,-696 1495.5,-696"/>
<text text-anchor="middle" x="1417" y="-678.7" font-family="Helvetica,sans-Serif" font-size="14.00" fill="#e5e5e5">Pull the well&#45;hidden lever</text>
<text text-anchor="middle" x="1417" y="-662.2" font-family="Helvetica,sans-Serif" font-size="14.00" fill="#e5e5e5">to open the staircase door</text>
</g>
<!-- read_books&#45;&gt;channelwood_door_opened -->
<g id="edge3" class="edge">
<title>read_books&#45;&gt;channelwood_door_opened</title>
<g id="a_edge3"><a xlink:title="You can find the lever via dumb luck">
<path fill="none" stroke="#d9d9d9" stroke-dasharray="5,2" d="M1563.54,-1304.76C1544.46,-1290.58 1518.84,-1270.6 1498,-1251 1456.73,-1212.18 1433.22,-1208.92 1413,-1156 1407.29,-1141.05 1411.91,-1135.96 1413,-1120 1423.02,-972.76 1447.98,-938.24 1458,-791 1459.24,-772.82 1462.59,-767.64 1458,-750 1453.93,-734.34 1445.7,-718.47 1437.68,-705.5"/>
<polygon fill="#d9d9d9" stroke="#d9d9d9" points="1440.86,-703.97 1432.48,-697.48 1434.98,-707.77 1440.86,-703.97"/>
</a>
</g>
</g>
<!-- basic_marker_switches&#45;&gt;tower_aligned -->
<g id="edge11" class="edge">
<title>basic_marker_switches&#45;&gt;tower_aligned</title>
<path fill="none" stroke="#d9d9d9" d="M1442.86,-1492.05C1410.14,-1477.46 1363.31,-1456.59 1328.09,-1440.88"/>
<polygon fill="#d9d9d9" stroke="#d9d9d9" points="1329.96,-1437.89 1319.4,-1437.01 1327.11,-1444.28 1329.96,-1437.89"/>
</g>
<!-- all_marker_switches -->
<g id="node19" class="node">
<title>all_marker_switches</title>
<path fill="none" stroke="#d9d9d9" d="M2059.12,-1066C2059.12,-1066 1890.88,-1066 1890.88,-1066 1884.88,-1066 1878.88,-1060 1878.88,-1054 1878.88,-1054 1878.88,-1042 1878.88,-1042 1878.88,-1036 1884.88,-1030 1890.88,-1030 1890.88,-1030 2059.12,-1030 2059.12,-1030 2065.12,-1030 2071.12,-1036 2071.12,-1042 2071.12,-1042 2071.12,-1054 2071.12,-1054 2071.12,-1060 2065.12,-1066 2059.12,-1066"/>
<text text-anchor="middle" x="1975" y="-1042.95" font-family="Helvetica,sans-Serif" font-size="14.00" fill="#e5e5e5">All marker switches enabled</text>
</g>
<!-- basic_marker_switches&#45;&gt;all_marker_switches -->
<g id="edge88" class="edge">
<title>basic_marker_switches&#45;&gt;all_marker_switches</title>
<path fill="none" stroke="#d9d9d9" d="M1586.17,-1492.01C1729.24,-1465 1969,-1407.62 1969,-1326.5 1969,-1326.5 1969,-1326.5 1969,-1229.5 1969,-1175.93 1971.67,-1113.47 1973.45,-1077.84"/>
<polygon fill="#d9d9d9" stroke="#d9d9d9" points="1976.94,-1078.1 1973.96,-1067.93 1969.95,-1077.74 1976.94,-1078.1"/>
</g>
<!-- voltage_set -->
<g id="node20" class="node">
<title>voltage_set</title>
<path fill="#280060" stroke="#d9d9d9" d="M1030.25,-1251C1030.25,-1251 883.75,-1251 883.75,-1251 877.75,-1251 871.75,-1245 871.75,-1239 871.75,-1239 871.75,-1222 871.75,-1222 871.75,-1216 877.75,-1210 883.75,-1210 883.75,-1210 1030.25,-1210 1030.25,-1210 1036.25,-1210 1042.25,-1216 1042.25,-1222 1042.25,-1222 1042.25,-1239 1042.25,-1239 1042.25,-1245 1036.25,-1251 1030.25,-1251"/>
<text text-anchor="middle" x="957" y="-1233.7" font-family="Helvetica,sans-Serif" font-size="14.00" fill="#e5e5e5">Perform math to achieve</text>
<text text-anchor="middle" x="957" y="-1217.2" font-family="Helvetica,sans-Serif" font-size="14.00" fill="#e5e5e5">the perfect voltage</text>
</g>
<!-- breaker_switches&#45;&gt;voltage_set -->
<g id="edge1" class="edge">
<title>breaker_switches&#45;&gt;voltage_set</title>
<g id="a_edge1"><a xlink:title="If you never fail you don&#39;t need to reset">
<path fill="none" stroke="#d9d9d9" stroke-dasharray="5,2" d="M869.76,-1489.51C885.99,-1441.52 927.22,-1319.56 946.62,-1262.2"/>
<polygon fill="#d9d9d9" stroke="#d9d9d9" points="949.93,-1263.34 949.82,-1252.75 943.3,-1261.1 949.93,-1263.34"/>
</a>
</g>
</g>
<!-- tower_access&#45;&gt;tower_aligned -->
<g id="edge9" class="edge">
<title>tower_access&#45;&gt;tower_aligned</title>
<path fill="none" stroke="#d9d9d9" d="M1279,-1489.86C1279,-1477.56 1279,-1461.49 1279,-1447.76"/>
<polygon fill="#d9d9d9" stroke="#d9d9d9" points="1282.5,-1447.97 1279,-1437.97 1275.5,-1447.97 1282.5,-1447.97"/>
</g>
<!-- stoneship_clue -->
<g id="node15" class="node">
<title>stoneship_clue</title>
<path fill="none" stroke="#d9d9d9" d="M1819.88,-1343.5C1819.88,-1343.5 1734.12,-1343.5 1734.12,-1343.5 1728.12,-1343.5 1722.12,-1337.5 1722.12,-1331.5 1722.12,-1331.5 1722.12,-1319.5 1722.12,-1319.5 1722.12,-1313.5 1728.12,-1307.5 1734.12,-1307.5 1734.12,-1307.5 1819.88,-1307.5 1819.88,-1307.5 1825.88,-1307.5 1831.88,-1313.5 1831.88,-1319.5 1831.88,-1319.5 1831.88,-1331.5 1831.88,-1331.5 1831.88,-1337.5 1825.88,-1343.5 1819.88,-1343.5"/>
<text text-anchor="middle" x="1777" y="-1320.45" font-family="Helvetica,sans-Serif" font-size="14.00" fill="#e5e5e5">Stoneship clue</text>
</g>
<!-- tower_aligned&#45;&gt;stoneship_clue -->
<g id="edge12" class="edge">
<title>tower_aligned&#45;&gt;stoneship_clue</title>
<path fill="none" stroke="#d9d9d9" d="M1380.62,-1399.56C1461.53,-1385.53 1577.63,-1365.08 1679,-1346 1689.31,-1344.06 1700.22,-1341.95 1710.87,-1339.85"/>
<polygon fill="#d9d9d9" stroke="#d9d9d9" points="1711.22,-1343.35 1720.36,-1337.98 1709.87,-1336.48 1711.22,-1343.35"/>
</g>
<!-- mechanical_clue -->
<g id="node16" class="node">
<title>mechanical_clue</title>
<path fill="none" stroke="#d9d9d9" d="M1361.25,-1343.5C1361.25,-1343.5 1268.75,-1343.5 1268.75,-1343.5 1262.75,-1343.5 1256.75,-1337.5 1256.75,-1331.5 1256.75,-1331.5 1256.75,-1319.5 1256.75,-1319.5 1256.75,-1313.5 1262.75,-1307.5 1268.75,-1307.5 1268.75,-1307.5 1361.25,-1307.5 1361.25,-1307.5 1367.25,-1307.5 1373.25,-1313.5 1373.25,-1319.5 1373.25,-1319.5 1373.25,-1331.5 1373.25,-1331.5 1373.25,-1337.5 1367.25,-1343.5 1361.25,-1343.5"/>
<text text-anchor="middle" x="1315" y="-1320.45" font-family="Helvetica,sans-Serif" font-size="14.00" fill="#e5e5e5">Mechanical clue</text>
</g>
<!-- tower_aligned&#45;&gt;mechanical_clue -->
<g id="edge13" class="edge">
<title>tower_aligned&#45;&gt;mechanical_clue</title>
<path fill="none" stroke="#d9d9d9" d="M1285.94,-1399.55C1291.02,-1386.78 1298.02,-1369.19 1303.88,-1354.47"/>
<polygon fill="#d9d9d9" stroke="#d9d9d9" points="1307.08,-1355.89 1307.52,-1345.3 1300.57,-1353.3 1307.08,-1355.89"/>
</g>
<!-- selenetic_clue -->
<g id="node17" class="node">
<title>selenetic_clue</title>
<path fill="none" stroke="#d9d9d9" d="M1056.62,-1343.5C1056.62,-1343.5 975.38,-1343.5 975.38,-1343.5 969.38,-1343.5 963.38,-1337.5 963.38,-1331.5 963.38,-1331.5 963.38,-1319.5 963.38,-1319.5 963.38,-1313.5 969.38,-1307.5 975.38,-1307.5 975.38,-1307.5 1056.62,-1307.5 1056.62,-1307.5 1062.62,-1307.5 1068.62,-1313.5 1068.62,-1319.5 1068.62,-1319.5 1068.62,-1331.5 1068.62,-1331.5 1068.62,-1337.5 1062.62,-1343.5 1056.62,-1343.5"/>
<text text-anchor="middle" x="1016" y="-1320.45" font-family="Helvetica,sans-Serif" font-size="14.00" fill="#e5e5e5">Selenetic clue</text>
</g>
<!-- tower_aligned&#45;&gt;selenetic_clue -->
<g id="edge14" class="edge">
<title>tower_aligned&#45;&gt;selenetic_clue</title>
<path fill="none" stroke="#d9d9d9" d="M1228.29,-1399.55C1185.18,-1384.71 1123.14,-1363.37 1077.26,-1347.58"/>
<polygon fill="#d9d9d9" stroke="#d9d9d9" points="1078.58,-1344.33 1067.98,-1344.39 1076.3,-1350.95 1078.58,-1344.33"/>
</g>
<!-- channelwood_clue -->
<g id="node18" class="node">
<title>channelwood_clue</title>
<path fill="none" stroke="#d9d9d9" d="M1218.12,-1343.5C1218.12,-1343.5 1109.88,-1343.5 1109.88,-1343.5 1103.88,-1343.5 1097.88,-1337.5 1097.88,-1331.5 1097.88,-1331.5 1097.88,-1319.5 1097.88,-1319.5 1097.88,-1313.5 1103.88,-1307.5 1109.88,-1307.5 1109.88,-1307.5 1218.12,-1307.5 1218.12,-1307.5 1224.12,-1307.5 1230.12,-1313.5 1230.12,-1319.5 1230.12,-1319.5 1230.12,-1331.5 1230.12,-1331.5 1230.12,-1337.5 1224.12,-1343.5 1218.12,-1343.5"/>
<text text-anchor="middle" x="1164" y="-1320.45" font-family="Helvetica,sans-Serif" font-size="14.00" fill="#e5e5e5">Channelwood clue</text>
</g>
<!-- tower_aligned&#45;&gt;channelwood_clue -->
<g id="edge15" class="edge">
<title>tower_aligned&#45;&gt;channelwood_clue</title>
<path fill="none" stroke="#d9d9d9" d="M1256.83,-1399.55C1239.25,-1385.72 1214.47,-1366.22 1194.94,-1350.85"/>
<polygon fill="#d9d9d9" stroke="#d9d9d9" points="1197.32,-1348.27 1187.29,-1344.83 1192.99,-1353.77 1197.32,-1348.27"/>
</g>
<!-- date_star_mapping -->
<g id="node24" class="node">
<title>date_star_mapping</title>
<path fill="none" stroke="#d9d9d9" d="M1907.12,-1248.5C1907.12,-1248.5 1708.88,-1248.5 1708.88,-1248.5 1702.88,-1248.5 1696.88,-1242.5 1696.88,-1236.5 1696.88,-1236.5 1696.88,-1224.5 1696.88,-1224.5 1696.88,-1218.5 1702.88,-1212.5 1708.88,-1212.5 1708.88,-1212.5 1907.12,-1212.5 1907.12,-1212.5 1913.12,-1212.5 1919.12,-1218.5 1919.12,-1224.5 1919.12,-1224.5 1919.12,-1236.5 1919.12,-1236.5 1919.12,-1242.5 1913.12,-1248.5 1907.12,-1248.5"/>
<text text-anchor="middle" x="1808" y="-1225.45" font-family="Helvetica,sans-Serif" font-size="14.00" fill="#e5e5e5">Use the spooky chair to get stars</text>
</g>
<!-- stoneship_clue&#45;&gt;date_star_mapping -->
<g id="edge16" class="edge">
<title>stoneship_clue&#45;&gt;date_star_mapping</title>
<path fill="none" stroke="#d9d9d9" d="M1782.83,-1307.01C1787.29,-1293.63 1793.53,-1274.91 1798.68,-1259.46"/>
<polygon fill="#d9d9d9" stroke="#d9d9d9" points="1801.87,-1260.94 1801.72,-1250.35 1795.23,-1258.73 1801.87,-1260.94"/>
</g>
<!-- clocktower_bridge_raised -->
<g id="node22" class="node">
<title>clocktower_bridge_raised</title>
<path fill="#280060" stroke="#d9d9d9" d="M1422.12,-1248.5C1422.12,-1248.5 1211.88,-1248.5 1211.88,-1248.5 1205.88,-1248.5 1199.88,-1242.5 1199.88,-1236.5 1199.88,-1236.5 1199.88,-1224.5 1199.88,-1224.5 1199.88,-1218.5 1205.88,-1212.5 1211.88,-1212.5 1211.88,-1212.5 1422.12,-1212.5 1422.12,-1212.5 1428.12,-1212.5 1434.12,-1218.5 1434.12,-1224.5 1434.12,-1224.5 1434.12,-1236.5 1434.12,-1236.5 1434.12,-1242.5 1428.12,-1248.5 1422.12,-1248.5"/>
<text text-anchor="middle" x="1317" y="-1225.45" font-family="Helvetica,sans-Serif" font-size="14.00" fill="#e5e5e5">Raise the bridge to the clock tower</text>
</g>
<!-- mechanical_clue&#45;&gt;clocktower_bridge_raised -->
<g id="edge31" class="edge">
<title>mechanical_clue&#45;&gt;clocktower_bridge_raised</title>
<path fill="none" stroke="#d9d9d9" d="M1315.38,-1307.01C1315.66,-1293.89 1316.05,-1275.64 1316.38,-1260.37"/>
<polygon fill="#d9d9d9" stroke="#d9d9d9" points="1319.88,-1260.5 1316.59,-1250.43 1312.88,-1260.35 1319.88,-1260.5"/>
</g>
<!-- selenetic_clue&#45;&gt;voltage_set -->
<g id="edge44" class="edge">
<title>selenetic_clue&#45;&gt;voltage_set</title>
<path fill="none" stroke="#d9d9d9" d="M1004.9,-1307.01C996.69,-1294.06 985.3,-1276.11 975.69,-1260.97"/>
<polygon fill="#d9d9d9" stroke="#d9d9d9" points="978.81,-1259.34 970.5,-1252.78 972.9,-1263.09 978.81,-1259.34"/>
</g>
<!-- furnace_manipulation -->
<g id="node27" class="node">
<title>furnace_manipulation</title>
<path fill="none" stroke="#d9d9d9" d="M1308,-1156C1308,-1156 1142,-1156 1142,-1156 1136,-1156 1130,-1150 1130,-1144 1130,-1144 1130,-1132 1130,-1132 1130,-1126 1136,-1120 1142,-1120 1142,-1120 1308,-1120 1308,-1120 1314,-1120 1320,-1126 1320,-1132 1320,-1132 1320,-1144 1320,-1144 1320,-1150 1314,-1156 1308,-1156"/>
<text text-anchor="middle" x="1225" y="-1132.95" font-family="Helvetica,sans-Serif" font-size="14.00" fill="#e5e5e5">Get matches. Light furnace.</text>
</g>
<!-- channelwood_clue&#45;&gt;furnace_manipulation -->
<g id="edge54" class="edge">
<title>channelwood_clue&#45;&gt;furnace_manipulation</title>
<path fill="none" stroke="#d9d9d9" d="M1165.9,-1307C1168.73,-1284.17 1175.07,-1243.2 1187,-1210 1192.44,-1194.84 1200.68,-1178.95 1208.1,-1166.05"/>
<polygon fill="#d9d9d9" stroke="#d9d9d9" points="1210.95,-1168.11 1213.03,-1157.72 1204.93,-1164.54 1210.95,-1168.11"/>
</g>
<!-- white_page_obtained -->
<g id="node67" class="node">
<title>white_page_obtained</title>
<path fill="none" stroke="#d9d9d9" d="M1511.25,-131C1511.25,-131 1382.75,-131 1382.75,-131 1376.75,-131 1370.75,-125 1370.75,-119 1370.75,-119 1370.75,-107 1370.75,-107 1370.75,-101 1376.75,-95 1382.75,-95 1382.75,-95 1511.25,-95 1511.25,-95 1517.25,-95 1523.25,-101 1523.25,-107 1523.25,-107 1523.25,-119 1523.25,-119 1523.25,-125 1517.25,-131 1511.25,-131"/>
<text text-anchor="middle" x="1447" y="-107.95" font-family="Helvetica,sans-Serif" font-size="14.00" fill="#e5e5e5">Obtain the white page</text>
</g>
<!-- all_marker_switches&#45;&gt;white_page_obtained -->
<g id="edge89" class="edge">
<title>all_marker_switches&#45;&gt;white_page_obtained</title>
<path fill="none" stroke="#d9d9d9" d="M2036.08,-1029.72C2040.16,-1026.89 2043.88,-1023.59 2047,-1019.75 2090.47,-966.24 2071,-935.44 2071,-866.5 2071,-866.5 2071,-866.5 2071,-299.5 2071,-188.96 1706.69,-139.05 1534.8,-121.65"/>
<polygon fill="#d9d9d9" stroke="#d9d9d9" points="1535.32,-118.18 1525.02,-120.67 1534.62,-125.15 1535.32,-118.18"/>
</g>
<!-- voltage_set&#45;&gt;tones_matched -->
<g id="edge45" class="edge">
<title>voltage_set&#45;&gt;tones_matched</title>
<path fill="none" stroke="#d9d9d9" d="M954.18,-1209.86C952.41,-1197.56 950.1,-1181.49 948.13,-1167.76"/>
<polygon fill="#d9d9d9" stroke="#d9d9d9" points="951.61,-1167.36 946.72,-1157.96 944.68,-1168.35 951.61,-1167.36"/>
</g>
<!-- tones_matched&#45;&gt;selenetic_access -->
<g id="edge47" class="edge">
<title>tones_matched&#45;&gt;selenetic_access</title>
<path fill="none" stroke="#d9d9d9" d="M935.9,-1119.61C930.17,-1107.32 922.38,-1090.59 915.81,-1076.49"/>
<polygon fill="#d9d9d9" stroke="#d9d9d9" points="919.12,-1075.31 911.72,-1067.72 912.77,-1078.26 919.12,-1075.31"/>
</g>
<!-- clocktower_bridge_raised&#45;&gt;mechanical_access -->
<g id="edge33" class="edge">
<title>clocktower_bridge_raised&#45;&gt;mechanical_access</title>
<path fill="none" stroke="#d9d9d9" d="M1257.81,-1212.13C1217.29,-1199.17 1162.98,-1179.66 1118,-1156 1093.44,-1143.08 1092.86,-1130.05 1067,-1120 981.19,-1086.63 718.43,-1063.8 587.22,-1054.16"/>
<polygon fill="#d9d9d9" stroke="#d9d9d9" points="587.82,-1050.7 577.6,-1053.46 587.32,-1057.68 587.82,-1050.7"/>
</g>
<!-- clocktower_marker_switch -->
<g id="node23" class="node">
<title>clocktower_marker_switch</title>
<path fill="none" stroke="#d9d9d9" d="M1662.25,-1156C1662.25,-1156 1437.75,-1156 1437.75,-1156 1431.75,-1156 1425.75,-1150 1425.75,-1144 1425.75,-1144 1425.75,-1132 1425.75,-1132 1425.75,-1126 1431.75,-1120 1437.75,-1120 1437.75,-1120 1662.25,-1120 1662.25,-1120 1668.25,-1120 1674.25,-1126 1674.25,-1132 1674.25,-1132 1674.25,-1144 1674.25,-1144 1674.25,-1150 1668.25,-1156 1662.25,-1156"/>
<text text-anchor="middle" x="1550" y="-1132.95" font-family="Helvetica,sans-Serif" font-size="14.00" fill="#e5e5e5">Enable the clock tower marker switch</text>
</g>
<!-- clocktower_bridge_raised&#45;&gt;clocktower_marker_switch -->
<g id="edge32" class="edge">
<title>clocktower_bridge_raised&#45;&gt;clocktower_marker_switch</title>
<path fill="none" stroke="#d9d9d9" d="M1361.92,-1212.05C1399.8,-1197.34 1454.15,-1176.23 1494.7,-1160.48"/>
<polygon fill="#d9d9d9" stroke="#d9d9d9" points="1495.75,-1163.83 1503.8,-1156.94 1493.21,-1157.3 1495.75,-1163.83"/>
</g>
<!-- clocktower_marker_switch&#45;&gt;all_marker_switches -->
<g id="edge87" class="edge">
<title>clocktower_marker_switch&#45;&gt;all_marker_switches</title>
<path fill="none" stroke="#d9d9d9" d="M1634.47,-1119.51C1705.16,-1104.87 1805.99,-1084 1879.58,-1068.76"/>
<polygon fill="#d9d9d9" stroke="#d9d9d9" points="1880.12,-1072.22 1889.2,-1066.76 1878.7,-1065.37 1880.12,-1072.22"/>
</g>
<!-- constellation_known -->
<g id="node26" class="node">
<title>constellation_known</title>
<path fill="#280060" stroke="#d9d9d9" d="M1883.38,-1156C1883.38,-1156 1716.62,-1156 1716.62,-1156 1710.62,-1156 1704.62,-1150 1704.62,-1144 1704.62,-1144 1704.62,-1132 1704.62,-1132 1704.62,-1126 1710.62,-1120 1716.62,-1120 1716.62,-1120 1883.38,-1120 1883.38,-1120 1889.38,-1120 1895.38,-1126 1895.38,-1132 1895.38,-1132 1895.38,-1144 1895.38,-1144 1895.38,-1150 1889.38,-1156 1883.38,-1156"/>
<text text-anchor="middle" x="1800" y="-1132.95" font-family="Helvetica,sans-Serif" font-size="14.00" fill="#e5e5e5">Double mapping code entry</text>
</g>
<!-- date_star_mapping&#45;&gt;constellation_known -->
<g id="edge19" class="edge">
<title>date_star_mapping&#45;&gt;constellation_known</title>
<path fill="none" stroke="#d9d9d9" d="M1806.46,-1212.05C1805.35,-1199.53 1803.83,-1182.37 1802.55,-1167.83"/>
<polygon fill="#d9d9d9" stroke="#d9d9d9" points="1806.04,-1167.56 1801.67,-1157.9 1799.07,-1168.17 1806.04,-1167.56"/>
</g>
<!-- star_constellation_mapping&#45;&gt;constellation_known -->
<g id="edge18" class="edge">
<title>star_constellation_mapping&#45;&gt;constellation_known</title>
<path fill="none" stroke="#d9d9d9" d="M1637.12,-1209.53C1670.35,-1195.14 1715.17,-1175.73 1749.38,-1160.92"/>
<polygon fill="#d9d9d9" stroke="#d9d9d9" points="1750.46,-1164.26 1758.25,-1157.08 1747.68,-1157.84 1750.46,-1164.26"/>
</g>
<!-- constellation_known&#45;&gt;stoneship_access -->
<g id="edge20" class="edge">
<title>constellation_known&#45;&gt;stoneship_access</title>
<path fill="none" stroke="#d9d9d9" d="M1800,-1119.61C1800,-1107.68 1800,-1091.57 1800,-1077.74"/>
<polygon fill="#d9d9d9" stroke="#d9d9d9" points="1803.5,-1077.86 1800,-1067.86 1796.5,-1077.86 1803.5,-1077.86"/>
</g>
<!-- furnace_manipulation&#45;&gt;channelwood_access -->
<g id="edge55" class="edge">
<title>furnace_manipulation&#45;&gt;channelwood_access</title>
<path fill="none" stroke="#d9d9d9" d="M1225,-1119.61C1225,-1107.68 1225,-1091.57 1225,-1077.74"/>
<polygon fill="#d9d9d9" stroke="#d9d9d9" points="1228.5,-1077.86 1225,-1067.86 1221.5,-1077.86 1228.5,-1077.86"/>
</g>
<!-- selenetic_page_found -->
<g id="node29" class="node">
<title>selenetic_page_found</title>
<path fill="none" stroke="#d9d9d9" d="M961.38,-601C961.38,-601 836.62,-601 836.62,-601 830.62,-601 824.62,-595 824.62,-589 824.62,-589 824.62,-572 824.62,-572 824.62,-566 830.62,-560 836.62,-560 836.62,-560 961.38,-560 961.38,-560 967.38,-560 973.38,-566 973.38,-572 973.38,-572 973.38,-589 973.38,-589 973.38,-595 967.38,-601 961.38,-601"/>
<text text-anchor="middle" x="899" y="-583.7" font-family="Helvetica,sans-Serif" font-size="14.00" fill="#e5e5e5">Find a page just lying</text>
<text text-anchor="middle" x="899" y="-567.2" font-family="Helvetica,sans-Serif" font-size="14.00" fill="#e5e5e5">around the outdoors</text>
</g>
<!-- selenetic_entered&#45;&gt;selenetic_page_found -->
<g id="edge49" class="edge">
<title>selenetic_entered&#45;&gt;selenetic_page_found</title>
<path fill="none" stroke="#d9d9d9" d="M891.36,-939.89C892.61,-881.33 896.72,-688.37 898.34,-612.52"/>
<polygon fill="#d9d9d9" stroke="#d9d9d9" points="901.83,-612.97 898.54,-602.9 894.83,-612.82 901.83,-612.97"/>
</g>
<!-- activate_microphones -->
<g id="node30" class="node">
<title>activate_microphones</title>
<path fill="#280060" stroke="#d9d9d9" d="M840.38,-886C840.38,-886 739.62,-886 739.62,-886 733.62,-886 727.62,-880 727.62,-874 727.62,-874 727.62,-857 727.62,-857 727.62,-851 733.62,-845 739.62,-845 739.62,-845 840.38,-845 840.38,-845 846.38,-845 852.38,-851 852.38,-857 852.38,-857 852.38,-874 852.38,-874 852.38,-880 846.38,-886 840.38,-886"/>
<text text-anchor="middle" x="790" y="-868.7" font-family="Helvetica,sans-Serif" font-size="14.00" fill="#e5e5e5">Find and activate</text>
<text text-anchor="middle" x="790" y="-852.2" font-family="Helvetica,sans-Serif" font-size="14.00" fill="#e5e5e5">five microphones</text>
</g>
<!-- selenetic_entered&#45;&gt;activate_microphones -->
<g id="edge50" class="edge">
<title>selenetic_entered&#45;&gt;activate_microphones</title>
<path fill="none" stroke="#d9d9d9" d="M871.53,-939.55C857.08,-926.6 837.1,-908.7 820.53,-893.86"/>
<polygon fill="#d9d9d9" stroke="#d9d9d9" points="823.14,-891.49 813.35,-887.43 818.47,-896.71 823.14,-891.49"/>
</g>
<!-- selenetic_complete -->
<g id="node34" class="node">
<title>selenetic_complete</title>
<path fill="none" stroke="#d9d9d9" d="M961.12,-503.5C961.12,-503.5 810.88,-503.5 810.88,-503.5 804.88,-503.5 798.88,-497.5 798.88,-491.5 798.88,-491.5 798.88,-479.5 798.88,-479.5 798.88,-473.5 804.88,-467.5 810.88,-467.5 810.88,-467.5 961.12,-467.5 961.12,-467.5 967.12,-467.5 973.12,-473.5 973.12,-479.5 973.12,-479.5 973.12,-491.5 973.12,-491.5 973.12,-497.5 967.12,-503.5 961.12,-503.5"/>
<text text-anchor="middle" x="886" y="-480.45" font-family="Helvetica,sans-Serif" font-size="14.00" fill="#e5e5e5">Selenetic age completed</text>
</g>
<!-- selenetic_page_found&#45;&gt;selenetic_complete -->
<g id="edge71" class="edge">
<title>selenetic_page_found&#45;&gt;selenetic_complete</title>
<path fill="none" stroke="#d9d9d9" d="M896.24,-559.78C894.44,-546.86 892.05,-529.77 890.03,-515.34"/>
<polygon fill="#d9d9d9" stroke="#d9d9d9" points="893.51,-514.92 888.66,-505.5 886.57,-515.89 893.51,-514.92"/>
</g>
<!-- align_microphones -->
<g id="node31" class="node">
<title>align_microphones</title>
<path fill="none" stroke="#d9d9d9" d="M855.88,-788.5C855.88,-788.5 680.12,-788.5 680.12,-788.5 674.12,-788.5 668.12,-782.5 668.12,-776.5 668.12,-776.5 668.12,-764.5 668.12,-764.5 668.12,-758.5 674.12,-752.5 680.12,-752.5 680.12,-752.5 855.88,-752.5 855.88,-752.5 861.88,-752.5 867.88,-758.5 867.88,-764.5 867.88,-764.5 867.88,-776.5 867.88,-776.5 867.88,-782.5 861.88,-788.5 855.88,-788.5"/>
<text text-anchor="middle" x="768" y="-765.45" font-family="Helvetica,sans-Serif" font-size="14.00" fill="#e5e5e5">Find the microphone controls</text>
</g>
<!-- activate_microphones&#45;&gt;align_microphones -->
<g id="edge51" class="edge">
<title>activate_microphones&#45;&gt;align_microphones</title>
<path fill="none" stroke="#d9d9d9" d="M785.33,-844.78C782.25,-831.73 778.16,-814.43 774.72,-799.91"/>
<polygon fill="#d9d9d9" stroke="#d9d9d9" points="778.2,-799.4 772.49,-790.47 771.38,-801.01 778.2,-799.4"/>
</g>
<!-- door_code -->
<g id="node32" class="node">
<title>door_code</title>
<path fill="#280060" stroke="#d9d9d9" d="M826.12,-693.5C826.12,-693.5 705.88,-693.5 705.88,-693.5 699.88,-693.5 693.88,-687.5 693.88,-681.5 693.88,-681.5 693.88,-669.5 693.88,-669.5 693.88,-663.5 699.88,-657.5 705.88,-657.5 705.88,-657.5 826.12,-657.5 826.12,-657.5 832.12,-657.5 838.12,-663.5 838.12,-669.5 838.12,-669.5 838.12,-681.5 838.12,-681.5 838.12,-687.5 832.12,-693.5 826.12,-693.5"/>
<text text-anchor="middle" x="766" y="-670.45" font-family="Helvetica,sans-Serif" font-size="14.00" fill="#e5e5e5">Learn the door code</text>
</g>
<!-- align_microphones&#45;&gt;door_code -->
<g id="edge52" class="edge">
<title>align_microphones&#45;&gt;door_code</title>
<path fill="none" stroke="#d9d9d9" d="M767.62,-752.01C767.34,-738.89 766.95,-720.64 766.62,-705.37"/>
<polygon fill="#d9d9d9" stroke="#d9d9d9" points="770.12,-705.35 766.41,-695.43 763.12,-705.5 770.12,-705.35"/>
</g>
<!-- selenetic_exit_unlocked -->
<g id="node33" class="node">
<title>selenetic_exit_unlocked</title>
<path fill="#280060" stroke="#d9d9d9" d="M787.12,-598.5C787.12,-598.5 636.88,-598.5 636.88,-598.5 630.88,-598.5 624.88,-592.5 624.88,-586.5 624.88,-586.5 624.88,-574.5 624.88,-574.5 624.88,-568.5 630.88,-562.5 636.88,-562.5 636.88,-562.5 787.12,-562.5 787.12,-562.5 793.12,-562.5 799.12,-568.5 799.12,-574.5 799.12,-574.5 799.12,-586.5 799.12,-586.5 799.12,-592.5 793.12,-598.5 787.12,-598.5"/>
<text text-anchor="middle" x="712" y="-575.45" font-family="Helvetica,sans-Serif" font-size="14.00" fill="#e5e5e5">Navigate the Fucko Maze</text>
</g>
<!-- door_code&#45;&gt;selenetic_exit_unlocked -->
<g id="edge53" class="edge">
<title>door_code&#45;&gt;selenetic_exit_unlocked</title>
<path fill="none" stroke="#d9d9d9" d="M755.84,-657.01C747.92,-643.37 736.78,-624.19 727.72,-608.57"/>
<polygon fill="#d9d9d9" stroke="#d9d9d9" points="730.92,-607.11 722.87,-600.22 724.87,-610.63 730.92,-607.11"/>
</g>
<!-- selenetic_exit_unlocked&#45;&gt;selenetic_complete -->
<g id="edge72" class="edge">
<title>selenetic_exit_unlocked&#45;&gt;selenetic_complete</title>
<path fill="none" stroke="#d9d9d9" d="M744.73,-562.01C772.68,-547.07 813.07,-525.48 843.51,-509.21"/>
<polygon fill="#d9d9d9" stroke="#d9d9d9" points="844.91,-512.43 852.08,-504.63 841.61,-506.25 844.91,-512.43"/>
</g>
<!-- learn_fireplace_page_number -->
<g id="node65" class="node">
<title>learn_fireplace_page_number</title>
<path fill="none" stroke="#d9d9d9" d="M1200.75,-321C1200.75,-321 1003.25,-321 1003.25,-321 997.25,-321 991.25,-315 991.25,-309 991.25,-309 991.25,-292 991.25,-292 991.25,-286 997.25,-280 1003.25,-280 1003.25,-280 1200.75,-280 1200.75,-280 1206.75,-280 1212.75,-286 1212.75,-292 1212.75,-292 1212.75,-309 1212.75,-309 1212.75,-315 1206.75,-321 1200.75,-321"/>
<text text-anchor="middle" x="1102" y="-303.7" font-family="Helvetica,sans-Serif" font-size="14.00" fill="#e5e5e5">Given five pages, a brother</text>
<text text-anchor="middle" x="1102" y="-287.2" font-family="Helvetica,sans-Serif" font-size="14.00" fill="#e5e5e5">tells you how to use the fireplace</text>
</g>
<!-- selenetic_complete&#45;&gt;learn_fireplace_page_number -->
<g id="edge77" class="edge">
<title>selenetic_complete&#45;&gt;learn_fireplace_page_number</title>
<path fill="none" stroke="#d9d9d9" d="M897.15,-467.2C913.64,-442.62 946.54,-397.21 983,-367 1002.04,-351.23 1025.44,-337.39 1046.44,-326.54"/>
<polygon fill="#d9d9d9" stroke="#d9d9d9" points="1047.82,-329.77 1055.18,-322.14 1044.67,-323.51 1047.82,-329.77"/>
</g>
<!-- mechanical_page_found -->
<g id="node36" class="node">
<title>mechanical_page_found</title>
<path fill="#280060" stroke="#d9d9d9" d="M200.38,-883.5C200.38,-883.5 27.62,-883.5 27.62,-883.5 21.62,-883.5 15.62,-877.5 15.62,-871.5 15.62,-871.5 15.62,-859.5 15.62,-859.5 15.62,-853.5 21.62,-847.5 27.62,-847.5 27.62,-847.5 200.38,-847.5 200.38,-847.5 206.38,-847.5 212.38,-853.5 212.38,-859.5 212.38,-859.5 212.38,-871.5 212.38,-871.5 212.38,-877.5 206.38,-883.5 200.38,-883.5"/>
<text text-anchor="middle" x="114" y="-860.45" font-family="Helvetica,sans-Serif" font-size="14.00" fill="#e5e5e5">Find a page in a secret room</text>
</g>
<!-- mechanical_entered&#45;&gt;mechanical_page_found -->
<g id="edge35" class="edge">
<title>mechanical_entered&#45;&gt;mechanical_page_found</title>
<path fill="none" stroke="#d9d9d9" d="M351.31,-939.55C302.89,-924.64 233.12,-903.17 181.76,-887.36"/>
<polygon fill="#d9d9d9" stroke="#d9d9d9" points="182.8,-884.02 172.21,-884.42 180.74,-890.71 182.8,-884.02"/>
</g>
<!-- cardinal_sounds_learned -->
<g id="node37" class="node">
<title>cardinal_sounds_learned</title>
<path fill="#280060" stroke="#d9d9d9" d="M588.75,-886C588.75,-886 433.25,-886 433.25,-886 427.25,-886 421.25,-880 421.25,-874 421.25,-874 421.25,-857 421.25,-857 421.25,-851 427.25,-845 433.25,-845 433.25,-845 588.75,-845 588.75,-845 594.75,-845 600.75,-851 600.75,-857 600.75,-857 600.75,-874 600.75,-874 600.75,-880 594.75,-886 588.75,-886"/>
<text text-anchor="middle" x="511" y="-868.7" font-family="Helvetica,sans-Serif" font-size="14.00" fill="#e5e5e5">Learn cardinal direction</text>
<text text-anchor="middle" x="511" y="-852.2" font-family="Helvetica,sans-Serif" font-size="14.00" fill="#e5e5e5">sounds from the simulator</text>
</g>
<!-- mechanical_entered&#45;&gt;cardinal_sounds_learned -->
<g id="edge36" class="edge">
<title>mechanical_entered&#45;&gt;cardinal_sounds_learned</title>
<path fill="none" stroke="#d9d9d9" d="M427.86,-939.55C442.59,-926.6 462.97,-908.7 479.86,-893.86"/>
<polygon fill="#d9d9d9" stroke="#d9d9d9" points="481.99,-896.65 487.2,-887.42 477.37,-891.39 481.99,-896.65"/>
</g>
<!-- mechanical_controls_found -->
<g id="node38" class="node">
<title>mechanical_controls_found</title>
<path fill="#280060" stroke="#d9d9d9" d="M384.62,-886C384.62,-886 249.38,-886 249.38,-886 243.38,-886 237.38,-880 237.38,-874 237.38,-874 237.38,-857 237.38,-857 237.38,-851 243.38,-845 249.38,-845 249.38,-845 384.62,-845 384.62,-845 390.62,-845 396.62,-851 396.62,-857 396.62,-857 396.62,-874 396.62,-874 396.62,-880 390.62,-886 384.62,-886"/>
<text text-anchor="middle" x="317" y="-868.7" font-family="Helvetica,sans-Serif" font-size="14.00" fill="#e5e5e5">Find your way upstairs,</text>
<text text-anchor="middle" x="317" y="-852.2" font-family="Helvetica,sans-Serif" font-size="14.00" fill="#e5e5e5">and juke the elevator</text>
</g>
<!-- mechanical_entered&#45;&gt;mechanical_controls_found -->
<g id="edge37" class="edge">
<title>mechanical_entered&#45;&gt;mechanical_controls_found</title>
<path fill="none" stroke="#d9d9d9" d="M390.45,-939.55C377.56,-926.72 359.76,-909.03 344.92,-894.27"/>
<polygon fill="#d9d9d9" stroke="#d9d9d9" points="347.66,-892.05 338.1,-887.48 342.72,-897.02 347.66,-892.05"/>
</g>
<!-- mechanical_complete -->
<g id="node43" class="node">
<title>mechanical_complete</title>
<path fill="none" stroke="#d9d9d9" d="M461.75,-503.5C461.75,-503.5 300.25,-503.5 300.25,-503.5 294.25,-503.5 288.25,-497.5 288.25,-491.5 288.25,-491.5 288.25,-479.5 288.25,-479.5 288.25,-473.5 294.25,-467.5 300.25,-467.5 300.25,-467.5 461.75,-467.5 461.75,-467.5 467.75,-467.5 473.75,-473.5 473.75,-479.5 473.75,-479.5 473.75,-491.5 473.75,-491.5 473.75,-497.5 467.75,-503.5 461.75,-503.5"/>
<text text-anchor="middle" x="381" y="-480.45" font-family="Helvetica,sans-Serif" font-size="14.00" fill="#e5e5e5">Mechanical age completed</text>
</g>
<!-- mechanical_page_found&#45;&gt;mechanical_complete -->
<g id="edge69" class="edge">
<title>mechanical_page_found&#45;&gt;mechanical_complete</title>
<path fill="none" stroke="#d9d9d9" d="M113.36,-847.17C112.74,-809.54 115.47,-718.63 152,-655 192.4,-584.62 275.36,-535.15 329.55,-508.75"/>
<polygon fill="#d9d9d9" stroke="#d9d9d9" points="330.76,-512.05 338.28,-504.58 327.75,-505.73 330.76,-512.05"/>
</g>
<!-- cardinal_sounds_learned&#45;&gt;selenetic_exit_unlocked -->
<g id="edge2" class="edge">
<title>cardinal_sounds_learned&#45;&gt;selenetic_exit_unlocked</title>
<g id="a_edge2"><a xlink:title="You can skip this via brute force or big brain">
<path fill="none" stroke="#d9d9d9" stroke-dasharray="5,2" d="M525.13,-844.6C560.54,-794.75 653.05,-664.5 693.08,-608.13"/>
<polygon fill="#d9d9d9" stroke="#d9d9d9" points="695.89,-610.23 698.83,-600.05 690.18,-606.17 695.89,-610.23"/>
</a>
</g>
</g>
<!-- fortress_rotation -->
<g id="node39" class="node">
<title>fortress_rotation</title>
<path fill="#280060" stroke="#d9d9d9" d="M393.88,-788.5C393.88,-788.5 284.12,-788.5 284.12,-788.5 278.12,-788.5 272.12,-782.5 272.12,-776.5 272.12,-776.5 272.12,-764.5 272.12,-764.5 272.12,-758.5 278.12,-752.5 284.12,-752.5 284.12,-752.5 393.88,-752.5 393.88,-752.5 399.88,-752.5 405.88,-758.5 405.88,-764.5 405.88,-764.5 405.88,-776.5 405.88,-776.5 405.88,-782.5 399.88,-788.5 393.88,-788.5"/>
<text text-anchor="middle" x="339" y="-765.45" font-family="Helvetica,sans-Serif" font-size="14.00" fill="#e5e5e5">Rotate the fortress</text>
</g>
<!-- cardinal_sounds_learned&#45;&gt;fortress_rotation -->
<g id="edge39" class="edge">
<title>cardinal_sounds_learned&#45;&gt;fortress_rotation</title>
<path fill="none" stroke="#d9d9d9" d="M474.1,-844.55C446.85,-829.81 409.7,-809.73 381.26,-794.35"/>
<polygon fill="#d9d9d9" stroke="#d9d9d9" points="383,-791.31 372.54,-789.63 379.67,-797.47 383,-791.31"/>
</g>
<!-- mechanical_controls_found&#45;&gt;fortress_rotation -->
<g id="edge38" class="edge">
<title>mechanical_controls_found&#45;&gt;fortress_rotation</title>
<path fill="none" stroke="#d9d9d9" d="M321.67,-844.78C324.75,-831.73 328.84,-814.43 332.28,-799.91"/>
<polygon fill="#d9d9d9" stroke="#d9d9d9" points="335.62,-801.01 334.51,-790.47 328.8,-799.4 335.62,-801.01"/>
</g>
<!-- mechanical_code_2 -->
<g id="node40" class="node">
<title>mechanical_code_2</title>
<path fill="none" stroke="#d9d9d9" d="M587.62,-693.5C587.62,-693.5 404.38,-693.5 404.38,-693.5 398.38,-693.5 392.38,-687.5 392.38,-681.5 392.38,-681.5 392.38,-669.5 392.38,-669.5 392.38,-663.5 398.38,-657.5 404.38,-657.5 404.38,-657.5 587.62,-657.5 587.62,-657.5 593.62,-657.5 599.62,-663.5 599.62,-669.5 599.62,-669.5 599.62,-681.5 599.62,-681.5 599.62,-687.5 593.62,-693.5 587.62,-693.5"/>
<text text-anchor="middle" x="496" y="-670.45" font-family="Helvetica,sans-Serif" font-size="14.00" fill="#e5e5e5">Learn 2nd half of the exit code</text>
</g>
<!-- fortress_rotation&#45;&gt;mechanical_code_2 -->
<g id="edge41" class="edge">
<title>fortress_rotation&#45;&gt;mechanical_code_2</title>
<path fill="none" stroke="#d9d9d9" d="M368.53,-752.01C393.53,-737.2 429.56,-715.86 456.94,-699.64"/>
<polygon fill="#d9d9d9" stroke="#d9d9d9" points="458.48,-702.79 465.3,-694.69 454.91,-696.77 458.48,-702.79"/>
</g>
<!-- mechanical_code_1 -->
<g id="node41" class="node">
<title>mechanical_code_1</title>
<path fill="none" stroke="#d9d9d9" d="M355.38,-693.5C355.38,-693.5 176.62,-693.5 176.62,-693.5 170.62,-693.5 164.62,-687.5 164.62,-681.5 164.62,-681.5 164.62,-669.5 164.62,-669.5 164.62,-663.5 170.62,-657.5 176.62,-657.5 176.62,-657.5 355.38,-657.5 355.38,-657.5 361.38,-657.5 367.38,-663.5 367.38,-669.5 367.38,-669.5 367.38,-681.5 367.38,-681.5 367.38,-687.5 361.38,-693.5 355.38,-693.5"/>
<text text-anchor="middle" x="266" y="-670.45" font-family="Helvetica,sans-Serif" font-size="14.00" fill="#e5e5e5">Learn 1st half of the exit code</text>
</g>
<!-- fortress_rotation&#45;&gt;mechanical_code_1 -->
<g id="edge40" class="edge">
<title>fortress_rotation&#45;&gt;mechanical_code_1</title>
<path fill="none" stroke="#d9d9d9" d="M325.27,-752.01C314.36,-738.11 298.93,-718.45 286.55,-702.68"/>
<polygon fill="#d9d9d9" stroke="#d9d9d9" points="289.53,-700.81 280.6,-695.1 284.03,-705.13 289.53,-700.81"/>
</g>
<!-- mechanical_exit_unlocked -->
<g id="node42" class="node">
<title>mechanical_exit_unlocked</title>
<path fill="#280060" stroke="#d9d9d9" d="M474.12,-598.5C474.12,-598.5 287.88,-598.5 287.88,-598.5 281.88,-598.5 275.88,-592.5 275.88,-586.5 275.88,-586.5 275.88,-574.5 275.88,-574.5 275.88,-568.5 281.88,-562.5 287.88,-562.5 287.88,-562.5 474.12,-562.5 474.12,-562.5 480.12,-562.5 486.12,-568.5 486.12,-574.5 486.12,-574.5 486.12,-586.5 486.12,-586.5 486.12,-592.5 480.12,-598.5 474.12,-598.5"/>
<text text-anchor="middle" x="381" y="-575.45" font-family="Helvetica,sans-Serif" font-size="14.00" fill="#e5e5e5">Unlock the mechanical age exit</text>
</g>
<!-- mechanical_code_2&#45;&gt;mechanical_exit_unlocked -->
<g id="edge43" class="edge">
<title>mechanical_code_2&#45;&gt;mechanical_exit_unlocked</title>
<path fill="none" stroke="#d9d9d9" d="M474.37,-657.01C456.62,-642.65 431.28,-622.16 411.47,-606.14"/>
<polygon fill="#d9d9d9" stroke="#d9d9d9" points="413.69,-603.43 403.71,-599.87 409.29,-608.88 413.69,-603.43"/>
</g>
<!-- mechanical_code_1&#45;&gt;mechanical_exit_unlocked -->
<g id="edge42" class="edge">
<title>mechanical_code_1&#45;&gt;mechanical_exit_unlocked</title>
<path fill="none" stroke="#d9d9d9" d="M287.63,-657.01C305.38,-642.65 330.72,-622.16 350.53,-606.14"/>
<polygon fill="#d9d9d9" stroke="#d9d9d9" points="352.71,-608.88 358.29,-599.87 348.31,-603.43 352.71,-608.88"/>
</g>
<!-- mechanical_exit_unlocked&#45;&gt;mechanical_complete -->
<g id="edge70" class="edge">
<title>mechanical_exit_unlocked&#45;&gt;mechanical_complete</title>
<path fill="none" stroke="#d9d9d9" d="M381,-562.01C381,-548.89 381,-530.64 381,-515.37"/>
<polygon fill="#d9d9d9" stroke="#d9d9d9" points="384.5,-515.43 381,-505.43 377.5,-515.43 384.5,-515.43"/>
</g>
<!-- mechanical_complete&#45;&gt;learn_fireplace_page_number -->
<g id="edge76" class="edge">
<title>mechanical_complete&#45;&gt;learn_fireplace_page_number</title>
<path fill="none" stroke="#d9d9d9" d="M449.81,-467.04C580.85,-433.77 866.16,-361.36 1012.1,-324.32"/>
<polygon fill="#d9d9d9" stroke="#d9d9d9" points="1012.92,-327.72 1021.75,-321.87 1011.2,-320.94 1012.92,-327.72"/>
</g>
<!-- understand_pump -->
<g id="node45" class="node">
<title>understand_pump</title>
<path fill="#280060" stroke="#d9d9d9" d="M1934.62,-886C1934.62,-886 1805.38,-886 1805.38,-886 1799.38,-886 1793.38,-880 1793.38,-874 1793.38,-874 1793.38,-857 1793.38,-857 1793.38,-851 1799.38,-845 1805.38,-845 1805.38,-845 1934.62,-845 1934.62,-845 1940.62,-845 1946.62,-851 1946.62,-857 1946.62,-857 1946.62,-874 1946.62,-874 1946.62,-880 1940.62,-886 1934.62,-886"/>
<text text-anchor="middle" x="1870" y="-868.7" font-family="Helvetica,sans-Serif" font-size="14.00" fill="#e5e5e5">The three buttons</text>
<text text-anchor="middle" x="1870" y="-852.2" font-family="Helvetica,sans-Serif" font-size="14.00" fill="#e5e5e5">are for pumping water</text>
</g>
<!-- stoneship_entered&#45;&gt;understand_pump -->
<g id="edge22" class="edge">
<title>stoneship_entered&#45;&gt;understand_pump</title>
<path fill="none" stroke="#d9d9d9" d="M1832.06,-939.55C1838.42,-927.32 1847.07,-910.66 1854.51,-896.33"/>
<polygon fill="#d9d9d9" stroke="#d9d9d9" points="1857.46,-898.25 1858.96,-887.76 1851.24,-895.02 1857.46,-898.25"/>
</g>
<!-- stoneship_page_found -->
<g id="node46" class="node">
<title>stoneship_page_found</title>
<path fill="none" stroke="#d9d9d9" d="M1752,-788.5C1752,-788.5 1544,-788.5 1544,-788.5 1538,-788.5 1532,-782.5 1532,-776.5 1532,-776.5 1532,-764.5 1532,-764.5 1532,-758.5 1538,-752.5 1544,-752.5 1544,-752.5 1752,-752.5 1752,-752.5 1758,-752.5 1764,-758.5 1764,-764.5 1764,-764.5 1764,-776.5 1764,-776.5 1764,-782.5 1758,-788.5 1752,-788.5"/>
<text text-anchor="middle" x="1648" y="-765.45" font-family="Helvetica,sans-Serif" font-size="14.00" fill="#e5e5e5">Find a page in the brothers&#39; rooms</text>
</g>
<!-- understand_pump&#45;&gt;stoneship_page_found -->
<g id="edge23" class="edge">
<title>understand_pump&#45;&gt;stoneship_page_found</title>
<path fill="none" stroke="#d9d9d9" d="M1822.38,-844.55C1786.43,-829.49 1737.15,-808.84 1700.14,-793.34"/>
<polygon fill="#d9d9d9" stroke="#d9d9d9" points="1701.54,-790.13 1690.96,-789.5 1698.83,-796.59 1701.54,-790.13"/>
</g>
<!-- torn_paper_stoneship -->
<g id="node47" class="node">
<title>torn_paper_stoneship</title>
<path fill="none" stroke="#d9d9d9" d="M1968.75,-506C1968.75,-506 1831.25,-506 1831.25,-506 1825.25,-506 1819.25,-500 1819.25,-494 1819.25,-494 1819.25,-477 1819.25,-477 1819.25,-471 1825.25,-465 1831.25,-465 1831.25,-465 1968.75,-465 1968.75,-465 1974.75,-465 1980.75,-471 1980.75,-477 1980.75,-477 1980.75,-494 1980.75,-494 1980.75,-500 1974.75,-506 1968.75,-506"/>
<text text-anchor="middle" x="1900" y="-488.7" font-family="Helvetica,sans-Serif" font-size="14.00" fill="#e5e5e5">Find half of a torn page</text>
<text text-anchor="middle" x="1900" y="-472.2" font-family="Helvetica,sans-Serif" font-size="14.00" fill="#e5e5e5">in Acenar&#39;s room</text>
</g>
<!-- understand_pump&#45;&gt;torn_paper_stoneship -->
<g id="edge24" class="edge">
<title>understand_pump&#45;&gt;torn_paper_stoneship</title>
<path fill="none" stroke="#d9d9d9" d="M1920.5,-844.62C1944.38,-832.64 1971.09,-814.99 1987,-791 2034.3,-719.71 2011.09,-686.28 2018,-601 2019.47,-582.84 2026.85,-575.93 2018,-560 2006.32,-538.97 1985.84,-523.17 1965.19,-511.72"/>
<polygon fill="#d9d9d9" stroke="#d9d9d9" points="1966.91,-508.66 1956.42,-507.14 1963.67,-514.87 1966.91,-508.66"/>
</g>
<!-- manipulate_chest -->
<g id="node48" class="node">
<title>manipulate_chest</title>
<path fill="#280060" stroke="#d9d9d9" d="M1962.75,-791C1962.75,-791 1801.25,-791 1801.25,-791 1795.25,-791 1789.25,-785 1789.25,-779 1789.25,-779 1789.25,-762 1789.25,-762 1789.25,-756 1795.25,-750 1801.25,-750 1801.25,-750 1962.75,-750 1962.75,-750 1968.75,-750 1974.75,-756 1974.75,-762 1974.75,-762 1974.75,-779 1974.75,-779 1974.75,-785 1968.75,-791 1962.75,-791"/>
<text text-anchor="middle" x="1882" y="-773.7" font-family="Helvetica,sans-Serif" font-size="14.00" fill="#e5e5e5">Solve the lighthouse chest,</text>
<text text-anchor="middle" x="1882" y="-757.2" font-family="Helvetica,sans-Serif" font-size="14.00" fill="#e5e5e5">unlocking the top floor</text>
</g>
<!-- understand_pump&#45;&gt;manipulate_chest -->
<g id="edge25" class="edge">
<title>understand_pump&#45;&gt;manipulate_chest</title>
<path fill="none" stroke="#d9d9d9" d="M1872.54,-844.78C1874.14,-832.45 1876.22,-816.31 1878.02,-802.31"/>
<polygon fill="#d9d9d9" stroke="#d9d9d9" points="1881.46,-803.06 1879.27,-792.7 1874.51,-802.17 1881.46,-803.06"/>
</g>
<!-- stoneship_complete -->
<g id="node53" class="node">
<title>stoneship_complete</title>
<path fill="none" stroke="#d9d9d9" d="M1698.38,-411C1698.38,-411 1543.62,-411 1543.62,-411 1537.62,-411 1531.62,-405 1531.62,-399 1531.62,-399 1531.62,-387 1531.62,-387 1531.62,-381 1537.62,-375 1543.62,-375 1543.62,-375 1698.38,-375 1698.38,-375 1704.38,-375 1710.38,-381 1710.38,-387 1710.38,-387 1710.38,-399 1710.38,-399 1710.38,-405 1704.38,-411 1698.38,-411"/>
<text text-anchor="middle" x="1621" y="-387.95" font-family="Helvetica,sans-Serif" font-size="14.00" fill="#e5e5e5">Stoneship age completed</text>
</g>
<!-- stoneship_page_found&#45;&gt;stoneship_complete -->
<g id="edge67" class="edge">
<title>stoneship_page_found&#45;&gt;stoneship_complete</title>
<path fill="none" stroke="#d9d9d9" d="M1633.27,-752.31C1609.57,-723.39 1563.92,-662.14 1547,-601 1537.4,-566.31 1555.94,-468.13 1560,-459.5 1567.18,-444.22 1579.25,-430.12 1590.77,-418.94"/>
<polygon fill="#d9d9d9" stroke="#d9d9d9" points="1592.9,-421.73 1597.87,-412.37 1588.15,-416.59 1592.9,-421.73"/>
</g>
<!-- learn_marker_switch_secret -->
<g id="node69" class="node">
<title>learn_marker_switch_secret</title>
<path fill="#280060" stroke="#d9d9d9" d="M1567.12,-318.5C1567.12,-318.5 1326.88,-318.5 1326.88,-318.5 1320.88,-318.5 1314.88,-312.5 1314.88,-306.5 1314.88,-306.5 1314.88,-294.5 1314.88,-294.5 1314.88,-288.5 1320.88,-282.5 1326.88,-282.5 1326.88,-282.5 1567.12,-282.5 1567.12,-282.5 1573.12,-282.5 1579.12,-288.5 1579.12,-294.5 1579.12,-294.5 1579.12,-306.5 1579.12,-306.5 1579.12,-312.5 1573.12,-318.5 1567.12,-318.5"/>
<text text-anchor="middle" x="1447" y="-295.45" font-family="Helvetica,sans-Serif" font-size="14.00" fill="#e5e5e5">Learn the secret of the marker switches</text>
</g>
<!-- torn_paper_stoneship&#45;&gt;learn_marker_switch_secret -->
<g id="edge85" class="edge">
<title>torn_paper_stoneship&#45;&gt;learn_marker_switch_secret</title>
<path fill="none" stroke="#d9d9d9" d="M1876.12,-464.6C1843.53,-438.43 1782.38,-392.77 1723,-367 1675.22,-346.26 1619.81,-331.48 1571.24,-321.27"/>
<polygon fill="#d9d9d9" stroke="#d9d9d9" points="1572,-317.85 1561.5,-319.27 1570.59,-324.71 1572,-317.85"/>
</g>
<!-- power_lighthouse -->
<g id="node49" class="node">
<title>power_lighthouse</title>
<path fill="none" stroke="#d9d9d9" d="M1936.12,-693.5C1936.12,-693.5 1827.88,-693.5 1827.88,-693.5 1821.88,-693.5 1815.88,-687.5 1815.88,-681.5 1815.88,-681.5 1815.88,-669.5 1815.88,-669.5 1815.88,-663.5 1821.88,-657.5 1827.88,-657.5 1827.88,-657.5 1936.12,-657.5 1936.12,-657.5 1942.12,-657.5 1948.12,-663.5 1948.12,-669.5 1948.12,-669.5 1948.12,-681.5 1948.12,-681.5 1948.12,-687.5 1942.12,-693.5 1936.12,-693.5"/>
<text text-anchor="middle" x="1882" y="-670.45" font-family="Helvetica,sans-Serif" font-size="14.00" fill="#e5e5e5">Charge the battery</text>
</g>
<!-- manipulate_chest&#45;&gt;power_lighthouse -->
<g id="edge26" class="edge">
<title>manipulate_chest&#45;&gt;power_lighthouse</title>
<path fill="none" stroke="#d9d9d9" d="M1882,-749.78C1882,-736.86 1882,-719.77 1882,-705.34"/>
<polygon fill="#d9d9d9" stroke="#d9d9d9" points="1885.5,-705.51 1882,-695.51 1878.5,-705.51 1885.5,-705.51"/>
</g>
<!-- find_secret_compass_room -->
<g id="node50" class="node">
<title>find_secret_compass_room</title>
<path fill="#280060" stroke="#d9d9d9" d="M1744.75,-598.5C1744.75,-598.5 1571.25,-598.5 1571.25,-598.5 1565.25,-598.5 1559.25,-592.5 1559.25,-586.5 1559.25,-586.5 1559.25,-574.5 1559.25,-574.5 1559.25,-568.5 1565.25,-562.5 1571.25,-562.5 1571.25,-562.5 1744.75,-562.5 1744.75,-562.5 1750.75,-562.5 1756.75,-568.5 1756.75,-574.5 1756.75,-574.5 1756.75,-586.5 1756.75,-586.5 1756.75,-592.5 1750.75,-598.5 1744.75,-598.5"/>
<text text-anchor="middle" x="1658" y="-575.45" font-family="Helvetica,sans-Serif" font-size="14.00" fill="#e5e5e5">Find a secret compass room</text>
</g>
<!-- power_lighthouse&#45;&gt;find_secret_compass_room -->
<g id="edge27" class="edge">
<title>power_lighthouse&#45;&gt;find_secret_compass_room</title>
<path fill="none" stroke="#d9d9d9" d="M1839.87,-657.01C1803.18,-641.78 1749.85,-619.63 1710.42,-603.26"/>
<polygon fill="#d9d9d9" stroke="#d9d9d9" points="1711.92,-600.1 1701.34,-599.49 1709.24,-606.56 1711.92,-600.1"/>
</g>
<!-- observe_lighthouse_bearing -->
<g id="node51" class="node">
<title>observe_lighthouse_bearing</title>
<path fill="#280060" stroke="#d9d9d9" d="M1993.88,-598.5C1993.88,-598.5 1794.12,-598.5 1794.12,-598.5 1788.12,-598.5 1782.12,-592.5 1782.12,-586.5 1782.12,-586.5 1782.12,-574.5 1782.12,-574.5 1782.12,-568.5 1788.12,-562.5 1794.12,-562.5 1794.12,-562.5 1993.88,-562.5 1993.88,-562.5 1999.88,-562.5 2005.88,-568.5 2005.88,-574.5 2005.88,-574.5 2005.88,-586.5 2005.88,-586.5 2005.88,-592.5 1999.88,-598.5 1993.88,-598.5"/>
<text text-anchor="middle" x="1894" y="-575.45" font-family="Helvetica,sans-Serif" font-size="14.00" fill="#e5e5e5">Observe the lighthouse&#39;s bearing</text>
</g>
<!-- power_lighthouse&#45;&gt;observe_lighthouse_bearing -->
<g id="edge28" class="edge">
<title>power_lighthouse&#45;&gt;observe_lighthouse_bearing</title>
<path fill="none" stroke="#d9d9d9" d="M1884.26,-657.01C1885.97,-643.76 1888.35,-625.28 1890.33,-609.92"/>
<polygon fill="#d9d9d9" stroke="#d9d9d9" points="1893.75,-610.78 1891.56,-600.42 1886.81,-609.89 1893.75,-610.78"/>
</g>
<!-- stoneship_exit_unlocked -->
<g id="node52" class="node">
<title>stoneship_exit_unlocked</title>
<path fill="#280060" stroke="#d9d9d9" d="M1731.25,-506C1731.25,-506 1584.75,-506 1584.75,-506 1578.75,-506 1572.75,-500 1572.75,-494 1572.75,-494 1572.75,-477 1572.75,-477 1572.75,-471 1578.75,-465 1584.75,-465 1584.75,-465 1731.25,-465 1731.25,-465 1737.25,-465 1743.25,-471 1743.25,-477 1743.25,-477 1743.25,-494 1743.25,-494 1743.25,-500 1737.25,-506 1731.25,-506"/>
<text text-anchor="middle" x="1658" y="-488.7" font-family="Helvetica,sans-Serif" font-size="14.00" fill="#e5e5e5">Illuminate the dark room,</text>
<text text-anchor="middle" x="1658" y="-472.2" font-family="Helvetica,sans-Serif" font-size="14.00" fill="#e5e5e5">and find your way out</text>
</g>
<!-- find_secret_compass_room&#45;&gt;stoneship_exit_unlocked -->
<g id="edge29" class="edge">
<title>find_secret_compass_room&#45;&gt;stoneship_exit_unlocked</title>
<path fill="none" stroke="#d9d9d9" d="M1658,-562.01C1658,-549.55 1658,-532.47 1658,-517.71"/>
<polygon fill="#d9d9d9" stroke="#d9d9d9" points="1661.5,-518.01 1658,-508.01 1654.5,-518.01 1661.5,-518.01"/>
</g>
<!-- observe_lighthouse_bearing&#45;&gt;stoneship_exit_unlocked -->
<g id="edge30" class="edge">
<title>observe_lighthouse_bearing&#45;&gt;stoneship_exit_unlocked</title>
<path fill="none" stroke="#d9d9d9" d="M1849.61,-562.01C1812.84,-547.52 1760.19,-526.77 1719.38,-510.69"/>
<polygon fill="#d9d9d9" stroke="#d9d9d9" points="1720.74,-507.46 1710.15,-507.05 1718.17,-513.97 1720.74,-507.46"/>
</g>
<!-- stoneship_exit_unlocked&#45;&gt;stoneship_complete -->
<g id="edge68" class="edge">
<title>stoneship_exit_unlocked&#45;&gt;stoneship_complete</title>
<path fill="none" stroke="#d9d9d9" d="M1649.97,-464.86C1644.84,-452.31 1638.1,-435.84 1632.42,-421.93"/>
<polygon fill="#d9d9d9" stroke="#d9d9d9" points="1635.73,-420.79 1628.71,-412.86 1629.25,-423.44 1635.73,-420.79"/>
</g>
<!-- stoneship_complete&#45;&gt;learn_fireplace_page_number -->
<g id="edge75" class="edge">
<title>stoneship_complete&#45;&gt;learn_fireplace_page_number</title>
<path fill="none" stroke="#d9d9d9" d="M1555.43,-374.53C1544.31,-371.83 1532.86,-369.21 1522,-367 1422.45,-346.71 1308.5,-329.3 1224.44,-317.54"/>
<polygon fill="#d9d9d9" stroke="#d9d9d9" points="1224.92,-314.08 1214.54,-316.17 1223.96,-321.01 1224.92,-314.08"/>
</g>
<!-- windmill_manipulated -->
<g id="node55" class="node">
<title>windmill_manipulated</title>
<path fill="#280060" stroke="#d9d9d9" d="M1330.12,-883.5C1330.12,-883.5 1119.88,-883.5 1119.88,-883.5 1113.88,-883.5 1107.88,-877.5 1107.88,-871.5 1107.88,-871.5 1107.88,-859.5 1107.88,-859.5 1107.88,-853.5 1113.88,-847.5 1119.88,-847.5 1119.88,-847.5 1330.12,-847.5 1330.12,-847.5 1336.12,-847.5 1342.12,-853.5 1342.12,-859.5 1342.12,-859.5 1342.12,-871.5 1342.12,-871.5 1342.12,-877.5 1336.12,-883.5 1330.12,-883.5"/>
<text text-anchor="middle" x="1225" y="-860.45" font-family="Helvetica,sans-Serif" font-size="14.00" fill="#e5e5e5">Get water flowing from the windmill</text>
</g>
<!-- channelwood_entered&#45;&gt;windmill_manipulated -->
<g id="edge57" class="edge">
<title>channelwood_entered&#45;&gt;windmill_manipulated</title>
<path fill="none" stroke="#d9d9d9" d="M1225,-939.55C1225,-927.03 1225,-909.87 1225,-895.33"/>
<polygon fill="#d9d9d9" stroke="#d9d9d9" points="1228.5,-895.41 1225,-885.41 1221.5,-895.41 1228.5,-895.41"/>
</g>
<!-- channelwood_bridge_raised -->
<g id="node56" class="node">
<title>channelwood_bridge_raised</title>
<path fill="#280060" stroke="#d9d9d9" d="M1151.38,-788.5C1151.38,-788.5 1008.62,-788.5 1008.62,-788.5 1002.62,-788.5 996.62,-782.5 996.62,-776.5 996.62,-776.5 996.62,-764.5 996.62,-764.5 996.62,-758.5 1002.62,-752.5 1008.62,-752.5 1008.62,-752.5 1151.38,-752.5 1151.38,-752.5 1157.38,-752.5 1163.38,-758.5 1163.38,-764.5 1163.38,-764.5 1163.38,-776.5 1163.38,-776.5 1163.38,-782.5 1157.38,-788.5 1151.38,-788.5"/>
<text text-anchor="middle" x="1080" y="-765.45" font-family="Helvetica,sans-Serif" font-size="14.00" fill="#e5e5e5">Raise the hidden bridge</text>
</g>
<!-- windmill_manipulated&#45;&gt;channelwood_bridge_raised -->
<g id="edge58" class="edge">
<title>windmill_manipulated&#45;&gt;channelwood_bridge_raised</title>
<path fill="none" stroke="#d9d9d9" d="M1197.73,-847.01C1174.84,-832.33 1141.94,-811.23 1116.74,-795.06"/>
<polygon fill="#d9d9d9" stroke="#d9d9d9" points="1118.73,-792.18 1108.43,-789.73 1114.95,-798.08 1118.73,-792.18"/>
</g>
<!-- channelwood_second_level -->
<g id="node58" class="node">
<title>channelwood_second_level</title>
<path fill="#280060" stroke="#d9d9d9" d="M1433.38,-788.5C1433.38,-788.5 1200.62,-788.5 1200.62,-788.5 1194.62,-788.5 1188.62,-782.5 1188.62,-776.5 1188.62,-776.5 1188.62,-764.5 1188.62,-764.5 1188.62,-758.5 1194.62,-752.5 1200.62,-752.5 1200.62,-752.5 1433.38,-752.5 1433.38,-752.5 1439.38,-752.5 1445.38,-758.5 1445.38,-764.5 1445.38,-764.5 1445.38,-776.5 1445.38,-776.5 1445.38,-782.5 1439.38,-788.5 1433.38,-788.5"/>
<text text-anchor="middle" x="1317" y="-765.45" font-family="Helvetica,sans-Serif" font-size="14.00" fill="#e5e5e5">Power the elevator to the second level</text>
</g>
<!-- windmill_manipulated&#45;&gt;channelwood_second_level -->
<g id="edge60" class="edge">
<title>windmill_manipulated&#45;&gt;channelwood_second_level</title>
<path fill="none" stroke="#d9d9d9" d="M1242.3,-847.01C1256.31,-832.85 1276.23,-812.72 1291.97,-796.8"/>
<polygon fill="#d9d9d9" stroke="#d9d9d9" points="1294.16,-799.56 1298.71,-789.99 1289.19,-794.64 1294.16,-799.56"/>
</g>
<!-- channelwood_exit_unlocked -->
<g id="node57" class="node">
<title>channelwood_exit_unlocked</title>
<path fill="#280060" stroke="#d9d9d9" d="M1263.12,-598.5C1263.12,-598.5 1010.88,-598.5 1010.88,-598.5 1004.88,-598.5 998.88,-592.5 998.88,-586.5 998.88,-586.5 998.88,-574.5 998.88,-574.5 998.88,-568.5 1004.88,-562.5 1010.88,-562.5 1010.88,-562.5 1263.12,-562.5 1263.12,-562.5 1269.12,-562.5 1275.12,-568.5 1275.12,-574.5 1275.12,-574.5 1275.12,-586.5 1275.12,-586.5 1275.12,-592.5 1269.12,-598.5 1263.12,-598.5"/>
<text text-anchor="middle" x="1137" y="-575.45" font-family="Helvetica,sans-Serif" font-size="14.00" fill="#e5e5e5">Extend the pipe to power the exit elevator</text>
</g>
<!-- channelwood_bridge_raised&#45;&gt;channelwood_exit_unlocked -->
<g id="edge59" class="edge">
<title>channelwood_bridge_raised&#45;&gt;channelwood_exit_unlocked</title>
<path fill="none" stroke="#d9d9d9" d="M1056.93,-752.15C1030.18,-729.8 992.14,-689.72 1012,-655 1025.28,-631.78 1049.08,-615.17 1072.37,-603.69"/>
<polygon fill="#d9d9d9" stroke="#d9d9d9" points="1073.67,-606.94 1081.27,-599.56 1070.73,-600.59 1073.67,-606.94"/>
</g>
<!-- channelwood_complete -->
<g id="node64" class="node">
<title>channelwood_complete</title>
<path fill="none" stroke="#d9d9d9" d="M1190.62,-411C1190.62,-411 1013.38,-411 1013.38,-411 1007.38,-411 1001.38,-405 1001.38,-399 1001.38,-399 1001.38,-387 1001.38,-387 1001.38,-381 1007.38,-375 1013.38,-375 1013.38,-375 1190.62,-375 1190.62,-375 1196.62,-375 1202.62,-381 1202.62,-387 1202.62,-387 1202.62,-399 1202.62,-399 1202.62,-405 1196.62,-411 1190.62,-411"/>
<text text-anchor="middle" x="1102" y="-387.95" font-family="Helvetica,sans-Serif" font-size="14.00" fill="#e5e5e5">Channelwood age completed</text>
</g>
<!-- channelwood_exit_unlocked&#45;&gt;channelwood_complete -->
<g id="edge74" class="edge">
<title>channelwood_exit_unlocked&#45;&gt;channelwood_complete</title>
<path fill="none" stroke="#d9d9d9" d="M1116.54,-562.22C1102.14,-548.62 1084.05,-528.3 1076,-506 1065.88,-477.96 1076.42,-444.52 1086.95,-421.52"/>
<polygon fill="#d9d9d9" stroke="#d9d9d9" points="1089.97,-423.32 1091.21,-412.8 1083.68,-420.25 1089.97,-423.32"/>
</g>
<!-- channelwood_second_level&#45;&gt;channelwood_door_opened -->
<g id="edge61" class="edge">
<title>channelwood_second_level&#45;&gt;channelwood_door_opened</title>
<path fill="none" stroke="#d9d9d9" d="M1335.81,-752.01C1350.26,-738.57 1370.51,-719.74 1387.16,-704.25"/>
<polygon fill="#d9d9d9" stroke="#d9d9d9" points="1389.45,-706.9 1394.39,-697.53 1384.68,-701.78 1389.45,-706.9"/>
</g>
<!-- channelwood_door_found -->
<g id="node60" class="node">
<title>channelwood_door_found</title>
<path fill="none" stroke="#d9d9d9" d="M1289.88,-693.5C1289.88,-693.5 1036.12,-693.5 1036.12,-693.5 1030.12,-693.5 1024.12,-687.5 1024.12,-681.5 1024.12,-681.5 1024.12,-669.5 1024.12,-669.5 1024.12,-663.5 1030.12,-657.5 1036.12,-657.5 1036.12,-657.5 1289.88,-657.5 1289.88,-657.5 1295.88,-657.5 1301.88,-663.5 1301.88,-669.5 1301.88,-669.5 1301.88,-681.5 1301.88,-681.5 1301.88,-687.5 1295.88,-693.5 1289.88,-693.5"/>
<text text-anchor="middle" x="1163" y="-670.45" font-family="Helvetica,sans-Serif" font-size="14.00" fill="#e5e5e5">Use staircase door to bypass the elevator</text>
</g>
<!-- channelwood_second_level&#45;&gt;channelwood_door_found -->
<g id="edge62" class="edge">
<title>channelwood_second_level&#45;&gt;channelwood_door_found</title>
<path fill="none" stroke="#d9d9d9" d="M1288.03,-752.01C1263.62,-737.26 1228.48,-716.04 1201.67,-699.85"/>
<polygon fill="#d9d9d9" stroke="#d9d9d9" points="1203.5,-696.87 1193.13,-694.7 1199.88,-702.86 1203.5,-696.87"/>
</g>
<!-- channelwood_third_level -->
<g id="node61" class="node">
<title>channelwood_third_level</title>
<path fill="none" stroke="#d9d9d9" d="M1487,-598.5C1487,-598.5 1321,-598.5 1321,-598.5 1315,-598.5 1309,-592.5 1309,-586.5 1309,-586.5 1309,-574.5 1309,-574.5 1309,-568.5 1315,-562.5 1321,-562.5 1321,-562.5 1487,-562.5 1487,-562.5 1493,-562.5 1499,-568.5 1499,-574.5 1499,-574.5 1499,-586.5 1499,-586.5 1499,-592.5 1493,-598.5 1487,-598.5"/>
<text text-anchor="middle" x="1404" y="-575.45" font-family="Helvetica,sans-Serif" font-size="14.00" fill="#e5e5e5">Power elevator to third level</text>
</g>
<!-- channelwood_door_opened&#45;&gt;channelwood_third_level -->
<g id="edge63" class="edge">
<title>channelwood_door_opened&#45;&gt;channelwood_third_level</title>
<path fill="none" stroke="#d9d9d9" d="M1414.24,-654.78C1412.44,-641.86 1410.05,-624.77 1408.03,-610.34"/>
<polygon fill="#d9d9d9" stroke="#d9d9d9" points="1411.51,-609.92 1406.66,-600.5 1404.57,-610.89 1411.51,-609.92"/>
</g>
<!-- channelwood_door_found&#45;&gt;channelwood_third_level -->
<g id="edge64" class="edge">
<title>channelwood_door_found&#45;&gt;channelwood_third_level</title>
<path fill="none" stroke="#d9d9d9" d="M1208.33,-657.01C1247.97,-641.71 1305.67,-619.44 1348.15,-603.05"/>
<polygon fill="#d9d9d9" stroke="#d9d9d9" points="1349.39,-606.32 1357.46,-599.46 1346.87,-599.79 1349.39,-606.32"/>
</g>
<!-- torn_paper_channelwood -->
<g id="node62" class="node">
<title>torn_paper_channelwood</title>
<path fill="none" stroke="#d9d9d9" d="M1494.75,-506C1494.75,-506 1357.25,-506 1357.25,-506 1351.25,-506 1345.25,-500 1345.25,-494 1345.25,-494 1345.25,-477 1345.25,-477 1345.25,-471 1351.25,-465 1357.25,-465 1357.25,-465 1494.75,-465 1494.75,-465 1500.75,-465 1506.75,-471 1506.75,-477 1506.75,-477 1506.75,-494 1506.75,-494 1506.75,-500 1500.75,-506 1494.75,-506"/>
<text text-anchor="middle" x="1426" y="-488.7" font-family="Helvetica,sans-Serif" font-size="14.00" fill="#e5e5e5">Find half of a torn page</text>
<text text-anchor="middle" x="1426" y="-472.2" font-family="Helvetica,sans-Serif" font-size="14.00" fill="#e5e5e5">in Sirrus&#39;s room</text>
</g>
<!-- channelwood_third_level&#45;&gt;torn_paper_channelwood -->
<g id="edge65" class="edge">
<title>channelwood_third_level&#45;&gt;torn_paper_channelwood</title>
<path fill="none" stroke="#d9d9d9" d="M1408.14,-562.01C1411.11,-549.43 1415.2,-532.13 1418.72,-517.27"/>
<polygon fill="#d9d9d9" stroke="#d9d9d9" points="1422.02,-518.51 1420.92,-507.97 1415.21,-516.9 1422.02,-518.51"/>
</g>
<!-- channelwood_page_found -->
<g id="node63" class="node">
<title>channelwood_page_found</title>
<path fill="none" stroke="#d9d9d9" d="M1308,-503.5C1308,-503.5 1100,-503.5 1100,-503.5 1094,-503.5 1088,-497.5 1088,-491.5 1088,-491.5 1088,-479.5 1088,-479.5 1088,-473.5 1094,-467.5 1100,-467.5 1100,-467.5 1308,-467.5 1308,-467.5 1314,-467.5 1320,-473.5 1320,-479.5 1320,-479.5 1320,-491.5 1320,-491.5 1320,-497.5 1314,-503.5 1308,-503.5"/>
<text text-anchor="middle" x="1204" y="-480.45" font-family="Helvetica,sans-Serif" font-size="14.00" fill="#e5e5e5">Find a page in the brothers&#39; rooms</text>
</g>
<!-- channelwood_third_level&#45;&gt;channelwood_page_found -->
<g id="edge66" class="edge">
<title>channelwood_third_level&#45;&gt;channelwood_page_found</title>
<path fill="none" stroke="#d9d9d9" d="M1366.38,-562.01C1333.84,-546.87 1286.62,-524.92 1251.48,-508.58"/>
<polygon fill="#d9d9d9" stroke="#d9d9d9" points="1253.37,-505.6 1242.82,-504.55 1250.41,-511.94 1253.37,-505.6"/>
</g>
<!-- torn_paper_channelwood&#45;&gt;learn_marker_switch_secret -->
<g id="edge84" class="edge">
<title>torn_paper_channelwood&#45;&gt;learn_marker_switch_secret</title>
<path fill="none" stroke="#d9d9d9" d="M1428.29,-464.57C1432.02,-432.05 1439.43,-367.48 1443.72,-330.08"/>
<polygon fill="#d9d9d9" stroke="#d9d9d9" points="1447.16,-330.81 1444.82,-320.48 1440.21,-330.01 1447.16,-330.81"/>
</g>
<!-- channelwood_page_found&#45;&gt;channelwood_complete -->
<g id="edge73" class="edge">
<title>channelwood_page_found&#45;&gt;channelwood_complete</title>
<path fill="none" stroke="#d9d9d9" d="M1184.33,-467.05C1168.95,-453.4 1147.36,-434.25 1130.15,-418.98"/>
<polygon fill="#d9d9d9" stroke="#d9d9d9" points="1132.54,-416.42 1122.74,-412.4 1127.9,-421.66 1132.54,-416.42"/>
</g>
<!-- channelwood_complete&#45;&gt;learn_fireplace_page_number -->
<g id="edge78" class="edge">
<title>channelwood_complete&#45;&gt;learn_fireplace_page_number</title>
<path fill="none" stroke="#d9d9d9" d="M1102,-374.55C1102,-362.67 1102,-346.62 1102,-332.59"/>
<polygon fill="#d9d9d9" stroke="#d9d9d9" points="1105.5,-332.93 1102,-322.93 1098.5,-332.93 1105.5,-332.93"/>
</g>
<!-- fireplace_entered -->
<g id="node66" class="node">
<title>fireplace_entered</title>
<path fill="none" stroke="#d9d9d9" d="M1187.5,-226C1187.5,-226 1030.5,-226 1030.5,-226 1024.5,-226 1018.5,-220 1018.5,-214 1018.5,-214 1018.5,-197 1018.5,-197 1018.5,-191 1024.5,-185 1030.5,-185 1030.5,-185 1187.5,-185 1187.5,-185 1193.5,-185 1199.5,-191 1199.5,-197 1199.5,-197 1199.5,-214 1199.5,-214 1199.5,-220 1193.5,-226 1187.5,-226"/>
<text text-anchor="middle" x="1109" y="-208.7" font-family="Helvetica,sans-Serif" font-size="14.00" fill="#e5e5e5">Pass through the fireplace</text>
<text text-anchor="middle" x="1109" y="-192.2" font-family="Helvetica,sans-Serif" font-size="14.00" fill="#e5e5e5">by using the code</text>
</g>
<!-- learn_fireplace_page_number&#45;&gt;fireplace_entered -->
<g id="edge79" class="edge">
<title>learn_fireplace_page_number&#45;&gt;fireplace_entered</title>
<path fill="none" stroke="#d9d9d9" d="M1103.48,-279.78C1104.41,-267.45 1105.63,-251.31 1106.68,-237.31"/>
<polygon fill="#d9d9d9" stroke="#d9d9d9" points="1110.14,-237.94 1107.4,-227.7 1103.16,-237.41 1110.14,-237.94"/>
</g>
<!-- fireplace_entered&#45;&gt;ending_trapped_atrus -->
<g id="edge81" class="edge">
<title>fireplace_entered&#45;&gt;ending_trapped_atrus</title>
<path fill="none" stroke="#d9d9d9" d="M1107.37,-184.57C1104.7,-152.05 1099.41,-87.48 1096.34,-50.08"/>
<polygon fill="#d9d9d9" stroke="#d9d9d9" points="1099.86,-50.16 1095.56,-40.48 1092.88,-50.73 1099.86,-50.16"/>
</g>
<!-- fireplace_entered&#45;&gt;white_page_obtained -->
<g id="edge80" class="edge">
<title>fireplace_entered&#45;&gt;white_page_obtained</title>
<path fill="none" stroke="#d9d9d9" d="M1183.59,-184.53C1239.18,-169.64 1314.84,-149.39 1370.81,-134.4"/>
<polygon fill="#d9d9d9" stroke="#d9d9d9" points="1371.51,-137.84 1380.26,-131.87 1369.7,-131.07 1371.51,-137.84"/>
</g>
<!-- sixth_page_found -->
<g id="node68" class="node">
<title>sixth_page_found</title>
<path fill="none" stroke="#d9d9d9" d="M1319.25,-131C1319.25,-131 1178.75,-131 1178.75,-131 1172.75,-131 1166.75,-125 1166.75,-119 1166.75,-119 1166.75,-107 1166.75,-107 1166.75,-101 1172.75,-95 1178.75,-95 1178.75,-95 1319.25,-95 1319.25,-95 1325.25,-95 1331.25,-101 1331.25,-107 1331.25,-107 1331.25,-119 1331.25,-119 1331.25,-125 1325.25,-131 1319.25,-131"/>
<text text-anchor="middle" x="1249" y="-107.95" font-family="Helvetica,sans-Serif" font-size="14.00" fill="#e5e5e5">The sixth red/blue page</text>
</g>
<!-- fireplace_entered&#45;&gt;sixth_page_found -->
<g id="edge82" class="edge">
<title>fireplace_entered&#45;&gt;sixth_page_found</title>
<path fill="none" stroke="#d9d9d9" d="M1139.72,-184.64C1161.18,-170.77 1189.91,-152.2 1212.53,-137.57"/>
<polygon fill="#d9d9d9" stroke="#d9d9d9" points="1214.36,-140.56 1220.86,-132.19 1210.56,-134.68 1214.36,-140.56"/>
</g>
<!-- white_page_obtained&#45;&gt;ending_good -->
<g id="edge90" class="edge">
<title>white_page_obtained&#45;&gt;ending_good</title>
<path fill="none" stroke="#d9d9d9" d="M1447,-94.55C1447,-82.03 1447,-64.87 1447,-50.33"/>
<polygon fill="#d9d9d9" stroke="#d9d9d9" points="1450.5,-50.41 1447,-40.41 1443.5,-50.41 1450.5,-50.41"/>
</g>
<!-- sixth_page_found&#45;&gt;ending_free_brother -->
<g id="edge83" class="edge">
<title>sixth_page_found&#45;&gt;ending_free_brother</title>
<path fill="none" stroke="#d9d9d9" d="M1250.54,-94.55C1251.59,-82.67 1253.01,-66.62 1254.25,-52.59"/>
<polygon fill="#d9d9d9" stroke="#d9d9d9" points="1257.71,-53.19 1255.11,-42.92 1250.74,-52.58 1257.71,-53.19"/>
</g>
<!-- learn_marker_switch_secret&#45;&gt;white_page_obtained -->
<g id="edge86" class="edge">
<title>learn_marker_switch_secret&#45;&gt;white_page_obtained</title>
<path fill="none" stroke="#d9d9d9" d="M1447,-282.05C1447,-250 1447,-181.47 1447,-142.55"/>
<polygon fill="#d9d9d9" stroke="#d9d9d9" points="1450.5,-142.78 1447,-132.78 1443.5,-142.78 1450.5,-142.78"/>
</g>
</g>
</svg>
