<?xml version="1.0" encoding="UTF-8" standalone="no"?>
<!DOCTYPE svg PUBLIC "-//W3C//DTD SVG 1.1//EN"
 "http://www.w3.org/Graphics/SVG/1.1/DTD/svg11.dtd">
<!-- Generated by graphviz version 10.0.1 (20240210.2158)
 -->
<!-- Title: puter_wilds_progression Pages: 1 -->
<svg width="375pt" height="332pt"
 viewBox="0.00 0.00 374.75 332.00" xmlns="http://www.w3.org/2000/svg" xmlns:xlink="http://www.w3.org/1999/xlink">
<g id="graph0" class="graph" transform="scale(1 1) rotate(0) translate(4 328)">
<title>puter_wilds_progression</title>
<polygon fill="#1f1f1f" stroke="none" points="-4,4 -4,-328 370.75,-328 370.75,4 -4,4"/>
<!-- 333 -->
<g id="node1" class="node">
<title>333</title>
<path fill="none" stroke="#d9d9d9" d="M172,-324C172,-324 142,-324 142,-324 136,-324 130,-318 130,-312 130,-312 130,-300 130,-300 130,-294 136,-288 142,-288 142,-288 172,-288 172,-288 178,-288 184,-294 184,-300 184,-300 184,-312 184,-312 184,-318 178,-324 172,-324"/>
<text text-anchor="middle" x="157" y="-300.95" font-family="Helvetica,sans-Serif" font-size="14.00" fill="#e5e5e5">333</text>
</g>
<!-- 113 -->
<g id="node3" class="node">
<title>113</title>
<path fill="none" stroke="#d9d9d9" d="M118,-252C118,-252 88,-252 88,-252 82,-252 76,-246 76,-240 76,-240 76,-228 76,-228 76,-222 82,-216 88,-216 88,-216 118,-216 118,-216 124,-216 130,-222 130,-228 130,-228 130,-240 130,-240 130,-246 124,-252 118,-252"/>
<text text-anchor="middle" x="103" y="-228.95" font-family="Helvetica,sans-Serif" font-size="14.00" fill="#e5e5e5">113</text>
</g>
<!-- 333&#45;&gt;113 -->
<g id="edge1" class="edge">
<title>333:sw&#45;&gt;113:ne</title>
<path fill="none" stroke="#d9d9d9" d="M130,-288C122.22,-280.22 130.49,-271.47 132.73,-263.08"/>
<polygon fill="#d9d9d9" stroke="#d9d9d9" points="136.16,-262.34 130.36,-253.47 129.36,-264.02 136.16,-262.34"/>
</g>
<!-- 311 -->
<g id="node4" class="node">
<title>311</title>
<path fill="none" stroke="#d9d9d9" d="M226,-252C226,-252 196,-252 196,-252 190,-252 184,-246 184,-240 184,-240 184,-228 184,-228 184,-222 190,-216 196,-216 196,-216 226,-216 226,-216 232,-216 238,-222 238,-228 238,-228 238,-240 238,-240 238,-246 232,-252 226,-252"/>
<text text-anchor="middle" x="211" y="-228.95" font-family="Helvetica,sans-Serif" font-size="14.00" fill="#e5e5e5">311</text>
</g>
<!-- 333&#45;&gt;311 -->
<g id="edge2" class="edge">
<title>333:se&#45;&gt;311:nw</title>
<path fill="none" stroke="#d9d9d9" d="M184,-288C191.78,-280.22 183.51,-271.47 181.27,-263.08"/>
<polygon fill="#d9d9d9" stroke="#d9d9d9" points="184.64,-264.02 183.64,-253.47 177.84,-262.34 184.64,-264.02"/>
</g>
<!-- 212 -->
<g id="node2" class="node">
<title>212</title>
<path fill="none" stroke="#d9d9d9" d="M175,-36C175,-36 145,-36 145,-36 139,-36 133,-30 133,-24 133,-24 133,-12 133,-12 133,-6 139,0 145,0 145,0 175,0 175,0 181,0 187,-6 187,-12 187,-12 187,-24 187,-24 187,-30 181,-36 175,-36"/>
<text text-anchor="middle" x="160" y="-12.95" font-family="Helvetica,sans-Serif" font-size="14.00" fill="#e5e5e5">212</text>
</g>
<!-- 223 -->
<g id="node5" class="node">
<title>223</title>
<path fill="none" stroke="#d9d9d9" d="M42,-180C42,-180 12,-180 12,-180 6,-180 0,-174 0,-168 0,-168 0,-156 0,-156 0,-150 6,-144 12,-144 12,-144 42,-144 42,-144 48,-144 54,-150 54,-156 54,-156 54,-168 54,-168 54,-174 48,-180 42,-180"/>
<text text-anchor="middle" x="27" y="-156.95" font-family="Helvetica,sans-Serif" font-size="14.00" fill="#e5e5e5">223</text>
</g>
<!-- 212&#45;&gt;223 -->
<g id="edge18" class="edge">
<title>212:w&#45;&gt;223:s</title>
<path fill="none" stroke="#d9d9d9" d="M132,-18C62.95,-18 30.5,-65.65 27.27,-132.64"/>
<polygon fill="#d9d9d9" stroke="#d9d9d9" points="23.77,-132.41 27.04,-142.49 30.77,-132.57 23.77,-132.41"/>
</g>
<!-- 322 -->
<g id="node7" class="node">
<title>322</title>
<path fill="none" stroke="#d9d9d9" d="M329,-180C329,-180 299,-180 299,-180 293,-180 287,-174 287,-168 287,-168 287,-156 287,-156 287,-150 293,-144 299,-144 299,-144 329,-144 329,-144 335,-144 341,-150 341,-156 341,-156 341,-168 341,-168 341,-174 335,-180 329,-180"/>
<text text-anchor="middle" x="314" y="-156.95" font-family="Helvetica,sans-Serif" font-size="14.00" fill="#e5e5e5">322</text>
</g>
<!-- 212&#45;&gt;322 -->
<g id="edge17" class="edge">
<title>212:e&#45;&gt;322:s</title>
<path fill="none" stroke="#d9d9d9" d="M188,-18C263.33,-18 309.35,-60.34 313.67,-132.63"/>
<polygon fill="#d9d9d9" stroke="#d9d9d9" points="310.16,-132.59 313.96,-142.49 317.16,-132.39 310.16,-132.59"/>
</g>
<!-- 113&#45;&gt;223 -->
<g id="edge3" class="edge">
<title>113:sw&#45;&gt;223:ne</title>
<path fill="none" stroke="#d9d9d9" d="M76,-216C65.95,-205.95 66.11,-198.07 61.01,-189.08"/>
<polygon fill="#d9d9d9" stroke="#d9d9d9" points="63.81,-186.97 54.93,-181.2 58.27,-191.25 63.81,-186.97"/>
</g>
<!-- 121 -->
<g id="node6" class="node">
<title>121</title>
<path fill="none" stroke="#d9d9d9" d="M165,-180C165,-180 135,-180 135,-180 129,-180 123,-174 123,-168 123,-168 123,-156 123,-156 123,-150 129,-144 135,-144 135,-144 165,-144 165,-144 171,-144 177,-150 177,-156 177,-156 177,-168 177,-168 177,-174 171,-180 165,-180"/>
<text text-anchor="middle" x="150" y="-156.95" font-family="Helvetica,sans-Serif" font-size="14.00" fill="#e5e5e5">121</text>
</g>
<!-- 113&#45;&gt;121 -->
<g id="edge4" class="edge">
<title>113:se&#45;&gt;121:nw</title>
<path fill="none" stroke="#d9d9d9" d="M130,-216C137.83,-208.17 126.46,-199.67 121.99,-191.42"/>
<polygon fill="#d9d9d9" stroke="#d9d9d9" points="125.47,-191.78 122.87,-181.51 118.5,-191.16 125.47,-191.78"/>
</g>
<!-- 311&#45;&gt;121 -->
<g id="edge5" class="edge">
<title>311:sw&#45;&gt;121:ne</title>
<path fill="none" stroke="#d9d9d9" d="M184,-216C175.9,-207.9 181.43,-199.09 181.42,-190.57"/>
<polygon fill="#d9d9d9" stroke="#d9d9d9" points="184.67,-189.27 177.58,-181.4 178.21,-191.97 184.67,-189.27"/>
</g>
<!-- 311&#45;&gt;322 -->
<g id="edge6" class="edge">
<title>311:se&#45;&gt;322:nw</title>
<path fill="none" stroke="#d9d9d9" d="M238,-216C254.12,-199.88 264.32,-198.94 278.59,-187.56"/>
<polygon fill="#d9d9d9" stroke="#d9d9d9" points="280.78,-190.3 285.87,-181.01 276.1,-185.09 280.78,-190.3"/>
</g>
<!-- 223&#45;&gt;333 -->
<g id="edge7" class="edge">
<title>223:n&#45;&gt;333:w</title>
<path fill="none" stroke="#d9d9d9" d="M27,-180C27,-248.11 53.76,-300.05 117.56,-305.52"/>
<polygon fill="#d9d9d9" stroke="#d9d9d9" points="117.35,-309.02 127.49,-305.94 117.64,-302.02 117.35,-309.02"/>
</g>
<!-- 231 -->
<g id="node8" class="node">
<title>231</title>
<path fill="none" stroke="#d9d9d9" d="M121,-108C121,-108 91,-108 91,-108 85,-108 79,-102 79,-96 79,-96 79,-84 79,-84 79,-78 85,-72 91,-72 91,-72 121,-72 121,-72 127,-72 133,-78 133,-84 133,-84 133,-96 133,-96 133,-102 127,-108 121,-108"/>
<text text-anchor="middle" x="106" y="-84.95" font-family="Helvetica,sans-Serif" font-size="14.00" fill="#e5e5e5">231</text>
</g>
<!-- 223&#45;&gt;231 -->
<g id="edge8" class="edge">
<title>223:se&#45;&gt;231:nw</title>
<path fill="none" stroke="#d9d9d9" d="M54,-144C64.65,-133.35 65.54,-125.88 71.77,-116.67"/>
<polygon fill="#d9d9d9" stroke="#d9d9d9" points="74.31,-119.08 78.03,-109.16 68.94,-114.6 74.31,-119.08"/>
</g>
<!-- 121&#45;&gt;231 -->
<g id="edge11" class="edge">
<title>121:sw&#45;&gt;231:ne</title>
<path fill="none" stroke="#d9d9d9" d="M123,-144C115.02,-136.02 127.93,-127.68 133.34,-119.47"/>
<polygon fill="#d9d9d9" stroke="#d9d9d9" points="136.84,-119.41 133.04,-109.51 129.84,-119.61 136.84,-119.41"/>
</g>
<!-- 132 -->
<g id="node9" class="node">
<title>132</title>
<path fill="none" stroke="#d9d9d9" d="M229,-108C229,-108 199,-108 199,-108 193,-108 187,-102 187,-96 187,-96 187,-84 187,-84 187,-78 193,-72 199,-72 199,-72 229,-72 229,-72 235,-72 241,-78 241,-84 241,-84 241,-96 241,-96 241,-102 235,-108 229,-108"/>
<text text-anchor="middle" x="214" y="-84.95" font-family="Helvetica,sans-Serif" font-size="14.00" fill="#e5e5e5">132</text>
</g>
<!-- 121&#45;&gt;132 -->
<g id="edge12" class="edge">
<title>121:se&#45;&gt;132:nw</title>
<path fill="none" stroke="#d9d9d9" d="M177,-144C185.44,-135.56 180.85,-126.72 181.96,-118.06"/>
<polygon fill="#d9d9d9" stroke="#d9d9d9" points="184.97,-119.86 186.32,-109.35 178.71,-116.72 184.97,-119.86"/>
</g>
<!-- 322&#45;&gt;333 -->
<g id="edge10" class="edge">
<title>322:n&#45;&gt;333:e</title>
<path fill="none" stroke="#d9d9d9" d="M314,-180C314,-256.39 269.62,-301.63 196.06,-305.7"/>
<polygon fill="#d9d9d9" stroke="#d9d9d9" points="196.41,-302.19 186.51,-305.96 196.6,-309.19 196.41,-302.19"/>
</g>
<!-- 322&#45;&gt;132 -->
<g id="edge9" class="edge">
<title>322:sw&#45;&gt;132:ne</title>
<path fill="none" stroke="#d9d9d9" d="M287,-144C271.65,-128.65 262.65,-126.64 249.38,-115.66"/>
<polygon fill="#d9d9d9" stroke="#d9d9d9" points="251.86,-113.19 242.12,-109.02 247.14,-118.35 251.86,-113.19"/>
</g>
<!-- 231&#45;&gt;212 -->
<g id="edge14" class="edge">
<title>231:se&#45;&gt;212:nw</title>
<path fill="none" stroke="#d9d9d9" d="M133,-72C140.78,-64.22 132.51,-55.47 130.27,-47.08"/>
<polygon fill="#d9d9d9" stroke="#d9d9d9" points="133.64,-48.02 132.64,-37.47 126.84,-46.34 133.64,-48.02"/>
</g>
<!-- 231&#45;&gt;311 -->
<g id="edge13" class="edge">
<title>231:n&#45;&gt;311:w</title>
<path fill="none" stroke="#d9d9d9" d="M106,-108C106,-164.79 321.78,-101.11 359,-144 369.49,-156.08 369.11,-167.6 359,-180 308.83,-241.55 235.86,-155.87 184,-216 182.28,-217.99 180.72,-220.61 179.68,-223.24"/>
<polygon fill="#d9d9d9" stroke="#d9d9d9" points="176.26,-224.03 182.55,-232.55 182.95,-221.97 176.26,-224.03"/>
</g>
<!-- 132&#45;&gt;212 -->
<g id="edge15" class="edge">
<title>132:sw&#45;&gt;212:ne</title>
<path fill="none" stroke="#d9d9d9" d="M187,-72C179.22,-64.22 187.49,-55.47 189.73,-47.08"/>
<polygon fill="#d9d9d9" stroke="#d9d9d9" points="193.16,-46.34 187.36,-37.47 186.36,-48.02 193.16,-46.34"/>
</g>
<!-- 132&#45;&gt;113 -->
<g id="edge16" class="edge">
<title>132:n&#45;&gt;113:e</title>
<path fill="none" stroke="#d9d9d9" d="M214,-108C214,-141.1 212.69,-152.03 195,-180 186.76,-193.02 161.04,-221.51 141.87,-230.92"/>
<polygon fill="#d9d9d9" stroke="#d9d9d9" points="141.12,-227.49 132.46,-233.59 143.03,-234.23 141.12,-227.49"/>
</g>
</g>
</svg>
