<?xml version="1.0" encoding="UTF-8" standalone="no"?>
<!DOCTYPE svg PUBLIC "-//W3C//DTD SVG 1.1//EN"
 "http://www.w3.org/Graphics/SVG/1.1/DTD/svg11.dtd">
<!-- Generated by graphviz version 2.49.3 (20211023.0002)
 -->
<!-- Title: myst_progression Pages: 1 -->
<svg width="2119pt" height="1596pt"
 viewBox="0.00 0.00 2119.25 1596.00" xmlns="http://www.w3.org/2000/svg" xmlns:xlink="http://www.w3.org/1999/xlink">
<g id="graph0" class="graph" transform="scale(1 1) rotate(0) translate(4 1592)">
<title>myst_progression</title>
<polygon fill="#1f1f1f" stroke="transparent" points="-4,4 -4,-1592 2115.25,-1592 2115.25,4 -4,4"/>
<g id="clust5" class="cluster">
<title>cluster_selenetic</title>
<polygon fill="#1f1f1f" stroke="red" points="626,-449 626,-994 1000,-994 1000,-449 626,-449"/>
<text text-anchor="middle" x="813" y="-970.8" font-family="Helvetica,sans-Serif" font-weight="bold" font-size="24.00" fill="red">Selenetic Age</text>
</g>
<g id="clust6" class="cluster">
<title>cluster_mechanical</title>
<polygon fill="#1f1f1f" stroke="red" points="8,-449 8,-994 618,-994 618,-449 8,-449"/>
<text text-anchor="middle" x="313" y="-970.8" font-family="Helvetica,sans-Serif" font-weight="bold" font-size="24.00" fill="red">Mechanical Age</text>
</g>
<g id="clust7" class="cluster">
<title>cluster_stoneship</title>
<polygon fill="#1f1f1f" stroke="red" points="1555,-358 1555,-994 2076,-994 2076,-358 1555,-358"/>
<text text-anchor="middle" x="1815.5" y="-970.8" font-family="Helvetica,sans-Serif" font-weight="bold" font-size="24.00" fill="red">Stoneship Age</text>
</g>
<g id="clust8" class="cluster">
<title>cluster_channelwood</title>
<polygon fill="#1f1f1f" stroke="red" points="1008,-358 1008,-994 1546,-994 1546,-358 1008,-358"/>
<text text-anchor="middle" x="1277" y="-970.8" font-family="Helvetica,sans-Serif" font-weight="bold" font-size="24.00" fill="red">Channelwood</text>
</g>
<!-- start -->
<g id="node1" class="node">
<title>start</title>
<path fill="#005000" stroke="#d9d9d9" d="M1279,-1588C1279,-1588 1249,-1588 1249,-1588 1243,-1588 1237,-1582 1237,-1576 1237,-1576 1237,-1564 1237,-1564 1237,-1558 1243,-1552 1249,-1552 1249,-1552 1279,-1552 1279,-1552 1285,-1552 1291,-1558 1291,-1564 1291,-1564 1291,-1576 1291,-1576 1291,-1582 1285,-1588 1279,-1588"/>
<text text-anchor="middle" x="1264" y="-1566.3" font-family="Helvetica,sans-Serif" font-size="14.00" fill="#e5e5e5">Start</text>
</g>
<!-- tower_rotation -->
<g id="node9" class="node">
<title>tower_rotation</title>
<path fill="none" stroke="#d9d9d9" d="M1154,-1497C1154,-1497 966,-1497 966,-1497 960,-1497 954,-1491 954,-1485 954,-1485 954,-1473 954,-1473 954,-1467 960,-1461 966,-1461 966,-1461 1154,-1461 1154,-1461 1160,-1461 1166,-1467 1166,-1473 1166,-1473 1166,-1485 1166,-1485 1166,-1491 1160,-1497 1154,-1497"/>
<text text-anchor="middle" x="1060" y="-1475.3" font-family="Helvetica,sans-Serif" font-size="14.00" fill="#e5e5e5">A button that rotates the tower</text>
</g>
<!-- start&#45;&gt;tower_rotation -->
<g id="edge5" class="edge">
<title>start&#45;&gt;tower_rotation</title>
<path fill="none" stroke="#d9d9d9" d="M1236.91,-1557.18C1204.2,-1542.91 1148.58,-1518.65 1108.43,-1501.13"/>
<polygon fill="#d9d9d9" stroke="#d9d9d9" points="1109.66,-1497.84 1099.09,-1497.05 1106.86,-1504.26 1109.66,-1497.84"/>
</g>
<!-- read_books -->
<g id="node10" class="node">
<title>read_books</title>
<path fill="#280060" stroke="#d9d9d9" d="M1645.5,-1316C1645.5,-1316 1514.5,-1316 1514.5,-1316 1508.5,-1316 1502.5,-1310 1502.5,-1304 1502.5,-1304 1502.5,-1290 1502.5,-1290 1502.5,-1284 1508.5,-1278 1514.5,-1278 1514.5,-1278 1645.5,-1278 1645.5,-1278 1651.5,-1278 1657.5,-1284 1657.5,-1290 1657.5,-1290 1657.5,-1304 1657.5,-1304 1657.5,-1310 1651.5,-1316 1645.5,-1316"/>
<text text-anchor="middle" x="1580" y="-1300.8" font-family="Helvetica,sans-Serif" font-size="14.00" fill="#e5e5e5">Library books bestow</text>
<text text-anchor="middle" x="1580" y="-1285.8" font-family="Helvetica,sans-Serif" font-size="14.00" fill="#e5e5e5">knowledge upon you</text>
</g>
<!-- start&#45;&gt;read_books -->
<g id="edge6" class="edge">
<title>start:e&#45;&gt;read_books</title>
<path fill="none" stroke="#d9d9d9" d="M1292,-1570C1360.56,-1570 1549.55,-1551.84 1592,-1498 1631.38,-1448.05 1608.38,-1367.43 1592.03,-1325.43"/>
<polygon fill="#d9d9d9" stroke="#d9d9d9" points="1595.25,-1324.06 1588.26,-1316.11 1588.76,-1326.69 1595.25,-1324.06"/>
</g>
<!-- basic_marker_switches -->
<g id="node11" class="node">
<title>basic_marker_switches</title>
<path fill="none" stroke="#d9d9d9" d="M1567.5,-1497C1567.5,-1497 1374.5,-1497 1374.5,-1497 1368.5,-1497 1362.5,-1491 1362.5,-1485 1362.5,-1485 1362.5,-1473 1362.5,-1473 1362.5,-1467 1368.5,-1461 1374.5,-1461 1374.5,-1461 1567.5,-1461 1567.5,-1461 1573.5,-1461 1579.5,-1467 1579.5,-1473 1579.5,-1473 1579.5,-1485 1579.5,-1485 1579.5,-1491 1573.5,-1497 1567.5,-1497"/>
<text text-anchor="start" x="1396.5" y="-1482.8" font-family="Helvetica,sans-Serif" font-size="14.00" fill="#e5e5e5">All the marker switches</text>
<text text-anchor="start" x="1370.5" y="-1468.8" font-family="Helvetica,sans-Serif" font-size="14.00" fill="#e5e5e5">enabled </text>
<text text-anchor="start" x="1425.5" y="-1468.8" font-family="Helvetica,sans-Serif" font-style="italic" font-size="14.00" fill="#e5e5e5">except </text>
<text text-anchor="start" x="1473.5" y="-1468.8" font-family="Helvetica,sans-Serif" font-size="14.00" fill="#e5e5e5">the clock tower</text>
</g>
<!-- start&#45;&gt;basic_marker_switches -->
<g id="edge7" class="edge">
<title>start&#45;&gt;basic_marker_switches</title>
<path fill="none" stroke="#d9d9d9" d="M1291.06,-1557.36C1324.21,-1543.11 1380.98,-1518.7 1421.9,-1501.11"/>
<polygon fill="#d9d9d9" stroke="#d9d9d9" points="1423.35,-1504.3 1431.16,-1497.13 1420.59,-1497.87 1423.35,-1504.3"/>
</g>
<!-- breaker_switches -->
<g id="node12" class="node">
<title>breaker_switches</title>
<path fill="none" stroke="#d9d9d9" d="M916.5,-1498C916.5,-1498 753.5,-1498 753.5,-1498 747.5,-1498 741.5,-1492 741.5,-1486 741.5,-1486 741.5,-1472 741.5,-1472 741.5,-1466 747.5,-1460 753.5,-1460 753.5,-1460 916.5,-1460 916.5,-1460 922.5,-1460 928.5,-1466 928.5,-1472 928.5,-1472 928.5,-1486 928.5,-1486 928.5,-1492 922.5,-1498 916.5,-1498"/>
<text text-anchor="middle" x="835" y="-1482.8" font-family="Helvetica,sans-Serif" font-size="14.00" fill="#e5e5e5">Switches on the electrical</text>
<text text-anchor="middle" x="835" y="-1467.8" font-family="Helvetica,sans-Serif" font-size="14.00" fill="#e5e5e5">towers reset the generator</text>
</g>
<!-- start&#45;&gt;breaker_switches -->
<g id="edge8" class="edge">
<title>start:w&#45;&gt;breaker_switches</title>
<path fill="none" stroke="#d9d9d9" d="M1236,-1570C1111.3,-1570 969.96,-1528.05 892.83,-1501.43"/>
<polygon fill="#d9d9d9" stroke="#d9d9d9" points="893.88,-1498.09 883.29,-1498.1 891.58,-1504.7 893.88,-1498.09"/>
</g>
<!-- tower_access -->
<g id="node13" class="node">
<title>tower_access</title>
<path fill="none" stroke="#d9d9d9" d="M1325,-1498C1325,-1498 1203,-1498 1203,-1498 1197,-1498 1191,-1492 1191,-1486 1191,-1486 1191,-1472 1191,-1472 1191,-1466 1197,-1460 1203,-1460 1203,-1460 1325,-1460 1325,-1460 1331,-1460 1337,-1466 1337,-1472 1337,-1472 1337,-1486 1337,-1486 1337,-1492 1331,-1498 1325,-1498"/>
<text text-anchor="middle" x="1264" y="-1482.8" font-family="Helvetica,sans-Serif" font-size="14.00" fill="#e5e5e5">Library painting</text>
<text text-anchor="middle" x="1264" y="-1467.8" font-family="Helvetica,sans-Serif" font-size="14.00" fill="#e5e5e5">grants tower access</text>
</g>
<!-- start&#45;&gt;tower_access -->
<g id="edge4" class="edge">
<title>start&#45;&gt;tower_access</title>
<path fill="none" stroke="#d9d9d9" d="M1264,-1551.84C1264,-1539.52 1264,-1522.64 1264,-1508.34"/>
<polygon fill="#d9d9d9" stroke="#d9d9d9" points="1267.5,-1508.02 1264,-1498.02 1260.5,-1508.02 1267.5,-1508.02"/>
</g>
<!-- ending_trapped_atrus -->
<g id="node2" class="node">
<title>ending_trapped_atrus</title>
<path fill="#500000" stroke="#d9d9d9" d="M1397,-37C1397,-37 1281,-37 1281,-37 1275,-37 1269,-31 1269,-25 1269,-25 1269,-13 1269,-13 1269,-7 1275,-1 1281,-1 1281,-1 1397,-1 1397,-1 1403,-1 1409,-7 1409,-13 1409,-13 1409,-25 1409,-25 1409,-31 1403,-37 1397,-37"/>
<text text-anchor="middle" x="1339" y="-15.3" font-family="Helvetica,sans-Serif" font-size="14.00" fill="#e5e5e5">Trapped with Atrus</text>
</g>
<!-- ending_free_brother -->
<g id="node3" class="node">
<title>ending_free_brother</title>
<path fill="#500000" stroke="#d9d9d9" d="M1567.5,-38C1567.5,-38 1446.5,-38 1446.5,-38 1440.5,-38 1434.5,-32 1434.5,-26 1434.5,-26 1434.5,-12 1434.5,-12 1434.5,-6 1440.5,0 1446.5,0 1446.5,0 1567.5,0 1567.5,0 1573.5,0 1579.5,-6 1579.5,-12 1579.5,-12 1579.5,-26 1579.5,-26 1579.5,-32 1573.5,-38 1567.5,-38"/>
<text text-anchor="middle" x="1507" y="-22.8" font-family="Helvetica,sans-Serif" font-size="14.00" fill="#e5e5e5">You freed a brother,</text>
<text text-anchor="middle" x="1507" y="-7.8" font-family="Helvetica,sans-Serif" font-size="14.00" fill="#e5e5e5">but at what cost?</text>
</g>
<!-- ending_good -->
<g id="node4" class="node">
<title>ending_good</title>
<path fill="#500000" stroke="#d9d9d9" d="M1712.5,-37C1712.5,-37 1635.5,-37 1635.5,-37 1629.5,-37 1623.5,-31 1623.5,-25 1623.5,-25 1623.5,-13 1623.5,-13 1623.5,-7 1629.5,-1 1635.5,-1 1635.5,-1 1712.5,-1 1712.5,-1 1718.5,-1 1724.5,-7 1724.5,-13 1724.5,-13 1724.5,-25 1724.5,-25 1724.5,-31 1718.5,-37 1712.5,-37"/>
<text text-anchor="middle" x="1674" y="-15.3" font-family="Helvetica,sans-Serif" font-size="14.00" fill="#e5e5e5">Good Ending</text>
</g>
<!-- stoneship_access -->
<g id="node5" class="node">
<title>stoneship_access</title>
<path fill="none" stroke="#d9d9d9" d="M1832,-1042C1832,-1042 1746,-1042 1746,-1042 1740,-1042 1734,-1036 1734,-1030 1734,-1030 1734,-1018 1734,-1018 1734,-1012 1740,-1006 1746,-1006 1746,-1006 1832,-1006 1832,-1006 1838,-1006 1844,-1012 1844,-1018 1844,-1018 1844,-1030 1844,-1030 1844,-1036 1838,-1042 1832,-1042"/>
<text text-anchor="middle" x="1789" y="-1020.3" font-family="Helvetica,sans-Serif" font-size="14.00" fill="#e5e5e5">Boat is unsunk</text>
</g>
<!-- stoneship_entered -->
<g id="node44" class="node">
<title>stoneship_entered</title>
<path fill="none" stroke="#d9d9d9" d="M1951.5,-952C1951.5,-952 1804.5,-952 1804.5,-952 1798.5,-952 1792.5,-946 1792.5,-940 1792.5,-940 1792.5,-928 1792.5,-928 1792.5,-922 1798.5,-916 1804.5,-916 1804.5,-916 1951.5,-916 1951.5,-916 1957.5,-916 1963.5,-922 1963.5,-928 1963.5,-928 1963.5,-940 1963.5,-940 1963.5,-946 1957.5,-952 1951.5,-952"/>
<text text-anchor="middle" x="1878" y="-930.3" font-family="Helvetica,sans-Serif" font-size="14.00" fill="#e5e5e5">Enter the Stoneship age</text>
</g>
<!-- stoneship_access&#45;&gt;stoneship_entered -->
<g id="edge21" class="edge">
<title>stoneship_access&#45;&gt;stoneship_entered</title>
<path fill="none" stroke="#d9d9d9" d="M1806.58,-1005.61C1819.96,-992.39 1838.52,-974.03 1853.38,-959.35"/>
<polygon fill="#d9d9d9" stroke="#d9d9d9" points="1856.11,-961.57 1860.76,-952.05 1851.18,-956.59 1856.11,-961.57"/>
</g>
<!-- mechanical_access -->
<g id="node6" class="node">
<title>mechanical_access</title>
<path fill="#280060" stroke="#d9d9d9" d="M564.5,-1042C564.5,-1042 457.5,-1042 457.5,-1042 451.5,-1042 445.5,-1036 445.5,-1030 445.5,-1030 445.5,-1018 445.5,-1018 445.5,-1012 451.5,-1006 457.5,-1006 457.5,-1006 564.5,-1006 564.5,-1006 570.5,-1006 576.5,-1012 576.5,-1018 576.5,-1018 576.5,-1030 576.5,-1030 576.5,-1036 570.5,-1042 564.5,-1042"/>
<text text-anchor="middle" x="511" y="-1020.3" font-family="Helvetica,sans-Serif" font-size="14.00" fill="#e5e5e5">Open the big gear</text>
</g>
<!-- mechanical_entered -->
<g id="node35" class="node">
<title>mechanical_entered</title>
<path fill="none" stroke="#d9d9d9" d="M494,-952C494,-952 336,-952 336,-952 330,-952 324,-946 324,-940 324,-940 324,-928 324,-928 324,-922 330,-916 336,-916 336,-916 494,-916 494,-916 500,-916 506,-922 506,-928 506,-928 506,-940 506,-940 506,-946 500,-952 494,-952"/>
<text text-anchor="middle" x="415" y="-930.3" font-family="Helvetica,sans-Serif" font-size="14.00" fill="#e5e5e5">Enter the Mechanical Age</text>
</g>
<!-- mechanical_access&#45;&gt;mechanical_entered -->
<g id="edge34" class="edge">
<title>mechanical_access&#45;&gt;mechanical_entered</title>
<path fill="none" stroke="#d9d9d9" d="M492.03,-1005.61C477.48,-992.27 457.21,-973.69 441.12,-958.94"/>
<polygon fill="#d9d9d9" stroke="#d9d9d9" points="443.34,-956.23 433.6,-952.05 438.61,-961.39 443.34,-956.23"/>
</g>
<!-- selenetic_access -->
<g id="node7" class="node">
<title>selenetic_access</title>
<path fill="none" stroke="#d9d9d9" d="M1019,-1042C1019,-1042 801,-1042 801,-1042 795,-1042 789,-1036 789,-1030 789,-1030 789,-1018 789,-1018 789,-1012 795,-1006 801,-1006 801,-1006 1019,-1006 1019,-1006 1025,-1006 1031,-1012 1031,-1018 1031,-1018 1031,-1030 1031,-1030 1031,-1036 1025,-1042 1019,-1042"/>
<text text-anchor="middle" x="910" y="-1020.3" font-family="Helvetica,sans-Serif" font-size="14.00" fill="#e5e5e5">Book appears on spaceship screen</text>
</g>
<!-- selenetic_entered -->
<g id="node28" class="node">
<title>selenetic_entered</title>
<path fill="none" stroke="#d9d9d9" d="M979.5,-952C979.5,-952 836.5,-952 836.5,-952 830.5,-952 824.5,-946 824.5,-940 824.5,-940 824.5,-928 824.5,-928 824.5,-922 830.5,-916 836.5,-916 836.5,-916 979.5,-916 979.5,-916 985.5,-916 991.5,-922 991.5,-928 991.5,-928 991.5,-940 991.5,-940 991.5,-946 985.5,-952 979.5,-952"/>
<text text-anchor="middle" x="908" y="-930.3" font-family="Helvetica,sans-Serif" font-size="14.00" fill="#e5e5e5">Enter the Selenetic age</text>
</g>
<!-- selenetic_access&#45;&gt;selenetic_entered -->
<g id="edge48" class="edge">
<title>selenetic_access&#45;&gt;selenetic_entered</title>
<path fill="none" stroke="#d9d9d9" d="M909.6,-1005.61C909.32,-993.24 908.94,-976.37 908.62,-962.22"/>
<polygon fill="#d9d9d9" stroke="#d9d9d9" points="912.11,-961.97 908.39,-952.05 905.12,-962.13 912.11,-961.97"/>
</g>
<!-- channelwood_access -->
<g id="node8" class="node">
<title>channelwood_access</title>
<path fill="#280060" stroke="#d9d9d9" d="M1319.5,-1042C1319.5,-1042 1102.5,-1042 1102.5,-1042 1096.5,-1042 1090.5,-1036 1090.5,-1030 1090.5,-1030 1090.5,-1018 1090.5,-1018 1090.5,-1012 1096.5,-1006 1102.5,-1006 1102.5,-1006 1319.5,-1006 1319.5,-1006 1325.5,-1006 1331.5,-1012 1331.5,-1018 1331.5,-1018 1331.5,-1030 1331.5,-1030 1331.5,-1036 1325.5,-1042 1319.5,-1042"/>
<text text-anchor="middle" x="1211" y="-1020.3" font-family="Helvetica,sans-Serif" font-size="14.00" fill="#e5e5e5">Find secret room under the big tree</text>
</g>
<!-- channelwood_entered -->
<g id="node54" class="node">
<title>channelwood_entered</title>
<path fill="none" stroke="#d9d9d9" d="M1270.5,-952C1270.5,-952 1151.5,-952 1151.5,-952 1145.5,-952 1139.5,-946 1139.5,-940 1139.5,-940 1139.5,-928 1139.5,-928 1139.5,-922 1145.5,-916 1151.5,-916 1151.5,-916 1270.5,-916 1270.5,-916 1276.5,-916 1282.5,-922 1282.5,-928 1282.5,-928 1282.5,-940 1282.5,-940 1282.5,-946 1276.5,-952 1270.5,-952"/>
<text text-anchor="middle" x="1211" y="-930.3" font-family="Helvetica,sans-Serif" font-size="14.00" fill="#e5e5e5">Enter Channelwood</text>
</g>
<!-- channelwood_access&#45;&gt;channelwood_entered -->
<g id="edge56" class="edge">
<title>channelwood_access&#45;&gt;channelwood_entered</title>
<path fill="none" stroke="#d9d9d9" d="M1211,-1005.61C1211,-993.24 1211,-976.37 1211,-962.22"/>
<polygon fill="#d9d9d9" stroke="#d9d9d9" points="1214.5,-962.05 1211,-952.05 1207.5,-962.05 1214.5,-962.05"/>
</g>
<!-- tower_aligned -->
<g id="node14" class="node">
<title>tower_aligned</title>
<path fill="#280060" stroke="#d9d9d9" d="M1361.5,-1406C1361.5,-1406 1166.5,-1406 1166.5,-1406 1160.5,-1406 1154.5,-1400 1154.5,-1394 1154.5,-1394 1154.5,-1382 1154.5,-1382 1154.5,-1376 1160.5,-1370 1166.5,-1370 1166.5,-1370 1361.5,-1370 1361.5,-1370 1367.5,-1370 1373.5,-1376 1373.5,-1382 1373.5,-1382 1373.5,-1394 1373.5,-1394 1373.5,-1400 1367.5,-1406 1361.5,-1406"/>
<text text-anchor="middle" x="1264" y="-1384.3" font-family="Helvetica,sans-Serif" font-size="14.00" fill="#e5e5e5">Align the tower to receive clues</text>
</g>
<!-- tower_rotation&#45;&gt;tower_aligned -->
<g id="edge10" class="edge">
<title>tower_rotation&#45;&gt;tower_aligned</title>
<path fill="none" stroke="#d9d9d9" d="M1099.33,-1460.84C1132.49,-1446.37 1180.08,-1425.61 1215.58,-1410.12"/>
<polygon fill="#d9d9d9" stroke="#d9d9d9" points="1217.02,-1413.31 1224.79,-1406.11 1214.22,-1406.9 1217.02,-1413.31"/>
</g>
<!-- tones_matched -->
<g id="node21" class="node">
<title>tones_matched</title>
<path fill="#280060" stroke="#d9d9d9" d="M1026.5,-1132C1026.5,-1132 829.5,-1132 829.5,-1132 823.5,-1132 817.5,-1126 817.5,-1120 817.5,-1120 817.5,-1108 817.5,-1108 817.5,-1102 823.5,-1096 829.5,-1096 829.5,-1096 1026.5,-1096 1026.5,-1096 1032.5,-1096 1038.5,-1102 1038.5,-1108 1038.5,-1108 1038.5,-1120 1038.5,-1120 1038.5,-1126 1032.5,-1132 1026.5,-1132"/>
<text text-anchor="middle" x="928" y="-1110.3" font-family="Helvetica,sans-Serif" font-size="14.00" fill="#e5e5e5">Perform an incredible piano solo</text>
</g>
<!-- read_books&#45;&gt;tones_matched -->
<g id="edge46" class="edge">
<title>read_books&#45;&gt;tones_matched</title>
<path fill="none" stroke="#d9d9d9" d="M1502.33,-1288.2C1418.85,-1278.48 1282.94,-1258.75 1170,-1224 1096.09,-1201.26 1015.09,-1161.49 968.06,-1136.8"/>
<polygon fill="#d9d9d9" stroke="#d9d9d9" points="969.59,-1133.65 959.11,-1132.07 966.32,-1139.84 969.59,-1133.65"/>
</g>
<!-- star_constellation_mapping -->
<g id="node25" class="node">
<title>star_constellation_mapping</title>
<path fill="none" stroke="#d9d9d9" d="M1650,-1224C1650,-1224 1510,-1224 1510,-1224 1504,-1224 1498,-1218 1498,-1212 1498,-1212 1498,-1198 1498,-1198 1498,-1192 1504,-1186 1510,-1186 1510,-1186 1650,-1186 1650,-1186 1656,-1186 1662,-1192 1662,-1198 1662,-1198 1662,-1212 1662,-1212 1662,-1218 1656,-1224 1650,-1224"/>
<text text-anchor="middle" x="1580" y="-1208.8" font-family="Helvetica,sans-Serif" font-size="14.00" fill="#e5e5e5">Learn star/constellation</text>
<text text-anchor="middle" x="1580" y="-1193.8" font-family="Helvetica,sans-Serif" font-size="14.00" fill="#e5e5e5">mapping from book</text>
</g>
<!-- read_books&#45;&gt;star_constellation_mapping -->
<g id="edge17" class="edge">
<title>read_books&#45;&gt;star_constellation_mapping</title>
<path fill="none" stroke="#d9d9d9" d="M1580,-1277.79C1580,-1265.34 1580,-1248.61 1580,-1234.42"/>
<polygon fill="#d9d9d9" stroke="#d9d9d9" points="1583.5,-1234.19 1580,-1224.19 1576.5,-1234.19 1583.5,-1234.19"/>
</g>
<!-- channelwood_door_opened -->
<g id="node59" class="node">
<title>channelwood_door_opened</title>
<path fill="#280060" stroke="#d9d9d9" d="M1526,-678C1526,-678 1366,-678 1366,-678 1360,-678 1354,-672 1354,-666 1354,-666 1354,-652 1354,-652 1354,-646 1360,-640 1366,-640 1366,-640 1526,-640 1526,-640 1532,-640 1538,-646 1538,-652 1538,-652 1538,-666 1538,-666 1538,-672 1532,-678 1526,-678"/>
<text text-anchor="middle" x="1446" y="-662.8" font-family="Helvetica,sans-Serif" font-size="14.00" fill="#e5e5e5">Pull the well&#45;hidden lever</text>
<text text-anchor="middle" x="1446" y="-647.8" font-family="Helvetica,sans-Serif" font-size="14.00" fill="#e5e5e5">to open the staircase door</text>
</g>
<!-- read_books&#45;&gt;channelwood_door_opened -->
<g id="edge3" class="edge">
<title>read_books&#45;&gt;channelwood_door_opened</title>
<g id="a_edge3"><a xlink:title="You can find the lever via dumb luck">
<path fill="none" stroke="#d9d9d9" stroke-dasharray="5,2" d="M1554.65,-1277.76C1508.11,-1243.62 1412.4,-1170.07 1397,-1132 1391,-1117.17 1394.85,-1111.86 1397,-1096 1417.18,-947.05 1466.82,-918.95 1487,-770 1489.27,-753.26 1491.32,-748.33 1487,-732 1482.72,-715.84 1473.88,-699.52 1465.5,-686.51"/>
<polygon fill="#d9d9d9" stroke="#d9d9d9" points="1468.32,-684.43 1459.84,-678.08 1462.51,-688.33 1468.32,-684.43"/>
</a>
</g>
</g>
<!-- basic_marker_switches&#45;&gt;tower_aligned -->
<g id="edge11" class="edge">
<title>basic_marker_switches&#45;&gt;tower_aligned</title>
<path fill="none" stroke="#d9d9d9" d="M1431.09,-1460.84C1397.44,-1446.37 1349.15,-1425.61 1313.13,-1410.12"/>
<polygon fill="#d9d9d9" stroke="#d9d9d9" points="1314.36,-1406.84 1303.79,-1406.11 1311.59,-1413.27 1314.36,-1406.84"/>
</g>
<!-- all_marker_switches -->
<g id="node19" class="node">
<title>all_marker_switches</title>
<path fill="none" stroke="#d9d9d9" d="M2053,-1042C2053,-1042 1881,-1042 1881,-1042 1875,-1042 1869,-1036 1869,-1030 1869,-1030 1869,-1018 1869,-1018 1869,-1012 1875,-1006 1881,-1006 1881,-1006 2053,-1006 2053,-1006 2059,-1006 2065,-1012 2065,-1018 2065,-1018 2065,-1030 2065,-1030 2065,-1036 2059,-1042 2053,-1042"/>
<text text-anchor="middle" x="1967" y="-1020.3" font-family="Helvetica,sans-Serif" font-size="14.00" fill="#e5e5e5">All marker switches enabled</text>
</g>
<!-- basic_marker_switches&#45;&gt;all_marker_switches -->
<g id="edge88" class="edge">
<title>basic_marker_switches&#45;&gt;all_marker_switches</title>
<path fill="none" stroke="#d9d9d9" d="M1578.06,-1460.98C1722.79,-1434.89 1963,-1379.35 1963,-1298 1963,-1298 1963,-1298 1963,-1204 1963,-1150.29 1964.82,-1087.53 1966.01,-1052.41"/>
<polygon fill="#d9d9d9" stroke="#d9d9d9" points="1969.52,-1052.14 1966.37,-1042.03 1962.52,-1051.9 1969.52,-1052.14"/>
</g>
<!-- voltage_set -->
<g id="node20" class="node">
<title>voltage_set</title>
<path fill="#280060" stroke="#d9d9d9" d="M1021.5,-1224C1021.5,-1224 872.5,-1224 872.5,-1224 866.5,-1224 860.5,-1218 860.5,-1212 860.5,-1212 860.5,-1198 860.5,-1198 860.5,-1192 866.5,-1186 872.5,-1186 872.5,-1186 1021.5,-1186 1021.5,-1186 1027.5,-1186 1033.5,-1192 1033.5,-1198 1033.5,-1198 1033.5,-1212 1033.5,-1212 1033.5,-1218 1027.5,-1224 1021.5,-1224"/>
<text text-anchor="middle" x="947" y="-1208.8" font-family="Helvetica,sans-Serif" font-size="14.00" fill="#e5e5e5">Perform math to achieve</text>
<text text-anchor="middle" x="947" y="-1193.8" font-family="Helvetica,sans-Serif" font-size="14.00" fill="#e5e5e5">the perfect voltage</text>
</g>
<!-- breaker_switches&#45;&gt;voltage_set -->
<g id="edge1" class="edge">
<title>breaker_switches&#45;&gt;voltage_set</title>
<g id="a_edge1"><a xlink:title="If you never fail you don&#39;t need to reset">
<path fill="none" stroke="#d9d9d9" stroke-dasharray="5,2" d="M842.52,-1459.73C861.73,-1413.08 912.68,-1289.35 935.58,-1233.75"/>
<polygon fill="#d9d9d9" stroke="#d9d9d9" points="938.94,-1234.77 939.51,-1224.19 932.47,-1232.1 938.94,-1234.77"/>
</a>
</g>
</g>
<!-- tower_access&#45;&gt;tower_aligned -->
<g id="edge9" class="edge">
<title>tower_access&#45;&gt;tower_aligned</title>
<path fill="none" stroke="#d9d9d9" d="M1264,-1459.99C1264,-1447.44 1264,-1430.48 1264,-1416.28"/>
<polygon fill="#d9d9d9" stroke="#d9d9d9" points="1267.5,-1416.08 1264,-1406.08 1260.5,-1416.08 1267.5,-1416.08"/>
</g>
<!-- stoneship_clue -->
<g id="node15" class="node">
<title>stoneship_clue</title>
<path fill="none" stroke="#d9d9d9" d="M1813.5,-1315C1813.5,-1315 1726.5,-1315 1726.5,-1315 1720.5,-1315 1714.5,-1309 1714.5,-1303 1714.5,-1303 1714.5,-1291 1714.5,-1291 1714.5,-1285 1720.5,-1279 1726.5,-1279 1726.5,-1279 1813.5,-1279 1813.5,-1279 1819.5,-1279 1825.5,-1285 1825.5,-1291 1825.5,-1291 1825.5,-1303 1825.5,-1303 1825.5,-1309 1819.5,-1315 1813.5,-1315"/>
<text text-anchor="middle" x="1770" y="-1293.3" font-family="Helvetica,sans-Serif" font-size="14.00" fill="#e5e5e5">Stoneship clue</text>
</g>
<!-- tower_aligned&#45;&gt;stoneship_clue -->
<g id="edge12" class="edge">
<title>tower_aligned&#45;&gt;stoneship_clue</title>
<path fill="none" stroke="#d9d9d9" d="M1362.06,-1369.99C1444.3,-1355.69 1564.85,-1334.66 1670,-1316 1681.15,-1314.02 1693,-1311.9 1704.49,-1309.84"/>
<polygon fill="#d9d9d9" stroke="#d9d9d9" points="1705.25,-1313.26 1714.47,-1308.05 1704.01,-1306.37 1705.25,-1313.26"/>
</g>
<!-- mechanical_clue -->
<g id="node16" class="node">
<title>mechanical_clue</title>
<path fill="none" stroke="#d9d9d9" d="M1348.5,-1315C1348.5,-1315 1253.5,-1315 1253.5,-1315 1247.5,-1315 1241.5,-1309 1241.5,-1303 1241.5,-1303 1241.5,-1291 1241.5,-1291 1241.5,-1285 1247.5,-1279 1253.5,-1279 1253.5,-1279 1348.5,-1279 1348.5,-1279 1354.5,-1279 1360.5,-1285 1360.5,-1291 1360.5,-1291 1360.5,-1303 1360.5,-1303 1360.5,-1309 1354.5,-1315 1348.5,-1315"/>
<text text-anchor="middle" x="1301" y="-1293.3" font-family="Helvetica,sans-Serif" font-size="14.00" fill="#e5e5e5">Mechanical clue</text>
</g>
<!-- tower_aligned&#45;&gt;mechanical_clue -->
<g id="edge13" class="edge">
<title>tower_aligned&#45;&gt;mechanical_clue</title>
<path fill="none" stroke="#d9d9d9" d="M1271.13,-1369.84C1276.46,-1357.04 1283.83,-1339.3 1289.92,-1324.65"/>
<polygon fill="#d9d9d9" stroke="#d9d9d9" points="1293.28,-1325.68 1293.89,-1315.11 1286.82,-1323 1293.28,-1325.68"/>
</g>
<!-- selenetic_clue -->
<g id="node17" class="node">
<title>selenetic_clue</title>
<path fill="none" stroke="#d9d9d9" d="M1031.5,-1315C1031.5,-1315 948.5,-1315 948.5,-1315 942.5,-1315 936.5,-1309 936.5,-1303 936.5,-1303 936.5,-1291 936.5,-1291 936.5,-1285 942.5,-1279 948.5,-1279 948.5,-1279 1031.5,-1279 1031.5,-1279 1037.5,-1279 1043.5,-1285 1043.5,-1291 1043.5,-1291 1043.5,-1303 1043.5,-1303 1043.5,-1309 1037.5,-1315 1031.5,-1315"/>
<text text-anchor="middle" x="990" y="-1293.3" font-family="Helvetica,sans-Serif" font-size="14.00" fill="#e5e5e5">Selenetic clue</text>
</g>
<!-- tower_aligned&#45;&gt;selenetic_clue -->
<g id="edge14" class="edge">
<title>tower_aligned&#45;&gt;selenetic_clue</title>
<path fill="none" stroke="#d9d9d9" d="M1211.49,-1369.95C1166.14,-1355.21 1100.51,-1333.89 1052.46,-1318.29"/>
<polygon fill="#d9d9d9" stroke="#d9d9d9" points="1053.39,-1314.91 1042.79,-1315.15 1051.22,-1321.57 1053.39,-1314.91"/>
</g>
<!-- channelwood_clue -->
<g id="node18" class="node">
<title>channelwood_clue</title>
<path fill="none" stroke="#d9d9d9" d="M1201,-1315C1201,-1315 1091,-1315 1091,-1315 1085,-1315 1079,-1309 1079,-1303 1079,-1303 1079,-1291 1079,-1291 1079,-1285 1085,-1279 1091,-1279 1091,-1279 1201,-1279 1201,-1279 1207,-1279 1213,-1285 1213,-1291 1213,-1291 1213,-1303 1213,-1303 1213,-1309 1207,-1315 1201,-1315"/>
<text text-anchor="middle" x="1146" y="-1293.3" font-family="Helvetica,sans-Serif" font-size="14.00" fill="#e5e5e5">Channelwood clue</text>
</g>
<!-- tower_aligned&#45;&gt;channelwood_clue -->
<g id="edge15" class="edge">
<title>tower_aligned&#45;&gt;channelwood_clue</title>
<path fill="none" stroke="#d9d9d9" d="M1241.25,-1369.84C1222.88,-1355.99 1196.87,-1336.37 1176.67,-1321.13"/>
<polygon fill="#d9d9d9" stroke="#d9d9d9" points="1178.77,-1318.33 1168.68,-1315.11 1174.56,-1323.92 1178.77,-1318.33"/>
</g>
<!-- date_star_mapping -->
<g id="node24" class="node">
<title>date_star_mapping</title>
<path fill="none" stroke="#d9d9d9" d="M1904.5,-1223C1904.5,-1223 1699.5,-1223 1699.5,-1223 1693.5,-1223 1687.5,-1217 1687.5,-1211 1687.5,-1211 1687.5,-1199 1687.5,-1199 1687.5,-1193 1693.5,-1187 1699.5,-1187 1699.5,-1187 1904.5,-1187 1904.5,-1187 1910.5,-1187 1916.5,-1193 1916.5,-1199 1916.5,-1199 1916.5,-1211 1916.5,-1211 1916.5,-1217 1910.5,-1223 1904.5,-1223"/>
<text text-anchor="middle" x="1802" y="-1201.3" font-family="Helvetica,sans-Serif" font-size="14.00" fill="#e5e5e5">Use the spooky chair to get stars</text>
</g>
<!-- stoneship_clue&#45;&gt;date_star_mapping -->
<g id="edge16" class="edge">
<title>stoneship_clue&#45;&gt;date_star_mapping</title>
<path fill="none" stroke="#d9d9d9" d="M1776.17,-1278.65C1780.77,-1265.7 1787.15,-1247.76 1792.42,-1232.95"/>
<polygon fill="#d9d9d9" stroke="#d9d9d9" points="1795.8,-1233.89 1795.85,-1223.3 1789.2,-1231.55 1795.8,-1233.89"/>
</g>
<!-- clocktower_bridge_raised -->
<g id="node22" class="node">
<title>clocktower_bridge_raised</title>
<path fill="#280060" stroke="#d9d9d9" d="M1409.5,-1223C1409.5,-1223 1194.5,-1223 1194.5,-1223 1188.5,-1223 1182.5,-1217 1182.5,-1211 1182.5,-1211 1182.5,-1199 1182.5,-1199 1182.5,-1193 1188.5,-1187 1194.5,-1187 1194.5,-1187 1409.5,-1187 1409.5,-1187 1415.5,-1187 1421.5,-1193 1421.5,-1199 1421.5,-1199 1421.5,-1211 1421.5,-1211 1421.5,-1217 1415.5,-1223 1409.5,-1223"/>
<text text-anchor="middle" x="1302" y="-1201.3" font-family="Helvetica,sans-Serif" font-size="14.00" fill="#e5e5e5">Raise the bridge to the clock tower</text>
</g>
<!-- mechanical_clue&#45;&gt;clocktower_bridge_raised -->
<g id="edge31" class="edge">
<title>mechanical_clue&#45;&gt;clocktower_bridge_raised</title>
<path fill="none" stroke="#d9d9d9" d="M1301.19,-1278.65C1301.34,-1265.82 1301.53,-1248.11 1301.7,-1233.38"/>
<polygon fill="#d9d9d9" stroke="#d9d9d9" points="1305.2,-1233.34 1301.81,-1223.3 1298.2,-1233.26 1305.2,-1233.34"/>
</g>
<!-- selenetic_clue&#45;&gt;voltage_set -->
<g id="edge44" class="edge">
<title>selenetic_clue&#45;&gt;voltage_set</title>
<path fill="none" stroke="#d9d9d9" d="M981.71,-1278.65C975.58,-1265.83 967.12,-1248.11 960.09,-1233.39"/>
<polygon fill="#d9d9d9" stroke="#d9d9d9" points="963.18,-1231.74 955.71,-1224.23 956.86,-1234.76 963.18,-1231.74"/>
</g>
<!-- furnace_manipulation -->
<g id="node27" class="node">
<title>furnace_manipulation</title>
<path fill="none" stroke="#d9d9d9" d="M1295,-1132C1295,-1132 1127,-1132 1127,-1132 1121,-1132 1115,-1126 1115,-1120 1115,-1120 1115,-1108 1115,-1108 1115,-1102 1121,-1096 1127,-1096 1127,-1096 1295,-1096 1295,-1096 1301,-1096 1307,-1102 1307,-1108 1307,-1108 1307,-1120 1307,-1120 1307,-1126 1301,-1132 1295,-1132"/>
<text text-anchor="middle" x="1211" y="-1110.3" font-family="Helvetica,sans-Serif" font-size="14.00" fill="#e5e5e5">Get matches. Light furnace.</text>
</g>
<!-- channelwood_clue&#45;&gt;furnace_manipulation -->
<g id="edge54" class="edge">
<title>channelwood_clue&#45;&gt;furnace_manipulation</title>
<path fill="none" stroke="#d9d9d9" d="M1148.08,-1278.75C1151.13,-1256.68 1157.8,-1217.54 1170,-1186 1176.14,-1170.15 1185.47,-1153.63 1193.68,-1140.52"/>
<polygon fill="#d9d9d9" stroke="#d9d9d9" points="1196.67,-1142.34 1199.14,-1132.04 1190.79,-1138.56 1196.67,-1142.34"/>
</g>
<!-- white_page_obtained -->
<g id="node67" class="node">
<title>white_page_obtained</title>
<path fill="none" stroke="#d9d9d9" d="M1740.5,-128C1740.5,-128 1607.5,-128 1607.5,-128 1601.5,-128 1595.5,-122 1595.5,-116 1595.5,-116 1595.5,-104 1595.5,-104 1595.5,-98 1601.5,-92 1607.5,-92 1607.5,-92 1740.5,-92 1740.5,-92 1746.5,-92 1752.5,-98 1752.5,-104 1752.5,-104 1752.5,-116 1752.5,-116 1752.5,-122 1746.5,-128 1740.5,-128"/>
<text text-anchor="middle" x="1674" y="-106.3" font-family="Helvetica,sans-Serif" font-size="14.00" fill="#e5e5e5">Obtain the white page</text>
</g>
<!-- all_marker_switches&#45;&gt;white_page_obtained -->
<g id="edge89" class="edge">
<title>all_marker_switches&#45;&gt;white_page_obtained</title>
<path fill="none" stroke="#d9d9d9" d="M2058.94,-1005.96C2069.44,-1002.5 2077.86,-998.52 2082,-994 2127.58,-944.2 2106,-911.51 2106,-844 2106,-844 2106,-844 2106,-292 2106,-218.27 1889.24,-158.17 1762.8,-129.39"/>
<polygon fill="#d9d9d9" stroke="#d9d9d9" points="1763.26,-125.91 1752.73,-127.12 1761.72,-132.74 1763.26,-125.91"/>
</g>
<!-- voltage_set&#45;&gt;tones_matched -->
<g id="edge45" class="edge">
<title>voltage_set&#45;&gt;tones_matched</title>
<path fill="none" stroke="#d9d9d9" d="M943.16,-1185.99C940.45,-1173.32 936.78,-1156.14 933.73,-1141.86"/>
<polygon fill="#d9d9d9" stroke="#d9d9d9" points="937.16,-1141.13 931.65,-1132.08 930.31,-1142.59 937.16,-1141.13"/>
</g>
<!-- tones_matched&#45;&gt;selenetic_access -->
<g id="edge47" class="edge">
<title>tones_matched&#45;&gt;selenetic_access</title>
<path fill="none" stroke="#d9d9d9" d="M924.44,-1095.61C921.91,-1083.24 918.46,-1066.37 915.57,-1052.22"/>
<polygon fill="#d9d9d9" stroke="#d9d9d9" points="918.92,-1051.15 913.49,-1042.05 912.06,-1052.55 918.92,-1051.15"/>
</g>
<!-- clocktower_bridge_raised&#45;&gt;mechanical_access -->
<g id="edge33" class="edge">
<title>clocktower_bridge_raised&#45;&gt;mechanical_access</title>
<path fill="none" stroke="#d9d9d9" d="M1242.41,-1186.89C1201.97,-1174.22 1147.89,-1155.16 1103,-1132 1078.02,-1119.11 1077.23,-1106.12 1051,-1096 967.9,-1063.95 714.65,-1040.62 586.69,-1030.53"/>
<polygon fill="#d9d9d9" stroke="#d9d9d9" points="586.82,-1027.03 576.58,-1029.74 586.28,-1034.01 586.82,-1027.03"/>
</g>
<!-- clocktower_marker_switch -->
<g id="node23" class="node">
<title>clocktower_marker_switch</title>
<path fill="none" stroke="#d9d9d9" d="M1651,-1132C1651,-1132 1421,-1132 1421,-1132 1415,-1132 1409,-1126 1409,-1120 1409,-1120 1409,-1108 1409,-1108 1409,-1102 1415,-1096 1421,-1096 1421,-1096 1651,-1096 1651,-1096 1657,-1096 1663,-1102 1663,-1108 1663,-1108 1663,-1120 1663,-1120 1663,-1126 1657,-1132 1651,-1132"/>
<text text-anchor="middle" x="1536" y="-1110.3" font-family="Helvetica,sans-Serif" font-size="14.00" fill="#e5e5e5">Enable the clock tower marker switch</text>
</g>
<!-- clocktower_bridge_raised&#45;&gt;clocktower_marker_switch -->
<g id="edge32" class="edge">
<title>clocktower_bridge_raised&#45;&gt;clocktower_marker_switch</title>
<path fill="none" stroke="#d9d9d9" d="M1346.84,-1186.95C1385.17,-1172.37 1440.46,-1151.34 1481.37,-1135.78"/>
<polygon fill="#d9d9d9" stroke="#d9d9d9" points="1482.81,-1138.97 1490.91,-1132.15 1480.32,-1132.43 1482.81,-1138.97"/>
</g>
<!-- clocktower_marker_switch&#45;&gt;all_marker_switches -->
<g id="edge87" class="edge">
<title>clocktower_marker_switch&#45;&gt;all_marker_switches</title>
<path fill="none" stroke="#d9d9d9" d="M1619.36,-1095.98C1692.19,-1081.11 1797.83,-1059.54 1873.51,-1044.09"/>
<polygon fill="#d9d9d9" stroke="#d9d9d9" points="1874.42,-1047.47 1883.52,-1042.04 1873.02,-1040.62 1874.42,-1047.47"/>
</g>
<!-- constellation_known -->
<g id="node26" class="node">
<title>constellation_known</title>
<path fill="#280060" stroke="#d9d9d9" d="M1874,-1132C1874,-1132 1704,-1132 1704,-1132 1698,-1132 1692,-1126 1692,-1120 1692,-1120 1692,-1108 1692,-1108 1692,-1102 1698,-1096 1704,-1096 1704,-1096 1874,-1096 1874,-1096 1880,-1096 1886,-1102 1886,-1108 1886,-1108 1886,-1120 1886,-1120 1886,-1126 1880,-1132 1874,-1132"/>
<text text-anchor="middle" x="1789" y="-1110.3" font-family="Helvetica,sans-Serif" font-size="14.00" fill="#e5e5e5">Double mapping code entry</text>
</g>
<!-- date_star_mapping&#45;&gt;constellation_known -->
<g id="edge19" class="edge">
<title>date_star_mapping&#45;&gt;constellation_known</title>
<path fill="none" stroke="#d9d9d9" d="M1799.49,-1186.84C1797.64,-1174.16 1795.08,-1156.64 1792.96,-1142.08"/>
<polygon fill="#d9d9d9" stroke="#d9d9d9" points="1796.41,-1141.5 1791.5,-1132.11 1789.48,-1142.51 1796.41,-1141.5"/>
</g>
<!-- star_constellation_mapping&#45;&gt;constellation_known -->
<g id="edge18" class="edge">
<title>star_constellation_mapping&#45;&gt;constellation_known</title>
<path fill="none" stroke="#d9d9d9" d="M1622.29,-1185.99C1656.24,-1171.54 1703.95,-1151.22 1739.63,-1136.02"/>
<polygon fill="#d9d9d9" stroke="#d9d9d9" points="1741.07,-1139.22 1748.9,-1132.08 1738.32,-1132.78 1741.07,-1139.22"/>
</g>
<!-- constellation_known&#45;&gt;stoneship_access -->
<g id="edge20" class="edge">
<title>constellation_known&#45;&gt;stoneship_access</title>
<path fill="none" stroke="#d9d9d9" d="M1789,-1095.61C1789,-1083.24 1789,-1066.37 1789,-1052.22"/>
<polygon fill="#d9d9d9" stroke="#d9d9d9" points="1792.5,-1052.05 1789,-1042.05 1785.5,-1052.05 1792.5,-1052.05"/>
</g>
<!-- furnace_manipulation&#45;&gt;channelwood_access -->
<g id="edge55" class="edge">
<title>furnace_manipulation&#45;&gt;channelwood_access</title>
<path fill="none" stroke="#d9d9d9" d="M1211,-1095.61C1211,-1083.24 1211,-1066.37 1211,-1052.22"/>
<polygon fill="#d9d9d9" stroke="#d9d9d9" points="1214.5,-1052.05 1211,-1042.05 1207.5,-1052.05 1214.5,-1052.05"/>
</g>
<!-- selenetic_page_found -->
<g id="node29" class="node">
<title>selenetic_page_found</title>
<path fill="none" stroke="#d9d9d9" d="M979.5,-586C979.5,-586 852.5,-586 852.5,-586 846.5,-586 840.5,-580 840.5,-574 840.5,-574 840.5,-560 840.5,-560 840.5,-554 846.5,-548 852.5,-548 852.5,-548 979.5,-548 979.5,-548 985.5,-548 991.5,-554 991.5,-560 991.5,-560 991.5,-574 991.5,-574 991.5,-580 985.5,-586 979.5,-586"/>
<text text-anchor="middle" x="916" y="-570.8" font-family="Helvetica,sans-Serif" font-size="14.00" fill="#e5e5e5">Find a page just lying</text>
<text text-anchor="middle" x="916" y="-555.8" font-family="Helvetica,sans-Serif" font-size="14.00" fill="#e5e5e5">around the outdoors</text>
</g>
<!-- selenetic_entered&#45;&gt;selenetic_page_found -->
<g id="edge49" class="edge">
<title>selenetic_entered&#45;&gt;selenetic_page_found</title>
<path fill="none" stroke="#d9d9d9" d="M908.38,-915.88C909.64,-857.97 913.79,-668.95 915.37,-596.56"/>
<polygon fill="#d9d9d9" stroke="#d9d9d9" points="918.88,-596.44 915.6,-586.37 911.88,-596.29 918.88,-596.44"/>
</g>
<!-- activate_microphones -->
<g id="node30" class="node">
<title>activate_microphones</title>
<path fill="#280060" stroke="#d9d9d9" d="M855,-862C855,-862 753,-862 753,-862 747,-862 741,-856 741,-850 741,-850 741,-836 741,-836 741,-830 747,-824 753,-824 753,-824 855,-824 855,-824 861,-824 867,-830 867,-836 867,-836 867,-850 867,-850 867,-856 861,-862 855,-862"/>
<text text-anchor="middle" x="804" y="-846.8" font-family="Helvetica,sans-Serif" font-size="14.00" fill="#e5e5e5">Find and activate</text>
<text text-anchor="middle" x="804" y="-831.8" font-family="Helvetica,sans-Serif" font-size="14.00" fill="#e5e5e5">five microphones</text>
</g>
<!-- selenetic_entered&#45;&gt;activate_microphones -->
<g id="edge50" class="edge">
<title>selenetic_entered&#45;&gt;activate_microphones</title>
<path fill="none" stroke="#d9d9d9" d="M887.95,-915.84C872.28,-902.44 850.31,-883.63 832.77,-868.62"/>
<polygon fill="#d9d9d9" stroke="#d9d9d9" points="834.94,-865.87 825.06,-862.02 830.38,-871.19 834.94,-865.87"/>
</g>
<!-- selenetic_complete -->
<g id="node34" class="node">
<title>selenetic_complete</title>
<path fill="none" stroke="#d9d9d9" d="M980,-493C980,-493 828,-493 828,-493 822,-493 816,-487 816,-481 816,-481 816,-469 816,-469 816,-463 822,-457 828,-457 828,-457 980,-457 980,-457 986,-457 992,-463 992,-469 992,-469 992,-481 992,-481 992,-487 986,-493 980,-493"/>
<text text-anchor="middle" x="904" y="-471.3" font-family="Helvetica,sans-Serif" font-size="14.00" fill="#e5e5e5">Selenetic age completed</text>
</g>
<!-- selenetic_page_found&#45;&gt;selenetic_complete -->
<g id="edge71" class="edge">
<title>selenetic_page_found&#45;&gt;selenetic_complete</title>
<path fill="none" stroke="#d9d9d9" d="M913.57,-547.79C911.88,-535.1 909.59,-517.94 907.68,-503.58"/>
<polygon fill="#d9d9d9" stroke="#d9d9d9" points="911.09,-502.72 906.3,-493.27 904.16,-503.64 911.09,-502.72"/>
</g>
<!-- align_microphones -->
<g id="node31" class="node">
<title>align_microphones</title>
<path fill="none" stroke="#d9d9d9" d="M860.5,-769C860.5,-769 683.5,-769 683.5,-769 677.5,-769 671.5,-763 671.5,-757 671.5,-757 671.5,-745 671.5,-745 671.5,-739 677.5,-733 683.5,-733 683.5,-733 860.5,-733 860.5,-733 866.5,-733 872.5,-739 872.5,-745 872.5,-745 872.5,-757 872.5,-757 872.5,-763 866.5,-769 860.5,-769"/>
<text text-anchor="middle" x="772" y="-747.3" font-family="Helvetica,sans-Serif" font-size="14.00" fill="#e5e5e5">Find the microphone controls</text>
</g>
<!-- activate_microphones&#45;&gt;align_microphones -->
<g id="edge51" class="edge">
<title>activate_microphones&#45;&gt;align_microphones</title>
<path fill="none" stroke="#d9d9d9" d="M797.52,-823.79C792.92,-810.85 786.67,-793.27 781.51,-778.74"/>
<polygon fill="#d9d9d9" stroke="#d9d9d9" points="784.79,-777.52 778.14,-769.27 778.19,-779.86 784.79,-777.52"/>
</g>
<!-- door_code -->
<g id="node32" class="node">
<title>door_code</title>
<path fill="#280060" stroke="#d9d9d9" d="M829,-677C829,-677 707,-677 707,-677 701,-677 695,-671 695,-665 695,-665 695,-653 695,-653 695,-647 701,-641 707,-641 707,-641 829,-641 829,-641 835,-641 841,-647 841,-653 841,-653 841,-665 841,-665 841,-671 835,-677 829,-677"/>
<text text-anchor="middle" x="768" y="-655.3" font-family="Helvetica,sans-Serif" font-size="14.00" fill="#e5e5e5">Learn the door code</text>
</g>
<!-- align_microphones&#45;&gt;door_code -->
<g id="edge52" class="edge">
<title>align_microphones&#45;&gt;door_code</title>
<path fill="none" stroke="#d9d9d9" d="M771.23,-732.65C770.66,-719.82 769.87,-702.11 769.22,-687.38"/>
<polygon fill="#d9d9d9" stroke="#d9d9d9" points="772.71,-687.13 768.77,-677.3 765.72,-687.45 772.71,-687.13"/>
</g>
<!-- selenetic_exit_unlocked -->
<g id="node33" class="node">
<title>selenetic_exit_unlocked</title>
<path fill="#280060" stroke="#d9d9d9" d="M803.5,-585C803.5,-585 646.5,-585 646.5,-585 640.5,-585 634.5,-579 634.5,-573 634.5,-573 634.5,-561 634.5,-561 634.5,-555 640.5,-549 646.5,-549 646.5,-549 803.5,-549 803.5,-549 809.5,-549 815.5,-555 815.5,-561 815.5,-561 815.5,-573 815.5,-573 815.5,-579 809.5,-585 803.5,-585"/>
<text text-anchor="middle" x="725" y="-563.3" font-family="Helvetica,sans-Serif" font-size="14.00" fill="#e5e5e5">Navigate the Fucko Maze</text>
</g>
<!-- door_code&#45;&gt;selenetic_exit_unlocked -->
<g id="edge53" class="edge">
<title>door_code&#45;&gt;selenetic_exit_unlocked</title>
<path fill="none" stroke="#d9d9d9" d="M759.71,-640.65C753.46,-627.57 744.79,-609.42 737.67,-594.53"/>
<polygon fill="#d9d9d9" stroke="#d9d9d9" points="740.73,-592.81 733.27,-585.3 734.42,-595.83 740.73,-592.81"/>
</g>
<!-- selenetic_exit_unlocked&#45;&gt;selenetic_complete -->
<g id="edge72" class="edge">
<title>selenetic_exit_unlocked&#45;&gt;selenetic_complete</title>
<path fill="none" stroke="#d9d9d9" d="M759.09,-548.86C787.95,-534.35 829.5,-513.46 860.71,-497.77"/>
<polygon fill="#d9d9d9" stroke="#d9d9d9" points="862.68,-500.7 870.04,-493.08 859.53,-494.44 862.68,-500.7"/>
</g>
<!-- learn_fireplace_page_number -->
<g id="node65" class="node">
<title>learn_fireplace_page_number</title>
<path fill="none" stroke="#d9d9d9" d="M1230.5,-312C1230.5,-312 1027.5,-312 1027.5,-312 1021.5,-312 1015.5,-306 1015.5,-300 1015.5,-300 1015.5,-286 1015.5,-286 1015.5,-280 1021.5,-274 1027.5,-274 1027.5,-274 1230.5,-274 1230.5,-274 1236.5,-274 1242.5,-280 1242.5,-286 1242.5,-286 1242.5,-300 1242.5,-300 1242.5,-306 1236.5,-312 1230.5,-312"/>
<text text-anchor="middle" x="1129" y="-296.8" font-family="Helvetica,sans-Serif" font-size="14.00" fill="#e5e5e5">Given five pages, a brother</text>
<text text-anchor="middle" x="1129" y="-281.8" font-family="Helvetica,sans-Serif" font-size="14.00" fill="#e5e5e5">tells you how to use the fireplace</text>
</g>
<!-- selenetic_complete&#45;&gt;learn_fireplace_page_number -->
<g id="edge77" class="edge">
<title>selenetic_complete&#45;&gt;learn_fireplace_page_number</title>
<path fill="none" stroke="#d9d9d9" d="M915.21,-456.76C931.8,-432.3 964.95,-387.23 1002,-358 1023.29,-341.2 1049.7,-327.03 1072.91,-316.33"/>
<polygon fill="#d9d9d9" stroke="#d9d9d9" points="1074.62,-319.4 1082.3,-312.11 1071.75,-313.02 1074.62,-319.4"/>
</g>
<!-- mechanical_page_found -->
<g id="node36" class="node">
<title>mechanical_page_found</title>
<path fill="#280060" stroke="#d9d9d9" d="M201.5,-861C201.5,-861 28.5,-861 28.5,-861 22.5,-861 16.5,-855 16.5,-849 16.5,-849 16.5,-837 16.5,-837 16.5,-831 22.5,-825 28.5,-825 28.5,-825 201.5,-825 201.5,-825 207.5,-825 213.5,-831 213.5,-837 213.5,-837 213.5,-849 213.5,-849 213.5,-855 207.5,-861 201.5,-861"/>
<text text-anchor="middle" x="115" y="-839.3" font-family="Helvetica,sans-Serif" font-size="14.00" fill="#e5e5e5">Find a page in a secret room</text>
</g>
<!-- mechanical_entered&#45;&gt;mechanical_page_found -->
<g id="edge35" class="edge">
<title>mechanical_entered&#45;&gt;mechanical_page_found</title>
<path fill="none" stroke="#d9d9d9" d="M357.51,-915.95C307.46,-901.1 234.86,-879.56 182.15,-863.92"/>
<polygon fill="#d9d9d9" stroke="#d9d9d9" points="183.13,-860.56 172.55,-861.07 181.14,-867.27 183.13,-860.56"/>
</g>
<!-- cardinal_sounds_learned -->
<g id="node37" class="node">
<title>cardinal_sounds_learned</title>
<path fill="#280060" stroke="#d9d9d9" d="M597.5,-862C597.5,-862 440.5,-862 440.5,-862 434.5,-862 428.5,-856 428.5,-850 428.5,-850 428.5,-836 428.5,-836 428.5,-830 434.5,-824 440.5,-824 440.5,-824 597.5,-824 597.5,-824 603.5,-824 609.5,-830 609.5,-836 609.5,-836 609.5,-850 609.5,-850 609.5,-856 603.5,-862 597.5,-862"/>
<text text-anchor="middle" x="519" y="-846.8" font-family="Helvetica,sans-Serif" font-size="14.00" fill="#e5e5e5">Learn cardinal direction</text>
<text text-anchor="middle" x="519" y="-831.8" font-family="Helvetica,sans-Serif" font-size="14.00" fill="#e5e5e5">sounds from the simulator</text>
</g>
<!-- mechanical_entered&#45;&gt;cardinal_sounds_learned -->
<g id="edge36" class="edge">
<title>mechanical_entered&#45;&gt;cardinal_sounds_learned</title>
<path fill="none" stroke="#d9d9d9" d="M435.05,-915.84C450.72,-902.44 472.69,-883.63 490.23,-868.62"/>
<polygon fill="#d9d9d9" stroke="#d9d9d9" points="492.62,-871.19 497.94,-862.02 488.06,-865.87 492.62,-871.19"/>
</g>
<!-- mechanical_controls_found -->
<g id="node38" class="node">
<title>mechanical_controls_found</title>
<path fill="#280060" stroke="#d9d9d9" d="M391,-862C391,-862 251,-862 251,-862 245,-862 239,-856 239,-850 239,-850 239,-836 239,-836 239,-830 245,-824 251,-824 251,-824 391,-824 391,-824 397,-824 403,-830 403,-836 403,-836 403,-850 403,-850 403,-856 397,-862 391,-862"/>
<text text-anchor="middle" x="321" y="-846.8" font-family="Helvetica,sans-Serif" font-size="14.00" fill="#e5e5e5">Find your way upstairs,</text>
<text text-anchor="middle" x="321" y="-831.8" font-family="Helvetica,sans-Serif" font-size="14.00" fill="#e5e5e5">and juke the elevator</text>
</g>
<!-- mechanical_entered&#45;&gt;mechanical_controls_found -->
<g id="edge37" class="edge">
<title>mechanical_entered&#45;&gt;mechanical_controls_found</title>
<path fill="none" stroke="#d9d9d9" d="M396.88,-915.84C382.85,-902.56 363.21,-883.97 347.43,-869.03"/>
<polygon fill="#d9d9d9" stroke="#d9d9d9" points="349.7,-866.36 340.04,-862.02 344.89,-871.44 349.7,-866.36"/>
</g>
<!-- mechanical_complete -->
<g id="node43" class="node">
<title>mechanical_complete</title>
<path fill="none" stroke="#d9d9d9" d="M453,-493C453,-493 289,-493 289,-493 283,-493 277,-487 277,-481 277,-481 277,-469 277,-469 277,-463 283,-457 289,-457 289,-457 453,-457 453,-457 459,-457 465,-463 465,-469 465,-469 465,-481 465,-481 465,-487 459,-493 453,-493"/>
<text text-anchor="middle" x="371" y="-471.3" font-family="Helvetica,sans-Serif" font-size="14.00" fill="#e5e5e5">Mechanical age completed</text>
</g>
<!-- mechanical_page_found&#45;&gt;mechanical_complete -->
<g id="edge69" class="edge">
<title>mechanical_page_found&#45;&gt;mechanical_complete</title>
<path fill="none" stroke="#d9d9d9" d="M112.94,-824.76C109.41,-788.19 105.52,-701.19 139,-640 177.61,-569.44 261.16,-522.23 316.74,-497.25"/>
<polygon fill="#d9d9d9" stroke="#d9d9d9" points="318.35,-500.37 326.09,-493.14 315.53,-493.96 318.35,-500.37"/>
</g>
<!-- cardinal_sounds_learned&#45;&gt;selenetic_exit_unlocked -->
<g id="edge2" class="edge">
<title>cardinal_sounds_learned&#45;&gt;selenetic_exit_unlocked</title>
<g id="a_edge2"><a xlink:title="You can skip this via brute force or big brain">
<path fill="none" stroke="#d9d9d9" stroke-dasharray="5,2" d="M532.84,-823.6C568.71,-775.87 664.81,-648.06 705.92,-593.38"/>
<polygon fill="#d9d9d9" stroke="#d9d9d9" points="708.81,-595.36 712.02,-585.26 703.22,-591.15 708.81,-595.36"/>
</a>
</g>
</g>
<!-- fortress_rotation -->
<g id="node39" class="node">
<title>fortress_rotation</title>
<path fill="#280060" stroke="#d9d9d9" d="M400.5,-769C400.5,-769 287.5,-769 287.5,-769 281.5,-769 275.5,-763 275.5,-757 275.5,-757 275.5,-745 275.5,-745 275.5,-739 281.5,-733 287.5,-733 287.5,-733 400.5,-733 400.5,-733 406.5,-733 412.5,-739 412.5,-745 412.5,-745 412.5,-757 412.5,-757 412.5,-763 406.5,-769 400.5,-769"/>
<text text-anchor="middle" x="344" y="-747.3" font-family="Helvetica,sans-Serif" font-size="14.00" fill="#e5e5e5">Rotate the fortress</text>
</g>
<!-- cardinal_sounds_learned&#45;&gt;fortress_rotation -->
<g id="edge39" class="edge">
<title>cardinal_sounds_learned&#45;&gt;fortress_rotation</title>
<path fill="none" stroke="#d9d9d9" d="M483.59,-823.79C455.44,-809.31 415.98,-789.02 386.2,-773.7"/>
<polygon fill="#d9d9d9" stroke="#d9d9d9" points="387.78,-770.58 377.29,-769.12 384.58,-776.8 387.78,-770.58"/>
</g>
<!-- mechanical_controls_found&#45;&gt;fortress_rotation -->
<g id="edge38" class="edge">
<title>mechanical_controls_found&#45;&gt;fortress_rotation</title>
<path fill="none" stroke="#d9d9d9" d="M325.65,-823.79C328.93,-810.97 333.37,-793.61 337.06,-779.16"/>
<polygon fill="#d9d9d9" stroke="#d9d9d9" points="340.5,-779.82 339.59,-769.27 333.72,-778.09 340.5,-779.82"/>
</g>
<!-- mechanical_code_2 -->
<g id="node40" class="node">
<title>mechanical_code_2</title>
<path fill="none" stroke="#d9d9d9" d="M577,-677C577,-677 393,-677 393,-677 387,-677 381,-671 381,-665 381,-665 381,-653 381,-653 381,-647 387,-641 393,-641 393,-641 577,-641 577,-641 583,-641 589,-647 589,-653 589,-653 589,-665 589,-665 589,-671 583,-677 577,-677"/>
<text text-anchor="middle" x="485" y="-655.3" font-family="Helvetica,sans-Serif" font-size="14.00" fill="#e5e5e5">Learn 2nd half of the exit code</text>
</g>
<!-- fortress_rotation&#45;&gt;mechanical_code_2 -->
<g id="edge41" class="edge">
<title>fortress_rotation&#45;&gt;mechanical_code_2</title>
<path fill="none" stroke="#d9d9d9" d="M370.85,-732.86C393.2,-718.6 425.19,-698.18 449.62,-682.58"/>
<polygon fill="#d9d9d9" stroke="#d9d9d9" points="451.7,-685.41 458.25,-677.08 447.93,-679.51 451.7,-685.41"/>
</g>
<!-- mechanical_code_1 -->
<g id="node41" class="node">
<title>mechanical_code_1</title>
<path fill="none" stroke="#d9d9d9" d="M344,-677C344,-677 164,-677 164,-677 158,-677 152,-671 152,-665 152,-665 152,-653 152,-653 152,-647 158,-641 164,-641 164,-641 344,-641 344,-641 350,-641 356,-647 356,-653 356,-653 356,-665 356,-665 356,-671 350,-677 344,-677"/>
<text text-anchor="middle" x="254" y="-655.3" font-family="Helvetica,sans-Serif" font-size="14.00" fill="#e5e5e5">Learn 1st half of the exit code</text>
</g>
<!-- fortress_rotation&#45;&gt;mechanical_code_1 -->
<g id="edge40" class="edge">
<title>fortress_rotation&#45;&gt;mechanical_code_1</title>
<path fill="none" stroke="#d9d9d9" d="M326.65,-732.65C312.95,-718.95 293.68,-699.68 278.42,-684.42"/>
<polygon fill="#d9d9d9" stroke="#d9d9d9" points="280.85,-681.9 271.3,-677.3 275.9,-686.85 280.85,-681.9"/>
</g>
<!-- mechanical_exit_unlocked -->
<g id="node42" class="node">
<title>mechanical_exit_unlocked</title>
<path fill="#280060" stroke="#d9d9d9" d="M466.5,-585C466.5,-585 275.5,-585 275.5,-585 269.5,-585 263.5,-579 263.5,-573 263.5,-573 263.5,-561 263.5,-561 263.5,-555 269.5,-549 275.5,-549 275.5,-549 466.5,-549 466.5,-549 472.5,-549 478.5,-555 478.5,-561 478.5,-561 478.5,-573 478.5,-573 478.5,-579 472.5,-585 466.5,-585"/>
<text text-anchor="middle" x="371" y="-563.3" font-family="Helvetica,sans-Serif" font-size="14.00" fill="#e5e5e5">Unlock the mechanical age exit</text>
</g>
<!-- mechanical_code_2&#45;&gt;mechanical_exit_unlocked -->
<g id="edge43" class="edge">
<title>mechanical_code_2&#45;&gt;mechanical_exit_unlocked</title>
<path fill="none" stroke="#d9d9d9" d="M463.29,-640.86C445.54,-626.85 420.26,-606.89 400.65,-591.41"/>
<polygon fill="#d9d9d9" stroke="#d9d9d9" points="402.65,-588.53 392.63,-585.08 398.31,-594.02 402.65,-588.53"/>
</g>
<!-- mechanical_code_1&#45;&gt;mechanical_exit_unlocked -->
<g id="edge42" class="edge">
<title>mechanical_code_1&#45;&gt;mechanical_exit_unlocked</title>
<path fill="none" stroke="#d9d9d9" d="M276.28,-640.86C294.58,-626.78 320.67,-606.71 340.84,-591.2"/>
<polygon fill="#d9d9d9" stroke="#d9d9d9" points="343.01,-593.95 348.8,-585.08 338.74,-588.4 343.01,-593.95"/>
</g>
<!-- mechanical_exit_unlocked&#45;&gt;mechanical_complete -->
<g id="edge70" class="edge">
<title>mechanical_exit_unlocked&#45;&gt;mechanical_complete</title>
<path fill="none" stroke="#d9d9d9" d="M371,-548.65C371,-535.82 371,-518.11 371,-503.38"/>
<polygon fill="#d9d9d9" stroke="#d9d9d9" points="374.5,-503.3 371,-493.3 367.5,-503.3 374.5,-503.3"/>
</g>
<!-- mechanical_complete&#45;&gt;learn_fireplace_page_number -->
<g id="edge76" class="edge">
<title>mechanical_complete&#45;&gt;learn_fireplace_page_number</title>
<path fill="none" stroke="#d9d9d9" d="M442.65,-456.98C582.63,-423.75 891.87,-350.31 1042.78,-314.48"/>
<polygon fill="#d9d9d9" stroke="#d9d9d9" points="1044,-317.78 1052.92,-312.07 1042.39,-310.97 1044,-317.78"/>
</g>
<!-- understand_pump -->
<g id="node45" class="node">
<title>understand_pump</title>
<path fill="#280060" stroke="#d9d9d9" d="M1979.5,-862C1979.5,-862 1848.5,-862 1848.5,-862 1842.5,-862 1836.5,-856 1836.5,-850 1836.5,-850 1836.5,-836 1836.5,-836 1836.5,-830 1842.5,-824 1848.5,-824 1848.5,-824 1979.5,-824 1979.5,-824 1985.5,-824 1991.5,-830 1991.5,-836 1991.5,-836 1991.5,-850 1991.5,-850 1991.5,-856 1985.5,-862 1979.5,-862"/>
<text text-anchor="middle" x="1914" y="-846.8" font-family="Helvetica,sans-Serif" font-size="14.00" fill="#e5e5e5">The three buttons</text>
<text text-anchor="middle" x="1914" y="-831.8" font-family="Helvetica,sans-Serif" font-size="14.00" fill="#e5e5e5">are for pumping water</text>
</g>
<!-- stoneship_entered&#45;&gt;understand_pump -->
<g id="edge22" class="edge">
<title>stoneship_entered&#45;&gt;understand_pump</title>
<path fill="none" stroke="#d9d9d9" d="M1884.94,-915.84C1890.02,-903.28 1897.02,-885.98 1902.88,-871.5"/>
<polygon fill="#d9d9d9" stroke="#d9d9d9" points="1906.2,-872.61 1906.71,-862.02 1899.71,-869.98 1906.2,-872.61"/>
</g>
<!-- stoneship_page_found -->
<g id="node46" class="node">
<title>stoneship_page_found</title>
<path fill="none" stroke="#d9d9d9" d="M1784.5,-769C1784.5,-769 1575.5,-769 1575.5,-769 1569.5,-769 1563.5,-763 1563.5,-757 1563.5,-757 1563.5,-745 1563.5,-745 1563.5,-739 1569.5,-733 1575.5,-733 1575.5,-733 1784.5,-733 1784.5,-733 1790.5,-733 1796.5,-739 1796.5,-745 1796.5,-745 1796.5,-757 1796.5,-757 1796.5,-763 1790.5,-769 1784.5,-769"/>
<text text-anchor="middle" x="1680" y="-747.3" font-family="Helvetica,sans-Serif" font-size="14.00" fill="#e5e5e5">Find a page in the brothers&#39; rooms</text>
</g>
<!-- understand_pump&#45;&gt;stoneship_page_found -->
<g id="edge23" class="edge">
<title>understand_pump&#45;&gt;stoneship_page_found</title>
<path fill="none" stroke="#d9d9d9" d="M1866.93,-823.9C1828.38,-809.07 1773.83,-788.09 1733.61,-772.62"/>
<polygon fill="#d9d9d9" stroke="#d9d9d9" points="1734.81,-769.33 1724.22,-769.01 1732.3,-775.87 1734.81,-769.33"/>
</g>
<!-- torn_paper_stoneship -->
<g id="node47" class="node">
<title>torn_paper_stoneship</title>
<path fill="none" stroke="#d9d9d9" d="M2002.5,-494C2002.5,-494 1865.5,-494 1865.5,-494 1859.5,-494 1853.5,-488 1853.5,-482 1853.5,-482 1853.5,-468 1853.5,-468 1853.5,-462 1859.5,-456 1865.5,-456 1865.5,-456 2002.5,-456 2002.5,-456 2008.5,-456 2014.5,-462 2014.5,-468 2014.5,-468 2014.5,-482 2014.5,-482 2014.5,-488 2008.5,-494 2002.5,-494"/>
<text text-anchor="middle" x="1934" y="-478.8" font-family="Helvetica,sans-Serif" font-size="14.00" fill="#e5e5e5">Find half of a torn page</text>
<text text-anchor="middle" x="1934" y="-463.8" font-family="Helvetica,sans-Serif" font-size="14.00" fill="#e5e5e5">in Acenar&#39;s room</text>
</g>
<!-- understand_pump&#45;&gt;torn_paper_stoneship -->
<g id="edge24" class="edge">
<title>understand_pump&#45;&gt;torn_paper_stoneship</title>
<path fill="none" stroke="#d9d9d9" d="M1958.66,-823.97C1982.17,-812.14 2009.3,-794.32 2025,-770 2069.86,-700.5 2046.76,-668.48 2053,-586 2054.27,-569.16 2061.29,-562.71 2053,-548 2040.55,-525.91 2018.28,-509.82 1996.35,-498.54"/>
<polygon fill="#d9d9d9" stroke="#d9d9d9" points="1997.85,-495.38 1987.33,-494.14 1994.79,-501.67 1997.85,-495.38"/>
</g>
<!-- manipulate_chest -->
<g id="node48" class="node">
<title>manipulate_chest</title>
<path fill="#280060" stroke="#d9d9d9" d="M2000,-770C2000,-770 1834,-770 1834,-770 1828,-770 1822,-764 1822,-758 1822,-758 1822,-744 1822,-744 1822,-738 1828,-732 1834,-732 1834,-732 2000,-732 2000,-732 2006,-732 2012,-738 2012,-744 2012,-744 2012,-758 2012,-758 2012,-764 2006,-770 2000,-770"/>
<text text-anchor="middle" x="1917" y="-754.8" font-family="Helvetica,sans-Serif" font-size="14.00" fill="#e5e5e5">Solve the lighthouse chest,</text>
<text text-anchor="middle" x="1917" y="-739.8" font-family="Helvetica,sans-Serif" font-size="14.00" fill="#e5e5e5">unlocking the top floor</text>
</g>
<!-- understand_pump&#45;&gt;manipulate_chest -->
<g id="edge25" class="edge">
<title>understand_pump&#45;&gt;manipulate_chest</title>
<path fill="none" stroke="#d9d9d9" d="M1914.61,-823.79C1915.02,-811.34 1915.58,-794.61 1916.05,-780.42"/>
<polygon fill="#d9d9d9" stroke="#d9d9d9" points="1919.56,-780.3 1916.39,-770.19 1912.56,-780.06 1919.56,-780.3"/>
</g>
<!-- stoneship_complete -->
<g id="node53" class="node">
<title>stoneship_complete</title>
<path fill="none" stroke="#d9d9d9" d="M1732.5,-402C1732.5,-402 1575.5,-402 1575.5,-402 1569.5,-402 1563.5,-396 1563.5,-390 1563.5,-390 1563.5,-378 1563.5,-378 1563.5,-372 1569.5,-366 1575.5,-366 1575.5,-366 1732.5,-366 1732.5,-366 1738.5,-366 1744.5,-372 1744.5,-378 1744.5,-378 1744.5,-390 1744.5,-390 1744.5,-396 1738.5,-402 1732.5,-402"/>
<text text-anchor="middle" x="1654" y="-380.3" font-family="Helvetica,sans-Serif" font-size="14.00" fill="#e5e5e5">Stoneship age completed</text>
</g>
<!-- stoneship_page_found&#45;&gt;stoneship_complete -->
<g id="edge67" class="edge">
<title>stoneship_page_found&#45;&gt;stoneship_complete</title>
<path fill="none" stroke="#d9d9d9" d="M1664.75,-732.92C1640.72,-704.73 1595.04,-645.65 1578,-586 1568.33,-552.14 1585.12,-461.04 1591,-449 1598.46,-433.71 1611,-419.83 1622.94,-408.93"/>
<polygon fill="#d9d9d9" stroke="#d9d9d9" points="1625.41,-411.43 1630.64,-402.22 1620.81,-406.16 1625.41,-411.43"/>
</g>
<!-- learn_marker_switch_secret -->
<g id="node69" class="node">
<title>learn_marker_switch_secret</title>
<path fill="#280060" stroke="#d9d9d9" d="M1796.5,-311C1796.5,-311 1551.5,-311 1551.5,-311 1545.5,-311 1539.5,-305 1539.5,-299 1539.5,-299 1539.5,-287 1539.5,-287 1539.5,-281 1545.5,-275 1551.5,-275 1551.5,-275 1796.5,-275 1796.5,-275 1802.5,-275 1808.5,-281 1808.5,-287 1808.5,-287 1808.5,-299 1808.5,-299 1808.5,-305 1802.5,-311 1796.5,-311"/>
<text text-anchor="middle" x="1674" y="-289.3" font-family="Helvetica,sans-Serif" font-size="14.00" fill="#e5e5e5">Learn the secret of the marker switches</text>
</g>
<!-- torn_paper_stoneship&#45;&gt;learn_marker_switch_secret -->
<g id="edge85" class="edge">
<title>torn_paper_stoneship&#45;&gt;learn_marker_switch_secret</title>
<path fill="none" stroke="#d9d9d9" d="M1907.64,-455.75C1859.94,-422.73 1759.44,-353.15 1707.16,-316.96"/>
<polygon fill="#d9d9d9" stroke="#d9d9d9" points="1709.11,-314.05 1698.9,-311.24 1705.13,-319.81 1709.11,-314.05"/>
</g>
<!-- power_lighthouse -->
<g id="node49" class="node">
<title>power_lighthouse</title>
<path fill="none" stroke="#d9d9d9" d="M1973.5,-677C1973.5,-677 1860.5,-677 1860.5,-677 1854.5,-677 1848.5,-671 1848.5,-665 1848.5,-665 1848.5,-653 1848.5,-653 1848.5,-647 1854.5,-641 1860.5,-641 1860.5,-641 1973.5,-641 1973.5,-641 1979.5,-641 1985.5,-647 1985.5,-653 1985.5,-653 1985.5,-665 1985.5,-665 1985.5,-671 1979.5,-677 1973.5,-677"/>
<text text-anchor="middle" x="1917" y="-655.3" font-family="Helvetica,sans-Serif" font-size="14.00" fill="#e5e5e5">Charge the battery</text>
</g>
<!-- manipulate_chest&#45;&gt;power_lighthouse -->
<g id="edge26" class="edge">
<title>manipulate_chest&#45;&gt;power_lighthouse</title>
<path fill="none" stroke="#d9d9d9" d="M1917,-731.79C1917,-719.1 1917,-701.94 1917,-687.58"/>
<polygon fill="#d9d9d9" stroke="#d9d9d9" points="1920.5,-687.27 1917,-677.27 1913.5,-687.27 1920.5,-687.27"/>
</g>
<!-- find_secret_compass_room -->
<g id="node50" class="node">
<title>find_secret_compass_room</title>
<path fill="#280060" stroke="#d9d9d9" d="M1776,-585C1776,-585 1602,-585 1602,-585 1596,-585 1590,-579 1590,-573 1590,-573 1590,-561 1590,-561 1590,-555 1596,-549 1602,-549 1602,-549 1776,-549 1776,-549 1782,-549 1788,-555 1788,-561 1788,-561 1788,-573 1788,-573 1788,-579 1782,-585 1776,-585"/>
<text text-anchor="middle" x="1689" y="-563.3" font-family="Helvetica,sans-Serif" font-size="14.00" fill="#e5e5e5">Find a secret compass room</text>
</g>
<!-- power_lighthouse&#45;&gt;find_secret_compass_room -->
<g id="edge27" class="edge">
<title>power_lighthouse&#45;&gt;find_secret_compass_room</title>
<path fill="none" stroke="#d9d9d9" d="M1873.85,-640.97C1836.32,-626.15 1781.82,-604.64 1741.72,-588.81"/>
<polygon fill="#d9d9d9" stroke="#d9d9d9" points="1742.95,-585.53 1732.36,-585.12 1740.38,-592.04 1742.95,-585.53"/>
</g>
<!-- observe_lighthouse_bearing -->
<g id="node51" class="node">
<title>observe_lighthouse_bearing</title>
<path fill="#280060" stroke="#d9d9d9" d="M2028.5,-585C2028.5,-585 1825.5,-585 1825.5,-585 1819.5,-585 1813.5,-579 1813.5,-573 1813.5,-573 1813.5,-561 1813.5,-561 1813.5,-555 1819.5,-549 1825.5,-549 1825.5,-549 2028.5,-549 2028.5,-549 2034.5,-549 2040.5,-555 2040.5,-561 2040.5,-561 2040.5,-573 2040.5,-573 2040.5,-579 2034.5,-585 2028.5,-585"/>
<text text-anchor="middle" x="1927" y="-563.3" font-family="Helvetica,sans-Serif" font-size="14.00" fill="#e5e5e5">Observe the lighthouse&#39;s bearing</text>
</g>
<!-- power_lighthouse&#45;&gt;observe_lighthouse_bearing -->
<g id="edge28" class="edge">
<title>power_lighthouse&#45;&gt;observe_lighthouse_bearing</title>
<path fill="none" stroke="#d9d9d9" d="M1918.93,-640.65C1920.35,-627.82 1922.32,-610.11 1923.96,-595.38"/>
<polygon fill="#d9d9d9" stroke="#d9d9d9" points="1927.45,-595.63 1925.08,-585.3 1920.49,-594.85 1927.45,-595.63"/>
</g>
<!-- stoneship_exit_unlocked -->
<g id="node52" class="node">
<title>stoneship_exit_unlocked</title>
<path fill="#280060" stroke="#d9d9d9" d="M1763,-494C1763,-494 1615,-494 1615,-494 1609,-494 1603,-488 1603,-482 1603,-482 1603,-468 1603,-468 1603,-462 1609,-456 1615,-456 1615,-456 1763,-456 1763,-456 1769,-456 1775,-462 1775,-468 1775,-468 1775,-482 1775,-482 1775,-488 1769,-494 1763,-494"/>
<text text-anchor="middle" x="1689" y="-478.8" font-family="Helvetica,sans-Serif" font-size="14.00" fill="#e5e5e5">Illuminate the dark room,</text>
<text text-anchor="middle" x="1689" y="-463.8" font-family="Helvetica,sans-Serif" font-size="14.00" fill="#e5e5e5">and find your way out</text>
</g>
<!-- find_secret_compass_room&#45;&gt;stoneship_exit_unlocked -->
<g id="edge29" class="edge">
<title>find_secret_compass_room&#45;&gt;stoneship_exit_unlocked</title>
<path fill="none" stroke="#d9d9d9" d="M1689,-548.65C1689,-536.07 1689,-518.79 1689,-504.23"/>
<polygon fill="#d9d9d9" stroke="#d9d9d9" points="1692.5,-504.23 1689,-494.23 1685.5,-504.23 1692.5,-504.23"/>
</g>
<!-- observe_lighthouse_bearing&#45;&gt;stoneship_exit_unlocked -->
<g id="edge30" class="edge">
<title>observe_lighthouse_bearing&#45;&gt;stoneship_exit_unlocked</title>
<path fill="none" stroke="#d9d9d9" d="M1881.95,-548.97C1843.45,-534.4 1787.82,-513.37 1746.18,-497.62"/>
<polygon fill="#d9d9d9" stroke="#d9d9d9" points="1747.31,-494.31 1736.72,-494.04 1744.83,-500.86 1747.31,-494.31"/>
</g>
<!-- stoneship_exit_unlocked&#45;&gt;stoneship_complete -->
<g id="edge68" class="edge">
<title>stoneship_exit_unlocked&#45;&gt;stoneship_complete</title>
<path fill="none" stroke="#d9d9d9" d="M1681.92,-455.99C1676.89,-443.2 1670.05,-425.81 1664.4,-411.45"/>
<polygon fill="#d9d9d9" stroke="#d9d9d9" points="1667.63,-410.1 1660.72,-402.08 1661.12,-412.66 1667.63,-410.1"/>
</g>
<!-- stoneship_complete&#45;&gt;learn_fireplace_page_number -->
<g id="edge75" class="edge">
<title>stoneship_complete&#45;&gt;learn_fireplace_page_number</title>
<path fill="none" stroke="#d9d9d9" d="M1588.35,-365.99C1576.3,-363.13 1563.8,-360.33 1552,-358 1451.88,-338.2 1337.36,-321.21 1252.76,-309.73"/>
<polygon fill="#d9d9d9" stroke="#d9d9d9" points="1252.97,-306.23 1242.59,-308.36 1252.03,-313.16 1252.97,-306.23"/>
</g>
<!-- windmill_manipulated -->
<g id="node55" class="node">
<title>windmill_manipulated</title>
<path fill="#280060" stroke="#d9d9d9" d="M1319,-861C1319,-861 1103,-861 1103,-861 1097,-861 1091,-855 1091,-849 1091,-849 1091,-837 1091,-837 1091,-831 1097,-825 1103,-825 1103,-825 1319,-825 1319,-825 1325,-825 1331,-831 1331,-837 1331,-837 1331,-849 1331,-849 1331,-855 1325,-861 1319,-861"/>
<text text-anchor="middle" x="1211" y="-839.3" font-family="Helvetica,sans-Serif" font-size="14.00" fill="#e5e5e5">Get water flowing from the windmill</text>
</g>
<!-- channelwood_entered&#45;&gt;windmill_manipulated -->
<g id="edge57" class="edge">
<title>channelwood_entered&#45;&gt;windmill_manipulated</title>
<path fill="none" stroke="#d9d9d9" d="M1211,-915.84C1211,-903.28 1211,-885.98 1211,-871.5"/>
<polygon fill="#d9d9d9" stroke="#d9d9d9" points="1214.5,-871.11 1211,-861.11 1207.5,-871.11 1214.5,-871.11"/>
</g>
<!-- channelwood_bridge_raised -->
<g id="node56" class="node">
<title>channelwood_bridge_raised</title>
<path fill="#280060" stroke="#d9d9d9" d="M1172,-769C1172,-769 1028,-769 1028,-769 1022,-769 1016,-763 1016,-757 1016,-757 1016,-745 1016,-745 1016,-739 1022,-733 1028,-733 1028,-733 1172,-733 1172,-733 1178,-733 1184,-739 1184,-745 1184,-745 1184,-757 1184,-757 1184,-763 1178,-769 1172,-769"/>
<text text-anchor="middle" x="1100" y="-747.3" font-family="Helvetica,sans-Serif" font-size="14.00" fill="#e5e5e5">Raise the hidden bridge</text>
</g>
<!-- windmill_manipulated&#45;&gt;channelwood_bridge_raised -->
<g id="edge58" class="edge">
<title>windmill_manipulated&#45;&gt;channelwood_bridge_raised</title>
<path fill="none" stroke="#d9d9d9" d="M1189.86,-824.86C1172.58,-810.85 1147.97,-790.89 1128.87,-775.41"/>
<polygon fill="#d9d9d9" stroke="#d9d9d9" points="1131.03,-772.66 1121.06,-769.08 1126.62,-778.09 1131.03,-772.66"/>
</g>
<!-- channelwood_second_level -->
<g id="node58" class="node">
<title>channelwood_second_level</title>
<path fill="#280060" stroke="#d9d9d9" d="M1462.5,-769C1462.5,-769 1221.5,-769 1221.5,-769 1215.5,-769 1209.5,-763 1209.5,-757 1209.5,-757 1209.5,-745 1209.5,-745 1209.5,-739 1215.5,-733 1221.5,-733 1221.5,-733 1462.5,-733 1462.5,-733 1468.5,-733 1474.5,-739 1474.5,-745 1474.5,-745 1474.5,-757 1474.5,-757 1474.5,-763 1468.5,-769 1462.5,-769"/>
<text text-anchor="middle" x="1342" y="-747.3" font-family="Helvetica,sans-Serif" font-size="14.00" fill="#e5e5e5">Power the elevator to the second level</text>
</g>
<!-- windmill_manipulated&#45;&gt;channelwood_second_level -->
<g id="edge60" class="edge">
<title>windmill_manipulated&#45;&gt;channelwood_second_level</title>
<path fill="none" stroke="#d9d9d9" d="M1235.95,-824.86C1256.62,-810.66 1286.17,-790.36 1308.83,-774.79"/>
<polygon fill="#d9d9d9" stroke="#d9d9d9" points="1310.88,-777.62 1317.14,-769.08 1306.92,-771.85 1310.88,-777.62"/>
</g>
<!-- channelwood_exit_unlocked -->
<g id="node57" class="node">
<title>channelwood_exit_unlocked</title>
<path fill="#280060" stroke="#d9d9d9" d="M1291,-585C1291,-585 1029,-585 1029,-585 1023,-585 1017,-579 1017,-573 1017,-573 1017,-561 1017,-561 1017,-555 1023,-549 1029,-549 1029,-549 1291,-549 1291,-549 1297,-549 1303,-555 1303,-561 1303,-561 1303,-573 1303,-573 1303,-579 1297,-585 1291,-585"/>
<text text-anchor="middle" x="1160" y="-563.3" font-family="Helvetica,sans-Serif" font-size="14.00" fill="#e5e5e5">Extend the pipe to power the exit elevator</text>
</g>
<!-- channelwood_bridge_raised&#45;&gt;channelwood_exit_unlocked -->
<g id="edge59" class="edge">
<title>channelwood_bridge_raised&#45;&gt;channelwood_exit_unlocked</title>
<path fill="none" stroke="#d9d9d9" d="M1075.78,-732.67C1048.83,-711.16 1011.48,-673.24 1031,-640 1044.7,-616.67 1069.01,-600.34 1092.87,-589.2"/>
<polygon fill="#d9d9d9" stroke="#d9d9d9" points="1094.58,-592.27 1102.32,-585.04 1091.76,-585.87 1094.58,-592.27"/>
</g>
<!-- channelwood_complete -->
<g id="node64" class="node">
<title>channelwood_complete</title>
<path fill="none" stroke="#d9d9d9" d="M1219,-402C1219,-402 1039,-402 1039,-402 1033,-402 1027,-396 1027,-390 1027,-390 1027,-378 1027,-378 1027,-372 1033,-366 1039,-366 1039,-366 1219,-366 1219,-366 1225,-366 1231,-372 1231,-378 1231,-378 1231,-390 1231,-390 1231,-396 1225,-402 1219,-402"/>
<text text-anchor="middle" x="1129" y="-380.3" font-family="Helvetica,sans-Serif" font-size="14.00" fill="#e5e5e5">Channelwood age completed</text>
</g>
<!-- channelwood_exit_unlocked&#45;&gt;channelwood_complete -->
<g id="edge74" class="edge">
<title>channelwood_exit_unlocked&#45;&gt;channelwood_complete</title>
<path fill="none" stroke="#d9d9d9" d="M1142.12,-548.97C1129.31,-535.46 1113.12,-515.35 1106,-494 1096.84,-466.51 1106.28,-433.86 1115.68,-411.51"/>
<polygon fill="#d9d9d9" stroke="#d9d9d9" points="1118.91,-412.87 1119.8,-402.31 1112.52,-410.01 1118.91,-412.87"/>
</g>
<!-- channelwood_second_level&#45;&gt;channelwood_door_opened -->
<g id="edge61" class="edge">
<title>channelwood_second_level&#45;&gt;channelwood_door_opened</title>
<path fill="none" stroke="#d9d9d9" d="M1362.05,-732.65C1377.72,-719.09 1399.69,-700.07 1417.23,-684.9"/>
<polygon fill="#d9d9d9" stroke="#d9d9d9" points="1419.67,-687.42 1424.94,-678.23 1415.09,-682.12 1419.67,-687.42"/>
</g>
<!-- channelwood_door_found -->
<g id="node60" class="node">
<title>channelwood_door_found</title>
<path fill="none" stroke="#d9d9d9" d="M1317,-677C1317,-677 1055,-677 1055,-677 1049,-677 1043,-671 1043,-665 1043,-665 1043,-653 1043,-653 1043,-647 1049,-641 1055,-641 1055,-641 1317,-641 1317,-641 1323,-641 1329,-647 1329,-653 1329,-653 1329,-665 1329,-665 1329,-671 1323,-677 1317,-677"/>
<text text-anchor="middle" x="1186" y="-655.3" font-family="Helvetica,sans-Serif" font-size="14.00" fill="#e5e5e5">Use staircase door to bypass the elevator</text>
</g>
<!-- channelwood_second_level&#45;&gt;channelwood_door_found -->
<g id="edge62" class="edge">
<title>channelwood_second_level&#45;&gt;channelwood_door_found</title>
<path fill="none" stroke="#d9d9d9" d="M1312.29,-732.86C1287.35,-718.47 1251.55,-697.82 1224.43,-682.17"/>
<polygon fill="#d9d9d9" stroke="#d9d9d9" points="1226.01,-679.04 1215.6,-677.08 1222.51,-685.11 1226.01,-679.04"/>
</g>
<!-- channelwood_third_level -->
<g id="node61" class="node">
<title>channelwood_third_level</title>
<path fill="none" stroke="#d9d9d9" d="M1519.5,-585C1519.5,-585 1346.5,-585 1346.5,-585 1340.5,-585 1334.5,-579 1334.5,-573 1334.5,-573 1334.5,-561 1334.5,-561 1334.5,-555 1340.5,-549 1346.5,-549 1346.5,-549 1519.5,-549 1519.5,-549 1525.5,-549 1531.5,-555 1531.5,-561 1531.5,-561 1531.5,-573 1531.5,-573 1531.5,-579 1525.5,-585 1519.5,-585"/>
<text text-anchor="middle" x="1433" y="-563.3" font-family="Helvetica,sans-Serif" font-size="14.00" fill="#e5e5e5">Power elevator to third level</text>
</g>
<!-- channelwood_door_opened&#45;&gt;channelwood_third_level -->
<g id="edge63" class="edge">
<title>channelwood_door_opened&#45;&gt;channelwood_third_level</title>
<path fill="none" stroke="#d9d9d9" d="M1443.37,-639.79C1441.54,-627.1 1439.06,-609.94 1436.98,-595.58"/>
<polygon fill="#d9d9d9" stroke="#d9d9d9" points="1440.39,-594.67 1435.49,-585.27 1433.46,-595.67 1440.39,-594.67"/>
</g>
<!-- channelwood_door_found&#45;&gt;channelwood_third_level -->
<g id="edge64" class="edge">
<title>channelwood_door_found&#45;&gt;channelwood_third_level</title>
<path fill="none" stroke="#d9d9d9" d="M1232.75,-640.97C1273.58,-626.09 1332.95,-604.46 1376.44,-588.61"/>
<polygon fill="#d9d9d9" stroke="#d9d9d9" points="1377.82,-591.83 1386.02,-585.12 1375.43,-585.25 1377.82,-591.83"/>
</g>
<!-- torn_paper_channelwood -->
<g id="node62" class="node">
<title>torn_paper_channelwood</title>
<path fill="none" stroke="#d9d9d9" d="M1525.5,-494C1525.5,-494 1388.5,-494 1388.5,-494 1382.5,-494 1376.5,-488 1376.5,-482 1376.5,-482 1376.5,-468 1376.5,-468 1376.5,-462 1382.5,-456 1388.5,-456 1388.5,-456 1525.5,-456 1525.5,-456 1531.5,-456 1537.5,-462 1537.5,-468 1537.5,-468 1537.5,-482 1537.5,-482 1537.5,-488 1531.5,-494 1525.5,-494"/>
<text text-anchor="middle" x="1457" y="-478.8" font-family="Helvetica,sans-Serif" font-size="14.00" fill="#e5e5e5">Find half of a torn page</text>
<text text-anchor="middle" x="1457" y="-463.8" font-family="Helvetica,sans-Serif" font-size="14.00" fill="#e5e5e5">in Sirrus&#39;s room</text>
</g>
<!-- channelwood_third_level&#45;&gt;torn_paper_channelwood -->
<g id="edge65" class="edge">
<title>channelwood_third_level&#45;&gt;torn_paper_channelwood</title>
<path fill="none" stroke="#d9d9d9" d="M1437.63,-548.65C1440.98,-536.07 1445.59,-518.79 1449.47,-504.23"/>
<polygon fill="#d9d9d9" stroke="#d9d9d9" points="1452.94,-504.79 1452.14,-494.23 1446.18,-502.99 1452.94,-504.79"/>
</g>
<!-- channelwood_page_found -->
<g id="node63" class="node">
<title>channelwood_page_found</title>
<path fill="none" stroke="#d9d9d9" d="M1339.5,-493C1339.5,-493 1130.5,-493 1130.5,-493 1124.5,-493 1118.5,-487 1118.5,-481 1118.5,-481 1118.5,-469 1118.5,-469 1118.5,-463 1124.5,-457 1130.5,-457 1130.5,-457 1339.5,-457 1339.5,-457 1345.5,-457 1351.5,-463 1351.5,-469 1351.5,-469 1351.5,-481 1351.5,-481 1351.5,-487 1345.5,-493 1339.5,-493"/>
<text text-anchor="middle" x="1235" y="-471.3" font-family="Helvetica,sans-Serif" font-size="14.00" fill="#e5e5e5">Find a page in the brothers&#39; rooms</text>
</g>
<!-- channelwood_third_level&#45;&gt;channelwood_page_found -->
<g id="edge66" class="edge">
<title>channelwood_third_level&#45;&gt;channelwood_page_found</title>
<path fill="none" stroke="#d9d9d9" d="M1395.29,-548.86C1363.09,-534.22 1316.62,-513.1 1282,-497.36"/>
<polygon fill="#d9d9d9" stroke="#d9d9d9" points="1283.12,-494.03 1272.57,-493.08 1280.22,-500.4 1283.12,-494.03"/>
</g>
<!-- torn_paper_channelwood&#45;&gt;learn_marker_switch_secret -->
<g id="edge84" class="edge">
<title>torn_paper_channelwood&#45;&gt;learn_marker_switch_secret</title>
<path fill="none" stroke="#d9d9d9" d="M1467.82,-455.92C1483.31,-431.26 1513.82,-386.85 1549,-358 1570.29,-340.54 1597.13,-326.03 1620.47,-315.27"/>
<polygon fill="#d9d9d9" stroke="#d9d9d9" points="1622.21,-318.32 1629.89,-311.03 1619.34,-311.94 1622.21,-318.32"/>
</g>
<!-- channelwood_page_found&#45;&gt;channelwood_complete -->
<g id="edge73" class="edge">
<title>channelwood_page_found&#45;&gt;channelwood_complete</title>
<path fill="none" stroke="#d9d9d9" d="M1214.56,-456.84C1198.28,-443.17 1175.32,-423.89 1157.28,-408.74"/>
<polygon fill="#d9d9d9" stroke="#d9d9d9" points="1159.28,-405.86 1149.38,-402.11 1154.78,-411.22 1159.28,-405.86"/>
</g>
<!-- channelwood_complete&#45;&gt;learn_fireplace_page_number -->
<g id="edge78" class="edge">
<title>channelwood_complete&#45;&gt;learn_fireplace_page_number</title>
<path fill="none" stroke="#d9d9d9" d="M1129,-365.84C1129,-353.52 1129,-336.64 1129,-322.34"/>
<polygon fill="#d9d9d9" stroke="#d9d9d9" points="1132.5,-322.02 1129,-312.02 1125.5,-322.02 1132.5,-322.02"/>
</g>
<!-- fireplace_entered -->
<g id="node66" class="node">
<title>fireplace_entered</title>
<path fill="none" stroke="#d9d9d9" d="M1482,-220C1482,-220 1324,-220 1324,-220 1318,-220 1312,-214 1312,-208 1312,-208 1312,-194 1312,-194 1312,-188 1318,-182 1324,-182 1324,-182 1482,-182 1482,-182 1488,-182 1494,-188 1494,-194 1494,-194 1494,-208 1494,-208 1494,-214 1488,-220 1482,-220"/>
<text text-anchor="middle" x="1403" y="-204.8" font-family="Helvetica,sans-Serif" font-size="14.00" fill="#e5e5e5">Pass through the fireplace</text>
<text text-anchor="middle" x="1403" y="-189.8" font-family="Helvetica,sans-Serif" font-size="14.00" fill="#e5e5e5">by using the code</text>
</g>
<!-- learn_fireplace_page_number&#45;&gt;fireplace_entered -->
<g id="edge79" class="edge">
<title>learn_fireplace_page_number&#45;&gt;fireplace_entered</title>
<path fill="none" stroke="#d9d9d9" d="M1184.12,-273.9C1228.62,-259.28 1291.32,-238.68 1338.21,-223.28"/>
<polygon fill="#d9d9d9" stroke="#d9d9d9" points="1339.56,-226.52 1347.97,-220.08 1337.38,-219.87 1339.56,-226.52"/>
</g>
<!-- fireplace_entered&#45;&gt;ending_trapped_atrus -->
<g id="edge81" class="edge">
<title>fireplace_entered&#45;&gt;ending_trapped_atrus</title>
<path fill="none" stroke="#d9d9d9" d="M1396.51,-181.75C1385.18,-149.89 1361.75,-83.98 1348.56,-46.88"/>
<polygon fill="#d9d9d9" stroke="#d9d9d9" points="1351.78,-45.49 1345.13,-37.24 1345.18,-47.83 1351.78,-45.49"/>
</g>
<!-- fireplace_entered&#45;&gt;white_page_obtained -->
<g id="edge80" class="edge">
<title>fireplace_entered&#45;&gt;white_page_obtained</title>
<path fill="none" stroke="#d9d9d9" d="M1457.84,-181.99C1502.6,-167.29 1565.83,-146.53 1612.34,-131.25"/>
<polygon fill="#d9d9d9" stroke="#d9d9d9" points="1613.59,-134.52 1622,-128.08 1611.41,-127.87 1613.59,-134.52"/>
</g>
<!-- sixth_page_found -->
<g id="node68" class="node">
<title>sixth_page_found</title>
<path fill="none" stroke="#d9d9d9" d="M1545.5,-128C1545.5,-128 1402.5,-128 1402.5,-128 1396.5,-128 1390.5,-122 1390.5,-116 1390.5,-116 1390.5,-104 1390.5,-104 1390.5,-98 1396.5,-92 1402.5,-92 1402.5,-92 1545.5,-92 1545.5,-92 1551.5,-92 1557.5,-98 1557.5,-104 1557.5,-104 1557.5,-116 1557.5,-116 1557.5,-122 1551.5,-128 1545.5,-128"/>
<text text-anchor="middle" x="1474" y="-106.3" font-family="Helvetica,sans-Serif" font-size="14.00" fill="#e5e5e5">The sixth red/blue page</text>
</g>
<!-- fireplace_entered&#45;&gt;sixth_page_found -->
<g id="edge82" class="edge">
<title>fireplace_entered&#45;&gt;sixth_page_found</title>
<path fill="none" stroke="#d9d9d9" d="M1417.37,-181.99C1427.87,-168.83 1442.25,-150.8 1453.89,-136.21"/>
<polygon fill="#d9d9d9" stroke="#d9d9d9" points="1456.88,-138.08 1460.38,-128.08 1451.4,-133.71 1456.88,-138.08"/>
</g>
<!-- white_page_obtained&#45;&gt;ending_good -->
<g id="edge90" class="edge">
<title>white_page_obtained&#45;&gt;ending_good</title>
<path fill="none" stroke="#d9d9d9" d="M1674,-91.84C1674,-79.28 1674,-61.98 1674,-47.5"/>
<polygon fill="#d9d9d9" stroke="#d9d9d9" points="1677.5,-47.11 1674,-37.11 1670.5,-47.11 1677.5,-47.11"/>
</g>
<!-- sixth_page_found&#45;&gt;ending_free_brother -->
<g id="edge83" class="edge">
<title>sixth_page_found&#45;&gt;ending_free_brother</title>
<path fill="none" stroke="#d9d9d9" d="M1480.36,-91.84C1485.02,-79.28 1491.43,-61.98 1496.8,-47.5"/>
<polygon fill="#d9d9d9" stroke="#d9d9d9" points="1500.12,-48.62 1500.32,-38.02 1493.56,-46.18 1500.12,-48.62"/>
</g>
<!-- learn_marker_switch_secret&#45;&gt;white_page_obtained -->
<g id="edge86" class="edge">
<title>learn_marker_switch_secret&#45;&gt;white_page_obtained</title>
<path fill="none" stroke="#d9d9d9" d="M1674,-274.97C1674,-243.57 1674,-176.31 1674,-138.42"/>
<polygon fill="#d9d9d9" stroke="#d9d9d9" points="1677.5,-138.11 1674,-128.11 1670.5,-138.11 1677.5,-138.11"/>
</g>
</g>
</svg>
