<?xml version="1.0" encoding="UTF-8" standalone="no"?>
<!DOCTYPE svg PUBLIC "-//W3C//DTD SVG 1.1//EN"
 "http://www.w3.org/Graphics/SVG/1.1/DTD/svg11.dtd">
<!-- Generated by graphviz version 10.0.1 (20240210.2158)
 -->
<!-- Title: outer_wilds_progression Pages: 1 -->
<svg width="2450pt" height="1381pt"
 viewBox="0.00 0.00 2449.50 1381.38" xmlns="http://www.w3.org/2000/svg" xmlns:xlink="http://www.w3.org/1999/xlink">
<g id="graph0" class="graph" transform="scale(1 1) rotate(0) translate(4 1377.38)">
<title>outer_wilds_progression</title>
<polygon fill="#1f1f1f" stroke="none" points="-4,4 -4,-1377.38 2445.5,-1377.38 2445.5,4 -4,4"/>
<g id="clust4" class="cluster">
<title>cluster_sun_station</title>
<polygon fill="#1f1f1f" stroke="red" stroke-width="0" points="657,-492.13 657,-654.04 976,-654.04 976,-492.13 657,-492.13"/>
</g>
<g id="clust5" class="cluster">
<title>cluster_quantum</title>
<polygon fill="#1f1f1f" stroke="red" points="8,-494.79 8,-1225.32 649,-1225.32 649,-494.79 8,-494.79"/>
<text text-anchor="middle" x="328.5" y="-1198.52" font-family="Helvetica,sans-Serif" font-weight="bold" font-size="24.00" fill="red">Quantum Moon</text>
<text text-anchor="middle" x="328.5" y="-1170.77" font-family="Helvetica,sans-Serif" font-weight="bold" font-size="24.00" fill="red"> </text>
</g>
<!-- start -->
<g id="node1" class="node">
<title>start</title>
<path fill="#005000" stroke="#d9d9d9" d="M1456,-1372C1456,-1372 1426,-1372 1426,-1372 1420,-1372 1414,-1366 1414,-1360 1414,-1360 1414,-1348 1414,-1348 1414,-1342 1420,-1336 1426,-1336 1426,-1336 1456,-1336 1456,-1336 1462,-1336 1468,-1342 1468,-1348 1468,-1348 1468,-1360 1468,-1360 1468,-1366 1462,-1372 1456,-1372"/>
<text text-anchor="middle" x="1441" y="-1348.95" font-family="Helvetica,sans-Serif" font-size="14.00" fill="#e5e5e5">Start</text>
</g>
<!-- ghost_matter_trick_learned -->
<g id="node15" class="node">
<title>ghost_matter_trick_learned</title>
<path fill="none" stroke="#d9d9d9" d="M1987.12,-1276.5C1987.12,-1276.5 1872.88,-1276.5 1872.88,-1276.5 1866.88,-1276.5 1860.88,-1270.5 1860.88,-1264.5 1860.88,-1264.5 1860.88,-1247.5 1860.88,-1247.5 1860.88,-1241.5 1866.88,-1235.5 1872.88,-1235.5 1872.88,-1235.5 1987.12,-1235.5 1987.12,-1235.5 1993.12,-1235.5 1999.12,-1241.5 1999.12,-1247.5 1999.12,-1247.5 1999.12,-1264.5 1999.12,-1264.5 1999.12,-1270.5 1993.12,-1276.5 1987.12,-1276.5"/>
<text text-anchor="middle" x="1930" y="-1259.2" font-family="Helvetica,sans-Serif" font-size="14.00" fill="#e5e5e5">Learn how to</text>
<text text-anchor="middle" x="1930" y="-1242.7" font-family="Helvetica,sans-Serif" font-size="14.00" fill="#e5e5e5">detect ghost matter</text>
</g>
<!-- start&#45;&gt;ghost_matter_trick_learned -->
<g id="edge19" class="edge">
<title>start&#45;&gt;ghost_matter_trick_learned</title>
<path fill="none" stroke="#d9d9d9" d="M1468.34,-1347.63C1540.38,-1333.49 1737.58,-1294.78 1849.56,-1272.79"/>
<polygon fill="#d9d9d9" stroke="#d9d9d9" points="1850.16,-1276.24 1859.3,-1270.88 1848.81,-1269.37 1850.16,-1276.24"/>
</g>
<!-- launch_codes_learned -->
<g id="node16" class="node">
<title>launch_codes_learned</title>
<path fill="none" stroke="#d9d9d9" d="M1418.5,-1274C1418.5,-1274 1297.5,-1274 1297.5,-1274 1291.5,-1274 1285.5,-1268 1285.5,-1262 1285.5,-1262 1285.5,-1250 1285.5,-1250 1285.5,-1244 1291.5,-1238 1297.5,-1238 1297.5,-1238 1418.5,-1238 1418.5,-1238 1424.5,-1238 1430.5,-1244 1430.5,-1250 1430.5,-1250 1430.5,-1262 1430.5,-1262 1430.5,-1268 1424.5,-1274 1418.5,-1274"/>
<text text-anchor="middle" x="1358" y="-1250.95" font-family="Helvetica,sans-Serif" font-size="14.00" fill="#e5e5e5">Obtain launch codes</text>
</g>
<!-- start&#45;&gt;launch_codes_learned -->
<g id="edge20" class="edge">
<title>start&#45;&gt;launch_codes_learned</title>
<path fill="none" stroke="#d9d9d9" d="M1426.16,-1335.84C1413.38,-1321.05 1394.73,-1299.49 1380.18,-1282.65"/>
<polygon fill="#d9d9d9" stroke="#d9d9d9" points="1383.17,-1280.76 1373.98,-1275.48 1377.87,-1285.34 1383.17,-1280.76"/>
</g>
<!-- ending_broke_time -->
<g id="node2" class="node">
<title>ending_broke_time</title>
<path fill="#500000" stroke="#d9d9d9" d="M2023.62,-40C2023.62,-40 1936.38,-40 1936.38,-40 1930.38,-40 1924.38,-34 1924.38,-28 1924.38,-28 1924.38,-16 1924.38,-16 1924.38,-10 1930.38,-4 1936.38,-4 1936.38,-4 2023.62,-4 2023.62,-4 2029.62,-4 2035.62,-10 2035.62,-16 2035.62,-16 2035.62,-28 2035.62,-28 2035.62,-34 2029.62,-40 2023.62,-40"/>
<text text-anchor="middle" x="1980" y="-16.95" font-family="Helvetica,sans-Serif" font-size="14.00" fill="#e5e5e5">You broke time</text>
</g>
<!-- ending_exile_quantum -->
<g id="node3" class="node">
<title>ending_exile_quantum</title>
<path fill="#500000" stroke="#d9d9d9" d="M1330,-141C1330,-141 1188,-141 1188,-141 1182,-141 1176,-135 1176,-129 1176,-129 1176,-117 1176,-117 1176,-111 1182,-105 1188,-105 1188,-105 1330,-105 1330,-105 1336,-105 1342,-111 1342,-117 1342,-117 1342,-129 1342,-129 1342,-135 1336,-141 1330,-141"/>
<text text-anchor="middle" x="1259" y="-117.95" font-family="Helvetica,sans-Serif" font-size="14.00" fill="#e5e5e5">Exile on Quantum Moon</text>
</g>
<!-- ending_lost -->
<g id="node4" class="node">
<title>ending_lost</title>
<path fill="#500000" stroke="#d9d9d9" d="M1598.38,-141C1598.38,-141 1521.62,-141 1521.62,-141 1515.62,-141 1509.62,-135 1509.62,-129 1509.62,-129 1509.62,-117 1509.62,-117 1509.62,-111 1515.62,-105 1521.62,-105 1521.62,-105 1598.38,-105 1598.38,-105 1604.38,-105 1610.38,-111 1610.38,-117 1610.38,-117 1610.38,-129 1610.38,-129 1610.38,-135 1604.38,-141 1598.38,-141"/>
<text text-anchor="middle" x="1560" y="-117.95" font-family="Helvetica,sans-Serif" font-size="14.00" fill="#e5e5e5">Lost in space</text>
</g>
<!-- ending_good -->
<g id="node5" class="node">
<title>ending_good</title>
<path fill="#500000" stroke="#d9d9d9" d="M1455,-141C1455,-141 1379,-141 1379,-141 1373,-141 1367,-135 1367,-129 1367,-129 1367,-117 1367,-117 1367,-111 1373,-105 1379,-105 1379,-105 1455,-105 1455,-105 1461,-105 1467,-111 1467,-117 1467,-117 1467,-129 1467,-129 1467,-135 1461,-141 1455,-141"/>
<text text-anchor="middle" x="1417" y="-117.95" font-family="Helvetica,sans-Serif" font-size="14.00" fill="#e5e5e5">Good Ending</text>
</g>
<!-- ending_best -->
<g id="node6" class="node">
<title>ending_best</title>
<path fill="#500000" stroke="#d9d9d9" d="M1467.75,-42.5C1467.75,-42.5 1366.25,-42.5 1366.25,-42.5 1360.25,-42.5 1354.25,-36.5 1354.25,-30.5 1354.25,-30.5 1354.25,-13.5 1354.25,-13.5 1354.25,-7.5 1360.25,-1.5 1366.25,-1.5 1366.25,-1.5 1467.75,-1.5 1467.75,-1.5 1473.75,-1.5 1479.75,-7.5 1479.75,-13.5 1479.75,-13.5 1479.75,-30.5 1479.75,-30.5 1479.75,-36.5 1473.75,-42.5 1467.75,-42.5"/>
<text text-anchor="middle" x="1417" y="-25.2" font-family="Helvetica,sans-Serif" font-size="14.00" fill="#e5e5e5">Good Ending but</text>
<text text-anchor="middle" x="1417" y="-8.7" font-family="Helvetica,sans-Serif" font-size="14.00" fill="#e5e5e5">with bonus scene</text>
</g>
<!-- ending_good&#45;&gt;ending_best -->
<g id="edge88" class="edge">
<title>ending_good&#45;&gt;ending_best</title>
<path fill="none" stroke="#d9d9d9" d="M1417,-104.76C1417,-90.85 1417,-70.92 1417,-54.22"/>
<polygon fill="#d9d9d9" stroke="#d9d9d9" points="1420.5,-54.28 1417,-44.28 1413.5,-54.28 1420.5,-54.28"/>
</g>
<!-- incredible_pilot -->
<g id="node7" class="node">
<title>incredible_pilot</title>
<path fill="none" stroke="#737373" stroke-dasharray="1,5" d="M765.38,-642C765.38,-642 676.62,-642 676.62,-642 670.62,-642 664.62,-636 664.62,-630 664.62,-630 664.62,-618 664.62,-618 664.62,-612 670.62,-606 676.62,-606 676.62,-606 765.38,-606 765.38,-606 771.38,-606 777.38,-612 777.38,-618 777.38,-618 777.38,-630 777.38,-630 777.38,-636 771.38,-642 765.38,-642"/>
<text text-anchor="start" x="676" y="-625.7" font-family="Helvetica,sans-Serif" font-size="14.00" fill="#7f7f7f">Be </text>
<text text-anchor="start" x="697.75" y="-625.7" font-family="Helvetica,sans-Serif" font-style="italic" font-size="14.00" fill="#7f7f7f">extremely </text>
<text text-anchor="start" x="672.62" y="-611.7" font-family="Helvetica,sans-Serif" font-size="14.00" fill="#7f7f7f">good at piloting</text>
</g>
<!-- sun_station -->
<g id="node9" class="node">
<title>sun_station</title>
<g id="a_node9"><a xlink:title="This is optional, and just gives you some lore about how the sun isn&#39;t exploding due to the Sun Station. It&#39;s just old.">
<path fill="none" stroke="#737373" stroke-dasharray="1,5" d="M837.62,-542.5C837.62,-542.5 768.38,-542.5 768.38,-542.5 762.38,-542.5 756.38,-536.5 756.38,-530.5 756.38,-530.5 756.38,-513.5 756.38,-513.5 756.38,-507.5 762.38,-501.5 768.38,-501.5 768.38,-501.5 837.62,-501.5 837.62,-501.5 843.62,-501.5 849.62,-507.5 849.62,-513.5 849.62,-513.5 849.62,-530.5 849.62,-530.5 849.62,-536.5 843.62,-542.5 837.62,-542.5"/>
<text text-anchor="middle" x="803" y="-525.2" font-family="Helvetica,sans-Serif" font-size="14.00" fill="#7f7f7f">Enter the</text>
<text text-anchor="middle" x="803" y="-508.7" font-family="Helvetica,sans-Serif" font-size="14.00" fill="#7f7f7f">Sun Station*</text>
</a>
</g>
</g>
<!-- incredible_pilot&#45;&gt;sun_station -->
<g id="edge9" class="edge">
<title>incredible_pilot&#45;&gt;sun_station</title>
<path fill="none" stroke="#737373" stroke-dasharray="5,2" d="M735.28,-605.58C747.47,-590.71 765.25,-569.04 779.53,-551.63"/>
<polygon fill="#737373" stroke="#737373" points="782.03,-554.09 785.67,-544.14 776.62,-549.65 782.03,-554.09"/>
</g>
<!-- sun_station_teleporter -->
<g id="node8" class="node">
<title>sun_station_teleporter</title>
<path fill="none" stroke="#737373" stroke-dasharray="1,5" d="M955.62,-644.5C955.62,-644.5 814.38,-644.5 814.38,-644.5 808.38,-644.5 802.38,-638.5 802.38,-632.5 802.38,-632.5 802.38,-615.5 802.38,-615.5 802.38,-609.5 808.38,-603.5 814.38,-603.5 814.38,-603.5 955.62,-603.5 955.62,-603.5 961.62,-603.5 967.62,-609.5 967.62,-615.5 967.62,-615.5 967.62,-632.5 967.62,-632.5 967.62,-638.5 961.62,-644.5 955.62,-644.5"/>
<text text-anchor="middle" x="885" y="-627.2" font-family="Helvetica,sans-Serif" font-size="14.00" fill="#7f7f7f">Go through the warp</text>
<text text-anchor="middle" x="885" y="-610.7" font-family="Helvetica,sans-Serif" font-size="14.00" fill="#7f7f7f">tower to the Sun Station</text>
</g>
<!-- sun_station_teleporter&#45;&gt;sun_station -->
<g id="edge10" class="edge">
<title>sun_station_teleporter&#45;&gt;sun_station</title>
<path fill="none" stroke="#737373" stroke-dasharray="5,2" d="M868.8,-603.24C856.67,-588.45 839.9,-568 826.33,-551.45"/>
<polygon fill="#737373" stroke="#737373" points="829.17,-549.4 820.13,-543.89 823.76,-553.84 829.17,-549.4"/>
</g>
<!-- gabbro_found -->
<g id="node10" class="node">
<title>gabbro_found</title>
<path fill="none" stroke="#737373" stroke-dasharray="1,5" d="M1990,-1167.5C1990,-1167.5 1896,-1167.5 1896,-1167.5 1890,-1167.5 1884,-1161.5 1884,-1155.5 1884,-1155.5 1884,-1138.5 1884,-1138.5 1884,-1132.5 1890,-1126.5 1896,-1126.5 1896,-1126.5 1990,-1126.5 1990,-1126.5 1996,-1126.5 2002,-1132.5 2002,-1138.5 2002,-1138.5 2002,-1155.5 2002,-1155.5 2002,-1161.5 1996,-1167.5 1990,-1167.5"/>
<text text-anchor="middle" x="1943" y="-1150.2" font-family="Helvetica,sans-Serif" font-size="14.00" fill="#7f7f7f">Find Gabbro</text>
<text text-anchor="middle" x="1943" y="-1133.7" font-family="Helvetica,sans-Serif" font-size="14.00" fill="#7f7f7f">on Giant&#39;s Deep</text>
</g>
<!-- meditation_unlocked -->
<g id="node14" class="node">
<title>meditation_unlocked</title>
<g id="a_node14"><a xlink:title="Optional, but gives some good quality&#45;of&#45;life.">
<path fill="none" stroke="#737373" stroke-dasharray="1,5" d="M2156.88,-1066.5C2156.88,-1066.5 1963.12,-1066.5 1963.12,-1066.5 1957.12,-1066.5 1951.12,-1060.5 1951.12,-1054.5 1951.12,-1054.5 1951.12,-1037.5 1951.12,-1037.5 1951.12,-1031.5 1957.12,-1025.5 1963.12,-1025.5 1963.12,-1025.5 2156.88,-1025.5 2156.88,-1025.5 2162.88,-1025.5 2168.88,-1031.5 2168.88,-1037.5 2168.88,-1037.5 2168.88,-1054.5 2168.88,-1054.5 2168.88,-1060.5 2162.88,-1066.5 2156.88,-1066.5"/>
<text text-anchor="middle" x="2060" y="-1049.2" font-family="Helvetica,sans-Serif" font-size="14.00" fill="#7f7f7f">Learn how to meditate the</text>
<text text-anchor="middle" x="2060" y="-1032.7" font-family="Helvetica,sans-Serif" font-size="14.00" fill="#7f7f7f">second time you talk to Gabbro*</text>
</a>
</g>
</g>
<!-- gabbro_found&#45;&gt;meditation_unlocked -->
<g id="edge29" class="edge">
<title>gabbro_found&#45;&gt;meditation_unlocked</title>
<path fill="none" stroke="#737373" d="M1966.4,-1126.2C1984.09,-1111.23 2008.59,-1090.5 2028.08,-1074.01"/>
<polygon fill="#737373" stroke="#737373" points="2030.12,-1076.87 2035.49,-1067.74 2025.59,-1071.53 2030.12,-1076.87"/>
</g>
<!-- ember_twin_gravity_cannon -->
<g id="node11" class="node">
<title>ember_twin_gravity_cannon</title>
<path fill="none" stroke="#737373" stroke-dasharray="1,5" d="M2247.5,-1167.5C2247.5,-1167.5 2114.5,-1167.5 2114.5,-1167.5 2108.5,-1167.5 2102.5,-1161.5 2102.5,-1155.5 2102.5,-1155.5 2102.5,-1138.5 2102.5,-1138.5 2102.5,-1132.5 2108.5,-1126.5 2114.5,-1126.5 2114.5,-1126.5 2247.5,-1126.5 2247.5,-1126.5 2253.5,-1126.5 2259.5,-1132.5 2259.5,-1138.5 2259.5,-1138.5 2259.5,-1155.5 2259.5,-1155.5 2259.5,-1161.5 2253.5,-1167.5 2247.5,-1167.5"/>
<text text-anchor="middle" x="2181" y="-1150.2" font-family="Helvetica,sans-Serif" font-size="14.00" fill="#7f7f7f">Find the Ember Twin&#39;s</text>
<text text-anchor="middle" x="2181" y="-1133.7" font-family="Helvetica,sans-Serif" font-size="14.00" fill="#7f7f7f">gravity cannon</text>
</g>
<!-- interloper_ice_trick_learned -->
<g id="node12" class="node">
<title>interloper_ice_trick_learned</title>
<path fill="none" stroke="#737373" stroke-dasharray="1,5" d="M2323.62,-1066.5C2323.62,-1066.5 2206.38,-1066.5 2206.38,-1066.5 2200.38,-1066.5 2194.38,-1060.5 2194.38,-1054.5 2194.38,-1054.5 2194.38,-1037.5 2194.38,-1037.5 2194.38,-1031.5 2200.38,-1025.5 2206.38,-1025.5 2206.38,-1025.5 2323.62,-1025.5 2323.62,-1025.5 2329.62,-1025.5 2335.62,-1031.5 2335.62,-1037.5 2335.62,-1037.5 2335.62,-1054.5 2335.62,-1054.5 2335.62,-1060.5 2329.62,-1066.5 2323.62,-1066.5"/>
<text text-anchor="middle" x="2265" y="-1049.2" font-family="Helvetica,sans-Serif" font-size="14.00" fill="#7f7f7f">Learn how to get</text>
<text text-anchor="middle" x="2265" y="-1032.7" font-family="Helvetica,sans-Serif" font-size="14.00" fill="#7f7f7f">inside the Interloper</text>
</g>
<!-- ember_twin_gravity_cannon&#45;&gt;interloper_ice_trick_learned -->
<g id="edge31" class="edge">
<title>ember_twin_gravity_cannon&#45;&gt;interloper_ice_trick_learned</title>
<path fill="none" stroke="#737373" d="M2197.6,-1126.44C2209.94,-1111.89 2226.98,-1091.81 2240.83,-1075.49"/>
<polygon fill="#737373" stroke="#737373" points="2243.37,-1077.9 2247.17,-1068.01 2238.03,-1073.37 2243.37,-1077.9"/>
</g>
<!-- interloper_interior -->
<g id="node13" class="node">
<title>interloper_interior</title>
<g id="a_node13"><a xlink:title="This is optional, and just gives you lore about the origins of ghost matter.">
<path fill="none" stroke="#737373" stroke-dasharray="1,5" d="M2429.5,-954C2429.5,-954 2260.5,-954 2260.5,-954 2254.5,-954 2248.5,-948 2248.5,-942 2248.5,-942 2248.5,-930 2248.5,-930 2248.5,-924 2254.5,-918 2260.5,-918 2260.5,-918 2429.5,-918 2429.5,-918 2435.5,-918 2441.5,-924 2441.5,-930 2441.5,-930 2441.5,-942 2441.5,-942 2441.5,-948 2435.5,-954 2429.5,-954"/>
<text text-anchor="middle" x="2345" y="-930.95" font-family="Helvetica,sans-Serif" font-size="14.00" fill="#7f7f7f">Reach the Interloper&#39;s core*</text>
</a>
</g>
</g>
<!-- interloper_ice_trick_learned&#45;&gt;interloper_interior -->
<g id="edge32" class="edge">
<title>interloper_ice_trick_learned&#45;&gt;interloper_interior</title>
<path fill="none" stroke="#737373" d="M2279.67,-1025.19C2292.56,-1007.79 2311.41,-982.35 2325.55,-963.25"/>
<polygon fill="#737373" stroke="#737373" points="2328.22,-965.53 2331.36,-955.41 2322.6,-961.36 2328.22,-965.53"/>
</g>
<!-- ghost_matter_trick_learned&#45;&gt;interloper_interior -->
<g id="edge33" class="edge">
<title>ghost_matter_trick_learned&#45;&gt;interloper_interior</title>
<path fill="none" stroke="#737373" d="M1999.25,-1253.36C2108.44,-1250.15 2310.83,-1241.41 2336,-1220.3 2403.8,-1163.45 2392.27,-1112.65 2377,-1025.5 2373.32,-1004.51 2365.08,-981.94 2357.89,-964.84"/>
<polygon fill="#737373" stroke="#737373" points="2361.18,-963.62 2353.97,-955.86 2354.76,-966.42 2361.18,-963.62"/>
</g>
<!-- anglerfish_trick -->
<g id="node36" class="node">
<title>anglerfish_trick</title>
<path fill="none" stroke="#d9d9d9" d="M1918.38,-956.5C1918.38,-956.5 1787.62,-956.5 1787.62,-956.5 1781.62,-956.5 1775.62,-950.5 1775.62,-944.5 1775.62,-944.5 1775.62,-927.5 1775.62,-927.5 1775.62,-921.5 1781.62,-915.5 1787.62,-915.5 1787.62,-915.5 1918.38,-915.5 1918.38,-915.5 1924.38,-915.5 1930.38,-921.5 1930.38,-927.5 1930.38,-927.5 1930.38,-944.5 1930.38,-944.5 1930.38,-950.5 1924.38,-956.5 1918.38,-956.5"/>
<text text-anchor="middle" x="1853" y="-939.2" font-family="Helvetica,sans-Serif" font-size="14.00" fill="#e5e5e5">Learn the trick to</text>
<text text-anchor="middle" x="1853" y="-922.7" font-family="Helvetica,sans-Serif" font-size="14.00" fill="#e5e5e5">getting past anglerfish</text>
</g>
<!-- ghost_matter_trick_learned&#45;&gt;anglerfish_trick -->
<!-- launch_codes_learned&#45;&gt;incredible_pilot -->
<g id="edge21" class="edge">
<title>launch_codes_learned&#45;&gt;incredible_pilot</title>
<path fill="none" stroke="#737373" d="M1285.25,-1253.77C1145.54,-1250.93 849.86,-1242.37 809,-1220.3 724.28,-1174.55 679,-1143.28 679,-1047 679,-1047 679,-1047 679,-825 679,-762.62 698.81,-691.59 711.22,-653.22"/>
<polygon fill="#737373" stroke="#737373" points="714.5,-654.43 714.33,-643.84 707.86,-652.23 714.5,-654.43"/>
</g>
<!-- launch_codes_learned&#45;&gt;gabbro_found -->
<g id="edge22" class="edge">
<title>launch_codes_learned&#45;&gt;gabbro_found</title>
<path fill="none" stroke="#737373" d="M1430.86,-1254.77C1511.41,-1253.1 1644.52,-1246.16 1756,-1220.3 1803.22,-1209.35 1854.4,-1188.92 1891.26,-1172.56"/>
<polygon fill="#737373" stroke="#737373" points="1892.67,-1175.76 1900.36,-1168.47 1889.8,-1169.38 1892.67,-1175.76"/>
</g>
<!-- launch_codes_learned&#45;&gt;ember_twin_gravity_cannon -->
<g id="edge30" class="edge">
<title>launch_codes_learned&#45;&gt;ember_twin_gravity_cannon</title>
<path fill="none" stroke="#737373" d="M1430.88,-1252.62C1590.14,-1247.2 1959.45,-1233.41 2015,-1220.3 2057.51,-1210.27 2102.78,-1189.82 2135.29,-1173.23"/>
<polygon fill="#737373" stroke="#737373" points="2136.77,-1176.4 2144.04,-1168.69 2133.55,-1170.19 2136.77,-1176.4"/>
</g>
<!-- youngbark_crater_explored -->
<g id="node17" class="node">
<title>youngbark_crater_explored</title>
<path fill="none" stroke="#d9d9d9" d="M1548.12,-1066.5C1548.12,-1066.5 1403.88,-1066.5 1403.88,-1066.5 1397.88,-1066.5 1391.88,-1060.5 1391.88,-1054.5 1391.88,-1054.5 1391.88,-1037.5 1391.88,-1037.5 1391.88,-1031.5 1397.88,-1025.5 1403.88,-1025.5 1403.88,-1025.5 1548.12,-1025.5 1548.12,-1025.5 1554.12,-1025.5 1560.12,-1031.5 1560.12,-1037.5 1560.12,-1037.5 1560.12,-1054.5 1560.12,-1054.5 1560.12,-1060.5 1554.12,-1066.5 1548.12,-1066.5"/>
<text text-anchor="middle" x="1476" y="-1049.2" font-family="Helvetica,sans-Serif" font-size="14.00" fill="#e5e5e5">Explore the Youngbark</text>
<text text-anchor="middle" x="1476" y="-1032.7" font-family="Helvetica,sans-Serif" font-size="14.00" fill="#e5e5e5">Crater on Timber Hearth</text>
</g>
<!-- launch_codes_learned&#45;&gt;youngbark_crater_explored -->
<g id="edge23" class="edge">
<title>launch_codes_learned&#45;&gt;youngbark_crater_explored</title>
<path fill="none" stroke="#d9d9d9" d="M1428.63,-1237.67C1436.76,-1233.16 1444.21,-1227.47 1450,-1220.3 1482.69,-1179.83 1483.31,-1116.11 1480.12,-1078.25"/>
<polygon fill="#d9d9d9" stroke="#d9d9d9" points="1483.61,-1078.03 1479.13,-1068.43 1476.65,-1078.73 1483.61,-1078.03"/>
</g>
<!-- outer_wilds_venture_signal -->
<g id="node18" class="node">
<title>outer_wilds_venture_signal</title>
<path fill="none" stroke="#d9d9d9" d="M1425.62,-1167.5C1425.62,-1167.5 1290.38,-1167.5 1290.38,-1167.5 1284.38,-1167.5 1278.38,-1161.5 1278.38,-1155.5 1278.38,-1155.5 1278.38,-1138.5 1278.38,-1138.5 1278.38,-1132.5 1284.38,-1126.5 1290.38,-1126.5 1290.38,-1126.5 1425.62,-1126.5 1425.62,-1126.5 1431.62,-1126.5 1437.62,-1132.5 1437.62,-1138.5 1437.62,-1138.5 1437.62,-1155.5 1437.62,-1155.5 1437.62,-1161.5 1431.62,-1167.5 1425.62,-1167.5"/>
<text text-anchor="middle" x="1358" y="-1150.2" font-family="Helvetica,sans-Serif" font-size="14.00" fill="#e5e5e5">Follow the Outer Wilds</text>
<text text-anchor="middle" x="1358" y="-1133.7" font-family="Helvetica,sans-Serif" font-size="14.00" fill="#e5e5e5">Ventures signal</text>
</g>
<!-- launch_codes_learned&#45;&gt;outer_wilds_venture_signal -->
<g id="edge24" class="edge">
<title>launch_codes_learned&#45;&gt;outer_wilds_venture_signal</title>
<path fill="none" stroke="#d9d9d9" d="M1358,-1237.81C1358,-1222.03 1358,-1198.28 1358,-1179.17"/>
<polygon fill="#d9d9d9" stroke="#d9d9d9" points="1361.5,-1179.21 1358,-1169.21 1354.5,-1179.21 1361.5,-1179.21"/>
</g>
<!-- brittle_hollow_escape_pod_found -->
<g id="node20" class="node">
<title>brittle_hollow_escape_pod_found</title>
<path fill="none" stroke="#d9d9d9" d="M1241.25,-1167.5C1241.25,-1167.5 1118.75,-1167.5 1118.75,-1167.5 1112.75,-1167.5 1106.75,-1161.5 1106.75,-1155.5 1106.75,-1155.5 1106.75,-1138.5 1106.75,-1138.5 1106.75,-1132.5 1112.75,-1126.5 1118.75,-1126.5 1118.75,-1126.5 1241.25,-1126.5 1241.25,-1126.5 1247.25,-1126.5 1253.25,-1132.5 1253.25,-1138.5 1253.25,-1138.5 1253.25,-1155.5 1253.25,-1155.5 1253.25,-1161.5 1247.25,-1167.5 1241.25,-1167.5"/>
<text text-anchor="middle" x="1180" y="-1150.2" font-family="Helvetica,sans-Serif" font-size="14.00" fill="#e5e5e5">Find the escape pod</text>
<text text-anchor="middle" x="1180" y="-1133.7" font-family="Helvetica,sans-Serif" font-size="14.00" fill="#e5e5e5">on Brittle Hollow</text>
</g>
<!-- launch_codes_learned&#45;&gt;brittle_hollow_escape_pod_found -->
<g id="edge25" class="edge">
<title>launch_codes_learned&#45;&gt;brittle_hollow_escape_pod_found</title>
<path fill="none" stroke="#d9d9d9" d="M1302.6,-1237.57C1290.18,-1232.73 1277.34,-1226.94 1266,-1220.3 1244.98,-1207.99 1224.01,-1190.49 1208.03,-1175.78"/>
<polygon fill="#d9d9d9" stroke="#d9d9d9" points="1210.49,-1173.29 1200.81,-1168.99 1205.7,-1178.39 1210.49,-1173.29"/>
</g>
<!-- ember_twin_escape_pod_found -->
<g id="node21" class="node">
<title>ember_twin_escape_pod_found</title>
<path fill="none" stroke="#d9d9d9" d="M1731.25,-1167.5C1731.25,-1167.5 1608.75,-1167.5 1608.75,-1167.5 1602.75,-1167.5 1596.75,-1161.5 1596.75,-1155.5 1596.75,-1155.5 1596.75,-1138.5 1596.75,-1138.5 1596.75,-1132.5 1602.75,-1126.5 1608.75,-1126.5 1608.75,-1126.5 1731.25,-1126.5 1731.25,-1126.5 1737.25,-1126.5 1743.25,-1132.5 1743.25,-1138.5 1743.25,-1138.5 1743.25,-1155.5 1743.25,-1155.5 1743.25,-1161.5 1737.25,-1167.5 1731.25,-1167.5"/>
<text text-anchor="middle" x="1670" y="-1150.2" font-family="Helvetica,sans-Serif" font-size="14.00" fill="#e5e5e5">Find the escape pod</text>
<text text-anchor="middle" x="1670" y="-1133.7" font-family="Helvetica,sans-Serif" font-size="14.00" fill="#e5e5e5">on the Ember Twin</text>
</g>
<!-- launch_codes_learned&#45;&gt;ember_twin_escape_pod_found -->
<g id="edge26" class="edge">
<title>launch_codes_learned&#45;&gt;ember_twin_escape_pod_found</title>
<path fill="none" stroke="#d9d9d9" d="M1430.73,-1238.64C1451.65,-1233.38 1474.39,-1227.13 1495,-1220.3 1536.57,-1206.53 1582.27,-1187.51 1616.54,-1172.44"/>
<polygon fill="#d9d9d9" stroke="#d9d9d9" points="1617.68,-1175.76 1625.4,-1168.51 1614.84,-1169.36 1617.68,-1175.76"/>
</g>
<!-- white_hole_found -->
<g id="node23" class="node">
<title>white_hole_found</title>
<g id="a_node23"><a xlink:title="Probably by falling into the black hole in the center of Brittle Hollow">
<path fill="none" stroke="#d9d9d9" d="M838.88,-1064C838.88,-1064 729.12,-1064 729.12,-1064 723.12,-1064 717.12,-1058 717.12,-1052 717.12,-1052 717.12,-1040 717.12,-1040 717.12,-1034 723.12,-1028 729.12,-1028 729.12,-1028 838.88,-1028 838.88,-1028 844.88,-1028 850.88,-1034 850.88,-1040 850.88,-1040 850.88,-1052 850.88,-1052 850.88,-1058 844.88,-1064 838.88,-1064"/>
<text text-anchor="middle" x="784" y="-1040.95" font-family="Helvetica,sans-Serif" font-size="14.00" fill="#e5e5e5">Find the white hole</text>
</a>
</g>
</g>
<!-- launch_codes_learned&#45;&gt;white_hole_found -->
<g id="edge27" class="edge">
<title>launch_codes_learned&#45;&gt;white_hole_found</title>
<path fill="none" stroke="#d9d9d9" d="M1285.2,-1253.26C1161.85,-1249.77 921.89,-1240.46 889,-1220.3 835.09,-1187.25 805.12,-1115.17 792.05,-1075.16"/>
<polygon fill="#d9d9d9" stroke="#d9d9d9" points="795.44,-1074.27 789.11,-1065.77 788.75,-1076.36 795.44,-1074.27"/>
</g>
<!-- orbital_probe_cannon_explored -->
<g id="node24" class="node">
<title>orbital_probe_cannon_explored</title>
<path fill="none" stroke="#d9d9d9" d="M1042.25,-1167.5C1042.25,-1167.5 913.75,-1167.5 913.75,-1167.5 907.75,-1167.5 901.75,-1161.5 901.75,-1155.5 901.75,-1155.5 901.75,-1138.5 901.75,-1138.5 901.75,-1132.5 907.75,-1126.5 913.75,-1126.5 913.75,-1126.5 1042.25,-1126.5 1042.25,-1126.5 1048.25,-1126.5 1054.25,-1132.5 1054.25,-1138.5 1054.25,-1138.5 1054.25,-1155.5 1054.25,-1155.5 1054.25,-1161.5 1048.25,-1167.5 1042.25,-1167.5"/>
<text text-anchor="middle" x="978" y="-1150.2" font-family="Helvetica,sans-Serif" font-size="14.00" fill="#e5e5e5">Explore the</text>
<text text-anchor="middle" x="978" y="-1133.7" font-family="Helvetica,sans-Serif" font-size="14.00" fill="#e5e5e5">Orbital Probe Cannon</text>
</g>
<!-- launch_codes_learned&#45;&gt;orbital_probe_cannon_explored -->
<g id="edge28" class="edge">
<title>launch_codes_learned&#45;&gt;orbital_probe_cannon_explored</title>
<path fill="none" stroke="#d9d9d9" d="M1285.19,-1253.7C1231.05,-1250.78 1156.12,-1242.56 1094,-1220.3 1064.23,-1209.63 1034.01,-1190.48 1011.89,-1174.56"/>
<polygon fill="#d9d9d9" stroke="#d9d9d9" points="1013.97,-1171.75 1003.84,-1168.64 1009.82,-1177.39 1013.97,-1171.75"/>
</g>
<!-- launch_codes_learned_proxy_quantum -->
<g id="node53" class="node">
<title>launch_codes_learned_proxy_quantum</title>
<ellipse fill="#d9d9d9" stroke="#d9d9d9" cx="226" cy="-1147" rx="1.8" ry="1.8"/>
</g>
<!-- launch_codes_learned&#45;&gt;launch_codes_learned_proxy_quantum -->
<g id="edge65" class="edge">
<title>launch_codes_learned&#45;&gt;launch_codes_learned_proxy_quantum</title>
<path fill="none" stroke="#d9d9d9" d="M1285.18,-1254.14C1157.99,-1252.03 887.24,-1244.79 660,-1220.3 475.45,-1200.41 250.22,-1153.14 227.82,-1148.39"/>
</g>
<!-- dark_bramble_scout_trick_learned -->
<g id="node33" class="node">
<title>dark_bramble_scout_trick_learned</title>
<path fill="none" stroke="#d9d9d9" d="M1566.88,-956.5C1566.88,-956.5 1373.12,-956.5 1373.12,-956.5 1367.12,-956.5 1361.12,-950.5 1361.12,-944.5 1361.12,-944.5 1361.12,-927.5 1361.12,-927.5 1361.12,-921.5 1367.12,-915.5 1373.12,-915.5 1373.12,-915.5 1566.88,-915.5 1566.88,-915.5 1572.88,-915.5 1578.88,-921.5 1578.88,-927.5 1578.88,-927.5 1578.88,-944.5 1578.88,-944.5 1578.88,-950.5 1572.88,-956.5 1566.88,-956.5"/>
<text text-anchor="middle" x="1470" y="-939.2" font-family="Helvetica,sans-Serif" font-size="14.00" fill="#e5e5e5">Learn about shooting your scout</text>
<text text-anchor="middle" x="1470" y="-922.7" font-family="Helvetica,sans-Serif" font-size="14.00" fill="#e5e5e5">through Dark Bramble seeds</text>
</g>
<!-- youngbark_crater_explored&#45;&gt;dark_bramble_scout_trick_learned -->
<g id="edge15" class="edge">
<title>youngbark_crater_explored&#45;&gt;dark_bramble_scout_trick_learned</title>
<path fill="none" stroke="#d9d9d9" stroke-dasharray="5,2" d="M1474.9,-1025.19C1474.01,-1009.21 1472.75,-986.43 1471.72,-968.03"/>
<polygon fill="#d9d9d9" stroke="#d9d9d9" points="1475.23,-967.98 1471.18,-958.19 1468.24,-968.37 1475.23,-967.98"/>
</g>
<!-- feldspar_found -->
<g id="node19" class="node">
<title>feldspar_found</title>
<path fill="none" stroke="#d9d9d9" d="M1355.25,-1066.5C1355.25,-1066.5 1262.75,-1066.5 1262.75,-1066.5 1256.75,-1066.5 1250.75,-1060.5 1250.75,-1054.5 1250.75,-1054.5 1250.75,-1037.5 1250.75,-1037.5 1250.75,-1031.5 1256.75,-1025.5 1262.75,-1025.5 1262.75,-1025.5 1355.25,-1025.5 1355.25,-1025.5 1361.25,-1025.5 1367.25,-1031.5 1367.25,-1037.5 1367.25,-1037.5 1367.25,-1054.5 1367.25,-1054.5 1367.25,-1060.5 1361.25,-1066.5 1355.25,-1066.5"/>
<text text-anchor="middle" x="1309" y="-1049.2" font-family="Helvetica,sans-Serif" font-size="14.00" fill="#e5e5e5">Find Feldspar</text>
<text text-anchor="middle" x="1309" y="-1032.7" font-family="Helvetica,sans-Serif" font-size="14.00" fill="#e5e5e5">in Dark Bramble</text>
</g>
<!-- outer_wilds_venture_signal&#45;&gt;feldspar_found -->
<g id="edge13" class="edge">
<title>outer_wilds_venture_signal&#45;&gt;feldspar_found</title>
<path fill="none" stroke="#d9d9d9" stroke-dasharray="5,2" d="M1348.32,-1126.44C1341.32,-1112.3 1331.73,-1092.93 1323.78,-1076.85"/>
<polygon fill="#d9d9d9" stroke="#d9d9d9" points="1327.07,-1075.62 1319.5,-1068.21 1320.8,-1078.73 1327.07,-1075.62"/>
</g>
<!-- jellyfish_trick_learned -->
<g id="node29" class="node">
<title>jellyfish_trick_learned</title>
<path fill="none" stroke="#d9d9d9" d="M1043.25,-846.5C1043.25,-846.5 914.75,-846.5 914.75,-846.5 908.75,-846.5 902.75,-840.5 902.75,-834.5 902.75,-834.5 902.75,-817.5 902.75,-817.5 902.75,-811.5 908.75,-805.5 914.75,-805.5 914.75,-805.5 1043.25,-805.5 1043.25,-805.5 1049.25,-805.5 1055.25,-811.5 1055.25,-817.5 1055.25,-817.5 1055.25,-834.5 1055.25,-834.5 1055.25,-840.5 1049.25,-846.5 1043.25,-846.5"/>
<text text-anchor="middle" x="979" y="-829.2" font-family="Helvetica,sans-Serif" font-size="14.00" fill="#e5e5e5">Learn that jellyfish are</text>
<text text-anchor="middle" x="979" y="-812.7" font-family="Helvetica,sans-Serif" font-size="14.00" fill="#e5e5e5">electrically resistant</text>
</g>
<!-- feldspar_found&#45;&gt;jellyfish_trick_learned -->
<g id="edge44" class="edge">
<title>feldspar_found&#45;&gt;jellyfish_trick_learned</title>
<path fill="none" stroke="#d9d9d9" d="M1305.3,-1025.01C1298.7,-995.05 1282.08,-938.7 1246,-907.25 1232.01,-895.06 1138.94,-868.67 1066.57,-849.47"/>
<polygon fill="#d9d9d9" stroke="#d9d9d9" points="1067.63,-846.13 1057.07,-846.96 1065.85,-852.9 1067.63,-846.13"/>
</g>
<!-- feldspar_found&#45;&gt;dark_bramble_scout_trick_learned -->
<g id="edge16" class="edge">
<title>feldspar_found&#45;&gt;dark_bramble_scout_trick_learned</title>
<path fill="none" stroke="#d9d9d9" stroke-dasharray="5,2" d="M1331.38,-1025.19C1355.29,-1007.66 1393.37,-981.97 1423.68,-962.83"/>
<polygon fill="#d9d9d9" stroke="#d9d9d9" points="1425.32,-965.94 1431.94,-957.67 1421.61,-960 1425.32,-965.94"/>
</g>
<!-- distress_signal_learned -->
<g id="node22" class="node">
<title>distress_signal_learned</title>
<path fill="none" stroke="#d9d9d9" d="M1742.88,-1066.5C1742.88,-1066.5 1597.12,-1066.5 1597.12,-1066.5 1591.12,-1066.5 1585.12,-1060.5 1585.12,-1054.5 1585.12,-1054.5 1585.12,-1037.5 1585.12,-1037.5 1585.12,-1031.5 1591.12,-1025.5 1597.12,-1025.5 1597.12,-1025.5 1742.88,-1025.5 1742.88,-1025.5 1748.88,-1025.5 1754.88,-1031.5 1754.88,-1037.5 1754.88,-1037.5 1754.88,-1054.5 1754.88,-1054.5 1754.88,-1060.5 1748.88,-1066.5 1742.88,-1066.5"/>
<text text-anchor="middle" x="1670" y="-1049.2" font-family="Helvetica,sans-Serif" font-size="14.00" fill="#e5e5e5">Learn the distress signal</text>
<text text-anchor="middle" x="1670" y="-1032.7" font-family="Helvetica,sans-Serif" font-size="14.00" fill="#e5e5e5">from an escape pod</text>
</g>
<!-- brittle_hollow_escape_pod_found&#45;&gt;distress_signal_learned -->
<g id="edge7" class="edge">
<title>brittle_hollow_escape_pod_found&#45;&gt;distress_signal_learned</title>
<path fill="none" stroke="#d9d9d9" stroke-dasharray="5,2" d="M1253.55,-1126.59C1253.7,-1126.56 1253.85,-1126.53 1254,-1126.5 1390.03,-1097.79 1424.63,-1093.53 1561,-1066.5 1565.07,-1065.69 1569.24,-1064.86 1573.46,-1064.02"/>
<polygon fill="#d9d9d9" stroke="#d9d9d9" points="1574.11,-1067.46 1583.24,-1062.08 1572.75,-1060.6 1574.11,-1067.46"/>
</g>
<!-- brittle_hollow_underground -->
<g id="node25" class="node">
<title>brittle_hollow_underground</title>
<path fill="none" stroke="#d9d9d9" d="M1213.75,-1066.5C1213.75,-1066.5 1082.25,-1066.5 1082.25,-1066.5 1076.25,-1066.5 1070.25,-1060.5 1070.25,-1054.5 1070.25,-1054.5 1070.25,-1037.5 1070.25,-1037.5 1070.25,-1031.5 1076.25,-1025.5 1082.25,-1025.5 1082.25,-1025.5 1213.75,-1025.5 1213.75,-1025.5 1219.75,-1025.5 1225.75,-1031.5 1225.75,-1037.5 1225.75,-1037.5 1225.75,-1054.5 1225.75,-1054.5 1225.75,-1060.5 1219.75,-1066.5 1213.75,-1066.5"/>
<text text-anchor="middle" x="1148" y="-1049.2" font-family="Helvetica,sans-Serif" font-size="14.00" fill="#e5e5e5">Find the underground</text>
<text text-anchor="middle" x="1148" y="-1032.7" font-family="Helvetica,sans-Serif" font-size="14.00" fill="#e5e5e5">paths on Brittle Hollow</text>
</g>
<!-- brittle_hollow_escape_pod_found&#45;&gt;brittle_hollow_underground -->
<g id="edge35" class="edge">
<title>brittle_hollow_escape_pod_found&#45;&gt;brittle_hollow_underground</title>
<path fill="none" stroke="#d9d9d9" d="M1173.68,-1126.44C1169.19,-1112.57 1163.08,-1093.66 1157.95,-1077.78"/>
<polygon fill="#d9d9d9" stroke="#d9d9d9" points="1161.29,-1076.74 1154.88,-1068.3 1154.63,-1078.89 1161.29,-1076.74"/>
</g>
<!-- ember_twin_escape_pod_found&#45;&gt;distress_signal_learned -->
<g id="edge8" class="edge">
<title>ember_twin_escape_pod_found&#45;&gt;distress_signal_learned</title>
<path fill="none" stroke="#d9d9d9" stroke-dasharray="5,2" d="M1662.66,-1126.44C1660.91,-1112.7 1660.54,-1094.03 1661.57,-1078.24"/>
<polygon fill="#d9d9d9" stroke="#d9d9d9" points="1665.05,-1078.65 1662.48,-1068.36 1658.08,-1078 1665.05,-1078.65"/>
</g>
<!-- sunken_city -->
<g id="node35" class="node">
<title>sunken_city</title>
<path fill="none" stroke="#d9d9d9" d="M1913.88,-1064C1913.88,-1064 1792.12,-1064 1792.12,-1064 1786.12,-1064 1780.12,-1058 1780.12,-1052 1780.12,-1052 1780.12,-1040 1780.12,-1040 1780.12,-1034 1786.12,-1028 1792.12,-1028 1792.12,-1028 1913.88,-1028 1913.88,-1028 1919.88,-1028 1925.88,-1034 1925.88,-1040 1925.88,-1040 1925.88,-1052 1925.88,-1052 1925.88,-1058 1919.88,-1064 1913.88,-1064"/>
<text text-anchor="middle" x="1853" y="-1040.95" font-family="Helvetica,sans-Serif" font-size="14.00" fill="#e5e5e5">Find the Sunken City</text>
</g>
<!-- ember_twin_escape_pod_found&#45;&gt;sunken_city -->
<g id="edge38" class="edge">
<title>ember_twin_escape_pod_found&#45;&gt;sunken_city</title>
<path fill="none" stroke="#d9d9d9" d="M1706.59,-1126.2C1736.71,-1109.91 1779.42,-1086.8 1810.95,-1069.75"/>
<polygon fill="#d9d9d9" stroke="#d9d9d9" points="1812.3,-1073 1819.43,-1065.16 1808.96,-1066.84 1812.3,-1073"/>
</g>
<!-- distress_signal_learned&#45;&gt;brittle_hollow_escape_pod_found -->
<g id="edge5" class="edge">
<title>distress_signal_learned&#45;&gt;brittle_hollow_escape_pod_found</title>
<path fill="none" stroke="#d9d9d9" stroke-dasharray="1,5" d="M1584.8,-1066.74C1449.42,-1093.56 1414.63,-1097.88 1279,-1126.5 1274.24,-1127.51 1269.33,-1128.56 1264.36,-1129.64"/>
<polygon fill="#d9d9d9" stroke="#d9d9d9" points="1263.93,-1126.15 1254.91,-1131.71 1265.43,-1132.99 1263.93,-1126.15"/>
</g>
<!-- distress_signal_learned&#45;&gt;ember_twin_escape_pod_found -->
<g id="edge6" class="edge">
<title>distress_signal_learned&#45;&gt;ember_twin_escape_pod_found</title>
<path fill="none" stroke="#d9d9d9" stroke-dasharray="1,5" d="M1677.99,-1066.86C1679.87,-1080.67 1680.24,-1099.35 1679.11,-1115.1"/>
<polygon fill="#d9d9d9" stroke="#d9d9d9" points="1675.64,-1114.63 1678.1,-1124.94 1682.6,-1115.34 1675.64,-1114.63"/>
</g>
<!-- dark_bramble_escape_pod_found -->
<g id="node32" class="node">
<title>dark_bramble_escape_pod_found</title>
<path fill="none" stroke="#d9d9d9" d="M1738.25,-956.5C1738.25,-956.5 1615.75,-956.5 1615.75,-956.5 1609.75,-956.5 1603.75,-950.5 1603.75,-944.5 1603.75,-944.5 1603.75,-927.5 1603.75,-927.5 1603.75,-921.5 1609.75,-915.5 1615.75,-915.5 1615.75,-915.5 1738.25,-915.5 1738.25,-915.5 1744.25,-915.5 1750.25,-921.5 1750.25,-927.5 1750.25,-927.5 1750.25,-944.5 1750.25,-944.5 1750.25,-950.5 1744.25,-956.5 1738.25,-956.5"/>
<text text-anchor="middle" x="1677" y="-939.2" font-family="Helvetica,sans-Serif" font-size="14.00" fill="#e5e5e5">Find the escape pod</text>
<text text-anchor="middle" x="1677" y="-922.7" font-family="Helvetica,sans-Serif" font-size="14.00" fill="#e5e5e5">in Dark Bramble</text>
</g>
<!-- distress_signal_learned&#45;&gt;dark_bramble_escape_pod_found -->
<g id="edge34" class="edge">
<title>distress_signal_learned&#45;&gt;dark_bramble_escape_pod_found</title>
<path fill="none" stroke="#d9d9d9" d="M1671.28,-1025.19C1672.32,-1009.21 1673.8,-986.43 1674.99,-968.03"/>
<polygon fill="#d9d9d9" stroke="#d9d9d9" points="1678.47,-968.4 1675.63,-958.19 1671.49,-967.95 1678.47,-968.4"/>
</g>
<!-- white_hole_station_explored -->
<g id="node40" class="node">
<title>white_hole_station_explored</title>
<path fill="none" stroke="#d9d9d9" d="M1221.5,-956.5C1221.5,-956.5 1112.5,-956.5 1112.5,-956.5 1106.5,-956.5 1100.5,-950.5 1100.5,-944.5 1100.5,-944.5 1100.5,-927.5 1100.5,-927.5 1100.5,-921.5 1106.5,-915.5 1112.5,-915.5 1112.5,-915.5 1221.5,-915.5 1221.5,-915.5 1227.5,-915.5 1233.5,-921.5 1233.5,-927.5 1233.5,-927.5 1233.5,-944.5 1233.5,-944.5 1233.5,-950.5 1227.5,-956.5 1221.5,-956.5"/>
<text text-anchor="middle" x="1167" y="-939.2" font-family="Helvetica,sans-Serif" font-size="14.00" fill="#e5e5e5">Explore the</text>
<text text-anchor="middle" x="1167" y="-922.7" font-family="Helvetica,sans-Serif" font-size="14.00" fill="#e5e5e5">White Hole Station</text>
</g>
<!-- white_hole_found&#45;&gt;white_hole_station_explored -->
<g id="edge50" class="edge">
<title>white_hole_found&#45;&gt;white_hole_station_explored</title>
<path fill="none" stroke="#d9d9d9" d="M851.15,-1028.91C913.04,-1013.69 1007.25,-989.55 1088,-964.75 1092.26,-963.44 1096.62,-962.05 1101.02,-960.61"/>
<polygon fill="#d9d9d9" stroke="#d9d9d9" points="1102.12,-963.94 1110.5,-957.45 1099.91,-957.3 1102.12,-963.94"/>
</g>
<!-- brittle_hollow_quantum_tower -->
<g id="node61" class="node">
<title>brittle_hollow_quantum_tower</title>
<path fill="none" stroke="#d9d9d9" d="M628.5,-956.5C628.5,-956.5 429.5,-956.5 429.5,-956.5 423.5,-956.5 417.5,-950.5 417.5,-944.5 417.5,-944.5 417.5,-927.5 417.5,-927.5 417.5,-921.5 423.5,-915.5 429.5,-915.5 429.5,-915.5 628.5,-915.5 628.5,-915.5 634.5,-915.5 640.5,-921.5 640.5,-927.5 640.5,-927.5 640.5,-944.5 640.5,-944.5 640.5,-950.5 634.5,-956.5 628.5,-956.5"/>
<text text-anchor="middle" x="529" y="-939.2" font-family="Helvetica,sans-Serif" font-size="14.00" fill="#e5e5e5">Learn how to reach the top of the</text>
<text text-anchor="middle" x="529" y="-922.7" font-family="Helvetica,sans-Serif" font-size="14.00" fill="#e5e5e5">Tower of Quantum Knowledge</text>
</g>
<!-- white_hole_found&#45;&gt;brittle_hollow_quantum_tower -->
<g id="edge66" class="edge">
<title>white_hole_found&#45;&gt;brittle_hollow_quantum_tower</title>
<path fill="none" stroke="#d9d9d9" d="M742.75,-1027.53C700.29,-1009.55 633.81,-981.39 586.26,-961.25"/>
<polygon fill="#d9d9d9" stroke="#d9d9d9" points="587.79,-958.1 577.21,-957.42 585.06,-964.54 587.79,-958.1"/>
</g>
<!-- middle_giants_deep -->
<g id="node28" class="node">
<title>middle_giants_deep</title>
<path fill="none" stroke="#d9d9d9" d="M865.38,-846.5C865.38,-846.5 728.62,-846.5 728.62,-846.5 722.62,-846.5 716.62,-840.5 716.62,-834.5 716.62,-834.5 716.62,-817.5 716.62,-817.5 716.62,-811.5 722.62,-805.5 728.62,-805.5 728.62,-805.5 865.38,-805.5 865.38,-805.5 871.38,-805.5 877.38,-811.5 877.38,-817.5 877.38,-817.5 877.38,-834.5 877.38,-834.5 877.38,-840.5 871.38,-846.5 865.38,-846.5"/>
<text text-anchor="middle" x="797" y="-829.2" font-family="Helvetica,sans-Serif" font-size="14.00" fill="#e5e5e5">Go beneath the current</text>
<text text-anchor="middle" x="797" y="-812.7" font-family="Helvetica,sans-Serif" font-size="14.00" fill="#e5e5e5">layer on Giant&#39;s Deep</text>
</g>
<!-- orbital_probe_cannon_explored&#45;&gt;middle_giants_deep -->
<g id="edge1" class="edge">
<title>orbital_probe_cannon_explored&#45;&gt;middle_giants_deep</title>
<path fill="none" stroke="#d9d9d9" stroke-dasharray="1,5" d="M960.1,-1126.19C932.03,-1094.26 877.42,-1028.53 844,-964.75 825.75,-929.93 812.33,-886.56 804.6,-857.89"/>
<polygon fill="#d9d9d9" stroke="#d9d9d9" points="808.04,-857.19 802.12,-848.4 801.26,-858.96 808.04,-857.19"/>
</g>
<!-- hanging_city -->
<g id="node26" class="node">
<title>hanging_city</title>
<path fill="none" stroke="#d9d9d9" d="M1417.62,-743C1417.62,-743 1270.38,-743 1270.38,-743 1264.38,-743 1258.38,-737 1258.38,-731 1258.38,-731 1258.38,-719 1258.38,-719 1258.38,-713 1264.38,-707 1270.38,-707 1270.38,-707 1417.62,-707 1417.62,-707 1423.62,-707 1429.62,-713 1429.62,-719 1429.62,-719 1429.62,-731 1429.62,-731 1429.62,-737 1423.62,-743 1417.62,-743"/>
<text text-anchor="middle" x="1344" y="-719.95" font-family="Helvetica,sans-Serif" font-size="14.00" fill="#e5e5e5">Explore the Hanging City</text>
</g>
<!-- brittle_hollow_underground&#45;&gt;hanging_city -->
<g id="edge36" class="edge">
<title>brittle_hollow_underground&#45;&gt;hanging_city</title>
<path fill="none" stroke="#d9d9d9" d="M1179.76,-1025.12C1200.88,-1010.56 1227.95,-989.14 1246,-964.75 1295.75,-897.51 1325.06,-801.38 1337.28,-754.25"/>
<polygon fill="#d9d9d9" stroke="#d9d9d9" points="1340.6,-755.39 1339.65,-744.84 1333.81,-753.68 1340.6,-755.39"/>
</g>
<!-- southern_observatory -->
<g id="node27" class="node">
<title>southern_observatory</title>
<path fill="none" stroke="#d9d9d9" d="M1063.25,-964.75C1063.25,-964.75 868.75,-964.75 868.75,-964.75 862.75,-964.75 856.75,-958.75 856.75,-952.75 856.75,-952.75 856.75,-919.25 856.75,-919.25 856.75,-913.25 862.75,-907.25 868.75,-907.25 868.75,-907.25 1063.25,-907.25 1063.25,-907.25 1069.25,-907.25 1075.25,-913.25 1075.25,-919.25 1075.25,-919.25 1075.25,-952.75 1075.25,-952.75 1075.25,-958.75 1069.25,-964.75 1063.25,-964.75"/>
<text text-anchor="middle" x="966" y="-947.45" font-family="Helvetica,sans-Serif" font-size="14.00" fill="#e5e5e5">Enter the Southern Observatory,</text>
<text text-anchor="middle" x="966" y="-930.95" font-family="Helvetica,sans-Serif" font-size="14.00" fill="#e5e5e5"> and learn the trick to the</text>
<text text-anchor="middle" x="966" y="-914.45" font-family="Helvetica,sans-Serif" font-size="14.00" fill="#e5e5e5">Giant&#39;s Deep cyclones</text>
</g>
<!-- brittle_hollow_underground&#45;&gt;southern_observatory -->
<g id="edge37" class="edge">
<title>brittle_hollow_underground&#45;&gt;southern_observatory</title>
<path fill="none" stroke="#d9d9d9" d="M1114.62,-1025.19C1089.06,-1010.03 1053.2,-988.75 1023.11,-970.89"/>
<polygon fill="#d9d9d9" stroke="#d9d9d9" points="1025.25,-968.09 1014.87,-966 1021.68,-974.11 1025.25,-968.09"/>
</g>
<!-- brittle_hollow_underground&#45;&gt;brittle_hollow_quantum_tower -->
<g id="edge67" class="edge">
<title>brittle_hollow_underground&#45;&gt;brittle_hollow_quantum_tower</title>
<path fill="none" stroke="#d9d9d9" stroke-dasharray="1,5" d="M1069.92,-1031.38C964.7,-1013.02 776.29,-980.15 651.95,-958.45"/>
<polygon fill="#d9d9d9" stroke="#d9d9d9" points="652.81,-955.05 642.36,-956.78 651.61,-961.95 652.81,-955.05"/>
</g>
<!-- black_hole_forge -->
<g id="node43" class="node">
<title>black_hole_forge</title>
<g id="a_node43"><a xlink:title="Can be skipped if you go full goblin&#45;mode and park your ship on the ceiling">
<path fill="none" stroke="#d9d9d9" d="M1356.38,-644.5C1356.38,-644.5 1249.62,-644.5 1249.62,-644.5 1243.62,-644.5 1237.62,-638.5 1237.62,-632.5 1237.62,-632.5 1237.62,-615.5 1237.62,-615.5 1237.62,-609.5 1243.62,-603.5 1249.62,-603.5 1249.62,-603.5 1356.38,-603.5 1356.38,-603.5 1362.38,-603.5 1368.38,-609.5 1368.38,-615.5 1368.38,-615.5 1368.38,-632.5 1368.38,-632.5 1368.38,-638.5 1362.38,-644.5 1356.38,-644.5"/>
<text text-anchor="middle" x="1303" y="-627.2" font-family="Helvetica,sans-Serif" font-size="14.00" fill="#e5e5e5">Teleport to the</text>
<text text-anchor="middle" x="1303" y="-610.7" font-family="Helvetica,sans-Serif" font-size="14.00" fill="#e5e5e5">Black Hole Forge*</text>
</a>
</g>
</g>
<!-- hanging_city&#45;&gt;black_hole_forge -->
<g id="edge2" class="edge">
<title>hanging_city&#45;&gt;black_hole_forge</title>
<path fill="none" stroke="#d9d9d9" stroke-dasharray="1,5" d="M1336.86,-706.76C1330.99,-692.58 1322.52,-672.14 1315.53,-655.25"/>
<polygon fill="#d9d9d9" stroke="#d9d9d9" points="1318.83,-654.06 1311.77,-646.16 1312.36,-656.74 1318.83,-654.06"/>
</g>
<!-- southern_observatory&#45;&gt;middle_giants_deep -->
<g id="edge42" class="edge">
<title>southern_observatory&#45;&gt;middle_giants_deep</title>
<path fill="none" stroke="#d9d9d9" d="M922.04,-906.91C895.94,-890.22 863.07,-869.22 837.58,-852.93"/>
<polygon fill="#d9d9d9" stroke="#d9d9d9" points="839.79,-850.19 829.48,-847.76 836.02,-856.09 839.79,-850.19"/>
</g>
<!-- inner_giants_deep -->
<g id="node30" class="node">
<title>inner_giants_deep</title>
<path fill="none" stroke="#d9d9d9" d="M1048.5,-745.5C1048.5,-745.5 909.5,-745.5 909.5,-745.5 903.5,-745.5 897.5,-739.5 897.5,-733.5 897.5,-733.5 897.5,-716.5 897.5,-716.5 897.5,-710.5 903.5,-704.5 909.5,-704.5 909.5,-704.5 1048.5,-704.5 1048.5,-704.5 1054.5,-704.5 1060.5,-710.5 1060.5,-716.5 1060.5,-716.5 1060.5,-733.5 1060.5,-733.5 1060.5,-739.5 1054.5,-745.5 1048.5,-745.5"/>
<text text-anchor="middle" x="979" y="-728.2" font-family="Helvetica,sans-Serif" font-size="14.00" fill="#e5e5e5">Go beneath the electric</text>
<text text-anchor="middle" x="979" y="-711.7" font-family="Helvetica,sans-Serif" font-size="14.00" fill="#e5e5e5">layer on Giant&#39;s Deep</text>
</g>
<!-- middle_giants_deep&#45;&gt;inner_giants_deep -->
<g id="edge43" class="edge">
<title>middle_giants_deep&#45;&gt;inner_giants_deep</title>
<path fill="none" stroke="#d9d9d9" d="M833.39,-805.2C861.82,-789.74 901.53,-768.14 932.3,-751.41"/>
<polygon fill="#d9d9d9" stroke="#d9d9d9" points="933.92,-754.51 941.03,-746.65 930.57,-748.36 933.92,-754.51"/>
</g>
<!-- jellyfish_trick_learned&#45;&gt;inner_giants_deep -->
<g id="edge45" class="edge">
<title>jellyfish_trick_learned&#45;&gt;inner_giants_deep</title>
<path fill="none" stroke="#d9d9d9" d="M979,-805.44C979,-791.7 979,-773.03 979,-757.24"/>
<polygon fill="#d9d9d9" stroke="#d9d9d9" points="982.5,-757.37 979,-747.37 975.5,-757.37 982.5,-757.37"/>
</g>
<!-- eye_coordinates_known -->
<g id="node31" class="node">
<title>eye_coordinates_known</title>
<path fill="#280060" stroke="#d9d9d9" d="M1159.75,-644.5C1159.75,-644.5 1004.25,-644.5 1004.25,-644.5 998.25,-644.5 992.25,-638.5 992.25,-632.5 992.25,-632.5 992.25,-615.5 992.25,-615.5 992.25,-609.5 998.25,-603.5 1004.25,-603.5 1004.25,-603.5 1159.75,-603.5 1159.75,-603.5 1165.75,-603.5 1171.75,-609.5 1171.75,-615.5 1171.75,-615.5 1171.75,-632.5 1171.75,-632.5 1171.75,-638.5 1165.75,-644.5 1159.75,-644.5"/>
<text text-anchor="middle" x="1082" y="-627.2" font-family="Helvetica,sans-Serif" font-size="14.00" fill="#e5e5e5">Learn the coordinates</text>
<text text-anchor="middle" x="1082" y="-610.7" font-family="Helvetica,sans-Serif" font-size="14.00" fill="#e5e5e5">of the Eye of the Universe</text>
</g>
<!-- inner_giants_deep&#45;&gt;eye_coordinates_known -->
<g id="edge46" class="edge">
<title>inner_giants_deep&#45;&gt;eye_coordinates_known</title>
<path fill="none" stroke="#d9d9d9" d="M999.35,-704.44C1014.77,-689.62 1036.15,-669.07 1053.3,-652.58"/>
<polygon fill="#d9d9d9" stroke="#d9d9d9" points="1055.46,-655.36 1060.25,-645.91 1050.61,-650.31 1055.46,-655.36"/>
</g>
<!-- eye_coordinates_known&#45;&gt;ending_good -->
<g id="edge85" class="edge">
<title>eye_coordinates_known&#45;&gt;ending_good</title>
<path fill="none" stroke="#d9d9d9" d="M1063.22,-603.08C1049.75,-587.69 1032.22,-565.23 1022,-542.5 999.57,-492.61 997,-476.7 997,-422 997,-422 997,-422 997,-322 997,-282.61 1241.8,-187.96 1357.62,-145.38"/>
<polygon fill="#d9d9d9" stroke="#d9d9d9" points="1358.8,-148.68 1366.99,-141.95 1356.4,-142.1 1358.8,-148.68"/>
</g>
<!-- vessel_found -->
<g id="node34" class="node">
<title>vessel_found</title>
<path fill="#280060" stroke="#d9d9d9" d="M1722.5,-844C1722.5,-844 1631.5,-844 1631.5,-844 1625.5,-844 1619.5,-838 1619.5,-832 1619.5,-832 1619.5,-820 1619.5,-820 1619.5,-814 1625.5,-808 1631.5,-808 1631.5,-808 1722.5,-808 1722.5,-808 1728.5,-808 1734.5,-814 1734.5,-820 1734.5,-820 1734.5,-832 1734.5,-832 1734.5,-838 1728.5,-844 1722.5,-844"/>
<text text-anchor="middle" x="1677" y="-820.95" font-family="Helvetica,sans-Serif" font-size="14.00" fill="#e5e5e5">Find the Vessel</text>
</g>
<!-- dark_bramble_escape_pod_found&#45;&gt;vessel_found -->
<g id="edge47" class="edge">
<title>dark_bramble_escape_pod_found&#45;&gt;vessel_found</title>
<path fill="none" stroke="#d9d9d9" d="M1677,-915.19C1677,-898.51 1677,-874.42 1677,-855.64"/>
<polygon fill="#d9d9d9" stroke="#d9d9d9" points="1680.5,-855.7 1677,-845.7 1673.5,-855.7 1680.5,-855.7"/>
</g>
<!-- dark_bramble_scout_trick_learned&#45;&gt;feldspar_found -->
<g id="edge14" class="edge">
<title>dark_bramble_scout_trick_learned&#45;&gt;feldspar_found</title>
<path fill="none" stroke="#d9d9d9" stroke-dasharray="5,2" d="M1448.39,-956.68C1424.66,-974.23 1386.44,-1000.02 1355.9,-1019.21"/>
<polygon fill="#d9d9d9" stroke="#d9d9d9" points="1354.21,-1016.14 1347.56,-1024.39 1357.9,-1022.09 1354.21,-1016.14"/>
</g>
<!-- dark_bramble_scout_trick_learned&#45;&gt;vessel_found -->
<g id="edge48" class="edge">
<title>dark_bramble_scout_trick_learned&#45;&gt;vessel_found</title>
<path fill="none" stroke="#d9d9d9" d="M1507.97,-915.19C1543.49,-896.66 1596.52,-868.99 1633.68,-849.6"/>
<polygon fill="#d9d9d9" stroke="#d9d9d9" points="1635.13,-852.79 1642.37,-845.07 1631.89,-846.59 1635.13,-852.79"/>
</g>
<!-- vessel_found&#45;&gt;ending_good -->
<g id="edge86" class="edge">
<title>vessel_found&#45;&gt;ending_good</title>
<path fill="none" stroke="#d9d9d9" d="M1683.12,-807.65C1704.39,-743.94 1768.06,-520.45 1661,-400.5 1598.11,-330.04 1520.31,-411.08 1457,-341 1409.48,-288.4 1409.76,-198.47 1413.56,-152.65"/>
<polygon fill="#d9d9d9" stroke="#d9d9d9" points="1417.04,-153.02 1414.52,-142.73 1410.08,-152.35 1417.04,-153.02"/>
</g>
<!-- sunken_city&#45;&gt;anglerfish_trick -->
<g id="edge39" class="edge">
<title>sunken_city&#45;&gt;anglerfish_trick</title>
<path fill="none" stroke="#d9d9d9" d="M1853,-1027.65C1853,-1011.65 1853,-987.52 1853,-968.18"/>
<polygon fill="#d9d9d9" stroke="#d9d9d9" points="1856.5,-968.39 1853,-958.39 1849.5,-968.39 1856.5,-968.39"/>
</g>
<!-- high_energy_lab -->
<g id="node37" class="node">
<title>high_energy_lab</title>
<path fill="none" stroke="#d9d9d9" d="M2064.5,-956.5C2064.5,-956.5 1967.5,-956.5 1967.5,-956.5 1961.5,-956.5 1955.5,-950.5 1955.5,-944.5 1955.5,-944.5 1955.5,-927.5 1955.5,-927.5 1955.5,-921.5 1961.5,-915.5 1967.5,-915.5 1967.5,-915.5 2064.5,-915.5 2064.5,-915.5 2070.5,-915.5 2076.5,-921.5 2076.5,-927.5 2076.5,-927.5 2076.5,-944.5 2076.5,-944.5 2076.5,-950.5 2070.5,-956.5 2064.5,-956.5"/>
<text text-anchor="middle" x="2016" y="-939.2" font-family="Helvetica,sans-Serif" font-size="14.00" fill="#e5e5e5">Enter the</text>
<text text-anchor="middle" x="2016" y="-922.7" font-family="Helvetica,sans-Serif" font-size="14.00" fill="#e5e5e5">High Energy Lab</text>
</g>
<!-- sunken_city&#45;&gt;high_energy_lab -->
<g id="edge40" class="edge">
<title>sunken_city&#45;&gt;high_energy_lab</title>
<path fill="none" stroke="#d9d9d9" d="M1879.19,-1027.65C1905.5,-1010.22 1946.37,-983.13 1976.6,-963.11"/>
<polygon fill="#d9d9d9" stroke="#d9d9d9" points="1978.34,-966.15 1984.74,-957.71 1974.47,-960.32 1978.34,-966.15"/>
</g>
<!-- anglerfish_trick&#45;&gt;vessel_found -->
<g id="edge49" class="edge">
<title>anglerfish_trick&#45;&gt;vessel_found</title>
<path fill="none" stroke="#d9d9d9" d="M1820.72,-915.19C1790.9,-896.89 1746.58,-869.7 1715.05,-850.35"/>
<polygon fill="#d9d9d9" stroke="#d9d9d9" points="1716.94,-847.4 1706.59,-845.16 1713.28,-853.37 1716.94,-847.4"/>
</g>
<!-- intentionally_break_time -->
<g id="node38" class="node">
<title>intentionally_break_time</title>
<path fill="none" stroke="#d9d9d9" d="M2150.62,-846.5C2150.62,-846.5 1979.38,-846.5 1979.38,-846.5 1973.38,-846.5 1967.38,-840.5 1967.38,-834.5 1967.38,-834.5 1967.38,-817.5 1967.38,-817.5 1967.38,-811.5 1973.38,-805.5 1979.38,-805.5 1979.38,-805.5 2150.62,-805.5 2150.62,-805.5 2156.62,-805.5 2162.62,-811.5 2162.62,-817.5 2162.62,-817.5 2162.62,-834.5 2162.62,-834.5 2162.62,-840.5 2156.62,-846.5 2150.62,-846.5"/>
<text text-anchor="middle" x="2065" y="-829.2" font-family="Helvetica,sans-Serif" font-size="14.00" fill="#e5e5e5">Intentionally fuck around with</text>
<text text-anchor="middle" x="2065" y="-812.7" font-family="Helvetica,sans-Serif" font-size="14.00" fill="#e5e5e5">time. What could go wrong?</text>
</g>
<!-- high_energy_lab&#45;&gt;intentionally_break_time -->
<g id="edge41" class="edge">
<title>high_energy_lab&#45;&gt;intentionally_break_time</title>
<path fill="none" stroke="#d9d9d9" d="M2024.99,-915.19C2032.38,-898.9 2042.97,-875.56 2051.4,-856.98"/>
<polygon fill="#d9d9d9" stroke="#d9d9d9" points="2054.5,-858.61 2055.44,-848.06 2048.13,-855.72 2054.5,-858.61"/>
</g>
<!-- ash_twin_towers_are_teleporters -->
<g id="node39" class="node">
<title>ash_twin_towers_are_teleporters</title>
<path fill="none" stroke="#d9d9d9" d="M1930.62,-846.5C1930.62,-846.5 1771.38,-846.5 1771.38,-846.5 1765.38,-846.5 1759.38,-840.5 1759.38,-834.5 1759.38,-834.5 1759.38,-817.5 1759.38,-817.5 1759.38,-811.5 1765.38,-805.5 1771.38,-805.5 1771.38,-805.5 1930.62,-805.5 1930.62,-805.5 1936.62,-805.5 1942.62,-811.5 1942.62,-817.5 1942.62,-817.5 1942.62,-834.5 1942.62,-834.5 1942.62,-840.5 1936.62,-846.5 1930.62,-846.5"/>
<text text-anchor="middle" x="1851" y="-829.2" font-family="Helvetica,sans-Serif" font-size="14.00" fill="#e5e5e5">Discover that the Ash Twin</text>
<text text-anchor="middle" x="1851" y="-812.7" font-family="Helvetica,sans-Serif" font-size="14.00" fill="#e5e5e5">towers are teleporters</text>
</g>
<!-- high_energy_lab&#45;&gt;ash_twin_towers_are_teleporters -->
<g id="edge53" class="edge">
<title>high_energy_lab&#45;&gt;ash_twin_towers_are_teleporters</title>
<path fill="none" stroke="#d9d9d9" d="M1985.74,-915.19C1959.07,-897.74 1920.04,-872.19 1890.84,-853.08"/>
<polygon fill="#d9d9d9" stroke="#d9d9d9" points="1892.9,-850.24 1882.62,-847.69 1889.07,-856.1 1892.9,-850.24"/>
</g>
<!-- intentionally_break_time&#45;&gt;ending_broke_time -->
<g id="edge11" class="edge">
<title>intentionally_break_time&#45;&gt;ending_broke_time</title>
<path fill="none" stroke="#d9d9d9" stroke-dasharray="5,2" d="M2065,-805.13C2065,-769.19 2065,-690.97 2065,-625 2065,-625 2065,-625 2065,-223 2065,-168.21 2061.61,-152.4 2039,-102.5 2030.13,-82.92 2015.85,-63.5 2003.56,-48.76"/>
<polygon fill="#d9d9d9" stroke="#d9d9d9" points="2006.38,-46.68 1997.21,-41.37 2001.07,-51.24 2006.38,-46.68"/>
</g>
<!-- teleporter_partial_knowledge -->
<g id="node42" class="node">
<title>teleporter_partial_knowledge</title>
<path fill="none" stroke="#d9d9d9" d="M1221,-745.5C1221,-745.5 1103,-745.5 1103,-745.5 1097,-745.5 1091,-739.5 1091,-733.5 1091,-733.5 1091,-716.5 1091,-716.5 1091,-710.5 1097,-704.5 1103,-704.5 1103,-704.5 1221,-704.5 1221,-704.5 1227,-704.5 1233,-710.5 1233,-716.5 1233,-716.5 1233,-733.5 1233,-733.5 1233,-739.5 1227,-745.5 1221,-745.5"/>
<text text-anchor="middle" x="1162" y="-728.2" font-family="Helvetica,sans-Serif" font-size="14.00" fill="#e5e5e5">Figure out how to</text>
<text text-anchor="middle" x="1162" y="-711.7" font-family="Helvetica,sans-Serif" font-size="14.00" fill="#e5e5e5">use the warp towers</text>
</g>
<!-- ash_twin_towers_are_teleporters&#45;&gt;teleporter_partial_knowledge -->
<g id="edge54" class="edge">
<title>ash_twin_towers_are_teleporters&#45;&gt;teleporter_partial_knowledge</title>
<path fill="none" stroke="#d9d9d9" d="M1758.9,-807.4C1754.89,-806.74 1750.9,-806.1 1747,-805.5 1525.34,-771.48 1466.89,-784.25 1246,-745.5 1245.48,-745.41 1244.97,-745.32 1244.45,-745.22"/>
<polygon fill="#d9d9d9" stroke="#d9d9d9" points="1245.34,-741.83 1234.87,-743.41 1244.04,-748.71 1245.34,-741.83"/>
</g>
<!-- ash_twin_teleporter_identified -->
<g id="node44" class="node">
<title>ash_twin_teleporter_identified</title>
<path fill="none" stroke="#d9d9d9" d="M1652.5,-542.5C1652.5,-542.5 1489.5,-542.5 1489.5,-542.5 1483.5,-542.5 1477.5,-536.5 1477.5,-530.5 1477.5,-530.5 1477.5,-513.5 1477.5,-513.5 1477.5,-507.5 1483.5,-501.5 1489.5,-501.5 1489.5,-501.5 1652.5,-501.5 1652.5,-501.5 1658.5,-501.5 1664.5,-507.5 1664.5,-513.5 1664.5,-513.5 1664.5,-530.5 1664.5,-530.5 1664.5,-536.5 1658.5,-542.5 1652.5,-542.5"/>
<text text-anchor="middle" x="1571" y="-525.2" font-family="Helvetica,sans-Serif" font-size="14.00" fill="#e5e5e5">Figure out which warp</text>
<text text-anchor="middle" x="1571" y="-508.7" font-family="Helvetica,sans-Serif" font-size="14.00" fill="#e5e5e5">tower goes to the Ash Twin</text>
</g>
<!-- ash_twin_towers_are_teleporters&#45;&gt;ash_twin_teleporter_identified -->
<g id="edge58" class="edge">
<title>ash_twin_towers_are_teleporters&#45;&gt;ash_twin_teleporter_identified</title>
<path fill="none" stroke="#d9d9d9" d="M1832.63,-805.18C1784.27,-753.03 1653.33,-611.8 1597.17,-551.22"/>
<polygon fill="#d9d9d9" stroke="#d9d9d9" points="1599.83,-548.95 1590.47,-544 1594.7,-553.71 1599.83,-548.95"/>
</g>
<!-- teleporter_angle_learned -->
<g id="node41" class="node">
<title>teleporter_angle_learned</title>
<path fill="none" stroke="#d9d9d9" d="M1241.75,-846.5C1241.75,-846.5 1092.25,-846.5 1092.25,-846.5 1086.25,-846.5 1080.25,-840.5 1080.25,-834.5 1080.25,-834.5 1080.25,-817.5 1080.25,-817.5 1080.25,-811.5 1086.25,-805.5 1092.25,-805.5 1092.25,-805.5 1241.75,-805.5 1241.75,-805.5 1247.75,-805.5 1253.75,-811.5 1253.75,-817.5 1253.75,-817.5 1253.75,-834.5 1253.75,-834.5 1253.75,-840.5 1247.75,-846.5 1241.75,-846.5"/>
<text text-anchor="middle" x="1167" y="-829.2" font-family="Helvetica,sans-Serif" font-size="14.00" fill="#e5e5e5">Learn that the teleporters</text>
<text text-anchor="middle" x="1167" y="-812.7" font-family="Helvetica,sans-Serif" font-size="14.00" fill="#e5e5e5">trigger only when aligned</text>
</g>
<!-- white_hole_station_explored&#45;&gt;teleporter_angle_learned -->
<g id="edge51" class="edge">
<title>white_hole_station_explored&#45;&gt;teleporter_angle_learned</title>
<path fill="none" stroke="#d9d9d9" d="M1167,-915.19C1167,-899.21 1167,-876.43 1167,-858.03"/>
<polygon fill="#d9d9d9" stroke="#d9d9d9" points="1170.5,-858.2 1167,-848.2 1163.5,-858.2 1170.5,-858.2"/>
</g>
<!-- teleporter_angle_learned&#45;&gt;teleporter_partial_knowledge -->
<g id="edge55" class="edge">
<title>teleporter_angle_learned&#45;&gt;teleporter_partial_knowledge</title>
<path fill="none" stroke="#d9d9d9" d="M1166.01,-805.44C1165.32,-791.7 1164.38,-773.03 1163.58,-757.24"/>
<polygon fill="#d9d9d9" stroke="#d9d9d9" points="1167.08,-757.18 1163.08,-747.37 1160.09,-757.53 1167.08,-757.18"/>
</g>
<!-- teleporter_partial_knowledge&#45;&gt;sun_station_teleporter -->
<g id="edge64" class="edge">
<title>teleporter_partial_knowledge&#45;&gt;sun_station_teleporter</title>
<path fill="none" stroke="#737373" d="M1106.28,-704.08C1061.57,-688.11 998.7,-665.64 951.39,-648.73"/>
<polygon fill="#737373" stroke="#737373" points="952.65,-645.46 942.06,-645.39 950.3,-652.05 952.65,-645.46"/>
</g>
<!-- teleporter_partial_knowledge&#45;&gt;black_hole_forge -->
<g id="edge56" class="edge">
<title>teleporter_partial_knowledge&#45;&gt;black_hole_forge</title>
<path fill="none" stroke="#d9d9d9" d="M1190.19,-704.2C1211.81,-689.03 1241.84,-667.94 1265.48,-651.34"/>
<polygon fill="#d9d9d9" stroke="#d9d9d9" points="1267.44,-654.24 1273.62,-645.63 1263.42,-648.51 1267.44,-654.24"/>
</g>
<!-- teleporter_twin_trick_learned -->
<g id="node45" class="node">
<title>teleporter_twin_trick_learned</title>
<path fill="none" stroke="#d9d9d9" d="M1440,-542.5C1440,-542.5 1286,-542.5 1286,-542.5 1280,-542.5 1274,-536.5 1274,-530.5 1274,-530.5 1274,-513.5 1274,-513.5 1274,-507.5 1280,-501.5 1286,-501.5 1286,-501.5 1440,-501.5 1440,-501.5 1446,-501.5 1452,-507.5 1452,-513.5 1452,-513.5 1452,-530.5 1452,-530.5 1452,-536.5 1446,-542.5 1440,-542.5"/>
<text text-anchor="middle" x="1363" y="-525.2" font-family="Helvetica,sans-Serif" font-size="14.00" fill="#e5e5e5">Learn the alignment trick</text>
<text text-anchor="middle" x="1363" y="-508.7" font-family="Helvetica,sans-Serif" font-size="14.00" fill="#e5e5e5">to teleporting to the Twins</text>
</g>
<!-- black_hole_forge&#45;&gt;teleporter_twin_trick_learned -->
<g id="edge52" class="edge">
<title>black_hole_forge&#45;&gt;teleporter_twin_trick_learned</title>
<path fill="none" stroke="#d9d9d9" d="M1314.85,-603.24C1323.56,-588.73 1335.55,-568.76 1345.38,-552.37"/>
<polygon fill="#d9d9d9" stroke="#d9d9d9" points="1348.25,-554.39 1350.39,-544.01 1342.25,-550.79 1348.25,-554.39"/>
</g>
<!-- teleporter_timing_trick_learned -->
<g id="node46" class="node">
<title>teleporter_timing_trick_learned</title>
<path fill="none" stroke="#d9d9d9" d="M1237.38,-542.5C1237.38,-542.5 1046.62,-542.5 1046.62,-542.5 1040.62,-542.5 1034.62,-536.5 1034.62,-530.5 1034.62,-530.5 1034.62,-513.5 1034.62,-513.5 1034.62,-507.5 1040.62,-501.5 1046.62,-501.5 1046.62,-501.5 1237.38,-501.5 1237.38,-501.5 1243.38,-501.5 1249.38,-507.5 1249.38,-513.5 1249.38,-513.5 1249.38,-530.5 1249.38,-530.5 1249.38,-536.5 1243.38,-542.5 1237.38,-542.5"/>
<text text-anchor="middle" x="1142" y="-525.2" font-family="Helvetica,sans-Serif" font-size="14.00" fill="#e5e5e5">Learn that the warp towers have</text>
<text text-anchor="middle" x="1142" y="-508.7" font-family="Helvetica,sans-Serif" font-size="14.00" fill="#e5e5e5">a small tolerance timing&#45;wise</text>
</g>
<!-- black_hole_forge&#45;&gt;teleporter_timing_trick_learned -->
<g id="edge57" class="edge">
<title>black_hole_forge&#45;&gt;teleporter_timing_trick_learned</title>
<path fill="none" stroke="#d9d9d9" d="M1270.81,-603C1245.8,-587.47 1210.92,-565.81 1183.76,-548.94"/>
<polygon fill="#d9d9d9" stroke="#d9d9d9" points="1185.77,-546.06 1175.42,-543.76 1182.07,-552.01 1185.77,-546.06"/>
</g>
<!-- teleporter_complete_knowledge -->
<g id="node47" class="node">
<title>teleporter_complete_knowledge</title>
<path fill="none" stroke="#d9d9d9" d="M1636.25,-441.5C1636.25,-441.5 1483.75,-441.5 1483.75,-441.5 1477.75,-441.5 1471.75,-435.5 1471.75,-429.5 1471.75,-429.5 1471.75,-412.5 1471.75,-412.5 1471.75,-406.5 1477.75,-400.5 1483.75,-400.5 1483.75,-400.5 1636.25,-400.5 1636.25,-400.5 1642.25,-400.5 1648.25,-406.5 1648.25,-412.5 1648.25,-412.5 1648.25,-429.5 1648.25,-429.5 1648.25,-435.5 1642.25,-441.5 1636.25,-441.5"/>
<text text-anchor="middle" x="1560" y="-424.2" font-family="Helvetica,sans-Serif" font-size="14.00" fill="#e5e5e5">Figure out how to teleport</text>
<text text-anchor="middle" x="1560" y="-407.7" font-family="Helvetica,sans-Serif" font-size="14.00" fill="#e5e5e5">to the Ash Twin Interior</text>
</g>
<!-- ash_twin_teleporter_identified&#45;&gt;teleporter_complete_knowledge -->
<g id="edge59" class="edge">
<title>ash_twin_teleporter_identified&#45;&gt;teleporter_complete_knowledge</title>
<path fill="none" stroke="#d9d9d9" d="M1568.83,-501.44C1567.3,-487.7 1565.23,-469.03 1563.47,-453.24"/>
<polygon fill="#d9d9d9" stroke="#d9d9d9" points="1566.96,-452.91 1562.37,-443.36 1560,-453.69 1566.96,-452.91"/>
</g>
<!-- teleporter_twin_trick_learned&#45;&gt;teleporter_complete_knowledge -->
<g id="edge60" class="edge">
<title>teleporter_twin_trick_learned&#45;&gt;teleporter_complete_knowledge</title>
<path fill="none" stroke="#d9d9d9" d="M1402.39,-501.2C1433.43,-485.61 1476.89,-463.77 1510.31,-446.97"/>
<polygon fill="#d9d9d9" stroke="#d9d9d9" points="1511.62,-450.23 1518.99,-442.61 1508.48,-443.97 1511.62,-450.23"/>
</g>
<!-- teleporter_timing_trick_learned&#45;&gt;teleporter_complete_knowledge -->
<g id="edge61" class="edge">
<title>teleporter_timing_trick_learned&#45;&gt;teleporter_complete_knowledge</title>
<path fill="none" stroke="#d9d9d9" d="M1226.34,-501.03C1295.41,-484.67 1393.11,-461.53 1464.94,-444.51"/>
<polygon fill="#d9d9d9" stroke="#d9d9d9" points="1465.4,-448 1474.32,-442.29 1463.78,-441.19 1465.4,-448"/>
</g>
<!-- ash_twin_interior -->
<g id="node48" class="node">
<title>ash_twin_interior</title>
<path fill="#280060" stroke="#d9d9d9" d="M1638.5,-341C1638.5,-341 1481.5,-341 1481.5,-341 1475.5,-341 1469.5,-335 1469.5,-329 1469.5,-329 1469.5,-317 1469.5,-317 1469.5,-311 1475.5,-305 1481.5,-305 1481.5,-305 1638.5,-305 1638.5,-305 1644.5,-305 1650.5,-311 1650.5,-317 1650.5,-317 1650.5,-329 1650.5,-329 1650.5,-335 1644.5,-341 1638.5,-341"/>
<text text-anchor="middle" x="1560" y="-317.95" font-family="Helvetica,sans-Serif" font-size="14.00" fill="#e5e5e5">Enter the Ash Twin interior</text>
</g>
<!-- teleporter_complete_knowledge&#45;&gt;ash_twin_interior -->
<g id="edge62" class="edge">
<title>teleporter_complete_knowledge&#45;&gt;ash_twin_interior</title>
<path fill="none" stroke="#d9d9d9" d="M1560,-400.11C1560,-386.41 1560,-368.01 1560,-352.73"/>
<polygon fill="#d9d9d9" stroke="#d9d9d9" points="1563.5,-352.8 1560,-342.8 1556.5,-352.8 1563.5,-352.8"/>
</g>
<!-- warp_core_obtained -->
<g id="node49" class="node">
<title>warp_core_obtained</title>
<path fill="none" stroke="#d9d9d9" d="M1653.12,-242C1653.12,-242 1466.88,-242 1466.88,-242 1460.88,-242 1454.88,-236 1454.88,-230 1454.88,-230 1454.88,-218 1454.88,-218 1454.88,-212 1460.88,-206 1466.88,-206 1466.88,-206 1653.12,-206 1653.12,-206 1659.12,-206 1665.12,-212 1665.12,-218 1665.12,-218 1665.12,-230 1665.12,-230 1665.12,-236 1659.12,-242 1653.12,-242"/>
<text text-anchor="middle" x="1560" y="-218.95" font-family="Helvetica,sans-Serif" font-size="14.00" fill="#e5e5e5">Take the operational warp core</text>
</g>
<!-- ash_twin_interior&#45;&gt;warp_core_obtained -->
<g id="edge63" class="edge">
<title>ash_twin_interior&#45;&gt;warp_core_obtained</title>
<path fill="none" stroke="#d9d9d9" d="M1560,-304.66C1560,-290.45 1560,-270.06 1560,-253.46"/>
<polygon fill="#d9d9d9" stroke="#d9d9d9" points="1563.5,-253.71 1560,-243.71 1556.5,-253.71 1563.5,-253.71"/>
</g>
<!-- enter_ash_twin_time_singularity -->
<g id="node50" class="node">
<title>enter_ash_twin_time_singularity</title>
<g id="a_node50"><a xlink:title="Alternatively use your scout">
<path fill="none" stroke="#d9d9d9" d="M1888.12,-244.5C1888.12,-244.5 1701.88,-244.5 1701.88,-244.5 1695.88,-244.5 1689.88,-238.5 1689.88,-232.5 1689.88,-232.5 1689.88,-215.5 1689.88,-215.5 1689.88,-209.5 1695.88,-203.5 1701.88,-203.5 1701.88,-203.5 1888.12,-203.5 1888.12,-203.5 1894.12,-203.5 1900.12,-209.5 1900.12,-215.5 1900.12,-215.5 1900.12,-232.5 1900.12,-232.5 1900.12,-238.5 1894.12,-244.5 1888.12,-244.5"/>
<text text-anchor="middle" x="1795" y="-227.2" font-family="Helvetica,sans-Serif" font-size="14.00" fill="#e5e5e5">Leap into the singularity when</text>
<text text-anchor="middle" x="1795" y="-210.7" font-family="Helvetica,sans-Serif" font-size="14.00" fill="#e5e5e5">the Ash Twin Project activates*</text>
</a>
</g>
</g>
<!-- ash_twin_interior&#45;&gt;enter_ash_twin_time_singularity -->
<g id="edge81" class="edge">
<title>ash_twin_interior&#45;&gt;enter_ash_twin_time_singularity</title>
<path fill="none" stroke="#d9d9d9" d="M1602.28,-304.55C1639.6,-289.14 1694.39,-266.53 1736.02,-249.35"/>
<polygon fill="#d9d9d9" stroke="#d9d9d9" points="1737.26,-252.62 1745.17,-245.57 1734.59,-246.15 1737.26,-252.62"/>
</g>
<!-- warp_core_obtained&#45;&gt;ending_exile_quantum -->
<g id="edge90" class="edge">
<title>warp_core_obtained&#45;&gt;ending_exile_quantum</title>
<path fill="none" stroke="#d9d9d9" d="M1506.88,-205.53C1455.46,-188.62 1377.45,-162.96 1322.72,-144.96"/>
<polygon fill="#d9d9d9" stroke="#d9d9d9" points="1324.12,-141.74 1313.53,-141.94 1321.94,-148.39 1324.12,-141.74"/>
</g>
<!-- warp_core_obtained&#45;&gt;ending_lost -->
<g id="edge80" class="edge">
<title>warp_core_obtained&#45;&gt;ending_lost</title>
<path fill="none" stroke="#d9d9d9" d="M1560,-205.76C1560,-191.08 1560,-169.71 1560,-152.5"/>
<polygon fill="#d9d9d9" stroke="#d9d9d9" points="1563.5,-152.89 1560,-142.89 1556.5,-152.89 1563.5,-152.89"/>
</g>
<!-- warp_core_obtained&#45;&gt;ending_good -->
<g id="edge87" class="edge">
<title>warp_core_obtained&#45;&gt;ending_good</title>
<path fill="none" stroke="#d9d9d9" d="M1534.76,-205.53C1511.59,-189.48 1477.04,-165.57 1451.35,-147.78"/>
<polygon fill="#d9d9d9" stroke="#d9d9d9" points="1453.44,-144.97 1443.23,-142.16 1449.46,-150.73 1453.44,-144.97"/>
</g>
<!-- enter_ash_twin_time_singularity&#45;&gt;enter_ash_twin_time_singularity -->
<g id="edge84" class="edge">
<title>enter_ash_twin_time_singularity&#45;&gt;enter_ash_twin_time_singularity</title>
<path fill="none" stroke="#d9d9d9" d="M1900.43,-240.61C1915.22,-237.9 1925.12,-232.36 1925.12,-224 1925.12,-217.92 1919.9,-213.34 1911.37,-210.25"/>
<polygon fill="#d9d9d9" stroke="#d9d9d9" points="1912.46,-206.91 1901.9,-207.77 1910.69,-213.69 1912.46,-206.91"/>
</g>
<!-- meet_yourself -->
<g id="node51" class="node">
<title>meet_yourself</title>
<path fill="none" stroke="#d9d9d9" d="M1728.62,-143.5C1728.62,-143.5 1647.38,-143.5 1647.38,-143.5 1641.38,-143.5 1635.38,-137.5 1635.38,-131.5 1635.38,-131.5 1635.38,-114.5 1635.38,-114.5 1635.38,-108.5 1641.38,-102.5 1647.38,-102.5 1647.38,-102.5 1728.62,-102.5 1728.62,-102.5 1734.62,-102.5 1740.62,-108.5 1740.62,-114.5 1740.62,-114.5 1740.62,-131.5 1740.62,-131.5 1740.62,-137.5 1734.62,-143.5 1728.62,-143.5"/>
<text text-anchor="middle" x="1688" y="-126.2" font-family="Helvetica,sans-Serif" font-size="14.00" fill="#e5e5e5">Meet yourself.</text>
<text text-anchor="middle" x="1688" y="-109.7" font-family="Helvetica,sans-Serif" font-size="14.00" fill="#e5e5e5">This is fine.</text>
</g>
<!-- enter_ash_twin_time_singularity&#45;&gt;meet_yourself -->
<g id="edge82" class="edge">
<title>enter_ash_twin_time_singularity&#45;&gt;meet_yourself</title>
<path fill="none" stroke="#d9d9d9" d="M1773.6,-203.2C1757.57,-188.37 1735.42,-167.88 1717.67,-151.45"/>
<polygon fill="#d9d9d9" stroke="#d9d9d9" points="1720.19,-149.01 1710.47,-144.79 1715.43,-154.15 1720.19,-149.01"/>
</g>
<!-- fail_to_complete_the_loop -->
<g id="node52" class="node">
<title>fail_to_complete_the_loop</title>
<path fill="none" stroke="#d9d9d9" d="M2014.62,-143.5C2014.62,-143.5 1777.38,-143.5 1777.38,-143.5 1771.38,-143.5 1765.38,-137.5 1765.38,-131.5 1765.38,-131.5 1765.38,-114.5 1765.38,-114.5 1765.38,-108.5 1771.38,-102.5 1777.38,-102.5 1777.38,-102.5 2014.62,-102.5 2014.62,-102.5 2020.62,-102.5 2026.62,-108.5 2026.62,-114.5 2026.62,-114.5 2026.62,-131.5 2026.62,-131.5 2026.62,-137.5 2020.62,-143.5 2014.62,-143.5"/>
<text text-anchor="middle" x="1896" y="-126.2" font-family="Helvetica,sans-Serif" font-size="14.00" fill="#e5e5e5">Inevitably fail to complete the time loop</text>
<text text-anchor="middle" x="1896" y="-109.7" font-family="Helvetica,sans-Serif" font-size="14.00" fill="#e5e5e5">that you started, creating a paradox</text>
</g>
<!-- enter_ash_twin_time_singularity&#45;&gt;fail_to_complete_the_loop -->
<g id="edge83" class="edge">
<title>enter_ash_twin_time_singularity&#45;&gt;fail_to_complete_the_loop</title>
<path fill="none" stroke="#d9d9d9" d="M1814.95,-203.44C1830.07,-188.62 1851.04,-168.07 1867.86,-151.58"/>
<polygon fill="#d9d9d9" stroke="#d9d9d9" points="1869.97,-154.42 1874.66,-144.92 1865.07,-149.42 1869.97,-154.42"/>
</g>
<!-- fail_to_complete_the_loop&#45;&gt;ending_broke_time -->
<g id="edge12" class="edge">
<title>fail_to_complete_the_loop&#45;&gt;ending_broke_time</title>
<path fill="none" stroke="#d9d9d9" stroke-dasharray="5,2" d="M1912.6,-102.44C1925.59,-87.13 1943.77,-65.7 1957.98,-48.96"/>
<polygon fill="#d9d9d9" stroke="#d9d9d9" points="1960.62,-51.25 1964.42,-41.36 1955.28,-46.72 1960.62,-51.25"/>
</g>
<!-- quantum_signal_learned -->
<g id="node54" class="node">
<title>quantum_signal_learned</title>
<path fill="none" stroke="#d9d9d9" d="M300.75,-1066.5C300.75,-1066.5 151.25,-1066.5 151.25,-1066.5 145.25,-1066.5 139.25,-1060.5 139.25,-1054.5 139.25,-1054.5 139.25,-1037.5 139.25,-1037.5 139.25,-1031.5 145.25,-1025.5 151.25,-1025.5 151.25,-1025.5 300.75,-1025.5 300.75,-1025.5 306.75,-1025.5 312.75,-1031.5 312.75,-1037.5 312.75,-1037.5 312.75,-1054.5 312.75,-1054.5 312.75,-1060.5 306.75,-1066.5 300.75,-1066.5"/>
<text text-anchor="middle" x="226" y="-1049.2" font-family="Helvetica,sans-Serif" font-size="14.00" fill="#e5e5e5">Learn the quantum signal</text>
<text text-anchor="middle" x="226" y="-1032.7" font-family="Helvetica,sans-Serif" font-size="14.00" fill="#e5e5e5">from any quantum rock</text>
</g>
<!-- launch_codes_learned_proxy_quantum&#45;&gt;quantum_signal_learned -->
<g id="edge68" class="edge">
<title>launch_codes_learned_proxy_quantum&#45;&gt;quantum_signal_learned</title>
<path fill="none" stroke="#d9d9d9" d="M226,-1144.89C226,-1138.33 226,-1104.09 226,-1077.94"/>
<polygon fill="#d9d9d9" stroke="#d9d9d9" points="229.5,-1078.13 226,-1068.13 222.5,-1078.13 229.5,-1078.13"/>
</g>
<!-- ember_twin_quantum_cave -->
<g id="node55" class="node">
<title>ember_twin_quantum_cave</title>
<path fill="none" stroke="#d9d9d9" d="M380.88,-956.5C380.88,-956.5 247.12,-956.5 247.12,-956.5 241.12,-956.5 235.12,-950.5 235.12,-944.5 235.12,-944.5 235.12,-927.5 235.12,-927.5 235.12,-921.5 241.12,-915.5 247.12,-915.5 247.12,-915.5 380.88,-915.5 380.88,-915.5 386.88,-915.5 392.88,-921.5 392.88,-927.5 392.88,-927.5 392.88,-944.5 392.88,-944.5 392.88,-950.5 386.88,-956.5 380.88,-956.5"/>
<text text-anchor="middle" x="314" y="-939.2" font-family="Helvetica,sans-Serif" font-size="14.00" fill="#e5e5e5">Find one of the Ember</text>
<text text-anchor="middle" x="314" y="-922.7" font-family="Helvetica,sans-Serif" font-size="14.00" fill="#e5e5e5">Twin&#39;s quantum caves</text>
</g>
<!-- launch_codes_learned_proxy_quantum&#45;&gt;ember_twin_quantum_cave -->
<g id="edge69" class="edge">
<title>launch_codes_learned_proxy_quantum&#45;&gt;ember_twin_quantum_cave</title>
<path fill="none" stroke="#d9d9d9" d="M227.57,-1145.37C238.45,-1140.92 302.7,-1113.01 325,-1066.5 339.94,-1035.35 333.07,-995.13 325.14,-967.84"/>
<polygon fill="#d9d9d9" stroke="#d9d9d9" points="328.52,-966.93 322.19,-958.44 321.84,-969.03 328.52,-966.93"/>
</g>
<!-- giants_deep_north_storm -->
<g id="node58" class="node">
<title>giants_deep_north_storm</title>
<path fill="none" stroke="#d9d9d9" d="M198.25,-956.5C198.25,-956.5 27.75,-956.5 27.75,-956.5 21.75,-956.5 15.75,-950.5 15.75,-944.5 15.75,-944.5 15.75,-927.5 15.75,-927.5 15.75,-921.5 21.75,-915.5 27.75,-915.5 27.75,-915.5 198.25,-915.5 198.25,-915.5 204.25,-915.5 210.25,-921.5 210.25,-927.5 210.25,-927.5 210.25,-944.5 210.25,-944.5 210.25,-950.5 204.25,-956.5 198.25,-956.5"/>
<text text-anchor="middle" x="113" y="-939.2" font-family="Helvetica,sans-Serif" font-size="14.00" fill="#e5e5e5">Get inside the large northern</text>
<text text-anchor="middle" x="113" y="-922.7" font-family="Helvetica,sans-Serif" font-size="14.00" fill="#e5e5e5">storm on Giant&#39;s Deep</text>
</g>
<!-- launch_codes_learned_proxy_quantum&#45;&gt;giants_deep_north_storm -->
<g id="edge70" class="edge">
<title>launch_codes_learned_proxy_quantum&#45;&gt;giants_deep_north_storm</title>
<path fill="none" stroke="#d9d9d9" d="M224.48,-1145.34C213.97,-1140.7 151.77,-1111.74 127,-1066.5 110.35,-1036.09 108.62,-995.66 109.91,-968.11"/>
<polygon fill="#d9d9d9" stroke="#d9d9d9" points="113.39,-968.52 110.55,-958.32 106.41,-968.07 113.39,-968.52"/>
</g>
<!-- quantum_signal_learned&#45;&gt;ember_twin_quantum_cave -->
<g id="edge3" class="edge">
<title>quantum_signal_learned&#45;&gt;ember_twin_quantum_cave</title>
<path fill="none" stroke="#d9d9d9" stroke-dasharray="1,5" d="M242.14,-1025.19C255.79,-1008.44 275.5,-984.25 290.83,-965.43"/>
<polygon fill="#d9d9d9" stroke="#d9d9d9" points="293.4,-967.82 297.01,-957.86 287.98,-963.4 293.4,-967.82"/>
</g>
<!-- quantum_signal_learned&#45;&gt;giants_deep_north_storm -->
<g id="edge4" class="edge">
<title>quantum_signal_learned&#45;&gt;giants_deep_north_storm</title>
<path fill="none" stroke="#d9d9d9" stroke-dasharray="1,5" d="M205.27,-1025.19C187.43,-1008.14 161.51,-983.36 141.68,-964.41"/>
<polygon fill="#d9d9d9" stroke="#d9d9d9" points="144.34,-962.11 134.69,-957.73 139.5,-967.17 144.34,-962.11"/>
</g>
<!-- ember_twin_lakebed_cave -->
<g id="node56" class="node">
<title>ember_twin_lakebed_cave</title>
<path fill="none" stroke="#d9d9d9" d="M401.38,-846.5C401.38,-846.5 276.62,-846.5 276.62,-846.5 270.62,-846.5 264.62,-840.5 264.62,-834.5 264.62,-834.5 264.62,-817.5 264.62,-817.5 264.62,-811.5 270.62,-805.5 276.62,-805.5 276.62,-805.5 401.38,-805.5 401.38,-805.5 407.38,-805.5 413.38,-811.5 413.38,-817.5 413.38,-817.5 413.38,-834.5 413.38,-834.5 413.38,-840.5 407.38,-846.5 401.38,-846.5"/>
<text text-anchor="middle" x="339" y="-829.2" font-family="Helvetica,sans-Serif" font-size="14.00" fill="#e5e5e5">Get into the Lakebed</text>
<text text-anchor="middle" x="339" y="-812.7" font-family="Helvetica,sans-Serif" font-size="14.00" fill="#e5e5e5">Cave before it floods</text>
</g>
<!-- ember_twin_quantum_cave&#45;&gt;ember_twin_lakebed_cave -->
<g id="edge71" class="edge">
<title>ember_twin_quantum_cave&#45;&gt;ember_twin_lakebed_cave</title>
<path fill="none" stroke="#d9d9d9" d="M318.59,-915.19C322.3,-899.13 327.61,-876.21 331.88,-857.77"/>
<polygon fill="#d9d9d9" stroke="#d9d9d9" points="335.26,-858.69 334.1,-848.16 328.44,-857.11 335.26,-858.69"/>
</g>
<!-- quantum_flashlight_trick -->
<g id="node57" class="node">
<title>quantum_flashlight_trick</title>
<path fill="none" stroke="#d9d9d9" d="M431.62,-745.5C431.62,-745.5 296.38,-745.5 296.38,-745.5 290.38,-745.5 284.38,-739.5 284.38,-733.5 284.38,-733.5 284.38,-716.5 284.38,-716.5 284.38,-710.5 290.38,-704.5 296.38,-704.5 296.38,-704.5 431.62,-704.5 431.62,-704.5 437.62,-704.5 443.62,-710.5 443.62,-716.5 443.62,-716.5 443.62,-733.5 443.62,-733.5 443.62,-739.5 437.62,-745.5 431.62,-745.5"/>
<text text-anchor="middle" x="364" y="-728.2" font-family="Helvetica,sans-Serif" font-size="14.00" fill="#e5e5e5">Learn the rule of</text>
<text text-anchor="middle" x="364" y="-711.7" font-family="Helvetica,sans-Serif" font-size="14.00" fill="#e5e5e5">quantum entanglement</text>
</g>
<!-- ember_twin_lakebed_cave&#45;&gt;quantum_flashlight_trick -->
<g id="edge72" class="edge">
<title>ember_twin_lakebed_cave&#45;&gt;quantum_flashlight_trick</title>
<path fill="none" stroke="#d9d9d9" d="M343.94,-805.44C347.44,-791.57 352.22,-772.66 356.23,-756.78"/>
<polygon fill="#d9d9d9" stroke="#d9d9d9" points="359.56,-757.88 358.61,-747.32 352.77,-756.16 359.56,-757.88"/>
</g>
<!-- quantum_moon_final_location -->
<g id="node63" class="node">
<title>quantum_moon_final_location</title>
<path fill="none" stroke="#d9d9d9" d="M590.25,-644.5C590.25,-644.5 467.75,-644.5 467.75,-644.5 461.75,-644.5 455.75,-638.5 455.75,-632.5 455.75,-632.5 455.75,-615.5 455.75,-615.5 455.75,-609.5 461.75,-603.5 467.75,-603.5 467.75,-603.5 590.25,-603.5 590.25,-603.5 596.25,-603.5 602.25,-609.5 602.25,-615.5 602.25,-615.5 602.25,-632.5 602.25,-632.5 602.25,-638.5 596.25,-644.5 590.25,-644.5"/>
<text text-anchor="middle" x="529" y="-627.2" font-family="Helvetica,sans-Serif" font-size="14.00" fill="#e5e5e5">Reach the Quantum</text>
<text text-anchor="middle" x="529" y="-610.7" font-family="Helvetica,sans-Serif" font-size="14.00" fill="#e5e5e5">Moon&#39;s sixth location</text>
</g>
<!-- quantum_flashlight_trick&#45;&gt;quantum_moon_final_location -->
<g id="edge76" class="edge">
<title>quantum_flashlight_trick&#45;&gt;quantum_moon_final_location</title>
<path fill="none" stroke="#d9d9d9" d="M396.99,-704.2C422.54,-688.88 458.14,-667.52 485.93,-650.84"/>
<polygon fill="#d9d9d9" stroke="#d9d9d9" points="487.71,-653.86 494.48,-645.71 484.11,-647.85 487.71,-653.86"/>
</g>
<!-- giants_deep_quantum_tower -->
<g id="node59" class="node">
<title>giants_deep_quantum_tower</title>
<path fill="none" stroke="#d9d9d9" d="M195.88,-846.5C195.88,-846.5 92.12,-846.5 92.12,-846.5 86.12,-846.5 80.12,-840.5 80.12,-834.5 80.12,-834.5 80.12,-817.5 80.12,-817.5 80.12,-811.5 86.12,-805.5 92.12,-805.5 92.12,-805.5 195.88,-805.5 195.88,-805.5 201.88,-805.5 207.88,-811.5 207.88,-817.5 207.88,-817.5 207.88,-834.5 207.88,-834.5 207.88,-840.5 201.88,-846.5 195.88,-846.5"/>
<text text-anchor="middle" x="144" y="-829.2" font-family="Helvetica,sans-Serif" font-size="14.00" fill="#e5e5e5">Enter the Tower</text>
<text text-anchor="middle" x="144" y="-812.7" font-family="Helvetica,sans-Serif" font-size="14.00" fill="#e5e5e5">of Quantum Trials</text>
</g>
<!-- giants_deep_north_storm&#45;&gt;giants_deep_quantum_tower -->
<g id="edge74" class="edge">
<title>giants_deep_north_storm&#45;&gt;giants_deep_quantum_tower</title>
<path fill="none" stroke="#d9d9d9" d="M118.69,-915.19C123.32,-899.05 129.94,-876 135.24,-857.5"/>
<polygon fill="#d9d9d9" stroke="#d9d9d9" points="138.54,-858.72 137.93,-848.14 131.81,-856.78 138.54,-858.72"/>
</g>
<!-- quantum_photo_trick -->
<g id="node60" class="node">
<title>quantum_photo_trick</title>
<path fill="none" stroke="#d9d9d9" d="M247.62,-745.5C247.62,-745.5 148.38,-745.5 148.38,-745.5 142.38,-745.5 136.38,-739.5 136.38,-733.5 136.38,-733.5 136.38,-716.5 136.38,-716.5 136.38,-710.5 142.38,-704.5 148.38,-704.5 148.38,-704.5 247.62,-704.5 247.62,-704.5 253.62,-704.5 259.62,-710.5 259.62,-716.5 259.62,-716.5 259.62,-733.5 259.62,-733.5 259.62,-739.5 253.62,-745.5 247.62,-745.5"/>
<text text-anchor="middle" x="198" y="-728.2" font-family="Helvetica,sans-Serif" font-size="14.00" fill="#e5e5e5">Learn the rule of</text>
<text text-anchor="middle" x="198" y="-711.7" font-family="Helvetica,sans-Serif" font-size="14.00" fill="#e5e5e5">quantum imaging</text>
</g>
<!-- giants_deep_quantum_tower&#45;&gt;quantum_photo_trick -->
<g id="edge75" class="edge">
<title>giants_deep_quantum_tower&#45;&gt;quantum_photo_trick</title>
<path fill="none" stroke="#d9d9d9" d="M154.67,-805.44C162.38,-791.3 172.95,-771.93 181.72,-755.85"/>
<polygon fill="#d9d9d9" stroke="#d9d9d9" points="184.73,-757.64 186.44,-747.19 178.58,-754.29 184.73,-757.64"/>
</g>
<!-- quantum_photo_trick&#45;&gt;quantum_moon_final_location -->
<g id="edge77" class="edge">
<title>quantum_photo_trick&#45;&gt;quantum_moon_final_location</title>
<path fill="none" stroke="#d9d9d9" d="M259.87,-705.49C314.01,-689.3 392.91,-665.7 451.3,-648.24"/>
<polygon fill="#d9d9d9" stroke="#d9d9d9" points="452.29,-651.6 460.87,-645.38 450.29,-644.89 452.29,-651.6"/>
</g>
<!-- quantum_north_trick -->
<g id="node62" class="node">
<title>quantum_north_trick</title>
<path fill="none" stroke="#d9d9d9" d="M577.12,-745.5C577.12,-745.5 480.88,-745.5 480.88,-745.5 474.88,-745.5 468.88,-739.5 468.88,-733.5 468.88,-733.5 468.88,-716.5 468.88,-716.5 468.88,-710.5 474.88,-704.5 480.88,-704.5 480.88,-704.5 577.12,-704.5 577.12,-704.5 583.12,-704.5 589.12,-710.5 589.12,-716.5 589.12,-716.5 589.12,-733.5 589.12,-733.5 589.12,-739.5 583.12,-745.5 577.12,-745.5"/>
<text text-anchor="middle" x="529" y="-728.2" font-family="Helvetica,sans-Serif" font-size="14.00" fill="#e5e5e5">Learn the rule of</text>
<text text-anchor="middle" x="529" y="-711.7" font-family="Helvetica,sans-Serif" font-size="14.00" fill="#e5e5e5">the sixth location</text>
</g>
<!-- brittle_hollow_quantum_tower&#45;&gt;quantum_north_trick -->
<g id="edge73" class="edge">
<title>brittle_hollow_quantum_tower&#45;&gt;quantum_north_trick</title>
<path fill="none" stroke="#d9d9d9" d="M529,-915.34C529,-878.93 529,-800.75 529,-757.1"/>
<polygon fill="#d9d9d9" stroke="#d9d9d9" points="532.5,-757.28 529,-747.28 525.5,-757.28 532.5,-757.28"/>
</g>
<!-- quantum_north_trick&#45;&gt;quantum_moon_final_location -->
<g id="edge78" class="edge">
<title>quantum_north_trick&#45;&gt;quantum_moon_final_location</title>
<path fill="none" stroke="#d9d9d9" d="M529,-704.44C529,-690.7 529,-672.03 529,-656.24"/>
<polygon fill="#d9d9d9" stroke="#d9d9d9" points="532.5,-656.37 529,-646.37 525.5,-656.37 532.5,-656.37"/>
</g>
<!-- quantum_moon_final_location&#45;&gt;ending_exile_quantum -->
<g id="edge89" class="edge">
<title>quantum_moon_final_location&#45;&gt;ending_exile_quantum</title>
<path fill="none" stroke="#d9d9d9" d="M551.33,-603.24C567.12,-588.09 587.61,-565.88 600,-542.5 625.89,-493.64 631,-477.3 631,-422 631,-422 631,-422 631,-322 631,-211.54 988.89,-155.01 1164.32,-133.94"/>
<polygon fill="#d9d9d9" stroke="#d9d9d9" points="1164.58,-137.44 1174.1,-132.79 1163.76,-130.49 1164.58,-137.44"/>
</g>
<!-- solanum_visited -->
<g id="node64" class="node">
<title>solanum_visited</title>
<path fill="#280060" stroke="#d9d9d9" d="M575.62,-540C575.62,-540 482.38,-540 482.38,-540 476.38,-540 470.38,-534 470.38,-528 470.38,-528 470.38,-516 470.38,-516 470.38,-510 476.38,-504 482.38,-504 482.38,-504 575.62,-504 575.62,-504 581.62,-504 587.62,-510 587.62,-516 587.62,-516 587.62,-528 587.62,-528 587.62,-534 581.62,-540 575.62,-540"/>
<text text-anchor="middle" x="529" y="-516.95" font-family="Helvetica,sans-Serif" font-size="14.00" fill="#e5e5e5">Talk to Solanum</text>
</g>
<!-- quantum_moon_final_location&#45;&gt;solanum_visited -->
<g id="edge79" class="edge">
<title>quantum_moon_final_location&#45;&gt;solanum_visited</title>
<path fill="none" stroke="#d9d9d9" d="M529,-603.24C529,-588.49 529,-568.12 529,-551.6"/>
<polygon fill="#d9d9d9" stroke="#d9d9d9" points="532.5,-551.89 529,-541.89 525.5,-551.89 532.5,-551.89"/>
</g>
<!-- solanum_visited&#45;&gt;ending_best -->
<g id="edge17" class="edge">
<title>solanum_visited&#45;&gt;ending_best</title>
<path fill="none" stroke="#d9d9d9" stroke-dasharray="5,2" d="M532.84,-503.71C540.07,-469.55 555,-390.93 555,-324 555,-324 555,-324 555,-223 555,-61.95 1133.18,-30.55 1342.49,-24.46"/>
<polygon fill="#d9d9d9" stroke="#d9d9d9" points="1342.55,-27.96 1352.45,-24.18 1342.36,-20.96 1342.55,-27.96"/>
</g>
</g>
</svg>
