<?xml version="1.0" encoding="UTF-8" standalone="no"?>
<!DOCTYPE svg PUBLIC "-//W3C//DTD SVG 1.1//EN"
 "http://www.w3.org/Graphics/SVG/1.1/DTD/svg11.dtd">
<!-- Generated by graphviz version 7.1.0 (20230121.1956)
 -->
<!-- Title: riven_progression Pages: 1 -->
<svg width="2031pt" height="1934pt"
 viewBox="0.00 0.00 2030.50 1934.00" xmlns="http://www.w3.org/2000/svg" xmlns:xlink="http://www.w3.org/1999/xlink">
<g id="graph0" class="graph" transform="scale(1 1) rotate(0) translate(4 1930)">
<title>riven_progression</title>
<polygon fill="#1f1f1f" stroke="none" points="-4,4 -4,-1930 2026.5,-1930 2026.5,4 -4,4"/>
<!-- start -->
<g id="node1" class="node">
<title>start</title>
<path fill="#005000" stroke="#d9d9d9" d="M701.5,-1926C701.5,-1926 671.5,-1926 671.5,-1926 665.5,-1926 659.5,-1920 659.5,-1914 659.5,-1914 659.5,-1902 659.5,-1902 659.5,-1896 665.5,-1890 671.5,-1890 671.5,-1890 701.5,-1890 701.5,-1890 707.5,-1890 713.5,-1896 713.5,-1902 713.5,-1902 713.5,-1914 713.5,-1914 713.5,-1920 707.5,-1926 701.5,-1926"/>
<text text-anchor="middle" x="686.5" y="-1904.3" font-family="Helvetica,sans-Serif" font-size="14.00" fill="#e5e5e5">Start</text>
</g>
<!-- rotating_room_shit_door -->
<g id="node27" class="node">
<title>rotating_room_shit_door</title>
<path fill="#280060" stroke="#d9d9d9" d="M962.5,-1836C962.5,-1836 834.5,-1836 834.5,-1836 828.5,-1836 822.5,-1830 822.5,-1824 822.5,-1824 822.5,-1812 822.5,-1812 822.5,-1806 828.5,-1800 834.5,-1800 834.5,-1800 962.5,-1800 962.5,-1800 968.5,-1800 974.5,-1806 974.5,-1812 974.5,-1812 974.5,-1824 974.5,-1824 974.5,-1830 968.5,-1836 962.5,-1836"/>
<text text-anchor="middle" x="898.5" y="-1814.3" font-family="Helvetica,sans-Serif" font-size="14.00" fill="#e5e5e5">Crawl under shit door</text>
</g>
<!-- start&#45;&gt;rotating_room_shit_door -->
<g id="edge75" class="edge">
<title>start&#45;&gt;rotating_room_shit_door</title>
<path fill="none" stroke="#d9d9d9" d="M713.78,-1895.68C747.11,-1881.84 804.24,-1858.13 846.15,-1840.73"/>
<polygon fill="#d9d9d9" stroke="#d9d9d9" points="847.44,-1843.99 855.33,-1836.92 844.75,-1837.52 847.44,-1843.99"/>
</g>
<!-- telescope_hatch_brute_forced -->
<g id="node65" class="node">
<title>telescope_hatch_brute_forced</title>
<path fill="none" stroke="#d9d9d9" d="M785,-1836C785,-1836 588,-1836 588,-1836 582,-1836 576,-1830 576,-1824 576,-1824 576,-1812 576,-1812 576,-1806 582,-1800 588,-1800 588,-1800 785,-1800 785,-1800 791,-1800 797,-1806 797,-1812 797,-1812 797,-1824 797,-1824 797,-1830 791,-1836 785,-1836"/>
<text text-anchor="middle" x="686.5" y="-1814.3" font-family="Helvetica,sans-Serif" font-size="14.00" fill="#e5e5e5">Brute force trap door code early</text>
</g>
<!-- start&#45;&gt;telescope_hatch_brute_forced -->
<g id="edge76" class="edge">
<title>start&#45;&gt;telescope_hatch_brute_forced</title>
<path fill="none" stroke="#d9d9d9" d="M686.5,-1889.61C686.5,-1877.68 686.5,-1861.57 686.5,-1847.74"/>
<polygon fill="#d9d9d9" stroke="#d9d9d9" points="690,-1847.86 686.5,-1837.86 683,-1847.86 690,-1847.86"/>
</g>
<!-- temple_door_opened -->
<g id="node68" class="node">
<title>temple_door_opened</title>
<path fill="none" stroke="#d9d9d9" d="M539,-1836C539,-1836 430,-1836 430,-1836 424,-1836 418,-1830 418,-1824 418,-1824 418,-1812 418,-1812 418,-1806 424,-1800 430,-1800 430,-1800 539,-1800 539,-1800 545,-1800 551,-1806 551,-1812 551,-1812 551,-1824 551,-1824 551,-1830 545,-1836 539,-1836"/>
<text text-anchor="middle" x="484.5" y="-1814.3" font-family="Helvetica,sans-Serif" font-size="14.00" fill="#e5e5e5">Open temple door</text>
</g>
<!-- start&#45;&gt;temple_door_opened -->
<g id="edge77" class="edge">
<title>start&#45;&gt;temple_door_opened</title>
<path fill="none" stroke="#d9d9d9" d="M659.26,-1895.13C627.49,-1881.29 574.33,-1858.13 534.96,-1840.98"/>
<polygon fill="#d9d9d9" stroke="#d9d9d9" points="536.46,-1837.82 525.9,-1837.03 533.67,-1844.24 536.46,-1837.82"/>
</g>
<!-- ending_atrus_shot -->
<g id="node2" class="node">
<title>ending_atrus_shot</title>
<path fill="#500000" stroke="#d9d9d9" d="M525,-36C525,-36 418,-36 418,-36 412,-36 406,-30 406,-24 406,-24 406,-12 406,-12 406,-6 412,0 418,0 418,0 525,0 525,0 531,0 537,-6 537,-12 537,-12 537,-24 537,-24 537,-30 531,-36 525,-36"/>
<text text-anchor="middle" x="471.5" y="-14.3" font-family="Helvetica,sans-Serif" font-size="14.00" fill="#e5e5e5">Atrus shot by dad</text>
</g>
<!-- ending_free_gehn -->
<g id="node3" class="node">
<title>ending_free_gehn</title>
<path fill="#500000" stroke="#d9d9d9" d="M265.5,-216C265.5,-216 205.5,-216 205.5,-216 199.5,-216 193.5,-210 193.5,-204 193.5,-204 193.5,-192 193.5,-192 193.5,-186 199.5,-180 205.5,-180 205.5,-180 265.5,-180 265.5,-180 271.5,-180 277.5,-186 277.5,-192 277.5,-192 277.5,-204 277.5,-204 277.5,-210 271.5,-216 265.5,-216"/>
<text text-anchor="middle" x="235.5" y="-194.3" font-family="Helvetica,sans-Serif" font-size="14.00" fill="#e5e5e5">Free Gehn</text>
</g>
<!-- ending_good -->
<g id="node4" class="node">
<title>ending_good</title>
<path fill="#500000" stroke="#d9d9d9" d="M194,-36C194,-36 117,-36 117,-36 111,-36 105,-30 105,-24 105,-24 105,-12 105,-12 105,-6 111,0 117,0 117,0 194,0 194,0 200,0 206,-6 206,-12 206,-12 206,-24 206,-24 206,-30 200,-36 194,-36"/>
<text text-anchor="middle" x="155.5" y="-14.3" font-family="Helvetica,sans-Serif" font-size="14.00" fill="#e5e5e5">Good Ending</text>
</g>
<!-- ending_impossible -->
<g id="node5" class="node">
<title>ending_impossible</title>
<path fill="#500000" stroke="#d9d9d9" d="M741.5,-1746C741.5,-1746 631.5,-1746 631.5,-1746 625.5,-1746 619.5,-1740 619.5,-1734 619.5,-1734 619.5,-1722 619.5,-1722 619.5,-1716 625.5,-1710 631.5,-1710 631.5,-1710 741.5,-1710 741.5,-1710 747.5,-1710 753.5,-1716 753.5,-1722 753.5,-1722 753.5,-1734 753.5,-1734 753.5,-1740 747.5,-1746 741.5,-1746"/>
<text text-anchor="middle" x="686.5" y="-1724.3" font-family="Helvetica,sans-Serif" font-size="14.00" fill="#e5e5e5">Impossible Ending</text>
</g>
<!-- ending_no_wife -->
<g id="node6" class="node">
<title>ending_no_wife</title>
<path fill="#500000" stroke="#d9d9d9" d="M369,-36C369,-36 262,-36 262,-36 256,-36 250,-30 250,-24 250,-24 250,-12 250,-12 250,-6 256,0 262,0 262,0 369,0 369,0 375,0 381,-6 381,-12 381,-12 381,-24 381,-24 381,-30 375,-36 369,-36"/>
<text text-anchor="middle" x="315.5" y="-14.3" font-family="Helvetica,sans-Serif" font-size="14.00" fill="#e5e5e5">Where&#39;s my wife?</text>
</g>
<!-- ending_player_shot -->
<g id="node7" class="node">
<title>ending_player_shot</title>
<path fill="#500000" stroke="#d9d9d9" d="M870,-216C870,-216 789,-216 789,-216 783,-216 777,-210 777,-204 777,-204 777,-192 777,-192 777,-186 783,-180 789,-180 789,-180 870,-180 870,-180 876,-180 882,-186 882,-192 882,-192 882,-204 882,-204 882,-210 876,-216 870,-216"/>
<text text-anchor="middle" x="829.5" y="-194.3" font-family="Helvetica,sans-Serif" font-size="14.00" fill="#e5e5e5">Shot by Gehn</text>
</g>
<!-- ending_trapped -->
<g id="node8" class="node">
<title>ending_trapped</title>
<path fill="#500000" stroke="#d9d9d9" d="M598,-396C598,-396 331,-396 331,-396 325,-396 319,-390 319,-384 319,-384 319,-372 319,-372 319,-366 325,-360 331,-360 331,-360 598,-360 598,-360 604,-360 610,-366 610,-372 610,-372 610,-384 610,-384 610,-390 604,-396 598,-396"/>
<text text-anchor="middle" x="464.5" y="-374.3" font-family="Helvetica,sans-Serif" font-size="14.00" fill="#e5e5e5">One of several trapped in own trap endings</text>
</g>
<!-- orb_whark -->
<g id="node9" class="node">
<title>orb_whark</title>
<path fill="none" stroke="#d9d9d9" d="M372.5,-1656C372.5,-1656 288.5,-1656 288.5,-1656 282.5,-1656 276.5,-1650 276.5,-1644 276.5,-1644 276.5,-1632 276.5,-1632 276.5,-1626 282.5,-1620 288.5,-1620 288.5,-1620 372.5,-1620 372.5,-1620 378.5,-1620 384.5,-1626 384.5,-1632 384.5,-1632 384.5,-1644 384.5,-1644 384.5,-1650 378.5,-1656 372.5,-1656"/>
<text text-anchor="middle" x="330.5" y="-1634.3" font-family="Helvetica,sans-Serif" font-size="14.00" fill="#e5e5e5">The whark orb</text>
</g>
<!-- orb_all -->
<g id="node25" class="node">
<title>orb_all</title>
<path fill="#280060" stroke="#d9d9d9" d="M313.5,-756C313.5,-756 209.5,-756 209.5,-756 203.5,-756 197.5,-750 197.5,-744 197.5,-744 197.5,-732 197.5,-732 197.5,-726 203.5,-720 209.5,-720 209.5,-720 313.5,-720 313.5,-720 319.5,-720 325.5,-726 325.5,-732 325.5,-732 325.5,-744 325.5,-744 325.5,-750 319.5,-756 313.5,-756"/>
<text text-anchor="middle" x="261.5" y="-734.3" font-family="Helvetica,sans-Serif" font-size="14.00" fill="#e5e5e5">All 5 orbs learned</text>
</g>
<!-- orb_whark&#45;&gt;orb_all -->
<g id="edge67" class="edge">
<title>orb_whark&#45;&gt;orb_all</title>
<path fill="none" stroke="#d9d9d9" d="M334.36,-1619.92C341.14,-1588.33 354.5,-1518.56 354.5,-1459 354.5,-1459 354.5,-1459 354.5,-917 354.5,-857.08 312.59,-797.4 285.04,-764.64"/>
<polygon fill="#d9d9d9" stroke="#d9d9d9" points="287.87,-762.56 278.69,-757.28 282.57,-767.13 287.87,-762.56"/>
</g>
<!-- orb_beetle -->
<g id="node10" class="node">
<title>orb_beetle</title>
<path fill="none" stroke="#d9d9d9" d="M136,-1566C136,-1566 49,-1566 49,-1566 43,-1566 37,-1560 37,-1554 37,-1554 37,-1542 37,-1542 37,-1536 43,-1530 49,-1530 49,-1530 136,-1530 136,-1530 142,-1530 148,-1536 148,-1542 148,-1542 148,-1554 148,-1554 148,-1560 142,-1566 136,-1566"/>
<text text-anchor="middle" x="92.5" y="-1544.3" font-family="Helvetica,sans-Serif" font-size="14.00" fill="#e5e5e5">The beetle orb</text>
</g>
<!-- orb_beetle&#45;&gt;orb_all -->
<g id="edge63" class="edge">
<title>orb_beetle&#45;&gt;orb_all</title>
<path fill="none" stroke="#d9d9d9" d="M95.27,-1529.62C100.09,-1497.83 109.5,-1428.14 109.5,-1369 109.5,-1369 109.5,-1369 109.5,-917 109.5,-848.1 176.18,-792.38 221.21,-762.61"/>
<polygon fill="#d9d9d9" stroke="#d9d9d9" points="222.95,-765.65 229.47,-757.3 219.16,-759.77 222.95,-765.65"/>
</g>
<!-- orb_frog -->
<g id="node11" class="node">
<title>orb_frog</title>
<path fill="none" stroke="#d9d9d9" d="M235,-1116C235,-1116 164,-1116 164,-1116 158,-1116 152,-1110 152,-1104 152,-1104 152,-1092 152,-1092 152,-1086 158,-1080 164,-1080 164,-1080 235,-1080 235,-1080 241,-1080 247,-1086 247,-1092 247,-1092 247,-1104 247,-1104 247,-1110 241,-1116 235,-1116"/>
<text text-anchor="middle" x="199.5" y="-1094.3" font-family="Helvetica,sans-Serif" font-size="14.00" fill="#e5e5e5">The frog orb</text>
</g>
<!-- orb_frog&#45;&gt;orb_all -->
<g id="edge65" class="edge">
<title>orb_frog&#45;&gt;orb_all</title>
<path fill="none" stroke="#d9d9d9" d="M202.49,-1079.73C212.41,-1022.43 244.32,-838.18 256.61,-767.22"/>
<polygon fill="#d9d9d9" stroke="#d9d9d9" points="260.02,-768.04 258.28,-757.59 253.13,-766.84 260.02,-768.04"/>
</g>
<!-- orb_sunner -->
<g id="node12" class="node">
<title>orb_sunner</title>
<path fill="none" stroke="#d9d9d9" d="M642,-1566C642,-1566 553,-1566 553,-1566 547,-1566 541,-1560 541,-1554 541,-1554 541,-1542 541,-1542 541,-1536 547,-1530 553,-1530 553,-1530 642,-1530 642,-1530 648,-1530 654,-1536 654,-1542 654,-1542 654,-1554 654,-1554 654,-1560 648,-1566 642,-1566"/>
<text text-anchor="middle" x="597.5" y="-1544.3" font-family="Helvetica,sans-Serif" font-size="14.00" fill="#e5e5e5">The sunner orb</text>
</g>
<!-- orb_sunner&#45;&gt;orb_all -->
<g id="edge66" class="edge">
<title>orb_sunner&#45;&gt;orb_all</title>
<path fill="none" stroke="#d9d9d9" d="M553.93,-1529.59C497.28,-1503.75 405.5,-1449.45 405.5,-1369 405.5,-1369 405.5,-1369 405.5,-917 405.5,-867.36 403.47,-849.57 373.5,-810 357.96,-789.48 334.63,-773.34 313.29,-761.67"/>
<polygon fill="#d9d9d9" stroke="#d9d9d9" points="315.15,-758.7 304.67,-757.17 311.91,-764.9 315.15,-758.7"/>
</g>
<!-- orb_fish -->
<g id="node13" class="node">
<title>orb_fish</title>
<path fill="none" stroke="#d9d9d9" d="M523.5,-846C523.5,-846 455.5,-846 455.5,-846 449.5,-846 443.5,-840 443.5,-834 443.5,-834 443.5,-822 443.5,-822 443.5,-816 449.5,-810 455.5,-810 455.5,-810 523.5,-810 523.5,-810 529.5,-810 535.5,-816 535.5,-822 535.5,-822 535.5,-834 535.5,-834 535.5,-840 529.5,-846 523.5,-846"/>
<text text-anchor="middle" x="489.5" y="-824.3" font-family="Helvetica,sans-Serif" font-size="14.00" fill="#e5e5e5">The fish orb</text>
</g>
<!-- orb_fish&#45;&gt;orb_all -->
<g id="edge64" class="edge">
<title>orb_fish&#45;&gt;orb_all</title>
<path fill="none" stroke="#d9d9d9" d="M444.18,-809.51C407.74,-795.44 356.37,-775.62 317.38,-760.57"/>
<polygon fill="#d9d9d9" stroke="#d9d9d9" points="318.73,-757.34 308.14,-757 316.21,-763.87 318.73,-757.34"/>
</g>
<!-- big_dome_elevator_understood -->
<g id="node14" class="node">
<title>big_dome_elevator_understood</title>
<path fill="#280060" stroke="#d9d9d9" d="M1588.5,-846C1588.5,-846 1418.5,-846 1418.5,-846 1412.5,-846 1406.5,-840 1406.5,-834 1406.5,-834 1406.5,-822 1406.5,-822 1406.5,-816 1412.5,-810 1418.5,-810 1418.5,-810 1588.5,-810 1588.5,-810 1594.5,-810 1600.5,-816 1600.5,-822 1600.5,-822 1600.5,-834 1600.5,-834 1600.5,-840 1594.5,-846 1588.5,-846"/>
<text text-anchor="middle" x="1503.5" y="-824.3" font-family="Helvetica,sans-Serif" font-size="14.00" fill="#e5e5e5">Weird elevator shenanigans</text>
</g>
<!-- island_color_temple -->
<g id="node56" class="node">
<title>island_color_temple</title>
<path fill="none" stroke="#d9d9d9" d="M1530,-756C1530,-756 1335,-756 1335,-756 1329,-756 1323,-750 1323,-744 1323,-744 1323,-732 1323,-732 1323,-726 1329,-720 1335,-720 1335,-720 1530,-720 1530,-720 1536,-720 1542,-726 1542,-732 1542,-732 1542,-744 1542,-744 1542,-750 1536,-756 1530,-756"/>
<text text-anchor="middle" x="1432.5" y="-734.3" font-family="Helvetica,sans-Serif" font-size="14.00" fill="#e5e5e5">find temple island dome symbol</text>
</g>
<!-- big_dome_elevator_understood&#45;&gt;island_color_temple -->
<g id="edge12" class="edge">
<title>big_dome_elevator_understood&#45;&gt;island_color_temple</title>
<path fill="none" stroke="#d9d9d9" d="M1489.47,-809.61C1479.26,-796.96 1465.26,-779.6 1453.69,-765.26"/>
<polygon fill="#d9d9d9" stroke="#d9d9d9" points="1456.45,-763.11 1447.45,-757.53 1451,-767.51 1456.45,-763.11"/>
</g>
<!-- big_dome_power_button_found -->
<g id="node15" class="node">
<title>big_dome_power_button_found</title>
<path fill="#280060" stroke="#d9d9d9" d="M1882.5,-666C1882.5,-666 1766.5,-666 1766.5,-666 1760.5,-666 1754.5,-660 1754.5,-654 1754.5,-654 1754.5,-642 1754.5,-642 1754.5,-636 1760.5,-630 1766.5,-630 1766.5,-630 1882.5,-630 1882.5,-630 1888.5,-630 1894.5,-636 1894.5,-642 1894.5,-642 1894.5,-654 1894.5,-654 1894.5,-660 1888.5,-666 1882.5,-666"/>
<text text-anchor="middle" x="1824.5" y="-644.3" font-family="Helvetica,sans-Serif" font-size="14.00" fill="#e5e5e5">Oh, that&#39;s a button?</text>
</g>
<!-- dome_power -->
<g id="node46" class="node">
<title>dome_power</title>
<path fill="none" stroke="#d9d9d9" d="M1494,-576C1494,-576 1371,-576 1371,-576 1365,-576 1359,-570 1359,-564 1359,-564 1359,-552 1359,-552 1359,-546 1365,-540 1371,-540 1371,-540 1494,-540 1494,-540 1500,-540 1506,-546 1506,-552 1506,-552 1506,-564 1506,-564 1506,-570 1500,-576 1494,-576"/>
<text text-anchor="middle" x="1432.5" y="-554.3" font-family="Helvetica,sans-Serif" font-size="14.00" fill="#e5e5e5">Power Baby Domes</text>
</g>
<!-- big_dome_power_button_found&#45;&gt;dome_power -->
<g id="edge14" class="edge">
<title>big_dome_power_button_found&#45;&gt;dome_power</title>
<path fill="none" stroke="#d9d9d9" d="M1754.42,-631.27C1688.05,-616.37 1588.27,-593.97 1517.42,-578.06"/>
<polygon fill="#d9d9d9" stroke="#d9d9d9" points="1518.3,-574.67 1507.78,-575.9 1516.77,-581.5 1518.3,-574.67"/>
</g>
<!-- big_dome_upper_stairs_lever_found -->
<g id="node16" class="node">
<title>big_dome_upper_stairs_lever_found</title>
<path fill="#280060" stroke="#d9d9d9" d="M1761.5,-1026C1761.5,-1026 1649.5,-1026 1649.5,-1026 1643.5,-1026 1637.5,-1020 1637.5,-1014 1637.5,-1014 1637.5,-1002 1637.5,-1002 1637.5,-996 1643.5,-990 1649.5,-990 1649.5,-990 1761.5,-990 1761.5,-990 1767.5,-990 1773.5,-996 1773.5,-1002 1773.5,-1002 1773.5,-1014 1773.5,-1014 1773.5,-1020 1767.5,-1026 1761.5,-1026"/>
<text text-anchor="middle" x="1705.5" y="-1004.3" font-family="Helvetica,sans-Serif" font-size="14.00" fill="#e5e5e5">Easy to miss lever</text>
</g>
<!-- big_dome_access_upper -->
<g id="node36" class="node">
<title>big_dome_access_upper</title>
<path fill="none" stroke="#d9d9d9" d="M1786.5,-846C1786.5,-846 1658.5,-846 1658.5,-846 1652.5,-846 1646.5,-840 1646.5,-834 1646.5,-834 1646.5,-822 1646.5,-822 1646.5,-816 1652.5,-810 1658.5,-810 1658.5,-810 1786.5,-810 1786.5,-810 1792.5,-810 1798.5,-816 1798.5,-822 1798.5,-822 1798.5,-834 1798.5,-834 1798.5,-840 1792.5,-846 1786.5,-846"/>
<text text-anchor="middle" x="1722.5" y="-824.3" font-family="Helvetica,sans-Serif" font-size="14.00" fill="#e5e5e5">Upper Dome Access</text>
</g>
<!-- big_dome_upper_stairs_lever_found&#45;&gt;big_dome_access_upper -->
<g id="edge15" class="edge">
<title>big_dome_upper_stairs_lever_found&#45;&gt;big_dome_access_upper</title>
<path fill="none" stroke="#d9d9d9" d="M1707.16,-989.61C1710.09,-958.9 1716.21,-894.81 1719.77,-857.54"/>
<polygon fill="#d9d9d9" stroke="#d9d9d9" points="1723.22,-858.26 1720.69,-847.97 1716.25,-857.59 1723.22,-858.26"/>
</g>
<!-- boiler_solved -->
<g id="node17" class="node">
<title>boiler_solved</title>
<path fill="#280060" stroke="#d9d9d9" d="M547,-1656C547,-1656 422,-1656 422,-1656 416,-1656 410,-1650 410,-1644 410,-1644 410,-1632 410,-1632 410,-1626 416,-1620 422,-1620 422,-1620 547,-1620 547,-1620 553,-1620 559,-1626 559,-1632 559,-1632 559,-1644 559,-1644 559,-1650 553,-1656 547,-1656"/>
<text text-anchor="middle" x="484.5" y="-1634.3" font-family="Helvetica,sans-Serif" font-size="14.00" fill="#e5e5e5">Open the boiler drain</text>
</g>
<!-- frog_hall_access -->
<g id="node33" class="node">
<title>frog_hall_access</title>
<path fill="none" stroke="#d9d9d9" d="M504,-1566C504,-1566 405,-1566 405,-1566 399,-1566 393,-1560 393,-1554 393,-1554 393,-1542 393,-1542 393,-1536 399,-1530 405,-1530 405,-1530 504,-1530 504,-1530 510,-1530 516,-1536 516,-1542 516,-1542 516,-1554 516,-1554 516,-1560 510,-1566 504,-1566"/>
<text text-anchor="middle" x="454.5" y="-1544.3" font-family="Helvetica,sans-Serif" font-size="14.00" fill="#e5e5e5">Frog hall Access</text>
</g>
<!-- boiler_solved&#45;&gt;frog_hall_access -->
<g id="edge18" class="edge">
<title>boiler_solved&#45;&gt;frog_hall_access</title>
<path fill="none" stroke="#d9d9d9" d="M478.57,-1619.61C474.42,-1607.44 468.79,-1590.91 464.01,-1576.91"/>
<polygon fill="#d9d9d9" stroke="#d9d9d9" points="467.44,-1576.12 460.9,-1567.78 460.82,-1578.38 467.44,-1576.12"/>
</g>
<!-- dni_numbers_1_10 -->
<g id="node18" class="node">
<title>dni_numbers_1_10</title>
<path fill="#280060" stroke="#d9d9d9" d="M687,-666C687,-666 568,-666 568,-666 562,-666 556,-660 556,-654 556,-654 556,-642 556,-642 556,-636 562,-630 568,-630 568,-630 687,-630 687,-630 693,-630 699,-636 699,-642 699,-642 699,-654 699,-654 699,-660 693,-666 687,-666"/>
<text text-anchor="middle" x="627.5" y="-644.3" font-family="Helvetica,sans-Serif" font-size="14.00" fill="#e5e5e5">Learn numbers 1&#45;10</text>
</g>
<!-- dni_numbers_11_24 -->
<g id="node19" class="node">
<title>dni_numbers_11_24</title>
<path fill="#280060" stroke="#d9d9d9" d="M840,-576C840,-576 699,-576 699,-576 693,-576 687,-570 687,-564 687,-564 687,-552 687,-552 687,-546 693,-540 699,-540 699,-540 840,-540 840,-540 846,-540 852,-546 852,-552 852,-552 852,-564 852,-564 852,-570 846,-576 840,-576"/>
<text text-anchor="middle" x="769.5" y="-554.3" font-family="Helvetica,sans-Serif" font-size="14.00" fill="#e5e5e5">Deduce numbers 11&#45;24</text>
</g>
<!-- dni_numbers_1_10&#45;&gt;dni_numbers_11_24 -->
<g id="edge22" class="edge">
<title>dni_numbers_1_10&#45;&gt;dni_numbers_11_24</title>
<path fill="none" stroke="#d9d9d9" d="M655.55,-629.61C677.43,-616.05 708.03,-597.09 732.01,-582.23"/>
<polygon fill="#d9d9d9" stroke="#d9d9d9" points="733.56,-585.39 740.22,-577.15 729.87,-579.44 733.56,-585.39"/>
</g>
<!-- food_chain_learned -->
<g id="node47" class="node">
<title>food_chain_learned</title>
<path fill="none" stroke="#d9d9d9" d="M537,-576C537,-576 408,-576 408,-576 402,-576 396,-570 396,-564 396,-564 396,-552 396,-552 396,-546 402,-540 408,-540 408,-540 537,-540 537,-540 543,-540 549,-546 549,-552 549,-552 549,-564 549,-564 549,-570 543,-576 537,-576"/>
<text text-anchor="middle" x="472.5" y="-554.3" font-family="Helvetica,sans-Serif" font-size="14.00" fill="#e5e5e5">Learn the Food Chain</text>
</g>
<!-- dni_numbers_1_10&#45;&gt;food_chain_learned -->
<g id="edge23" class="edge">
<title>dni_numbers_1_10&#45;&gt;food_chain_learned</title>
<path fill="none" stroke="#d9d9d9" d="M596.88,-629.61C572.78,-615.93 539,-596.76 512.73,-581.84"/>
<polygon fill="#d9d9d9" stroke="#d9d9d9" points="514.8,-578.99 504.38,-577.1 511.34,-585.08 514.8,-578.99"/>
</g>
<!-- telescope_hatch_open -->
<g id="node66" class="node">
<title>telescope_hatch_open</title>
<path fill="none" stroke="#d9d9d9" d="M557.5,-216C557.5,-216 423.5,-216 423.5,-216 417.5,-216 411.5,-210 411.5,-204 411.5,-204 411.5,-192 411.5,-192 411.5,-186 417.5,-180 423.5,-180 423.5,-180 557.5,-180 557.5,-180 563.5,-180 569.5,-186 569.5,-192 569.5,-192 569.5,-204 569.5,-204 569.5,-210 563.5,-216 557.5,-216"/>
<text text-anchor="middle" x="490.5" y="-194.3" font-family="Helvetica,sans-Serif" font-size="14.00" fill="#e5e5e5">Open telescope hatch</text>
</g>
<!-- dni_numbers_1_10&#45;&gt;telescope_hatch_open -->
<g id="edge24" class="edge">
<title>dni_numbers_1_10&#45;&gt;telescope_hatch_open</title>
<path fill="none" stroke="#d9d9d9" d="M630.87,-629.9C636.81,-598.27 648.5,-528.43 648.5,-469 648.5,-469 648.5,-469 648.5,-377 648.5,-306.98 579.28,-251.67 532.47,-222.27"/>
<polygon fill="#d9d9d9" stroke="#d9d9d9" points="534.5,-219.41 524.15,-217.19 530.85,-225.39 534.5,-219.41"/>
</g>
<!-- dome_access -->
<g id="node44" class="node">
<title>dome_access</title>
<path fill="none" stroke="#d9d9d9" d="M900.5,-486C900.5,-486 758.5,-486 758.5,-486 752.5,-486 746.5,-480 746.5,-474 746.5,-474 746.5,-462 746.5,-462 746.5,-456 752.5,-450 758.5,-450 758.5,-450 900.5,-450 900.5,-450 906.5,-450 912.5,-456 912.5,-462 912.5,-462 912.5,-474 912.5,-474 912.5,-480 906.5,-486 900.5,-486"/>
<text text-anchor="middle" x="829.5" y="-464.3" font-family="Helvetica,sans-Serif" font-size="14.00" fill="#e5e5e5">Get inside baby domes</text>
</g>
<!-- dni_numbers_11_24&#45;&gt;dome_access -->
<g id="edge25" class="edge">
<title>dni_numbers_11_24&#45;&gt;dome_access</title>
<path fill="none" stroke="#d9d9d9" d="M781.35,-539.61C789.9,-527.08 801.59,-509.93 811.32,-495.67"/>
<polygon fill="#d9d9d9" stroke="#d9d9d9" points="814.08,-497.83 816.82,-487.6 808.29,-493.89 814.08,-497.83"/>
</g>
<!-- dome_coordinates_learned -->
<g id="node20" class="node">
<title>dome_coordinates_learned</title>
<path fill="#280060" stroke="#d9d9d9" d="M1676,-666C1676,-666 1485,-666 1485,-666 1479,-666 1473,-660 1473,-654 1473,-654 1473,-642 1473,-642 1473,-636 1479,-630 1485,-630 1485,-630 1676,-630 1676,-630 1682,-630 1688,-636 1688,-642 1688,-642 1688,-654 1688,-654 1688,-660 1682,-666 1676,-666"/>
<text text-anchor="middle" x="1580.5" y="-644.3" font-family="Helvetica,sans-Serif" font-size="14.00" fill="#e5e5e5">Learn Baby Dome Coordinates</text>
</g>
<!-- dome_coordinates_learned&#45;&gt;dome_power -->
<g id="edge28" class="edge">
<title>dome_coordinates_learned&#45;&gt;dome_power</title>
<path fill="none" stroke="#d9d9d9" d="M1551.26,-629.61C1528.46,-616.05 1496.57,-597.09 1471.57,-582.23"/>
<polygon fill="#d9d9d9" stroke="#d9d9d9" points="1473.36,-579.23 1462.98,-577.12 1469.79,-585.24 1473.36,-579.23"/>
</g>
<!-- frog_hall_door_secret -->
<g id="node21" class="node">
<title>frog_hall_door_secret</title>
<path fill="#280060" stroke="#d9d9d9" d="M1159,-1476C1159,-1476 958,-1476 958,-1476 952,-1476 946,-1470 946,-1464 946,-1464 946,-1452 946,-1452 946,-1446 952,-1440 958,-1440 958,-1440 1159,-1440 1159,-1440 1165,-1440 1171,-1446 1171,-1452 1171,-1452 1171,-1464 1171,-1464 1171,-1470 1165,-1476 1159,-1476"/>
<text text-anchor="middle" x="1058.5" y="-1454.3" font-family="Helvetica,sans-Serif" font-size="14.00" fill="#e5e5e5">BEHIND THE FUCKING DOOR</text>
</g>
<!-- big_dome_access_full -->
<g id="node35" class="node">
<title>big_dome_access_full</title>
<path fill="none" stroke="#d9d9d9" d="M1559.5,-936C1559.5,-936 1449.5,-936 1449.5,-936 1443.5,-936 1437.5,-930 1437.5,-924 1437.5,-924 1437.5,-912 1437.5,-912 1437.5,-906 1443.5,-900 1449.5,-900 1449.5,-900 1559.5,-900 1559.5,-900 1565.5,-900 1571.5,-906 1571.5,-912 1571.5,-912 1571.5,-924 1571.5,-924 1571.5,-930 1565.5,-936 1559.5,-936"/>
<text text-anchor="middle" x="1504.5" y="-914.3" font-family="Helvetica,sans-Serif" font-size="14.00" fill="#e5e5e5">Full Dome Access</text>
</g>
<!-- frog_hall_door_secret&#45;&gt;big_dome_access_full -->
<g id="edge34" class="edge">
<title>frog_hall_door_secret&#45;&gt;big_dome_access_full</title>
<path fill="none" stroke="#d9d9d9" d="M1163.28,-1439.59C1250.5,-1418.4 1360.5,-1373.03 1360.5,-1279 1360.5,-1279 1360.5,-1279 1360.5,-1097 1360.5,-1048.06 1357.52,-1029.44 1386.5,-990 1402.03,-968.87 1425.92,-952.81 1448.15,-941.35"/>
<polygon fill="#d9d9d9" stroke="#d9d9d9" points="1449.42,-944.63 1456.85,-937.08 1446.33,-938.35 1449.42,-944.63"/>
</g>
<!-- boiler_island_dome_door_secret -->
<g id="node40" class="node">
<title>boiler_island_dome_door_secret</title>
<path fill="none" stroke="#d9d9d9" d="M1133,-1386C1133,-1386 984,-1386 984,-1386 978,-1386 972,-1380 972,-1374 972,-1374 972,-1362 972,-1362 972,-1356 978,-1350 984,-1350 984,-1350 1133,-1350 1133,-1350 1139,-1350 1145,-1356 1145,-1362 1145,-1362 1145,-1374 1145,-1374 1145,-1380 1139,-1386 1133,-1386"/>
<text text-anchor="middle" x="1058.5" y="-1364.3" font-family="Helvetica,sans-Serif" font-size="14.00" fill="#e5e5e5">behind the OTHER door</text>
</g>
<!-- frog_hall_door_secret&#45;&gt;boiler_island_dome_door_secret -->
<g id="edge35" class="edge">
<title>frog_hall_door_secret&#45;&gt;boiler_island_dome_door_secret</title>
<path fill="none" stroke="#d9d9d9" d="M1058.5,-1439.61C1058.5,-1427.68 1058.5,-1411.57 1058.5,-1397.74"/>
<polygon fill="#d9d9d9" stroke="#d9d9d9" points="1062,-1397.86 1058.5,-1387.86 1055,-1397.86 1062,-1397.86"/>
</g>
<!-- boiler_island_vent_fan_off -->
<g id="node41" class="node">
<title>boiler_island_vent_fan_off</title>
<path fill="none" stroke="#d9d9d9" d="M930,-1386C930,-1386 845,-1386 845,-1386 839,-1386 833,-1380 833,-1374 833,-1374 833,-1362 833,-1362 833,-1356 839,-1350 845,-1350 845,-1350 930,-1350 930,-1350 936,-1350 942,-1356 942,-1362 942,-1362 942,-1374 942,-1374 942,-1380 936,-1386 930,-1386"/>
<text text-anchor="middle" x="887.5" y="-1364.3" font-family="Helvetica,sans-Serif" font-size="14.00" fill="#e5e5e5">turn off the AC</text>
</g>
<!-- frog_hall_door_secret&#45;&gt;boiler_island_vent_fan_off -->
<g id="edge36" class="edge">
<title>frog_hall_door_secret&#45;&gt;boiler_island_vent_fan_off</title>
<path fill="none" stroke="#d9d9d9" d="M1024.72,-1439.61C997.9,-1425.81 960.21,-1406.42 931.11,-1391.45"/>
<polygon fill="#d9d9d9" stroke="#d9d9d9" points="933.05,-1388.51 922.56,-1387.04 929.85,-1394.73 933.05,-1388.51"/>
</g>
<!-- island_color_boiler -->
<g id="node54" class="node">
<title>island_color_boiler</title>
<path fill="none" stroke="#d9d9d9" d="M1300.5,-1296C1300.5,-1296 1114.5,-1296 1114.5,-1296 1108.5,-1296 1102.5,-1290 1102.5,-1284 1102.5,-1284 1102.5,-1272 1102.5,-1272 1102.5,-1266 1108.5,-1260 1114.5,-1260 1114.5,-1260 1300.5,-1260 1300.5,-1260 1306.5,-1260 1312.5,-1266 1312.5,-1272 1312.5,-1272 1312.5,-1284 1312.5,-1284 1312.5,-1290 1306.5,-1296 1300.5,-1296"/>
<text text-anchor="middle" x="1207.5" y="-1274.3" font-family="Helvetica,sans-Serif" font-size="14.00" fill="#e5e5e5">find boiler island dome symbol</text>
</g>
<!-- frog_hall_door_secret&#45;&gt;island_color_boiler -->
<g id="edge37" class="edge">
<title>frog_hall_door_secret&#45;&gt;island_color_boiler</title>
<path fill="none" stroke="#d9d9d9" d="M1090.79,-1439.69C1111.94,-1427.06 1138.99,-1408.29 1157.5,-1386 1177,-1362.52 1190.72,-1330.17 1198.8,-1307.2"/>
<polygon fill="#d9d9d9" stroke="#d9d9d9" points="1202.06,-1308.48 1201.93,-1297.89 1195.43,-1306.25 1202.06,-1308.48"/>
</g>
<!-- gehn_trapped -->
<g id="node22" class="node">
<title>gehn_trapped</title>
<path fill="#280060" stroke="#d9d9d9" d="M186,-306C186,-306 125,-306 125,-306 119,-306 113,-300 113,-294 113,-294 113,-282 113,-282 113,-276 119,-270 125,-270 125,-270 186,-270 186,-270 192,-270 198,-276 198,-282 198,-282 198,-294 198,-294 198,-300 192,-306 186,-306"/>
<text text-anchor="middle" x="155.5" y="-284.3" font-family="Helvetica,sans-Serif" font-size="14.00" fill="#e5e5e5">Trap Gehn</text>
</g>
<!-- gehn_trapped&#45;&gt;ending_free_gehn -->
<g id="edge43" class="edge">
<title>gehn_trapped&#45;&gt;ending_free_gehn</title>
<path fill="none" stroke="#d9d9d9" d="M171.31,-269.61C182.92,-256.84 198.89,-239.27 212,-224.85"/>
<polygon fill="#d9d9d9" stroke="#d9d9d9" points="214.57,-227.22 218.71,-217.47 209.39,-222.51 214.57,-227.22"/>
</g>
<!-- gehn_trapped&#45;&gt;ending_good -->
<g id="edge44" class="edge">
<title>gehn_trapped&#45;&gt;ending_good</title>
<path fill="none" stroke="#d9d9d9" d="M155.5,-269.83C155.5,-224.93 155.5,-103.69 155.5,-47.86"/>
<polygon fill="#d9d9d9" stroke="#d9d9d9" points="159,-47.89 155.5,-37.89 152,-47.89 159,-47.89"/>
</g>
<!-- gehn_trapped&#45;&gt;ending_no_wife -->
<g id="edge45" class="edge">
<title>gehn_trapped&#45;&gt;ending_no_wife</title>
<path fill="none" stroke="#d9d9d9" d="M198.22,-269.5C232.98,-254.38 278.08,-232.43 289.5,-216 324.82,-165.19 323.41,-88.87 319.4,-47.73"/>
<polygon fill="#d9d9d9" stroke="#d9d9d9" points="322.89,-47.45 318.31,-37.9 315.93,-48.23 322.89,-47.45"/>
</g>
<!-- gehn_ringtone_learned -->
<g id="node52" class="node">
<title>gehn_ringtone_learned</title>
<path fill="none" stroke="#d9d9d9" d="M105,-216C105,-216 12,-216 12,-216 6,-216 0,-210 0,-204 0,-204 0,-192 0,-192 0,-186 6,-180 12,-180 12,-180 105,-180 105,-180 111,-180 117,-186 117,-192 117,-192 117,-204 117,-204 117,-210 111,-216 105,-216"/>
<text text-anchor="middle" x="58.5" y="-194.3" font-family="Helvetica,sans-Serif" font-size="14.00" fill="#e5e5e5">Gehn&#39;s ringtone</text>
</g>
<!-- gehn_trapped&#45;&gt;gehn_ringtone_learned -->
<g id="edge46" class="edge">
<title>gehn_trapped&#45;&gt;gehn_ringtone_learned</title>
<path fill="none" stroke="#d9d9d9" d="M136.34,-269.61C121.99,-256.6 102.15,-238.6 86.1,-224.04"/>
<polygon fill="#d9d9d9" stroke="#d9d9d9" points="88.5,-221.49 78.75,-217.37 83.8,-226.68 88.5,-221.49"/>
</g>
<!-- island_colors_learned -->
<g id="node23" class="node">
<title>island_colors_learned</title>
<path fill="#280060" stroke="#d9d9d9" d="M1317.5,-666C1317.5,-666 1201.5,-666 1201.5,-666 1195.5,-666 1189.5,-660 1189.5,-654 1189.5,-654 1189.5,-642 1189.5,-642 1189.5,-636 1195.5,-630 1201.5,-630 1201.5,-630 1317.5,-630 1317.5,-630 1323.5,-630 1329.5,-636 1329.5,-642 1329.5,-642 1329.5,-654 1329.5,-654 1329.5,-660 1323.5,-666 1317.5,-666"/>
<text text-anchor="middle" x="1259.5" y="-644.3" font-family="Helvetica,sans-Serif" font-size="14.00" fill="#e5e5e5">Learn Island Colors</text>
</g>
<!-- island_colors_learned&#45;&gt;dome_power -->
<g id="edge54" class="edge">
<title>island_colors_learned&#45;&gt;dome_power</title>
<path fill="none" stroke="#d9d9d9" d="M1293.68,-629.61C1320.81,-615.81 1358.94,-596.42 1388.38,-581.45"/>
<polygon fill="#d9d9d9" stroke="#d9d9d9" points="1389.72,-584.69 1397.04,-577.04 1386.54,-578.45 1389.72,-584.69"/>
</g>
<!-- map_island_maglev_rotated -->
<g id="node24" class="node">
<title>map_island_maglev_rotated</title>
<path fill="#280060" stroke="#d9d9d9" d="M1100.5,-1026C1100.5,-1026 908.5,-1026 908.5,-1026 902.5,-1026 896.5,-1020 896.5,-1014 896.5,-1014 896.5,-1002 896.5,-1002 896.5,-996 902.5,-990 908.5,-990 908.5,-990 1100.5,-990 1100.5,-990 1106.5,-990 1112.5,-996 1112.5,-1002 1112.5,-1002 1112.5,-1014 1112.5,-1014 1112.5,-1020 1106.5,-1026 1100.5,-1026"/>
<text text-anchor="middle" x="1004.5" y="-1004.3" font-family="Helvetica,sans-Serif" font-size="14.00" fill="#e5e5e5">Turn the fucking maglev around</text>
</g>
<!-- map_island_basement_access -->
<g id="node59" class="node">
<title>map_island_basement_access</title>
<path fill="none" stroke="#d9d9d9" d="M1031,-936C1031,-936 902,-936 902,-936 896,-936 890,-930 890,-924 890,-924 890,-912 890,-912 890,-906 896,-900 902,-900 902,-900 1031,-900 1031,-900 1037,-900 1043,-906 1043,-912 1043,-912 1043,-924 1043,-924 1043,-930 1037,-936 1031,-936"/>
<text text-anchor="middle" x="966.5" y="-914.3" font-family="Helvetica,sans-Serif" font-size="14.00" fill="#e5e5e5">Map island basement</text>
</g>
<!-- map_island_maglev_rotated&#45;&gt;map_island_basement_access -->
<g id="edge61" class="edge">
<title>map_island_maglev_rotated&#45;&gt;map_island_basement_access</title>
<path fill="none" stroke="#d9d9d9" d="M996.99,-989.61C991.74,-977.44 984.6,-960.91 978.55,-946.91"/>
<polygon fill="#d9d9d9" stroke="#d9d9d9" points="981.77,-945.53 974.59,-937.74 975.34,-948.31 981.77,-945.53"/>
</g>
<!-- orb_all&#45;&gt;food_chain_learned -->
<g id="edge62" class="edge">
<title>orb_all&#45;&gt;food_chain_learned</title>
<path fill="none" stroke="#d9d9d9" d="M279.07,-719.73C301.35,-698.07 341.26,-660.12 377.5,-630 397.19,-613.64 420.16,-596.42 438.58,-583.04"/>
<polygon fill="#d9d9d9" stroke="#d9d9d9" points="440.47,-585.99 446.53,-577.3 436.37,-580.32 440.47,-585.99"/>
</g>
<!-- rotating_room_complete -->
<g id="node26" class="node">
<title>rotating_room_complete</title>
<path fill="#280060" stroke="#d9d9d9" d="M1769.5,-1206C1769.5,-1206 1641.5,-1206 1641.5,-1206 1635.5,-1206 1629.5,-1200 1629.5,-1194 1629.5,-1194 1629.5,-1182 1629.5,-1182 1629.5,-1176 1635.5,-1170 1641.5,-1170 1641.5,-1170 1769.5,-1170 1769.5,-1170 1775.5,-1170 1781.5,-1176 1781.5,-1182 1781.5,-1182 1781.5,-1194 1781.5,-1194 1781.5,-1200 1775.5,-1206 1769.5,-1206"/>
<text text-anchor="middle" x="1705.5" y="-1184.3" font-family="Helvetica,sans-Serif" font-size="14.00" fill="#e5e5e5">Rotating Room 100%</text>
</g>
<!-- big_dome_access_basic -->
<g id="node34" class="node">
<title>big_dome_access_basic</title>
<path fill="none" stroke="#d9d9d9" d="M1765,-1116C1765,-1116 1646,-1116 1646,-1116 1640,-1116 1634,-1110 1634,-1104 1634,-1104 1634,-1092 1634,-1092 1634,-1086 1640,-1080 1646,-1080 1646,-1080 1765,-1080 1765,-1080 1771,-1080 1777,-1086 1777,-1092 1777,-1092 1777,-1104 1777,-1104 1777,-1110 1771,-1116 1765,-1116"/>
<text text-anchor="middle" x="1705.5" y="-1094.3" font-family="Helvetica,sans-Serif" font-size="14.00" fill="#e5e5e5">Basic dome access</text>
</g>
<!-- rotating_room_complete&#45;&gt;big_dome_access_basic -->
<g id="edge68" class="edge">
<title>rotating_room_complete&#45;&gt;big_dome_access_basic</title>
<path fill="none" stroke="#d9d9d9" d="M1705.5,-1169.61C1705.5,-1157.68 1705.5,-1141.57 1705.5,-1127.74"/>
<polygon fill="#d9d9d9" stroke="#d9d9d9" points="1709,-1127.86 1705.5,-1117.86 1702,-1127.86 1709,-1127.86"/>
</g>
<!-- rotating_room_partial -->
<g id="node61" class="node">
<title>rotating_room_partial</title>
<path fill="none" stroke="#d9d9d9" d="M1765.5,-1296C1765.5,-1296 1645.5,-1296 1645.5,-1296 1639.5,-1296 1633.5,-1290 1633.5,-1284 1633.5,-1284 1633.5,-1272 1633.5,-1272 1633.5,-1266 1639.5,-1260 1645.5,-1260 1645.5,-1260 1765.5,-1260 1765.5,-1260 1771.5,-1260 1777.5,-1266 1777.5,-1272 1777.5,-1272 1777.5,-1284 1777.5,-1284 1777.5,-1290 1771.5,-1296 1765.5,-1296"/>
<text text-anchor="middle" x="1705.5" y="-1274.3" font-family="Helvetica,sans-Serif" font-size="14.00" fill="#e5e5e5">Rotating Room 50%</text>
</g>
<!-- rotating_room_shit_door&#45;&gt;rotating_room_partial -->
<g id="edge71" class="edge">
<title>rotating_room_shit_door&#45;&gt;rotating_room_partial</title>
<path fill="none" stroke="#d9d9d9" d="M974.86,-1812.54C1148.59,-1800.29 1558.5,-1758.72 1558.5,-1639 1558.5,-1639 1558.5,-1639 1558.5,-1457 1558.5,-1388.81 1623.43,-1332.64 1666.98,-1302.63"/>
<polygon fill="#d9d9d9" stroke="#d9d9d9" points="1668.84,-1305.59 1675.2,-1297.12 1664.95,-1299.78 1668.84,-1305.59"/>
</g>
<!-- submarine_lever_room_solved -->
<g id="node28" class="node">
<title>submarine_lever_room_solved</title>
<path fill="#280060" stroke="#d9d9d9" d="M702,-846C702,-846 573,-846 573,-846 567,-846 561,-840 561,-834 561,-834 561,-822 561,-822 561,-816 567,-810 573,-810 573,-810 702,-810 702,-810 708,-810 714,-816 714,-822 714,-822 714,-834 714,-834 714,-840 708,-846 702,-846"/>
<text text-anchor="middle" x="637.5" y="-824.3" font-family="Helvetica,sans-Serif" font-size="14.00" fill="#e5e5e5">Figure out lever room</text>
</g>
<!-- village_island_execution_platform_access -->
<g id="node70" class="node">
<title>village_island_execution_platform_access</title>
<path fill="none" stroke="#d9d9d9" d="M518,-756C518,-756 363,-756 363,-756 357,-756 351,-750 351,-744 351,-744 351,-732 351,-732 351,-726 357,-720 363,-720 363,-720 518,-720 518,-720 524,-720 530,-726 530,-732 530,-732 530,-744 530,-744 530,-750 524,-756 518,-756"/>
<text text-anchor="middle" x="440.5" y="-734.3" font-family="Helvetica,sans-Serif" font-size="14.00" fill="#e5e5e5">Reach execution platform</text>
</g>
<!-- submarine_lever_room_solved&#45;&gt;village_island_execution_platform_access -->
<g id="edge79" class="edge">
<title>submarine_lever_room_solved&#45;&gt;village_island_execution_platform_access</title>
<path fill="none" stroke="#d9d9d9" d="M598.58,-809.61C567.28,-795.63 523.13,-775.91 489.43,-760.86"/>
<polygon fill="#d9d9d9" stroke="#d9d9d9" points="491.28,-757.85 480.72,-756.97 488.42,-764.24 491.28,-757.85"/>
</g>
<!-- village_island_school_access -->
<g id="node74" class="node">
<title>village_island_school_access</title>
<path fill="none" stroke="#d9d9d9" d="M647.5,-756C647.5,-756 567.5,-756 567.5,-756 561.5,-756 555.5,-750 555.5,-744 555.5,-744 555.5,-732 555.5,-732 555.5,-726 561.5,-720 567.5,-720 567.5,-720 647.5,-720 647.5,-720 653.5,-720 659.5,-726 659.5,-732 659.5,-732 659.5,-744 659.5,-744 659.5,-750 653.5,-756 647.5,-756"/>
<text text-anchor="middle" x="607.5" y="-734.3" font-family="Helvetica,sans-Serif" font-size="14.00" fill="#e5e5e5">School house</text>
</g>
<!-- submarine_lever_room_solved&#45;&gt;village_island_school_access -->
<g id="edge80" class="edge">
<title>submarine_lever_room_solved&#45;&gt;village_island_school_access</title>
<path fill="none" stroke="#d9d9d9" d="M631.57,-809.61C627.42,-797.44 621.79,-780.91 617.01,-766.91"/>
<polygon fill="#d9d9d9" stroke="#d9d9d9" points="620.44,-766.12 613.9,-757.78 613.82,-768.38 620.44,-766.12"/>
</g>
<!-- telescope_stop -->
<g id="node29" class="node">
<title>telescope_stop</title>
<path fill="#280060" stroke="#d9d9d9" d="M371.5,-306C371.5,-306 235.5,-306 235.5,-306 229.5,-306 223.5,-300 223.5,-294 223.5,-294 223.5,-282 223.5,-282 223.5,-276 229.5,-270 235.5,-270 235.5,-270 371.5,-270 371.5,-270 377.5,-270 383.5,-276 383.5,-282 383.5,-282 383.5,-294 383.5,-294 383.5,-300 377.5,-306 371.5,-306"/>
<text text-anchor="middle" x="303.5" y="-284.3" font-family="Helvetica,sans-Serif" font-size="14.00" fill="#e5e5e5">Learn Telescope Stop</text>
</g>
<!-- signal_atrus -->
<g id="node62" class="node">
<title>signal_atrus</title>
<path fill="none" stroke="#d9d9d9" d="M470.5,-126C470.5,-126 400.5,-126 400.5,-126 394.5,-126 388.5,-120 388.5,-114 388.5,-114 388.5,-102 388.5,-102 388.5,-96 394.5,-90 400.5,-90 400.5,-90 470.5,-90 470.5,-90 476.5,-90 482.5,-96 482.5,-102 482.5,-102 482.5,-114 482.5,-114 482.5,-120 476.5,-126 470.5,-126"/>
<text text-anchor="middle" x="435.5" y="-104.3" font-family="Helvetica,sans-Serif" font-size="14.00" fill="#e5e5e5">Signal Atrus</text>
</g>
<!-- telescope_stop&#45;&gt;signal_atrus -->
<g id="edge88" class="edge">
<title>telescope_stop&#45;&gt;signal_atrus</title>
<path fill="none" stroke="#d9d9d9" d="M316.4,-269.61C339.56,-238.37 388.35,-172.58 415.75,-135.63"/>
<polygon fill="#d9d9d9" stroke="#d9d9d9" points="418.5,-137.8 421.65,-127.68 412.88,-133.63 418.5,-137.8"/>
</g>
<!-- village_island_animal_room_access -->
<g id="node30" class="node">
<title>village_island_animal_room_access</title>
<path fill="#280060" stroke="#d9d9d9" d="M359,-576C359,-576 214,-576 214,-576 208,-576 202,-570 202,-564 202,-564 202,-552 202,-552 202,-546 208,-540 214,-540 214,-540 359,-540 359,-540 365,-540 371,-546 371,-552 371,-552 371,-564 371,-564 371,-570 365,-576 359,-576"/>
<text text-anchor="middle" x="286.5" y="-554.3" font-family="Helvetica,sans-Serif" font-size="14.00" fill="#e5e5e5">Find secret animal room</text>
</g>
<!-- tay_visited -->
<g id="node63" class="node">
<title>tay_visited</title>
<path fill="none" stroke="#d9d9d9" d="M348,-486C348,-486 225,-486 225,-486 219,-486 213,-480 213,-474 213,-474 213,-462 213,-462 213,-456 219,-450 225,-450 225,-450 348,-450 348,-450 354,-450 360,-456 360,-462 360,-462 360,-474 360,-474 360,-480 354,-486 348,-486"/>
<text text-anchor="middle" x="286.5" y="-464.3" font-family="Helvetica,sans-Serif" font-size="14.00" fill="#e5e5e5">Moiety Age Fieldtrip</text>
</g>
<!-- village_island_animal_room_access&#45;&gt;tay_visited -->
<g id="edge90" class="edge">
<title>village_island_animal_room_access&#45;&gt;tay_visited</title>
<path fill="none" stroke="#d9d9d9" d="M286.5,-539.61C286.5,-527.68 286.5,-511.57 286.5,-497.74"/>
<polygon fill="#d9d9d9" stroke="#d9d9d9" points="290,-497.86 286.5,-487.86 283,-497.86 290,-497.86"/>
</g>
<!-- submarine_found -->
<g id="node31" class="node">
<title>submarine_found</title>
<path fill="none" stroke="#d9d9d9" d="M737,-1656C737,-1656 648,-1656 648,-1656 642,-1656 636,-1650 636,-1644 636,-1644 636,-1632 636,-1632 636,-1626 642,-1620 648,-1620 648,-1620 737,-1620 737,-1620 743,-1620 749,-1626 749,-1632 749,-1632 749,-1644 749,-1644 749,-1650 743,-1656 737,-1656"/>
<text text-anchor="middle" x="692.5" y="-1634.3" font-family="Helvetica,sans-Serif" font-size="14.00" fill="#e5e5e5">Find submarine</text>
</g>
<!-- submarine_found&#45;&gt;submarine_lever_room_solved -->
<g id="edge78" class="edge">
<title>submarine_found&#45;&gt;submarine_lever_room_solved</title>
<path fill="none" stroke="#d9d9d9" d="M692.5,-1619.57C692.5,-1587.69 692.5,-1517.87 692.5,-1459 692.5,-1459 692.5,-1459 692.5,-1007 692.5,-951.55 667.83,-890.53 651.54,-856.28"/>
<polygon fill="#d9d9d9" stroke="#d9d9d9" points="654.78,-854.95 647.25,-847.5 648.49,-858.02 654.78,-854.95"/>
</g>
<!-- frog_caught -->
<g id="node32" class="node">
<title>frog_caught</title>
<path fill="none" stroke="#d9d9d9" d="M304.5,-1476C304.5,-1476 236.5,-1476 236.5,-1476 230.5,-1476 224.5,-1470 224.5,-1464 224.5,-1464 224.5,-1452 224.5,-1452 224.5,-1446 230.5,-1440 236.5,-1440 236.5,-1440 304.5,-1440 304.5,-1440 310.5,-1440 316.5,-1446 316.5,-1452 316.5,-1452 316.5,-1464 316.5,-1464 316.5,-1470 310.5,-1476 304.5,-1476"/>
<text text-anchor="middle" x="270.5" y="-1454.3" font-family="Helvetica,sans-Serif" font-size="14.00" fill="#e5e5e5">Frog caught</text>
</g>
<!-- frog_caught&#45;&gt;orb_frog -->
<g id="edge2" class="edge">
<title>frog_caught&#45;&gt;orb_frog</title>
<g id="a_edge2"><a xlink:title="optionally crossref the frog sound">
<path fill="none" stroke="#d9d9d9" stroke-dasharray="5,2" d="M267.08,-1439.73C255.71,-1382.43 219.17,-1198.18 205.1,-1127.22"/>
<polygon fill="#d9d9d9" stroke="#d9d9d9" points="208.56,-1126.71 203.18,-1117.58 201.7,-1128.07 208.56,-1126.71"/>
</a>
</g>
</g>
<!-- frog_hall_access&#45;&gt;frog_hall_door_secret -->
<g id="edge33" class="edge">
<title>frog_hall_access&#45;&gt;frog_hall_door_secret</title>
<path fill="none" stroke="#d9d9d9" d="M516.19,-1532.38C520.35,-1531.53 524.48,-1530.73 528.5,-1530 666.68,-1504.93 826.62,-1484.7 934.35,-1472.34"/>
<polygon fill="#d9d9d9" stroke="#d9d9d9" points="934.54,-1475.84 944.08,-1471.23 933.75,-1468.88 934.54,-1475.84"/>
</g>
<!-- frog_hall_access&#45;&gt;frog_caught -->
<g id="edge32" class="edge">
<title>frog_hall_access&#45;&gt;frog_caught</title>
<path fill="none" stroke="#d9d9d9" d="M418.15,-1529.61C389.17,-1515.75 348.38,-1496.25 317.02,-1481.25"/>
<polygon fill="#d9d9d9" stroke="#d9d9d9" points="318.67,-1478.16 308.14,-1477 315.65,-1484.47 318.67,-1478.16"/>
</g>
<!-- big_dome_access_basic&#45;&gt;big_dome_upper_stairs_lever_found -->
<g id="edge5" class="edge">
<title>big_dome_access_basic&#45;&gt;big_dome_upper_stairs_lever_found</title>
<path fill="none" stroke="#d9d9d9" d="M1705.5,-1079.61C1705.5,-1067.68 1705.5,-1051.57 1705.5,-1037.74"/>
<polygon fill="#d9d9d9" stroke="#d9d9d9" points="1709,-1037.86 1705.5,-1027.86 1702,-1037.86 1709,-1037.86"/>
</g>
<!-- big_dome_backdoor_bridge_power -->
<g id="node37" class="node">
<title>big_dome_backdoor_bridge_power</title>
<path fill="none" stroke="#d9d9d9" d="M1600,-1026C1600,-1026 1411,-1026 1411,-1026 1405,-1026 1399,-1020 1399,-1014 1399,-1014 1399,-1002 1399,-1002 1399,-996 1405,-990 1411,-990 1411,-990 1600,-990 1600,-990 1606,-990 1612,-996 1612,-1002 1612,-1002 1612,-1014 1612,-1014 1612,-1020 1606,-1026 1600,-1026"/>
<text text-anchor="middle" x="1505.5" y="-1004.3" font-family="Helvetica,sans-Serif" font-size="14.00" fill="#e5e5e5">Power Dome Backdoor Bridge</text>
</g>
<!-- big_dome_access_basic&#45;&gt;big_dome_backdoor_bridge_power -->
<g id="edge4" class="edge">
<title>big_dome_access_basic&#45;&gt;big_dome_backdoor_bridge_power</title>
<path fill="none" stroke="#d9d9d9" d="M1665.99,-1079.61C1634.21,-1065.63 1589.38,-1045.91 1555.18,-1030.86"/>
<polygon fill="#d9d9d9" stroke="#d9d9d9" points="1556.88,-1027.78 1546.32,-1026.96 1554.06,-1034.19 1556.88,-1027.78"/>
</g>
<!-- big_dome_upper_stairs_power -->
<g id="node39" class="node">
<title>big_dome_upper_stairs_power</title>
<path fill="none" stroke="#d9d9d9" d="M1972.5,-1026C1972.5,-1026 1810.5,-1026 1810.5,-1026 1804.5,-1026 1798.5,-1020 1798.5,-1014 1798.5,-1014 1798.5,-1002 1798.5,-1002 1798.5,-996 1804.5,-990 1810.5,-990 1810.5,-990 1972.5,-990 1972.5,-990 1978.5,-990 1984.5,-996 1984.5,-1002 1984.5,-1002 1984.5,-1014 1984.5,-1014 1984.5,-1020 1978.5,-1026 1972.5,-1026"/>
<text text-anchor="middle" x="1891.5" y="-1004.3" font-family="Helvetica,sans-Serif" font-size="14.00" fill="#e5e5e5">Power Upper Dome Stairs</text>
</g>
<!-- big_dome_access_basic&#45;&gt;big_dome_upper_stairs_power -->
<g id="edge6" class="edge">
<title>big_dome_access_basic&#45;&gt;big_dome_upper_stairs_power</title>
<path fill="none" stroke="#d9d9d9" d="M1742.25,-1079.61C1771.54,-1065.75 1812.77,-1046.25 1844.47,-1031.25"/>
<polygon fill="#d9d9d9" stroke="#d9d9d9" points="1845.92,-1034.44 1853.46,-1027 1842.92,-1028.11 1845.92,-1034.44"/>
</g>
<!-- big_dome_access_full&#45;&gt;big_dome_elevator_understood -->
<g id="edge8" class="edge">
<title>big_dome_access_full&#45;&gt;big_dome_elevator_understood</title>
<path fill="none" stroke="#d9d9d9" d="M1504.3,-899.61C1504.17,-887.68 1503.98,-871.57 1503.83,-857.74"/>
<polygon fill="#d9d9d9" stroke="#d9d9d9" points="1507.33,-857.82 1503.71,-847.86 1500.33,-857.9 1507.33,-857.82"/>
</g>
<!-- big_dome_access_full&#45;&gt;big_dome_access_upper -->
<g id="edge7" class="edge">
<title>big_dome_access_full&#45;&gt;big_dome_access_upper</title>
<path fill="none" stroke="#d9d9d9" d="M1547.83,-899.51C1582.53,-885.5 1631.37,-865.78 1668.59,-850.76"/>
<polygon fill="#d9d9d9" stroke="#d9d9d9" points="1669.89,-854.01 1677.85,-847.02 1667.26,-847.52 1669.89,-854.01"/>
</g>
<!-- big_dome_access_upper&#45;&gt;big_dome_power_button_found -->
<g id="edge10" class="edge">
<title>big_dome_access_upper&#45;&gt;big_dome_power_button_found</title>
<path fill="none" stroke="#d9d9d9" d="M1773.3,-809.52C1797.63,-798.29 1824.48,-781.03 1838.5,-756 1852.13,-731.67 1845.18,-699.46 1836.97,-676.76"/>
<polygon fill="#d9d9d9" stroke="#d9d9d9" points="1840.27,-675.58 1833.35,-667.56 1833.75,-678.14 1840.27,-675.58"/>
</g>
<!-- big_dome_needs_coordinates -->
<g id="node38" class="node">
<title>big_dome_needs_coordinates</title>
<path fill="none" stroke="#d9d9d9" d="M1814,-756C1814,-756 1631,-756 1631,-756 1625,-756 1619,-750 1619,-744 1619,-744 1619,-732 1619,-732 1619,-726 1625,-720 1631,-720 1631,-720 1814,-720 1814,-720 1820,-720 1826,-726 1826,-732 1826,-732 1826,-744 1826,-744 1826,-750 1820,-756 1814,-756"/>
<text text-anchor="middle" x="1722.5" y="-734.3" font-family="Helvetica,sans-Serif" font-size="14.00" fill="#e5e5e5">Realize you need coordinates</text>
</g>
<!-- big_dome_access_upper&#45;&gt;big_dome_needs_coordinates -->
<g id="edge9" class="edge">
<title>big_dome_access_upper&#45;&gt;big_dome_needs_coordinates</title>
<path fill="none" stroke="#d9d9d9" d="M1722.5,-809.61C1722.5,-797.68 1722.5,-781.57 1722.5,-767.74"/>
<polygon fill="#d9d9d9" stroke="#d9d9d9" points="1726,-767.86 1722.5,-757.86 1719,-767.86 1726,-767.86"/>
</g>
<!-- big_dome_backdoor_bridge_power&#45;&gt;big_dome_access_full -->
<g id="edge11" class="edge">
<title>big_dome_backdoor_bridge_power&#45;&gt;big_dome_access_full</title>
<path fill="none" stroke="#d9d9d9" d="M1505.3,-989.61C1505.17,-977.68 1504.98,-961.57 1504.83,-947.74"/>
<polygon fill="#d9d9d9" stroke="#d9d9d9" points="1508.33,-947.82 1504.71,-937.86 1501.33,-947.9 1508.33,-947.82"/>
</g>
<!-- big_dome_needs_coordinates&#45;&gt;dome_coordinates_learned -->
<g id="edge13" class="edge">
<title>big_dome_needs_coordinates&#45;&gt;dome_coordinates_learned</title>
<path fill="none" stroke="#d9d9d9" d="M1694.45,-719.61C1672.57,-706.05 1641.97,-687.09 1617.99,-672.23"/>
<polygon fill="#d9d9d9" stroke="#d9d9d9" points="1620.13,-669.44 1609.78,-667.15 1616.44,-675.39 1620.13,-669.44"/>
</g>
<!-- big_dome_upper_stairs_power&#45;&gt;big_dome_access_upper -->
<g id="edge16" class="edge">
<title>big_dome_upper_stairs_power&#45;&gt;big_dome_access_upper</title>
<path fill="none" stroke="#d9d9d9" d="M1874.99,-989.61C1845.08,-958.1 1781.8,-891.46 1746.9,-854.69"/>
<polygon fill="#d9d9d9" stroke="#d9d9d9" points="1749.54,-852.4 1740.12,-847.56 1744.47,-857.22 1749.54,-852.4"/>
</g>
<!-- boiler_island_dome_door_secret&#45;&gt;island_color_boiler -->
<g id="edge1" class="edge">
<title>boiler_island_dome_door_secret&#45;&gt;island_color_boiler</title>
<g id="a_edge1"><a xlink:title="optionally read the symbol without motion blur">
<path fill="none" stroke="#d9d9d9" stroke-dasharray="5,2" d="M1087.94,-1349.61C1111,-1335.99 1143.29,-1316.93 1168.5,-1302.04"/>
<polygon fill="#d9d9d9" stroke="#d9d9d9" points="1169.99,-1305.22 1176.82,-1297.12 1166.43,-1299.19 1169.99,-1305.22"/>
</a>
</g>
</g>
<!-- gehn_workshop_access -->
<g id="node53" class="node">
<title>gehn_workshop_access</title>
<path fill="none" stroke="#d9d9d9" d="M954,-1296C954,-1296 801,-1296 801,-1296 795,-1296 789,-1290 789,-1284 789,-1284 789,-1272 789,-1272 789,-1266 795,-1260 801,-1260 801,-1260 954,-1260 954,-1260 960,-1260 966,-1266 966,-1272 966,-1272 966,-1284 966,-1284 966,-1290 960,-1296 954,-1296"/>
<text text-anchor="middle" x="877.5" y="-1274.3" font-family="Helvetica,sans-Serif" font-size="14.00" fill="#e5e5e5">Gehn&#39;s workshop access</text>
</g>
<!-- boiler_island_vent_fan_off&#45;&gt;gehn_workshop_access -->
<g id="edge17" class="edge">
<title>boiler_island_vent_fan_off&#45;&gt;gehn_workshop_access</title>
<path fill="none" stroke="#d9d9d9" d="M885.52,-1349.61C884.17,-1337.68 882.34,-1321.57 880.77,-1307.74"/>
<polygon fill="#d9d9d9" stroke="#d9d9d9" points="884.25,-1307.39 879.64,-1297.85 877.29,-1308.18 884.25,-1307.39"/>
</g>
<!-- catherine_journal -->
<g id="node42" class="node">
<title>catherine_journal</title>
<path fill="none" stroke="#d9d9d9" d="M281.5,-396C281.5,-396 167.5,-396 167.5,-396 161.5,-396 155.5,-390 155.5,-384 155.5,-384 155.5,-372 155.5,-372 155.5,-366 161.5,-360 167.5,-360 167.5,-360 281.5,-360 281.5,-360 287.5,-360 293.5,-366 293.5,-372 293.5,-372 293.5,-384 293.5,-384 293.5,-390 287.5,-396 281.5,-396"/>
<text text-anchor="middle" x="224.5" y="-374.3" font-family="Helvetica,sans-Serif" font-size="14.00" fill="#e5e5e5">Catherine&#39;s Journal</text>
</g>
<!-- catherine_journal&#45;&gt;telescope_stop -->
<g id="edge20" class="edge">
<title>catherine_journal&#45;&gt;telescope_stop</title>
<path fill="none" stroke="#d9d9d9" d="M240.11,-359.61C251.58,-346.84 267.35,-329.27 280.29,-314.85"/>
<polygon fill="#d9d9d9" stroke="#d9d9d9" points="282.84,-317.26 286.91,-307.48 277.63,-312.58 282.84,-317.26"/>
</g>
<!-- telescope_code -->
<g id="node64" class="node">
<title>telescope_code</title>
<path fill="none" stroke="#d9d9d9" d="M560.5,-306C560.5,-306 420.5,-306 420.5,-306 414.5,-306 408.5,-300 408.5,-294 408.5,-294 408.5,-282 408.5,-282 408.5,-276 414.5,-270 420.5,-270 420.5,-270 560.5,-270 560.5,-270 566.5,-270 572.5,-276 572.5,-282 572.5,-282 572.5,-294 572.5,-294 572.5,-300 566.5,-306 560.5,-306"/>
<text text-anchor="middle" x="490.5" y="-284.3" font-family="Helvetica,sans-Serif" font-size="14.00" fill="#e5e5e5">Learn Telescope Code</text>
</g>
<!-- catherine_journal&#45;&gt;telescope_code -->
<g id="edge19" class="edge">
<title>catherine_journal&#45;&gt;telescope_code</title>
<path fill="none" stroke="#d9d9d9" d="M277.37,-359.51C320.43,-345.26 381.36,-325.11 427.05,-309.99"/>
<polygon fill="#d9d9d9" stroke="#d9d9d9" points="427.9,-313.4 436.29,-306.93 425.7,-306.75 427.9,-313.4"/>
</g>
<!-- dni_colors_learned -->
<g id="node43" class="node">
<title>dni_colors_learned</title>
<path fill="none" stroke="#d9d9d9" d="M1183,-846C1183,-846 1084,-846 1084,-846 1078,-846 1072,-840 1072,-834 1072,-834 1072,-822 1072,-822 1072,-816 1078,-810 1084,-810 1084,-810 1183,-810 1183,-810 1189,-810 1195,-816 1195,-822 1195,-822 1195,-834 1195,-834 1195,-840 1189,-846 1183,-846"/>
<text text-anchor="middle" x="1133.5" y="-824.3" font-family="Helvetica,sans-Serif" font-size="14.00" fill="#e5e5e5">Learn D&#39;ni colors</text>
</g>
<!-- dni_colors_learned&#45;&gt;island_colors_learned -->
<g id="edge21" class="edge">
<title>dni_colors_learned&#45;&gt;island_colors_learned</title>
<path fill="none" stroke="#d9d9d9" d="M1145.81,-809.61C1167.92,-778.37 1214.49,-712.58 1240.65,-675.63"/>
<polygon fill="#d9d9d9" stroke="#d9d9d9" points="1243.34,-677.88 1246.26,-667.7 1237.63,-673.84 1243.34,-677.88"/>
</g>
<!-- gehn_age_access -->
<g id="node49" class="node">
<title>gehn_age_access</title>
<path fill="none" stroke="#d9d9d9" d="M863.5,-396C863.5,-396 795.5,-396 795.5,-396 789.5,-396 783.5,-390 783.5,-384 783.5,-384 783.5,-372 783.5,-372 783.5,-366 789.5,-360 795.5,-360 795.5,-360 863.5,-360 863.5,-360 869.5,-360 875.5,-366 875.5,-372 875.5,-372 875.5,-384 875.5,-384 875.5,-390 869.5,-396 863.5,-396"/>
<text text-anchor="middle" x="829.5" y="-374.3" font-family="Helvetica,sans-Serif" font-size="14.00" fill="#e5e5e5">Gehn&#39;s Age</text>
</g>
<!-- dome_access&#45;&gt;gehn_age_access -->
<g id="edge26" class="edge">
<title>dome_access&#45;&gt;gehn_age_access</title>
<path fill="none" stroke="#d9d9d9" d="M829.5,-449.61C829.5,-437.68 829.5,-421.57 829.5,-407.74"/>
<polygon fill="#d9d9d9" stroke="#d9d9d9" points="833,-407.86 829.5,-397.86 826,-407.86 833,-407.86"/>
</g>
<!-- dome_code -->
<g id="node45" class="node">
<title>dome_code</title>
<path fill="none" stroke="#d9d9d9" d="M918,-1116C918,-1116 813,-1116 813,-1116 807,-1116 801,-1110 801,-1104 801,-1104 801,-1092 801,-1092 801,-1086 807,-1080 813,-1080 813,-1080 918,-1080 918,-1080 924,-1080 930,-1086 930,-1092 930,-1092 930,-1104 930,-1104 930,-1110 924,-1116 918,-1116"/>
<text text-anchor="middle" x="865.5" y="-1094.3" font-family="Helvetica,sans-Serif" font-size="14.00" fill="#e5e5e5">Learn dome code</text>
</g>
<!-- dome_code&#45;&gt;dome_access -->
<g id="edge27" class="edge">
<title>dome_code&#45;&gt;dome_access</title>
<path fill="none" stroke="#d9d9d9" d="M866.52,-1079.69C871.2,-997.48 889.35,-646.16 864.5,-540 860.93,-524.74 853.59,-508.98 846.55,-496.2"/>
<polygon fill="#d9d9d9" stroke="#d9d9d9" points="849.59,-494.46 841.56,-487.55 843.53,-497.96 849.59,-494.46"/>
</g>
<!-- dome_power&#45;&gt;gehn_age_access -->
<g id="edge29" class="edge">
<title>dome_power&#45;&gt;gehn_age_access</title>
<path fill="none" stroke="#d9d9d9" d="M1373.31,-539.53C1257.29,-505.28 1001.35,-429.73 886.84,-395.93"/>
<polygon fill="#d9d9d9" stroke="#d9d9d9" points="887.91,-392.59 877.33,-393.12 885.93,-399.31 887.91,-392.59"/>
</g>
<!-- food_chain_learned&#45;&gt;tay_visited -->
<g id="edge30" class="edge">
<title>food_chain_learned&#45;&gt;tay_visited</title>
<path fill="none" stroke="#d9d9d9" d="M435.75,-539.61C406.46,-525.75 365.23,-506.25 333.53,-491.25"/>
<polygon fill="#d9d9d9" stroke="#d9d9d9" points="335.08,-488.11 324.54,-487 332.08,-494.44 335.08,-488.11"/>
</g>
<!-- free_catherine -->
<g id="node48" class="node">
<title>free_catherine</title>
<path fill="none" stroke="#d9d9d9" d="M104,-126C104,-126 17,-126 17,-126 11,-126 5,-120 5,-114 5,-114 5,-102 5,-102 5,-96 11,-90 17,-90 17,-90 104,-90 104,-90 110,-90 116,-96 116,-102 116,-102 116,-114 116,-114 116,-120 110,-126 104,-126"/>
<text text-anchor="middle" x="60.5" y="-104.3" font-family="Helvetica,sans-Serif" font-size="14.00" fill="#e5e5e5">Free Catherine</text>
</g>
<!-- free_catherine&#45;&gt;ending_good -->
<g id="edge31" class="edge">
<title>free_catherine&#45;&gt;ending_good</title>
<path fill="none" stroke="#d9d9d9" d="M79.27,-89.61C93.32,-76.6 112.75,-58.6 128.47,-44.04"/>
<polygon fill="#d9d9d9" stroke="#d9d9d9" points="130.7,-46.74 135.66,-37.38 125.95,-41.61 130.7,-46.74"/>
</g>
<!-- gehn_age_access&#45;&gt;gehn_trapped -->
<g id="edge39" class="edge">
<title>gehn_age_access&#45;&gt;gehn_trapped</title>
<path fill="none" stroke="#d9d9d9" d="M783.09,-372.8C658.79,-361.39 320.33,-329.06 210.5,-306 210.12,-305.92 209.75,-305.84 209.37,-305.76"/>
<polygon fill="#d9d9d9" stroke="#d9d9d9" points="210.25,-302.37 199.7,-303.41 208.59,-309.17 210.25,-302.37"/>
</g>
<!-- gehn_bothered_x3 -->
<g id="node50" class="node">
<title>gehn_bothered_x3</title>
<path fill="none" stroke="#d9d9d9" d="M866.5,-306C866.5,-306 792.5,-306 792.5,-306 786.5,-306 780.5,-300 780.5,-294 780.5,-294 780.5,-282 780.5,-282 780.5,-276 786.5,-270 792.5,-270 792.5,-270 866.5,-270 866.5,-270 872.5,-270 878.5,-276 878.5,-282 878.5,-282 878.5,-294 878.5,-294 878.5,-300 872.5,-306 866.5,-306"/>
<text text-anchor="middle" x="829.5" y="-284.3" font-family="Helvetica,sans-Serif" font-size="14.00" fill="#e5e5e5">Bother Gehn</text>
</g>
<!-- gehn_age_access&#45;&gt;gehn_bothered_x3 -->
<g id="edge38" class="edge">
<title>gehn_age_access&#45;&gt;gehn_bothered_x3</title>
<path fill="none" stroke="#d9d9d9" d="M829.5,-359.61C829.5,-347.68 829.5,-331.57 829.5,-317.74"/>
<polygon fill="#d9d9d9" stroke="#d9d9d9" points="833,-317.86 829.5,-307.86 826,-317.86 833,-317.86"/>
</g>
<!-- gehn_bothered_x3&#45;&gt;ending_player_shot -->
<g id="edge40" class="edge">
<title>gehn_bothered_x3&#45;&gt;ending_player_shot</title>
<path fill="none" stroke="#d9d9d9" d="M829.5,-269.61C829.5,-257.68 829.5,-241.57 829.5,-227.74"/>
<polygon fill="#d9d9d9" stroke="#d9d9d9" points="833,-227.86 829.5,-217.86 826,-227.86 833,-227.86"/>
</g>
<!-- gehn_journal -->
<g id="node51" class="node">
<title>gehn_journal</title>
<path fill="none" stroke="#d9d9d9" d="M910,-1206C910,-1206 823,-1206 823,-1206 817,-1206 811,-1200 811,-1194 811,-1194 811,-1182 811,-1182 811,-1176 817,-1170 823,-1170 823,-1170 910,-1170 910,-1170 916,-1170 922,-1176 922,-1182 922,-1182 922,-1194 922,-1194 922,-1200 916,-1206 910,-1206"/>
<text text-anchor="middle" x="866.5" y="-1184.3" font-family="Helvetica,sans-Serif" font-size="14.00" fill="#e5e5e5">Gehn&#39;s Journal</text>
</g>
<!-- gehn_journal&#45;&gt;dome_code -->
<g id="edge41" class="edge">
<title>gehn_journal&#45;&gt;dome_code</title>
<path fill="none" stroke="#d9d9d9" d="M866.3,-1169.61C866.17,-1157.68 865.98,-1141.57 865.83,-1127.74"/>
<polygon fill="#d9d9d9" stroke="#d9d9d9" points="869.33,-1127.82 865.71,-1117.86 862.33,-1127.9 869.33,-1127.82"/>
</g>
<!-- gehn_ringtone_learned&#45;&gt;free_catherine -->
<g id="edge42" class="edge">
<title>gehn_ringtone_learned&#45;&gt;free_catherine</title>
<path fill="none" stroke="#d9d9d9" d="M58.9,-179.61C59.17,-167.68 59.53,-151.57 59.85,-137.74"/>
<polygon fill="#d9d9d9" stroke="#d9d9d9" points="63.34,-137.94 60.07,-127.86 56.34,-137.78 63.34,-137.94"/>
</g>
<!-- gehn_workshop_access&#45;&gt;orb_fish -->
<g id="edge49" class="edge">
<title>gehn_workshop_access&#45;&gt;orb_fish</title>
<path fill="none" stroke="#d9d9d9" d="M856.58,-1259.72C840.18,-1245.82 817.1,-1225.47 798.5,-1206 680.05,-1082.04 555.55,-918.16 508.76,-855.19"/>
<polygon fill="#d9d9d9" stroke="#d9d9d9" points="511.85,-853.47 503.09,-847.52 506.23,-857.64 511.85,-853.47"/>
</g>
<!-- gehn_workshop_access&#45;&gt;gehn_journal -->
<g id="edge47" class="edge">
<title>gehn_workshop_access&#45;&gt;gehn_journal</title>
<path fill="none" stroke="#d9d9d9" d="M875.33,-1259.61C873.84,-1247.68 871.82,-1231.57 870.09,-1217.74"/>
<polygon fill="#d9d9d9" stroke="#d9d9d9" points="873.57,-1217.34 868.86,-1207.85 866.62,-1218.21 873.57,-1217.34"/>
</g>
<!-- maglev_call_understood -->
<g id="node58" class="node">
<title>maglev_call_understood</title>
<path fill="none" stroke="#d9d9d9" d="M1160,-1206C1160,-1206 1011,-1206 1011,-1206 1005,-1206 999,-1200 999,-1194 999,-1194 999,-1182 999,-1182 999,-1176 1005,-1170 1011,-1170 1011,-1170 1160,-1170 1160,-1170 1166,-1170 1172,-1176 1172,-1182 1172,-1182 1172,-1194 1172,-1194 1172,-1200 1166,-1206 1160,-1206"/>
<text text-anchor="middle" x="1085.5" y="-1184.3" font-family="Helvetica,sans-Serif" font-size="14.00" fill="#e5e5e5">Blue button calls maglev</text>
</g>
<!-- gehn_workshop_access&#45;&gt;maglev_call_understood -->
<g id="edge48" class="edge">
<title>gehn_workshop_access&#45;&gt;maglev_call_understood</title>
<path fill="none" stroke="#d9d9d9" d="M918.59,-1259.61C951.78,-1245.57 998.66,-1225.74 1034.29,-1210.66"/>
<polygon fill="#d9d9d9" stroke="#d9d9d9" points="1035.25,-1214.06 1043.1,-1206.94 1032.52,-1207.61 1035.25,-1214.06"/>
</g>
<!-- island_color_boiler&#45;&gt;island_colors_learned -->
<g id="edge50" class="edge">
<title>island_color_boiler&#45;&gt;island_colors_learned</title>
<path fill="none" stroke="#d9d9d9" d="M1225.74,-1259.69C1255.07,-1229.88 1309.5,-1165.6 1309.5,-1099 1309.5,-1099 1309.5,-1099 1309.5,-1007 1309.5,-883.15 1279.79,-737.51 1266.17,-677.27"/>
<polygon fill="#d9d9d9" stroke="#d9d9d9" points="1269.66,-676.83 1264.02,-667.86 1262.84,-678.39 1269.66,-676.83"/>
</g>
<!-- island_color_map -->
<g id="node55" class="node">
<title>island_color_map</title>
<path fill="none" stroke="#d9d9d9" d="M1259,-936C1259,-936 1080,-936 1080,-936 1074,-936 1068,-930 1068,-924 1068,-924 1068,-912 1068,-912 1068,-906 1074,-900 1080,-900 1080,-900 1259,-900 1259,-900 1265,-900 1271,-906 1271,-912 1271,-912 1271,-924 1271,-924 1271,-930 1265,-936 1259,-936"/>
<text text-anchor="middle" x="1169.5" y="-914.3" font-family="Helvetica,sans-Serif" font-size="14.00" fill="#e5e5e5">find map island dome symbol</text>
</g>
<!-- island_color_map&#45;&gt;island_colors_learned -->
<g id="edge51" class="edge">
<title>island_color_map&#45;&gt;island_colors_learned</title>
<path fill="none" stroke="#d9d9d9" d="M1180.21,-899.75C1188.56,-885.7 1199.98,-865.13 1207.5,-846 1230.33,-787.95 1246.38,-716.4 1254.16,-677.49"/>
<polygon fill="#d9d9d9" stroke="#d9d9d9" points="1257.58,-678.26 1256.06,-667.78 1250.71,-676.92 1257.58,-678.26"/>
</g>
<!-- island_color_temple&#45;&gt;island_colors_learned -->
<g id="edge52" class="edge">
<title>island_color_temple&#45;&gt;island_colors_learned</title>
<path fill="none" stroke="#d9d9d9" d="M1398.32,-719.61C1371.19,-705.81 1333.06,-686.42 1303.62,-671.45"/>
<polygon fill="#d9d9d9" stroke="#d9d9d9" points="1305.46,-668.45 1294.96,-667.04 1302.28,-674.69 1305.46,-668.45"/>
</g>
<!-- island_color_village -->
<g id="node57" class="node">
<title>island_color_village</title>
<path fill="none" stroke="#d9d9d9" d="M1132.5,-756C1132.5,-756 940.5,-756 940.5,-756 934.5,-756 928.5,-750 928.5,-744 928.5,-744 928.5,-732 928.5,-732 928.5,-726 934.5,-720 940.5,-720 940.5,-720 1132.5,-720 1132.5,-720 1138.5,-720 1144.5,-726 1144.5,-732 1144.5,-732 1144.5,-744 1144.5,-744 1144.5,-750 1138.5,-756 1132.5,-756"/>
<text text-anchor="middle" x="1036.5" y="-734.3" font-family="Helvetica,sans-Serif" font-size="14.00" fill="#e5e5e5">find village island dome symbol</text>
</g>
<!-- island_color_village&#45;&gt;island_colors_learned -->
<g id="edge53" class="edge">
<title>island_color_village&#45;&gt;island_colors_learned</title>
<path fill="none" stroke="#d9d9d9" d="M1080.82,-719.51C1116.47,-705.44 1166.71,-685.62 1204.85,-670.57"/>
<polygon fill="#d9d9d9" stroke="#d9d9d9" points="1205.83,-673.94 1213.85,-667.01 1203.27,-667.43 1205.83,-673.94"/>
</g>
<!-- map_island_explored -->
<g id="node60" class="node">
<title>map_island_explored</title>
<path fill="none" stroke="#d9d9d9" d="M1183.5,-1116C1183.5,-1116 1067.5,-1116 1067.5,-1116 1061.5,-1116 1055.5,-1110 1055.5,-1104 1055.5,-1104 1055.5,-1092 1055.5,-1092 1055.5,-1086 1061.5,-1080 1067.5,-1080 1067.5,-1080 1183.5,-1080 1183.5,-1080 1189.5,-1080 1195.5,-1086 1195.5,-1092 1195.5,-1092 1195.5,-1104 1195.5,-1104 1195.5,-1110 1189.5,-1116 1183.5,-1116"/>
<text text-anchor="middle" x="1125.5" y="-1094.3" font-family="Helvetica,sans-Serif" font-size="14.00" fill="#e5e5e5">Explore Map Island</text>
</g>
<!-- maglev_call_understood&#45;&gt;map_island_explored -->
<g id="edge55" class="edge">
<title>maglev_call_understood&#45;&gt;map_island_explored</title>
<path fill="none" stroke="#d9d9d9" d="M1093.4,-1169.61C1098.99,-1157.32 1106.6,-1140.59 1113,-1126.49"/>
<polygon fill="#d9d9d9" stroke="#d9d9d9" points="1116.04,-1128.28 1116.99,-1117.73 1109.66,-1125.38 1116.04,-1128.28"/>
</g>
<!-- map_island_basement_access&#45;&gt;orb_fish -->
<g id="edge3" class="edge">
<title>map_island_basement_access&#45;&gt;orb_fish</title>
<g id="a_edge3"><a xlink:title="optionally see the fish shape">
<path fill="none" stroke="#d9d9d9" stroke-dasharray="5,2" d="M889.72,-906.6C805.48,-894.58 666.55,-872.94 548.5,-846 547.85,-845.85 547.2,-845.7 546.54,-845.55"/>
<polygon fill="#d9d9d9" stroke="#d9d9d9" points="547.77,-842.25 537.22,-843.22 546.08,-849.04 547.77,-842.25"/>
</a>
</g>
</g>
<!-- map_island_basement_access&#45;&gt;dni_colors_learned -->
<g id="edge56" class="edge">
<title>map_island_basement_access&#45;&gt;dni_colors_learned</title>
<path fill="none" stroke="#d9d9d9" d="M999.49,-899.61C1025.57,-885.87 1062.17,-866.59 1090.53,-851.64"/>
<polygon fill="#d9d9d9" stroke="#d9d9d9" points="1092.02,-854.81 1099.24,-847.06 1088.76,-848.62 1092.02,-854.81"/>
</g>
<!-- village_island_catwalks -->
<g id="node69" class="node">
<title>village_island_catwalks</title>
<path fill="none" stroke="#d9d9d9" d="M1035,-846C1035,-846 902,-846 902,-846 896,-846 890,-840 890,-834 890,-834 890,-822 890,-822 890,-816 896,-810 902,-810 902,-810 1035,-810 1035,-810 1041,-810 1047,-816 1047,-822 1047,-822 1047,-834 1047,-834 1047,-840 1041,-846 1035,-846"/>
<text text-anchor="middle" x="968.5" y="-824.3" font-family="Helvetica,sans-Serif" font-size="14.00" fill="#e5e5e5">catwalks above forest</text>
</g>
<!-- map_island_basement_access&#45;&gt;village_island_catwalks -->
<g id="edge57" class="edge">
<title>map_island_basement_access&#45;&gt;village_island_catwalks</title>
<path fill="none" stroke="#d9d9d9" d="M966.9,-899.61C967.17,-887.68 967.53,-871.57 967.85,-857.74"/>
<polygon fill="#d9d9d9" stroke="#d9d9d9" points="971.34,-857.94 968.07,-847.86 964.34,-857.78 971.34,-857.94"/>
</g>
<!-- map_island_explored&#45;&gt;dome_coordinates_learned -->
<g id="edge58" class="edge">
<title>map_island_explored&#45;&gt;dome_coordinates_learned</title>
<path fill="none" stroke="#d9d9d9" d="M1142.9,-1079.93C1172.38,-1050.88 1233.75,-989.74 1283.5,-936 1334,-881.45 1331.66,-851.26 1393.5,-810 1456.28,-768.11 1503.45,-811.59 1554.5,-756 1573.99,-734.78 1579.54,-701.45 1580.81,-677.63"/>
<polygon fill="#d9d9d9" stroke="#d9d9d9" points="1584.31,-677.77 1581.1,-667.67 1577.31,-677.57 1584.31,-677.77"/>
</g>
<!-- map_island_explored&#45;&gt;map_island_maglev_rotated -->
<g id="edge60" class="edge">
<title>map_island_explored&#45;&gt;map_island_maglev_rotated</title>
<path fill="none" stroke="#d9d9d9" d="M1101.59,-1079.61C1083.28,-1066.3 1057.8,-1047.77 1037.54,-1033.03"/>
<polygon fill="#d9d9d9" stroke="#d9d9d9" points="1039.73,-1030.29 1029.58,-1027.24 1035.61,-1035.95 1039.73,-1030.29"/>
</g>
<!-- map_island_explored&#45;&gt;island_color_map -->
<g id="edge59" class="edge">
<title>map_island_explored&#45;&gt;island_color_map</title>
<path fill="none" stroke="#d9d9d9" d="M1129.8,-1079.61C1137.39,-1048.9 1153.23,-984.81 1162.44,-947.54"/>
<polygon fill="#d9d9d9" stroke="#d9d9d9" points="1165.82,-948.48 1164.82,-937.93 1159.02,-946.8 1165.82,-948.48"/>
</g>
<!-- rotating_room_partial&#45;&gt;rotating_room_complete -->
<g id="edge69" class="edge">
<title>rotating_room_partial&#45;&gt;rotating_room_complete</title>
<path fill="none" stroke="#d9d9d9" d="M1705.5,-1259.61C1705.5,-1247.68 1705.5,-1231.57 1705.5,-1217.74"/>
<polygon fill="#d9d9d9" stroke="#d9d9d9" points="1709,-1217.86 1705.5,-1207.86 1702,-1217.86 1709,-1217.86"/>
</g>
<!-- telescope_power -->
<g id="node67" class="node">
<title>telescope_power</title>
<path fill="none" stroke="#d9d9d9" d="M1749,-486C1749,-486 1642,-486 1642,-486 1636,-486 1630,-480 1630,-474 1630,-474 1630,-462 1630,-462 1630,-456 1636,-450 1642,-450 1642,-450 1749,-450 1749,-450 1755,-450 1761,-456 1761,-462 1761,-462 1761,-474 1761,-474 1761,-480 1755,-486 1749,-486"/>
<text text-anchor="middle" x="1695.5" y="-464.3" font-family="Helvetica,sans-Serif" font-size="14.00" fill="#e5e5e5">Power Telescope</text>
</g>
<!-- rotating_room_partial&#45;&gt;telescope_power -->
<g id="edge70" class="edge">
<title>rotating_room_partial&#45;&gt;telescope_power</title>
<path fill="none" stroke="#d9d9d9" d="M1777.83,-1268.46C1871.39,-1252.92 2022.5,-1210.56 2022.5,-1099 2022.5,-1099 2022.5,-1099 2022.5,-647 2022.5,-533.69 1869.15,-492.09 1772.48,-477.13"/>
<polygon fill="#d9d9d9" stroke="#d9d9d9" points="1773.18,-473.7 1762.78,-475.7 1772.16,-480.62 1773.18,-473.7"/>
</g>
<!-- signal_atrus&#45;&gt;ending_atrus_shot -->
<g id="edge72" class="edge">
<title>signal_atrus&#45;&gt;ending_atrus_shot</title>
<path fill="none" stroke="#d9d9d9" d="M442.61,-89.61C447.59,-77.44 454.35,-60.91 460.08,-46.91"/>
<polygon fill="#d9d9d9" stroke="#d9d9d9" points="463.28,-48.33 463.83,-37.75 456.8,-45.68 463.28,-48.33"/>
</g>
<!-- signal_atrus&#45;&gt;ending_good -->
<g id="edge73" class="edge">
<title>signal_atrus&#45;&gt;ending_good</title>
<path fill="none" stroke="#d9d9d9" d="M388,-92.07C340.91,-77.27 268.53,-54.52 217.05,-38.34"/>
<polygon fill="#d9d9d9" stroke="#d9d9d9" points="218.11,-35.01 207.52,-35.35 216.01,-41.69 218.11,-35.01"/>
</g>
<!-- signal_atrus&#45;&gt;ending_no_wife -->
<g id="edge74" class="edge">
<title>signal_atrus&#45;&gt;ending_no_wife</title>
<path fill="none" stroke="#d9d9d9" d="M411.79,-89.61C393.63,-76.3 368.36,-57.77 348.27,-43.03"/>
<polygon fill="#d9d9d9" stroke="#d9d9d9" points="350.51,-40.34 340.38,-37.24 346.37,-45.98 350.51,-40.34"/>
</g>
<!-- tay_visited&#45;&gt;ending_trapped -->
<g id="edge82" class="edge">
<title>tay_visited&#45;&gt;ending_trapped</title>
<path fill="none" stroke="#d9d9d9" d="M321.67,-449.61C349.58,-435.81 388.81,-416.42 419.1,-401.45"/>
<polygon fill="#d9d9d9" stroke="#d9d9d9" points="420.64,-404.59 428.05,-397.02 417.53,-398.31 420.64,-404.59"/>
</g>
<!-- tay_visited&#45;&gt;gehn_trapped -->
<g id="edge83" class="edge">
<title>tay_visited&#45;&gt;gehn_trapped</title>
<path fill="none" stroke="#d9d9d9" d="M215.59,-449.61C187.82,-438.96 158.77,-422.16 142.5,-396 127.72,-372.24 134.64,-339.73 142.96,-316.8"/>
<polygon fill="#d9d9d9" stroke="#d9d9d9" points="146.09,-318.39 146.51,-307.8 139.58,-315.82 146.09,-318.39"/>
</g>
<!-- tay_visited&#45;&gt;catherine_journal -->
<g id="edge81" class="edge">
<title>tay_visited&#45;&gt;catherine_journal</title>
<path fill="none" stroke="#d9d9d9" d="M274.25,-449.61C265.42,-437.08 253.34,-419.93 243.29,-405.67"/>
<polygon fill="#d9d9d9" stroke="#d9d9d9" points="246.22,-403.75 237.6,-397.59 240.49,-407.78 246.22,-403.75"/>
</g>
<!-- telescope_code&#45;&gt;telescope_hatch_open -->
<g id="edge84" class="edge">
<title>telescope_code&#45;&gt;telescope_hatch_open</title>
<path fill="none" stroke="#d9d9d9" d="M490.5,-269.61C490.5,-257.68 490.5,-241.57 490.5,-227.74"/>
<polygon fill="#d9d9d9" stroke="#d9d9d9" points="494,-227.86 490.5,-217.86 487,-227.86 494,-227.86"/>
</g>
<!-- telescope_hatch_brute_forced&#45;&gt;ending_impossible -->
<g id="edge85" class="edge">
<title>telescope_hatch_brute_forced&#45;&gt;ending_impossible</title>
<path fill="none" stroke="#d9d9d9" d="M686.5,-1799.61C686.5,-1787.68 686.5,-1771.57 686.5,-1757.74"/>
<polygon fill="#d9d9d9" stroke="#d9d9d9" points="690,-1757.86 686.5,-1747.86 683,-1757.86 690,-1757.86"/>
</g>
<!-- telescope_hatch_open&#45;&gt;signal_atrus -->
<g id="edge86" class="edge">
<title>telescope_hatch_open&#45;&gt;signal_atrus</title>
<path fill="none" stroke="#d9d9d9" d="M479.63,-179.61C471.87,-167.2 461.29,-150.26 452.43,-136.08"/>
<polygon fill="#d9d9d9" stroke="#d9d9d9" points="455.41,-134.26 447.15,-127.63 449.48,-137.97 455.41,-134.26"/>
</g>
<!-- telescope_power&#45;&gt;signal_atrus -->
<g id="edge87" class="edge">
<title>telescope_power&#45;&gt;signal_atrus</title>
<path fill="none" stroke="#d9d9d9" d="M1655.51,-449.57C1539.9,-399.89 1194.45,-256.19 894.5,-180 752.95,-144.04 581.94,-123.43 494.01,-114.44"/>
<polygon fill="#d9d9d9" stroke="#d9d9d9" points="494.48,-110.97 484.18,-113.45 493.78,-117.94 494.48,-110.97"/>
</g>
<!-- village_island_explored -->
<g id="node72" class="node">
<title>village_island_explored</title>
<path fill="none" stroke="#d9d9d9" d="M550,-1746C550,-1746 419,-1746 419,-1746 413,-1746 407,-1740 407,-1734 407,-1734 407,-1722 407,-1722 407,-1716 413,-1710 419,-1710 419,-1710 550,-1710 550,-1710 556,-1710 562,-1716 562,-1722 562,-1722 562,-1734 562,-1734 562,-1740 556,-1746 550,-1746"/>
<text text-anchor="middle" x="484.5" y="-1724.3" font-family="Helvetica,sans-Serif" font-size="14.00" fill="#e5e5e5">Explore Village Island</text>
</g>
<!-- temple_door_opened&#45;&gt;village_island_explored -->
<g id="edge89" class="edge">
<title>temple_door_opened&#45;&gt;village_island_explored</title>
<path fill="none" stroke="#d9d9d9" d="M484.5,-1799.61C484.5,-1787.68 484.5,-1771.57 484.5,-1757.74"/>
<polygon fill="#d9d9d9" stroke="#d9d9d9" points="488,-1757.86 484.5,-1747.86 481,-1757.86 488,-1757.86"/>
</g>
<!-- village_island_catwalks&#45;&gt;island_color_village -->
<g id="edge91" class="edge">
<title>village_island_catwalks&#45;&gt;island_color_village</title>
<path fill="none" stroke="#d9d9d9" d="M981.93,-809.61C991.71,-796.96 1005.13,-779.6 1016.21,-765.26"/>
<polygon fill="#d9d9d9" stroke="#d9d9d9" points="1018.82,-767.6 1022.17,-757.55 1013.28,-763.32 1018.82,-767.6"/>
</g>
<!-- village_island_execution_platform_floor_closed -->
<g id="node71" class="node">
<title>village_island_execution_platform_floor_closed</title>
<path fill="none" stroke="#d9d9d9" d="M840,-756C840,-756 697,-756 697,-756 691,-756 685,-750 685,-744 685,-744 685,-732 685,-732 685,-726 691,-720 697,-720 697,-720 840,-720 840,-720 846,-720 852,-726 852,-732 852,-732 852,-744 852,-744 852,-750 846,-756 840,-756"/>
<text text-anchor="middle" x="768.5" y="-734.3" font-family="Helvetica,sans-Serif" font-size="14.00" fill="#e5e5e5">Execution platform floor</text>
</g>
<!-- village_island_catwalks&#45;&gt;village_island_execution_platform_floor_closed -->
<g id="edge92" class="edge">
<title>village_island_catwalks&#45;&gt;village_island_execution_platform_floor_closed</title>
<path fill="none" stroke="#d9d9d9" d="M928.99,-809.61C897.21,-795.63 852.38,-775.91 818.18,-760.86"/>
<polygon fill="#d9d9d9" stroke="#d9d9d9" points="819.88,-757.78 809.32,-756.96 817.06,-764.19 819.88,-757.78"/>
</g>
<!-- village_island_jail -->
<g id="node73" class="node">
<title>village_island_jail</title>
<path fill="none" stroke="#d9d9d9" d="M478.5,-666C478.5,-666 402.5,-666 402.5,-666 396.5,-666 390.5,-660 390.5,-654 390.5,-654 390.5,-642 390.5,-642 390.5,-636 396.5,-630 402.5,-630 402.5,-630 478.5,-630 478.5,-630 484.5,-630 490.5,-636 490.5,-642 490.5,-642 490.5,-654 490.5,-654 490.5,-660 484.5,-666 478.5,-666"/>
<text text-anchor="middle" x="440.5" y="-644.3" font-family="Helvetica,sans-Serif" font-size="14.00" fill="#e5e5e5">Gay baby jail</text>
</g>
<!-- village_island_execution_platform_access&#45;&gt;village_island_jail -->
<g id="edge93" class="edge">
<title>village_island_execution_platform_access&#45;&gt;village_island_jail</title>
<path fill="none" stroke="#d9d9d9" d="M440.5,-719.61C440.5,-707.68 440.5,-691.57 440.5,-677.74"/>
<polygon fill="#d9d9d9" stroke="#d9d9d9" points="444,-677.86 440.5,-667.86 437,-677.86 444,-677.86"/>
</g>
<!-- village_island_execution_platform_floor_closed&#45;&gt;village_island_jail -->
<g id="edge94" class="edge">
<title>village_island_execution_platform_floor_closed&#45;&gt;village_island_jail</title>
<path fill="none" stroke="#d9d9d9" d="M703.31,-719.51C644.72,-703.79 559.31,-680.88 501.91,-665.48"/>
<polygon fill="#d9d9d9" stroke="#d9d9d9" points="502.85,-662.1 492.29,-662.89 501.04,-668.87 502.85,-662.1"/>
</g>
<!-- village_island_explored&#45;&gt;orb_whark -->
<g id="edge99" class="edge">
<title>village_island_explored&#45;&gt;orb_whark</title>
<path fill="none" stroke="#d9d9d9" d="M454.07,-1709.61C430.24,-1695.99 396.87,-1676.93 370.81,-1662.04"/>
<polygon fill="#d9d9d9" stroke="#d9d9d9" points="372.6,-1659.02 362.18,-1657.1 369.12,-1665.1 372.6,-1659.02"/>
</g>
<!-- village_island_explored&#45;&gt;orb_beetle -->
<g id="edge96" class="edge">
<title>village_island_explored&#45;&gt;orb_beetle</title>
<path fill="none" stroke="#d9d9d9" d="M406.67,-1725.08C338.43,-1719.99 239.21,-1704 167.5,-1656 138.27,-1636.43 116.93,-1601.32 104.65,-1576.66"/>
<polygon fill="#d9d9d9" stroke="#d9d9d9" points="107.92,-1575.38 100.45,-1567.86 101.6,-1578.39 107.92,-1575.38"/>
</g>
<!-- village_island_explored&#45;&gt;orb_frog -->
<g id="edge97" class="edge">
<title>village_island_explored&#45;&gt;orb_frog</title>
<path fill="none" stroke="#d9d9d9" d="M406.59,-1715C318.3,-1696.46 186.5,-1651.6 186.5,-1549 186.5,-1549 186.5,-1549 186.5,-1277 186.5,-1224.2 192.26,-1162.82 196.11,-1127.68"/>
<polygon fill="#d9d9d9" stroke="#d9d9d9" points="199.57,-1128.24 197.21,-1117.91 192.62,-1127.45 199.57,-1128.24"/>
</g>
<!-- village_island_explored&#45;&gt;orb_sunner -->
<g id="edge98" class="edge">
<title>village_island_explored&#45;&gt;orb_sunner</title>
<path fill="none" stroke="#d9d9d9" d="M514.61,-1709.61C533.69,-1697.07 557.36,-1678.43 571.5,-1656 586.53,-1632.15 592.87,-1600.26 595.55,-1577.52"/>
<polygon fill="#d9d9d9" stroke="#d9d9d9" points="599.01,-1578.04 596.52,-1567.75 592.05,-1577.35 599.01,-1578.04"/>
</g>
<!-- village_island_explored&#45;&gt;boiler_solved -->
<g id="edge95" class="edge">
<title>village_island_explored&#45;&gt;boiler_solved</title>
<path fill="none" stroke="#d9d9d9" d="M484.5,-1709.61C484.5,-1697.68 484.5,-1681.57 484.5,-1667.74"/>
<polygon fill="#d9d9d9" stroke="#d9d9d9" points="488,-1667.86 484.5,-1657.86 481,-1667.86 488,-1667.86"/>
</g>
<!-- village_island_explored&#45;&gt;submarine_found -->
<g id="edge100" class="edge">
<title>village_island_explored&#45;&gt;submarine_found</title>
<path fill="none" stroke="#d9d9d9" d="M525.59,-1709.61C558.78,-1695.57 605.66,-1675.74 641.29,-1660.66"/>
<polygon fill="#d9d9d9" stroke="#d9d9d9" points="642.25,-1664.06 650.1,-1656.94 639.52,-1657.61 642.25,-1664.06"/>
</g>
<!-- village_island_jail&#45;&gt;village_island_animal_room_access -->
<g id="edge101" class="edge">
<title>village_island_jail&#45;&gt;village_island_animal_room_access</title>
<path fill="none" stroke="#d9d9d9" d="M410.07,-629.61C386.24,-615.99 352.87,-596.93 326.81,-582.04"/>
<polygon fill="#d9d9d9" stroke="#d9d9d9" points="328.6,-579.02 318.18,-577.1 325.12,-585.1 328.6,-579.02"/>
</g>
<!-- village_island_school_access&#45;&gt;dni_numbers_1_10 -->
<g id="edge102" class="edge">
<title>village_island_school_access&#45;&gt;dni_numbers_1_10</title>
<path fill="none" stroke="#d9d9d9" d="M611.45,-719.61C614.19,-707.56 617.9,-691.24 621.06,-677.33"/>
<polygon fill="#d9d9d9" stroke="#d9d9d9" points="624.42,-678.35 623.22,-667.83 617.59,-676.8 624.42,-678.35"/>
</g>
</g>
</svg>
