<?xml version="1.0" encoding="UTF-8" standalone="no"?>
<!DOCTYPE svg PUBLIC "-//W3C//DTD SVG 1.1//EN"
 "http://www.w3.org/Graphics/SVG/1.1/DTD/svg11.dtd">
<!-- Generated by graphviz version 10.0.1 (20240210.2158)
 -->
<!-- Title: riven_progression Pages: 1 -->
<svg width="2010pt" height="1934pt"
 viewBox="0.00 0.00 2009.88 1934.00" xmlns="http://www.w3.org/2000/svg" xmlns:xlink="http://www.w3.org/1999/xlink">
<g id="graph0" class="graph" transform="scale(1 1) rotate(0) translate(4 1930)">
<title>riven_progression</title>
<polygon fill="#1f1f1f" stroke="none" points="-4,4 -4,-1930 2005.88,-1930 2005.88,4 -4,4"/>
<!-- start -->
<g id="node1" class="node">
<title>start</title>
<path fill="#005000" stroke="#d9d9d9" d="M695.88,-1926C695.88,-1926 665.88,-1926 665.88,-1926 659.88,-1926 653.88,-1920 653.88,-1914 653.88,-1914 653.88,-1902 653.88,-1902 653.88,-1896 659.88,-1890 665.88,-1890 665.88,-1890 695.88,-1890 695.88,-1890 701.88,-1890 707.88,-1896 707.88,-1902 707.88,-1902 707.88,-1914 707.88,-1914 707.88,-1920 701.88,-1926 695.88,-1926"/>
<text text-anchor="middle" x="680.88" y="-1902.95" font-family="Helvetica,sans-Serif" font-size="14.00" fill="#e5e5e5">Start</text>
</g>
<!-- rotating_room_shit_door -->
<g id="node27" class="node">
<title>rotating_room_shit_door</title>
<path fill="#280060" stroke="#d9d9d9" d="M951.62,-1836C951.62,-1836 826.12,-1836 826.12,-1836 820.12,-1836 814.12,-1830 814.12,-1824 814.12,-1824 814.12,-1812 814.12,-1812 814.12,-1806 820.12,-1800 826.12,-1800 826.12,-1800 951.62,-1800 951.62,-1800 957.62,-1800 963.62,-1806 963.62,-1812 963.62,-1812 963.62,-1824 963.62,-1824 963.62,-1830 957.62,-1836 951.62,-1836"/>
<text text-anchor="middle" x="888.88" y="-1812.95" font-family="Helvetica,sans-Serif" font-size="14.00" fill="#e5e5e5">Crawl under shit door</text>
</g>
<!-- start&#45;&gt;rotating_room_shit_door -->
<g id="edge75" class="edge">
<title>start&#45;&gt;rotating_room_shit_door</title>
<path fill="none" stroke="#d9d9d9" d="M708.07,-1895.5C740.72,-1881.68 796.19,-1858.21 837.1,-1840.9"/>
<polygon fill="#d9d9d9" stroke="#d9d9d9" points="838.45,-1844.13 846.3,-1837.01 835.72,-1837.69 838.45,-1844.13"/>
</g>
<!-- telescope_hatch_brute_forced -->
<g id="node65" class="node">
<title>telescope_hatch_brute_forced</title>
<path fill="none" stroke="#d9d9d9" d="M777.38,-1836C777.38,-1836 584.38,-1836 584.38,-1836 578.38,-1836 572.38,-1830 572.38,-1824 572.38,-1824 572.38,-1812 572.38,-1812 572.38,-1806 578.38,-1800 584.38,-1800 584.38,-1800 777.38,-1800 777.38,-1800 783.38,-1800 789.38,-1806 789.38,-1812 789.38,-1812 789.38,-1824 789.38,-1824 789.38,-1830 783.38,-1836 777.38,-1836"/>
<text text-anchor="middle" x="680.88" y="-1812.95" font-family="Helvetica,sans-Serif" font-size="14.00" fill="#e5e5e5">Brute force trap door code early</text>
</g>
<!-- start&#45;&gt;telescope_hatch_brute_forced -->
<g id="edge76" class="edge">
<title>start&#45;&gt;telescope_hatch_brute_forced</title>
<path fill="none" stroke="#d9d9d9" d="M680.88,-1889.61C680.88,-1877.68 680.88,-1861.57 680.88,-1847.74"/>
<polygon fill="#d9d9d9" stroke="#d9d9d9" points="684.38,-1847.86 680.88,-1837.86 677.38,-1847.86 684.38,-1847.86"/>
</g>
<!-- temple_door_opened -->
<g id="node68" class="node">
<title>temple_door_opened</title>
<path fill="none" stroke="#d9d9d9" d="M535.62,-1836C535.62,-1836 428.12,-1836 428.12,-1836 422.12,-1836 416.12,-1830 416.12,-1824 416.12,-1824 416.12,-1812 416.12,-1812 416.12,-1806 422.12,-1800 428.12,-1800 428.12,-1800 535.62,-1800 535.62,-1800 541.62,-1800 547.62,-1806 547.62,-1812 547.62,-1812 547.62,-1824 547.62,-1824 547.62,-1830 541.62,-1836 535.62,-1836"/>
<text text-anchor="middle" x="481.88" y="-1812.95" font-family="Helvetica,sans-Serif" font-size="14.00" fill="#e5e5e5">Open temple door</text>
</g>
<!-- start&#45;&gt;temple_door_opened -->
<g id="edge77" class="edge">
<title>start&#45;&gt;temple_door_opened</title>
<path fill="none" stroke="#d9d9d9" d="M653.62,-1894.95C622.29,-1881.09 570.23,-1858.07 531.62,-1841"/>
<polygon fill="#d9d9d9" stroke="#d9d9d9" points="533.06,-1837.81 522.5,-1836.96 530.23,-1844.21 533.06,-1837.81"/>
</g>
<!-- ending_atrus_shot -->
<g id="node2" class="node">
<title>ending_atrus_shot</title>
<path fill="#500000" stroke="#d9d9d9" d="M518,-36C518,-36 415.75,-36 415.75,-36 409.75,-36 403.75,-30 403.75,-24 403.75,-24 403.75,-12 403.75,-12 403.75,-6 409.75,0 415.75,0 415.75,0 518,0 518,0 524,0 530,-6 530,-12 530,-12 530,-24 530,-24 530,-30 524,-36 518,-36"/>
<text text-anchor="middle" x="466.88" y="-12.95" font-family="Helvetica,sans-Serif" font-size="14.00" fill="#e5e5e5">Atrus shot by dad</text>
</g>
<!-- ending_free_gehn -->
<g id="node3" class="node">
<title>ending_free_gehn</title>
<path fill="#500000" stroke="#d9d9d9" d="M264,-216C264,-216 203.75,-216 203.75,-216 197.75,-216 191.75,-210 191.75,-204 191.75,-204 191.75,-192 191.75,-192 191.75,-186 197.75,-180 203.75,-180 203.75,-180 264,-180 264,-180 270,-180 276,-186 276,-192 276,-192 276,-204 276,-204 276,-210 270,-216 264,-216"/>
<text text-anchor="middle" x="233.88" y="-192.95" font-family="Helvetica,sans-Serif" font-size="14.00" fill="#e5e5e5">Free Gehn</text>
</g>
<!-- ending_good -->
<g id="node4" class="node">
<title>ending_good</title>
<path fill="#500000" stroke="#d9d9d9" d="M191.88,-36C191.88,-36 115.88,-36 115.88,-36 109.88,-36 103.88,-30 103.88,-24 103.88,-24 103.88,-12 103.88,-12 103.88,-6 109.88,0 115.88,0 115.88,0 191.88,0 191.88,0 197.88,0 203.88,-6 203.88,-12 203.88,-12 203.88,-24 203.88,-24 203.88,-30 197.88,-36 191.88,-36"/>
<text text-anchor="middle" x="153.88" y="-12.95" font-family="Helvetica,sans-Serif" font-size="14.00" fill="#e5e5e5">Good Ending</text>
</g>
<!-- ending_impossible -->
<g id="node5" class="node">
<title>ending_impossible</title>
<path fill="#500000" stroke="#d9d9d9" d="M736.12,-1746C736.12,-1746 625.62,-1746 625.62,-1746 619.62,-1746 613.62,-1740 613.62,-1734 613.62,-1734 613.62,-1722 613.62,-1722 613.62,-1716 619.62,-1710 625.62,-1710 625.62,-1710 736.12,-1710 736.12,-1710 742.12,-1710 748.12,-1716 748.12,-1722 748.12,-1722 748.12,-1734 748.12,-1734 748.12,-1740 742.12,-1746 736.12,-1746"/>
<text text-anchor="middle" x="680.88" y="-1722.95" font-family="Helvetica,sans-Serif" font-size="14.00" fill="#e5e5e5">Impossible Ending</text>
</g>
<!-- ending_no_wife -->
<g id="node6" class="node">
<title>ending_no_wife</title>
<path fill="#500000" stroke="#d9d9d9" d="M366.5,-36C366.5,-36 261.25,-36 261.25,-36 255.25,-36 249.25,-30 249.25,-24 249.25,-24 249.25,-12 249.25,-12 249.25,-6 255.25,0 261.25,0 261.25,0 366.5,0 366.5,0 372.5,0 378.5,-6 378.5,-12 378.5,-12 378.5,-24 378.5,-24 378.5,-30 372.5,-36 366.5,-36"/>
<text text-anchor="middle" x="313.88" y="-12.95" font-family="Helvetica,sans-Serif" font-size="14.00" fill="#e5e5e5">Where&#39;s my wife?</text>
</g>
<!-- ending_player_shot -->
<g id="node7" class="node">
<title>ending_player_shot</title>
<path fill="#500000" stroke="#d9d9d9" d="M861,-216C861,-216 782.75,-216 782.75,-216 776.75,-216 770.75,-210 770.75,-204 770.75,-204 770.75,-192 770.75,-192 770.75,-186 776.75,-180 782.75,-180 782.75,-180 861,-180 861,-180 867,-180 873,-186 873,-192 873,-192 873,-204 873,-204 873,-210 867,-216 861,-216"/>
<text text-anchor="middle" x="821.88" y="-192.95" font-family="Helvetica,sans-Serif" font-size="14.00" fill="#e5e5e5">Shot by Gehn</text>
</g>
<!-- ending_trapped -->
<g id="node8" class="node">
<title>ending_trapped</title>
<path fill="#500000" stroke="#d9d9d9" d="M591.25,-396C591.25,-396 328.5,-396 328.5,-396 322.5,-396 316.5,-390 316.5,-384 316.5,-384 316.5,-372 316.5,-372 316.5,-366 322.5,-360 328.5,-360 328.5,-360 591.25,-360 591.25,-360 597.25,-360 603.25,-366 603.25,-372 603.25,-372 603.25,-384 603.25,-384 603.25,-390 597.25,-396 591.25,-396"/>
<text text-anchor="middle" x="459.88" y="-372.95" font-family="Helvetica,sans-Serif" font-size="14.00" fill="#e5e5e5">One of several trapped in own trap endings</text>
</g>
<!-- orb_whark -->
<g id="node9" class="node">
<title>orb_whark</title>
<path fill="none" stroke="#d9d9d9" d="M370.5,-1656C370.5,-1656 289.25,-1656 289.25,-1656 283.25,-1656 277.25,-1650 277.25,-1644 277.25,-1644 277.25,-1632 277.25,-1632 277.25,-1626 283.25,-1620 289.25,-1620 289.25,-1620 370.5,-1620 370.5,-1620 376.5,-1620 382.5,-1626 382.5,-1632 382.5,-1632 382.5,-1644 382.5,-1644 382.5,-1650 376.5,-1656 370.5,-1656"/>
<text text-anchor="middle" x="329.88" y="-1632.95" font-family="Helvetica,sans-Serif" font-size="14.00" fill="#e5e5e5">The whark orb</text>
</g>
<!-- orb_all -->
<g id="node25" class="node">
<title>orb_all</title>
<path fill="#280060" stroke="#d9d9d9" d="M311.38,-756C311.38,-756 208.38,-756 208.38,-756 202.38,-756 196.38,-750 196.38,-744 196.38,-744 196.38,-732 196.38,-732 196.38,-726 202.38,-720 208.38,-720 208.38,-720 311.38,-720 311.38,-720 317.38,-720 323.38,-726 323.38,-732 323.38,-732 323.38,-744 323.38,-744 323.38,-750 317.38,-756 311.38,-756"/>
<text text-anchor="middle" x="259.88" y="-732.95" font-family="Helvetica,sans-Serif" font-size="14.00" fill="#e5e5e5">All 5 orbs learned</text>
</g>
<!-- orb_whark&#45;&gt;orb_all -->
<g id="edge67" class="edge">
<title>orb_whark&#45;&gt;orb_all</title>
<path fill="none" stroke="#d9d9d9" d="M333.73,-1619.92C340.52,-1588.33 353.88,-1518.56 353.88,-1459 353.88,-1459 353.88,-1459 353.88,-917 353.88,-856.95 311.52,-797.31 283.67,-764.59"/>
<polygon fill="#d9d9d9" stroke="#d9d9d9" points="286.46,-762.46 277.24,-757.24 281.19,-767.07 286.46,-762.46"/>
</g>
<!-- orb_beetle -->
<g id="node10" class="node">
<title>orb_beetle</title>
<path fill="none" stroke="#d9d9d9" d="M135.38,-1566C135.38,-1566 50.38,-1566 50.38,-1566 44.38,-1566 38.38,-1560 38.38,-1554 38.38,-1554 38.38,-1542 38.38,-1542 38.38,-1536 44.38,-1530 50.38,-1530 50.38,-1530 135.38,-1530 135.38,-1530 141.38,-1530 147.38,-1536 147.38,-1542 147.38,-1542 147.38,-1554 147.38,-1554 147.38,-1560 141.38,-1566 135.38,-1566"/>
<text text-anchor="middle" x="92.88" y="-1542.95" font-family="Helvetica,sans-Serif" font-size="14.00" fill="#e5e5e5">The beetle orb</text>
</g>
<!-- orb_beetle&#45;&gt;orb_all -->
<g id="edge63" class="edge">
<title>orb_beetle&#45;&gt;orb_all</title>
<path fill="none" stroke="#d9d9d9" d="M94.99,-1529.6C98.68,-1497.77 105.88,-1428.03 105.88,-1369 105.88,-1369 105.88,-1369 105.88,-917 105.88,-847.71 173.43,-792.12 219.06,-762.48"/>
<polygon fill="#d9d9d9" stroke="#d9d9d9" points="220.85,-765.49 227.43,-757.19 217.11,-759.57 220.85,-765.49"/>
</g>
<!-- orb_frog -->
<g id="node11" class="node">
<title>orb_frog</title>
<path fill="none" stroke="#d9d9d9" d="M238.25,-1116C238.25,-1116 167.5,-1116 167.5,-1116 161.5,-1116 155.5,-1110 155.5,-1104 155.5,-1104 155.5,-1092 155.5,-1092 155.5,-1086 161.5,-1080 167.5,-1080 167.5,-1080 238.25,-1080 238.25,-1080 244.25,-1080 250.25,-1086 250.25,-1092 250.25,-1092 250.25,-1104 250.25,-1104 250.25,-1110 244.25,-1116 238.25,-1116"/>
<text text-anchor="middle" x="202.88" y="-1092.95" font-family="Helvetica,sans-Serif" font-size="14.00" fill="#e5e5e5">The frog orb</text>
</g>
<!-- orb_frog&#45;&gt;orb_all -->
<g id="edge65" class="edge">
<title>orb_frog&#45;&gt;orb_all</title>
<path fill="none" stroke="#d9d9d9" d="M205.62,-1079.73C214.75,-1022.43 244.08,-838.18 255.38,-767.22"/>
<polygon fill="#d9d9d9" stroke="#d9d9d9" points="258.8,-768.01 256.92,-757.59 251.89,-766.91 258.8,-768.01"/>
</g>
<!-- orb_sunner -->
<g id="node12" class="node">
<title>orb_sunner</title>
<path fill="none" stroke="#d9d9d9" d="M638.88,-1566C638.88,-1566 550.88,-1566 550.88,-1566 544.88,-1566 538.88,-1560 538.88,-1554 538.88,-1554 538.88,-1542 538.88,-1542 538.88,-1536 544.88,-1530 550.88,-1530 550.88,-1530 638.88,-1530 638.88,-1530 644.88,-1530 650.88,-1536 650.88,-1542 650.88,-1542 650.88,-1554 650.88,-1554 650.88,-1560 644.88,-1566 638.88,-1566"/>
<text text-anchor="middle" x="594.88" y="-1542.95" font-family="Helvetica,sans-Serif" font-size="14.00" fill="#e5e5e5">The sunner orb</text>
</g>
<!-- orb_sunner&#45;&gt;orb_all -->
<g id="edge66" class="edge">
<title>orb_sunner&#45;&gt;orb_all</title>
<path fill="none" stroke="#d9d9d9" d="M552.24,-1529.69C496.22,-1503.78 404.88,-1449.23 404.88,-1369 404.88,-1369 404.88,-1369 404.88,-917 404.88,-867.36 402.92,-849.51 372.88,-810 357.2,-789.38 333.66,-773.23 312.12,-761.58"/>
<polygon fill="#d9d9d9" stroke="#d9d9d9" points="313.91,-758.57 303.42,-757.08 310.69,-764.78 313.91,-758.57"/>
</g>
<!-- orb_fish -->
<g id="node13" class="node">
<title>orb_fish</title>
<path fill="none" stroke="#d9d9d9" d="M522.75,-846C522.75,-846 455,-846 455,-846 449,-846 443,-840 443,-834 443,-834 443,-822 443,-822 443,-816 449,-810 455,-810 455,-810 522.75,-810 522.75,-810 528.75,-810 534.75,-816 534.75,-822 534.75,-822 534.75,-834 534.75,-834 534.75,-840 528.75,-846 522.75,-846"/>
<text text-anchor="middle" x="488.88" y="-822.95" font-family="Helvetica,sans-Serif" font-size="14.00" fill="#e5e5e5">The fish orb</text>
</g>
<!-- orb_fish&#45;&gt;orb_all -->
<g id="edge64" class="edge">
<title>orb_fish&#45;&gt;orb_all</title>
<path fill="none" stroke="#d9d9d9" d="M443.36,-809.51C406.76,-795.44 355.16,-775.62 316,-760.57"/>
<polygon fill="#d9d9d9" stroke="#d9d9d9" points="317.31,-757.32 306.72,-757 314.8,-763.86 317.31,-757.32"/>
</g>
<!-- big_dome_elevator_understood -->
<g id="node14" class="node">
<title>big_dome_elevator_understood</title>
<path fill="#280060" stroke="#d9d9d9" d="M1576.62,-846C1576.62,-846 1409.12,-846 1409.12,-846 1403.12,-846 1397.12,-840 1397.12,-834 1397.12,-834 1397.12,-822 1397.12,-822 1397.12,-816 1403.12,-810 1409.12,-810 1409.12,-810 1576.62,-810 1576.62,-810 1582.62,-810 1588.62,-816 1588.62,-822 1588.62,-822 1588.62,-834 1588.62,-834 1588.62,-840 1582.62,-846 1576.62,-846"/>
<text text-anchor="middle" x="1492.88" y="-822.95" font-family="Helvetica,sans-Serif" font-size="14.00" fill="#e5e5e5">Weird elevator shenanigans</text>
</g>
<!-- island_color_temple -->
<g id="node56" class="node">
<title>island_color_temple</title>
<path fill="none" stroke="#d9d9d9" d="M1518.38,-756C1518.38,-756 1325.38,-756 1325.38,-756 1319.38,-756 1313.38,-750 1313.38,-744 1313.38,-744 1313.38,-732 1313.38,-732 1313.38,-726 1319.38,-720 1325.38,-720 1325.38,-720 1518.38,-720 1518.38,-720 1524.38,-720 1530.38,-726 1530.38,-732 1530.38,-732 1530.38,-744 1530.38,-744 1530.38,-750 1524.38,-756 1518.38,-756"/>
<text text-anchor="middle" x="1421.88" y="-732.95" font-family="Helvetica,sans-Serif" font-size="14.00" fill="#e5e5e5">find temple island dome symbol</text>
</g>
<!-- big_dome_elevator_understood&#45;&gt;island_color_temple -->
<g id="edge12" class="edge">
<title>big_dome_elevator_understood&#45;&gt;island_color_temple</title>
<path fill="none" stroke="#d9d9d9" d="M1478.85,-809.61C1468.64,-796.96 1454.63,-779.6 1443.06,-765.26"/>
<polygon fill="#d9d9d9" stroke="#d9d9d9" points="1445.83,-763.11 1436.82,-757.53 1440.38,-767.51 1445.83,-763.11"/>
</g>
<!-- big_dome_power_button_found -->
<g id="node15" class="node">
<title>big_dome_power_button_found</title>
<path fill="#280060" stroke="#d9d9d9" d="M1865.62,-666C1865.62,-666 1752.12,-666 1752.12,-666 1746.12,-666 1740.12,-660 1740.12,-654 1740.12,-654 1740.12,-642 1740.12,-642 1740.12,-636 1746.12,-630 1752.12,-630 1752.12,-630 1865.62,-630 1865.62,-630 1871.62,-630 1877.62,-636 1877.62,-642 1877.62,-642 1877.62,-654 1877.62,-654 1877.62,-660 1871.62,-666 1865.62,-666"/>
<text text-anchor="middle" x="1808.88" y="-642.95" font-family="Helvetica,sans-Serif" font-size="14.00" fill="#e5e5e5">Oh, that&#39;s a button?</text>
</g>
<!-- dome_power -->
<g id="node46" class="node">
<title>dome_power</title>
<path fill="none" stroke="#d9d9d9" d="M1486.25,-576C1486.25,-576 1367.5,-576 1367.5,-576 1361.5,-576 1355.5,-570 1355.5,-564 1355.5,-564 1355.5,-552 1355.5,-552 1355.5,-546 1361.5,-540 1367.5,-540 1367.5,-540 1486.25,-540 1486.25,-540 1492.25,-540 1498.25,-546 1498.25,-552 1498.25,-552 1498.25,-564 1498.25,-564 1498.25,-570 1492.25,-576 1486.25,-576"/>
<text text-anchor="middle" x="1426.88" y="-552.95" font-family="Helvetica,sans-Serif" font-size="14.00" fill="#e5e5e5">Power Baby Domes</text>
</g>
<!-- big_dome_power_button_found&#45;&gt;dome_power -->
<g id="edge14" class="edge">
<title>big_dome_power_button_found&#45;&gt;dome_power</title>
<path fill="none" stroke="#d9d9d9" d="M1739.7,-631.06C1675.03,-616.17 1578.4,-593.91 1509.66,-578.07"/>
<polygon fill="#d9d9d9" stroke="#d9d9d9" points="1510.46,-574.66 1499.93,-575.83 1508.89,-581.48 1510.46,-574.66"/>
</g>
<!-- big_dome_upper_stairs_lever_found -->
<g id="node16" class="node">
<title>big_dome_upper_stairs_lever_found</title>
<path fill="#280060" stroke="#d9d9d9" d="M1744.62,-1026C1744.62,-1026 1637.12,-1026 1637.12,-1026 1631.12,-1026 1625.12,-1020 1625.12,-1014 1625.12,-1014 1625.12,-1002 1625.12,-1002 1625.12,-996 1631.12,-990 1637.12,-990 1637.12,-990 1744.62,-990 1744.62,-990 1750.62,-990 1756.62,-996 1756.62,-1002 1756.62,-1002 1756.62,-1014 1756.62,-1014 1756.62,-1020 1750.62,-1026 1744.62,-1026"/>
<text text-anchor="middle" x="1690.88" y="-1002.95" font-family="Helvetica,sans-Serif" font-size="14.00" fill="#e5e5e5">Easy to miss lever</text>
</g>
<!-- big_dome_access_upper -->
<g id="node36" class="node">
<title>big_dome_access_upper</title>
<path fill="none" stroke="#d9d9d9" d="M1771.62,-846C1771.62,-846 1646.12,-846 1646.12,-846 1640.12,-846 1634.12,-840 1634.12,-834 1634.12,-834 1634.12,-822 1634.12,-822 1634.12,-816 1640.12,-810 1646.12,-810 1646.12,-810 1771.62,-810 1771.62,-810 1777.62,-810 1783.62,-816 1783.62,-822 1783.62,-822 1783.62,-834 1783.62,-834 1783.62,-840 1777.62,-846 1771.62,-846"/>
<text text-anchor="middle" x="1708.88" y="-822.95" font-family="Helvetica,sans-Serif" font-size="14.00" fill="#e5e5e5">Upper Dome Access</text>
</g>
<!-- big_dome_upper_stairs_lever_found&#45;&gt;big_dome_access_upper -->
<g id="edge15" class="edge">
<title>big_dome_upper_stairs_lever_found&#45;&gt;big_dome_access_upper</title>
<path fill="none" stroke="#d9d9d9" d="M1692.63,-989.61C1695.74,-958.9 1702.22,-894.81 1705.99,-857.54"/>
<polygon fill="#d9d9d9" stroke="#d9d9d9" points="1709.43,-858.27 1706.96,-847.97 1702.47,-857.57 1709.43,-858.27"/>
</g>
<!-- boiler_solved -->
<g id="node17" class="node">
<title>boiler_solved</title>
<path fill="#280060" stroke="#d9d9d9" d="M543.88,-1656C543.88,-1656 419.88,-1656 419.88,-1656 413.88,-1656 407.88,-1650 407.88,-1644 407.88,-1644 407.88,-1632 407.88,-1632 407.88,-1626 413.88,-1620 419.88,-1620 419.88,-1620 543.88,-1620 543.88,-1620 549.88,-1620 555.88,-1626 555.88,-1632 555.88,-1632 555.88,-1644 555.88,-1644 555.88,-1650 549.88,-1656 543.88,-1656"/>
<text text-anchor="middle" x="481.88" y="-1632.95" font-family="Helvetica,sans-Serif" font-size="14.00" fill="#e5e5e5">Open the boiler drain</text>
</g>
<!-- frog_hall_access -->
<g id="node33" class="node">
<title>frog_hall_access</title>
<path fill="none" stroke="#d9d9d9" d="M502.12,-1566C502.12,-1566 403.62,-1566 403.62,-1566 397.62,-1566 391.62,-1560 391.62,-1554 391.62,-1554 391.62,-1542 391.62,-1542 391.62,-1536 397.62,-1530 403.62,-1530 403.62,-1530 502.12,-1530 502.12,-1530 508.12,-1530 514.12,-1536 514.12,-1542 514.12,-1542 514.12,-1554 514.12,-1554 514.12,-1560 508.12,-1566 502.12,-1566"/>
<text text-anchor="middle" x="452.88" y="-1542.95" font-family="Helvetica,sans-Serif" font-size="14.00" fill="#e5e5e5">Frog hall Access</text>
</g>
<!-- boiler_solved&#45;&gt;frog_hall_access -->
<g id="edge18" class="edge">
<title>boiler_solved&#45;&gt;frog_hall_access</title>
<path fill="none" stroke="#d9d9d9" d="M476.15,-1619.61C472.13,-1607.44 466.69,-1590.91 462.07,-1576.91"/>
<polygon fill="#d9d9d9" stroke="#d9d9d9" points="465.52,-1576.19 459.07,-1567.79 458.87,-1578.38 465.52,-1576.19"/>
</g>
<!-- dni_numbers_1_10 -->
<g id="node18" class="node">
<title>dni_numbers_1_10</title>
<path fill="#280060" stroke="#d9d9d9" d="M681,-666C681,-666 560.75,-666 560.75,-666 554.75,-666 548.75,-660 548.75,-654 548.75,-654 548.75,-642 548.75,-642 548.75,-636 554.75,-630 560.75,-630 560.75,-630 681,-630 681,-630 687,-630 693,-636 693,-642 693,-642 693,-654 693,-654 693,-660 687,-666 681,-666"/>
<text text-anchor="middle" x="620.88" y="-642.95" font-family="Helvetica,sans-Serif" font-size="14.00" fill="#e5e5e5">Learn numbers 1&#45;10</text>
</g>
<!-- dni_numbers_11_24 -->
<g id="node19" class="node">
<title>dni_numbers_11_24</title>
<path fill="#280060" stroke="#d9d9d9" d="M833.25,-576C833.25,-576 690.5,-576 690.5,-576 684.5,-576 678.5,-570 678.5,-564 678.5,-564 678.5,-552 678.5,-552 678.5,-546 684.5,-540 690.5,-540 690.5,-540 833.25,-540 833.25,-540 839.25,-540 845.25,-546 845.25,-552 845.25,-552 845.25,-564 845.25,-564 845.25,-570 839.25,-576 833.25,-576"/>
<text text-anchor="middle" x="761.88" y="-552.95" font-family="Helvetica,sans-Serif" font-size="14.00" fill="#e5e5e5">Deduce numbers 11&#45;24</text>
</g>
<!-- dni_numbers_1_10&#45;&gt;dni_numbers_11_24 -->
<g id="edge22" class="edge">
<title>dni_numbers_1_10&#45;&gt;dni_numbers_11_24</title>
<path fill="none" stroke="#d9d9d9" d="M648.73,-629.61C670.36,-616.11 700.57,-597.26 724.33,-582.43"/>
<polygon fill="#d9d9d9" stroke="#d9d9d9" points="726.16,-585.42 732.79,-577.15 722.46,-579.48 726.16,-585.42"/>
</g>
<!-- food_chain_learned -->
<g id="node47" class="node">
<title>food_chain_learned</title>
<path fill="none" stroke="#d9d9d9" d="M532.12,-576C532.12,-576 403.62,-576 403.62,-576 397.62,-576 391.62,-570 391.62,-564 391.62,-564 391.62,-552 391.62,-552 391.62,-546 397.62,-540 403.62,-540 403.62,-540 532.12,-540 532.12,-540 538.12,-540 544.12,-546 544.12,-552 544.12,-552 544.12,-564 544.12,-564 544.12,-570 538.12,-576 532.12,-576"/>
<text text-anchor="middle" x="467.88" y="-552.95" font-family="Helvetica,sans-Serif" font-size="14.00" fill="#e5e5e5">Learn the Food Chain</text>
</g>
<!-- dni_numbers_1_10&#45;&gt;food_chain_learned -->
<g id="edge23" class="edge">
<title>dni_numbers_1_10&#45;&gt;food_chain_learned</title>
<path fill="none" stroke="#d9d9d9" d="M590.65,-629.61C566.97,-615.99 533.81,-596.93 507.93,-582.04"/>
<polygon fill="#d9d9d9" stroke="#d9d9d9" points="509.77,-579.06 499.35,-577.1 506.28,-585.12 509.77,-579.06"/>
</g>
<!-- telescope_hatch_open -->
<g id="node66" class="node">
<title>telescope_hatch_open</title>
<path fill="none" stroke="#d9d9d9" d="M550.62,-216C550.62,-216 419.12,-216 419.12,-216 413.12,-216 407.12,-210 407.12,-204 407.12,-204 407.12,-192 407.12,-192 407.12,-186 413.12,-180 419.12,-180 419.12,-180 550.62,-180 550.62,-180 556.62,-180 562.62,-186 562.62,-192 562.62,-192 562.62,-204 562.62,-204 562.62,-210 556.62,-216 550.62,-216"/>
<text text-anchor="middle" x="484.88" y="-192.95" font-family="Helvetica,sans-Serif" font-size="14.00" fill="#e5e5e5">Open telescope hatch</text>
</g>
<!-- dni_numbers_1_10&#45;&gt;telescope_hatch_open -->
<g id="edge24" class="edge">
<title>dni_numbers_1_10&#45;&gt;telescope_hatch_open</title>
<path fill="none" stroke="#d9d9d9" d="M624.13,-629.64C629.8,-597.88 640.88,-528.24 640.88,-469 640.88,-469 640.88,-469 640.88,-377 640.88,-307.33 572.44,-251.86 526.22,-222.35"/>
<polygon fill="#d9d9d9" stroke="#d9d9d9" points="528.07,-219.38 517.73,-217.07 524.38,-225.32 528.07,-219.38"/>
</g>
<!-- dome_access -->
<g id="node44" class="node">
<title>dome_access</title>
<path fill="none" stroke="#d9d9d9" d="M891.38,-486C891.38,-486 752.38,-486 752.38,-486 746.38,-486 740.38,-480 740.38,-474 740.38,-474 740.38,-462 740.38,-462 740.38,-456 746.38,-450 752.38,-450 752.38,-450 891.38,-450 891.38,-450 897.38,-450 903.38,-456 903.38,-462 903.38,-462 903.38,-474 903.38,-474 903.38,-480 897.38,-486 891.38,-486"/>
<text text-anchor="middle" x="821.88" y="-462.95" font-family="Helvetica,sans-Serif" font-size="14.00" fill="#e5e5e5">Get inside baby domes</text>
</g>
<!-- dni_numbers_11_24&#45;&gt;dome_access -->
<g id="edge25" class="edge">
<title>dni_numbers_11_24&#45;&gt;dome_access</title>
<path fill="none" stroke="#d9d9d9" d="M773.73,-539.61C782.28,-527.08 793.97,-509.93 803.69,-495.67"/>
<polygon fill="#d9d9d9" stroke="#d9d9d9" points="806.45,-497.83 809.19,-487.6 800.67,-493.89 806.45,-497.83"/>
</g>
<!-- dome_coordinates_learned -->
<g id="node20" class="node">
<title>dome_coordinates_learned</title>
<path fill="#280060" stroke="#d9d9d9" d="M1662.75,-666C1662.75,-666 1475,-666 1475,-666 1469,-666 1463,-660 1463,-654 1463,-654 1463,-642 1463,-642 1463,-636 1469,-630 1475,-630 1475,-630 1662.75,-630 1662.75,-630 1668.75,-630 1674.75,-636 1674.75,-642 1674.75,-642 1674.75,-654 1674.75,-654 1674.75,-660 1668.75,-666 1662.75,-666"/>
<text text-anchor="middle" x="1568.88" y="-642.95" font-family="Helvetica,sans-Serif" font-size="14.00" fill="#e5e5e5">Learn Baby Dome Coordinates</text>
</g>
<!-- dome_coordinates_learned&#45;&gt;dome_power -->
<g id="edge28" class="edge">
<title>dome_coordinates_learned&#45;&gt;dome_power</title>
<path fill="none" stroke="#d9d9d9" d="M1540.82,-629.61C1518.94,-616.05 1488.34,-597.09 1464.37,-582.23"/>
<polygon fill="#d9d9d9" stroke="#d9d9d9" points="1466.5,-579.44 1456.16,-577.15 1462.81,-585.39 1466.5,-579.44"/>
</g>
<!-- frog_hall_door_secret -->
<g id="node21" class="node">
<title>frog_hall_door_secret</title>
<path fill="#280060" stroke="#d9d9d9" d="M1163.75,-1476C1163.75,-1476 970,-1476 970,-1476 964,-1476 958,-1470 958,-1464 958,-1464 958,-1452 958,-1452 958,-1446 964,-1440 970,-1440 970,-1440 1163.75,-1440 1163.75,-1440 1169.75,-1440 1175.75,-1446 1175.75,-1452 1175.75,-1452 1175.75,-1464 1175.75,-1464 1175.75,-1470 1169.75,-1476 1163.75,-1476"/>
<text text-anchor="middle" x="1066.88" y="-1452.95" font-family="Helvetica,sans-Serif" font-size="14.00" fill="#e5e5e5">BEHIND THE FUCKING DOOR</text>
</g>
<!-- big_dome_access_full -->
<g id="node35" class="node">
<title>big_dome_access_full</title>
<path fill="none" stroke="#d9d9d9" d="M1548.38,-936C1548.38,-936 1439.38,-936 1439.38,-936 1433.38,-936 1427.38,-930 1427.38,-924 1427.38,-924 1427.38,-912 1427.38,-912 1427.38,-906 1433.38,-900 1439.38,-900 1439.38,-900 1548.38,-900 1548.38,-900 1554.38,-900 1560.38,-906 1560.38,-912 1560.38,-912 1560.38,-924 1560.38,-924 1560.38,-930 1554.38,-936 1548.38,-936"/>
<text text-anchor="middle" x="1493.88" y="-912.95" font-family="Helvetica,sans-Serif" font-size="14.00" fill="#e5e5e5">Full Dome Access</text>
</g>
<!-- frog_hall_door_secret&#45;&gt;big_dome_access_full -->
<g id="edge34" class="edge">
<title>frog_hall_door_secret&#45;&gt;big_dome_access_full</title>
<path fill="none" stroke="#d9d9d9" d="M1159.01,-1439.55C1242.28,-1417.81 1351.88,-1371.61 1351.88,-1279 1351.88,-1279 1351.88,-1279 1351.88,-1097 1351.88,-1048.06 1349.04,-1029.55 1377.88,-990 1393.13,-969.08 1416.59,-953.06 1438.43,-941.57"/>
<polygon fill="#d9d9d9" stroke="#d9d9d9" points="1439.92,-944.74 1447.3,-937.14 1436.79,-938.48 1439.92,-944.74"/>
</g>
<!-- boiler_island_dome_door_secret -->
<g id="node40" class="node">
<title>boiler_island_dome_door_secret</title>
<path fill="none" stroke="#d9d9d9" d="M1139.38,-1386C1139.38,-1386 994.38,-1386 994.38,-1386 988.38,-1386 982.38,-1380 982.38,-1374 982.38,-1374 982.38,-1362 982.38,-1362 982.38,-1356 988.38,-1350 994.38,-1350 994.38,-1350 1139.38,-1350 1139.38,-1350 1145.38,-1350 1151.38,-1356 1151.38,-1362 1151.38,-1362 1151.38,-1374 1151.38,-1374 1151.38,-1380 1145.38,-1386 1139.38,-1386"/>
<text text-anchor="middle" x="1066.88" y="-1362.95" font-family="Helvetica,sans-Serif" font-size="14.00" fill="#e5e5e5">behind the OTHER door</text>
</g>
<!-- frog_hall_door_secret&#45;&gt;boiler_island_dome_door_secret -->
<g id="edge35" class="edge">
<title>frog_hall_door_secret&#45;&gt;boiler_island_dome_door_secret</title>
<path fill="none" stroke="#d9d9d9" d="M1066.88,-1439.61C1066.88,-1427.68 1066.88,-1411.57 1066.88,-1397.74"/>
<polygon fill="#d9d9d9" stroke="#d9d9d9" points="1070.38,-1397.86 1066.88,-1387.86 1063.38,-1397.86 1070.38,-1397.86"/>
</g>
<!-- boiler_island_vent_fan_off -->
<g id="node41" class="node">
<title>boiler_island_vent_fan_off</title>
<path fill="none" stroke="#d9d9d9" d="M938.62,-1386C938.62,-1386 855.12,-1386 855.12,-1386 849.12,-1386 843.12,-1380 843.12,-1374 843.12,-1374 843.12,-1362 843.12,-1362 843.12,-1356 849.12,-1350 855.12,-1350 855.12,-1350 938.62,-1350 938.62,-1350 944.62,-1350 950.62,-1356 950.62,-1362 950.62,-1362 950.62,-1374 950.62,-1374 950.62,-1380 944.62,-1386 938.62,-1386"/>
<text text-anchor="middle" x="896.88" y="-1362.95" font-family="Helvetica,sans-Serif" font-size="14.00" fill="#e5e5e5">turn off the AC</text>
</g>
<!-- frog_hall_door_secret&#45;&gt;boiler_island_vent_fan_off -->
<g id="edge36" class="edge">
<title>frog_hall_door_secret&#45;&gt;boiler_island_vent_fan_off</title>
<path fill="none" stroke="#d9d9d9" d="M1033.29,-1439.61C1006.74,-1425.87 969.49,-1406.59 940.61,-1391.64"/>
<polygon fill="#d9d9d9" stroke="#d9d9d9" points="942.23,-1388.53 931.74,-1387.05 939.01,-1394.75 942.23,-1388.53"/>
</g>
<!-- island_color_boiler -->
<g id="node54" class="node">
<title>island_color_boiler</title>
<path fill="none" stroke="#d9d9d9" d="M1287.25,-1296C1287.25,-1296 1102.5,-1296 1102.5,-1296 1096.5,-1296 1090.5,-1290 1090.5,-1284 1090.5,-1284 1090.5,-1272 1090.5,-1272 1090.5,-1266 1096.5,-1260 1102.5,-1260 1102.5,-1260 1287.25,-1260 1287.25,-1260 1293.25,-1260 1299.25,-1266 1299.25,-1272 1299.25,-1272 1299.25,-1284 1299.25,-1284 1299.25,-1290 1293.25,-1296 1287.25,-1296"/>
<text text-anchor="middle" x="1194.88" y="-1272.95" font-family="Helvetica,sans-Serif" font-size="14.00" fill="#e5e5e5">find boiler island dome symbol</text>
</g>
<!-- frog_hall_door_secret&#45;&gt;island_color_boiler -->
<g id="edge37" class="edge">
<title>frog_hall_door_secret&#45;&gt;island_color_boiler</title>
<path fill="none" stroke="#d9d9d9" d="M1101.04,-1439.61C1122.02,-1427.29 1147.84,-1408.91 1163.88,-1386 1180.23,-1362.63 1188.03,-1330.67 1191.7,-1307.78"/>
<polygon fill="#d9d9d9" stroke="#d9d9d9" points="1195.16,-1308.3 1193.1,-1297.91 1188.23,-1307.32 1195.16,-1308.3"/>
</g>
<!-- gehn_trapped -->
<g id="node22" class="node">
<title>gehn_trapped</title>
<path fill="#280060" stroke="#d9d9d9" d="M183.62,-306C183.62,-306 124.12,-306 124.12,-306 118.12,-306 112.12,-300 112.12,-294 112.12,-294 112.12,-282 112.12,-282 112.12,-276 118.12,-270 124.12,-270 124.12,-270 183.62,-270 183.62,-270 189.62,-270 195.62,-276 195.62,-282 195.62,-282 195.62,-294 195.62,-294 195.62,-300 189.62,-306 183.62,-306"/>
<text text-anchor="middle" x="153.88" y="-282.95" font-family="Helvetica,sans-Serif" font-size="14.00" fill="#e5e5e5">Trap Gehn</text>
</g>
<!-- gehn_trapped&#45;&gt;ending_free_gehn -->
<g id="edge43" class="edge">
<title>gehn_trapped&#45;&gt;ending_free_gehn</title>
<path fill="none" stroke="#d9d9d9" d="M169.68,-269.61C181.29,-256.84 197.27,-239.27 210.38,-224.85"/>
<polygon fill="#d9d9d9" stroke="#d9d9d9" points="212.95,-227.22 217.08,-217.47 207.77,-222.51 212.95,-227.22"/>
</g>
<!-- gehn_trapped&#45;&gt;ending_good -->
<g id="edge44" class="edge">
<title>gehn_trapped&#45;&gt;ending_good</title>
<path fill="none" stroke="#d9d9d9" d="M153.88,-269.83C153.88,-224.93 153.88,-103.69 153.88,-47.86"/>
<polygon fill="#d9d9d9" stroke="#d9d9d9" points="157.38,-47.89 153.88,-37.89 150.38,-47.89 157.38,-47.89"/>
</g>
<!-- gehn_trapped&#45;&gt;ending_no_wife -->
<g id="edge45" class="edge">
<title>gehn_trapped&#45;&gt;ending_no_wife</title>
<path fill="none" stroke="#d9d9d9" d="M195.9,-270C231.06,-254.9 277.29,-232.7 288.88,-216 324.12,-165.19 322.25,-88.87 317.97,-47.73"/>
<polygon fill="#d9d9d9" stroke="#d9d9d9" points="321.46,-47.42 316.81,-37.9 314.51,-48.24 321.46,-47.42"/>
</g>
<!-- gehn_ringtone_learned -->
<g id="node52" class="node">
<title>gehn_ringtone_learned</title>
<path fill="none" stroke="#d9d9d9" d="M103.75,-216C103.75,-216 12,-216 12,-216 6,-216 0,-210 0,-204 0,-204 0,-192 0,-192 0,-186 6,-180 12,-180 12,-180 103.75,-180 103.75,-180 109.75,-180 115.75,-186 115.75,-192 115.75,-192 115.75,-204 115.75,-204 115.75,-210 109.75,-216 103.75,-216"/>
<text text-anchor="middle" x="57.88" y="-192.95" font-family="Helvetica,sans-Serif" font-size="14.00" fill="#e5e5e5">Gehn&#39;s ringtone</text>
</g>
<!-- gehn_trapped&#45;&gt;gehn_ringtone_learned -->
<g id="edge46" class="edge">
<title>gehn_trapped&#45;&gt;gehn_ringtone_learned</title>
<path fill="none" stroke="#d9d9d9" d="M134.91,-269.61C120.71,-256.6 101.08,-238.6 85.19,-224.04"/>
<polygon fill="#d9d9d9" stroke="#d9d9d9" points="87.65,-221.55 77.92,-217.37 82.92,-226.71 87.65,-221.55"/>
</g>
<!-- island_colors_learned -->
<g id="node23" class="node">
<title>island_colors_learned</title>
<path fill="#280060" stroke="#d9d9d9" d="M1307.75,-666C1307.75,-666 1192,-666 1192,-666 1186,-666 1180,-660 1180,-654 1180,-654 1180,-642 1180,-642 1180,-636 1186,-630 1192,-630 1192,-630 1307.75,-630 1307.75,-630 1313.75,-630 1319.75,-636 1319.75,-642 1319.75,-642 1319.75,-654 1319.75,-654 1319.75,-660 1313.75,-666 1307.75,-666"/>
<text text-anchor="middle" x="1249.88" y="-642.95" font-family="Helvetica,sans-Serif" font-size="14.00" fill="#e5e5e5">Learn Island Colors</text>
</g>
<!-- island_colors_learned&#45;&gt;dome_power -->
<g id="edge54" class="edge">
<title>island_colors_learned&#45;&gt;dome_power</title>
<path fill="none" stroke="#d9d9d9" d="M1284.84,-629.61C1312.6,-615.81 1351.61,-596.42 1381.73,-581.45"/>
<polygon fill="#d9d9d9" stroke="#d9d9d9" points="1383.23,-584.61 1390.62,-577.02 1380.11,-578.34 1383.23,-584.61"/>
</g>
<!-- map_island_maglev_rotated -->
<g id="node24" class="node">
<title>map_island_maglev_rotated</title>
<path fill="#280060" stroke="#d9d9d9" d="M1093.5,-1026C1093.5,-1026 904.25,-1026 904.25,-1026 898.25,-1026 892.25,-1020 892.25,-1014 892.25,-1014 892.25,-1002 892.25,-1002 892.25,-996 898.25,-990 904.25,-990 904.25,-990 1093.5,-990 1093.5,-990 1099.5,-990 1105.5,-996 1105.5,-1002 1105.5,-1002 1105.5,-1014 1105.5,-1014 1105.5,-1020 1099.5,-1026 1093.5,-1026"/>
<text text-anchor="middle" x="998.88" y="-1002.95" font-family="Helvetica,sans-Serif" font-size="14.00" fill="#e5e5e5">Turn the fucking maglev around</text>
</g>
<!-- map_island_basement_access -->
<g id="node59" class="node">
<title>map_island_basement_access</title>
<path fill="none" stroke="#d9d9d9" d="M1024,-936C1024,-936 897.75,-936 897.75,-936 891.75,-936 885.75,-930 885.75,-924 885.75,-924 885.75,-912 885.75,-912 885.75,-906 891.75,-900 897.75,-900 897.75,-900 1024,-900 1024,-900 1030,-900 1036,-906 1036,-912 1036,-912 1036,-924 1036,-924 1036,-930 1030,-936 1024,-936"/>
<text text-anchor="middle" x="960.88" y="-912.95" font-family="Helvetica,sans-Serif" font-size="14.00" fill="#e5e5e5">Map island basement</text>
</g>
<!-- map_island_maglev_rotated&#45;&gt;map_island_basement_access -->
<g id="edge61" class="edge">
<title>map_island_maglev_rotated&#45;&gt;map_island_basement_access</title>
<path fill="none" stroke="#d9d9d9" d="M991.37,-989.61C986.11,-977.44 978.97,-960.91 972.93,-946.91"/>
<polygon fill="#d9d9d9" stroke="#d9d9d9" points="976.14,-945.53 968.97,-937.74 969.72,-948.31 976.14,-945.53"/>
</g>
<!-- orb_all&#45;&gt;food_chain_learned -->
<g id="edge62" class="edge">
<title>orb_all&#45;&gt;food_chain_learned</title>
<path fill="none" stroke="#d9d9d9" d="M277.52,-719.82C299.88,-698.25 339.87,-660.4 375.88,-630 395.17,-613.71 417.6,-596.37 435.47,-582.91"/>
<polygon fill="#d9d9d9" stroke="#d9d9d9" points="437.25,-585.95 443.16,-577.16 433.05,-580.35 437.25,-585.95"/>
</g>
<!-- rotating_room_complete -->
<g id="node26" class="node">
<title>rotating_room_complete</title>
<path fill="#280060" stroke="#d9d9d9" d="M1755.12,-1206C1755.12,-1206 1626.62,-1206 1626.62,-1206 1620.62,-1206 1614.62,-1200 1614.62,-1194 1614.62,-1194 1614.62,-1182 1614.62,-1182 1614.62,-1176 1620.62,-1170 1626.62,-1170 1626.62,-1170 1755.12,-1170 1755.12,-1170 1761.12,-1170 1767.12,-1176 1767.12,-1182 1767.12,-1182 1767.12,-1194 1767.12,-1194 1767.12,-1200 1761.12,-1206 1755.12,-1206"/>
<text text-anchor="middle" x="1690.88" y="-1182.95" font-family="Helvetica,sans-Serif" font-size="14.00" fill="#e5e5e5">Rotating Room 100%</text>
</g>
<!-- big_dome_access_basic -->
<g id="node34" class="node">
<title>big_dome_access_basic</title>
<path fill="none" stroke="#d9d9d9" d="M1749.5,-1116C1749.5,-1116 1632.25,-1116 1632.25,-1116 1626.25,-1116 1620.25,-1110 1620.25,-1104 1620.25,-1104 1620.25,-1092 1620.25,-1092 1620.25,-1086 1626.25,-1080 1632.25,-1080 1632.25,-1080 1749.5,-1080 1749.5,-1080 1755.5,-1080 1761.5,-1086 1761.5,-1092 1761.5,-1092 1761.5,-1104 1761.5,-1104 1761.5,-1110 1755.5,-1116 1749.5,-1116"/>
<text text-anchor="middle" x="1690.88" y="-1092.95" font-family="Helvetica,sans-Serif" font-size="14.00" fill="#e5e5e5">Basic dome access</text>
</g>
<!-- rotating_room_complete&#45;&gt;big_dome_access_basic -->
<g id="edge68" class="edge">
<title>rotating_room_complete&#45;&gt;big_dome_access_basic</title>
<path fill="none" stroke="#d9d9d9" d="M1690.88,-1169.61C1690.88,-1157.68 1690.88,-1141.57 1690.88,-1127.74"/>
<polygon fill="#d9d9d9" stroke="#d9d9d9" points="1694.38,-1127.86 1690.88,-1117.86 1687.38,-1127.86 1694.38,-1127.86"/>
</g>
<!-- rotating_room_partial -->
<g id="node61" class="node">
<title>rotating_room_partial</title>
<path fill="none" stroke="#d9d9d9" d="M1751,-1296C1751,-1296 1630.75,-1296 1630.75,-1296 1624.75,-1296 1618.75,-1290 1618.75,-1284 1618.75,-1284 1618.75,-1272 1618.75,-1272 1618.75,-1266 1624.75,-1260 1630.75,-1260 1630.75,-1260 1751,-1260 1751,-1260 1757,-1260 1763,-1266 1763,-1272 1763,-1272 1763,-1284 1763,-1284 1763,-1290 1757,-1296 1751,-1296"/>
<text text-anchor="middle" x="1690.88" y="-1272.95" font-family="Helvetica,sans-Serif" font-size="14.00" fill="#e5e5e5">Rotating Room 50%</text>
</g>
<!-- rotating_room_shit_door&#45;&gt;rotating_room_partial -->
<g id="edge71" class="edge">
<title>rotating_room_shit_door&#45;&gt;rotating_room_partial</title>
<path fill="none" stroke="#d9d9d9" d="M964.04,-1812.56C1136.68,-1800.3 1546.88,-1758.6 1546.88,-1639 1546.88,-1639 1546.88,-1639 1546.88,-1457 1546.88,-1389.37 1610.48,-1333.02 1653.14,-1302.82"/>
<polygon fill="#d9d9d9" stroke="#d9d9d9" points="1654.93,-1305.84 1661.18,-1297.28 1650.96,-1300.07 1654.93,-1305.84"/>
</g>
<!-- submarine_lever_room_solved -->
<g id="node28" class="node">
<title>submarine_lever_room_solved</title>
<path fill="#280060" stroke="#d9d9d9" d="M698.38,-846C698.38,-846 571.38,-846 571.38,-846 565.38,-846 559.38,-840 559.38,-834 559.38,-834 559.38,-822 559.38,-822 559.38,-816 565.38,-810 571.38,-810 571.38,-810 698.38,-810 698.38,-810 704.38,-810 710.38,-816 710.38,-822 710.38,-822 710.38,-834 710.38,-834 710.38,-840 704.38,-846 698.38,-846"/>
<text text-anchor="middle" x="634.88" y="-822.95" font-family="Helvetica,sans-Serif" font-size="14.00" fill="#e5e5e5">Figure out lever room</text>
</g>
<!-- village_island_execution_platform_access -->
<g id="node70" class="node">
<title>village_island_execution_platform_access</title>
<path fill="none" stroke="#d9d9d9" d="M513.5,-756C513.5,-756 360.25,-756 360.25,-756 354.25,-756 348.25,-750 348.25,-744 348.25,-744 348.25,-732 348.25,-732 348.25,-726 354.25,-720 360.25,-720 360.25,-720 513.5,-720 513.5,-720 519.5,-720 525.5,-726 525.5,-732 525.5,-732 525.5,-744 525.5,-744 525.5,-750 519.5,-756 513.5,-756"/>
<text text-anchor="middle" x="436.88" y="-732.95" font-family="Helvetica,sans-Serif" font-size="14.00" fill="#e5e5e5">Reach execution platform</text>
</g>
<!-- submarine_lever_room_solved&#45;&gt;village_island_execution_platform_access -->
<g id="edge79" class="edge">
<title>submarine_lever_room_solved&#45;&gt;village_island_execution_platform_access</title>
<path fill="none" stroke="#d9d9d9" d="M595.76,-809.61C564.3,-795.63 519.92,-775.91 486.06,-760.86"/>
<polygon fill="#d9d9d9" stroke="#d9d9d9" points="487.85,-757.83 477.3,-756.96 485.01,-764.22 487.85,-757.83"/>
</g>
<!-- village_island_school_access -->
<g id="node74" class="node">
<title>village_island_school_access</title>
<path fill="none" stroke="#d9d9d9" d="M641.38,-756C641.38,-756 562.38,-756 562.38,-756 556.38,-756 550.38,-750 550.38,-744 550.38,-744 550.38,-732 550.38,-732 550.38,-726 556.38,-720 562.38,-720 562.38,-720 641.38,-720 641.38,-720 647.38,-720 653.38,-726 653.38,-732 653.38,-732 653.38,-744 653.38,-744 653.38,-750 647.38,-756 641.38,-756"/>
<text text-anchor="middle" x="601.88" y="-732.95" font-family="Helvetica,sans-Serif" font-size="14.00" fill="#e5e5e5">School house</text>
</g>
<!-- submarine_lever_room_solved&#45;&gt;village_island_school_access -->
<g id="edge80" class="edge">
<title>submarine_lever_room_solved&#45;&gt;village_island_school_access</title>
<path fill="none" stroke="#d9d9d9" d="M628.36,-809.61C623.79,-797.44 617.59,-780.91 612.34,-766.91"/>
<polygon fill="#d9d9d9" stroke="#d9d9d9" points="615.7,-765.9 608.91,-757.77 609.15,-768.36 615.7,-765.9"/>
</g>
<!-- telescope_stop -->
<g id="node29" class="node">
<title>telescope_stop</title>
<path fill="#280060" stroke="#d9d9d9" d="M366.75,-306C366.75,-306 233,-306 233,-306 227,-306 221,-300 221,-294 221,-294 221,-282 221,-282 221,-276 227,-270 233,-270 233,-270 366.75,-270 366.75,-270 372.75,-270 378.75,-276 378.75,-282 378.75,-282 378.75,-294 378.75,-294 378.75,-300 372.75,-306 366.75,-306"/>
<text text-anchor="middle" x="299.88" y="-282.95" font-family="Helvetica,sans-Serif" font-size="14.00" fill="#e5e5e5">Learn Telescope Stop</text>
</g>
<!-- signal_atrus -->
<g id="node62" class="node">
<title>signal_atrus</title>
<path fill="none" stroke="#d9d9d9" d="M465.75,-126C465.75,-126 398,-126 398,-126 392,-126 386,-120 386,-114 386,-114 386,-102 386,-102 386,-96 392,-90 398,-90 398,-90 465.75,-90 465.75,-90 471.75,-90 477.75,-96 477.75,-102 477.75,-102 477.75,-114 477.75,-114 477.75,-120 471.75,-126 465.75,-126"/>
<text text-anchor="middle" x="431.88" y="-102.95" font-family="Helvetica,sans-Serif" font-size="14.00" fill="#e5e5e5">Signal Atrus</text>
</g>
<!-- telescope_stop&#45;&gt;signal_atrus -->
<g id="edge88" class="edge">
<title>telescope_stop&#45;&gt;signal_atrus</title>
<path fill="none" stroke="#d9d9d9" d="M312.77,-269.61C335.94,-238.37 384.72,-172.58 412.13,-135.63"/>
<polygon fill="#d9d9d9" stroke="#d9d9d9" points="414.88,-137.8 418.02,-127.68 409.26,-133.63 414.88,-137.8"/>
</g>
<!-- village_island_animal_room_access -->
<g id="node30" class="node">
<title>village_island_animal_room_access</title>
<path fill="#280060" stroke="#d9d9d9" d="M355,-576C355,-576 210.75,-576 210.75,-576 204.75,-576 198.75,-570 198.75,-564 198.75,-564 198.75,-552 198.75,-552 198.75,-546 204.75,-540 210.75,-540 210.75,-540 355,-540 355,-540 361,-540 367,-546 367,-552 367,-552 367,-564 367,-564 367,-570 361,-576 355,-576"/>
<text text-anchor="middle" x="282.88" y="-552.95" font-family="Helvetica,sans-Serif" font-size="14.00" fill="#e5e5e5">Find secret animal room</text>
</g>
<!-- tay_visited -->
<g id="node63" class="node">
<title>tay_visited</title>
<path fill="none" stroke="#d9d9d9" d="M341.88,-486C341.88,-486 223.88,-486 223.88,-486 217.88,-486 211.88,-480 211.88,-474 211.88,-474 211.88,-462 211.88,-462 211.88,-456 217.88,-450 223.88,-450 223.88,-450 341.88,-450 341.88,-450 347.88,-450 353.88,-456 353.88,-462 353.88,-462 353.88,-474 353.88,-474 353.88,-480 347.88,-486 341.88,-486"/>
<text text-anchor="middle" x="282.88" y="-462.95" font-family="Helvetica,sans-Serif" font-size="14.00" fill="#e5e5e5">Moiety Age Fieldtrip</text>
</g>
<!-- village_island_animal_room_access&#45;&gt;tay_visited -->
<g id="edge90" class="edge">
<title>village_island_animal_room_access&#45;&gt;tay_visited</title>
<path fill="none" stroke="#d9d9d9" d="M282.88,-539.61C282.88,-527.68 282.88,-511.57 282.88,-497.74"/>
<polygon fill="#d9d9d9" stroke="#d9d9d9" points="286.38,-497.86 282.88,-487.86 279.38,-497.86 286.38,-497.86"/>
</g>
<!-- submarine_found -->
<g id="node31" class="node">
<title>submarine_found</title>
<path fill="none" stroke="#d9d9d9" d="M733.62,-1656C733.62,-1656 644.12,-1656 644.12,-1656 638.12,-1656 632.12,-1650 632.12,-1644 632.12,-1644 632.12,-1632 632.12,-1632 632.12,-1626 638.12,-1620 644.12,-1620 644.12,-1620 733.62,-1620 733.62,-1620 739.62,-1620 745.62,-1626 745.62,-1632 745.62,-1632 745.62,-1644 745.62,-1644 745.62,-1650 739.62,-1656 733.62,-1656"/>
<text text-anchor="middle" x="688.88" y="-1632.95" font-family="Helvetica,sans-Serif" font-size="14.00" fill="#e5e5e5">Find submarine</text>
</g>
<!-- submarine_found&#45;&gt;submarine_lever_room_solved -->
<g id="edge78" class="edge">
<title>submarine_found&#45;&gt;submarine_lever_room_solved</title>
<path fill="none" stroke="#d9d9d9" d="M688.88,-1619.57C688.88,-1587.69 688.88,-1517.87 688.88,-1459 688.88,-1459 688.88,-1459 688.88,-1007 688.88,-951.63 664.66,-890.59 648.66,-856.31"/>
<polygon fill="#d9d9d9" stroke="#d9d9d9" points="651.92,-855.03 644.45,-847.52 645.61,-858.05 651.92,-855.03"/>
</g>
<!-- frog_caught -->
<g id="node32" class="node">
<title>frog_caught</title>
<path fill="none" stroke="#d9d9d9" d="M303.75,-1476C303.75,-1476 236,-1476 236,-1476 230,-1476 224,-1470 224,-1464 224,-1464 224,-1452 224,-1452 224,-1446 230,-1440 236,-1440 236,-1440 303.75,-1440 303.75,-1440 309.75,-1440 315.75,-1446 315.75,-1452 315.75,-1452 315.75,-1464 315.75,-1464 315.75,-1470 309.75,-1476 303.75,-1476"/>
<text text-anchor="middle" x="269.88" y="-1452.95" font-family="Helvetica,sans-Serif" font-size="14.00" fill="#e5e5e5">Frog caught</text>
</g>
<!-- frog_caught&#45;&gt;orb_frog -->
<g id="edge2" class="edge">
<title>frog_caught&#45;&gt;orb_frog</title>
<g id="a_edge2"><a xlink:title="optionally crossref the frog sound">
<path fill="none" stroke="#d9d9d9" stroke-dasharray="5,2" d="M266.64,-1439.73C255.92,-1382.43 221.44,-1198.18 208.16,-1127.22"/>
<polygon fill="#d9d9d9" stroke="#d9d9d9" points="211.63,-1126.77 206.35,-1117.58 204.75,-1128.05 211.63,-1126.77"/>
</a>
</g>
</g>
<!-- frog_hall_access&#45;&gt;frog_hall_door_secret -->
<g id="edge33" class="edge">
<title>frog_hall_access&#45;&gt;frog_hall_door_secret</title>
<path fill="none" stroke="#d9d9d9" d="M514.52,-1532.2C518.35,-1531.41 522.16,-1530.67 525.88,-1530 669.6,-1503.9 836.47,-1483.48 946.46,-1471.37"/>
<polygon fill="#d9d9d9" stroke="#d9d9d9" points="946.52,-1474.88 956.08,-1470.32 945.76,-1467.93 946.52,-1474.88"/>
</g>
<!-- frog_hall_access&#45;&gt;frog_caught -->
<g id="edge32" class="edge">
<title>frog_hall_access&#45;&gt;frog_caught</title>
<path fill="none" stroke="#d9d9d9" d="M416.72,-1529.61C387.9,-1515.75 347.33,-1496.25 316.14,-1481.25"/>
<polygon fill="#d9d9d9" stroke="#d9d9d9" points="317.85,-1478.19 307.32,-1477.01 314.81,-1484.49 317.85,-1478.19"/>
</g>
<!-- big_dome_access_basic&#45;&gt;big_dome_upper_stairs_lever_found -->
<g id="edge5" class="edge">
<title>big_dome_access_basic&#45;&gt;big_dome_upper_stairs_lever_found</title>
<path fill="none" stroke="#d9d9d9" d="M1690.88,-1079.61C1690.88,-1067.68 1690.88,-1051.57 1690.88,-1037.74"/>
<polygon fill="#d9d9d9" stroke="#d9d9d9" points="1694.38,-1037.86 1690.88,-1027.86 1687.38,-1037.86 1694.38,-1037.86"/>
</g>
<!-- big_dome_backdoor_bridge_power -->
<g id="node37" class="node">
<title>big_dome_backdoor_bridge_power</title>
<path fill="none" stroke="#d9d9d9" d="M1587.62,-1026C1587.62,-1026 1402.12,-1026 1402.12,-1026 1396.12,-1026 1390.12,-1020 1390.12,-1014 1390.12,-1014 1390.12,-1002 1390.12,-1002 1390.12,-996 1396.12,-990 1402.12,-990 1402.12,-990 1587.62,-990 1587.62,-990 1593.62,-990 1599.62,-996 1599.62,-1002 1599.62,-1002 1599.62,-1014 1599.62,-1014 1599.62,-1020 1593.62,-1026 1587.62,-1026"/>
<text text-anchor="middle" x="1494.88" y="-1002.95" font-family="Helvetica,sans-Serif" font-size="14.00" fill="#e5e5e5">Power Dome Backdoor Bridge</text>
</g>
<!-- big_dome_access_basic&#45;&gt;big_dome_backdoor_bridge_power -->
<g id="edge4" class="edge">
<title>big_dome_access_basic&#45;&gt;big_dome_backdoor_bridge_power</title>
<path fill="none" stroke="#d9d9d9" d="M1652.15,-1079.61C1621.15,-1065.69 1577.46,-1046.08 1543.99,-1031.05"/>
<polygon fill="#d9d9d9" stroke="#d9d9d9" points="1545.45,-1027.87 1534.9,-1026.97 1542.59,-1034.26 1545.45,-1027.87"/>
</g>
<!-- big_dome_upper_stairs_power -->
<g id="node39" class="node">
<title>big_dome_upper_stairs_power</title>
<path fill="none" stroke="#d9d9d9" d="M1951.75,-1026C1951.75,-1026 1794,-1026 1794,-1026 1788,-1026 1782,-1020 1782,-1014 1782,-1014 1782,-1002 1782,-1002 1782,-996 1788,-990 1794,-990 1794,-990 1951.75,-990 1951.75,-990 1957.75,-990 1963.75,-996 1963.75,-1002 1963.75,-1002 1963.75,-1014 1963.75,-1014 1963.75,-1020 1957.75,-1026 1951.75,-1026"/>
<text text-anchor="middle" x="1872.88" y="-1002.95" font-family="Helvetica,sans-Serif" font-size="14.00" fill="#e5e5e5">Power Upper Dome Stairs</text>
</g>
<!-- big_dome_access_basic&#45;&gt;big_dome_upper_stairs_power -->
<g id="edge6" class="edge">
<title>big_dome_access_basic&#45;&gt;big_dome_upper_stairs_power</title>
<path fill="none" stroke="#d9d9d9" d="M1726.83,-1079.61C1755.5,-1065.75 1795.84,-1046.25 1826.86,-1031.25"/>
<polygon fill="#d9d9d9" stroke="#d9d9d9" points="1828.15,-1034.51 1835.63,-1027.01 1825.1,-1028.21 1828.15,-1034.51"/>
</g>
<!-- big_dome_access_full&#45;&gt;big_dome_elevator_understood -->
<g id="edge8" class="edge">
<title>big_dome_access_full&#45;&gt;big_dome_elevator_understood</title>
<path fill="none" stroke="#d9d9d9" d="M1493.68,-899.61C1493.54,-887.68 1493.36,-871.57 1493.2,-857.74"/>
<polygon fill="#d9d9d9" stroke="#d9d9d9" points="1496.7,-857.82 1493.09,-847.86 1489.7,-857.9 1496.7,-857.82"/>
</g>
<!-- big_dome_access_full&#45;&gt;big_dome_access_upper -->
<g id="edge7" class="edge">
<title>big_dome_access_full&#45;&gt;big_dome_access_upper</title>
<path fill="none" stroke="#d9d9d9" d="M1536.61,-899.51C1570.83,-885.5 1619,-865.78 1655.71,-850.76"/>
<polygon fill="#d9d9d9" stroke="#d9d9d9" points="1656.89,-854.06 1664.82,-847.03 1654.24,-847.58 1656.89,-854.06"/>
</g>
<!-- big_dome_access_upper&#45;&gt;big_dome_power_button_found -->
<g id="edge10" class="edge">
<title>big_dome_access_upper&#45;&gt;big_dome_power_button_found</title>
<path fill="none" stroke="#d9d9d9" d="M1758.23,-809.59C1782.31,-798.3 1809.01,-780.97 1822.88,-756 1836.41,-731.62 1829.47,-699.42 1821.29,-676.73"/>
<polygon fill="#d9d9d9" stroke="#d9d9d9" points="1824.6,-675.57 1817.69,-667.54 1818.08,-678.13 1824.6,-675.57"/>
</g>
<!-- big_dome_needs_coordinates -->
<g id="node38" class="node">
<title>big_dome_needs_coordinates</title>
<path fill="none" stroke="#d9d9d9" d="M1798.62,-756C1798.62,-756 1619.12,-756 1619.12,-756 1613.12,-756 1607.12,-750 1607.12,-744 1607.12,-744 1607.12,-732 1607.12,-732 1607.12,-726 1613.12,-720 1619.12,-720 1619.12,-720 1798.62,-720 1798.62,-720 1804.62,-720 1810.62,-726 1810.62,-732 1810.62,-732 1810.62,-744 1810.62,-744 1810.62,-750 1804.62,-756 1798.62,-756"/>
<text text-anchor="middle" x="1708.88" y="-732.95" font-family="Helvetica,sans-Serif" font-size="14.00" fill="#e5e5e5">Realize you need coordinates</text>
</g>
<!-- big_dome_access_upper&#45;&gt;big_dome_needs_coordinates -->
<g id="edge9" class="edge">
<title>big_dome_access_upper&#45;&gt;big_dome_needs_coordinates</title>
<path fill="none" stroke="#d9d9d9" d="M1708.88,-809.61C1708.88,-797.68 1708.88,-781.57 1708.88,-767.74"/>
<polygon fill="#d9d9d9" stroke="#d9d9d9" points="1712.38,-767.86 1708.88,-757.86 1705.38,-767.86 1712.38,-767.86"/>
</g>
<!-- big_dome_backdoor_bridge_power&#45;&gt;big_dome_access_full -->
<g id="edge11" class="edge">
<title>big_dome_backdoor_bridge_power&#45;&gt;big_dome_access_full</title>
<path fill="none" stroke="#d9d9d9" d="M1494.68,-989.61C1494.54,-977.68 1494.36,-961.57 1494.2,-947.74"/>
<polygon fill="#d9d9d9" stroke="#d9d9d9" points="1497.7,-947.82 1494.09,-937.86 1490.7,-947.9 1497.7,-947.82"/>
</g>
<!-- big_dome_needs_coordinates&#45;&gt;dome_coordinates_learned -->
<g id="edge13" class="edge">
<title>big_dome_needs_coordinates&#45;&gt;dome_coordinates_learned</title>
<path fill="none" stroke="#d9d9d9" d="M1681.22,-719.61C1659.74,-706.11 1629.75,-687.26 1606.15,-672.43"/>
<polygon fill="#d9d9d9" stroke="#d9d9d9" points="1608.09,-669.51 1597.76,-667.16 1604.36,-675.44 1608.09,-669.51"/>
</g>
<!-- big_dome_upper_stairs_power&#45;&gt;big_dome_access_upper -->
<g id="edge16" class="edge">
<title>big_dome_upper_stairs_power&#45;&gt;big_dome_access_upper</title>
<path fill="none" stroke="#d9d9d9" d="M1856.85,-989.61C1827.83,-958.1 1766.42,-891.46 1732.55,-854.69"/>
<polygon fill="#d9d9d9" stroke="#d9d9d9" points="1735.34,-852.56 1725.99,-847.58 1730.19,-857.3 1735.34,-852.56"/>
</g>
<!-- boiler_island_dome_door_secret&#45;&gt;island_color_boiler -->
<g id="edge1" class="edge">
<title>boiler_island_dome_door_secret&#45;&gt;island_color_boiler</title>
<g id="a_edge1"><a xlink:title="optionally read the symbol without motion blur">
<path fill="none" stroke="#d9d9d9" stroke-dasharray="5,2" d="M1092.16,-1349.61C1111.62,-1336.24 1138.73,-1317.6 1160.21,-1302.83"/>
<polygon fill="#d9d9d9" stroke="#d9d9d9" points="1162.13,-1305.76 1168.39,-1297.21 1158.17,-1299.99 1162.13,-1305.76"/>
</a>
</g>
</g>
<!-- gehn_workshop_access -->
<g id="node53" class="node">
<title>gehn_workshop_access</title>
<path fill="none" stroke="#d9d9d9" d="M960.38,-1296C960.38,-1296 809.38,-1296 809.38,-1296 803.38,-1296 797.38,-1290 797.38,-1284 797.38,-1284 797.38,-1272 797.38,-1272 797.38,-1266 803.38,-1260 809.38,-1260 809.38,-1260 960.38,-1260 960.38,-1260 966.38,-1260 972.38,-1266 972.38,-1272 972.38,-1272 972.38,-1284 972.38,-1284 972.38,-1290 966.38,-1296 960.38,-1296"/>
<text text-anchor="middle" x="884.88" y="-1272.95" font-family="Helvetica,sans-Serif" font-size="14.00" fill="#e5e5e5">Gehn&#39;s workshop access</text>
</g>
<!-- boiler_island_vent_fan_off&#45;&gt;gehn_workshop_access -->
<g id="edge17" class="edge">
<title>boiler_island_vent_fan_off&#45;&gt;gehn_workshop_access</title>
<path fill="none" stroke="#d9d9d9" d="M894.5,-1349.61C892.88,-1337.68 890.68,-1321.57 888.79,-1307.74"/>
<polygon fill="#d9d9d9" stroke="#d9d9d9" points="892.26,-1307.28 887.45,-1297.85 885.33,-1308.23 892.26,-1307.28"/>
</g>
<!-- catherine_journal -->
<g id="node42" class="node">
<title>catherine_journal</title>
<path fill="none" stroke="#d9d9d9" d="M279.25,-396C279.25,-396 166.5,-396 166.5,-396 160.5,-396 154.5,-390 154.5,-384 154.5,-384 154.5,-372 154.5,-372 154.5,-366 160.5,-360 166.5,-360 166.5,-360 279.25,-360 279.25,-360 285.25,-360 291.25,-366 291.25,-372 291.25,-372 291.25,-384 291.25,-384 291.25,-390 285.25,-396 279.25,-396"/>
<text text-anchor="middle" x="222.88" y="-372.95" font-family="Helvetica,sans-Serif" font-size="14.00" fill="#e5e5e5">Catherine&#39;s Journal</text>
</g>
<!-- catherine_journal&#45;&gt;telescope_stop -->
<g id="edge20" class="edge">
<title>catherine_journal&#45;&gt;telescope_stop</title>
<path fill="none" stroke="#d9d9d9" d="M238.09,-359.61C249.27,-346.84 264.64,-329.27 277.26,-314.85"/>
<polygon fill="#d9d9d9" stroke="#d9d9d9" points="279.75,-317.32 283.7,-307.49 274.48,-312.71 279.75,-317.32"/>
</g>
<!-- telescope_code -->
<g id="node64" class="node">
<title>telescope_code</title>
<path fill="none" stroke="#d9d9d9" d="M554.38,-306C554.38,-306 415.38,-306 415.38,-306 409.38,-306 403.38,-300 403.38,-294 403.38,-294 403.38,-282 403.38,-282 403.38,-276 409.38,-270 415.38,-270 415.38,-270 554.38,-270 554.38,-270 560.38,-270 566.38,-276 566.38,-282 566.38,-282 566.38,-294 566.38,-294 566.38,-300 560.38,-306 554.38,-306"/>
<text text-anchor="middle" x="484.88" y="-282.95" font-family="Helvetica,sans-Serif" font-size="14.00" fill="#e5e5e5">Learn Telescope Code</text>
</g>
<!-- catherine_journal&#45;&gt;telescope_code -->
<g id="edge19" class="edge">
<title>catherine_journal&#45;&gt;telescope_code</title>
<path fill="none" stroke="#d9d9d9" d="M274.95,-359.51C317.28,-345.29 377.12,-325.19 422.1,-310.09"/>
<polygon fill="#d9d9d9" stroke="#d9d9d9" points="423.1,-313.44 431.46,-306.94 420.87,-306.81 423.1,-313.44"/>
</g>
<!-- dni_colors_learned -->
<g id="node43" class="node">
<title>dni_colors_learned</title>
<path fill="none" stroke="#d9d9d9" d="M1174.12,-846C1174.12,-846 1075.62,-846 1075.62,-846 1069.62,-846 1063.62,-840 1063.62,-834 1063.62,-834 1063.62,-822 1063.62,-822 1063.62,-816 1069.62,-810 1075.62,-810 1075.62,-810 1174.12,-810 1174.12,-810 1180.12,-810 1186.12,-816 1186.12,-822 1186.12,-822 1186.12,-834 1186.12,-834 1186.12,-840 1180.12,-846 1174.12,-846"/>
<text text-anchor="middle" x="1124.88" y="-822.95" font-family="Helvetica,sans-Serif" font-size="14.00" fill="#e5e5e5">Learn D&#39;ni colors</text>
</g>
<!-- dni_colors_learned&#45;&gt;island_colors_learned -->
<g id="edge21" class="edge">
<title>dni_colors_learned&#45;&gt;island_colors_learned</title>
<path fill="none" stroke="#d9d9d9" d="M1137.09,-809.61C1159.02,-778.37 1205.22,-712.58 1231.17,-675.63"/>
<polygon fill="#d9d9d9" stroke="#d9d9d9" points="1233.86,-677.9 1236.74,-667.7 1228.13,-673.87 1233.86,-677.9"/>
</g>
<!-- gehn_age_access -->
<g id="node49" class="node">
<title>gehn_age_access</title>
<path fill="none" stroke="#d9d9d9" d="M855.38,-396C855.38,-396 788.38,-396 788.38,-396 782.38,-396 776.38,-390 776.38,-384 776.38,-384 776.38,-372 776.38,-372 776.38,-366 782.38,-360 788.38,-360 788.38,-360 855.38,-360 855.38,-360 861.38,-360 867.38,-366 867.38,-372 867.38,-372 867.38,-384 867.38,-384 867.38,-390 861.38,-396 855.38,-396"/>
<text text-anchor="middle" x="821.88" y="-372.95" font-family="Helvetica,sans-Serif" font-size="14.00" fill="#e5e5e5">Gehn&#39;s Age</text>
</g>
<!-- dome_access&#45;&gt;gehn_age_access -->
<g id="edge26" class="edge">
<title>dome_access&#45;&gt;gehn_age_access</title>
<path fill="none" stroke="#d9d9d9" d="M821.88,-449.61C821.88,-437.68 821.88,-421.57 821.88,-407.74"/>
<polygon fill="#d9d9d9" stroke="#d9d9d9" points="825.38,-407.86 821.88,-397.86 818.38,-407.86 825.38,-407.86"/>
</g>
<!-- dome_code -->
<g id="node45" class="node">
<title>dome_code</title>
<path fill="none" stroke="#d9d9d9" d="M923.12,-1116C923.12,-1116 818.62,-1116 818.62,-1116 812.62,-1116 806.62,-1110 806.62,-1104 806.62,-1104 806.62,-1092 806.62,-1092 806.62,-1086 812.62,-1080 818.62,-1080 818.62,-1080 923.12,-1080 923.12,-1080 929.12,-1080 935.12,-1086 935.12,-1092 935.12,-1092 935.12,-1104 935.12,-1104 935.12,-1110 929.12,-1116 923.12,-1116"/>
<text text-anchor="middle" x="870.88" y="-1092.95" font-family="Helvetica,sans-Serif" font-size="14.00" fill="#e5e5e5">Learn dome code</text>
</g>
<!-- dome_code&#45;&gt;dome_access -->
<g id="edge27" class="edge">
<title>dome_code&#45;&gt;dome_access</title>
<path fill="none" stroke="#d9d9d9" d="M870.93,-1079.52C871.13,-990.89 871.27,-593.3 857.88,-540 853.99,-524.56 846.31,-508.64 839.04,-495.79"/>
<polygon fill="#d9d9d9" stroke="#d9d9d9" points="842.25,-494.35 834.15,-487.52 836.23,-497.91 842.25,-494.35"/>
</g>
<!-- dome_power&#45;&gt;gehn_age_access -->
<g id="edge29" class="edge">
<title>dome_power&#45;&gt;gehn_age_access</title>
<path fill="none" stroke="#d9d9d9" d="M1367.49,-539.53C1250.8,-505.19 993.02,-429.35 878.55,-395.68"/>
<polygon fill="#d9d9d9" stroke="#d9d9d9" points="879.64,-392.35 869.06,-392.88 877.66,-399.06 879.64,-392.35"/>
</g>
<!-- food_chain_learned&#45;&gt;tay_visited -->
<g id="edge30" class="edge">
<title>food_chain_learned&#45;&gt;tay_visited</title>
<path fill="none" stroke="#d9d9d9" d="M431.32,-539.61C402.19,-525.75 361.18,-506.25 329.65,-491.25"/>
<polygon fill="#d9d9d9" stroke="#d9d9d9" points="331.25,-488.13 320.72,-487 328.24,-494.46 331.25,-488.13"/>
</g>
<!-- free_catherine -->
<g id="node48" class="node">
<title>free_catherine</title>
<path fill="none" stroke="#d9d9d9" d="M103.12,-126C103.12,-126 16.62,-126 16.62,-126 10.62,-126 4.62,-120 4.62,-114 4.62,-114 4.62,-102 4.62,-102 4.62,-96 10.62,-90 16.62,-90 16.62,-90 103.12,-90 103.12,-90 109.12,-90 115.12,-96 115.12,-102 115.12,-102 115.12,-114 115.12,-114 115.12,-120 109.12,-126 103.12,-126"/>
<text text-anchor="middle" x="59.88" y="-102.95" font-family="Helvetica,sans-Serif" font-size="14.00" fill="#e5e5e5">Free Catherine</text>
</g>
<!-- free_catherine&#45;&gt;ending_good -->
<g id="edge31" class="edge">
<title>free_catherine&#45;&gt;ending_good</title>
<path fill="none" stroke="#d9d9d9" d="M78.45,-89.61C92.35,-76.6 111.57,-58.6 127.13,-44.04"/>
<polygon fill="#d9d9d9" stroke="#d9d9d9" points="129.33,-46.77 134.24,-37.38 124.55,-41.66 129.33,-46.77"/>
</g>
<!-- gehn_age_access&#45;&gt;gehn_trapped -->
<g id="edge39" class="edge">
<title>gehn_age_access&#45;&gt;gehn_trapped</title>
<path fill="none" stroke="#d9d9d9" d="M775.92,-372.79C652.82,-361.32 317.64,-328.9 208.88,-306 208.22,-305.86 207.56,-305.72 206.89,-305.57"/>
<polygon fill="#d9d9d9" stroke="#d9d9d9" points="208.02,-302.25 197.48,-303.25 206.35,-309.04 208.02,-302.25"/>
</g>
<!-- gehn_bothered_x3 -->
<g id="node50" class="node">
<title>gehn_bothered_x3</title>
<path fill="none" stroke="#d9d9d9" d="M858,-306C858,-306 785.75,-306 785.75,-306 779.75,-306 773.75,-300 773.75,-294 773.75,-294 773.75,-282 773.75,-282 773.75,-276 779.75,-270 785.75,-270 785.75,-270 858,-270 858,-270 864,-270 870,-276 870,-282 870,-282 870,-294 870,-294 870,-300 864,-306 858,-306"/>
<text text-anchor="middle" x="821.88" y="-282.95" font-family="Helvetica,sans-Serif" font-size="14.00" fill="#e5e5e5">Bother Gehn</text>
</g>
<!-- gehn_age_access&#45;&gt;gehn_bothered_x3 -->
<g id="edge38" class="edge">
<title>gehn_age_access&#45;&gt;gehn_bothered_x3</title>
<path fill="none" stroke="#d9d9d9" d="M821.88,-359.61C821.88,-347.68 821.88,-331.57 821.88,-317.74"/>
<polygon fill="#d9d9d9" stroke="#d9d9d9" points="825.38,-317.86 821.88,-307.86 818.38,-317.86 825.38,-317.86"/>
</g>
<!-- gehn_bothered_x3&#45;&gt;ending_player_shot -->
<g id="edge40" class="edge">
<title>gehn_bothered_x3&#45;&gt;ending_player_shot</title>
<path fill="none" stroke="#d9d9d9" d="M821.88,-269.61C821.88,-257.68 821.88,-241.57 821.88,-227.74"/>
<polygon fill="#d9d9d9" stroke="#d9d9d9" points="825.38,-227.86 821.88,-217.86 818.38,-227.86 825.38,-227.86"/>
</g>
<!-- gehn_journal -->
<g id="node51" class="node">
<title>gehn_journal</title>
<path fill="none" stroke="#d9d9d9" d="M926.12,-1206C926.12,-1206 839.62,-1206 839.62,-1206 833.62,-1206 827.62,-1200 827.62,-1194 827.62,-1194 827.62,-1182 827.62,-1182 827.62,-1176 833.62,-1170 839.62,-1170 839.62,-1170 926.12,-1170 926.12,-1170 932.12,-1170 938.12,-1176 938.12,-1182 938.12,-1182 938.12,-1194 938.12,-1194 938.12,-1200 932.12,-1206 926.12,-1206"/>
<text text-anchor="middle" x="882.88" y="-1182.95" font-family="Helvetica,sans-Serif" font-size="14.00" fill="#e5e5e5">Gehn&#39;s Journal</text>
</g>
<!-- gehn_journal&#45;&gt;dome_code -->
<g id="edge41" class="edge">
<title>gehn_journal&#45;&gt;dome_code</title>
<path fill="none" stroke="#d9d9d9" d="M880.5,-1169.61C878.88,-1157.68 876.68,-1141.57 874.79,-1127.74"/>
<polygon fill="#d9d9d9" stroke="#d9d9d9" points="878.26,-1127.28 873.45,-1117.85 871.33,-1128.23 878.26,-1127.28"/>
</g>
<!-- gehn_ringtone_learned&#45;&gt;free_catherine -->
<g id="edge42" class="edge">
<title>gehn_ringtone_learned&#45;&gt;free_catherine</title>
<path fill="none" stroke="#d9d9d9" d="M58.27,-179.61C58.54,-167.68 58.91,-151.57 59.22,-137.74"/>
<polygon fill="#d9d9d9" stroke="#d9d9d9" points="62.72,-137.94 59.45,-127.86 55.72,-137.78 62.72,-137.94"/>
</g>
<!-- gehn_workshop_access&#45;&gt;orb_fish -->
<g id="edge49" class="edge">
<title>gehn_workshop_access&#45;&gt;orb_fish</title>
<path fill="none" stroke="#d9d9d9" d="M867,-1259.51C852.66,-1245.33 832.14,-1224.69 814.88,-1206 696.22,-1077.51 561.71,-916.9 510.35,-854.99"/>
<polygon fill="#d9d9d9" stroke="#d9d9d9" points="513.15,-852.89 504.07,-847.42 507.76,-857.35 513.15,-852.89"/>
</g>
<!-- gehn_workshop_access&#45;&gt;gehn_journal -->
<g id="edge47" class="edge">
<title>gehn_workshop_access&#45;&gt;gehn_journal</title>
<path fill="none" stroke="#d9d9d9" d="M884.48,-1259.61C884.21,-1247.68 883.84,-1231.57 883.53,-1217.74"/>
<polygon fill="#d9d9d9" stroke="#d9d9d9" points="887.03,-1217.78 883.3,-1207.86 880.03,-1217.94 887.03,-1217.78"/>
</g>
<!-- maglev_call_understood -->
<g id="node58" class="node">
<title>maglev_call_understood</title>
<path fill="none" stroke="#d9d9d9" d="M1138.38,-1206C1138.38,-1206 993.38,-1206 993.38,-1206 987.38,-1206 981.38,-1200 981.38,-1194 981.38,-1194 981.38,-1182 981.38,-1182 981.38,-1176 987.38,-1170 993.38,-1170 993.38,-1170 1138.38,-1170 1138.38,-1170 1144.38,-1170 1150.38,-1176 1150.38,-1182 1150.38,-1182 1150.38,-1194 1150.38,-1194 1150.38,-1200 1144.38,-1206 1138.38,-1206"/>
<text text-anchor="middle" x="1065.88" y="-1182.95" font-family="Helvetica,sans-Serif" font-size="14.00" fill="#e5e5e5">Blue button calls maglev</text>
</g>
<!-- gehn_workshop_access&#45;&gt;maglev_call_understood -->
<g id="edge48" class="edge">
<title>gehn_workshop_access&#45;&gt;maglev_call_understood</title>
<path fill="none" stroke="#d9d9d9" d="M920.63,-1259.61C949.14,-1245.75 989.26,-1226.25 1020.11,-1211.25"/>
<polygon fill="#d9d9d9" stroke="#d9d9d9" points="1021.37,-1214.53 1028.83,-1207.01 1018.3,-1208.24 1021.37,-1214.53"/>
</g>
<!-- island_color_boiler&#45;&gt;island_colors_learned -->
<g id="edge50" class="edge">
<title>island_color_boiler&#45;&gt;island_colors_learned</title>
<path fill="none" stroke="#d9d9d9" d="M1213.83,-1259.84C1244.32,-1230.23 1300.88,-1166.26 1300.88,-1099 1300.88,-1099 1300.88,-1099 1300.88,-1007 1300.88,-883.11 1270.57,-737.49 1256.68,-677.26"/>
<polygon fill="#d9d9d9" stroke="#d9d9d9" points="1260.17,-676.8 1254.48,-667.86 1253.35,-678.39 1260.17,-676.8"/>
</g>
<!-- island_color_map -->
<g id="node55" class="node">
<title>island_color_map</title>
<path fill="none" stroke="#d9d9d9" d="M1250.5,-936C1250.5,-936 1073.25,-936 1073.25,-936 1067.25,-936 1061.25,-930 1061.25,-924 1061.25,-924 1061.25,-912 1061.25,-912 1061.25,-906 1067.25,-900 1073.25,-900 1073.25,-900 1250.5,-900 1250.5,-900 1256.5,-900 1262.5,-906 1262.5,-912 1262.5,-912 1262.5,-924 1262.5,-924 1262.5,-930 1256.5,-936 1250.5,-936"/>
<text text-anchor="middle" x="1161.88" y="-912.95" font-family="Helvetica,sans-Serif" font-size="14.00" fill="#e5e5e5">find map island dome symbol</text>
</g>
<!-- island_color_map&#45;&gt;island_colors_learned -->
<g id="edge51" class="edge">
<title>island_color_map&#45;&gt;island_colors_learned</title>
<path fill="none" stroke="#d9d9d9" d="M1172.3,-899.72C1180.43,-885.65 1191.55,-865.07 1198.88,-846 1221.22,-787.85 1236.98,-716.34 1244.62,-677.46"/>
<polygon fill="#d9d9d9" stroke="#d9d9d9" points="1248.04,-678.24 1246.49,-667.76 1241.17,-676.92 1248.04,-678.24"/>
</g>
<!-- island_color_temple&#45;&gt;island_colors_learned -->
<g id="edge52" class="edge">
<title>island_color_temple&#45;&gt;island_colors_learned</title>
<path fill="none" stroke="#d9d9d9" d="M1387.89,-719.61C1360.92,-705.81 1323.01,-686.42 1293.74,-671.45"/>
<polygon fill="#d9d9d9" stroke="#d9d9d9" points="1295.63,-668.48 1285.13,-667.04 1292.44,-674.71 1295.63,-668.48"/>
</g>
<!-- island_color_village -->
<g id="node57" class="node">
<title>island_color_village</title>
<path fill="none" stroke="#d9d9d9" d="M1122.5,-756C1122.5,-756 933.25,-756 933.25,-756 927.25,-756 921.25,-750 921.25,-744 921.25,-744 921.25,-732 921.25,-732 921.25,-726 927.25,-720 933.25,-720 933.25,-720 1122.5,-720 1122.5,-720 1128.5,-720 1134.5,-726 1134.5,-732 1134.5,-732 1134.5,-744 1134.5,-744 1134.5,-750 1128.5,-756 1122.5,-756"/>
<text text-anchor="middle" x="1027.88" y="-732.95" font-family="Helvetica,sans-Serif" font-size="14.00" fill="#e5e5e5">find village island dome symbol</text>
</g>
<!-- island_color_village&#45;&gt;island_colors_learned -->
<g id="edge53" class="edge">
<title>island_color_village&#45;&gt;island_colors_learned</title>
<path fill="none" stroke="#d9d9d9" d="M1072,-719.51C1107.48,-705.44 1157.5,-685.62 1195.47,-670.57"/>
<polygon fill="#d9d9d9" stroke="#d9d9d9" points="1196.42,-673.95 1204.43,-667.02 1193.84,-667.45 1196.42,-673.95"/>
</g>
<!-- map_island_explored -->
<g id="node60" class="node">
<title>map_island_explored</title>
<path fill="none" stroke="#d9d9d9" d="M1176.62,-1116C1176.62,-1116 1063.12,-1116 1063.12,-1116 1057.12,-1116 1051.12,-1110 1051.12,-1104 1051.12,-1104 1051.12,-1092 1051.12,-1092 1051.12,-1086 1057.12,-1080 1063.12,-1080 1063.12,-1080 1176.62,-1080 1176.62,-1080 1182.62,-1080 1188.62,-1086 1188.62,-1092 1188.62,-1092 1188.62,-1104 1188.62,-1104 1188.62,-1110 1182.62,-1116 1176.62,-1116"/>
<text text-anchor="middle" x="1119.88" y="-1092.95" font-family="Helvetica,sans-Serif" font-size="14.00" fill="#e5e5e5">Explore Map Island</text>
</g>
<!-- maglev_call_understood&#45;&gt;map_island_explored -->
<g id="edge55" class="edge">
<title>maglev_call_understood&#45;&gt;map_island_explored</title>
<path fill="none" stroke="#d9d9d9" d="M1076.54,-1169.61C1084.16,-1157.2 1094.56,-1140.26 1103.26,-1126.08"/>
<polygon fill="#d9d9d9" stroke="#d9d9d9" points="1106.19,-1127.99 1108.44,-1117.64 1100.22,-1124.33 1106.19,-1127.99"/>
</g>
<!-- map_island_basement_access&#45;&gt;orb_fish -->
<g id="edge3" class="edge">
<title>map_island_basement_access&#45;&gt;orb_fish</title>
<g id="a_edge3"><a xlink:title="optionally see the fish shape">
<path fill="none" stroke="#d9d9d9" stroke-dasharray="5,2" d="M885.57,-906.75C802.2,-894.79 664.1,-873.14 546.88,-846 546.51,-845.92 546.15,-845.83 545.78,-845.74"/>
<polygon fill="#d9d9d9" stroke="#d9d9d9" points="546.99,-842.44 536.44,-843.4 545.28,-849.23 546.99,-842.44"/>
</a>
</g>
</g>
<!-- map_island_basement_access&#45;&gt;dni_colors_learned -->
<g id="edge56" class="edge">
<title>map_island_basement_access&#45;&gt;dni_colors_learned</title>
<path fill="none" stroke="#d9d9d9" d="M993.28,-899.61C1018.88,-885.87 1054.83,-866.59 1082.68,-851.64"/>
<polygon fill="#d9d9d9" stroke="#d9d9d9" points="1084.05,-854.88 1091.21,-847.07 1080.74,-848.71 1084.05,-854.88"/>
</g>
<!-- village_island_catwalks -->
<g id="node69" class="node">
<title>village_island_catwalks</title>
<path fill="none" stroke="#d9d9d9" d="M1026.12,-846C1026.12,-846 897.62,-846 897.62,-846 891.62,-846 885.62,-840 885.62,-834 885.62,-834 885.62,-822 885.62,-822 885.62,-816 891.62,-810 897.62,-810 897.62,-810 1026.12,-810 1026.12,-810 1032.12,-810 1038.12,-816 1038.12,-822 1038.12,-822 1038.12,-834 1038.12,-834 1038.12,-840 1032.12,-846 1026.12,-846"/>
<text text-anchor="middle" x="961.88" y="-822.95" font-family="Helvetica,sans-Serif" font-size="14.00" fill="#e5e5e5">catwalks above forest</text>
</g>
<!-- map_island_basement_access&#45;&gt;village_island_catwalks -->
<g id="edge57" class="edge">
<title>map_island_basement_access&#45;&gt;village_island_catwalks</title>
<path fill="none" stroke="#d9d9d9" d="M961.07,-899.61C961.21,-887.68 961.39,-871.57 961.55,-857.74"/>
<polygon fill="#d9d9d9" stroke="#d9d9d9" points="965.05,-857.9 961.66,-847.86 958.05,-857.82 965.05,-857.9"/>
</g>
<!-- map_island_explored&#45;&gt;dome_coordinates_learned -->
<g id="edge58" class="edge">
<title>map_island_explored&#45;&gt;dome_coordinates_learned</title>
<path fill="none" stroke="#d9d9d9" d="M1136.9,-1079.87C1165.74,-1050.74 1225.84,-989.48 1274.88,-936 1325.11,-881.21 1323.15,-851.43 1384.88,-810 1446.49,-768.64 1492.84,-810.81 1542.88,-756 1562.3,-734.72 1567.87,-701.41 1569.16,-677.61"/>
<polygon fill="#d9d9d9" stroke="#d9d9d9" points="1572.65,-677.75 1569.45,-667.65 1565.66,-677.55 1572.65,-677.75"/>
</g>
<!-- map_island_explored&#45;&gt;map_island_maglev_rotated -->
<g id="edge60" class="edge">
<title>map_island_explored&#45;&gt;map_island_maglev_rotated</title>
<path fill="none" stroke="#d9d9d9" d="M1095.97,-1079.61C1077.66,-1066.3 1052.18,-1047.77 1031.92,-1033.03"/>
<polygon fill="#d9d9d9" stroke="#d9d9d9" points="1034.1,-1030.29 1023.96,-1027.24 1029.98,-1035.95 1034.1,-1030.29"/>
</g>
<!-- map_island_explored&#45;&gt;island_color_map -->
<g id="edge59" class="edge">
<title>map_island_explored&#45;&gt;island_color_map</title>
<path fill="none" stroke="#d9d9d9" d="M1123.98,-1079.61C1131.22,-1048.9 1146.35,-984.81 1155.14,-947.54"/>
<polygon fill="#d9d9d9" stroke="#d9d9d9" points="1158.52,-948.47 1157.41,-937.94 1151.7,-946.86 1158.52,-948.47"/>
</g>
<!-- rotating_room_partial&#45;&gt;rotating_room_complete -->
<g id="edge69" class="edge">
<title>rotating_room_partial&#45;&gt;rotating_room_complete</title>
<path fill="none" stroke="#d9d9d9" d="M1690.88,-1259.61C1690.88,-1247.68 1690.88,-1231.57 1690.88,-1217.74"/>
<polygon fill="#d9d9d9" stroke="#d9d9d9" points="1694.38,-1217.86 1690.88,-1207.86 1687.38,-1217.86 1694.38,-1217.86"/>
</g>
<!-- telescope_power -->
<g id="node67" class="node">
<title>telescope_power</title>
<path fill="none" stroke="#d9d9d9" d="M1776.12,-486C1776.12,-486 1671.62,-486 1671.62,-486 1665.62,-486 1659.62,-480 1659.62,-474 1659.62,-474 1659.62,-462 1659.62,-462 1659.62,-456 1665.62,-450 1671.62,-450 1671.62,-450 1776.12,-450 1776.12,-450 1782.12,-450 1788.12,-456 1788.12,-462 1788.12,-462 1788.12,-474 1788.12,-474 1788.12,-480 1782.12,-486 1776.12,-486"/>
<text text-anchor="middle" x="1723.88" y="-462.95" font-family="Helvetica,sans-Serif" font-size="14.00" fill="#e5e5e5">Power Telescope</text>
</g>
<!-- rotating_room_partial&#45;&gt;telescope_power -->
<g id="edge70" class="edge">
<title>rotating_room_partial&#45;&gt;telescope_power</title>
<path fill="none" stroke="#d9d9d9" d="M1763.4,-1267.72C1855.3,-1251.44 2001.88,-1208.34 2001.88,-1099 2001.88,-1099 2001.88,-1099 2001.88,-647 2001.88,-550.57 1881.77,-504 1799.45,-483.41"/>
<polygon fill="#d9d9d9" stroke="#d9d9d9" points="1800.37,-480.03 1789.82,-481.09 1798.72,-486.84 1800.37,-480.03"/>
</g>
<!-- signal_atrus&#45;&gt;ending_atrus_shot -->
<g id="edge72" class="edge">
<title>signal_atrus&#45;&gt;ending_atrus_shot</title>
<path fill="none" stroke="#d9d9d9" d="M438.79,-89.61C443.63,-77.44 450.2,-60.91 455.77,-46.91"/>
<polygon fill="#d9d9d9" stroke="#d9d9d9" points="458.97,-48.34 459.42,-37.76 452.47,-45.75 458.97,-48.34"/>
</g>
<!-- signal_atrus&#45;&gt;ending_good -->
<g id="edge73" class="edge">
<title>signal_atrus&#45;&gt;ending_good</title>
<path fill="none" stroke="#d9d9d9" d="M385.66,-92.37C338.91,-77.57 266.39,-54.62 214.93,-38.33"/>
<polygon fill="#d9d9d9" stroke="#d9d9d9" points="216,-34.99 205.41,-35.31 213.89,-41.67 216,-34.99"/>
</g>
<!-- signal_atrus&#45;&gt;ending_no_wife -->
<g id="edge74" class="edge">
<title>signal_atrus&#45;&gt;ending_no_wife</title>
<path fill="none" stroke="#d9d9d9" d="M408.56,-89.61C390.78,-76.36 366.08,-57.93 346.37,-43.23"/>
<polygon fill="#d9d9d9" stroke="#d9d9d9" points="348.46,-40.43 338.35,-37.25 344.28,-46.04 348.46,-40.43"/>
</g>
<!-- tay_visited&#45;&gt;ending_trapped -->
<g id="edge82" class="edge">
<title>tay_visited&#45;&gt;ending_trapped</title>
<path fill="none" stroke="#d9d9d9" d="M317.84,-449.61C345.6,-435.81 384.61,-416.42 414.73,-401.45"/>
<polygon fill="#d9d9d9" stroke="#d9d9d9" points="416.23,-404.61 423.62,-397.02 413.11,-398.34 416.23,-404.61"/>
</g>
<!-- tay_visited&#45;&gt;gehn_trapped -->
<g id="edge83" class="edge">
<title>tay_visited&#45;&gt;gehn_trapped</title>
<path fill="none" stroke="#d9d9d9" d="M214.14,-449.54C186.72,-438.84 157.9,-422.02 141.88,-396 127.28,-372.31 133.71,-339.99 141.66,-317.09"/>
<polygon fill="#d9d9d9" stroke="#d9d9d9" points="144.91,-318.38 145.18,-307.79 138.37,-315.9 144.91,-318.38"/>
</g>
<!-- tay_visited&#45;&gt;catherine_journal -->
<g id="edge81" class="edge">
<title>tay_visited&#45;&gt;catherine_journal</title>
<path fill="none" stroke="#d9d9d9" d="M271.02,-449.61C262.47,-437.08 250.78,-419.93 241.06,-405.67"/>
<polygon fill="#d9d9d9" stroke="#d9d9d9" points="244.08,-403.89 235.56,-397.6 238.3,-407.83 244.08,-403.89"/>
</g>
<!-- telescope_code&#45;&gt;telescope_hatch_open -->
<g id="edge84" class="edge">
<title>telescope_code&#45;&gt;telescope_hatch_open</title>
<path fill="none" stroke="#d9d9d9" d="M484.88,-269.61C484.88,-257.68 484.88,-241.57 484.88,-227.74"/>
<polygon fill="#d9d9d9" stroke="#d9d9d9" points="488.38,-227.86 484.88,-217.86 481.38,-227.86 488.38,-227.86"/>
</g>
<!-- telescope_hatch_brute_forced&#45;&gt;ending_impossible -->
<g id="edge85" class="edge">
<title>telescope_hatch_brute_forced&#45;&gt;ending_impossible</title>
<path fill="none" stroke="#d9d9d9" d="M680.88,-1799.61C680.88,-1787.68 680.88,-1771.57 680.88,-1757.74"/>
<polygon fill="#d9d9d9" stroke="#d9d9d9" points="684.38,-1757.86 680.88,-1747.86 677.38,-1757.86 684.38,-1757.86"/>
</g>
<!-- telescope_hatch_open&#45;&gt;signal_atrus -->
<g id="edge86" class="edge">
<title>telescope_hatch_open&#45;&gt;signal_atrus</title>
<path fill="none" stroke="#d9d9d9" d="M474.4,-179.61C466.93,-167.2 456.72,-150.26 448.18,-136.08"/>
<polygon fill="#d9d9d9" stroke="#d9d9d9" points="451.26,-134.41 443.11,-127.65 445.27,-138.02 451.26,-134.41"/>
</g>
<!-- telescope_power&#45;&gt;signal_atrus -->
<g id="edge87" class="edge">
<title>telescope_power&#45;&gt;signal_atrus</title>
<path fill="none" stroke="#d9d9d9" d="M1681.49,-449.51C1559.84,-399.98 1198.24,-257.29 885.88,-180 745.57,-145.29 576.47,-124.15 489.6,-114.75"/>
<polygon fill="#d9d9d9" stroke="#d9d9d9" points="489.98,-111.27 479.66,-113.69 489.23,-118.23 489.98,-111.27"/>
</g>
<!-- village_island_explored -->
<g id="node72" class="node">
<title>village_island_explored</title>
<path fill="none" stroke="#d9d9d9" d="M546.5,-1746C546.5,-1746 417.25,-1746 417.25,-1746 411.25,-1746 405.25,-1740 405.25,-1734 405.25,-1734 405.25,-1722 405.25,-1722 405.25,-1716 411.25,-1710 417.25,-1710 417.25,-1710 546.5,-1710 546.5,-1710 552.5,-1710 558.5,-1716 558.5,-1722 558.5,-1722 558.5,-1734 558.5,-1734 558.5,-1740 552.5,-1746 546.5,-1746"/>
<text text-anchor="middle" x="481.88" y="-1722.95" font-family="Helvetica,sans-Serif" font-size="14.00" fill="#e5e5e5">Explore Village Island</text>
</g>
<!-- temple_door_opened&#45;&gt;village_island_explored -->
<g id="edge89" class="edge">
<title>temple_door_opened&#45;&gt;village_island_explored</title>
<path fill="none" stroke="#d9d9d9" d="M481.88,-1799.61C481.88,-1787.68 481.88,-1771.57 481.88,-1757.74"/>
<polygon fill="#d9d9d9" stroke="#d9d9d9" points="485.38,-1757.86 481.88,-1747.86 478.38,-1757.86 485.38,-1757.86"/>
</g>
<!-- village_island_catwalks&#45;&gt;island_color_village -->
<g id="edge91" class="edge">
<title>village_island_catwalks&#45;&gt;island_color_village</title>
<path fill="none" stroke="#d9d9d9" d="M974.91,-809.61C984.41,-796.96 997.43,-779.6 1008.18,-765.26"/>
<polygon fill="#d9d9d9" stroke="#d9d9d9" points="1010.75,-767.66 1013.95,-757.56 1005.15,-763.46 1010.75,-767.66"/>
</g>
<!-- village_island_execution_platform_floor_closed -->
<g id="node71" class="node">
<title>village_island_execution_platform_floor_closed</title>
<path fill="none" stroke="#d9d9d9" d="M832.88,-756C832.88,-756 690.88,-756 690.88,-756 684.88,-756 678.88,-750 678.88,-744 678.88,-744 678.88,-732 678.88,-732 678.88,-726 684.88,-720 690.88,-720 690.88,-720 832.88,-720 832.88,-720 838.88,-720 844.88,-726 844.88,-732 844.88,-732 844.88,-744 844.88,-744 844.88,-750 838.88,-756 832.88,-756"/>
<text text-anchor="middle" x="761.88" y="-732.95" font-family="Helvetica,sans-Serif" font-size="14.00" fill="#e5e5e5">Execution platform floor</text>
</g>
<!-- village_island_catwalks&#45;&gt;village_island_execution_platform_floor_closed -->
<g id="edge92" class="edge">
<title>village_island_catwalks&#45;&gt;village_island_execution_platform_floor_closed</title>
<path fill="none" stroke="#d9d9d9" d="M922.36,-809.61C890.59,-795.63 845.76,-775.91 811.55,-760.86"/>
<polygon fill="#d9d9d9" stroke="#d9d9d9" points="813.25,-757.78 802.69,-756.96 810.44,-764.19 813.25,-757.78"/>
</g>
<!-- village_island_jail -->
<g id="node73" class="node">
<title>village_island_jail</title>
<path fill="none" stroke="#d9d9d9" d="M473,-666C473,-666 400.75,-666 400.75,-666 394.75,-666 388.75,-660 388.75,-654 388.75,-654 388.75,-642 388.75,-642 388.75,-636 394.75,-630 400.75,-630 400.75,-630 473,-630 473,-630 479,-630 485,-636 485,-642 485,-642 485,-654 485,-654 485,-660 479,-666 473,-666"/>
<text text-anchor="middle" x="436.88" y="-642.95" font-family="Helvetica,sans-Serif" font-size="14.00" fill="#e5e5e5">Gay baby jail</text>
</g>
<!-- village_island_execution_platform_access&#45;&gt;village_island_jail -->
<g id="edge93" class="edge">
<title>village_island_execution_platform_access&#45;&gt;village_island_jail</title>
<path fill="none" stroke="#d9d9d9" d="M436.88,-719.61C436.88,-707.68 436.88,-691.57 436.88,-677.74"/>
<polygon fill="#d9d9d9" stroke="#d9d9d9" points="440.38,-677.86 436.88,-667.86 433.38,-677.86 440.38,-677.86"/>
</g>
<!-- village_island_execution_platform_floor_closed&#45;&gt;village_island_jail -->
<g id="edge94" class="edge">
<title>village_island_execution_platform_floor_closed&#45;&gt;village_island_jail</title>
<path fill="none" stroke="#d9d9d9" d="M697.28,-719.51C638.79,-703.67 553.33,-680.53 496.46,-665.13"/>
<polygon fill="#d9d9d9" stroke="#d9d9d9" points="497.51,-661.79 486.94,-662.56 495.68,-668.55 497.51,-661.79"/>
</g>
<!-- village_island_explored&#45;&gt;orb_whark -->
<g id="edge99" class="edge">
<title>village_island_explored&#45;&gt;orb_whark</title>
<path fill="none" stroke="#d9d9d9" d="M451.84,-1709.61C428.32,-1695.99 395.38,-1676.93 369.66,-1662.04"/>
<polygon fill="#d9d9d9" stroke="#d9d9d9" points="371.56,-1659.09 361.15,-1657.11 368.05,-1665.15 371.56,-1659.09"/>
</g>
<!-- village_island_explored&#45;&gt;orb_beetle -->
<g id="edge96" class="edge">
<title>village_island_explored&#45;&gt;orb_beetle</title>
<path fill="none" stroke="#d9d9d9" d="M404.79,-1725.1C336.92,-1720.03 238.08,-1704.06 166.88,-1656 137.85,-1636.41 116.84,-1601.3 104.78,-1576.65"/>
<polygon fill="#d9d9d9" stroke="#d9d9d9" points="108.07,-1575.43 100.66,-1567.85 101.73,-1578.39 108.07,-1575.43"/>
</g>
<!-- village_island_explored&#45;&gt;orb_frog -->
<g id="edge97" class="edge">
<title>village_island_explored&#45;&gt;orb_frog</title>
<path fill="none" stroke="#d9d9d9" d="M404.88,-1714.91C317.17,-1696.25 185.88,-1651.24 185.88,-1549 185.88,-1549 185.88,-1549 185.88,-1277 185.88,-1224.1 193.41,-1162.75 198.44,-1127.65"/>
<polygon fill="#d9d9d9" stroke="#d9d9d9" points="201.89,-1128.28 199.89,-1117.88 194.96,-1127.26 201.89,-1128.28"/>
</g>
<!-- village_island_explored&#45;&gt;orb_sunner -->
<g id="edge98" class="edge">
<title>village_island_explored&#45;&gt;orb_sunner</title>
<path fill="none" stroke="#d9d9d9" d="M511.16,-1709.77C530.06,-1697.18 553.7,-1678.42 567.88,-1656 582.98,-1632.12 589.64,-1600.24 592.58,-1577.5"/>
<polygon fill="#d9d9d9" stroke="#d9d9d9" points="596.03,-1578.06 593.66,-1567.73 589.08,-1577.29 596.03,-1578.06"/>
</g>
<!-- village_island_explored&#45;&gt;boiler_solved -->
<g id="edge95" class="edge">
<title>village_island_explored&#45;&gt;boiler_solved</title>
<path fill="none" stroke="#d9d9d9" d="M481.88,-1709.61C481.88,-1697.68 481.88,-1681.57 481.88,-1667.74"/>
<polygon fill="#d9d9d9" stroke="#d9d9d9" points="485.38,-1667.86 481.88,-1657.86 478.38,-1667.86 485.38,-1667.86"/>
</g>
<!-- village_island_explored&#45;&gt;submarine_found -->
<g id="edge100" class="edge">
<title>village_island_explored&#45;&gt;submarine_found</title>
<path fill="none" stroke="#d9d9d9" d="M522.77,-1709.61C555.8,-1695.57 602.46,-1675.74 637.91,-1660.66"/>
<polygon fill="#d9d9d9" stroke="#d9d9d9" points="638.84,-1664.08 646.67,-1656.94 636.1,-1657.63 638.84,-1664.08"/>
</g>
<!-- village_island_jail&#45;&gt;village_island_animal_room_access -->
<g id="edge101" class="edge">
<title>village_island_jail&#45;&gt;village_island_animal_room_access</title>
<path fill="none" stroke="#d9d9d9" d="M406.45,-629.61C382.62,-615.99 349.24,-596.93 323.19,-582.04"/>
<polygon fill="#d9d9d9" stroke="#d9d9d9" points="324.97,-579.02 314.55,-577.1 321.5,-585.1 324.97,-579.02"/>
</g>
<!-- village_island_school_access&#45;&gt;dni_numbers_1_10 -->
<g id="edge102" class="edge">
<title>village_island_school_access&#45;&gt;dni_numbers_1_10</title>
<path fill="none" stroke="#d9d9d9" d="M605.63,-719.61C608.23,-707.56 611.75,-691.24 614.76,-677.33"/>
<polygon fill="#d9d9d9" stroke="#d9d9d9" points="618.12,-678.34 616.81,-667.83 611.28,-676.87 618.12,-678.34"/>
</g>
</g>
</svg>
