<?xml version="1.0" encoding="UTF-8" standalone="no"?>
<!DOCTYPE svg PUBLIC "-//W3C//DTD SVG 1.1//EN"
 "http://www.w3.org/Graphics/SVG/1.1/DTD/svg11.dtd">
<!-- Generated by graphviz version 2.49.3 (20211023.0002)
 -->
<!-- Title: riven_progression Pages: 1 -->
<svg width="2031pt" height="1934pt"
 viewBox="0.00 0.00 2030.50 1934.00" xmlns="http://www.w3.org/2000/svg" xmlns:xlink="http://www.w3.org/1999/xlink">
<g id="graph0" class="graph" transform="scale(1 1) rotate(0) translate(4 1930)">
<title>riven_progression</title>
<polygon fill="#1f1f1f" stroke="transparent" points="-4,4 -4,-1930 2026.5,-1930 2026.5,4 -4,4"/>
<!-- start -->
<g id="node1" class="node">
<title>start</title>
<path fill="#005000" stroke="#d9d9d9" d="M701.5,-1926C701.5,-1926 671.5,-1926 671.5,-1926 665.5,-1926 659.5,-1920 659.5,-1914 659.5,-1914 659.5,-1902 659.5,-1902 659.5,-1896 665.5,-1890 671.5,-1890 671.5,-1890 701.5,-1890 701.5,-1890 707.5,-1890 713.5,-1896 713.5,-1902 713.5,-1902 713.5,-1914 713.5,-1914 713.5,-1920 707.5,-1926 701.5,-1926"/>
<text text-anchor="middle" x="686.5" y="-1904.3" font-family="Helvetica,sans-Serif" font-size="14.00" fill="#e5e5e5">Start</text>
</g>
<!-- rotating_room_shit_door -->
<g id="node27" class="node">
<title>rotating_room_shit_door</title>
<path fill="#280060" stroke="#d9d9d9" d="M962.5,-1836C962.5,-1836 834.5,-1836 834.5,-1836 828.5,-1836 822.5,-1830 822.5,-1824 822.5,-1824 822.5,-1812 822.5,-1812 822.5,-1806 828.5,-1800 834.5,-1800 834.5,-1800 962.5,-1800 962.5,-1800 968.5,-1800 974.5,-1806 974.5,-1812 974.5,-1812 974.5,-1824 974.5,-1824 974.5,-1830 968.5,-1836 962.5,-1836"/>
<text text-anchor="middle" x="898.5" y="-1814.3" font-family="Helvetica,sans-Serif" font-size="14.00" fill="#e5e5e5">Crawl under shit door</text>
</g>
<!-- start&#45;&gt;rotating_room_shit_door -->
<g id="edge75" class="edge">
<title>start&#45;&gt;rotating_room_shit_door</title>
<path fill="none" stroke="#d9d9d9" d="M713.78,-1895.68C747.68,-1881.61 806.17,-1857.33 848.26,-1839.85"/>
<polygon fill="#d9d9d9" stroke="#d9d9d9" points="849.62,-1843.08 857.51,-1836.01 846.93,-1836.61 849.62,-1843.08"/>
</g>
<!-- telescope_hatch_brute_forced -->
<g id="node65" class="node">
<title>telescope_hatch_brute_forced</title>
<path fill="none" stroke="#d9d9d9" d="M785,-1836C785,-1836 588,-1836 588,-1836 582,-1836 576,-1830 576,-1824 576,-1824 576,-1812 576,-1812 576,-1806 582,-1800 588,-1800 588,-1800 785,-1800 785,-1800 791,-1800 797,-1806 797,-1812 797,-1812 797,-1824 797,-1824 797,-1830 791,-1836 785,-1836"/>
<text text-anchor="middle" x="686.5" y="-1814.3" font-family="Helvetica,sans-Serif" font-size="14.00" fill="#e5e5e5">Brute force trap door code early</text>
</g>
<!-- start&#45;&gt;telescope_hatch_brute_forced -->
<g id="edge76" class="edge">
<title>start&#45;&gt;telescope_hatch_brute_forced</title>
<path fill="none" stroke="#d9d9d9" d="M686.5,-1889.61C686.5,-1877.24 686.5,-1860.37 686.5,-1846.22"/>
<polygon fill="#d9d9d9" stroke="#d9d9d9" points="690,-1846.05 686.5,-1836.05 683,-1846.05 690,-1846.05"/>
</g>
<!-- temple_door_opened -->
<g id="node68" class="node">
<title>temple_door_opened</title>
<path fill="none" stroke="#d9d9d9" d="M539,-1836C539,-1836 430,-1836 430,-1836 424,-1836 418,-1830 418,-1824 418,-1824 418,-1812 418,-1812 418,-1806 424,-1800 430,-1800 430,-1800 539,-1800 539,-1800 545,-1800 551,-1806 551,-1812 551,-1812 551,-1824 551,-1824 551,-1830 545,-1836 539,-1836"/>
<text text-anchor="middle" x="484.5" y="-1814.3" font-family="Helvetica,sans-Serif" font-size="14.00" fill="#e5e5e5">Open temple door</text>
</g>
<!-- start&#45;&gt;temple_door_opened -->
<g id="edge77" class="edge">
<title>start&#45;&gt;temple_door_opened</title>
<path fill="none" stroke="#d9d9d9" d="M659.26,-1895.13C626.96,-1881.06 572.52,-1857.35 532.97,-1840.12"/>
<polygon fill="#d9d9d9" stroke="#d9d9d9" points="534.34,-1836.89 523.77,-1836.11 531.54,-1843.31 534.34,-1836.89"/>
</g>
<!-- ending_atrus_shot -->
<g id="node2" class="node">
<title>ending_atrus_shot</title>
<path fill="#500000" stroke="#d9d9d9" d="M525,-36C525,-36 418,-36 418,-36 412,-36 406,-30 406,-24 406,-24 406,-12 406,-12 406,-6 412,0 418,0 418,0 525,0 525,0 531,0 537,-6 537,-12 537,-12 537,-24 537,-24 537,-30 531,-36 525,-36"/>
<text text-anchor="middle" x="471.5" y="-14.3" font-family="Helvetica,sans-Serif" font-size="14.00" fill="#e5e5e5">Atrus shot by dad</text>
</g>
<!-- ending_free_gehn -->
<g id="node3" class="node">
<title>ending_free_gehn</title>
<path fill="#500000" stroke="#d9d9d9" d="M265.5,-216C265.5,-216 205.5,-216 205.5,-216 199.5,-216 193.5,-210 193.5,-204 193.5,-204 193.5,-192 193.5,-192 193.5,-186 199.5,-180 205.5,-180 205.5,-180 265.5,-180 265.5,-180 271.5,-180 277.5,-186 277.5,-192 277.5,-192 277.5,-204 277.5,-204 277.5,-210 271.5,-216 265.5,-216"/>
<text text-anchor="middle" x="235.5" y="-194.3" font-family="Helvetica,sans-Serif" font-size="14.00" fill="#e5e5e5">Free Gehn</text>
</g>
<!-- ending_good -->
<g id="node4" class="node">
<title>ending_good</title>
<path fill="#500000" stroke="#d9d9d9" d="M194,-36C194,-36 117,-36 117,-36 111,-36 105,-30 105,-24 105,-24 105,-12 105,-12 105,-6 111,0 117,0 117,0 194,0 194,0 200,0 206,-6 206,-12 206,-12 206,-24 206,-24 206,-30 200,-36 194,-36"/>
<text text-anchor="middle" x="155.5" y="-14.3" font-family="Helvetica,sans-Serif" font-size="14.00" fill="#e5e5e5">Good Ending</text>
</g>
<!-- ending_impossible -->
<g id="node5" class="node">
<title>ending_impossible</title>
<path fill="#500000" stroke="#d9d9d9" d="M741.5,-1746C741.5,-1746 631.5,-1746 631.5,-1746 625.5,-1746 619.5,-1740 619.5,-1734 619.5,-1734 619.5,-1722 619.5,-1722 619.5,-1716 625.5,-1710 631.5,-1710 631.5,-1710 741.5,-1710 741.5,-1710 747.5,-1710 753.5,-1716 753.5,-1722 753.5,-1722 753.5,-1734 753.5,-1734 753.5,-1740 747.5,-1746 741.5,-1746"/>
<text text-anchor="middle" x="686.5" y="-1724.3" font-family="Helvetica,sans-Serif" font-size="14.00" fill="#e5e5e5">Impossible Ending</text>
</g>
<!-- ending_no_wife -->
<g id="node6" class="node">
<title>ending_no_wife</title>
<path fill="#500000" stroke="#d9d9d9" d="M369,-36C369,-36 262,-36 262,-36 256,-36 250,-30 250,-24 250,-24 250,-12 250,-12 250,-6 256,0 262,0 262,0 369,0 369,0 375,0 381,-6 381,-12 381,-12 381,-24 381,-24 381,-30 375,-36 369,-36"/>
<text text-anchor="middle" x="315.5" y="-14.3" font-family="Helvetica,sans-Serif" font-size="14.00" fill="#e5e5e5">Where&#39;s my wife?</text>
</g>
<!-- ending_player_shot -->
<g id="node7" class="node">
<title>ending_player_shot</title>
<path fill="#500000" stroke="#d9d9d9" d="M870,-216C870,-216 789,-216 789,-216 783,-216 777,-210 777,-204 777,-204 777,-192 777,-192 777,-186 783,-180 789,-180 789,-180 870,-180 870,-180 876,-180 882,-186 882,-192 882,-192 882,-204 882,-204 882,-210 876,-216 870,-216"/>
<text text-anchor="middle" x="829.5" y="-194.3" font-family="Helvetica,sans-Serif" font-size="14.00" fill="#e5e5e5">Shot by Gehn</text>
</g>
<!-- ending_trapped -->
<g id="node8" class="node">
<title>ending_trapped</title>
<path fill="#500000" stroke="#d9d9d9" d="M598,-396C598,-396 331,-396 331,-396 325,-396 319,-390 319,-384 319,-384 319,-372 319,-372 319,-366 325,-360 331,-360 331,-360 598,-360 598,-360 604,-360 610,-366 610,-372 610,-372 610,-384 610,-384 610,-390 604,-396 598,-396"/>
<text text-anchor="middle" x="464.5" y="-374.3" font-family="Helvetica,sans-Serif" font-size="14.00" fill="#e5e5e5">One of several trapped in own trap endings</text>
</g>
<!-- orb_whark -->
<g id="node9" class="node">
<title>orb_whark</title>
<path fill="none" stroke="#d9d9d9" d="M372.5,-1656C372.5,-1656 288.5,-1656 288.5,-1656 282.5,-1656 276.5,-1650 276.5,-1644 276.5,-1644 276.5,-1632 276.5,-1632 276.5,-1626 282.5,-1620 288.5,-1620 288.5,-1620 372.5,-1620 372.5,-1620 378.5,-1620 384.5,-1626 384.5,-1632 384.5,-1632 384.5,-1644 384.5,-1644 384.5,-1650 378.5,-1656 372.5,-1656"/>
<text text-anchor="middle" x="330.5" y="-1634.3" font-family="Helvetica,sans-Serif" font-size="14.00" fill="#e5e5e5">The whark orb</text>
</g>
<!-- orb_all -->
<g id="node25" class="node">
<title>orb_all</title>
<path fill="#280060" stroke="#d9d9d9" d="M313.5,-756C313.5,-756 209.5,-756 209.5,-756 203.5,-756 197.5,-750 197.5,-744 197.5,-744 197.5,-732 197.5,-732 197.5,-726 203.5,-720 209.5,-720 209.5,-720 313.5,-720 313.5,-720 319.5,-720 325.5,-726 325.5,-732 325.5,-732 325.5,-744 325.5,-744 325.5,-750 319.5,-756 313.5,-756"/>
<text text-anchor="middle" x="261.5" y="-734.3" font-family="Helvetica,sans-Serif" font-size="14.00" fill="#e5e5e5">All 5 orbs learned</text>
</g>
<!-- orb_whark&#45;&gt;orb_all -->
<g id="edge67" class="edge">
<title>orb_whark&#45;&gt;orb_all</title>
<path fill="none" stroke="#d9d9d9" d="M334.36,-1619.92C341.14,-1588.33 354.5,-1518.56 354.5,-1459 354.5,-1459 354.5,-1459 354.5,-917 354.5,-856.57 311.88,-796.38 284.34,-763.8"/>
<polygon fill="#d9d9d9" stroke="#d9d9d9" points="286.89,-761.4 277.7,-756.13 281.6,-765.98 286.89,-761.4"/>
</g>
<!-- orb_beetle -->
<g id="node10" class="node">
<title>orb_beetle</title>
<path fill="none" stroke="#d9d9d9" d="M136,-1566C136,-1566 49,-1566 49,-1566 43,-1566 37,-1560 37,-1554 37,-1554 37,-1542 37,-1542 37,-1536 43,-1530 49,-1530 49,-1530 136,-1530 136,-1530 142,-1530 148,-1536 148,-1542 148,-1542 148,-1554 148,-1554 148,-1560 142,-1566 136,-1566"/>
<text text-anchor="middle" x="92.5" y="-1544.3" font-family="Helvetica,sans-Serif" font-size="14.00" fill="#e5e5e5">The beetle orb</text>
</g>
<!-- orb_beetle&#45;&gt;orb_all -->
<g id="edge63" class="edge">
<title>orb_beetle&#45;&gt;orb_all</title>
<path fill="none" stroke="#d9d9d9" d="M95.23,-1529.87C100.04,-1498.19 109.5,-1428.29 109.5,-1369 109.5,-1369 109.5,-1369 109.5,-917 109.5,-847.28 177.77,-791.07 222.8,-761.57"/>
<polygon fill="#d9d9d9" stroke="#d9d9d9" points="224.93,-764.36 231.47,-756.03 221.16,-758.46 224.93,-764.36"/>
</g>
<!-- orb_frog -->
<g id="node11" class="node">
<title>orb_frog</title>
<path fill="none" stroke="#d9d9d9" d="M235,-1116C235,-1116 164,-1116 164,-1116 158,-1116 152,-1110 152,-1104 152,-1104 152,-1092 152,-1092 152,-1086 158,-1080 164,-1080 164,-1080 235,-1080 235,-1080 241,-1080 247,-1086 247,-1092 247,-1092 247,-1104 247,-1104 247,-1110 241,-1116 235,-1116"/>
<text text-anchor="middle" x="199.5" y="-1094.3" font-family="Helvetica,sans-Serif" font-size="14.00" fill="#e5e5e5">The frog orb</text>
</g>
<!-- orb_frog&#45;&gt;orb_all -->
<g id="edge65" class="edge">
<title>orb_frog&#45;&gt;orb_all</title>
<path fill="none" stroke="#d9d9d9" d="M202.49,-1079.73C212.46,-1022.19 244.59,-836.66 256.76,-766.35"/>
<polygon fill="#d9d9d9" stroke="#d9d9d9" points="260.28,-766.54 258.54,-756.09 253.38,-765.35 260.28,-766.54"/>
</g>
<!-- orb_sunner -->
<g id="node12" class="node">
<title>orb_sunner</title>
<path fill="none" stroke="#d9d9d9" d="M642,-1566C642,-1566 553,-1566 553,-1566 547,-1566 541,-1560 541,-1554 541,-1554 541,-1542 541,-1542 541,-1536 547,-1530 553,-1530 553,-1530 642,-1530 642,-1530 648,-1530 654,-1536 654,-1542 654,-1542 654,-1554 654,-1554 654,-1560 648,-1566 642,-1566"/>
<text text-anchor="middle" x="597.5" y="-1544.3" font-family="Helvetica,sans-Serif" font-size="14.00" fill="#e5e5e5">The sunner orb</text>
</g>
<!-- orb_sunner&#45;&gt;orb_all -->
<g id="edge66" class="edge">
<title>orb_sunner&#45;&gt;orb_all</title>
<path fill="none" stroke="#d9d9d9" d="M554.41,-1529.81C497.8,-1504.05 405.5,-1449.68 405.5,-1369 405.5,-1369 405.5,-1369 405.5,-917 405.5,-867.36 403.47,-849.57 373.5,-810 357.57,-788.96 333.45,-772.53 311.67,-760.8"/>
<polygon fill="#d9d9d9" stroke="#d9d9d9" points="313,-757.54 302.51,-756.06 309.78,-763.76 313,-757.54"/>
</g>
<!-- orb_fish -->
<g id="node13" class="node">
<title>orb_fish</title>
<path fill="none" stroke="#d9d9d9" d="M523.5,-846C523.5,-846 455.5,-846 455.5,-846 449.5,-846 443.5,-840 443.5,-834 443.5,-834 443.5,-822 443.5,-822 443.5,-816 449.5,-810 455.5,-810 455.5,-810 523.5,-810 523.5,-810 529.5,-810 535.5,-816 535.5,-822 535.5,-822 535.5,-834 535.5,-834 535.5,-840 529.5,-846 523.5,-846"/>
<text text-anchor="middle" x="489.5" y="-824.3" font-family="Helvetica,sans-Serif" font-size="14.00" fill="#e5e5e5">The fish orb</text>
</g>
<!-- orb_fish&#45;&gt;orb_all -->
<g id="edge64" class="edge">
<title>orb_fish&#45;&gt;orb_all</title>
<path fill="none" stroke="#d9d9d9" d="M445.27,-809.93C408.06,-795.57 354.75,-774.99 315.11,-759.69"/>
<polygon fill="#d9d9d9" stroke="#d9d9d9" points="316.2,-756.36 305.61,-756.02 313.68,-762.89 316.2,-756.36"/>
</g>
<!-- big_dome_elevator_understood -->
<g id="node14" class="node">
<title>big_dome_elevator_understood</title>
<path fill="#280060" stroke="#d9d9d9" d="M1588.5,-846C1588.5,-846 1418.5,-846 1418.5,-846 1412.5,-846 1406.5,-840 1406.5,-834 1406.5,-834 1406.5,-822 1406.5,-822 1406.5,-816 1412.5,-810 1418.5,-810 1418.5,-810 1588.5,-810 1588.5,-810 1594.5,-810 1600.5,-816 1600.5,-822 1600.5,-822 1600.5,-834 1600.5,-834 1600.5,-840 1594.5,-846 1588.5,-846"/>
<text text-anchor="middle" x="1503.5" y="-824.3" font-family="Helvetica,sans-Serif" font-size="14.00" fill="#e5e5e5">Weird elevator shenanigans</text>
</g>
<!-- island_color_temple -->
<g id="node56" class="node">
<title>island_color_temple</title>
<path fill="none" stroke="#d9d9d9" d="M1530,-756C1530,-756 1335,-756 1335,-756 1329,-756 1323,-750 1323,-744 1323,-744 1323,-732 1323,-732 1323,-726 1329,-720 1335,-720 1335,-720 1530,-720 1530,-720 1536,-720 1542,-726 1542,-732 1542,-732 1542,-744 1542,-744 1542,-750 1536,-756 1530,-756"/>
<text text-anchor="middle" x="1432.5" y="-734.3" font-family="Helvetica,sans-Serif" font-size="14.00" fill="#e5e5e5">find temple island dome symbol</text>
</g>
<!-- big_dome_elevator_understood&#45;&gt;island_color_temple -->
<g id="edge12" class="edge">
<title>big_dome_elevator_understood&#45;&gt;island_color_temple</title>
<path fill="none" stroke="#d9d9d9" d="M1489.47,-809.61C1479,-796.63 1464.53,-778.7 1452.8,-764.16"/>
<polygon fill="#d9d9d9" stroke="#d9d9d9" points="1455.26,-761.64 1446.26,-756.05 1449.81,-766.03 1455.26,-761.64"/>
</g>
<!-- big_dome_power_button_found -->
<g id="node15" class="node">
<title>big_dome_power_button_found</title>
<path fill="#280060" stroke="#d9d9d9" d="M1882.5,-666C1882.5,-666 1766.5,-666 1766.5,-666 1760.5,-666 1754.5,-660 1754.5,-654 1754.5,-654 1754.5,-642 1754.5,-642 1754.5,-636 1760.5,-630 1766.5,-630 1766.5,-630 1882.5,-630 1882.5,-630 1888.5,-630 1894.5,-636 1894.5,-642 1894.5,-642 1894.5,-654 1894.5,-654 1894.5,-660 1888.5,-666 1882.5,-666"/>
<text text-anchor="middle" x="1824.5" y="-644.3" font-family="Helvetica,sans-Serif" font-size="14.00" fill="#e5e5e5">Oh, that&#39;s a button?</text>
</g>
<!-- dome_power -->
<g id="node46" class="node">
<title>dome_power</title>
<path fill="none" stroke="#d9d9d9" d="M1494,-576C1494,-576 1371,-576 1371,-576 1365,-576 1359,-570 1359,-564 1359,-564 1359,-552 1359,-552 1359,-546 1365,-540 1371,-540 1371,-540 1494,-540 1494,-540 1500,-540 1506,-546 1506,-552 1506,-552 1506,-564 1506,-564 1506,-570 1500,-576 1494,-576"/>
<text text-anchor="middle" x="1432.5" y="-554.3" font-family="Helvetica,sans-Serif" font-size="14.00" fill="#e5e5e5">Power Baby Domes</text>
</g>
<!-- big_dome_power_button_found&#45;&gt;dome_power -->
<g id="edge14" class="edge">
<title>big_dome_power_button_found&#45;&gt;dome_power</title>
<path fill="none" stroke="#d9d9d9" d="M1754.42,-631.27C1687.64,-616.28 1587.04,-593.69 1516.11,-577.77"/>
<polygon fill="#d9d9d9" stroke="#d9d9d9" points="1516.83,-574.34 1506.3,-575.57 1515.29,-581.17 1516.83,-574.34"/>
</g>
<!-- big_dome_upper_stairs_lever_found -->
<g id="node16" class="node">
<title>big_dome_upper_stairs_lever_found</title>
<path fill="#280060" stroke="#d9d9d9" d="M1761.5,-1026C1761.5,-1026 1649.5,-1026 1649.5,-1026 1643.5,-1026 1637.5,-1020 1637.5,-1014 1637.5,-1014 1637.5,-1002 1637.5,-1002 1637.5,-996 1643.5,-990 1649.5,-990 1649.5,-990 1761.5,-990 1761.5,-990 1767.5,-990 1773.5,-996 1773.5,-1002 1773.5,-1002 1773.5,-1014 1773.5,-1014 1773.5,-1020 1767.5,-1026 1761.5,-1026"/>
<text text-anchor="middle" x="1705.5" y="-1004.3" font-family="Helvetica,sans-Serif" font-size="14.00" fill="#e5e5e5">Easy to miss lever</text>
</g>
<!-- big_dome_access_upper -->
<g id="node36" class="node">
<title>big_dome_access_upper</title>
<path fill="none" stroke="#d9d9d9" d="M1786.5,-846C1786.5,-846 1658.5,-846 1658.5,-846 1652.5,-846 1646.5,-840 1646.5,-834 1646.5,-834 1646.5,-822 1646.5,-822 1646.5,-816 1652.5,-810 1658.5,-810 1658.5,-810 1786.5,-810 1786.5,-810 1792.5,-810 1798.5,-816 1798.5,-822 1798.5,-822 1798.5,-834 1798.5,-834 1798.5,-840 1792.5,-846 1786.5,-846"/>
<text text-anchor="middle" x="1722.5" y="-824.3" font-family="Helvetica,sans-Serif" font-size="14.00" fill="#e5e5e5">Upper Dome Access</text>
</g>
<!-- big_dome_upper_stairs_lever_found&#45;&gt;big_dome_access_upper -->
<g id="edge15" class="edge">
<title>big_dome_upper_stairs_lever_found&#45;&gt;big_dome_access_upper</title>
<path fill="none" stroke="#d9d9d9" d="M1707.13,-989.93C1710.09,-958.97 1716.36,-893.3 1719.91,-856.13"/>
<polygon fill="#d9d9d9" stroke="#d9d9d9" points="1723.41,-856.3 1720.87,-846.02 1716.44,-855.64 1723.41,-856.3"/>
</g>
<!-- boiler_solved -->
<g id="node17" class="node">
<title>boiler_solved</title>
<path fill="#280060" stroke="#d9d9d9" d="M547,-1656C547,-1656 422,-1656 422,-1656 416,-1656 410,-1650 410,-1644 410,-1644 410,-1632 410,-1632 410,-1626 416,-1620 422,-1620 422,-1620 547,-1620 547,-1620 553,-1620 559,-1626 559,-1632 559,-1632 559,-1644 559,-1644 559,-1650 553,-1656 547,-1656"/>
<text text-anchor="middle" x="484.5" y="-1634.3" font-family="Helvetica,sans-Serif" font-size="14.00" fill="#e5e5e5">Open the boiler drain</text>
</g>
<!-- frog_hall_access -->
<g id="node33" class="node">
<title>frog_hall_access</title>
<path fill="none" stroke="#d9d9d9" d="M504,-1566C504,-1566 405,-1566 405,-1566 399,-1566 393,-1560 393,-1554 393,-1554 393,-1542 393,-1542 393,-1536 399,-1530 405,-1530 405,-1530 504,-1530 504,-1530 510,-1530 516,-1536 516,-1542 516,-1542 516,-1554 516,-1554 516,-1560 510,-1566 504,-1566"/>
<text text-anchor="middle" x="454.5" y="-1544.3" font-family="Helvetica,sans-Serif" font-size="14.00" fill="#e5e5e5">Frog hall Access</text>
</g>
<!-- boiler_solved&#45;&gt;frog_hall_access -->
<g id="edge18" class="edge">
<title>boiler_solved&#45;&gt;frog_hall_access</title>
<path fill="none" stroke="#d9d9d9" d="M478.57,-1619.61C474.31,-1607.12 468.49,-1590.04 463.64,-1575.8"/>
<polygon fill="#d9d9d9" stroke="#d9d9d9" points="466.85,-1574.39 460.31,-1566.05 460.23,-1576.64 466.85,-1574.39"/>
</g>
<!-- dni_numbers_1_10 -->
<g id="node18" class="node">
<title>dni_numbers_1_10</title>
<path fill="#280060" stroke="#d9d9d9" d="M687,-666C687,-666 568,-666 568,-666 562,-666 556,-660 556,-654 556,-654 556,-642 556,-642 556,-636 562,-630 568,-630 568,-630 687,-630 687,-630 693,-630 699,-636 699,-642 699,-642 699,-654 699,-654 699,-660 693,-666 687,-666"/>
<text text-anchor="middle" x="627.5" y="-644.3" font-family="Helvetica,sans-Serif" font-size="14.00" fill="#e5e5e5">Learn numbers 1&#45;10</text>
</g>
<!-- dni_numbers_11_24 -->
<g id="node19" class="node">
<title>dni_numbers_11_24</title>
<path fill="#280060" stroke="#d9d9d9" d="M840,-576C840,-576 699,-576 699,-576 693,-576 687,-570 687,-564 687,-564 687,-552 687,-552 687,-546 693,-540 699,-540 699,-540 840,-540 840,-540 846,-540 852,-546 852,-552 852,-552 852,-564 852,-564 852,-570 846,-576 840,-576"/>
<text text-anchor="middle" x="769.5" y="-554.3" font-family="Helvetica,sans-Serif" font-size="14.00" fill="#e5e5e5">Deduce numbers 11&#45;24</text>
</g>
<!-- dni_numbers_1_10&#45;&gt;dni_numbers_11_24 -->
<g id="edge22" class="edge">
<title>dni_numbers_1_10&#45;&gt;dni_numbers_11_24</title>
<path fill="none" stroke="#d9d9d9" d="M655.22,-629.82C677.5,-616.01 708.98,-596.5 733.26,-581.46"/>
<polygon fill="#d9d9d9" stroke="#d9d9d9" points="735.2,-584.38 741.85,-576.13 731.51,-578.43 735.2,-584.38"/>
</g>
<!-- food_chain_learned -->
<g id="node47" class="node">
<title>food_chain_learned</title>
<path fill="none" stroke="#d9d9d9" d="M537,-576C537,-576 408,-576 408,-576 402,-576 396,-570 396,-564 396,-564 396,-552 396,-552 396,-546 402,-540 408,-540 408,-540 537,-540 537,-540 543,-540 549,-546 549,-552 549,-552 549,-564 549,-564 549,-570 543,-576 537,-576"/>
<text text-anchor="middle" x="472.5" y="-554.3" font-family="Helvetica,sans-Serif" font-size="14.00" fill="#e5e5e5">Learn the Food Chain</text>
</g>
<!-- dni_numbers_1_10&#45;&gt;food_chain_learned -->
<g id="edge23" class="edge">
<title>dni_numbers_1_10&#45;&gt;food_chain_learned</title>
<path fill="none" stroke="#d9d9d9" d="M597.25,-629.82C572.82,-615.95 538.26,-596.33 511.7,-581.26"/>
<polygon fill="#d9d9d9" stroke="#d9d9d9" points="513.1,-578.03 502.68,-576.13 509.65,-584.11 513.1,-578.03"/>
</g>
<!-- telescope_hatch_open -->
<g id="node66" class="node">
<title>telescope_hatch_open</title>
<path fill="none" stroke="#d9d9d9" d="M557.5,-216C557.5,-216 423.5,-216 423.5,-216 417.5,-216 411.5,-210 411.5,-204 411.5,-204 411.5,-192 411.5,-192 411.5,-186 417.5,-180 423.5,-180 423.5,-180 557.5,-180 557.5,-180 563.5,-180 569.5,-186 569.5,-192 569.5,-192 569.5,-204 569.5,-204 569.5,-210 563.5,-216 557.5,-216"/>
<text text-anchor="middle" x="490.5" y="-194.3" font-family="Helvetica,sans-Serif" font-size="14.00" fill="#e5e5e5">Open telescope hatch</text>
</g>
<!-- dni_numbers_1_10&#45;&gt;telescope_hatch_open -->
<g id="edge24" class="edge">
<title>dni_numbers_1_10&#45;&gt;telescope_hatch_open</title>
<path fill="none" stroke="#d9d9d9" d="M630.87,-629.9C636.81,-598.27 648.5,-528.43 648.5,-469 648.5,-469 648.5,-469 648.5,-377 648.5,-306.35 578.02,-250.67 531.2,-221.48"/>
<polygon fill="#d9d9d9" stroke="#d9d9d9" points="532.84,-218.38 522.47,-216.17 529.2,-224.36 532.84,-218.38"/>
</g>
<!-- dome_access -->
<g id="node44" class="node">
<title>dome_access</title>
<path fill="none" stroke="#d9d9d9" d="M900.5,-486C900.5,-486 758.5,-486 758.5,-486 752.5,-486 746.5,-480 746.5,-474 746.5,-474 746.5,-462 746.5,-462 746.5,-456 752.5,-450 758.5,-450 758.5,-450 900.5,-450 900.5,-450 906.5,-450 912.5,-456 912.5,-462 912.5,-462 912.5,-474 912.5,-474 912.5,-480 906.5,-486 900.5,-486"/>
<text text-anchor="middle" x="829.5" y="-464.3" font-family="Helvetica,sans-Serif" font-size="14.00" fill="#e5e5e5">Get inside baby domes</text>
</g>
<!-- dni_numbers_11_24&#45;&gt;dome_access -->
<g id="edge25" class="edge">
<title>dni_numbers_11_24&#45;&gt;dome_access</title>
<path fill="none" stroke="#d9d9d9" d="M781.35,-539.61C790.12,-526.76 802.2,-509.04 812.07,-494.57"/>
<polygon fill="#d9d9d9" stroke="#d9d9d9" points="815.13,-496.28 817.87,-486.05 809.35,-492.34 815.13,-496.28"/>
</g>
<!-- dome_coordinates_learned -->
<g id="node20" class="node">
<title>dome_coordinates_learned</title>
<path fill="#280060" stroke="#d9d9d9" d="M1676,-666C1676,-666 1485,-666 1485,-666 1479,-666 1473,-660 1473,-654 1473,-654 1473,-642 1473,-642 1473,-636 1479,-630 1485,-630 1485,-630 1676,-630 1676,-630 1682,-630 1688,-636 1688,-642 1688,-642 1688,-654 1688,-654 1688,-660 1682,-666 1676,-666"/>
<text text-anchor="middle" x="1580.5" y="-644.3" font-family="Helvetica,sans-Serif" font-size="14.00" fill="#e5e5e5">Learn Baby Dome Coordinates</text>
</g>
<!-- dome_coordinates_learned&#45;&gt;dome_power -->
<g id="edge28" class="edge">
<title>dome_coordinates_learned&#45;&gt;dome_power</title>
<path fill="none" stroke="#d9d9d9" d="M1551.61,-629.82C1528.29,-615.95 1495.29,-596.33 1469.93,-581.26"/>
<polygon fill="#d9d9d9" stroke="#d9d9d9" points="1471.7,-578.24 1461.31,-576.13 1468.12,-584.25 1471.7,-578.24"/>
</g>
<!-- frog_hall_door_secret -->
<g id="node21" class="node">
<title>frog_hall_door_secret</title>
<path fill="#280060" stroke="#d9d9d9" d="M1159,-1476C1159,-1476 958,-1476 958,-1476 952,-1476 946,-1470 946,-1464 946,-1464 946,-1452 946,-1452 946,-1446 952,-1440 958,-1440 958,-1440 1159,-1440 1159,-1440 1165,-1440 1171,-1446 1171,-1452 1171,-1452 1171,-1464 1171,-1464 1171,-1470 1165,-1476 1159,-1476"/>
<text text-anchor="middle" x="1058.5" y="-1454.3" font-family="Helvetica,sans-Serif" font-size="14.00" fill="#e5e5e5">BEHIND THE FUCKING DOOR</text>
</g>
<!-- big_dome_access_full -->
<g id="node35" class="node">
<title>big_dome_access_full</title>
<path fill="none" stroke="#d9d9d9" d="M1559.5,-936C1559.5,-936 1449.5,-936 1449.5,-936 1443.5,-936 1437.5,-930 1437.5,-924 1437.5,-924 1437.5,-912 1437.5,-912 1437.5,-906 1443.5,-900 1449.5,-900 1449.5,-900 1559.5,-900 1559.5,-900 1565.5,-900 1571.5,-906 1571.5,-912 1571.5,-912 1571.5,-924 1571.5,-924 1571.5,-930 1565.5,-936 1559.5,-936"/>
<text text-anchor="middle" x="1504.5" y="-914.3" font-family="Helvetica,sans-Serif" font-size="14.00" fill="#e5e5e5">Full Dome Access</text>
</g>
<!-- frog_hall_door_secret&#45;&gt;big_dome_access_full -->
<g id="edge34" class="edge">
<title>frog_hall_door_secret&#45;&gt;big_dome_access_full</title>
<path fill="none" stroke="#d9d9d9" d="M1161.59,-1440C1249.07,-1418.98 1360.5,-1373.64 1360.5,-1279 1360.5,-1279 1360.5,-1279 1360.5,-1097 1360.5,-1048.06 1357.52,-1029.44 1386.5,-990 1402.43,-968.33 1427.14,-951.99 1449.85,-940.49"/>
<polygon fill="#d9d9d9" stroke="#d9d9d9" points="1451.62,-943.52 1459.09,-936 1448.57,-937.22 1451.62,-943.52"/>
</g>
<!-- boiler_island_dome_door_secret -->
<g id="node40" class="node">
<title>boiler_island_dome_door_secret</title>
<path fill="none" stroke="#d9d9d9" d="M1133,-1386C1133,-1386 984,-1386 984,-1386 978,-1386 972,-1380 972,-1374 972,-1374 972,-1362 972,-1362 972,-1356 978,-1350 984,-1350 984,-1350 1133,-1350 1133,-1350 1139,-1350 1145,-1356 1145,-1362 1145,-1362 1145,-1374 1145,-1374 1145,-1380 1139,-1386 1133,-1386"/>
<text text-anchor="middle" x="1058.5" y="-1364.3" font-family="Helvetica,sans-Serif" font-size="14.00" fill="#e5e5e5">behind the OTHER door</text>
</g>
<!-- frog_hall_door_secret&#45;&gt;boiler_island_dome_door_secret -->
<g id="edge35" class="edge">
<title>frog_hall_door_secret&#45;&gt;boiler_island_dome_door_secret</title>
<path fill="none" stroke="#d9d9d9" d="M1058.5,-1439.61C1058.5,-1427.24 1058.5,-1410.37 1058.5,-1396.22"/>
<polygon fill="#d9d9d9" stroke="#d9d9d9" points="1062,-1396.05 1058.5,-1386.05 1055,-1396.05 1062,-1396.05"/>
</g>
<!-- boiler_island_vent_fan_off -->
<g id="node41" class="node">
<title>boiler_island_vent_fan_off</title>
<path fill="none" stroke="#d9d9d9" d="M930,-1386C930,-1386 845,-1386 845,-1386 839,-1386 833,-1380 833,-1374 833,-1374 833,-1362 833,-1362 833,-1356 839,-1350 845,-1350 845,-1350 930,-1350 930,-1350 936,-1350 942,-1356 942,-1362 942,-1362 942,-1374 942,-1374 942,-1380 936,-1386 930,-1386"/>
<text text-anchor="middle" x="887.5" y="-1364.3" font-family="Helvetica,sans-Serif" font-size="14.00" fill="#e5e5e5">turn off the AC</text>
</g>
<!-- frog_hall_door_secret&#45;&gt;boiler_island_vent_fan_off -->
<g id="edge36" class="edge">
<title>frog_hall_door_secret&#45;&gt;boiler_island_vent_fan_off</title>
<path fill="none" stroke="#d9d9d9" d="M1025.12,-1439.82C997.94,-1425.83 959.38,-1405.99 929.99,-1390.86"/>
<polygon fill="#d9d9d9" stroke="#d9d9d9" points="931.29,-1387.6 920.79,-1386.13 928.08,-1393.82 931.29,-1387.6"/>
</g>
<!-- island_color_boiler -->
<g id="node54" class="node">
<title>island_color_boiler</title>
<path fill="none" stroke="#d9d9d9" d="M1300.5,-1296C1300.5,-1296 1114.5,-1296 1114.5,-1296 1108.5,-1296 1102.5,-1290 1102.5,-1284 1102.5,-1284 1102.5,-1272 1102.5,-1272 1102.5,-1266 1108.5,-1260 1114.5,-1260 1114.5,-1260 1300.5,-1260 1300.5,-1260 1306.5,-1260 1312.5,-1266 1312.5,-1272 1312.5,-1272 1312.5,-1284 1312.5,-1284 1312.5,-1290 1306.5,-1296 1300.5,-1296"/>
<text text-anchor="middle" x="1207.5" y="-1274.3" font-family="Helvetica,sans-Serif" font-size="14.00" fill="#e5e5e5">find boiler island dome symbol</text>
</g>
<!-- frog_hall_door_secret&#45;&gt;island_color_boiler -->
<g id="edge37" class="edge">
<title>frog_hall_door_secret&#45;&gt;island_color_boiler</title>
<path fill="none" stroke="#d9d9d9" d="M1090.33,-1439.97C1111.54,-1427.33 1138.86,-1408.46 1157.5,-1386 1177.47,-1361.95 1191.38,-1328.6 1199.38,-1305.56"/>
<polygon fill="#d9d9d9" stroke="#d9d9d9" points="1202.7,-1306.66 1202.53,-1296.07 1196.06,-1304.45 1202.7,-1306.66"/>
</g>
<!-- gehn_trapped -->
<g id="node22" class="node">
<title>gehn_trapped</title>
<path fill="#280060" stroke="#d9d9d9" d="M186,-306C186,-306 125,-306 125,-306 119,-306 113,-300 113,-294 113,-294 113,-282 113,-282 113,-276 119,-270 125,-270 125,-270 186,-270 186,-270 192,-270 198,-276 198,-282 198,-282 198,-294 198,-294 198,-300 192,-306 186,-306"/>
<text text-anchor="middle" x="155.5" y="-284.3" font-family="Helvetica,sans-Serif" font-size="14.00" fill="#e5e5e5">Trap Gehn</text>
</g>
<!-- gehn_trapped&#45;&gt;ending_free_gehn -->
<g id="edge43" class="edge">
<title>gehn_trapped&#45;&gt;ending_free_gehn</title>
<path fill="none" stroke="#d9d9d9" d="M171.31,-269.61C183.22,-256.51 199.71,-238.37 213,-223.75"/>
<polygon fill="#d9d9d9" stroke="#d9d9d9" points="215.86,-225.8 220,-216.05 210.68,-221.1 215.86,-225.8"/>
</g>
<!-- gehn_trapped&#45;&gt;ending_good -->
<g id="edge44" class="edge">
<title>gehn_trapped&#45;&gt;ending_good</title>
<path fill="none" stroke="#d9d9d9" d="M155.5,-269.83C155.5,-224.45 155.5,-101.06 155.5,-46.07"/>
<polygon fill="#d9d9d9" stroke="#d9d9d9" points="159,-46.03 155.5,-36.03 152,-46.03 159,-46.03"/>
</g>
<!-- gehn_trapped&#45;&gt;ending_no_wife -->
<g id="edge45" class="edge">
<title>gehn_trapped&#45;&gt;ending_no_wife</title>
<path fill="none" stroke="#d9d9d9" d="M197.2,-269.95C232.09,-254.81 277.97,-232.59 289.5,-216 325.29,-164.51 323.36,-86.83 319.24,-46.1"/>
<polygon fill="#d9d9d9" stroke="#d9d9d9" points="322.71,-45.66 318.1,-36.12 315.75,-46.45 322.71,-45.66"/>
</g>
<!-- gehn_ringtone_learned -->
<g id="node52" class="node">
<title>gehn_ringtone_learned</title>
<path fill="none" stroke="#d9d9d9" d="M105,-216C105,-216 12,-216 12,-216 6,-216 0,-210 0,-204 0,-204 0,-192 0,-192 0,-186 6,-180 12,-180 12,-180 105,-180 105,-180 111,-180 117,-186 117,-192 117,-192 117,-204 117,-204 117,-210 111,-216 105,-216"/>
<text text-anchor="middle" x="58.5" y="-194.3" font-family="Helvetica,sans-Serif" font-size="14.00" fill="#e5e5e5">Gehn&#39;s ringtone</text>
</g>
<!-- gehn_trapped&#45;&gt;gehn_ringtone_learned -->
<g id="edge46" class="edge">
<title>gehn_trapped&#45;&gt;gehn_ringtone_learned</title>
<path fill="none" stroke="#d9d9d9" d="M136.34,-269.61C121.63,-256.27 101.15,-237.69 84.89,-222.94"/>
<polygon fill="#d9d9d9" stroke="#d9d9d9" points="87.05,-220.18 77.29,-216.05 82.35,-225.36 87.05,-220.18"/>
</g>
<!-- island_colors_learned -->
<g id="node23" class="node">
<title>island_colors_learned</title>
<path fill="#280060" stroke="#d9d9d9" d="M1317.5,-666C1317.5,-666 1201.5,-666 1201.5,-666 1195.5,-666 1189.5,-660 1189.5,-654 1189.5,-654 1189.5,-642 1189.5,-642 1189.5,-636 1195.5,-630 1201.5,-630 1201.5,-630 1317.5,-630 1317.5,-630 1323.5,-630 1329.5,-636 1329.5,-642 1329.5,-642 1329.5,-654 1329.5,-654 1329.5,-660 1323.5,-666 1317.5,-666"/>
<text text-anchor="middle" x="1259.5" y="-644.3" font-family="Helvetica,sans-Serif" font-size="14.00" fill="#e5e5e5">Learn Island Colors</text>
</g>
<!-- island_colors_learned&#45;&gt;dome_power -->
<g id="edge54" class="edge">
<title>island_colors_learned&#45;&gt;dome_power</title>
<path fill="none" stroke="#d9d9d9" d="M1293.27,-629.82C1320.89,-615.77 1360.12,-595.82 1389.9,-580.67"/>
<polygon fill="#d9d9d9" stroke="#d9d9d9" points="1391.49,-583.79 1398.82,-576.13 1388.32,-577.55 1391.49,-583.79"/>
</g>
<!-- map_island_maglev_rotated -->
<g id="node24" class="node">
<title>map_island_maglev_rotated</title>
<path fill="#280060" stroke="#d9d9d9" d="M1100.5,-1026C1100.5,-1026 908.5,-1026 908.5,-1026 902.5,-1026 896.5,-1020 896.5,-1014 896.5,-1014 896.5,-1002 896.5,-1002 896.5,-996 902.5,-990 908.5,-990 908.5,-990 1100.5,-990 1100.5,-990 1106.5,-990 1112.5,-996 1112.5,-1002 1112.5,-1002 1112.5,-1014 1112.5,-1014 1112.5,-1020 1106.5,-1026 1100.5,-1026"/>
<text text-anchor="middle" x="1004.5" y="-1004.3" font-family="Helvetica,sans-Serif" font-size="14.00" fill="#e5e5e5">Turn the fucking maglev around</text>
</g>
<!-- map_island_basement_access -->
<g id="node59" class="node">
<title>map_island_basement_access</title>
<path fill="none" stroke="#d9d9d9" d="M1031,-936C1031,-936 902,-936 902,-936 896,-936 890,-930 890,-924 890,-924 890,-912 890,-912 890,-906 896,-900 902,-900 902,-900 1031,-900 1031,-900 1037,-900 1043,-906 1043,-912 1043,-912 1043,-924 1043,-924 1043,-930 1037,-936 1031,-936"/>
<text text-anchor="middle" x="966.5" y="-914.3" font-family="Helvetica,sans-Serif" font-size="14.00" fill="#e5e5e5">Map island basement</text>
</g>
<!-- map_island_maglev_rotated&#45;&gt;map_island_basement_access -->
<g id="edge61" class="edge">
<title>map_island_maglev_rotated&#45;&gt;map_island_basement_access</title>
<path fill="none" stroke="#d9d9d9" d="M996.99,-989.61C991.54,-977 984.08,-959.71 977.9,-945.39"/>
<polygon fill="#d9d9d9" stroke="#d9d9d9" points="981.04,-943.84 973.86,-936.05 974.61,-946.62 981.04,-943.84"/>
</g>
<!-- orb_all&#45;&gt;food_chain_learned -->
<g id="edge62" class="edge">
<title>orb_all&#45;&gt;food_chain_learned</title>
<path fill="none" stroke="#d9d9d9" d="M279.07,-719.73C301.35,-698.07 341.26,-660.12 377.5,-630 397.69,-613.22 421.32,-595.55 439.97,-582.03"/>
<polygon fill="#d9d9d9" stroke="#d9d9d9" points="442.09,-584.82 448.16,-576.13 438,-579.14 442.09,-584.82"/>
</g>
<!-- rotating_room_complete -->
<g id="node26" class="node">
<title>rotating_room_complete</title>
<path fill="#280060" stroke="#d9d9d9" d="M1769.5,-1206C1769.5,-1206 1641.5,-1206 1641.5,-1206 1635.5,-1206 1629.5,-1200 1629.5,-1194 1629.5,-1194 1629.5,-1182 1629.5,-1182 1629.5,-1176 1635.5,-1170 1641.5,-1170 1641.5,-1170 1769.5,-1170 1769.5,-1170 1775.5,-1170 1781.5,-1176 1781.5,-1182 1781.5,-1182 1781.5,-1194 1781.5,-1194 1781.5,-1200 1775.5,-1206 1769.5,-1206"/>
<text text-anchor="middle" x="1705.5" y="-1184.3" font-family="Helvetica,sans-Serif" font-size="14.00" fill="#e5e5e5">Rotating Room 100%</text>
</g>
<!-- big_dome_access_basic -->
<g id="node34" class="node">
<title>big_dome_access_basic</title>
<path fill="none" stroke="#d9d9d9" d="M1765,-1116C1765,-1116 1646,-1116 1646,-1116 1640,-1116 1634,-1110 1634,-1104 1634,-1104 1634,-1092 1634,-1092 1634,-1086 1640,-1080 1646,-1080 1646,-1080 1765,-1080 1765,-1080 1771,-1080 1777,-1086 1777,-1092 1777,-1092 1777,-1104 1777,-1104 1777,-1110 1771,-1116 1765,-1116"/>
<text text-anchor="middle" x="1705.5" y="-1094.3" font-family="Helvetica,sans-Serif" font-size="14.00" fill="#e5e5e5">Basic dome access</text>
</g>
<!-- rotating_room_complete&#45;&gt;big_dome_access_basic -->
<g id="edge68" class="edge">
<title>rotating_room_complete&#45;&gt;big_dome_access_basic</title>
<path fill="none" stroke="#d9d9d9" d="M1705.5,-1169.61C1705.5,-1157.24 1705.5,-1140.37 1705.5,-1126.22"/>
<polygon fill="#d9d9d9" stroke="#d9d9d9" points="1709,-1126.05 1705.5,-1116.05 1702,-1126.05 1709,-1126.05"/>
</g>
<!-- rotating_room_partial -->
<g id="node61" class="node">
<title>rotating_room_partial</title>
<path fill="none" stroke="#d9d9d9" d="M1765.5,-1296C1765.5,-1296 1645.5,-1296 1645.5,-1296 1639.5,-1296 1633.5,-1290 1633.5,-1284 1633.5,-1284 1633.5,-1272 1633.5,-1272 1633.5,-1266 1639.5,-1260 1645.5,-1260 1645.5,-1260 1765.5,-1260 1765.5,-1260 1771.5,-1260 1777.5,-1266 1777.5,-1272 1777.5,-1272 1777.5,-1284 1777.5,-1284 1777.5,-1290 1771.5,-1296 1765.5,-1296"/>
<text text-anchor="middle" x="1705.5" y="-1274.3" font-family="Helvetica,sans-Serif" font-size="14.00" fill="#e5e5e5">Rotating Room 50%</text>
</g>
<!-- rotating_room_shit_door&#45;&gt;rotating_room_partial -->
<g id="edge71" class="edge">
<title>rotating_room_shit_door&#45;&gt;rotating_room_partial</title>
<path fill="none" stroke="#d9d9d9" d="M974.53,-1812.56C1148.08,-1800.34 1558.5,-1758.79 1558.5,-1639 1558.5,-1639 1558.5,-1639 1558.5,-1457 1558.5,-1388.05 1624.88,-1331.39 1668.43,-1301.63"/>
<polygon fill="#d9d9d9" stroke="#d9d9d9" points="1670.43,-1304.51 1676.81,-1296.05 1666.55,-1298.68 1670.43,-1304.51"/>
</g>
<!-- submarine_lever_room_solved -->
<g id="node28" class="node">
<title>submarine_lever_room_solved</title>
<path fill="#280060" stroke="#d9d9d9" d="M702,-846C702,-846 573,-846 573,-846 567,-846 561,-840 561,-834 561,-834 561,-822 561,-822 561,-816 567,-810 573,-810 573,-810 702,-810 702,-810 708,-810 714,-816 714,-822 714,-822 714,-834 714,-834 714,-840 708,-846 702,-846"/>
<text text-anchor="middle" x="637.5" y="-824.3" font-family="Helvetica,sans-Serif" font-size="14.00" fill="#e5e5e5">Figure out lever room</text>
</g>
<!-- village_island_execution_platform_access -->
<g id="node70" class="node">
<title>village_island_execution_platform_access</title>
<path fill="none" stroke="#d9d9d9" d="M518,-756C518,-756 363,-756 363,-756 357,-756 351,-750 351,-744 351,-744 351,-732 351,-732 351,-726 357,-720 363,-720 363,-720 518,-720 518,-720 524,-720 530,-726 530,-732 530,-732 530,-744 530,-744 530,-750 524,-756 518,-756"/>
<text text-anchor="middle" x="440.5" y="-734.3" font-family="Helvetica,sans-Serif" font-size="14.00" fill="#e5e5e5">Reach execution platform</text>
</g>
<!-- submarine_lever_room_solved&#45;&gt;village_island_execution_platform_access -->
<g id="edge79" class="edge">
<title>submarine_lever_room_solved&#45;&gt;village_island_execution_platform_access</title>
<path fill="none" stroke="#d9d9d9" d="M599.05,-809.82C567.32,-795.65 522.15,-775.47 488.13,-760.28"/>
<polygon fill="#d9d9d9" stroke="#d9d9d9" points="489.41,-757.02 478.85,-756.13 486.56,-763.41 489.41,-757.02"/>
</g>
<!-- village_island_school_access -->
<g id="node74" class="node">
<title>village_island_school_access</title>
<path fill="none" stroke="#d9d9d9" d="M647.5,-756C647.5,-756 567.5,-756 567.5,-756 561.5,-756 555.5,-750 555.5,-744 555.5,-744 555.5,-732 555.5,-732 555.5,-726 561.5,-720 567.5,-720 567.5,-720 647.5,-720 647.5,-720 653.5,-720 659.5,-726 659.5,-732 659.5,-732 659.5,-744 659.5,-744 659.5,-750 653.5,-756 647.5,-756"/>
<text text-anchor="middle" x="607.5" y="-734.3" font-family="Helvetica,sans-Serif" font-size="14.00" fill="#e5e5e5">School house</text>
</g>
<!-- submarine_lever_room_solved&#45;&gt;village_island_school_access -->
<g id="edge80" class="edge">
<title>submarine_lever_room_solved&#45;&gt;village_island_school_access</title>
<path fill="none" stroke="#d9d9d9" d="M631.57,-809.61C627.31,-797.12 621.49,-780.04 616.64,-765.8"/>
<polygon fill="#d9d9d9" stroke="#d9d9d9" points="619.85,-764.39 613.31,-756.05 613.23,-766.64 619.85,-764.39"/>
</g>
<!-- telescope_stop -->
<g id="node29" class="node">
<title>telescope_stop</title>
<path fill="#280060" stroke="#d9d9d9" d="M371.5,-306C371.5,-306 235.5,-306 235.5,-306 229.5,-306 223.5,-300 223.5,-294 223.5,-294 223.5,-282 223.5,-282 223.5,-276 229.5,-270 235.5,-270 235.5,-270 371.5,-270 371.5,-270 377.5,-270 383.5,-276 383.5,-282 383.5,-282 383.5,-294 383.5,-294 383.5,-300 377.5,-306 371.5,-306"/>
<text text-anchor="middle" x="303.5" y="-284.3" font-family="Helvetica,sans-Serif" font-size="14.00" fill="#e5e5e5">Learn Telescope Stop</text>
</g>
<!-- signal_atrus -->
<g id="node62" class="node">
<title>signal_atrus</title>
<path fill="none" stroke="#d9d9d9" d="M470.5,-126C470.5,-126 400.5,-126 400.5,-126 394.5,-126 388.5,-120 388.5,-114 388.5,-114 388.5,-102 388.5,-102 388.5,-96 394.5,-90 400.5,-90 400.5,-90 470.5,-90 470.5,-90 476.5,-90 482.5,-96 482.5,-102 482.5,-102 482.5,-114 482.5,-114 482.5,-120 476.5,-126 470.5,-126"/>
<text text-anchor="middle" x="435.5" y="-104.3" font-family="Helvetica,sans-Serif" font-size="14.00" fill="#e5e5e5">Signal Atrus</text>
</g>
<!-- telescope_stop&#45;&gt;signal_atrus -->
<g id="edge88" class="edge">
<title>telescope_stop&#45;&gt;signal_atrus</title>
<path fill="none" stroke="#d9d9d9" d="M316.16,-269.93C339.51,-238.43 389.5,-171.03 416.78,-134.24"/>
<polygon fill="#d9d9d9" stroke="#d9d9d9" points="419.74,-136.13 422.88,-126.02 414.11,-131.96 419.74,-136.13"/>
</g>
<!-- village_island_animal_room_access -->
<g id="node30" class="node">
<title>village_island_animal_room_access</title>
<path fill="#280060" stroke="#d9d9d9" d="M359,-576C359,-576 214,-576 214,-576 208,-576 202,-570 202,-564 202,-564 202,-552 202,-552 202,-546 208,-540 214,-540 214,-540 359,-540 359,-540 365,-540 371,-546 371,-552 371,-552 371,-564 371,-564 371,-570 365,-576 359,-576"/>
<text text-anchor="middle" x="286.5" y="-554.3" font-family="Helvetica,sans-Serif" font-size="14.00" fill="#e5e5e5">Find secret animal room</text>
</g>
<!-- tay_visited -->
<g id="node63" class="node">
<title>tay_visited</title>
<path fill="none" stroke="#d9d9d9" d="M348,-486C348,-486 225,-486 225,-486 219,-486 213,-480 213,-474 213,-474 213,-462 213,-462 213,-456 219,-450 225,-450 225,-450 348,-450 348,-450 354,-450 360,-456 360,-462 360,-462 360,-474 360,-474 360,-480 354,-486 348,-486"/>
<text text-anchor="middle" x="286.5" y="-464.3" font-family="Helvetica,sans-Serif" font-size="14.00" fill="#e5e5e5">Moiety Age Fieldtrip</text>
</g>
<!-- village_island_animal_room_access&#45;&gt;tay_visited -->
<g id="edge90" class="edge">
<title>village_island_animal_room_access&#45;&gt;tay_visited</title>
<path fill="none" stroke="#d9d9d9" d="M286.5,-539.61C286.5,-527.24 286.5,-510.37 286.5,-496.22"/>
<polygon fill="#d9d9d9" stroke="#d9d9d9" points="290,-496.05 286.5,-486.05 283,-496.05 290,-496.05"/>
</g>
<!-- submarine_found -->
<g id="node31" class="node">
<title>submarine_found</title>
<path fill="none" stroke="#d9d9d9" d="M737,-1656C737,-1656 648,-1656 648,-1656 642,-1656 636,-1650 636,-1644 636,-1644 636,-1632 636,-1632 636,-1626 642,-1620 648,-1620 648,-1620 737,-1620 737,-1620 743,-1620 749,-1626 749,-1632 749,-1632 749,-1644 749,-1644 749,-1650 743,-1656 737,-1656"/>
<text text-anchor="middle" x="692.5" y="-1634.3" font-family="Helvetica,sans-Serif" font-size="14.00" fill="#e5e5e5">Find submarine</text>
</g>
<!-- submarine_found&#45;&gt;submarine_lever_room_solved -->
<g id="edge78" class="edge">
<title>submarine_found&#45;&gt;submarine_lever_room_solved</title>
<path fill="none" stroke="#d9d9d9" d="M692.5,-1619.82C692.5,-1588.06 692.5,-1518.02 692.5,-1459 692.5,-1459 692.5,-1459 692.5,-1007 692.5,-951.07 667.4,-889.48 651.12,-855.4"/>
<polygon fill="#d9d9d9" stroke="#d9d9d9" points="654.12,-853.58 646.58,-846.14 647.84,-856.66 654.12,-853.58"/>
</g>
<!-- frog_caught -->
<g id="node32" class="node">
<title>frog_caught</title>
<path fill="none" stroke="#d9d9d9" d="M304.5,-1476C304.5,-1476 236.5,-1476 236.5,-1476 230.5,-1476 224.5,-1470 224.5,-1464 224.5,-1464 224.5,-1452 224.5,-1452 224.5,-1446 230.5,-1440 236.5,-1440 236.5,-1440 304.5,-1440 304.5,-1440 310.5,-1440 316.5,-1446 316.5,-1452 316.5,-1452 316.5,-1464 316.5,-1464 316.5,-1470 310.5,-1476 304.5,-1476"/>
<text text-anchor="middle" x="270.5" y="-1454.3" font-family="Helvetica,sans-Serif" font-size="14.00" fill="#e5e5e5">Frog caught</text>
</g>
<!-- frog_caught&#45;&gt;orb_frog -->
<g id="edge2" class="edge">
<title>frog_caught&#45;&gt;orb_frog</title>
<g id="a_edge2"><a xlink:title="optionally crossref the frog sound">
<path fill="none" stroke="#d9d9d9" stroke-dasharray="5,2" d="M267.08,-1439.73C255.64,-1382.08 218.72,-1195.89 204.84,-1125.92"/>
<polygon fill="#d9d9d9" stroke="#d9d9d9" points="208.27,-1125.22 202.89,-1116.09 201.4,-1126.58 208.27,-1125.22"/>
</a>
</g>
</g>
<!-- frog_hall_access&#45;&gt;frog_hall_door_secret -->
<g id="edge33" class="edge">
<title>frog_hall_access&#45;&gt;frog_hall_door_secret</title>
<path fill="none" stroke="#d9d9d9" d="M516.19,-1532.38C520.35,-1531.53 524.48,-1530.73 528.5,-1530 667.21,-1504.83 827.84,-1484.54 935.59,-1472.2"/>
<polygon fill="#d9d9d9" stroke="#d9d9d9" points="936.31,-1475.64 945.85,-1471.03 935.51,-1468.68 936.31,-1475.64"/>
</g>
<!-- frog_hall_access&#45;&gt;frog_caught -->
<g id="edge32" class="edge">
<title>frog_hall_access&#45;&gt;frog_caught</title>
<path fill="none" stroke="#d9d9d9" d="M418.59,-1529.82C389.08,-1515.71 347.12,-1495.64 315.4,-1480.47"/>
<polygon fill="#d9d9d9" stroke="#d9d9d9" points="316.85,-1477.29 306.32,-1476.13 313.83,-1483.6 316.85,-1477.29"/>
</g>
<!-- big_dome_access_basic&#45;&gt;big_dome_upper_stairs_lever_found -->
<g id="edge5" class="edge">
<title>big_dome_access_basic&#45;&gt;big_dome_upper_stairs_lever_found</title>
<path fill="none" stroke="#d9d9d9" d="M1705.5,-1079.61C1705.5,-1067.24 1705.5,-1050.37 1705.5,-1036.22"/>
<polygon fill="#d9d9d9" stroke="#d9d9d9" points="1709,-1036.05 1705.5,-1026.05 1702,-1036.05 1709,-1036.05"/>
</g>
<!-- big_dome_backdoor_bridge_power -->
<g id="node37" class="node">
<title>big_dome_backdoor_bridge_power</title>
<path fill="none" stroke="#d9d9d9" d="M1600,-1026C1600,-1026 1411,-1026 1411,-1026 1405,-1026 1399,-1020 1399,-1014 1399,-1014 1399,-1002 1399,-1002 1399,-996 1405,-990 1411,-990 1411,-990 1600,-990 1600,-990 1606,-990 1612,-996 1612,-1002 1612,-1002 1612,-1014 1612,-1014 1612,-1020 1606,-1026 1600,-1026"/>
<text text-anchor="middle" x="1505.5" y="-1004.3" font-family="Helvetica,sans-Serif" font-size="14.00" fill="#e5e5e5">Power Dome Backdoor Bridge</text>
</g>
<!-- big_dome_access_basic&#45;&gt;big_dome_backdoor_bridge_power -->
<g id="edge4" class="edge">
<title>big_dome_access_basic&#45;&gt;big_dome_backdoor_bridge_power</title>
<path fill="none" stroke="#d9d9d9" d="M1666.46,-1079.82C1634.25,-1065.65 1588.39,-1045.47 1553.86,-1030.28"/>
<polygon fill="#d9d9d9" stroke="#d9d9d9" points="1555,-1026.96 1544.44,-1026.13 1552.18,-1033.36 1555,-1026.96"/>
</g>
<!-- big_dome_upper_stairs_power -->
<g id="node39" class="node">
<title>big_dome_upper_stairs_power</title>
<path fill="none" stroke="#d9d9d9" d="M1972.5,-1026C1972.5,-1026 1810.5,-1026 1810.5,-1026 1804.5,-1026 1798.5,-1020 1798.5,-1014 1798.5,-1014 1798.5,-1002 1798.5,-1002 1798.5,-996 1804.5,-990 1810.5,-990 1810.5,-990 1972.5,-990 1972.5,-990 1978.5,-990 1984.5,-996 1984.5,-1002 1984.5,-1002 1984.5,-1014 1984.5,-1014 1984.5,-1020 1978.5,-1026 1972.5,-1026"/>
<text text-anchor="middle" x="1891.5" y="-1004.3" font-family="Helvetica,sans-Serif" font-size="14.00" fill="#e5e5e5">Power Upper Dome Stairs</text>
</g>
<!-- big_dome_access_basic&#45;&gt;big_dome_upper_stairs_power -->
<g id="edge6" class="edge">
<title>big_dome_access_basic&#45;&gt;big_dome_upper_stairs_power</title>
<path fill="none" stroke="#d9d9d9" d="M1741.8,-1079.82C1771.63,-1065.71 1814.05,-1045.64 1846.11,-1030.47"/>
<polygon fill="#d9d9d9" stroke="#d9d9d9" points="1847.74,-1033.57 1855.29,-1026.13 1844.75,-1027.25 1847.74,-1033.57"/>
</g>
<!-- big_dome_access_full&#45;&gt;big_dome_elevator_understood -->
<g id="edge8" class="edge">
<title>big_dome_access_full&#45;&gt;big_dome_elevator_understood</title>
<path fill="none" stroke="#d9d9d9" d="M1504.3,-899.61C1504.16,-887.24 1503.97,-870.37 1503.81,-856.22"/>
<polygon fill="#d9d9d9" stroke="#d9d9d9" points="1507.31,-856.01 1503.69,-846.05 1500.31,-856.09 1507.31,-856.01"/>
</g>
<!-- big_dome_access_full&#45;&gt;big_dome_access_upper -->
<g id="edge7" class="edge">
<title>big_dome_access_full&#45;&gt;big_dome_access_upper</title>
<path fill="none" stroke="#d9d9d9" d="M1546.79,-899.93C1582.29,-885.6 1633.13,-865.08 1671,-849.79"/>
<polygon fill="#d9d9d9" stroke="#d9d9d9" points="1672.36,-853.01 1680.33,-846.02 1669.74,-846.52 1672.36,-853.01"/>
</g>
<!-- big_dome_access_upper&#45;&gt;big_dome_power_button_found -->
<g id="edge10" class="edge">
<title>big_dome_access_upper&#45;&gt;big_dome_power_button_found</title>
<path fill="none" stroke="#d9d9d9" d="M1772.4,-809.94C1796.97,-798.72 1824.3,-781.34 1838.5,-756 1852.38,-731.23 1844.92,-698.28 1836.52,-675.52"/>
<polygon fill="#d9d9d9" stroke="#d9d9d9" points="1839.74,-674.15 1832.79,-666.15 1833.23,-676.73 1839.74,-674.15"/>
</g>
<!-- big_dome_needs_coordinates -->
<g id="node38" class="node">
<title>big_dome_needs_coordinates</title>
<path fill="none" stroke="#d9d9d9" d="M1814,-756C1814,-756 1631,-756 1631,-756 1625,-756 1619,-750 1619,-744 1619,-744 1619,-732 1619,-732 1619,-726 1625,-720 1631,-720 1631,-720 1814,-720 1814,-720 1820,-720 1826,-726 1826,-732 1826,-732 1826,-744 1826,-744 1826,-750 1820,-756 1814,-756"/>
<text text-anchor="middle" x="1722.5" y="-734.3" font-family="Helvetica,sans-Serif" font-size="14.00" fill="#e5e5e5">Realize you need coordinates</text>
</g>
<!-- big_dome_access_upper&#45;&gt;big_dome_needs_coordinates -->
<g id="edge9" class="edge">
<title>big_dome_access_upper&#45;&gt;big_dome_needs_coordinates</title>
<path fill="none" stroke="#d9d9d9" d="M1722.5,-809.61C1722.5,-797.24 1722.5,-780.37 1722.5,-766.22"/>
<polygon fill="#d9d9d9" stroke="#d9d9d9" points="1726,-766.05 1722.5,-756.05 1719,-766.05 1726,-766.05"/>
</g>
<!-- big_dome_backdoor_bridge_power&#45;&gt;big_dome_access_full -->
<g id="edge11" class="edge">
<title>big_dome_backdoor_bridge_power&#45;&gt;big_dome_access_full</title>
<path fill="none" stroke="#d9d9d9" d="M1505.3,-989.61C1505.16,-977.24 1504.97,-960.37 1504.81,-946.22"/>
<polygon fill="#d9d9d9" stroke="#d9d9d9" points="1508.31,-946.01 1504.69,-936.05 1501.31,-946.09 1508.31,-946.01"/>
</g>
<!-- big_dome_needs_coordinates&#45;&gt;dome_coordinates_learned -->
<g id="edge13" class="edge">
<title>big_dome_needs_coordinates&#45;&gt;dome_coordinates_learned</title>
<path fill="none" stroke="#d9d9d9" d="M1694.78,-719.82C1672.5,-706.01 1641.02,-686.5 1616.74,-671.46"/>
<polygon fill="#d9d9d9" stroke="#d9d9d9" points="1618.49,-668.43 1608.15,-666.13 1614.8,-674.38 1618.49,-668.43"/>
</g>
<!-- big_dome_upper_stairs_power&#45;&gt;big_dome_access_upper -->
<g id="edge16" class="edge">
<title>big_dome_upper_stairs_power&#45;&gt;big_dome_access_upper</title>
<path fill="none" stroke="#d9d9d9" d="M1875.3,-989.93C1845.14,-958.17 1780.31,-889.89 1745.59,-853.32"/>
<polygon fill="#d9d9d9" stroke="#d9d9d9" points="1748.08,-850.86 1738.66,-846.02 1743,-855.68 1748.08,-850.86"/>
</g>
<!-- boiler_island_dome_door_secret&#45;&gt;island_color_boiler -->
<g id="edge1" class="edge">
<title>boiler_island_dome_door_secret&#45;&gt;island_color_boiler</title>
<g id="a_edge1"><a xlink:title="optionally read the symbol without motion blur">
<path fill="none" stroke="#d9d9d9" stroke-dasharray="5,2" d="M1087.58,-1349.82C1111.07,-1335.95 1144.29,-1316.33 1169.81,-1301.26"/>
<polygon fill="#d9d9d9" stroke="#d9d9d9" points="1171.66,-1304.23 1178.49,-1296.13 1168.1,-1298.2 1171.66,-1304.23"/>
</a>
</g>
</g>
<!-- gehn_workshop_access -->
<g id="node53" class="node">
<title>gehn_workshop_access</title>
<path fill="none" stroke="#d9d9d9" d="M954,-1296C954,-1296 801,-1296 801,-1296 795,-1296 789,-1290 789,-1284 789,-1284 789,-1272 789,-1272 789,-1266 795,-1260 801,-1260 801,-1260 954,-1260 954,-1260 960,-1260 966,-1266 966,-1272 966,-1272 966,-1284 966,-1284 966,-1290 960,-1296 954,-1296"/>
<text text-anchor="middle" x="877.5" y="-1274.3" font-family="Helvetica,sans-Serif" font-size="14.00" fill="#e5e5e5">Gehn&#39;s workshop access</text>
</g>
<!-- boiler_island_vent_fan_off&#45;&gt;gehn_workshop_access -->
<g id="edge17" class="edge">
<title>boiler_island_vent_fan_off&#45;&gt;gehn_workshop_access</title>
<path fill="none" stroke="#d9d9d9" d="M885.52,-1349.61C884.12,-1337.24 882.2,-1320.37 880.59,-1306.22"/>
<polygon fill="#d9d9d9" stroke="#d9d9d9" points="884.04,-1305.59 879.44,-1296.05 877.09,-1306.38 884.04,-1305.59"/>
</g>
<!-- catherine_journal -->
<g id="node42" class="node">
<title>catherine_journal</title>
<path fill="none" stroke="#d9d9d9" d="M281.5,-396C281.5,-396 167.5,-396 167.5,-396 161.5,-396 155.5,-390 155.5,-384 155.5,-384 155.5,-372 155.5,-372 155.5,-366 161.5,-360 167.5,-360 167.5,-360 281.5,-360 281.5,-360 287.5,-360 293.5,-366 293.5,-372 293.5,-372 293.5,-384 293.5,-384 293.5,-390 287.5,-396 281.5,-396"/>
<text text-anchor="middle" x="224.5" y="-374.3" font-family="Helvetica,sans-Serif" font-size="14.00" fill="#e5e5e5">Catherine&#39;s Journal</text>
</g>
<!-- catherine_journal&#45;&gt;telescope_stop -->
<g id="edge20" class="edge">
<title>catherine_journal&#45;&gt;telescope_stop</title>
<path fill="none" stroke="#d9d9d9" d="M240.11,-359.61C251.87,-346.51 268.16,-328.37 281.28,-313.75"/>
<polygon fill="#d9d9d9" stroke="#d9d9d9" points="284.12,-315.83 288.19,-306.05 278.91,-311.15 284.12,-315.83"/>
</g>
<!-- telescope_code -->
<g id="node64" class="node">
<title>telescope_code</title>
<path fill="none" stroke="#d9d9d9" d="M560.5,-306C560.5,-306 420.5,-306 420.5,-306 414.5,-306 408.5,-300 408.5,-294 408.5,-294 408.5,-282 408.5,-282 408.5,-276 414.5,-270 420.5,-270 420.5,-270 560.5,-270 560.5,-270 566.5,-270 572.5,-276 572.5,-282 572.5,-282 572.5,-294 572.5,-294 572.5,-300 566.5,-306 560.5,-306"/>
<text text-anchor="middle" x="490.5" y="-284.3" font-family="Helvetica,sans-Serif" font-size="14.00" fill="#e5e5e5">Learn Telescope Code</text>
</g>
<!-- catherine_journal&#45;&gt;telescope_code -->
<g id="edge19" class="edge">
<title>catherine_journal&#45;&gt;telescope_code</title>
<path fill="none" stroke="#d9d9d9" d="M276.1,-359.93C319.97,-345.42 383.03,-324.55 429.41,-309.21"/>
<polygon fill="#d9d9d9" stroke="#d9d9d9" points="430.65,-312.49 439.04,-306.02 428.45,-305.84 430.65,-312.49"/>
</g>
<!-- dni_colors_learned -->
<g id="node43" class="node">
<title>dni_colors_learned</title>
<path fill="none" stroke="#d9d9d9" d="M1183,-846C1183,-846 1084,-846 1084,-846 1078,-846 1072,-840 1072,-834 1072,-834 1072,-822 1072,-822 1072,-816 1078,-810 1084,-810 1084,-810 1183,-810 1183,-810 1189,-810 1195,-816 1195,-822 1195,-822 1195,-834 1195,-834 1195,-840 1189,-846 1183,-846"/>
<text text-anchor="middle" x="1133.5" y="-824.3" font-family="Helvetica,sans-Serif" font-size="14.00" fill="#e5e5e5">Learn D&#39;ni colors</text>
</g>
<!-- dni_colors_learned&#45;&gt;island_colors_learned -->
<g id="edge21" class="edge">
<title>dni_colors_learned&#45;&gt;island_colors_learned</title>
<path fill="none" stroke="#d9d9d9" d="M1145.58,-809.93C1167.88,-778.43 1215.59,-711.03 1241.63,-674.24"/>
<polygon fill="#d9d9d9" stroke="#d9d9d9" points="1244.53,-676.2 1247.46,-666.02 1238.82,-672.16 1244.53,-676.2"/>
</g>
<!-- gehn_age_access -->
<g id="node49" class="node">
<title>gehn_age_access</title>
<path fill="none" stroke="#d9d9d9" d="M863.5,-396C863.5,-396 795.5,-396 795.5,-396 789.5,-396 783.5,-390 783.5,-384 783.5,-384 783.5,-372 783.5,-372 783.5,-366 789.5,-360 795.5,-360 795.5,-360 863.5,-360 863.5,-360 869.5,-360 875.5,-366 875.5,-372 875.5,-372 875.5,-384 875.5,-384 875.5,-390 869.5,-396 863.5,-396"/>
<text text-anchor="middle" x="829.5" y="-374.3" font-family="Helvetica,sans-Serif" font-size="14.00" fill="#e5e5e5">Gehn&#39;s Age</text>
</g>
<!-- dome_access&#45;&gt;gehn_age_access -->
<g id="edge26" class="edge">
<title>dome_access&#45;&gt;gehn_age_access</title>
<path fill="none" stroke="#d9d9d9" d="M829.5,-449.61C829.5,-437.24 829.5,-420.37 829.5,-406.22"/>
<polygon fill="#d9d9d9" stroke="#d9d9d9" points="833,-406.05 829.5,-396.05 826,-406.05 833,-406.05"/>
</g>
<!-- dome_code -->
<g id="node45" class="node">
<title>dome_code</title>
<path fill="none" stroke="#d9d9d9" d="M918,-1116C918,-1116 813,-1116 813,-1116 807,-1116 801,-1110 801,-1104 801,-1104 801,-1092 801,-1092 801,-1086 807,-1080 813,-1080 813,-1080 918,-1080 918,-1080 924,-1080 930,-1086 930,-1092 930,-1092 930,-1104 930,-1104 930,-1110 924,-1116 918,-1116"/>
<text text-anchor="middle" x="865.5" y="-1094.3" font-family="Helvetica,sans-Serif" font-size="14.00" fill="#e5e5e5">Learn dome code</text>
</g>
<!-- dome_code&#45;&gt;dome_access -->
<g id="edge27" class="edge">
<title>dome_code&#45;&gt;dome_access</title>
<path fill="none" stroke="#d9d9d9" d="M866.5,-1079.96C871.16,-998.26 889.37,-646.28 864.5,-540 860.82,-524.28 853.15,-508.03 845.92,-495.06"/>
<polygon fill="#d9d9d9" stroke="#d9d9d9" points="848.85,-493.13 840.8,-486.24 842.8,-496.65 848.85,-493.13"/>
</g>
<!-- dome_power&#45;&gt;gehn_age_access -->
<g id="edge29" class="edge">
<title>dome_power&#45;&gt;gehn_age_access</title>
<path fill="none" stroke="#d9d9d9" d="M1374.68,-539.93C1258.82,-505.73 999.56,-429.2 885.35,-395.49"/>
<polygon fill="#d9d9d9" stroke="#d9d9d9" points="886.32,-392.12 875.74,-392.65 884.34,-398.84 886.32,-392.12"/>
</g>
<!-- food_chain_learned&#45;&gt;tay_visited -->
<g id="edge30" class="edge">
<title>food_chain_learned&#45;&gt;tay_visited</title>
<path fill="none" stroke="#d9d9d9" d="M436.2,-539.82C406.37,-525.71 363.95,-505.64 331.89,-490.47"/>
<polygon fill="#d9d9d9" stroke="#d9d9d9" points="333.25,-487.25 322.71,-486.13 330.26,-493.57 333.25,-487.25"/>
</g>
<!-- free_catherine -->
<g id="node48" class="node">
<title>free_catherine</title>
<path fill="none" stroke="#d9d9d9" d="M104,-126C104,-126 17,-126 17,-126 11,-126 5,-120 5,-114 5,-114 5,-102 5,-102 5,-96 11,-90 17,-90 17,-90 104,-90 104,-90 110,-90 116,-96 116,-102 116,-102 116,-114 116,-114 116,-120 110,-126 104,-126"/>
<text text-anchor="middle" x="60.5" y="-104.3" font-family="Helvetica,sans-Serif" font-size="14.00" fill="#e5e5e5">Free Catherine</text>
</g>
<!-- free_catherine&#45;&gt;ending_good -->
<g id="edge31" class="edge">
<title>free_catherine&#45;&gt;ending_good</title>
<path fill="none" stroke="#d9d9d9" d="M79.27,-89.61C93.67,-76.27 113.73,-57.69 129.65,-42.94"/>
<polygon fill="#d9d9d9" stroke="#d9d9d9" points="132.14,-45.41 137.09,-36.05 127.38,-40.28 132.14,-45.41"/>
</g>
<!-- gehn_age_access&#45;&gt;gehn_trapped -->
<g id="edge39" class="edge">
<title>gehn_age_access&#45;&gt;gehn_trapped</title>
<path fill="none" stroke="#d9d9d9" d="M783.09,-372.8C658.79,-361.39 320.33,-329.06 210.5,-306 209.75,-305.84 208.99,-305.68 208.23,-305.51"/>
<polygon fill="#d9d9d9" stroke="#d9d9d9" points="208.78,-302.04 198.23,-303.05 207.11,-308.84 208.78,-302.04"/>
</g>
<!-- gehn_bothered_x3 -->
<g id="node50" class="node">
<title>gehn_bothered_x3</title>
<path fill="none" stroke="#d9d9d9" d="M866.5,-306C866.5,-306 792.5,-306 792.5,-306 786.5,-306 780.5,-300 780.5,-294 780.5,-294 780.5,-282 780.5,-282 780.5,-276 786.5,-270 792.5,-270 792.5,-270 866.5,-270 866.5,-270 872.5,-270 878.5,-276 878.5,-282 878.5,-282 878.5,-294 878.5,-294 878.5,-300 872.5,-306 866.5,-306"/>
<text text-anchor="middle" x="829.5" y="-284.3" font-family="Helvetica,sans-Serif" font-size="14.00" fill="#e5e5e5">Bother Gehn</text>
</g>
<!-- gehn_age_access&#45;&gt;gehn_bothered_x3 -->
<g id="edge38" class="edge">
<title>gehn_age_access&#45;&gt;gehn_bothered_x3</title>
<path fill="none" stroke="#d9d9d9" d="M829.5,-359.61C829.5,-347.24 829.5,-330.37 829.5,-316.22"/>
<polygon fill="#d9d9d9" stroke="#d9d9d9" points="833,-316.05 829.5,-306.05 826,-316.05 833,-316.05"/>
</g>
<!-- gehn_bothered_x3&#45;&gt;ending_player_shot -->
<g id="edge40" class="edge">
<title>gehn_bothered_x3&#45;&gt;ending_player_shot</title>
<path fill="none" stroke="#d9d9d9" d="M829.5,-269.61C829.5,-257.24 829.5,-240.37 829.5,-226.22"/>
<polygon fill="#d9d9d9" stroke="#d9d9d9" points="833,-226.05 829.5,-216.05 826,-226.05 833,-226.05"/>
</g>
<!-- gehn_journal -->
<g id="node51" class="node">
<title>gehn_journal</title>
<path fill="none" stroke="#d9d9d9" d="M910,-1206C910,-1206 823,-1206 823,-1206 817,-1206 811,-1200 811,-1194 811,-1194 811,-1182 811,-1182 811,-1176 817,-1170 823,-1170 823,-1170 910,-1170 910,-1170 916,-1170 922,-1176 922,-1182 922,-1182 922,-1194 922,-1194 922,-1200 916,-1206 910,-1206"/>
<text text-anchor="middle" x="866.5" y="-1184.3" font-family="Helvetica,sans-Serif" font-size="14.00" fill="#e5e5e5">Gehn&#39;s Journal</text>
</g>
<!-- gehn_journal&#45;&gt;dome_code -->
<g id="edge41" class="edge">
<title>gehn_journal&#45;&gt;dome_code</title>
<path fill="none" stroke="#d9d9d9" d="M866.3,-1169.61C866.16,-1157.24 865.97,-1140.37 865.81,-1126.22"/>
<polygon fill="#d9d9d9" stroke="#d9d9d9" points="869.31,-1126.01 865.69,-1116.05 862.31,-1126.09 869.31,-1126.01"/>
</g>
<!-- gehn_ringtone_learned&#45;&gt;free_catherine -->
<g id="edge42" class="edge">
<title>gehn_ringtone_learned&#45;&gt;free_catherine</title>
<path fill="none" stroke="#d9d9d9" d="M58.9,-179.61C59.18,-167.24 59.56,-150.37 59.88,-136.22"/>
<polygon fill="#d9d9d9" stroke="#d9d9d9" points="63.38,-136.13 60.11,-126.05 56.39,-135.97 63.38,-136.13"/>
</g>
<!-- gehn_workshop_access&#45;&gt;orb_fish -->
<g id="edge49" class="edge">
<title>gehn_workshop_access&#45;&gt;orb_fish</title>
<path fill="none" stroke="#d9d9d9" d="M856.58,-1259.72C840.18,-1245.82 817.1,-1225.47 798.5,-1206 679.57,-1081.53 554.53,-916.81 508.19,-854.42"/>
<polygon fill="#d9d9d9" stroke="#d9d9d9" points="510.95,-852.26 502.19,-846.31 505.32,-856.42 510.95,-852.26"/>
</g>
<!-- gehn_workshop_access&#45;&gt;gehn_journal -->
<g id="edge47" class="edge">
<title>gehn_workshop_access&#45;&gt;gehn_journal</title>
<path fill="none" stroke="#d9d9d9" d="M875.33,-1259.61C873.78,-1247.24 871.67,-1230.37 869.9,-1216.22"/>
<polygon fill="#d9d9d9" stroke="#d9d9d9" points="873.34,-1215.54 868.63,-1206.05 866.4,-1216.41 873.34,-1215.54"/>
</g>
<!-- maglev_call_understood -->
<g id="node58" class="node">
<title>maglev_call_understood</title>
<path fill="none" stroke="#d9d9d9" d="M1160,-1206C1160,-1206 1011,-1206 1011,-1206 1005,-1206 999,-1200 999,-1194 999,-1194 999,-1182 999,-1182 999,-1176 1005,-1170 1011,-1170 1011,-1170 1160,-1170 1160,-1170 1166,-1170 1172,-1176 1172,-1182 1172,-1182 1172,-1194 1172,-1194 1172,-1200 1166,-1206 1160,-1206"/>
<text text-anchor="middle" x="1085.5" y="-1184.3" font-family="Helvetica,sans-Serif" font-size="14.00" fill="#e5e5e5">Blue button calls maglev</text>
</g>
<!-- gehn_workshop_access&#45;&gt;maglev_call_understood -->
<g id="edge48" class="edge">
<title>gehn_workshop_access&#45;&gt;maglev_call_understood</title>
<path fill="none" stroke="#d9d9d9" d="M918.1,-1259.82C951.74,-1245.59 999.7,-1225.3 1035.67,-1210.08"/>
<polygon fill="#d9d9d9" stroke="#d9d9d9" points="1037.16,-1213.25 1045,-1206.13 1034.43,-1206.81 1037.16,-1213.25"/>
</g>
<!-- island_color_boiler&#45;&gt;island_colors_learned -->
<g id="edge50" class="edge">
<title>island_color_boiler&#45;&gt;island_colors_learned</title>
<path fill="none" stroke="#d9d9d9" d="M1225.74,-1259.69C1255.07,-1229.88 1309.5,-1165.6 1309.5,-1099 1309.5,-1099 1309.5,-1099 1309.5,-1007 1309.5,-882.34 1279.4,-735.6 1265.91,-676.09"/>
<polygon fill="#d9d9d9" stroke="#d9d9d9" points="1269.24,-674.98 1263.59,-666.02 1262.42,-676.55 1269.24,-674.98"/>
</g>
<!-- island_color_map -->
<g id="node55" class="node">
<title>island_color_map</title>
<path fill="none" stroke="#d9d9d9" d="M1259,-936C1259,-936 1080,-936 1080,-936 1074,-936 1068,-930 1068,-924 1068,-924 1068,-912 1068,-912 1068,-906 1074,-900 1080,-900 1080,-900 1259,-900 1259,-900 1265,-900 1271,-906 1271,-912 1271,-912 1271,-924 1271,-924 1271,-930 1265,-936 1259,-936"/>
<text text-anchor="middle" x="1169.5" y="-914.3" font-family="Helvetica,sans-Serif" font-size="14.00" fill="#e5e5e5">find map island dome symbol</text>
</g>
<!-- island_color_map&#45;&gt;island_colors_learned -->
<g id="edge51" class="edge">
<title>island_color_map&#45;&gt;island_colors_learned</title>
<path fill="none" stroke="#d9d9d9" d="M1180.21,-899.75C1188.56,-885.7 1199.98,-865.13 1207.5,-846 1230.64,-787.18 1246.81,-714.48 1254.47,-675.95"/>
<polygon fill="#d9d9d9" stroke="#d9d9d9" points="1257.92,-676.51 1256.4,-666.02 1251.05,-675.17 1257.92,-676.51"/>
</g>
<!-- island_color_temple&#45;&gt;island_colors_learned -->
<g id="edge52" class="edge">
<title>island_color_temple&#45;&gt;island_colors_learned</title>
<path fill="none" stroke="#d9d9d9" d="M1398.73,-719.82C1371.11,-705.77 1331.88,-685.82 1302.1,-670.67"/>
<polygon fill="#d9d9d9" stroke="#d9d9d9" points="1303.68,-667.55 1293.18,-666.13 1300.51,-673.79 1303.68,-667.55"/>
</g>
<!-- island_color_village -->
<g id="node57" class="node">
<title>island_color_village</title>
<path fill="none" stroke="#d9d9d9" d="M1132.5,-756C1132.5,-756 940.5,-756 940.5,-756 934.5,-756 928.5,-750 928.5,-744 928.5,-744 928.5,-732 928.5,-732 928.5,-726 934.5,-720 940.5,-720 940.5,-720 1132.5,-720 1132.5,-720 1138.5,-720 1144.5,-726 1144.5,-732 1144.5,-732 1144.5,-744 1144.5,-744 1144.5,-750 1138.5,-756 1132.5,-756"/>
<text text-anchor="middle" x="1036.5" y="-734.3" font-family="Helvetica,sans-Serif" font-size="14.00" fill="#e5e5e5">find village island dome symbol</text>
</g>
<!-- island_color_village&#45;&gt;island_colors_learned -->
<g id="edge53" class="edge">
<title>island_color_village&#45;&gt;island_colors_learned</title>
<path fill="none" stroke="#d9d9d9" d="M1079.76,-719.93C1116.07,-705.6 1168.08,-685.08 1206.81,-669.79"/>
<polygon fill="#d9d9d9" stroke="#d9d9d9" points="1208.34,-672.95 1216.36,-666.02 1205.77,-666.44 1208.34,-672.95"/>
</g>
<!-- map_island_explored -->
<g id="node60" class="node">
<title>map_island_explored</title>
<path fill="none" stroke="#d9d9d9" d="M1183.5,-1116C1183.5,-1116 1067.5,-1116 1067.5,-1116 1061.5,-1116 1055.5,-1110 1055.5,-1104 1055.5,-1104 1055.5,-1092 1055.5,-1092 1055.5,-1086 1061.5,-1080 1067.5,-1080 1067.5,-1080 1183.5,-1080 1183.5,-1080 1189.5,-1080 1195.5,-1086 1195.5,-1092 1195.5,-1092 1195.5,-1104 1195.5,-1104 1195.5,-1110 1189.5,-1116 1183.5,-1116"/>
<text text-anchor="middle" x="1125.5" y="-1094.3" font-family="Helvetica,sans-Serif" font-size="14.00" fill="#e5e5e5">Explore Map Island</text>
</g>
<!-- maglev_call_understood&#45;&gt;map_island_explored -->
<g id="edge55" class="edge">
<title>maglev_call_understood&#45;&gt;map_island_explored</title>
<path fill="none" stroke="#d9d9d9" d="M1093.4,-1169.61C1099.14,-1157 1107,-1139.71 1113.5,-1125.39"/>
<polygon fill="#d9d9d9" stroke="#d9d9d9" points="1116.8,-1126.6 1117.75,-1116.05 1110.43,-1123.71 1116.8,-1126.6"/>
</g>
<!-- map_island_basement_access&#45;&gt;orb_fish -->
<g id="edge3" class="edge">
<title>map_island_basement_access&#45;&gt;orb_fish</title>
<g id="a_edge3"><a xlink:title="optionally see the fish shape">
<path fill="none" stroke="#d9d9d9" stroke-dasharray="5,2" d="M889.72,-906.6C805.48,-894.58 666.55,-872.94 548.5,-846 547.59,-845.79 546.67,-845.58 545.75,-845.36"/>
<polygon fill="#d9d9d9" stroke="#d9d9d9" points="546.3,-841.89 535.75,-842.86 544.6,-848.68 546.3,-841.89"/>
</a>
</g>
</g>
<!-- map_island_basement_access&#45;&gt;dni_colors_learned -->
<g id="edge56" class="edge">
<title>map_island_basement_access&#45;&gt;dni_colors_learned</title>
<path fill="none" stroke="#d9d9d9" d="M999.1,-899.82C1025.65,-885.83 1063.31,-865.99 1092.01,-850.86"/>
<polygon fill="#d9d9d9" stroke="#d9d9d9" points="1093.77,-853.89 1100.99,-846.13 1090.51,-847.7 1093.77,-853.89"/>
</g>
<!-- village_island_catwalks -->
<g id="node69" class="node">
<title>village_island_catwalks</title>
<path fill="none" stroke="#d9d9d9" d="M1035,-846C1035,-846 902,-846 902,-846 896,-846 890,-840 890,-834 890,-834 890,-822 890,-822 890,-816 896,-810 902,-810 902,-810 1035,-810 1035,-810 1041,-810 1047,-816 1047,-822 1047,-822 1047,-834 1047,-834 1047,-840 1041,-846 1035,-846"/>
<text text-anchor="middle" x="968.5" y="-824.3" font-family="Helvetica,sans-Serif" font-size="14.00" fill="#e5e5e5">catwalks above forest</text>
</g>
<!-- map_island_basement_access&#45;&gt;village_island_catwalks -->
<g id="edge57" class="edge">
<title>map_island_basement_access&#45;&gt;village_island_catwalks</title>
<path fill="none" stroke="#d9d9d9" d="M966.9,-899.61C967.18,-887.24 967.56,-870.37 967.88,-856.22"/>
<polygon fill="#d9d9d9" stroke="#d9d9d9" points="971.38,-856.13 968.11,-846.05 964.39,-855.97 971.38,-856.13"/>
</g>
<!-- map_island_explored&#45;&gt;dome_coordinates_learned -->
<g id="edge58" class="edge">
<title>map_island_explored&#45;&gt;dome_coordinates_learned</title>
<path fill="none" stroke="#d9d9d9" d="M1142.9,-1079.93C1172.38,-1050.88 1233.75,-989.74 1283.5,-936 1334,-881.45 1331.66,-851.26 1393.5,-810 1456.28,-768.11 1503.45,-811.59 1554.5,-756 1574.35,-734.39 1579.74,-700.22 1580.88,-676.33"/>
<polygon fill="#d9d9d9" stroke="#d9d9d9" points="1584.38,-676.25 1581.14,-666.16 1577.38,-676.07 1584.38,-676.25"/>
</g>
<!-- map_island_explored&#45;&gt;map_island_maglev_rotated -->
<g id="edge60" class="edge">
<title>map_island_explored&#45;&gt;map_island_maglev_rotated</title>
<path fill="none" stroke="#d9d9d9" d="M1101.88,-1079.82C1083.14,-1066.2 1056.77,-1047.02 1036.2,-1032.05"/>
<polygon fill="#d9d9d9" stroke="#d9d9d9" points="1038.2,-1029.18 1028.06,-1026.13 1034.09,-1034.85 1038.2,-1029.18"/>
</g>
<!-- map_island_explored&#45;&gt;island_color_map -->
<g id="edge59" class="edge">
<title>map_island_explored&#45;&gt;island_color_map</title>
<path fill="none" stroke="#d9d9d9" d="M1129.72,-1079.93C1137.37,-1048.97 1153.61,-983.3 1162.79,-946.13"/>
<polygon fill="#d9d9d9" stroke="#d9d9d9" points="1166.29,-946.56 1165.29,-936.02 1159.5,-944.88 1166.29,-946.56"/>
</g>
<!-- rotating_room_partial&#45;&gt;rotating_room_complete -->
<g id="edge69" class="edge">
<title>rotating_room_partial&#45;&gt;rotating_room_complete</title>
<path fill="none" stroke="#d9d9d9" d="M1705.5,-1259.61C1705.5,-1247.24 1705.5,-1230.37 1705.5,-1216.22"/>
<polygon fill="#d9d9d9" stroke="#d9d9d9" points="1709,-1216.05 1705.5,-1206.05 1702,-1216.05 1709,-1216.05"/>
</g>
<!-- telescope_power -->
<g id="node67" class="node">
<title>telescope_power</title>
<path fill="none" stroke="#d9d9d9" d="M1749,-486C1749,-486 1642,-486 1642,-486 1636,-486 1630,-480 1630,-474 1630,-474 1630,-462 1630,-462 1630,-456 1636,-450 1642,-450 1642,-450 1749,-450 1749,-450 1755,-450 1761,-456 1761,-462 1761,-462 1761,-474 1761,-474 1761,-480 1755,-486 1749,-486"/>
<text text-anchor="middle" x="1695.5" y="-464.3" font-family="Helvetica,sans-Serif" font-size="14.00" fill="#e5e5e5">Power Telescope</text>
</g>
<!-- rotating_room_partial&#45;&gt;telescope_power -->
<g id="edge70" class="edge">
<title>rotating_room_partial&#45;&gt;telescope_power</title>
<path fill="none" stroke="#d9d9d9" d="M1777.83,-1268.46C1871.39,-1252.92 2022.5,-1210.56 2022.5,-1099 2022.5,-1099 2022.5,-1099 2022.5,-647 2022.5,-533.23 1867.9,-491.76 1771.31,-476.95"/>
<polygon fill="#d9d9d9" stroke="#d9d9d9" points="1771.68,-473.47 1761.28,-475.48 1770.66,-480.39 1771.68,-473.47"/>
</g>
<!-- signal_atrus&#45;&gt;ending_atrus_shot -->
<g id="edge72" class="edge">
<title>signal_atrus&#45;&gt;ending_atrus_shot</title>
<path fill="none" stroke="#d9d9d9" d="M442.61,-89.61C447.77,-77 454.85,-59.71 460.7,-45.39"/>
<polygon fill="#d9d9d9" stroke="#d9d9d9" points="463.98,-46.63 464.52,-36.05 457.5,-43.98 463.98,-46.63"/>
</g>
<!-- signal_atrus&#45;&gt;ending_good -->
<g id="edge73" class="edge">
<title>signal_atrus&#45;&gt;ending_good</title>
<path fill="none" stroke="#d9d9d9" d="M388.32,-92.17C340.88,-77.26 267.56,-54.22 215.9,-37.98"/>
<polygon fill="#d9d9d9" stroke="#d9d9d9" points="216.78,-34.59 206.19,-34.93 214.68,-41.27 216.78,-34.59"/>
</g>
<!-- signal_atrus&#45;&gt;ending_no_wife -->
<g id="edge74" class="edge">
<title>signal_atrus&#45;&gt;ending_no_wife</title>
<path fill="none" stroke="#d9d9d9" d="M412.08,-89.82C393.49,-76.2 367.34,-57.02 346.93,-42.05"/>
<polygon fill="#d9d9d9" stroke="#d9d9d9" points="349,-39.22 338.86,-36.13 344.86,-44.87 349,-39.22"/>
</g>
<!-- tay_visited&#45;&gt;ending_trapped -->
<g id="edge82" class="edge">
<title>tay_visited&#45;&gt;ending_trapped</title>
<path fill="none" stroke="#d9d9d9" d="M321.24,-449.82C349.67,-435.77 390.03,-415.82 420.67,-400.67"/>
<polygon fill="#d9d9d9" stroke="#d9d9d9" points="422.43,-403.7 429.84,-396.13 419.33,-397.43 422.43,-403.7"/>
</g>
<!-- tay_visited&#45;&gt;gehn_trapped -->
<g id="edge83" class="edge">
<title>tay_visited&#45;&gt;gehn_trapped</title>
<path fill="none" stroke="#d9d9d9" d="M216.34,-449.9C188.35,-439.26 158.91,-422.39 142.5,-396 127.44,-371.78 134.92,-338.46 143.44,-315.47"/>
<polygon fill="#d9d9d9" stroke="#d9d9d9" points="146.77,-316.59 147.23,-306.01 140.26,-313.99 146.77,-316.59"/>
</g>
<!-- tay_visited&#45;&gt;catherine_journal -->
<g id="edge81" class="edge">
<title>tay_visited&#45;&gt;catherine_journal</title>
<path fill="none" stroke="#d9d9d9" d="M274.25,-449.61C265.19,-436.76 252.71,-419.04 242.51,-404.57"/>
<polygon fill="#d9d9d9" stroke="#d9d9d9" points="245.13,-402.21 236.51,-396.05 239.41,-406.24 245.13,-402.21"/>
</g>
<!-- telescope_code&#45;&gt;telescope_hatch_open -->
<g id="edge84" class="edge">
<title>telescope_code&#45;&gt;telescope_hatch_open</title>
<path fill="none" stroke="#d9d9d9" d="M490.5,-269.61C490.5,-257.24 490.5,-240.37 490.5,-226.22"/>
<polygon fill="#d9d9d9" stroke="#d9d9d9" points="494,-226.05 490.5,-216.05 487,-226.05 494,-226.05"/>
</g>
<!-- telescope_hatch_brute_forced&#45;&gt;ending_impossible -->
<g id="edge85" class="edge">
<title>telescope_hatch_brute_forced&#45;&gt;ending_impossible</title>
<path fill="none" stroke="#d9d9d9" d="M686.5,-1799.61C686.5,-1787.24 686.5,-1770.37 686.5,-1756.22"/>
<polygon fill="#d9d9d9" stroke="#d9d9d9" points="690,-1756.05 686.5,-1746.05 683,-1756.05 690,-1756.05"/>
</g>
<!-- telescope_hatch_open&#45;&gt;signal_atrus -->
<g id="edge86" class="edge">
<title>telescope_hatch_open&#45;&gt;signal_atrus</title>
<path fill="none" stroke="#d9d9d9" d="M479.63,-179.61C471.6,-166.76 460.52,-149.04 451.48,-134.57"/>
<polygon fill="#d9d9d9" stroke="#d9d9d9" points="454.42,-132.68 446.16,-126.05 448.49,-136.39 454.42,-132.68"/>
</g>
<!-- telescope_power&#45;&gt;signal_atrus -->
<g id="edge87" class="edge">
<title>telescope_power&#45;&gt;signal_atrus</title>
<path fill="none" stroke="#d9d9d9" d="M1656.33,-449.93C1541.55,-400.57 1195.16,-256.37 894.5,-180 752.23,-143.86 580.2,-123.22 492.67,-114.3"/>
<polygon fill="#d9d9d9" stroke="#d9d9d9" points="492.98,-110.82 482.68,-113.3 492.28,-117.78 492.98,-110.82"/>
</g>
<!-- village_island_explored -->
<g id="node72" class="node">
<title>village_island_explored</title>
<path fill="none" stroke="#d9d9d9" d="M550,-1746C550,-1746 419,-1746 419,-1746 413,-1746 407,-1740 407,-1734 407,-1734 407,-1722 407,-1722 407,-1716 413,-1710 419,-1710 419,-1710 550,-1710 550,-1710 556,-1710 562,-1716 562,-1722 562,-1722 562,-1734 562,-1734 562,-1740 556,-1746 550,-1746"/>
<text text-anchor="middle" x="484.5" y="-1724.3" font-family="Helvetica,sans-Serif" font-size="14.00" fill="#e5e5e5">Explore Village Island</text>
</g>
<!-- temple_door_opened&#45;&gt;village_island_explored -->
<g id="edge89" class="edge">
<title>temple_door_opened&#45;&gt;village_island_explored</title>
<path fill="none" stroke="#d9d9d9" d="M484.5,-1799.61C484.5,-1787.24 484.5,-1770.37 484.5,-1756.22"/>
<polygon fill="#d9d9d9" stroke="#d9d9d9" points="488,-1756.05 484.5,-1746.05 481,-1756.05 488,-1756.05"/>
</g>
<!-- village_island_catwalks&#45;&gt;island_color_village -->
<g id="edge91" class="edge">
<title>village_island_catwalks&#45;&gt;island_color_village</title>
<path fill="none" stroke="#d9d9d9" d="M981.93,-809.61C991.96,-796.63 1005.82,-778.7 1017.06,-764.16"/>
<polygon fill="#d9d9d9" stroke="#d9d9d9" points="1019.98,-766.1 1023.32,-756.05 1014.44,-761.82 1019.98,-766.1"/>
</g>
<!-- village_island_execution_platform_floor_closed -->
<g id="node71" class="node">
<title>village_island_execution_platform_floor_closed</title>
<path fill="none" stroke="#d9d9d9" d="M840,-756C840,-756 697,-756 697,-756 691,-756 685,-750 685,-744 685,-744 685,-732 685,-732 685,-726 691,-720 697,-720 697,-720 840,-720 840,-720 846,-720 852,-726 852,-732 852,-732 852,-744 852,-744 852,-750 846,-756 840,-756"/>
<text text-anchor="middle" x="768.5" y="-734.3" font-family="Helvetica,sans-Serif" font-size="14.00" fill="#e5e5e5">Execution platform floor</text>
</g>
<!-- village_island_catwalks&#45;&gt;village_island_execution_platform_floor_closed -->
<g id="edge92" class="edge">
<title>village_island_catwalks&#45;&gt;village_island_execution_platform_floor_closed</title>
<path fill="none" stroke="#d9d9d9" d="M929.46,-809.82C897.25,-795.65 851.39,-775.47 816.86,-760.28"/>
<polygon fill="#d9d9d9" stroke="#d9d9d9" points="818,-756.96 807.44,-756.13 815.18,-763.36 818,-756.96"/>
</g>
<!-- village_island_jail -->
<g id="node73" class="node">
<title>village_island_jail</title>
<path fill="none" stroke="#d9d9d9" d="M478.5,-666C478.5,-666 402.5,-666 402.5,-666 396.5,-666 390.5,-660 390.5,-654 390.5,-654 390.5,-642 390.5,-642 390.5,-636 396.5,-630 402.5,-630 402.5,-630 478.5,-630 478.5,-630 484.5,-630 490.5,-636 490.5,-642 490.5,-642 490.5,-654 490.5,-654 490.5,-660 484.5,-666 478.5,-666"/>
<text text-anchor="middle" x="440.5" y="-644.3" font-family="Helvetica,sans-Serif" font-size="14.00" fill="#e5e5e5">Gay baby jail</text>
</g>
<!-- village_island_execution_platform_access&#45;&gt;village_island_jail -->
<g id="edge93" class="edge">
<title>village_island_execution_platform_access&#45;&gt;village_island_jail</title>
<path fill="none" stroke="#d9d9d9" d="M440.5,-719.61C440.5,-707.24 440.5,-690.37 440.5,-676.22"/>
<polygon fill="#d9d9d9" stroke="#d9d9d9" points="444,-676.05 440.5,-666.05 437,-676.05 444,-676.05"/>
</g>
<!-- village_island_execution_platform_floor_closed&#45;&gt;village_island_jail -->
<g id="edge94" class="edge">
<title>village_island_execution_platform_floor_closed&#45;&gt;village_island_jail</title>
<path fill="none" stroke="#d9d9d9" d="M704.87,-719.93C645.7,-704.05 558.2,-680.58 500.29,-665.04"/>
<polygon fill="#d9d9d9" stroke="#d9d9d9" points="501.12,-661.64 490.55,-662.43 499.3,-668.4 501.12,-661.64"/>
</g>
<!-- village_island_explored&#45;&gt;orb_whark -->
<g id="edge99" class="edge">
<title>village_island_explored&#45;&gt;orb_whark</title>
<path fill="none" stroke="#d9d9d9" d="M454.44,-1709.82C430.17,-1695.95 395.83,-1676.33 369.45,-1661.26"/>
<polygon fill="#d9d9d9" stroke="#d9d9d9" points="370.9,-1658.06 360.48,-1656.13 367.43,-1664.13 370.9,-1658.06"/>
</g>
<!-- village_island_explored&#45;&gt;orb_beetle -->
<g id="edge96" class="edge">
<title>village_island_explored&#45;&gt;orb_beetle</title>
<path fill="none" stroke="#d9d9d9" d="M406.67,-1725.08C338.43,-1719.99 239.21,-1704 167.5,-1656 137.71,-1636.06 116.12,-1599.97 103.96,-1575.26"/>
<polygon fill="#d9d9d9" stroke="#d9d9d9" points="107.06,-1573.63 99.62,-1566.09 100.73,-1576.62 107.06,-1573.63"/>
</g>
<!-- village_island_explored&#45;&gt;orb_frog -->
<g id="edge97" class="edge">
<title>village_island_explored&#45;&gt;orb_frog</title>
<path fill="none" stroke="#d9d9d9" d="M406.98,-1715.08C318.69,-1696.59 186.5,-1651.75 186.5,-1549 186.5,-1549 186.5,-1549 186.5,-1277 186.5,-1223.6 192.39,-1161.42 196.24,-1126.49"/>
<polygon fill="#d9d9d9" stroke="#d9d9d9" points="199.77,-1126.48 197.41,-1116.15 192.81,-1125.7 199.77,-1126.48"/>
</g>
<!-- village_island_explored&#45;&gt;orb_sunner -->
<g id="edge98" class="edge">
<title>village_island_explored&#45;&gt;orb_sunner</title>
<path fill="none" stroke="#d9d9d9" d="M514.19,-1709.89C533.34,-1697.34 557.26,-1678.6 571.5,-1656 586.81,-1631.71 593.11,-1599.08 595.69,-1576.27"/>
<polygon fill="#d9d9d9" stroke="#d9d9d9" points="599.18,-1576.53 596.67,-1566.24 592.22,-1575.86 599.18,-1576.53"/>
</g>
<!-- village_island_explored&#45;&gt;boiler_solved -->
<g id="edge95" class="edge">
<title>village_island_explored&#45;&gt;boiler_solved</title>
<path fill="none" stroke="#d9d9d9" d="M484.5,-1709.61C484.5,-1697.24 484.5,-1680.37 484.5,-1666.22"/>
<polygon fill="#d9d9d9" stroke="#d9d9d9" points="488,-1666.05 484.5,-1656.05 481,-1666.05 488,-1666.05"/>
</g>
<!-- village_island_explored&#45;&gt;submarine_found -->
<g id="edge100" class="edge">
<title>village_island_explored&#45;&gt;submarine_found</title>
<path fill="none" stroke="#d9d9d9" d="M525.1,-1709.82C558.74,-1695.59 606.7,-1675.3 642.67,-1660.08"/>
<polygon fill="#d9d9d9" stroke="#d9d9d9" points="644.16,-1663.25 652,-1656.13 641.43,-1656.81 644.16,-1663.25"/>
</g>
<!-- village_island_jail&#45;&gt;village_island_animal_room_access -->
<g id="edge101" class="edge">
<title>village_island_jail&#45;&gt;village_island_animal_room_access</title>
<path fill="none" stroke="#d9d9d9" d="M410.44,-629.82C386.17,-615.95 351.83,-596.33 325.45,-581.26"/>
<polygon fill="#d9d9d9" stroke="#d9d9d9" points="326.9,-578.06 316.48,-576.13 323.43,-584.13 326.9,-578.06"/>
</g>
<!-- village_island_school_access&#45;&gt;dni_numbers_1_10 -->
<g id="edge102" class="edge">
<title>village_island_school_access&#45;&gt;dni_numbers_1_10</title>
<path fill="none" stroke="#d9d9d9" d="M611.45,-719.61C614.29,-707.12 618.17,-690.04 621.41,-675.8"/>
<polygon fill="#d9d9d9" stroke="#d9d9d9" points="624.82,-676.58 623.62,-666.05 618,-675.03 624.82,-676.58"/>
</g>
</g>
</svg>
