<?xml version="1.0" encoding="UTF-8" standalone="no"?>
<!DOCTYPE svg PUBLIC "-//W3C//DTD SVG 1.1//EN"
 "http://www.w3.org/Graphics/SVG/1.1/DTD/svg11.dtd">
<!-- Generated by graphviz version 10.0.1 (20240210.2158)
 -->
<!-- Title: narpg Pages: 1 -->
<svg width="1767pt" height="3813pt"
 viewBox="0.00 0.00 1766.75 3813.00" xmlns="http://www.w3.org/2000/svg" xmlns:xlink="http://www.w3.org/1999/xlink">
<g id="graph0" class="graph" transform="scale(1 1) rotate(0) translate(4 3809)">
<title>narpg</title>
<polygon fill="#1f1f1f" stroke="none" points="-4,4 -4,-3809 1762.75,-3809 1762.75,4 -4,4"/>
<g id="clust2" class="cluster">
<title>cluster_martial</title>
<polygon fill="#1f1f1f" stroke="red" points="108.38,-8 108.38,-1450 283.62,-1450 283.62,-8 108.38,-8"/>
<text text-anchor="middle" x="196" y="-1432.7" font-family="Helvetica,sans-Serif" font-weight="bold" font-size="14.00" fill="red">MARTIAL</text>
</g>
<g id="clust3" class="cluster">
<title>cluster_arcane</title>
<polygon fill="#1f1f1f" stroke="red" points="128.62,-3287 128.62,-3395 812.62,-3395 812.62,-3287 128.62,-3287"/>
<text text-anchor="middle" x="470.62" y="-3377.7" font-family="Helvetica,sans-Serif" font-weight="bold" font-size="14.00" fill="red">PURE ARCANA</text>
</g>
<g id="clust4" class="cluster">
<title>cluster_physical</title>
<polygon fill="#1f1f1f" stroke="red" points="90.38,-3460 90.38,-3797 589,-3797 589,-3460 90.38,-3460"/>
<text text-anchor="middle" x="339.69" y="-3779.7" font-family="Helvetica,sans-Serif" font-weight="bold" font-size="14.00" fill="red">PHYSICAL AUGMENTATION</text>
</g>
<g id="clust7" class="cluster">
<title>cluster_fire</title>
<polygon fill="#1f1f1f" stroke="red" points="396.88,-2962 396.88,-3163 1750.75,-3163 1750.75,-2962 396.88,-2962"/>
<text text-anchor="middle" x="1073.81" y="-3145.7" font-family="Helvetica,sans-Serif" font-weight="bold" font-size="14.00" fill="red">PYROMANCY</text>
</g>
<g id="clust10" class="cluster">
<title>cluster_electric</title>
<polygon fill="#1f1f1f" stroke="red" points="392.38,-2618 392.38,-2760 1043,-2760 1043,-2618 392.38,-2618"/>
<text text-anchor="middle" x="717.69" y="-2742.7" font-family="Helvetica,sans-Serif" font-weight="bold" font-size="14.00" fill="red">ELECTROMANCY</text>
</g>
<g id="clust12" class="cluster">
<title>cluster_ice</title>
<polygon fill="#1f1f1f" stroke="red" points="382.62,-2768 382.62,-2910 1023.12,-2910 1023.12,-2768 382.62,-2768"/>
<text text-anchor="middle" x="702.88" y="-2892.7" font-family="Helvetica,sans-Serif" font-weight="bold" font-size="14.00" fill="red">CRYOMANCY</text>
</g>
<g id="clust14" class="cluster">
<title>cluster_repulsion</title>
<polygon fill="#1f1f1f" stroke="red" points="133.5,-2188 133.5,-2395 825.75,-2395 825.75,-2188 133.5,-2188"/>
<text text-anchor="middle" x="479.62" y="-2377.7" font-family="Helvetica,sans-Serif" font-weight="bold" font-size="14.00" fill="red">REPULSION</text>
</g>
<g id="clust16" class="cluster">
<title>cluster_conjuration</title>
<polygon fill="#1f1f1f" stroke="red" points="105.75,-2038 105.75,-2180 548.88,-2180 548.88,-2038 105.75,-2038"/>
<text text-anchor="middle" x="327.31" y="-2162.7" font-family="Helvetica,sans-Serif" font-weight="bold" font-size="14.00" fill="red">CONJURATION</text>
</g>
<g id="clust18" class="cluster">
<title>cluster_illusion</title>
<polygon fill="#1f1f1f" stroke="red" points="118.88,-1823 118.88,-2030 559.75,-2030 559.75,-1823 118.88,-1823"/>
<text text-anchor="middle" x="339.31" y="-2012.7" font-family="Helvetica,sans-Serif" font-weight="bold" font-size="14.00" fill="red">PRESTIDIGITATION</text>
</g>
<g id="clust20" class="cluster">
<title>cluster_bio</title>
<polygon fill="#1f1f1f" stroke="red" points="122.62,-1673 122.62,-1815 550,-1815 550,-1673 122.62,-1673"/>
<text text-anchor="middle" x="336.31" y="-1797.7" font-family="Helvetica,sans-Serif" font-weight="bold" font-size="14.00" fill="red">BIOLOGICAL TRANSMUTATION</text>
</g>
<g id="clust22" class="cluster">
<title>cluster_nature</title>
<polygon fill="#1f1f1f" stroke="red" points="377,-2403 377,-2610 835.12,-2610 835.12,-2403 377,-2403"/>
<text text-anchor="middle" x="606.06" y="-2592.7" font-family="Helvetica,sans-Serif" font-weight="bold" font-size="14.00" fill="red">NATURAL TRANSMUTATION</text>
</g>
<g id="clust23" class="cluster">
<title>cluster_warp</title>
<polygon fill="#1f1f1f" stroke="red" points="131.25,-1458 131.25,-1665 817.12,-1665 817.12,-1458 131.25,-1458"/>
<text text-anchor="middle" x="474.19" y="-1647.7" font-family="Helvetica,sans-Serif" font-weight="bold" font-size="14.00" fill="red">WARP</text>
</g>
<!-- strike -->
<g id="node1" class="node">
<title>strike</title>
<path fill="none" stroke="#595959" d="M50.75,-929C50.75,-929 20.75,-929 20.75,-929 14.75,-929 8.75,-923 8.75,-917 8.75,-917 8.75,-905 8.75,-905 8.75,-899 14.75,-893 20.75,-893 20.75,-893 50.75,-893 50.75,-893 56.75,-893 62.75,-899 62.75,-905 62.75,-905 62.75,-917 62.75,-917 62.75,-923 56.75,-929 50.75,-929"/>
<text text-anchor="middle" x="35.75" y="-905.95" font-family="Helvetica,sans-Serif" font-size="14.00" fill="#a6a6a6">Strike</text>
</g>
<!-- flashkick -->
<g id="node6" class="node">
<title>flashkick</title>
<path fill="none" stroke="#d9d9d9" d="M235.88,-442C235.88,-442 156.12,-442 156.12,-442 150.12,-442 144.12,-436 144.12,-430 144.12,-430 144.12,-418 144.12,-418 144.12,-412 150.12,-406 156.12,-406 156.12,-406 235.88,-406 235.88,-406 241.88,-406 247.88,-412 247.88,-418 247.88,-418 247.88,-430 247.88,-430 247.88,-436 241.88,-442 235.88,-442"/>
<text text-anchor="middle" x="196" y="-418.95" font-family="Helvetica,sans-Serif" font-size="14.00" fill="#e5e5e5">Flashkick (20)</text>
</g>
<!-- strike&#45;&gt;flashkick -->
<g id="edge1" class="edge">
<title>strike&#45;&gt;flashkick</title>
<path fill="none" stroke="#d9d9d9" d="M36.36,-892.69C35.13,-816.44 34.2,-524.87 90.38,-457 101.03,-444.13 116.68,-436.2 132.64,-431.34"/>
<polygon fill="#d9d9d9" stroke="#d9d9d9" points="133.43,-434.75 142.21,-428.83 131.65,-427.98 133.43,-434.75"/>
</g>
<!-- dazzling_blow -->
<g id="node7" class="node">
<title>dazzling_blow</title>
<path fill="none" stroke="#d9d9d9" d="M250.5,-507C250.5,-507 141.5,-507 141.5,-507 135.5,-507 129.5,-501 129.5,-495 129.5,-495 129.5,-483 129.5,-483 129.5,-477 135.5,-471 141.5,-471 141.5,-471 250.5,-471 250.5,-471 256.5,-471 262.5,-477 262.5,-483 262.5,-483 262.5,-495 262.5,-495 262.5,-501 256.5,-507 250.5,-507"/>
<text text-anchor="middle" x="196" y="-483.95" font-family="Helvetica,sans-Serif" font-size="14.00" fill="#e5e5e5">Dazzling Blow (20)</text>
</g>
<!-- strike&#45;&gt;dazzling_blow -->
<g id="edge2" class="edge">
<title>strike&#45;&gt;dazzling_blow</title>
<path fill="none" stroke="#d9d9d9" d="M36.77,-892.55C37.21,-823.17 42.22,-579.04 90.38,-522 97.92,-513.07 107.86,-506.52 118.61,-501.73"/>
<polygon fill="#d9d9d9" stroke="#d9d9d9" points="119.65,-505.08 127.71,-498.2 117.12,-498.55 119.65,-505.08"/>
</g>
<!-- expose -->
<g id="node8" class="node">
<title>expose</title>
<path fill="none" stroke="#d9d9d9" d="M231,-572C231,-572 161,-572 161,-572 155,-572 149,-566 149,-560 149,-560 149,-548 149,-548 149,-542 155,-536 161,-536 161,-536 231,-536 231,-536 237,-536 243,-542 243,-548 243,-548 243,-560 243,-560 243,-566 237,-572 231,-572"/>
<text text-anchor="middle" x="196" y="-548.95" font-family="Helvetica,sans-Serif" font-size="14.00" fill="#e5e5e5">Expose (20)</text>
</g>
<!-- strike&#45;&gt;expose -->
<g id="edge3" class="edge">
<title>strike&#45;&gt;expose</title>
<path fill="none" stroke="#d9d9d9" d="M37.33,-892.72C39.64,-831.28 50.11,-633.4 90.38,-587 102.42,-573.12 120.24,-565.02 137.78,-560.3"/>
<polygon fill="#d9d9d9" stroke="#d9d9d9" points="138.19,-563.8 147.14,-558.13 136.6,-556.98 138.19,-563.8"/>
</g>
<!-- gaping_wounds -->
<g id="node9" class="node">
<title>gaping_wounds</title>
<path fill="none" stroke="#d9d9d9" d="M258,-637C258,-637 134,-637 134,-637 128,-637 122,-631 122,-625 122,-625 122,-613 122,-613 122,-607 128,-601 134,-601 134,-601 258,-601 258,-601 264,-601 270,-607 270,-613 270,-613 270,-625 270,-625 270,-631 264,-637 258,-637"/>
<text text-anchor="middle" x="196" y="-613.95" font-family="Helvetica,sans-Serif" font-size="14.00" fill="#e5e5e5">Gaping Wounds (20)</text>
</g>
<!-- strike&#45;&gt;gaping_wounds -->
<g id="edge4" class="edge">
<title>strike&#45;&gt;gaping_wounds</title>
<path fill="none" stroke="#d9d9d9" d="M38.16,-892.76C42.6,-839.86 57.98,-687.86 90.38,-652 96.3,-645.44 103.52,-640.18 111.36,-635.95"/>
<polygon fill="#d9d9d9" stroke="#d9d9d9" points="112.65,-639.21 120.21,-631.78 109.67,-632.88 112.65,-639.21"/>
</g>
<!-- increscent_strike -->
<g id="node10" class="node">
<title>increscent_strike</title>
<path fill="none" stroke="#d9d9d9" d="M259.88,-702C259.88,-702 132.12,-702 132.12,-702 126.12,-702 120.12,-696 120.12,-690 120.12,-690 120.12,-678 120.12,-678 120.12,-672 126.12,-666 132.12,-666 132.12,-666 259.88,-666 259.88,-666 265.88,-666 271.88,-672 271.88,-678 271.88,-678 271.88,-690 271.88,-690 271.88,-696 265.88,-702 259.88,-702"/>
<text text-anchor="middle" x="196" y="-678.95" font-family="Helvetica,sans-Serif" font-size="14.00" fill="#e5e5e5">Increscent Strike (20)</text>
</g>
<!-- strike&#45;&gt;increscent_strike -->
<g id="edge5" class="edge">
<title>strike&#45;&gt;increscent_strike</title>
<path fill="none" stroke="#d9d9d9" d="M36.37,-892.73C36.59,-854.72 42.58,-766.54 90.38,-717 95.97,-711.2 102.56,-706.42 109.68,-702.48"/>
<polygon fill="#d9d9d9" stroke="#d9d9d9" points="110.86,-705.8 118.31,-698.27 107.79,-699.51 110.86,-705.8"/>
</g>
<!-- shielding_blow -->
<g id="node12" class="node">
<title>shielding_blow</title>
<path fill="none" stroke="#d9d9d9" d="M253.12,-767C253.12,-767 138.88,-767 138.88,-767 132.88,-767 126.88,-761 126.88,-755 126.88,-755 126.88,-743 126.88,-743 126.88,-737 132.88,-731 138.88,-731 138.88,-731 253.12,-731 253.12,-731 259.12,-731 265.12,-737 265.12,-743 265.12,-743 265.12,-755 265.12,-755 265.12,-761 259.12,-767 253.12,-767"/>
<text text-anchor="middle" x="196" y="-743.95" font-family="Helvetica,sans-Serif" font-size="14.00" fill="#e5e5e5">Shielding Blow (20)</text>
</g>
<!-- strike&#45;&gt;shielding_blow -->
<g id="edge7" class="edge">
<title>strike&#45;&gt;shielding_blow</title>
<path fill="none" stroke="#d9d9d9" d="M39.36,-892.82C44.3,-865.01 57.63,-811.97 90.38,-782 97.86,-775.15 106.75,-769.73 116.15,-765.43"/>
<polygon fill="#d9d9d9" stroke="#d9d9d9" points="117.17,-768.79 125.1,-761.76 114.52,-762.31 117.17,-768.79"/>
</g>
<!-- counterblow -->
<g id="node14" class="node">
<title>counterblow</title>
<path fill="none" stroke="#d9d9d9" d="M246.38,-832C246.38,-832 145.62,-832 145.62,-832 139.62,-832 133.62,-826 133.62,-820 133.62,-820 133.62,-808 133.62,-808 133.62,-802 139.62,-796 145.62,-796 145.62,-796 246.38,-796 246.38,-796 252.38,-796 258.38,-802 258.38,-808 258.38,-808 258.38,-820 258.38,-820 258.38,-826 252.38,-832 246.38,-832"/>
<text text-anchor="middle" x="196" y="-808.95" font-family="Helvetica,sans-Serif" font-size="14.00" fill="#e5e5e5">Counterblow (25)</text>
</g>
<!-- strike&#45;&gt;counterblow -->
<g id="edge9" class="edge">
<title>strike&#45;&gt;counterblow</title>
<path fill="none" stroke="#d9d9d9" d="M48,-892.52C57.61,-878.19 72.66,-858.85 90.38,-847 100.09,-840.5 111.17,-835.22 122.39,-830.95"/>
<polygon fill="#d9d9d9" stroke="#d9d9d9" points="123.45,-834.28 131.72,-827.66 121.13,-827.68 123.45,-834.28"/>
</g>
<!-- discombobulate -->
<g id="node15" class="node">
<title>discombobulate</title>
<path fill="none" stroke="#d9d9d9" d="M258.38,-897C258.38,-897 133.62,-897 133.62,-897 127.62,-897 121.62,-891 121.62,-885 121.62,-885 121.62,-873 121.62,-873 121.62,-867 127.62,-861 133.62,-861 133.62,-861 258.38,-861 258.38,-861 264.38,-861 270.38,-867 270.38,-873 270.38,-873 270.38,-885 270.38,-885 270.38,-891 264.38,-897 258.38,-897"/>
<text text-anchor="middle" x="196" y="-873.95" font-family="Helvetica,sans-Serif" font-size="14.00" fill="#e5e5e5">Discombobulate (25)</text>
</g>
<!-- strike&#45;&gt;discombobulate -->
<g id="edge10" class="edge">
<title>strike&#45;&gt;discombobulate</title>
<path fill="none" stroke="#d9d9d9" d="M63.24,-905.64C76.37,-902.99 93.05,-899.61 110.09,-896.17"/>
<polygon fill="#d9d9d9" stroke="#d9d9d9" points="110.71,-899.61 119.82,-894.2 109.33,-892.75 110.71,-899.61"/>
</g>
<!-- lunging_strike -->
<g id="node16" class="node">
<title>lunging_strike</title>
<path fill="none" stroke="#d9d9d9" d="M251.62,-962C251.62,-962 140.38,-962 140.38,-962 134.38,-962 128.38,-956 128.38,-950 128.38,-950 128.38,-938 128.38,-938 128.38,-932 134.38,-926 140.38,-926 140.38,-926 251.62,-926 251.62,-926 257.62,-926 263.62,-932 263.62,-938 263.62,-938 263.62,-950 263.62,-950 263.62,-956 257.62,-962 251.62,-962"/>
<text text-anchor="middle" x="196" y="-938.95" font-family="Helvetica,sans-Serif" font-size="14.00" fill="#e5e5e5">Lunging Strike (25)</text>
</g>
<!-- strike&#45;&gt;lunging_strike -->
<g id="edge11" class="edge">
<title>strike&#45;&gt;lunging_strike</title>
<path fill="none" stroke="#d9d9d9" d="M63.24,-916.52C78.16,-919.64 97.67,-923.7 117.07,-927.75"/>
<polygon fill="#d9d9d9" stroke="#d9d9d9" points="116.14,-931.13 126.65,-929.75 117.57,-924.28 116.14,-931.13"/>
</g>
<!-- make_way -->
<g id="node17" class="node">
<title>make_way</title>
<path fill="none" stroke="#d9d9d9" d="M239.62,-1027C239.62,-1027 152.38,-1027 152.38,-1027 146.38,-1027 140.38,-1021 140.38,-1015 140.38,-1015 140.38,-1003 140.38,-1003 140.38,-997 146.38,-991 152.38,-991 152.38,-991 239.62,-991 239.62,-991 245.62,-991 251.62,-997 251.62,-1003 251.62,-1003 251.62,-1015 251.62,-1015 251.62,-1021 245.62,-1027 239.62,-1027"/>
<text text-anchor="middle" x="196" y="-1003.95" font-family="Helvetica,sans-Serif" font-size="14.00" fill="#e5e5e5">Make Way (25)</text>
</g>
<!-- strike&#45;&gt;make_way -->
<g id="edge12" class="edge">
<title>strike&#45;&gt;make_way</title>
<path fill="none" stroke="#d9d9d9" d="M47.27,-929.21C56.75,-944.1 72.01,-964.63 90.38,-977 102.06,-984.87 115.76,-990.86 129.32,-995.41"/>
<polygon fill="#d9d9d9" stroke="#d9d9d9" points="128.09,-998.7 138.68,-998.31 130.16,-992.01 128.09,-998.7"/>
</g>
<!-- pummel -->
<g id="node18" class="node">
<title>pummel</title>
<path fill="none" stroke="#d9d9d9" d="M232.88,-1092C232.88,-1092 159.12,-1092 159.12,-1092 153.12,-1092 147.12,-1086 147.12,-1080 147.12,-1080 147.12,-1068 147.12,-1068 147.12,-1062 153.12,-1056 159.12,-1056 159.12,-1056 232.88,-1056 232.88,-1056 238.88,-1056 244.88,-1062 244.88,-1068 244.88,-1068 244.88,-1080 244.88,-1080 244.88,-1086 238.88,-1092 232.88,-1092"/>
<text text-anchor="middle" x="196" y="-1068.95" font-family="Helvetica,sans-Serif" font-size="14.00" fill="#e5e5e5">Pummel (25)</text>
</g>
<!-- strike&#45;&gt;pummel -->
<g id="edge13" class="edge">
<title>strike&#45;&gt;pummel</title>
<path fill="none" stroke="#d9d9d9" d="M39.24,-929.49C44.02,-957.77 57.15,-1011.69 90.38,-1042 102.92,-1053.44 119.45,-1060.79 135.67,-1065.52"/>
<polygon fill="#d9d9d9" stroke="#d9d9d9" points="134.76,-1068.9 145.32,-1068.01 136.51,-1062.12 134.76,-1068.9"/>
</g>
<!-- steel_divergence -->
<g id="node20" class="node">
<title>steel_divergence</title>
<path fill="none" stroke="#d9d9d9" d="M261.38,-1157C261.38,-1157 130.62,-1157 130.62,-1157 124.62,-1157 118.62,-1151 118.62,-1145 118.62,-1145 118.62,-1133 118.62,-1133 118.62,-1127 124.62,-1121 130.62,-1121 130.62,-1121 261.38,-1121 261.38,-1121 267.38,-1121 273.38,-1127 273.38,-1133 273.38,-1133 273.38,-1145 273.38,-1145 273.38,-1151 267.38,-1157 261.38,-1157"/>
<text text-anchor="middle" x="196" y="-1133.95" font-family="Helvetica,sans-Serif" font-size="14.00" fill="#e5e5e5">Steel Divergence (25)</text>
</g>
<!-- strike&#45;&gt;steel_divergence -->
<g id="edge15" class="edge">
<title>strike&#45;&gt;steel_divergence</title>
<path fill="none" stroke="#d9d9d9" d="M36.27,-929.49C36.31,-967.95 41.97,-1057.13 90.38,-1107 95.62,-1112.4 101.75,-1116.9 108.36,-1120.64"/>
<polygon fill="#d9d9d9" stroke="#d9d9d9" points="106.48,-1123.62 117,-1124.93 109.6,-1117.35 106.48,-1123.62"/>
</g>
<!-- sweep_kick -->
<g id="node21" class="node">
<title>sweep_kick</title>
<path fill="none" stroke="#d9d9d9" d="M244.12,-1222C244.12,-1222 147.88,-1222 147.88,-1222 141.88,-1222 135.88,-1216 135.88,-1210 135.88,-1210 135.88,-1198 135.88,-1198 135.88,-1192 141.88,-1186 147.88,-1186 147.88,-1186 244.12,-1186 244.12,-1186 250.12,-1186 256.12,-1192 256.12,-1198 256.12,-1198 256.12,-1210 256.12,-1210 256.12,-1216 250.12,-1222 244.12,-1222"/>
<text text-anchor="middle" x="196" y="-1198.95" font-family="Helvetica,sans-Serif" font-size="14.00" fill="#e5e5e5">Sweep Kick (25)</text>
</g>
<!-- strike&#45;&gt;sweep_kick -->
<g id="edge16" class="edge">
<title>strike&#45;&gt;sweep_kick</title>
<path fill="none" stroke="#d9d9d9" d="M38.12,-929.39C42.47,-982.73 57.61,-1135.99 90.38,-1172 99.51,-1182.04 111.71,-1188.97 124.54,-1193.74"/>
<polygon fill="#d9d9d9" stroke="#d9d9d9" points="123.38,-1197.05 133.97,-1196.8 125.53,-1190.39 123.38,-1197.05"/>
</g>
<!-- whirlwind_strike -->
<g id="node22" class="node">
<title>whirlwind_strike</title>
<path fill="none" stroke="#d9d9d9" d="M256.88,-1287C256.88,-1287 135.12,-1287 135.12,-1287 129.12,-1287 123.12,-1281 123.12,-1275 123.12,-1275 123.12,-1263 123.12,-1263 123.12,-1257 129.12,-1251 135.12,-1251 135.12,-1251 256.88,-1251 256.88,-1251 262.88,-1251 268.88,-1257 268.88,-1263 268.88,-1263 268.88,-1275 268.88,-1275 268.88,-1281 262.88,-1287 256.88,-1287"/>
<text text-anchor="middle" x="196" y="-1263.95" font-family="Helvetica,sans-Serif" font-size="14.00" fill="#e5e5e5">Whirlwind Strike (25)</text>
</g>
<!-- strike&#45;&gt;whirlwind_strike -->
<g id="edge17" class="edge">
<title>strike&#45;&gt;whirlwind_strike</title>
<path fill="none" stroke="#d9d9d9" d="M37.3,-929.4C39.5,-991.27 49.69,-1190.48 90.38,-1237 96.51,-1244.01 104.13,-1249.52 112.45,-1253.83"/>
<polygon fill="#d9d9d9" stroke="#d9d9d9" points="110.95,-1256.99 121.51,-1257.89 113.82,-1250.6 110.95,-1256.99"/>
</g>
<!-- intercept -->
<g id="node23" class="node">
<title>intercept</title>
<path fill="none" stroke="#d9d9d9" d="M234.75,-1352C234.75,-1352 157.25,-1352 157.25,-1352 151.25,-1352 145.25,-1346 145.25,-1340 145.25,-1340 145.25,-1328 145.25,-1328 145.25,-1322 151.25,-1316 157.25,-1316 157.25,-1316 234.75,-1316 234.75,-1316 240.75,-1316 246.75,-1322 246.75,-1328 246.75,-1328 246.75,-1340 246.75,-1340 246.75,-1346 240.75,-1352 234.75,-1352"/>
<text text-anchor="middle" x="196" y="-1328.95" font-family="Helvetica,sans-Serif" font-size="14.00" fill="#e5e5e5">Intercept (30)</text>
</g>
<!-- strike&#45;&gt;intercept -->
<g id="edge18" class="edge">
<title>strike&#45;&gt;intercept</title>
<path fill="none" stroke="#d9d9d9" d="M36.74,-929.09C37.05,-998.22 41.64,-1244.74 90.38,-1302 101.48,-1315.05 117.76,-1322.88 134.18,-1327.54"/>
<polygon fill="#d9d9d9" stroke="#d9d9d9" points="132.92,-1330.84 143.47,-1329.81 134.59,-1324.04 132.92,-1330.84"/>
</g>
<!-- puncture_round -->
<g id="node25" class="node">
<title>puncture_round</title>
<path fill="none" stroke="#d9d9d9" d="M257.62,-1417C257.62,-1417 134.38,-1417 134.38,-1417 128.38,-1417 122.38,-1411 122.38,-1405 122.38,-1405 122.38,-1393 122.38,-1393 122.38,-1387 128.38,-1381 134.38,-1381 134.38,-1381 257.62,-1381 257.62,-1381 263.62,-1381 269.62,-1387 269.62,-1393 269.62,-1393 269.62,-1405 269.62,-1405 269.62,-1411 263.62,-1417 257.62,-1417"/>
<text text-anchor="middle" x="196" y="-1393.95" font-family="Helvetica,sans-Serif" font-size="14.00" fill="#e5e5e5">Puncture Round (30)</text>
</g>
<!-- strike&#45;&gt;puncture_round -->
<g id="edge20" class="edge">
<title>strike&#45;&gt;puncture_round</title>
<path fill="none" stroke="#d9d9d9" d="M36.34,-929.4C34.99,-1006.04 33.68,-1299.07 90.38,-1367 96.26,-1374.05 103.65,-1379.58 111.77,-1383.91"/>
<polygon fill="#d9d9d9" stroke="#d9d9d9" points="110.07,-1386.98 120.62,-1387.98 113,-1380.62 110.07,-1386.98"/>
</g>
<!-- grapple -->
<g id="node2" class="node">
<title>grapple</title>
<path fill="none" stroke="#595959" d="M57.25,-344C57.25,-344 14.25,-344 14.25,-344 8.25,-344 2.25,-338 2.25,-332 2.25,-332 2.25,-320 2.25,-320 2.25,-314 8.25,-308 14.25,-308 14.25,-308 57.25,-308 57.25,-308 63.25,-308 69.25,-314 69.25,-320 69.25,-320 69.25,-332 69.25,-332 69.25,-338 63.25,-344 57.25,-344"/>
<text text-anchor="middle" x="35.75" y="-320.95" font-family="Helvetica,sans-Serif" font-size="14.00" fill="#a6a6a6">Grapple</text>
</g>
<!-- barbaric_cover -->
<g id="node13" class="node">
<title>barbaric_cover</title>
<path fill="none" stroke="#d9d9d9" d="M253.88,-312C253.88,-312 138.12,-312 138.12,-312 132.12,-312 126.12,-306 126.12,-300 126.12,-300 126.12,-288 126.12,-288 126.12,-282 132.12,-276 138.12,-276 138.12,-276 253.88,-276 253.88,-276 259.88,-276 265.88,-282 265.88,-288 265.88,-288 265.88,-300 265.88,-300 265.88,-306 259.88,-312 253.88,-312"/>
<text text-anchor="middle" x="196" y="-288.95" font-family="Helvetica,sans-Serif" font-size="14.00" fill="#e5e5e5">Barbaric Cover (25)</text>
</g>
<!-- grapple&#45;&gt;barbaric_cover -->
<g id="edge8" class="edge">
<title>grapple&#45;&gt;barbaric_cover</title>
<path fill="none" stroke="#d9d9d9" d="M69.54,-319.37C82.78,-316.69 98.69,-313.47 114.67,-310.24"/>
<polygon fill="#d9d9d9" stroke="#d9d9d9" points="115.12,-313.72 124.23,-308.31 113.73,-306.86 115.12,-313.72"/>
</g>
<!-- tavern_tactics -->
<g id="node27" class="node">
<title>tavern_tactics</title>
<path fill="none" stroke="#d9d9d9" d="M263.25,-377C263.25,-377 128.75,-377 128.75,-377 122.75,-377 116.75,-371 116.75,-365 116.75,-365 116.75,-353 116.75,-353 116.75,-347 122.75,-341 128.75,-341 128.75,-341 263.25,-341 263.25,-341 269.25,-341 275.25,-347 275.25,-353 275.25,-353 275.25,-365 275.25,-365 275.25,-371 269.25,-377 263.25,-377"/>
<text text-anchor="middle" x="196" y="-353.95" font-family="Helvetica,sans-Serif" font-size="14.00" fill="#e5e5e5">Tavern Tactics (30/35)</text>
</g>
<!-- grapple&#45;&gt;tavern_tactics -->
<g id="edge22" class="edge">
<title>grapple&#45;&gt;tavern_tactics</title>
<path fill="none" stroke="#d9d9d9" d="M69.54,-332.84C80.18,-335.06 92.55,-337.64 105.3,-340.29"/>
<polygon fill="#d9d9d9" stroke="#d9d9d9" points="104.57,-343.72 115.07,-342.33 106,-336.87 104.57,-343.72"/>
</g>
<!-- guard -->
<g id="node3" class="node">
<title>guard</title>
<path fill="none" stroke="#595959" d="M51.25,-150C51.25,-150 20.25,-150 20.25,-150 14.25,-150 8.25,-144 8.25,-138 8.25,-138 8.25,-126 8.25,-126 8.25,-120 14.25,-114 20.25,-114 20.25,-114 51.25,-114 51.25,-114 57.25,-114 63.25,-120 63.25,-126 63.25,-126 63.25,-138 63.25,-138 63.25,-144 57.25,-150 51.25,-150"/>
<text text-anchor="middle" x="35.75" y="-126.95" font-family="Helvetica,sans-Serif" font-size="14.00" fill="#a6a6a6">Guard</text>
</g>
<!-- preparation -->
<g id="node11" class="node">
<title>preparation</title>
<path fill="none" stroke="#d9d9d9" d="M243,-247C243,-247 149,-247 149,-247 143,-247 137,-241 137,-235 137,-235 137,-223 137,-223 137,-217 143,-211 149,-211 149,-211 243,-211 243,-211 249,-211 255,-217 255,-223 255,-223 255,-235 255,-235 255,-241 249,-247 243,-247"/>
<text text-anchor="middle" x="196" y="-223.95" font-family="Helvetica,sans-Serif" font-size="14.00" fill="#e5e5e5">Preparation (20)</text>
</g>
<!-- guard&#45;&gt;preparation -->
<g id="edge6" class="edge">
<title>guard&#45;&gt;preparation</title>
<path fill="none" stroke="#d9d9d9" d="M48,-150.48C57.61,-164.81 72.66,-184.15 90.38,-196 101.09,-203.17 113.45,-208.85 125.84,-213.33"/>
<polygon fill="#d9d9d9" stroke="#d9d9d9" points="124.66,-216.63 135.26,-216.49 126.89,-209.99 124.66,-216.63"/>
</g>
<!-- riposte -->
<g id="node19" class="node">
<title>riposte</title>
<path fill="none" stroke="#d9d9d9" d="M231.38,-117C231.38,-117 160.62,-117 160.62,-117 154.62,-117 148.62,-111 148.62,-105 148.62,-105 148.62,-93 148.62,-93 148.62,-87 154.62,-81 160.62,-81 160.62,-81 231.38,-81 231.38,-81 237.38,-81 243.38,-87 243.38,-93 243.38,-93 243.38,-105 243.38,-105 243.38,-111 237.38,-117 231.38,-117"/>
<text text-anchor="middle" x="196" y="-93.95" font-family="Helvetica,sans-Serif" font-size="14.00" fill="#e5e5e5">Riposte (25)</text>
</g>
<!-- guard&#45;&gt;riposte -->
<g id="edge14" class="edge">
<title>guard&#45;&gt;riposte</title>
<path fill="none" stroke="#d9d9d9" d="M63.59,-126.4C83.72,-122.21 112.01,-116.31 137.19,-111.05"/>
<polygon fill="#d9d9d9" stroke="#d9d9d9" points="137.58,-114.55 146.65,-109.08 136.15,-107.7 137.58,-114.55"/>
</g>
<!-- rebound -->
<g id="node24" class="node">
<title>rebound</title>
<path fill="none" stroke="#d9d9d9" d="M235.88,-182C235.88,-182 156.12,-182 156.12,-182 150.12,-182 144.12,-176 144.12,-170 144.12,-170 144.12,-158 144.12,-158 144.12,-152 150.12,-146 156.12,-146 156.12,-146 235.88,-146 235.88,-146 241.88,-146 247.88,-152 247.88,-158 247.88,-158 247.88,-170 247.88,-170 247.88,-176 241.88,-182 235.88,-182"/>
<text text-anchor="middle" x="196" y="-158.95" font-family="Helvetica,sans-Serif" font-size="14.00" fill="#e5e5e5">Rebound (30)</text>
</g>
<!-- guard&#45;&gt;rebound -->
<g id="edge19" class="edge">
<title>guard&#45;&gt;rebound</title>
<path fill="none" stroke="#d9d9d9" d="M63.59,-137.43C82.47,-141.25 108.54,-146.52 132.48,-151.36"/>
<polygon fill="#d9d9d9" stroke="#d9d9d9" points="131.68,-154.77 142.18,-153.32 133.07,-147.91 131.68,-154.77"/>
</g>
<!-- evasive_threat -->
<g id="node26" class="node">
<title>evasive_threat</title>
<path fill="none" stroke="#d9d9d9" d="M263.62,-52C263.62,-52 128.38,-52 128.38,-52 122.38,-52 116.38,-46 116.38,-40 116.38,-40 116.38,-28 116.38,-28 116.38,-22 122.38,-16 128.38,-16 128.38,-16 263.62,-16 263.62,-16 269.62,-16 275.62,-22 275.62,-28 275.62,-28 275.62,-40 275.62,-40 275.62,-46 269.62,-52 263.62,-52"/>
<text text-anchor="middle" x="196" y="-28.95" font-family="Helvetica,sans-Serif" font-size="14.00" fill="#e5e5e5">Evasive Threat (30/35)</text>
</g>
<!-- guard&#45;&gt;evasive_threat -->
<g id="edge21" class="edge">
<title>guard&#45;&gt;evasive_threat</title>
<path fill="none" stroke="#d9d9d9" d="M47.27,-113.79C56.75,-98.9 72.01,-78.37 90.38,-66 95.35,-62.65 100.68,-59.64 106.22,-56.94"/>
<polygon fill="#d9d9d9" stroke="#d9d9d9" points="107.29,-60.3 114.98,-53.02 104.43,-53.91 107.29,-60.3"/>
</g>
<!-- enhance -->
<g id="node4" class="node">
<title>enhance</title>
<path fill="none" stroke="#595959" d="M59.5,-2297C59.5,-2297 12,-2297 12,-2297 6,-2297 0,-2291 0,-2285 0,-2285 0,-2273 0,-2273 0,-2267 6,-2261 12,-2261 12,-2261 59.5,-2261 59.5,-2261 65.5,-2261 71.5,-2267 71.5,-2273 71.5,-2273 71.5,-2285 71.5,-2285 71.5,-2291 65.5,-2297 59.5,-2297"/>
<text text-anchor="middle" x="35.75" y="-2273.95" font-family="Helvetica,sans-Serif" font-size="14.00" fill="#a6a6a6">Enhance</text>
</g>
<!-- arcane_bolt -->
<g id="node28" class="node">
<title>arcane_bolt</title>
<path fill="none" stroke="#d9d9d9" d="M243.38,-3331C243.38,-3331 148.62,-3331 148.62,-3331 142.62,-3331 136.62,-3325 136.62,-3319 136.62,-3319 136.62,-3307 136.62,-3307 136.62,-3301 142.62,-3295 148.62,-3295 148.62,-3295 243.38,-3295 243.38,-3295 249.38,-3295 255.38,-3301 255.38,-3307 255.38,-3307 255.38,-3319 255.38,-3319 255.38,-3325 249.38,-3331 243.38,-3331"/>
<text text-anchor="middle" x="196" y="-3307.95" font-family="Helvetica,sans-Serif" font-size="14.00" fill="#e5e5e5">Arcane Bolt (25)</text>
</g>
<!-- enhance&#45;&gt;arcane_bolt -->
<g id="edge23" class="edge">
<title>enhance&#45;&gt;arcane_bolt</title>
<path fill="none" stroke="#d9d9d9" d="M37.2,-2297.4C40.2,-2417.96 58.34,-3092.74 90.38,-3178 106.59,-3221.14 141.68,-3261.66 166.75,-3286.84"/>
<polygon fill="#d9d9d9" stroke="#d9d9d9" points="164.16,-3289.2 173.75,-3293.71 169.07,-3284.21 164.16,-3289.2"/>
</g>
<!-- wellspring_of_power -->
<g id="node29" class="node">
<title>wellspring_of_power</title>
<path fill="none" stroke="#d9d9d9" d="M552.88,-3331C552.88,-3331 383.12,-3331 383.12,-3331 377.12,-3331 371.12,-3325 371.12,-3319 371.12,-3319 371.12,-3307 371.12,-3307 371.12,-3301 377.12,-3295 383.12,-3295 383.12,-3295 552.88,-3295 552.88,-3295 558.88,-3295 564.88,-3301 564.88,-3307 564.88,-3307 564.88,-3319 564.88,-3319 564.88,-3325 558.88,-3331 552.88,-3331"/>
<text text-anchor="middle" x="468" y="-3307.95" font-family="Helvetica,sans-Serif" font-size="14.00" fill="#e5e5e5">Wellspring of Power (25/30)</text>
</g>
<!-- enhance&#45;&gt;wellspring_of_power -->
<g id="edge24" class="edge">
<title>enhance&#45;&gt;wellspring_of_power</title>
<path fill="none" stroke="#d9d9d9" d="M37.32,-2297.39C40.81,-2405.73 59.96,-2958.33 90.38,-3027 150.35,-3162.41 194.49,-3190.18 320.5,-3268 335.68,-3277.38 352.97,-3284.93 370.21,-3290.97"/>
<polygon fill="#d9d9d9" stroke="#d9d9d9" points="368.89,-3294.22 379.49,-3294.06 371.11,-3287.58 368.89,-3294.22"/>
</g>
<!-- tri_elemental_conversion -->
<g id="node37" class="node">
<title>tri_elemental_conversion</title>
<path fill="none" stroke="#d9d9d9" d="M286.5,-3012C286.5,-3012 105.5,-3012 105.5,-3012 99.5,-3012 93.5,-3006 93.5,-3000 93.5,-3000 93.5,-2988 93.5,-2988 93.5,-2982 99.5,-2976 105.5,-2976 105.5,-2976 286.5,-2976 286.5,-2976 292.5,-2976 298.5,-2982 298.5,-2988 298.5,-2988 298.5,-3000 298.5,-3000 298.5,-3006 292.5,-3012 286.5,-3012"/>
<text text-anchor="middle" x="196" y="-2988.95" font-family="Helvetica,sans-Serif" font-size="14.00" fill="#e5e5e5">Tri&#45;Elemental Conversion (25)</text>
</g>
<!-- enhance&#45;&gt;tri_elemental_conversion -->
<g id="edge40" class="edge">
<title>enhance&#45;&gt;tri_elemental_conversion</title>
<path fill="none" stroke="#d9d9d9" d="M40.82,-2297.39C62.24,-2394.18 161.93,-2844.57 188.48,-2964.56"/>
<polygon fill="#d9d9d9" stroke="#d9d9d9" points="185.05,-2965.24 190.63,-2974.25 191.89,-2963.73 185.05,-2965.24"/>
</g>
<!-- repulsion -->
<g id="node59" class="node">
<title>repulsion</title>
<path fill="none" stroke="#d9d9d9" d="M238.5,-2297C238.5,-2297 153.5,-2297 153.5,-2297 147.5,-2297 141.5,-2291 141.5,-2285 141.5,-2285 141.5,-2273 141.5,-2273 141.5,-2267 147.5,-2261 153.5,-2261 153.5,-2261 238.5,-2261 238.5,-2261 244.5,-2261 250.5,-2267 250.5,-2273 250.5,-2273 250.5,-2285 250.5,-2285 250.5,-2291 244.5,-2297 238.5,-2297"/>
<text text-anchor="middle" x="196" y="-2273.95" font-family="Helvetica,sans-Serif" font-size="14.00" fill="#e5e5e5">Repulsion (25)</text>
</g>
<!-- enhance&#45;&gt;repulsion -->
<g id="edge78" class="edge">
<title>enhance&#45;&gt;repulsion</title>
<path fill="none" stroke="#d9d9d9" d="M71.87,-2279C88.85,-2279 109.78,-2279 129.54,-2279"/>
<polygon fill="#d9d9d9" stroke="#d9d9d9" points="129.49,-2282.5 139.49,-2279 129.49,-2275.5 129.49,-2282.5"/>
</g>
<!-- lesser_conjuration -->
<g id="node65" class="node">
<title>lesser_conjuration</title>
<path fill="none" stroke="#d9d9d9" d="M266.25,-2147C266.25,-2147 125.75,-2147 125.75,-2147 119.75,-2147 113.75,-2141 113.75,-2135 113.75,-2135 113.75,-2123 113.75,-2123 113.75,-2117 119.75,-2111 125.75,-2111 125.75,-2111 266.25,-2111 266.25,-2111 272.25,-2111 278.25,-2117 278.25,-2123 278.25,-2123 278.25,-2135 278.25,-2135 278.25,-2141 272.25,-2147 266.25,-2147"/>
<text text-anchor="middle" x="196" y="-2123.95" font-family="Helvetica,sans-Serif" font-size="14.00" fill="#e5e5e5">Lesser Conjuration (30)</text>
</g>
<!-- enhance&#45;&gt;lesser_conjuration -->
<g id="edge89" class="edge">
<title>enhance&#45;&gt;lesser_conjuration</title>
<path fill="none" stroke="#d9d9d9" d="M42.93,-2260.61C50.94,-2239.15 66.75,-2203.72 90.38,-2181 102.37,-2169.46 117.43,-2159.98 132.35,-2152.42"/>
<polygon fill="#d9d9d9" stroke="#d9d9d9" points="133.76,-2155.63 141.26,-2148.15 130.73,-2149.32 133.76,-2155.63"/>
</g>
<!-- prestidigitation -->
<g id="node68" class="node">
<title>prestidigitation</title>
<path fill="none" stroke="#d9d9d9" d="M253.12,-1965C253.12,-1965 138.88,-1965 138.88,-1965 132.88,-1965 126.88,-1959 126.88,-1953 126.88,-1953 126.88,-1941 126.88,-1941 126.88,-1935 132.88,-1929 138.88,-1929 138.88,-1929 253.12,-1929 253.12,-1929 259.12,-1929 265.12,-1935 265.12,-1941 265.12,-1941 265.12,-1953 265.12,-1953 265.12,-1959 259.12,-1965 253.12,-1965"/>
<text text-anchor="middle" x="196" y="-1941.95" font-family="Helvetica,sans-Serif" font-size="14.00" fill="#e5e5e5">Prestidigitation (25)</text>
</g>
<!-- enhance&#45;&gt;prestidigitation -->
<g id="edge93" class="edge">
<title>enhance&#45;&gt;prestidigitation</title>
<path fill="none" stroke="#d9d9d9" d="M36.66,-2260.65C37.25,-2217.34 43.59,-2106.69 90.38,-2031 105.52,-2006.49 130.46,-1986.06 152.19,-1971.48"/>
<polygon fill="#d9d9d9" stroke="#d9d9d9" points="153.82,-1974.59 160.31,-1966.22 150.01,-1968.72 153.82,-1974.59"/>
</g>
<!-- seal_wounds -->
<g id="node72" class="node">
<title>seal_wounds</title>
<path fill="none" stroke="#d9d9d9" d="M249.38,-1782C249.38,-1782 142.62,-1782 142.62,-1782 136.62,-1782 130.62,-1776 130.62,-1770 130.62,-1770 130.62,-1758 130.62,-1758 130.62,-1752 136.62,-1746 142.62,-1746 142.62,-1746 249.38,-1746 249.38,-1746 255.38,-1746 261.38,-1752 261.38,-1758 261.38,-1758 261.38,-1770 261.38,-1770 261.38,-1776 255.38,-1782 249.38,-1782"/>
<text text-anchor="middle" x="196" y="-1758.95" font-family="Helvetica,sans-Serif" font-size="14.00" fill="#e5e5e5">Seal Wounds (25)</text>
</g>
<!-- enhance&#45;&gt;seal_wounds -->
<g id="edge100" class="edge">
<title>enhance&#45;&gt;seal_wounds</title>
<path fill="none" stroke="#d9d9d9" d="M36.6,-2260.56C36.33,-2183.7 38.74,-1889.5 90.38,-1816 98.74,-1804.1 110.63,-1794.78 123.41,-1787.54"/>
<polygon fill="#d9d9d9" stroke="#d9d9d9" points="124.71,-1790.81 131.97,-1783.09 121.48,-1784.59 124.71,-1790.81"/>
</g>
<!-- botanical_alteration -->
<g id="node75" class="node">
<title>botanical_alteration</title>
<path fill="none" stroke="#d9d9d9" d="M539,-2479C539,-2479 397,-2479 397,-2479 391,-2479 385,-2473 385,-2467 385,-2467 385,-2455 385,-2455 385,-2449 391,-2443 397,-2443 397,-2443 539,-2443 539,-2443 545,-2443 551,-2449 551,-2455 551,-2455 551,-2467 551,-2467 551,-2473 545,-2479 539,-2479"/>
<text text-anchor="middle" x="468" y="-2455.95" font-family="Helvetica,sans-Serif" font-size="14.00" fill="#e5e5e5">Botanical Alteration (25)</text>
</g>
<!-- enhance&#45;&gt;botanical_alteration -->
<g id="edge104" class="edge">
<title>enhance&#45;&gt;botanical_alteration</title>
<path fill="none" stroke="#d9d9d9" d="M39.19,-2297.4C43.87,-2324.85 56.82,-2376.09 90.38,-2402 170.93,-2464.2 290.59,-2472.96 373.32,-2470.04"/>
<polygon fill="#d9d9d9" stroke="#d9d9d9" points="373.39,-2473.55 383.23,-2469.62 373.09,-2466.55 373.39,-2473.55"/>
</g>
<!-- warp_step -->
<g id="node79" class="node">
<title>warp_step</title>
<path fill="none" stroke="#d9d9d9" d="M240.75,-1600C240.75,-1600 151.25,-1600 151.25,-1600 145.25,-1600 139.25,-1594 139.25,-1588 139.25,-1588 139.25,-1576 139.25,-1576 139.25,-1570 145.25,-1564 151.25,-1564 151.25,-1564 240.75,-1564 240.75,-1564 246.75,-1564 252.75,-1570 252.75,-1576 252.75,-1576 252.75,-1588 252.75,-1588 252.75,-1594 246.75,-1600 240.75,-1600"/>
<text text-anchor="middle" x="196" y="-1576.95" font-family="Helvetica,sans-Serif" font-size="14.00" fill="#e5e5e5">Warp Step (30)</text>
</g>
<!-- enhance&#45;&gt;warp_step -->
<g id="edge107" class="edge">
<title>enhance&#45;&gt;warp_step</title>
<path fill="none" stroke="#d9d9d9" d="M36.45,-2260.71C35.25,-2170.45 33.35,-1772.7 90.38,-1666 103.76,-1640.95 128.14,-1620.7 150,-1606.37"/>
<polygon fill="#d9d9d9" stroke="#d9d9d9" points="151.61,-1609.49 158.21,-1601.2 147.88,-1603.56 151.61,-1609.49"/>
</g>
<!-- focus -->
<g id="node5" class="node">
<title>focus</title>
<path fill="none" stroke="#595959" d="M51.62,-3601C51.62,-3601 19.88,-3601 19.88,-3601 13.88,-3601 7.88,-3595 7.88,-3589 7.88,-3589 7.88,-3577 7.88,-3577 7.88,-3571 13.88,-3565 19.88,-3565 19.88,-3565 51.62,-3565 51.62,-3565 57.62,-3565 63.62,-3571 63.62,-3577 63.62,-3577 63.62,-3589 63.62,-3589 63.62,-3595 57.62,-3601 51.62,-3601"/>
<text text-anchor="middle" x="35.75" y="-3577.95" font-family="Helvetica,sans-Serif" font-size="14.00" fill="#a6a6a6">Focus</text>
</g>
<!-- focused_breathing -->
<g id="node31" class="node">
<title>focused_breathing</title>
<path fill="none" stroke="#d9d9d9" d="M276.75,-3634C276.75,-3634 115.25,-3634 115.25,-3634 109.25,-3634 103.25,-3628 103.25,-3622 103.25,-3622 103.25,-3610 103.25,-3610 103.25,-3604 109.25,-3598 115.25,-3598 115.25,-3598 276.75,-3598 276.75,-3598 282.75,-3598 288.75,-3604 288.75,-3610 288.75,-3610 288.75,-3622 288.75,-3622 288.75,-3628 282.75,-3634 276.75,-3634"/>
<text text-anchor="middle" x="196" y="-3610.95" font-family="Helvetica,sans-Serif" font-size="14.00" fill="#e5e5e5">Focused Breathing (25/30)</text>
</g>
<!-- focus&#45;&gt;focused_breathing -->
<g id="edge28" class="edge">
<title>focus&#45;&gt;focused_breathing</title>
<path fill="none" stroke="#d9d9d9" d="M63.95,-3588.67C73.13,-3590.59 83.97,-3592.85 95.43,-3595.24"/>
<polygon fill="#d9d9d9" stroke="#d9d9d9" points="94.58,-3598.63 105.08,-3597.25 96.01,-3591.78 94.58,-3598.63"/>
</g>
<!-- optimized_flow -->
<g id="node32" class="node">
<title>optimized_flow</title>
<path fill="none" stroke="#d9d9d9" d="M276,-3569C276,-3569 116,-3569 116,-3569 110,-3569 104,-3563 104,-3557 104,-3557 104,-3545 104,-3545 104,-3539 110,-3533 116,-3533 116,-3533 276,-3533 276,-3533 282,-3533 288,-3539 288,-3545 288,-3545 288,-3557 288,-3557 288,-3563 282,-3569 276,-3569"/>
<text text-anchor="middle" x="196" y="-3545.95" font-family="Helvetica,sans-Serif" font-size="14.00" fill="#e5e5e5">Optimized Flow (30/35/40)</text>
</g>
<!-- focus&#45;&gt;optimized_flow -->
<g id="edge29" class="edge">
<title>focus&#45;&gt;optimized_flow</title>
<path fill="none" stroke="#d9d9d9" d="M63.95,-3577.5C72.35,-3575.8 82.14,-3573.82 92.52,-3571.72"/>
<polygon fill="#d9d9d9" stroke="#d9d9d9" points="92.93,-3575.21 102.03,-3569.8 91.54,-3568.35 92.93,-3575.21"/>
</g>
<!-- redistribution_prowess -->
<g id="node33" class="node">
<title>redistribution_prowess</title>
<path fill="none" stroke="#d9d9d9" d="M281.62,-3699C281.62,-3699 110.38,-3699 110.38,-3699 104.38,-3699 98.38,-3693 98.38,-3687 98.38,-3687 98.38,-3675 98.38,-3675 98.38,-3669 104.38,-3663 110.38,-3663 110.38,-3663 281.62,-3663 281.62,-3663 287.62,-3663 293.62,-3669 293.62,-3675 293.62,-3675 293.62,-3687 293.62,-3687 293.62,-3693 287.62,-3699 281.62,-3699"/>
<text text-anchor="middle" x="196" y="-3675.95" font-family="Helvetica,sans-Serif" font-size="14.00" fill="#e5e5e5">Redistribution: Prowess (25)</text>
</g>
<!-- focus&#45;&gt;redistribution_prowess -->
<g id="edge31" class="edge">
<title>focus&#45;&gt;redistribution_prowess</title>
<path fill="none" stroke="#d9d9d9" d="M47.27,-3601.21C56.75,-3616.1 72.01,-3636.63 90.38,-3649 95.35,-3652.35 100.68,-3655.36 106.22,-3658.06"/>
<polygon fill="#d9d9d9" stroke="#d9d9d9" points="104.43,-3661.09 114.98,-3661.98 107.29,-3654.7 104.43,-3661.09"/>
</g>
<!-- redistribution_power -->
<g id="node34" class="node">
<title>redistribution_power</title>
<path fill="none" stroke="#d9d9d9" d="M274.12,-3764C274.12,-3764 117.88,-3764 117.88,-3764 111.88,-3764 105.88,-3758 105.88,-3752 105.88,-3752 105.88,-3740 105.88,-3740 105.88,-3734 111.88,-3728 117.88,-3728 117.88,-3728 274.12,-3728 274.12,-3728 280.12,-3728 286.12,-3734 286.12,-3740 286.12,-3740 286.12,-3752 286.12,-3752 286.12,-3758 280.12,-3764 274.12,-3764"/>
<text text-anchor="middle" x="196" y="-3740.95" font-family="Helvetica,sans-Serif" font-size="14.00" fill="#e5e5e5">Redistribution: Power (30)</text>
</g>
<!-- focus&#45;&gt;redistribution_power -->
<g id="edge32" class="edge">
<title>focus&#45;&gt;redistribution_power</title>
<path fill="none" stroke="#d9d9d9" d="M39.24,-3601.49C44.02,-3629.77 57.15,-3683.69 90.38,-3714 93.51,-3716.86 96.89,-3719.46 100.45,-3721.83"/>
<polygon fill="#d9d9d9" stroke="#d9d9d9" points="98.55,-3724.77 108.95,-3726.81 102.09,-3718.73 98.55,-3724.77"/>
</g>
<!-- redistribution_weight -->
<g id="node35" class="node">
<title>redistribution_weight</title>
<path fill="none" stroke="#d9d9d9" d="M276.38,-3504C276.38,-3504 115.62,-3504 115.62,-3504 109.62,-3504 103.62,-3498 103.62,-3492 103.62,-3492 103.62,-3480 103.62,-3480 103.62,-3474 109.62,-3468 115.62,-3468 115.62,-3468 276.38,-3468 276.38,-3468 282.38,-3468 288.38,-3474 288.38,-3480 288.38,-3480 288.38,-3492 288.38,-3492 288.38,-3498 282.38,-3504 276.38,-3504"/>
<text text-anchor="middle" x="196" y="-3480.95" font-family="Helvetica,sans-Serif" font-size="14.00" fill="#e5e5e5">Redistribution: Weight (35)</text>
</g>
<!-- focus&#45;&gt;redistribution_weight -->
<g id="edge33" class="edge">
<title>focus&#45;&gt;redistribution_weight</title>
<path fill="none" stroke="#d9d9d9" d="M48,-3564.52C57.61,-3550.19 72.66,-3530.85 90.38,-3519 96.04,-3515.21 102.16,-3511.84 108.5,-3508.84"/>
<polygon fill="#d9d9d9" stroke="#d9d9d9" points="109.47,-3512.24 117.23,-3505.03 106.67,-3505.82 109.47,-3512.24"/>
</g>
<!-- celestial_pact -->
<g id="node84" class="node">
<title>celestial_pact</title>
<path fill="none" stroke="#d9d9d9" d="M260.25,-3439C260.25,-3439 131.75,-3439 131.75,-3439 125.75,-3439 119.75,-3433 119.75,-3427 119.75,-3427 119.75,-3415 119.75,-3415 119.75,-3409 125.75,-3403 131.75,-3403 131.75,-3403 260.25,-3403 260.25,-3403 266.25,-3403 272.25,-3409 272.25,-3415 272.25,-3415 272.25,-3427 272.25,-3427 272.25,-3433 266.25,-3439 260.25,-3439"/>
<text text-anchor="middle" x="196" y="-3415.95" font-family="Helvetica,sans-Serif" font-size="14.00" fill="#e5e5e5">Celestial Pact (35/40)</text>
</g>
<!-- focus&#45;&gt;celestial_pact -->
<g id="edge114" class="edge">
<title>focus&#45;&gt;celestial_pact</title>
<path fill="none" stroke="#d9d9d9" d="M39.28,-3564.65C44.12,-3536.58 57.33,-3483.07 90.38,-3453 95.99,-3447.89 102.41,-3443.6 109.23,-3439.99"/>
<polygon fill="#d9d9d9" stroke="#d9d9d9" points="110.55,-3443.24 118.11,-3435.82 107.57,-3436.9 110.55,-3443.24"/>
</g>
<!-- arcane_bolt&#45;&gt;wellspring_of_power -->
<g id="edge25" class="edge">
<title>arcane_bolt&#45;&gt;wellspring_of_power</title>
<path fill="none" stroke="#d9d9d9" d="M255.59,-3313C285.96,-3313 324.02,-3313 359.45,-3313"/>
<polygon fill="#d9d9d9" stroke="#d9d9d9" points="359.33,-3316.5 369.33,-3313 359.33,-3309.5 359.33,-3316.5"/>
</g>
<!-- flick_of_death -->
<g id="node30" class="node">
<title>flick_of_death</title>
<path fill="none" stroke="#d9d9d9" d="M792.62,-3346C792.62,-3346 684.38,-3346 684.38,-3346 678.38,-3346 672.38,-3340 672.38,-3334 672.38,-3334 672.38,-3322 672.38,-3322 672.38,-3316 678.38,-3310 684.38,-3310 684.38,-3310 792.62,-3310 792.62,-3310 798.62,-3310 804.62,-3316 804.62,-3322 804.62,-3322 804.62,-3334 804.62,-3334 804.62,-3340 798.62,-3346 792.62,-3346"/>
<text text-anchor="middle" x="738.5" y="-3322.95" font-family="Helvetica,sans-Serif" font-size="14.00" fill="#e5e5e5">Flick of Death (25)</text>
</g>
<!-- arcane_bolt&#45;&gt;flick_of_death -->
<g id="edge26" class="edge">
<title>arcane_bolt&#45;&gt;flick_of_death</title>
<path fill="none" stroke="#d9d9d9" d="M253.56,-3331.43C274.36,-3337.33 298.28,-3343.08 320.5,-3346 450.5,-3363.07 484.74,-3355.59 615.5,-3346 630.22,-3344.92 645.86,-3343.12 660.85,-3341.06"/>
<polygon fill="#d9d9d9" stroke="#d9d9d9" points="661.26,-3344.53 670.67,-3339.66 660.27,-3337.6 661.26,-3344.53"/>
</g>
<!-- wellspring_of_power&#45;&gt;flick_of_death -->
<g id="edge27" class="edge">
<title>wellspring_of_power&#45;&gt;flick_of_death</title>
<path fill="none" stroke="#d9d9d9" d="M565.18,-3318.37C596.67,-3320.13 631.2,-3322.06 661.03,-3323.73"/>
<polygon fill="#d9d9d9" stroke="#d9d9d9" points="660.53,-3327.21 670.71,-3324.27 660.92,-3320.22 660.53,-3327.21"/>
</g>
<!-- focused_breathing&#45;&gt;optimized_flow -->
<g id="edge30" class="edge">
<title>focused_breathing&#45;&gt;optimized_flow</title>
<path fill="none" stroke="yellow" d="M196,-3586.37C196,-3584.38 196,-3582.39 196,-3580.4"/>
<polygon fill="yellow" stroke="yellow" points="192.5,-3586.24 196,-3596.24 199.5,-3586.24 192.5,-3586.24"/>
<polygon fill="yellow" stroke="yellow" points="199.5,-3580.79 196,-3570.79 192.5,-3580.79 199.5,-3580.79"/>
</g>
<!-- extended_breath_split_strike -->
<g id="node36" class="node">
<title>extended_breath_split_strike</title>
<path fill="none" stroke="#d9d9d9" d="M569,-3634C569,-3634 367,-3634 367,-3634 361,-3634 355,-3628 355,-3622 355,-3622 355,-3610 355,-3610 355,-3604 361,-3598 367,-3598 367,-3598 569,-3598 569,-3598 575,-3598 581,-3604 581,-3610 581,-3610 581,-3622 581,-3622 581,-3628 575,-3634 569,-3634"/>
<text text-anchor="middle" x="468" y="-3610.95" font-family="Helvetica,sans-Serif" font-size="14.00" fill="#e5e5e5">Extended Breath: Split Strike (35)</text>
</g>
<!-- focused_breathing&#45;&gt;extended_breath_split_strike -->
<g id="edge37" class="edge">
<title>focused_breathing&#45;&gt;extended_breath_split_strike</title>
<path fill="none" stroke="#d9d9d9" d="M289.16,-3616C306.62,-3616 325.15,-3616 343.39,-3616"/>
<polygon fill="#d9d9d9" stroke="#d9d9d9" points="343.19,-3619.5 353.19,-3616 343.19,-3612.5 343.19,-3619.5"/>
</g>
<!-- optimized_flow&#45;&gt;extended_breath_split_strike -->
<g id="edge38" class="edge">
<title>optimized_flow&#45;&gt;extended_breath_split_strike</title>
<path fill="none" stroke="#d9d9d9" d="M273.65,-3569.45C306.57,-3577.38 345.22,-3586.68 379.28,-3594.88"/>
<polygon fill="#d9d9d9" stroke="#d9d9d9" points="378.15,-3598.21 388.69,-3597.15 379.78,-3591.4 378.15,-3598.21"/>
</g>
<!-- redistribution_prowess&#45;&gt;redistribution_power -->
<g id="edge34" class="edge">
<title>redistribution_prowess&#45;&gt;redistribution_power</title>
<path fill="none" stroke="yellow" d="M196,-3710.4C196,-3712.39 196,-3714.38 196,-3716.37"/>
<polygon fill="yellow" stroke="yellow" points="199.5,-3710.79 196,-3700.79 192.5,-3710.79 199.5,-3710.79"/>
<polygon fill="yellow" stroke="yellow" points="192.5,-3716.24 196,-3726.24 199.5,-3716.24 192.5,-3716.24"/>
</g>
<!-- redistribution_power&#45;&gt;redistribution_weight -->
<g id="edge35" class="edge">
<title>redistribution_power&#45;&gt;redistribution_weight</title>
<path fill="none" stroke="yellow" d="M96.44,-3722.65C89.28,-3716.59 83.76,-3709 80.94,-3699.5 70.44,-3664.14 70.44,-3568.86 80.94,-3533.5 83.62,-3524.47 88.72,-3517.13 95.35,-3511.18"/>
<polygon fill="yellow" stroke="yellow" points="94.11,-3725.29 104.3,-3728.2 98.15,-3719.57 94.11,-3725.29"/>
<polygon fill="yellow" stroke="yellow" points="97.35,-3514.05 103.27,-3505.27 93.16,-3508.45 97.35,-3514.05"/>
</g>
<!-- redistribution_power&#45;&gt;extended_breath_split_strike -->
<g id="edge39" class="edge">
<title>redistribution_power&#45;&gt;extended_breath_split_strike</title>
<path fill="none" stroke="#d9d9d9" d="M263.04,-3727.52C275.01,-3723.51 287.26,-3718.97 298.5,-3714 345.97,-3693.02 397.04,-3662.01 430.35,-3640.51"/>
<polygon fill="#d9d9d9" stroke="#d9d9d9" points="431.94,-3643.66 438.41,-3635.27 428.12,-3637.79 431.94,-3643.66"/>
</g>
<!-- redistribution_weight&#45;&gt;redistribution_prowess -->
<g id="edge36" class="edge">
<title>redistribution_weight&#45;&gt;redistribution_prowess</title>
<path fill="none" stroke="yellow" d="M105.78,-3509.26C100.35,-3512.14 95.16,-3515.37 90.38,-3519 84.25,-3523.64 83.13,-3526.13 80.94,-3533.5 74.55,-3555.02 74.55,-3612.98 80.94,-3634.5 83.45,-3642.95 88.09,-3649.89 94.12,-3655.58"/>
<polygon fill="yellow" stroke="yellow" points="106.91,-3512.6 114.4,-3505.1 103.87,-3506.3 106.91,-3512.6"/>
<polygon fill="yellow" stroke="yellow" points="91.9,-3658.29 101.95,-3661.66 96.2,-3652.76 91.9,-3658.29"/>
</g>
<!-- pptec -->
<g id="node38" class="node">
<title>pptec</title>
<path fill="none" stroke="#d9d9d9" d="M603.5,-3207C603.5,-3207 332.5,-3207 332.5,-3207 326.5,-3207 320.5,-3201 320.5,-3195 320.5,-3195 320.5,-3183 320.5,-3183 320.5,-3177 326.5,-3171 332.5,-3171 332.5,-3171 603.5,-3171 603.5,-3171 609.5,-3171 615.5,-3177 615.5,-3183 615.5,-3183 615.5,-3195 615.5,-3195 615.5,-3201 609.5,-3207 603.5,-3207"/>
<text text-anchor="middle" x="468" y="-3183.95" font-family="Helvetica,sans-Serif" font-size="14.00" fill="#e5e5e5">Post&#45;Physical Tri&#45;Elemental Conversion (20)</text>
</g>
<!-- tri_elemental_conversion&#45;&gt;pptec -->
<g id="edge41" class="edge">
<title>tri_elemental_conversion&#45;&gt;pptec</title>
<path fill="none" stroke="#d9d9d9" d="M210.7,-3012.4C230.42,-3039.01 267.82,-3089.88 298.5,-3134 306.76,-3145.87 306.26,-3154.11 317.33,-3163.87"/>
<polygon fill="#d9d9d9" stroke="#d9d9d9" points="315.12,-3166.59 325.26,-3169.65 319.25,-3160.93 315.12,-3166.59"/>
</g>
<!-- tri_elemental_absorption -->
<g id="node39" class="node">
<title>tri_elemental_absorption</title>
<path fill="none" stroke="#d9d9d9" d="M827.5,-3236C827.5,-3236 649.5,-3236 649.5,-3236 643.5,-3236 637.5,-3230 637.5,-3224 637.5,-3224 637.5,-3212 637.5,-3212 637.5,-3206 643.5,-3200 649.5,-3200 649.5,-3200 827.5,-3200 827.5,-3200 833.5,-3200 839.5,-3206 839.5,-3212 839.5,-3212 839.5,-3224 839.5,-3224 839.5,-3230 833.5,-3236 827.5,-3236"/>
<text text-anchor="middle" x="738.5" y="-3212.95" font-family="Helvetica,sans-Serif" font-size="14.00" fill="#e5e5e5">Tri&#45;Elemental Absorption (30)</text>
</g>
<!-- tri_elemental_conversion&#45;&gt;tri_elemental_absorption -->
<g id="edge42" class="edge">
<title>tri_elemental_conversion&#45;&gt;tri_elemental_absorption</title>
<path fill="none" stroke="#d9d9d9" d="M214,-3012.44C236.57,-3037.9 276.18,-3086.11 298.5,-3134 315.53,-3170.54 288.72,-3197.19 320.5,-3222 423.38,-3302.33 588.18,-3267.53 676.65,-3239.92"/>
<polygon fill="#d9d9d9" stroke="#d9d9d9" points="677.67,-3243.27 686.13,-3236.89 675.54,-3236.6 677.67,-3243.27"/>
</g>
<!-- fireball -->
<g id="node40" class="node">
<title>fireball</title>
<path fill="none" stroke="#d9d9d9" d="M501.88,-3012C501.88,-3012 434.12,-3012 434.12,-3012 428.12,-3012 422.12,-3006 422.12,-3000 422.12,-3000 422.12,-2988 422.12,-2988 422.12,-2982 428.12,-2976 434.12,-2976 434.12,-2976 501.88,-2976 501.88,-2976 507.88,-2976 513.88,-2982 513.88,-2988 513.88,-2988 513.88,-3000 513.88,-3000 513.88,-3006 507.88,-3012 501.88,-3012"/>
<text text-anchor="middle" x="468" y="-2988.95" font-family="Helvetica,sans-Serif" font-size="14.00" fill="#e5e5e5">Fireball (25)</text>
</g>
<!-- tri_elemental_conversion&#45;&gt;fireball -->
<g id="edge44" class="edge">
<title>tri_elemental_conversion&#45;&gt;fireball</title>
<path fill="none" stroke="#d9d9d9" d="M298.69,-2994C336.5,-2994 378.03,-2994 410.38,-2994"/>
<polygon fill="#d9d9d9" stroke="#d9d9d9" points="410.34,-2997.5 420.34,-2994 410.34,-2990.5 410.34,-2997.5"/>
</g>
<!-- ignition_blast -->
<g id="node41" class="node">
<title>ignition_blast</title>
<path fill="none" stroke="#d9d9d9" d="M519.12,-3077C519.12,-3077 416.88,-3077 416.88,-3077 410.88,-3077 404.88,-3071 404.88,-3065 404.88,-3065 404.88,-3053 404.88,-3053 404.88,-3047 410.88,-3041 416.88,-3041 416.88,-3041 519.12,-3041 519.12,-3041 525.12,-3041 531.12,-3047 531.12,-3053 531.12,-3053 531.12,-3065 531.12,-3065 531.12,-3071 525.12,-3077 519.12,-3077"/>
<text text-anchor="middle" x="468" y="-3053.95" font-family="Helvetica,sans-Serif" font-size="14.00" fill="#e5e5e5">Ignition Blast (25)</text>
</g>
<!-- tri_elemental_conversion&#45;&gt;ignition_blast -->
<g id="edge45" class="edge">
<title>tri_elemental_conversion&#45;&gt;ignition_blast</title>
<path fill="none" stroke="#d9d9d9" d="M263.84,-3012.46C282.16,-3017.36 302.06,-3022.52 320.5,-3027 344.09,-3032.72 369.93,-3038.52 393.25,-3043.59"/>
<polygon fill="#d9d9d9" stroke="#d9d9d9" points="392.49,-3047 403,-3045.69 393.96,-3040.16 392.49,-3047"/>
</g>
<!-- seizing_shock -->
<g id="node50" class="node">
<title>seizing_shock</title>
<path fill="none" stroke="#d9d9d9" d="M523.62,-2695C523.62,-2695 412.38,-2695 412.38,-2695 406.38,-2695 400.38,-2689 400.38,-2683 400.38,-2683 400.38,-2671 400.38,-2671 400.38,-2665 406.38,-2659 412.38,-2659 412.38,-2659 523.62,-2659 523.62,-2659 529.62,-2659 535.62,-2665 535.62,-2671 535.62,-2671 535.62,-2683 535.62,-2683 535.62,-2689 529.62,-2695 523.62,-2695"/>
<text text-anchor="middle" x="468" y="-2671.95" font-family="Helvetica,sans-Serif" font-size="14.00" fill="#e5e5e5">Seizing Shock (25)</text>
</g>
<!-- tri_elemental_conversion&#45;&gt;seizing_shock -->
<g id="edge64" class="edge">
<title>tri_elemental_conversion&#45;&gt;seizing_shock</title>
<path fill="none" stroke="#d9d9d9" d="M202.79,-2975.52C216.87,-2933.06 256.52,-2827.14 320.5,-2761 345.75,-2734.89 380.88,-2714.38 410.4,-2700.16"/>
<polygon fill="#d9d9d9" stroke="#d9d9d9" points="411.64,-2703.45 419.21,-2696.04 408.67,-2697.11 411.64,-2703.45"/>
</g>
<!-- verglas_cascade -->
<g id="node54" class="node">
<title>verglas_cascade</title>
<path fill="none" stroke="#d9d9d9" d="M533.38,-2877C533.38,-2877 402.62,-2877 402.62,-2877 396.62,-2877 390.62,-2871 390.62,-2865 390.62,-2865 390.62,-2853 390.62,-2853 390.62,-2847 396.62,-2841 402.62,-2841 402.62,-2841 533.38,-2841 533.38,-2841 539.38,-2841 545.38,-2847 545.38,-2853 545.38,-2853 545.38,-2865 545.38,-2865 545.38,-2871 539.38,-2877 533.38,-2877"/>
<text text-anchor="middle" x="468" y="-2853.95" font-family="Helvetica,sans-Serif" font-size="14.00" fill="#e5e5e5">Verglas Cascade (25)</text>
</g>
<!-- tri_elemental_conversion&#45;&gt;verglas_cascade -->
<g id="edge70" class="edge">
<title>tri_elemental_conversion&#45;&gt;verglas_cascade</title>
<path fill="none" stroke="#d9d9d9" d="M233.98,-2975.51C282.31,-2951.34 367.03,-2908.99 419.91,-2882.55"/>
<polygon fill="#d9d9d9" stroke="#d9d9d9" points="421.31,-2885.76 428.68,-2878.16 418.17,-2879.5 421.31,-2885.76"/>
</g>
<!-- pptec&#45;&gt;tri_elemental_absorption -->
<g id="edge43" class="edge">
<title>pptec&#45;&gt;tri_elemental_absorption</title>
<path fill="none" stroke="#d9d9d9" d="M615.82,-3204.86C619.21,-3205.22 622.58,-3205.59 625.94,-3205.95"/>
<polygon fill="#d9d9d9" stroke="#d9d9d9" points="625.44,-3209.42 635.75,-3207.01 626.19,-3202.46 625.44,-3209.42"/>
</g>
<!-- fireball&#45;&gt;ignition_blast -->
<g id="edge47" class="edge">
<title>fireball&#45;&gt;ignition_blast</title>
<path fill="none" stroke="yellow" d="M468,-3023.4C468,-3025.39 468,-3027.38 468,-3029.37"/>
<polygon fill="yellow" stroke="yellow" points="471.5,-3023.79 468,-3013.79 464.5,-3023.79 471.5,-3023.79"/>
<polygon fill="yellow" stroke="yellow" points="464.5,-3029.24 468,-3039.24 471.5,-3029.24 464.5,-3029.24"/>
</g>
<!-- hellrazer_linear -->
<g id="node42" class="node">
<title>hellrazer_linear</title>
<path fill="none" stroke="#d9d9d9" d="M800.12,-3019C800.12,-3019 676.88,-3019 676.88,-3019 670.88,-3019 664.88,-3013 664.88,-3007 664.88,-3007 664.88,-2995 664.88,-2995 664.88,-2989 670.88,-2983 676.88,-2983 676.88,-2983 800.12,-2983 800.12,-2983 806.12,-2983 812.12,-2989 812.12,-2995 812.12,-2995 812.12,-3007 812.12,-3007 812.12,-3013 806.12,-3019 800.12,-3019"/>
<text text-anchor="middle" x="738.5" y="-2995.95" font-family="Helvetica,sans-Serif" font-size="14.00" fill="#e5e5e5">Hellrazer: Linear (25)</text>
</g>
<!-- fireball&#45;&gt;hellrazer_linear -->
<g id="edge46" class="edge">
<title>fireball&#45;&gt;hellrazer_linear</title>
<path fill="none" stroke="#d9d9d9" d="M514.24,-2995.18C552.06,-2996.17 607.04,-2997.6 652.97,-2998.8"/>
<polygon fill="#d9d9d9" stroke="#d9d9d9" points="652.83,-3002.29 662.92,-2999.06 653.02,-2995.3 652.83,-3002.29"/>
</g>
<!-- heat_metal -->
<g id="node43" class="node">
<title>heat_metal</title>
<path fill="none" stroke="#d9d9d9" d="M782.5,-3084C782.5,-3084 694.5,-3084 694.5,-3084 688.5,-3084 682.5,-3078 682.5,-3072 682.5,-3072 682.5,-3060 682.5,-3060 682.5,-3054 688.5,-3048 694.5,-3048 694.5,-3048 782.5,-3048 782.5,-3048 788.5,-3048 794.5,-3054 794.5,-3060 794.5,-3060 794.5,-3072 794.5,-3072 794.5,-3078 788.5,-3084 782.5,-3084"/>
<text text-anchor="middle" x="738.5" y="-3060.95" font-family="Helvetica,sans-Serif" font-size="14.00" fill="#e5e5e5">Heat Metal (30)</text>
</g>
<!-- fireball&#45;&gt;heat_metal -->
<g id="edge48" class="edge">
<title>fireball&#45;&gt;heat_metal</title>
<path fill="none" stroke="yellow" d="M525.1,-3005.43C552.5,-3011.32 585.87,-3018.94 615.5,-3027 616.3,-3027.22 643.03,-3035.76 671.26,-3044.79"/>
<polygon fill="yellow" stroke="yellow" points="526.12,-3002.07 515.61,-3003.41 524.67,-3008.91 526.12,-3002.07"/>
<polygon fill="yellow" stroke="yellow" points="670.07,-3048.09 680.66,-3047.8 672.21,-3041.42 670.07,-3048.09"/>
</g>
<!-- falling_haze -->
<g id="node58" class="node">
<title>falling_haze</title>
<path fill="none" stroke="#d9d9d9" d="M787.75,-2954C787.75,-2954 689.25,-2954 689.25,-2954 683.25,-2954 677.25,-2948 677.25,-2942 677.25,-2942 677.25,-2930 677.25,-2930 677.25,-2924 683.25,-2918 689.25,-2918 689.25,-2918 787.75,-2918 787.75,-2918 793.75,-2918 799.75,-2924 799.75,-2930 799.75,-2930 799.75,-2942 799.75,-2942 799.75,-2948 793.75,-2954 787.75,-2954"/>
<text text-anchor="middle" x="738.5" y="-2930.95" font-family="Helvetica,sans-Serif" font-size="14.00" fill="#e5e5e5">Falling Haze (25)</text>
</g>
<!-- fireball&#45;&gt;falling_haze -->
<g id="edge75" class="edge">
<title>fireball&#45;&gt;falling_haze</title>
<path fill="none" stroke="#d9d9d9" d="M514.24,-2984.23C555.7,-2975.27 617.77,-2961.86 665.95,-2951.46"/>
<polygon fill="#d9d9d9" stroke="#d9d9d9" points="666.42,-2954.94 675.45,-2949.4 664.94,-2948.09 666.42,-2954.94"/>
</g>
<!-- ignition_blast&#45;&gt;hellrazer_linear -->
<g id="edge49" class="edge">
<title>ignition_blast&#45;&gt;hellrazer_linear</title>
<path fill="none" stroke="yellow" d="M542.62,-3043.1C577.08,-3035.65 618.3,-3026.75 653.93,-3019.05"/>
<polygon fill="yellow" stroke="yellow" points="542.13,-3039.62 533.09,-3045.16 543.61,-3046.46 542.13,-3039.62"/>
<polygon fill="yellow" stroke="yellow" points="654.28,-3022.56 663.32,-3017.02 652.8,-3015.72 654.28,-3022.56"/>
</g>
<!-- ignition_blast&#45;&gt;heat_metal -->
<g id="edge63" class="edge">
<title>ignition_blast&#45;&gt;heat_metal</title>
<path fill="none" stroke="#d9d9d9" d="M531.61,-3060.63C573.34,-3061.72 628.14,-3063.15 670.71,-3064.26"/>
<polygon fill="#d9d9d9" stroke="#d9d9d9" points="670.49,-3067.75 680.57,-3064.52 670.67,-3060.76 670.49,-3067.75"/>
</g>
<!-- fan_the_flames -->
<g id="node48" class="node">
<title>fan_the_flames</title>
<path fill="none" stroke="#d9d9d9" d="M1536.38,-3117C1536.38,-3117 1416.88,-3117 1416.88,-3117 1410.88,-3117 1404.88,-3111 1404.88,-3105 1404.88,-3105 1404.88,-3093 1404.88,-3093 1404.88,-3087 1410.88,-3081 1416.88,-3081 1416.88,-3081 1536.38,-3081 1536.38,-3081 1542.38,-3081 1548.38,-3087 1548.38,-3093 1548.38,-3093 1548.38,-3105 1548.38,-3105 1548.38,-3111 1542.38,-3117 1536.38,-3117"/>
<text text-anchor="middle" x="1476.62" y="-3093.95" font-family="Helvetica,sans-Serif" font-size="14.00" fill="#e5e5e5">Fan the Flames (35)</text>
</g>
<!-- ignition_blast&#45;&gt;fan_the_flames -->
<g id="edge56" class="edge">
<title>ignition_blast&#45;&gt;fan_the_flames</title>
<path fill="none" stroke="#d9d9d9" d="M531.4,-3075.96C562.99,-3084 602.06,-3093.11 637.5,-3099 773.94,-3121.69 808.94,-3129 947.25,-3129 947.25,-3129 947.25,-3129 1126.75,-3129 1239.46,-3129 1268.52,-3136.85 1380.25,-3122 1385.18,-3121.34 1390.22,-3120.54 1395.3,-3119.63"/>
<polygon fill="#d9d9d9" stroke="#d9d9d9" points="1395.76,-3123.1 1404.92,-3117.77 1394.43,-3116.23 1395.76,-3123.1"/>
</g>
<!-- ignition_blast&#45;&gt;falling_haze -->
<g id="edge76" class="edge">
<title>ignition_blast&#45;&gt;falling_haze</title>
<path fill="none" stroke="#d9d9d9" d="M531.38,-3059.12C560.16,-3056.03 592.88,-3047.59 615.5,-3027 639.3,-3005.33 613.72,-2979.69 637.5,-2958 645.54,-2950.67 655.46,-2945.58 665.89,-2942.09"/>
<polygon fill="#d9d9d9" stroke="#d9d9d9" points="666.76,-2945.48 675.44,-2939.41 664.86,-2938.74 666.76,-2945.48"/>
</g>
<!-- hellrazer_lateral -->
<g id="node44" class="node">
<title>hellrazer_lateral</title>
<path fill="none" stroke="#d9d9d9" d="M1011.75,-3037C1011.75,-3037 884.75,-3037 884.75,-3037 878.75,-3037 872.75,-3031 872.75,-3025 872.75,-3025 872.75,-3013 872.75,-3013 872.75,-3007 878.75,-3001 884.75,-3001 884.75,-3001 1011.75,-3001 1011.75,-3001 1017.75,-3001 1023.75,-3007 1023.75,-3013 1023.75,-3013 1023.75,-3025 1023.75,-3025 1023.75,-3031 1017.75,-3037 1011.75,-3037"/>
<text text-anchor="middle" x="948.25" y="-3013.95" font-family="Helvetica,sans-Serif" font-size="14.00" fill="#e5e5e5">Hellrazer: Lateral (25)</text>
</g>
<!-- hellrazer_linear&#45;&gt;hellrazer_lateral -->
<g id="edge51" class="edge">
<title>hellrazer_linear&#45;&gt;hellrazer_lateral</title>
<path fill="none" stroke="#d9d9d9" d="M812.45,-3007.32C828.22,-3008.69 845.04,-3010.14 861.25,-3011.55"/>
<polygon fill="#d9d9d9" stroke="#d9d9d9" points="860.59,-3015 870.86,-3012.38 861.19,-3008.03 860.59,-3015"/>
</g>
<!-- hellrazer_rekindle -->
<g id="node46" class="node">
<title>hellrazer_rekindle</title>
<path fill="none" stroke="#d9d9d9" d="M1368.25,-3020C1368.25,-3020 1228.5,-3020 1228.5,-3020 1222.5,-3020 1216.5,-3014 1216.5,-3008 1216.5,-3008 1216.5,-2996 1216.5,-2996 1216.5,-2990 1222.5,-2984 1228.5,-2984 1228.5,-2984 1368.25,-2984 1368.25,-2984 1374.25,-2984 1380.25,-2990 1380.25,-2996 1380.25,-2996 1380.25,-3008 1380.25,-3008 1380.25,-3014 1374.25,-3020 1368.25,-3020"/>
<text text-anchor="middle" x="1298.38" y="-2996.95" font-family="Helvetica,sans-Serif" font-size="14.00" fill="#e5e5e5">Hellrazer: Rekindle (35)</text>
</g>
<!-- hellrazer_linear&#45;&gt;hellrazer_rekindle -->
<g id="edge53" class="edge">
<title>hellrazer_linear&#45;&gt;hellrazer_rekindle</title>
<path fill="none" stroke="#d9d9d9" d="M812.6,-2991.23C828.68,-2989.47 845.64,-2987.91 861.5,-2987 979.91,-2980.23 1116.59,-2987.36 1204.86,-2993.91"/>
<polygon fill="#d9d9d9" stroke="#d9d9d9" points="1204.44,-2997.39 1214.68,-2994.66 1204.97,-2990.41 1204.44,-2997.39"/>
</g>
<!-- hellrazer_linear&#45;&gt;fan_the_flames -->
<g id="edge57" class="edge">
<title>hellrazer_linear&#45;&gt;fan_the_flames</title>
<path fill="none" stroke="#d9d9d9" d="M806.83,-3019.44C818.04,-3023.57 829.32,-3028.41 839.5,-3034 850.57,-3040.08 849.97,-3046.83 861.5,-3052 1037.96,-3131.12 1271.6,-3121.91 1393.56,-3109.68"/>
<polygon fill="#d9d9d9" stroke="#d9d9d9" points="1393.56,-3113.2 1403.14,-3108.69 1392.83,-3106.24 1393.56,-3113.2"/>
</g>
<!-- heat_metal&#45;&gt;hellrazer_linear -->
<g id="edge50" class="edge">
<title>heat_metal&#45;&gt;hellrazer_linear</title>
<path fill="none" stroke="yellow" d="M738.5,-3036.37C738.5,-3034.38 738.5,-3032.39 738.5,-3030.4"/>
<polygon fill="yellow" stroke="yellow" points="735,-3036.24 738.5,-3046.24 742,-3036.24 735,-3036.24"/>
<polygon fill="yellow" stroke="yellow" points="742,-3030.79 738.5,-3020.79 735,-3030.79 742,-3030.79"/>
</g>
<!-- hellrazer_ring -->
<g id="node45" class="node">
<title>hellrazer_ring</title>
<path fill="none" stroke="#d9d9d9" d="M1182.5,-3068C1182.5,-3068 1069,-3068 1069,-3068 1063,-3068 1057,-3062 1057,-3056 1057,-3056 1057,-3044 1057,-3044 1057,-3038 1063,-3032 1069,-3032 1069,-3032 1182.5,-3032 1182.5,-3032 1188.5,-3032 1194.5,-3038 1194.5,-3044 1194.5,-3044 1194.5,-3056 1194.5,-3056 1194.5,-3062 1188.5,-3068 1182.5,-3068"/>
<text text-anchor="middle" x="1125.75" y="-3044.95" font-family="Helvetica,sans-Serif" font-size="14.00" fill="#e5e5e5">Hellrazer: Ring (30)</text>
</g>
<!-- hellrazer_lateral&#45;&gt;hellrazer_ring -->
<g id="edge52" class="edge">
<title>hellrazer_lateral&#45;&gt;hellrazer_ring</title>
<path fill="none" stroke="#d9d9d9" d="M1024.19,-3032.24C1031.28,-3033.49 1038.49,-3034.76 1045.62,-3036.02"/>
<polygon fill="#d9d9d9" stroke="#d9d9d9" points="1044.78,-3039.43 1055.24,-3037.72 1046,-3032.54 1044.78,-3039.43"/>
</g>
<!-- hellrazer_lateral&#45;&gt;hellrazer_rekindle -->
<g id="edge54" class="edge">
<title>hellrazer_lateral&#45;&gt;hellrazer_rekindle</title>
<path fill="none" stroke="#d9d9d9" d="M1023.93,-3015.35C1076.83,-3012.77 1148.14,-3009.29 1204.67,-3006.53"/>
<polygon fill="#d9d9d9" stroke="#d9d9d9" points="1204.81,-3010.02 1214.62,-3006.04 1204.46,-3003.03 1204.81,-3010.02"/>
</g>
<!-- hellrazer_ring&#45;&gt;hellrazer_rekindle -->
<g id="edge55" class="edge">
<title>hellrazer_ring&#45;&gt;hellrazer_rekindle</title>
<path fill="none" stroke="#d9d9d9" d="M1192.23,-3031.58C1201.55,-3028.96 1211.21,-3026.24 1220.72,-3023.56"/>
<polygon fill="#d9d9d9" stroke="#d9d9d9" points="1221.65,-3026.94 1230.33,-3020.86 1219.76,-3020.2 1221.65,-3026.94"/>
</g>
<!-- hellrazer_engulf -->
<g id="node47" class="node">
<title>hellrazer_engulf</title>
<path fill="none" stroke="#d9d9d9" d="M1539,-3052C1539,-3052 1414.25,-3052 1414.25,-3052 1408.25,-3052 1402.25,-3046 1402.25,-3040 1402.25,-3040 1402.25,-3028 1402.25,-3028 1402.25,-3022 1408.25,-3016 1414.25,-3016 1414.25,-3016 1539,-3016 1539,-3016 1545,-3016 1551,-3022 1551,-3028 1551,-3028 1551,-3040 1551,-3040 1551,-3046 1545,-3052 1539,-3052"/>
<text text-anchor="middle" x="1476.62" y="-3028.95" font-family="Helvetica,sans-Serif" font-size="14.00" fill="#e5e5e5">Hellrazer: Engulf (35)</text>
</g>
<!-- hellrazer_ring&#45;&gt;hellrazer_engulf -->
<g id="edge61" class="edge">
<title>hellrazer_ring&#45;&gt;hellrazer_engulf</title>
<path fill="none" stroke="#d9d9d9" d="M1194.84,-3046.88C1250.83,-3044.31 1330.44,-3040.66 1390.6,-3037.9"/>
<polygon fill="#d9d9d9" stroke="#d9d9d9" points="1390.64,-3041.4 1400.46,-3037.45 1390.31,-3034.41 1390.64,-3041.4"/>
</g>
<!-- hellrazer_rekindle&#45;&gt;hellrazer_engulf -->
<g id="edge62" class="edge">
<title>hellrazer_rekindle&#45;&gt;hellrazer_engulf</title>
<path fill="none" stroke="#d9d9d9" d="M1380.54,-3016.74C1383.99,-3017.36 1387.46,-3017.99 1390.93,-3018.62"/>
<polygon fill="#d9d9d9" stroke="#d9d9d9" points="1389.99,-3022.01 1400.45,-3020.35 1391.24,-3015.12 1389.99,-3022.01"/>
</g>
<!-- hellrazer_rekindle&#45;&gt;fan_the_flames -->
<g id="edge58" class="edge">
<title>hellrazer_rekindle&#45;&gt;fan_the_flames</title>
<path fill="none" stroke="#d9d9d9" d="M1325.78,-3020.26C1346.18,-3033.97 1375.37,-3052.75 1402.25,-3067 1407.99,-3070.04 1414.09,-3073.04 1420.21,-3075.91"/>
<polygon fill="#d9d9d9" stroke="#d9d9d9" points="1418.56,-3079.01 1429.11,-3079.98 1421.47,-3072.64 1418.56,-3079.01"/>
</g>
<!-- fervent_emotions -->
<g id="node49" class="node">
<title>fervent_emotions</title>
<path fill="none" stroke="#d9d9d9" d="M1730.75,-3061C1730.75,-3061 1585,-3061 1585,-3061 1579,-3061 1573,-3055 1573,-3049 1573,-3049 1573,-3037 1573,-3037 1573,-3031 1579,-3025 1585,-3025 1585,-3025 1730.75,-3025 1730.75,-3025 1736.75,-3025 1742.75,-3031 1742.75,-3037 1742.75,-3037 1742.75,-3049 1742.75,-3049 1742.75,-3055 1736.75,-3061 1730.75,-3061"/>
<text text-anchor="middle" x="1657.88" y="-3037.95" font-family="Helvetica,sans-Serif" font-size="14.00" fill="#e5e5e5">Fervent Emotion (30/35)</text>
</g>
<!-- hellrazer_rekindle&#45;&gt;fervent_emotions -->
<g id="edge59" class="edge">
<title>hellrazer_rekindle&#45;&gt;fervent_emotions</title>
<path fill="none" stroke="#d9d9d9" d="M1380.53,-2994.48C1430.18,-2991.73 1494.75,-2991.49 1551,-3002 1570.67,-3005.68 1591.38,-3012.88 1609.23,-3020.24"/>
<polygon fill="#d9d9d9" stroke="#d9d9d9" points="1607.68,-3023.39 1618.26,-3024.1 1610.43,-3016.95 1607.68,-3023.39"/>
</g>
<!-- fan_the_flames&#45;&gt;fervent_emotions -->
<g id="edge60" class="edge">
<title>fan_the_flames&#45;&gt;fervent_emotions</title>
<path fill="none" stroke="#d9d9d9" d="M1536.81,-3080.51C1552.88,-3075.49 1570.42,-3070.01 1587.01,-3064.83"/>
<polygon fill="#d9d9d9" stroke="#d9d9d9" points="1587.8,-3068.25 1596.3,-3061.92 1585.71,-3061.56 1587.8,-3068.25"/>
</g>
<!-- lightning_tether -->
<g id="node51" class="node">
<title>lightning_tether</title>
<path fill="none" stroke="#d9d9d9" d="M800.12,-2727C800.12,-2727 676.88,-2727 676.88,-2727 670.88,-2727 664.88,-2721 664.88,-2715 664.88,-2715 664.88,-2703 664.88,-2703 664.88,-2697 670.88,-2691 676.88,-2691 676.88,-2691 800.12,-2691 800.12,-2691 806.12,-2691 812.12,-2697 812.12,-2703 812.12,-2703 812.12,-2715 812.12,-2715 812.12,-2721 806.12,-2727 800.12,-2727"/>
<text text-anchor="middle" x="738.5" y="-2703.95" font-family="Helvetica,sans-Serif" font-size="14.00" fill="#e5e5e5">Lightning Tether (25)</text>
</g>
<!-- seizing_shock&#45;&gt;lightning_tether -->
<g id="edge65" class="edge">
<title>seizing_shock&#45;&gt;lightning_tether</title>
<path fill="none" stroke="#d9d9d9" d="M536.06,-2684.99C571.69,-2689.24 615.82,-2694.5 653.69,-2699.01"/>
<polygon fill="#d9d9d9" stroke="#d9d9d9" points="652.85,-2702.44 663.2,-2700.14 653.68,-2695.49 652.85,-2702.44"/>
</g>
<!-- ride_the_lightning -->
<g id="node52" class="node">
<title>ride_the_lightning</title>
<path fill="none" stroke="#d9d9d9" d="M806.12,-2662C806.12,-2662 670.88,-2662 670.88,-2662 664.88,-2662 658.88,-2656 658.88,-2650 658.88,-2650 658.88,-2638 658.88,-2638 658.88,-2632 664.88,-2626 670.88,-2626 670.88,-2626 806.12,-2626 806.12,-2626 812.12,-2626 818.12,-2632 818.12,-2638 818.12,-2638 818.12,-2650 818.12,-2650 818.12,-2656 812.12,-2662 806.12,-2662"/>
<text text-anchor="middle" x="738.5" y="-2638.95" font-family="Helvetica,sans-Serif" font-size="14.00" fill="#e5e5e5">Ride the Lightning (30)</text>
</g>
<!-- seizing_shock&#45;&gt;ride_the_lightning -->
<g id="edge66" class="edge">
<title>seizing_shock&#45;&gt;ride_the_lightning</title>
<path fill="none" stroke="#d9d9d9" d="M536.06,-2668.76C569.7,-2664.62 610.93,-2659.56 647.31,-2655.09"/>
<polygon fill="#d9d9d9" stroke="#d9d9d9" points="647.43,-2658.6 656.92,-2653.9 646.57,-2651.65 647.43,-2658.6"/>
</g>
<!-- invoke_lightning -->
<g id="node77" class="node">
<title>invoke_lightning</title>
<path fill="none" stroke="#d9d9d9" d="M800.5,-2577C800.5,-2577 676.5,-2577 676.5,-2577 670.5,-2577 664.5,-2571 664.5,-2565 664.5,-2565 664.5,-2553 664.5,-2553 664.5,-2547 670.5,-2541 676.5,-2541 676.5,-2541 800.5,-2541 800.5,-2541 806.5,-2541 812.5,-2547 812.5,-2553 812.5,-2553 812.5,-2565 812.5,-2565 812.5,-2571 806.5,-2577 800.5,-2577"/>
<text text-anchor="middle" x="738.5" y="-2553.95" font-family="Helvetica,sans-Serif" font-size="14.00" fill="#e5e5e5">Invoke Lightning (40)</text>
</g>
<!-- seizing_shock&#45;&gt;invoke_lightning -->
<g id="edge115" class="edge">
<title>seizing_shock&#45;&gt;invoke_lightning</title>
<path fill="none" stroke="#d9d9d9" d="M515.79,-2658.6C544.69,-2647.05 582.44,-2631.61 615.5,-2617 640.22,-2606.07 667.41,-2593.23 689.83,-2582.41"/>
<polygon fill="#d9d9d9" stroke="#d9d9d9" points="691.26,-2585.6 698.74,-2578.1 688.21,-2579.3 691.26,-2585.6"/>
</g>
<!-- adrenaline_spark -->
<g id="node53" class="node">
<title>adrenaline_spark</title>
<path fill="none" stroke="#d9d9d9" d="M1023,-2694C1023,-2694 873.5,-2694 873.5,-2694 867.5,-2694 861.5,-2688 861.5,-2682 861.5,-2682 861.5,-2670 861.5,-2670 861.5,-2664 867.5,-2658 873.5,-2658 873.5,-2658 1023,-2658 1023,-2658 1029,-2658 1035,-2664 1035,-2670 1035,-2670 1035,-2682 1035,-2682 1035,-2688 1029,-2694 1023,-2694"/>
<text text-anchor="middle" x="948.25" y="-2670.95" font-family="Helvetica,sans-Serif" font-size="14.00" fill="#e5e5e5">Adrenaline Spark (35/40)</text>
</g>
<!-- lightning_tether&#45;&gt;adrenaline_spark -->
<g id="edge68" class="edge">
<title>lightning_tether&#45;&gt;adrenaline_spark</title>
<path fill="none" stroke="#d9d9d9" d="M812.45,-2697.41C824.66,-2695.47 837.5,-2693.43 850.19,-2691.42"/>
<polygon fill="#d9d9d9" stroke="#d9d9d9" points="850.48,-2694.92 859.8,-2689.89 849.38,-2688 850.48,-2694.92"/>
</g>
<!-- ride_the_lightning&#45;&gt;lightning_tether -->
<g id="edge67" class="edge">
<title>ride_the_lightning&#45;&gt;lightning_tether</title>
<path fill="none" stroke="yellow" d="M738.5,-2673.4C738.5,-2675.39 738.5,-2677.38 738.5,-2679.37"/>
<polygon fill="yellow" stroke="yellow" points="742,-2673.79 738.5,-2663.79 735,-2673.79 742,-2673.79"/>
<polygon fill="yellow" stroke="yellow" points="735,-2679.24 738.5,-2689.24 742,-2679.24 735,-2679.24"/>
</g>
<!-- ride_the_lightning&#45;&gt;adrenaline_spark -->
<g id="edge69" class="edge">
<title>ride_the_lightning&#45;&gt;adrenaline_spark</title>
<path fill="none" stroke="#d9d9d9" d="M818.34,-2656.14C828.73,-2657.74 839.48,-2659.4 850.13,-2661.04"/>
<polygon fill="#d9d9d9" stroke="#d9d9d9" points="849.27,-2664.45 859.69,-2662.51 850.34,-2657.53 849.27,-2664.45"/>
</g>
<!-- frost_lane -->
<g id="node55" class="node">
<title>frost_lane</title>
<path fill="none" stroke="#d9d9d9" d="M783.25,-2812C783.25,-2812 693.75,-2812 693.75,-2812 687.75,-2812 681.75,-2806 681.75,-2800 681.75,-2800 681.75,-2788 681.75,-2788 681.75,-2782 687.75,-2776 693.75,-2776 693.75,-2776 783.25,-2776 783.25,-2776 789.25,-2776 795.25,-2782 795.25,-2788 795.25,-2788 795.25,-2800 795.25,-2800 795.25,-2806 789.25,-2812 783.25,-2812"/>
<text text-anchor="middle" x="738.5" y="-2788.95" font-family="Helvetica,sans-Serif" font-size="14.00" fill="#e5e5e5">Frost Lane (25)</text>
</g>
<!-- verglas_cascade&#45;&gt;frost_lane -->
<g id="edge71" class="edge">
<title>verglas_cascade&#45;&gt;frost_lane</title>
<path fill="none" stroke="#d9d9d9" d="M545.22,-2840.55C584.73,-2830.98 632.55,-2819.41 670.61,-2810.19"/>
<polygon fill="#d9d9d9" stroke="#d9d9d9" points="671.21,-2813.65 680.11,-2807.89 669.57,-2806.84 671.21,-2813.65"/>
</g>
<!-- glacial_series -->
<g id="node56" class="node">
<title>glacial_series</title>
<path fill="none" stroke="#d9d9d9" d="M793,-2877C793,-2877 684,-2877 684,-2877 678,-2877 672,-2871 672,-2865 672,-2865 672,-2853 672,-2853 672,-2847 678,-2841 684,-2841 684,-2841 793,-2841 793,-2841 799,-2841 805,-2847 805,-2853 805,-2853 805,-2865 805,-2865 805,-2871 799,-2877 793,-2877"/>
<text text-anchor="middle" x="738.5" y="-2853.95" font-family="Helvetica,sans-Serif" font-size="14.00" fill="#e5e5e5">Glacial Series (25)</text>
</g>
<!-- verglas_cascade&#45;&gt;glacial_series -->
<g id="edge72" class="edge">
<title>verglas_cascade&#45;&gt;glacial_series</title>
<path fill="none" stroke="#d9d9d9" d="M545.58,-2859C581.53,-2859 624.28,-2859 660.31,-2859"/>
<polygon fill="#d9d9d9" stroke="#d9d9d9" points="660.23,-2862.5 670.23,-2859 660.23,-2855.5 660.23,-2862.5"/>
</g>
<!-- verglas_cascade&#45;&gt;falling_haze -->
<g id="edge77" class="edge">
<title>verglas_cascade&#45;&gt;falling_haze</title>
<path fill="none" stroke="#d9d9d9" d="M520.97,-2877.44C554.07,-2888.82 598.01,-2903.24 637.5,-2914 646.62,-2916.49 656.27,-2918.89 665.83,-2921.13"/>
<polygon fill="#d9d9d9" stroke="#d9d9d9" points="664.98,-2924.53 675.51,-2923.36 666.54,-2917.71 664.98,-2924.53"/>
</g>
<!-- frost_lane&#45;&gt;glacial_series -->
<g id="edge73" class="edge">
<title>frost_lane&#45;&gt;glacial_series</title>
<path fill="none" stroke="yellow" d="M738.5,-2823.4C738.5,-2825.39 738.5,-2827.38 738.5,-2829.37"/>
<polygon fill="yellow" stroke="yellow" points="742,-2823.79 738.5,-2813.79 735,-2823.79 742,-2823.79"/>
<polygon fill="yellow" stroke="yellow" points="735,-2829.24 738.5,-2839.24 742,-2829.24 735,-2829.24"/>
</g>
<!-- glacial_barrier -->
<g id="node57" class="node">
<title>glacial_barrier</title>
<path fill="none" stroke="#d9d9d9" d="M1003.12,-2877C1003.12,-2877 893.38,-2877 893.38,-2877 887.38,-2877 881.38,-2871 881.38,-2865 881.38,-2865 881.38,-2853 881.38,-2853 881.38,-2847 887.38,-2841 893.38,-2841 893.38,-2841 1003.12,-2841 1003.12,-2841 1009.12,-2841 1015.12,-2847 1015.12,-2853 1015.12,-2853 1015.12,-2865 1015.12,-2865 1015.12,-2871 1009.12,-2877 1003.12,-2877"/>
<text text-anchor="middle" x="948.25" y="-2853.95" font-family="Helvetica,sans-Serif" font-size="14.00" fill="#e5e5e5">Glacial Barrier (25)</text>
</g>
<!-- glacial_series&#45;&gt;glacial_barrier -->
<g id="edge74" class="edge">
<title>glacial_series&#45;&gt;glacial_barrier</title>
<path fill="none" stroke="#d9d9d9" d="M805.23,-2859C825.79,-2859 848.66,-2859 869.94,-2859"/>
<polygon fill="#d9d9d9" stroke="#d9d9d9" points="869.72,-2862.5 879.72,-2859 869.72,-2855.5 869.72,-2862.5"/>
</g>
<!-- ricochet_guard -->
<g id="node60" class="node">
<title>ricochet_guard</title>
<path fill="none" stroke="#d9d9d9" d="M528.12,-2232C528.12,-2232 407.88,-2232 407.88,-2232 401.88,-2232 395.88,-2226 395.88,-2220 395.88,-2220 395.88,-2208 395.88,-2208 395.88,-2202 401.88,-2196 407.88,-2196 407.88,-2196 528.12,-2196 528.12,-2196 534.12,-2196 540.12,-2202 540.12,-2208 540.12,-2208 540.12,-2220 540.12,-2220 540.12,-2226 534.12,-2232 528.12,-2232"/>
<text text-anchor="middle" x="468" y="-2208.95" font-family="Helvetica,sans-Serif" font-size="14.00" fill="#e5e5e5">Ricochet Guard (25)</text>
</g>
<!-- repulsion&#45;&gt;ricochet_guard -->
<g id="edge79" class="edge">
<title>repulsion&#45;&gt;ricochet_guard</title>
<path fill="none" stroke="#d9d9d9" d="M250.71,-2264.69C272.35,-2259.02 297.57,-2252.55 320.5,-2247 341.23,-2241.98 363.67,-2236.8 384.61,-2232.07"/>
<polygon fill="#d9d9d9" stroke="#d9d9d9" points="385.27,-2235.51 394.26,-2229.91 383.73,-2228.68 385.27,-2235.51"/>
</g>
<!-- pulse_strike -->
<g id="node61" class="node">
<title>pulse_strike</title>
<path fill="none" stroke="#d9d9d9" d="M526.62,-2297C526.62,-2297 409.38,-2297 409.38,-2297 403.38,-2297 397.38,-2291 397.38,-2285 397.38,-2285 397.38,-2273 397.38,-2273 397.38,-2267 403.38,-2261 409.38,-2261 409.38,-2261 526.62,-2261 526.62,-2261 532.62,-2261 538.62,-2267 538.62,-2273 538.62,-2273 538.62,-2285 538.62,-2285 538.62,-2291 532.62,-2297 526.62,-2297"/>
<text text-anchor="middle" x="468" y="-2273.95" font-family="Helvetica,sans-Serif" font-size="14.00" fill="#e5e5e5">Pulse Strike (20/25)</text>
</g>
<!-- repulsion&#45;&gt;pulse_strike -->
<g id="edge80" class="edge">
<title>repulsion&#45;&gt;pulse_strike</title>
<path fill="none" stroke="#d9d9d9" d="M250.99,-2279C289.49,-2279 341.93,-2279 385.5,-2279"/>
<polygon fill="#d9d9d9" stroke="#d9d9d9" points="385.44,-2282.5 395.44,-2279 385.44,-2275.5 385.44,-2282.5"/>
</g>
<!-- propulsion_assault -->
<g id="node62" class="node">
<title>propulsion_assault</title>
<path fill="none" stroke="#d9d9d9" d="M537.5,-2362C537.5,-2362 398.5,-2362 398.5,-2362 392.5,-2362 386.5,-2356 386.5,-2350 386.5,-2350 386.5,-2338 386.5,-2338 386.5,-2332 392.5,-2326 398.5,-2326 398.5,-2326 537.5,-2326 537.5,-2326 543.5,-2326 549.5,-2332 549.5,-2338 549.5,-2338 549.5,-2350 549.5,-2350 549.5,-2356 543.5,-2362 537.5,-2362"/>
<text text-anchor="middle" x="468" y="-2338.95" font-family="Helvetica,sans-Serif" font-size="14.00" fill="#e5e5e5">Propulsion Assault (25)</text>
</g>
<!-- repulsion&#45;&gt;propulsion_assault -->
<g id="edge81" class="edge">
<title>repulsion&#45;&gt;propulsion_assault</title>
<path fill="none" stroke="#d9d9d9" d="M250.97,-2294C272.54,-2299.84 297.64,-2306.45 320.5,-2312 338.1,-2316.27 356.95,-2320.58 375.07,-2324.6"/>
<polygon fill="#d9d9d9" stroke="#d9d9d9" points="374.25,-2328 384.77,-2326.73 375.76,-2321.17 374.25,-2328"/>
</g>
<!-- ricochet_guard&#45;&gt;pulse_strike -->
<g id="edge82" class="edge">
<title>ricochet_guard&#45;&gt;pulse_strike</title>
<path fill="none" stroke="yellow" d="M468,-2243.4C468,-2245.39 468,-2247.38 468,-2249.37"/>
<polygon fill="yellow" stroke="yellow" points="471.5,-2243.79 468,-2233.79 464.5,-2243.79 471.5,-2243.79"/>
<polygon fill="yellow" stroke="yellow" points="464.5,-2249.24 468,-2259.24 471.5,-2249.24 464.5,-2249.24"/>
</g>
<!-- ricochet_guard&#45;&gt;propulsion_assault -->
<g id="edge83" class="edge">
<title>ricochet_guard&#45;&gt;propulsion_assault</title>
<path fill="none" stroke="yellow" d="M384.35,-2222.2C362.35,-2227.08 339.48,-2234.81 320.5,-2247 301.17,-2259.41 302.18,-2275.73 309.5,-2297.5 318.82,-2325.22 345.87,-2338.23 375.04,-2343.86"/>
<polygon fill="yellow" stroke="yellow" points="384.82,-2225.68 393.93,-2220.26 383.43,-2218.82 384.82,-2225.68"/>
<polygon fill="yellow" stroke="yellow" points="374.36,-2347.29 384.79,-2345.43 375.48,-2340.38 374.36,-2347.29"/>
</g>
<!-- reflect_missile -->
<g id="node64" class="node">
<title>reflect_missile</title>
<path fill="none" stroke="#d9d9d9" d="M805.75,-2264C805.75,-2264 671.25,-2264 671.25,-2264 665.25,-2264 659.25,-2258 659.25,-2252 659.25,-2252 659.25,-2240 659.25,-2240 659.25,-2234 665.25,-2228 671.25,-2228 671.25,-2228 805.75,-2228 805.75,-2228 811.75,-2228 817.75,-2234 817.75,-2240 817.75,-2240 817.75,-2252 817.75,-2252 817.75,-2258 811.75,-2264 805.75,-2264"/>
<text text-anchor="middle" x="738.5" y="-2240.95" font-family="Helvetica,sans-Serif" font-size="14.00" fill="#e5e5e5">Reflect Missile (25/30)</text>
</g>
<!-- ricochet_guard&#45;&gt;reflect_missile -->
<g id="edge87" class="edge">
<title>ricochet_guard&#45;&gt;reflect_missile</title>
<path fill="none" stroke="#d9d9d9" d="M540.6,-2222.53C573.54,-2226.46 612.97,-2231.16 647.86,-2235.32"/>
<polygon fill="#d9d9d9" stroke="#d9d9d9" points="647.17,-2238.76 657.52,-2236.47 648,-2231.81 647.17,-2238.76"/>
</g>
<!-- pulse_strike&#45;&gt;propulsion_assault -->
<g id="edge84" class="edge">
<title>pulse_strike&#45;&gt;propulsion_assault</title>
<path fill="none" stroke="yellow" d="M468,-2308.4C468,-2310.39 468,-2312.38 468,-2314.37"/>
<polygon fill="yellow" stroke="yellow" points="471.5,-2308.79 468,-2298.79 464.5,-2308.79 471.5,-2308.79"/>
<polygon fill="yellow" stroke="yellow" points="464.5,-2314.24 468,-2324.24 471.5,-2314.24 464.5,-2314.24"/>
</g>
<!-- pulse_reversal -->
<g id="node63" class="node">
<title>pulse_reversal</title>
<path fill="none" stroke="#d9d9d9" d="M797.12,-2345C797.12,-2345 679.88,-2345 679.88,-2345 673.88,-2345 667.88,-2339 667.88,-2333 667.88,-2333 667.88,-2321 667.88,-2321 667.88,-2315 673.88,-2309 679.88,-2309 679.88,-2309 797.12,-2309 797.12,-2309 803.12,-2309 809.12,-2315 809.12,-2321 809.12,-2321 809.12,-2333 809.12,-2333 809.12,-2339 803.12,-2345 797.12,-2345"/>
<text text-anchor="middle" x="738.5" y="-2321.95" font-family="Helvetica,sans-Serif" font-size="14.00" fill="#e5e5e5">Pulse Reversal (30)</text>
</g>
<!-- pulse_strike&#45;&gt;pulse_reversal -->
<g id="edge85" class="edge">
<title>pulse_strike&#45;&gt;pulse_reversal</title>
<path fill="none" stroke="#d9d9d9" d="M538.84,-2291.49C574.91,-2297.93 619.1,-2305.83 656.63,-2312.54"/>
<polygon fill="#d9d9d9" stroke="#d9d9d9" points="655.59,-2315.91 666.05,-2314.23 656.82,-2309.02 655.59,-2315.91"/>
</g>
<!-- pulse_strike&#45;&gt;reflect_missile -->
<g id="edge88" class="edge">
<title>pulse_strike&#45;&gt;reflect_missile</title>
<path fill="none" stroke="#d9d9d9" d="M538.84,-2270.42C572.07,-2266.33 612.2,-2261.4 647.67,-2257.04"/>
<polygon fill="#d9d9d9" stroke="#d9d9d9" points="648,-2260.53 657.5,-2255.83 647.15,-2253.58 648,-2260.53"/>
</g>
<!-- propulsion_assault&#45;&gt;pulse_reversal -->
<g id="edge86" class="edge">
<title>propulsion_assault&#45;&gt;pulse_reversal</title>
<path fill="none" stroke="#d9d9d9" d="M549.92,-2338.88C583.63,-2336.74 622.7,-2334.27 656.43,-2332.13"/>
<polygon fill="#d9d9d9" stroke="#d9d9d9" points="656.38,-2335.64 666.13,-2331.52 655.93,-2328.66 656.38,-2335.64"/>
</g>
<!-- conjure_grease -->
<g id="node66" class="node">
<title>conjure_grease</title>
<path fill="none" stroke="#d9d9d9" d="M528.88,-2082C528.88,-2082 407.12,-2082 407.12,-2082 401.12,-2082 395.12,-2076 395.12,-2070 395.12,-2070 395.12,-2058 395.12,-2058 395.12,-2052 401.12,-2046 407.12,-2046 407.12,-2046 528.88,-2046 528.88,-2046 534.88,-2046 540.88,-2052 540.88,-2058 540.88,-2058 540.88,-2070 540.88,-2070 540.88,-2076 534.88,-2082 528.88,-2082"/>
<text text-anchor="middle" x="468" y="-2058.95" font-family="Helvetica,sans-Serif" font-size="14.00" fill="#e5e5e5">Conjure Grease (25)</text>
</g>
<!-- lesser_conjuration&#45;&gt;conjure_grease -->
<g id="edge90" class="edge">
<title>lesser_conjuration&#45;&gt;conjure_grease</title>
<path fill="none" stroke="#d9d9d9" d="M266.79,-2110.5C284.3,-2105.98 303.06,-2101.22 320.5,-2097 341.01,-2092.03 363.2,-2086.91 383.95,-2082.22"/>
<polygon fill="#d9d9d9" stroke="#d9d9d9" points="384.52,-2085.68 393.51,-2080.07 382.99,-2078.85 384.52,-2085.68"/>
</g>
<!-- conjure_wall -->
<g id="node67" class="node">
<title>conjure_wall</title>
<path fill="none" stroke="#d9d9d9" d="M519.12,-2147C519.12,-2147 416.88,-2147 416.88,-2147 410.88,-2147 404.88,-2141 404.88,-2135 404.88,-2135 404.88,-2123 404.88,-2123 404.88,-2117 410.88,-2111 416.88,-2111 416.88,-2111 519.12,-2111 519.12,-2111 525.12,-2111 531.12,-2117 531.12,-2123 531.12,-2123 531.12,-2135 531.12,-2135 531.12,-2141 525.12,-2147 519.12,-2147"/>
<text text-anchor="middle" x="468" y="-2123.95" font-family="Helvetica,sans-Serif" font-size="14.00" fill="#e5e5e5">Conjure Wall (30)</text>
</g>
<!-- lesser_conjuration&#45;&gt;conjure_wall -->
<g id="edge91" class="edge">
<title>lesser_conjuration&#45;&gt;conjure_wall</title>
<path fill="none" stroke="#d9d9d9" d="M278.74,-2129C315.16,-2129 357.73,-2129 393.17,-2129"/>
<polygon fill="#d9d9d9" stroke="#d9d9d9" points="392.89,-2132.5 402.89,-2129 392.89,-2125.5 392.89,-2132.5"/>
</g>
<!-- conjure_grease&#45;&gt;conjure_wall -->
<g id="edge92" class="edge">
<title>conjure_grease&#45;&gt;conjure_wall</title>
<path fill="none" stroke="yellow" d="M468,-2093.4C468,-2095.39 468,-2097.38 468,-2099.37"/>
<polygon fill="yellow" stroke="yellow" points="471.5,-2093.79 468,-2083.79 464.5,-2093.79 471.5,-2093.79"/>
<polygon fill="yellow" stroke="yellow" points="464.5,-2099.24 468,-2109.24 471.5,-2099.24 464.5,-2099.24"/>
</g>
<!-- lesser_illusion -->
<g id="node69" class="node">
<title>lesser_illusion</title>
<path fill="none" stroke="#d9d9d9" d="M524.75,-1997C524.75,-1997 411.25,-1997 411.25,-1997 405.25,-1997 399.25,-1991 399.25,-1985 399.25,-1985 399.25,-1973 399.25,-1973 399.25,-1967 405.25,-1961 411.25,-1961 411.25,-1961 524.75,-1961 524.75,-1961 530.75,-1961 536.75,-1967 536.75,-1973 536.75,-1973 536.75,-1985 536.75,-1985 536.75,-1991 530.75,-1997 524.75,-1997"/>
<text text-anchor="middle" x="468" y="-1973.95" font-family="Helvetica,sans-Serif" font-size="14.00" fill="#e5e5e5">Lesser Illusion (25)</text>
</g>
<!-- prestidigitation&#45;&gt;lesser_illusion -->
<g id="edge94" class="edge">
<title>prestidigitation&#45;&gt;lesser_illusion</title>
<path fill="none" stroke="#d9d9d9" d="M265.48,-1955.12C302.74,-1959.53 349,-1965.02 387.8,-1969.61"/>
<polygon fill="#d9d9d9" stroke="#d9d9d9" points="387.21,-1973.07 397.56,-1970.77 388.04,-1966.12 387.21,-1973.07"/>
</g>
<!-- evanescent_slip -->
<g id="node70" class="node">
<title>evanescent_slip</title>
<path fill="none" stroke="#d9d9d9" d="M539.75,-1932C539.75,-1932 396.25,-1932 396.25,-1932 390.25,-1932 384.25,-1926 384.25,-1920 384.25,-1920 384.25,-1908 384.25,-1908 384.25,-1902 390.25,-1896 396.25,-1896 396.25,-1896 539.75,-1896 539.75,-1896 545.75,-1896 551.75,-1902 551.75,-1908 551.75,-1908 551.75,-1920 551.75,-1920 551.75,-1926 545.75,-1932 539.75,-1932"/>
<text text-anchor="middle" x="468" y="-1908.95" font-family="Helvetica,sans-Serif" font-size="14.00" fill="#e5e5e5">Evanescent Slip (30/35)</text>
</g>
<!-- prestidigitation&#45;&gt;evanescent_slip -->
<g id="edge95" class="edge">
<title>prestidigitation&#45;&gt;evanescent_slip</title>
<path fill="none" stroke="#d9d9d9" d="M265.48,-1938.63C298.05,-1934.65 337.5,-1929.83 372.83,-1925.51"/>
<polygon fill="#d9d9d9" stroke="#d9d9d9" points="373.14,-1929 382.64,-1924.31 372.29,-1922.05 373.14,-1929"/>
</g>
<!-- devious_strike -->
<g id="node71" class="node">
<title>devious_strike</title>
<path fill="none" stroke="#d9d9d9" d="M534.5,-1867C534.5,-1867 401.5,-1867 401.5,-1867 395.5,-1867 389.5,-1861 389.5,-1855 389.5,-1855 389.5,-1843 389.5,-1843 389.5,-1837 395.5,-1831 401.5,-1831 401.5,-1831 534.5,-1831 534.5,-1831 540.5,-1831 546.5,-1837 546.5,-1843 546.5,-1843 546.5,-1855 546.5,-1855 546.5,-1861 540.5,-1867 534.5,-1867"/>
<text text-anchor="middle" x="468" y="-1843.95" font-family="Helvetica,sans-Serif" font-size="14.00" fill="#e5e5e5">Devious Strike (35/40)</text>
</g>
<!-- prestidigitation&#45;&gt;devious_strike -->
<g id="edge96" class="edge">
<title>prestidigitation&#45;&gt;devious_strike</title>
<path fill="none" stroke="#d9d9d9" d="M226.43,-1928.67C250.83,-1914.19 286.85,-1894.4 320.5,-1882 338.7,-1875.29 358.7,-1869.7 377.9,-1865.13"/>
<polygon fill="#d9d9d9" stroke="#d9d9d9" points="378.66,-1868.55 387.63,-1862.9 377.1,-1861.73 378.66,-1868.55"/>
</g>
<!-- lesser_illusion&#45;&gt;evanescent_slip -->
<g id="edge97" class="edge">
<title>lesser_illusion&#45;&gt;evanescent_slip</title>
<path fill="none" stroke="yellow" d="M468,-1949.37C468,-1947.38 468,-1945.39 468,-1943.4"/>
<polygon fill="yellow" stroke="yellow" points="464.5,-1949.24 468,-1959.24 471.5,-1949.24 464.5,-1949.24"/>
<polygon fill="yellow" stroke="yellow" points="471.5,-1943.79 468,-1933.79 464.5,-1943.79 471.5,-1943.79"/>
</g>
<!-- lesser_illusion&#45;&gt;devious_strike -->
<g id="edge99" class="edge">
<title>lesser_illusion&#45;&gt;devious_strike</title>
<path fill="none" stroke="#d9d9d9" d="M398.82,-1981.94C361.76,-1979.19 321.34,-1967.7 309.5,-1932.5 302.18,-1910.73 301.17,-1894.41 320.5,-1882 337.73,-1870.93 358.17,-1863.55 378.25,-1858.62"/>
<polygon fill="#d9d9d9" stroke="#d9d9d9" points="378.88,-1862.07 387.87,-1856.47 377.35,-1855.24 378.88,-1862.07"/>
</g>
<!-- devious_strike&#45;&gt;evanescent_slip -->
<g id="edge98" class="edge">
<title>devious_strike&#45;&gt;evanescent_slip</title>
<path fill="none" stroke="yellow" d="M468,-1878.4C468,-1880.39 468,-1882.38 468,-1884.37"/>
<polygon fill="yellow" stroke="yellow" points="471.5,-1878.79 468,-1868.79 464.5,-1878.79 471.5,-1878.79"/>
<polygon fill="yellow" stroke="yellow" points="464.5,-1884.24 468,-1894.24 471.5,-1884.24 464.5,-1884.24"/>
</g>
<!-- revitalizing_sigil -->
<g id="node73" class="node">
<title>revitalizing_sigil</title>
<path fill="none" stroke="#d9d9d9" d="M529.62,-1782C529.62,-1782 406.38,-1782 406.38,-1782 400.38,-1782 394.38,-1776 394.38,-1770 394.38,-1770 394.38,-1758 394.38,-1758 394.38,-1752 400.38,-1746 406.38,-1746 406.38,-1746 529.62,-1746 529.62,-1746 535.62,-1746 541.62,-1752 541.62,-1758 541.62,-1758 541.62,-1770 541.62,-1770 541.62,-1776 535.62,-1782 529.62,-1782"/>
<text text-anchor="middle" x="468" y="-1758.95" font-family="Helvetica,sans-Serif" font-size="14.00" fill="#e5e5e5">Revitalizing Sigil (30)</text>
</g>
<!-- seal_wounds&#45;&gt;revitalizing_sigil -->
<g id="edge101" class="edge">
<title>seal_wounds&#45;&gt;revitalizing_sigil</title>
<path fill="none" stroke="#d9d9d9" d="M261.67,-1764C298.02,-1764 343.81,-1764 382.92,-1764"/>
<polygon fill="#d9d9d9" stroke="#d9d9d9" points="382.78,-1767.5 392.78,-1764 382.78,-1760.5 382.78,-1767.5"/>
</g>
<!-- mangle_wounds -->
<g id="node74" class="node">
<title>mangle_wounds</title>
<path fill="none" stroke="#d9d9d9" d="M530,-1717C530,-1717 406,-1717 406,-1717 400,-1717 394,-1711 394,-1705 394,-1705 394,-1693 394,-1693 394,-1687 400,-1681 406,-1681 406,-1681 530,-1681 530,-1681 536,-1681 542,-1687 542,-1693 542,-1693 542,-1705 542,-1705 542,-1711 536,-1717 530,-1717"/>
<text text-anchor="middle" x="468" y="-1693.95" font-family="Helvetica,sans-Serif" font-size="14.00" fill="#e5e5e5">Mangle Wounds (30)</text>
</g>
<!-- seal_wounds&#45;&gt;mangle_wounds -->
<g id="edge102" class="edge">
<title>seal_wounds&#45;&gt;mangle_wounds</title>
<path fill="none" stroke="#d9d9d9" d="M261.64,-1746.84C280.58,-1741.92 301.34,-1736.64 320.5,-1732 340.6,-1727.13 362.3,-1722.12 382.69,-1717.51"/>
<polygon fill="#d9d9d9" stroke="#d9d9d9" points="383.4,-1720.93 392.39,-1715.32 381.86,-1714.11 383.4,-1720.93"/>
</g>
<!-- mangle_wounds&#45;&gt;revitalizing_sigil -->
<g id="edge103" class="edge">
<title>mangle_wounds&#45;&gt;revitalizing_sigil</title>
<path fill="none" stroke="yellow" d="M468,-1728.4C468,-1730.39 468,-1732.38 468,-1734.37"/>
<polygon fill="yellow" stroke="yellow" points="471.5,-1728.79 468,-1718.79 464.5,-1728.79 471.5,-1728.79"/>
<polygon fill="yellow" stroke="yellow" points="464.5,-1734.24 468,-1744.24 471.5,-1734.24 464.5,-1734.24"/>
</g>
<!-- transmute_brambles -->
<g id="node76" class="node">
<title>transmute_brambles</title>
<path fill="none" stroke="#d9d9d9" d="M815.12,-2447C815.12,-2447 661.88,-2447 661.88,-2447 655.88,-2447 649.88,-2441 649.88,-2435 649.88,-2435 649.88,-2423 649.88,-2423 649.88,-2417 655.88,-2411 661.88,-2411 661.88,-2411 815.12,-2411 815.12,-2411 821.12,-2411 827.12,-2417 827.12,-2423 827.12,-2423 827.12,-2435 827.12,-2435 827.12,-2441 821.12,-2447 815.12,-2447"/>
<text text-anchor="middle" x="738.5" y="-2423.95" font-family="Helvetica,sans-Serif" font-size="14.00" fill="#e5e5e5">Transmute Brambles (30)</text>
</g>
<!-- botanical_alteration&#45;&gt;transmute_brambles -->
<g id="edge105" class="edge">
<title>botanical_alteration&#45;&gt;transmute_brambles</title>
<path fill="none" stroke="#d9d9d9" d="M551.38,-2451.18C578.87,-2447.91 609.79,-2444.22 638.42,-2440.81"/>
<polygon fill="#d9d9d9" stroke="#d9d9d9" points="638.66,-2444.3 648.18,-2439.65 637.83,-2437.35 638.66,-2444.3"/>
</g>
<!-- botanical_alteration&#45;&gt;invoke_lightning -->
<g id="edge116" class="edge">
<title>botanical_alteration&#45;&gt;invoke_lightning</title>
<path fill="none" stroke="#d9d9d9" d="M513.76,-2479.43C547.55,-2493.12 595.17,-2511.95 637.5,-2527 647.02,-2530.38 657.11,-2533.8 667.07,-2537.09"/>
<polygon fill="#d9d9d9" stroke="#d9d9d9" points="665.77,-2540.34 676.36,-2540.11 667.94,-2533.69 665.77,-2540.34"/>
</g>
<!-- animate_carrat -->
<g id="node78" class="node">
<title>animate_carrat</title>
<path fill="none" stroke="#d9d9d9" d="M796,-2512C796,-2512 681,-2512 681,-2512 675,-2512 669,-2506 669,-2500 669,-2500 669,-2488 669,-2488 669,-2482 675,-2476 681,-2476 681,-2476 796,-2476 796,-2476 802,-2476 808,-2482 808,-2488 808,-2488 808,-2500 808,-2500 808,-2506 802,-2512 796,-2512"/>
<text text-anchor="middle" x="738.5" y="-2488.95" font-family="Helvetica,sans-Serif" font-size="14.00" fill="#e5e5e5">Animate Carrat (30)</text>
</g>
<!-- botanical_alteration&#45;&gt;animate_carrat -->
<g id="edge106" class="edge">
<title>botanical_alteration&#45;&gt;animate_carrat</title>
<path fill="none" stroke="#d9d9d9" d="M551.38,-2471.13C585.18,-2475.28 624.15,-2480.07 657.68,-2484.19"/>
<polygon fill="#d9d9d9" stroke="#d9d9d9" points="656.97,-2487.63 667.32,-2485.37 657.82,-2480.68 656.97,-2487.63"/>
</g>
<!-- phase_shift -->
<g id="node80" class="node">
<title>phase_shift</title>
<path fill="none" stroke="#d9d9d9" d="M515,-1632C515,-1632 421,-1632 421,-1632 415,-1632 409,-1626 409,-1620 409,-1620 409,-1608 409,-1608 409,-1602 415,-1596 421,-1596 421,-1596 515,-1596 515,-1596 521,-1596 527,-1602 527,-1608 527,-1608 527,-1620 527,-1620 527,-1626 521,-1632 515,-1632"/>
<text text-anchor="middle" x="468" y="-1608.95" font-family="Helvetica,sans-Serif" font-size="14.00" fill="#e5e5e5">Phase Shift (20)</text>
</g>
<!-- warp_step&#45;&gt;phase_shift -->
<g id="edge108" class="edge">
<title>warp_step&#45;&gt;phase_shift</title>
<path fill="none" stroke="#d9d9d9" d="M252.94,-1588.63C294.86,-1593.6 352.48,-1600.43 397.38,-1605.75"/>
<polygon fill="#d9d9d9" stroke="#d9d9d9" points="396.95,-1609.22 407.29,-1606.92 397.77,-1602.27 396.95,-1609.22"/>
</g>
<!-- elusive_flash -->
<g id="node81" class="node">
<title>elusive_flash</title>
<path fill="none" stroke="#d9d9d9" d="M520.62,-1502C520.62,-1502 415.38,-1502 415.38,-1502 409.38,-1502 403.38,-1496 403.38,-1490 403.38,-1490 403.38,-1478 403.38,-1478 403.38,-1472 409.38,-1466 415.38,-1466 415.38,-1466 520.62,-1466 520.62,-1466 526.62,-1466 532.62,-1472 532.62,-1478 532.62,-1478 532.62,-1490 532.62,-1490 532.62,-1496 526.62,-1502 520.62,-1502"/>
<text text-anchor="middle" x="468" y="-1478.95" font-family="Helvetica,sans-Serif" font-size="14.00" fill="#e5e5e5">Elusive Flash (30)</text>
</g>
<!-- warp_step&#45;&gt;elusive_flash -->
<g id="edge109" class="edge">
<title>warp_step&#45;&gt;elusive_flash</title>
<path fill="none" stroke="#d9d9d9" d="M226.43,-1563.67C250.83,-1549.19 286.85,-1529.4 320.5,-1517 343.21,-1508.63 368.7,-1502 391.98,-1496.93"/>
<polygon fill="#d9d9d9" stroke="#d9d9d9" points="392.67,-1500.37 401.73,-1494.89 391.23,-1493.52 392.67,-1500.37"/>
</g>
<!-- warp_swap -->
<g id="node82" class="node">
<title>warp_swap</title>
<path fill="none" stroke="#d9d9d9" d="M525.5,-1567C525.5,-1567 410.5,-1567 410.5,-1567 404.5,-1567 398.5,-1561 398.5,-1555 398.5,-1555 398.5,-1543 398.5,-1543 398.5,-1537 404.5,-1531 410.5,-1531 410.5,-1531 525.5,-1531 525.5,-1531 531.5,-1531 537.5,-1537 537.5,-1543 537.5,-1543 537.5,-1555 537.5,-1555 537.5,-1561 531.5,-1567 525.5,-1567"/>
<text text-anchor="middle" x="468" y="-1543.95" font-family="Helvetica,sans-Serif" font-size="14.00" fill="#e5e5e5">Warp Swap (30/35)</text>
</g>
<!-- warp_step&#45;&gt;warp_swap -->
<g id="edge110" class="edge">
<title>warp_step&#45;&gt;warp_swap</title>
<path fill="none" stroke="#d9d9d9" d="M252.94,-1575.16C291.65,-1570.43 343.75,-1564.06 386.86,-1558.8"/>
<polygon fill="#d9d9d9" stroke="#d9d9d9" points="387.18,-1562.28 396.68,-1557.59 386.33,-1555.33 387.18,-1562.28"/>
</g>
<!-- misdirection -->
<g id="node83" class="node">
<title>misdirection</title>
<path fill="none" stroke="#d9d9d9" d="M797.12,-1534C797.12,-1534 679.88,-1534 679.88,-1534 673.88,-1534 667.88,-1528 667.88,-1522 667.88,-1522 667.88,-1510 667.88,-1510 667.88,-1504 673.88,-1498 679.88,-1498 679.88,-1498 797.12,-1498 797.12,-1498 803.12,-1498 809.12,-1504 809.12,-1510 809.12,-1510 809.12,-1522 809.12,-1522 809.12,-1528 803.12,-1534 797.12,-1534"/>
<text text-anchor="middle" x="738.5" y="-1510.95" font-family="Helvetica,sans-Serif" font-size="14.00" fill="#e5e5e5">Misdirection (35/40)</text>
</g>
<!-- elusive_flash&#45;&gt;misdirection -->
<g id="edge112" class="edge">
<title>elusive_flash&#45;&gt;misdirection</title>
<path fill="none" stroke="#d9d9d9" d="M532.97,-1491.62C569.9,-1496.02 616.7,-1501.6 656.22,-1506.31"/>
<polygon fill="#d9d9d9" stroke="#d9d9d9" points="655.57,-1509.76 665.92,-1507.47 656.4,-1502.81 655.57,-1509.76"/>
</g>
<!-- warp_swap&#45;&gt;elusive_flash -->
<g id="edge111" class="edge">
<title>warp_swap&#45;&gt;elusive_flash</title>
<path fill="none" stroke="yellow" d="M468,-1519.37C468,-1517.38 468,-1515.39 468,-1513.4"/>
<polygon fill="yellow" stroke="yellow" points="464.5,-1519.24 468,-1529.24 471.5,-1519.24 464.5,-1519.24"/>
<polygon fill="yellow" stroke="yellow" points="471.5,-1513.79 468,-1503.79 464.5,-1513.79 471.5,-1513.79"/>
</g>
<!-- warp_swap&#45;&gt;misdirection -->
<g id="edge113" class="edge">
<title>warp_swap&#45;&gt;misdirection</title>
<path fill="none" stroke="#d9d9d9" d="M537.8,-1540.54C574,-1536.1 618.61,-1530.61 656.48,-1525.96"/>
<polygon fill="#d9d9d9" stroke="#d9d9d9" points="656.48,-1529.48 665.98,-1524.79 655.63,-1522.54 656.48,-1529.48"/>
</g>
</g>
</svg>
